<?xml version="1.0" encoding="utf-8"?>
<!-- Generator: Adobe Illustrator 23.0.3, SVG Export Plug-In . SVG Version: 6.00 Build 0)  -->
<svg version="1.1" id="Layer_1" xmlns="http://www.w3.org/2000/svg" xmlns:xlink="http://www.w3.org/1999/xlink" x="0px" y="0px"
	 width="142.8px" height="144.1px" viewBox="0 0 142.8 144.1" style="enable-background:new 0 0 142.8 144.1;" xml:space="preserve"
	>
<style type="text/css">
	.st0{fill:#E2E2E2;}
	.st1{fill:#B7B7B7;}
	.st2{fill:#6D6D6D;}
	.st3{fill:#828282;}
	.st4{fill:#F5BC00;}
	.st5{enable-background:new    ;}
</style>
<g>
	<path class="st0" d="M3.4,108.5l53.5,31c1,0.7,3.1,0.7,4.1,0l81-47c1-0.7,1-1.7,0-2.4l-53.5-31c-1-0.7-3.1-0.7-4.1,0l-81,47
		C2.4,106.8,2,107.9,3.4,108.5z"/>
</g>
<g>
	<path class="st1" d="M64.7,112.6c-0.7,0.3-0.7,1,0,1.4l14.3,8.5c0.7,0.3,1.7,0.3,2.4,0l28.3-16.3c0.7-0.3,0.7-1,0-1.4l-14.3-8.5
		c-0.7-0.3-1.7-0.3-2.4,0L64.7,112.6z"/>
</g>
<g>
	<path class="st1" d="M2.4,107.2v4.4c0,0.3,0.3,0.7,0.7,1l53.5,31c1,0.7,3.1,0.7,4.1,0l81-47c0.7-0.3,0.7-0.7,0.7-1.4v-4.4
		c0,0.3-0.3,1-0.7,1L61,139.5c-1,0.7-3.1,0.7-4.1,0l-53.5-31C2.7,108.2,2.4,107.9,2.4,107.2z"/>
</g>
<g>
	<path class="st2" d="M84.5,1.6c1-0.7,2,0,2,1v52.8c0,1.4-1,2.7-2,3.4l-80,46.7c-1,0.7-2,0-2-1V51.7c0-1.4,1-2.7,2-3.4L84.5,1.6z"/>
</g>
<g>
	<path class="st3" d="M0,50.3v52.8c0,0.7,0.3,1,0.7,1.4l2,1.4c-0.3-0.3-0.7-0.7-0.7-1.4V51.7c0-1.4,1-2.7,2-3.4L84.5,1.6
		c0.7-0.3,1-0.3,1.4,0l-2-1.4c-0.3-0.3-1-0.3-1.4,0l-80,46.3C1,47.2,0,49,0,50.3z"/>
</g>
<g>
	<polygon class="st4" points="5.1,50.7 5.4,101.7 83.8,56.4 83.4,5.4 	"/>
</g>
<g>
	<g>
		<polygon class="st3" points="19.8,104.8 14.6,107.5 12.3,106.5 17.4,103.4 		"/>
	</g>
	<g>
		<polygon class="st3" points="74.9,72.4 69.8,75.5 67.4,74.2 72.5,71.4 		"/>
	</g>
	<g>
		<polygon class="st3" points="88.5,64.6 83.4,67.7 81.4,66.3 86.5,63.3 		"/>
	</g>
	<g>
		<polygon class="st3" points="79.3,83.3 74.2,86.1 69.8,83.7 74.9,80.6 		"/>
	</g>
	<g>
		<polygon class="st3" points="104.9,82 99.8,84.7 95,82.3 100.1,79.3 		"/>
	</g>
	<g>
		<polygon class="st3" points="111.7,77.9 106.6,81 96.4,74.8 101.5,71.8 		"/>
	</g>
	<g class="st5">
		<g>
			<polygon class="st3" points="94.3,68 84.8,73.5 80.4,70.7 89.9,65.3 			"/>
		</g>
		<g>
			<polygon class="st3" points="83.1,74.5 78,77.6 73.6,74.8 78.7,71.8 			"/>
		</g>
		<g>
			<polygon class="st3" points="100.1,71.1 88.2,78.2 83.4,75.5 95.7,68.7 			"/>
		</g>
		<g>
			<polygon class="st3" points="86.5,79.3 81.4,82.3 76.6,79.6 81.7,76.5 			"/>
		</g>
		<g>
			<polygon class="st3" points="91.9,82.7 86.8,85.4 82.4,83 87.5,79.9 			"/>
		</g>
	</g>
	<g>
		<polygon class="st3" points="76.3,78.6 71.2,81.3 66.7,78.9 71.9,75.9 		"/>
	</g>
	<g>
		<polygon class="st3" points="68.1,76.5 63,79.6 60.6,78.2 65.7,75.2 		"/>
	</g>
	<g>
		<polygon class="st3" points="61,80.6 55.8,83.7 53.8,82.3 58.9,79.3 		"/>
	</g>
	<g>
		<polygon class="st3" points="64.7,98.7 59.3,101.7 54.8,99 59.9,95.9 		"/>
	</g>
	<g class="st5">
		<g>
			<polygon class="st3" points="54.1,84.7 49,87.8 47,86.4 52.1,83.3 			"/>
		</g>
		<g>
			<polygon class="st3" points="62.7,86.4 57.2,89.5 52.8,86.7 57.9,83.7 			"/>
		</g>
		<g>
			<polygon class="st3" points="47.3,88.8 42.2,91.5 39.8,90.5 44.9,87.4 			"/>
		</g>
		<g>
			<polygon class="st3" points="55.5,90.5 50.4,93.6 46,90.8 51.1,87.8 			"/>
		</g>
		<g>
			<polygon class="st3" points="65.7,91.2 60.6,94.2 55.8,91.5 61,88.8 			"/>
		</g>
		<g>
			<polygon class="st3" points="40.5,92.5 35.4,95.6 33,94.2 38.1,91.5 			"/>
		</g>
		<g>
			<polygon class="st3" points="48.7,94.6 43.6,97.3 39.2,94.9 44.3,91.9 			"/>
		</g>
		<g>
			<polygon class="st3" points="71.5,94.6 66.4,97.6 61.6,94.9 66.7,91.9 			"/>
		</g>
		<g>
			<polygon class="st3" points="58.9,95.3 53.8,98.3 49,95.6 54.1,92.5 			"/>
		</g>
		<g>
			<polygon class="st3" points="33.4,96.6 28.3,99.7 26.2,98.3 31.3,95.3 			"/>
		</g>
		<g>
			<polygon class="st3" points="41.9,98.3 36.8,101.4 32,98.7 37.1,95.9 			"/>
		</g>
		<g>
			<polygon class="st3" points="51.8,99.3 46.7,102.4 42.2,99.7 47.3,96.6 			"/>
		</g>
		<g>
			<polygon class="st3" points="35.1,102.4 29.6,105.5 25.2,102.8 30.3,99.7 			"/>
		</g>
		<g>
			<polygon class="st3" points="57.5,102.8 52.4,105.5 48,103.1 53.1,100 			"/>
		</g>
		<g>
			<polygon class="st3" points="44.9,103.4 39.8,106.2 35.4,103.8 40.5,100.7 			"/>
		</g>
		<g>
			<polygon class="st3" points="50.7,106.5 45.6,109.6 41.2,106.8 46.3,104.1 			"/>
		</g>
		<g>
			<polygon class="st3" points="77.3,97.6 51.4,113 46.7,110.2 72.9,95.3 			"/>
		</g>
		<g>
			<polygon class="st3" points="43.9,110.6 38.8,113.7 34.1,110.9 39.2,107.9 			"/>
		</g>
		<g>
			<polygon class="st3" points="38.1,107.2 26.2,114.3 21.5,111.6 33.7,104.8 			"/>
		</g>
		<g>
			<polygon class="st3" points="37.1,114.7 31.7,117.7 27.2,115 32.4,111.9 			"/>
		</g>
		<g>
			<polygon class="st3" points="49.7,114 37.5,120.8 33,118.4 44.9,111.3 			"/>
		</g>
	</g>
	<g>
		<polygon class="st3" points="26.6,100.7 21.5,103.8 19.4,102.4 24.5,99.3 		"/>
	</g>
	<g>
		<polygon class="st3" points="81.7,68.7 76.6,71.4 74.6,70.4 79.7,67.3 		"/>
	</g>
	<g>
		<polygon class="st3" points="69.5,82.3 64.4,85.4 59.6,82.7 64.7,79.9 		"/>
	</g>
	<g>
		<polygon class="st3" points="84.1,93.9 79,97 74.2,94.2 79.3,91.2 		"/>
	</g>
	<g>
		<polygon class="st3" points="78.3,90.5 73.2,93.6 68.8,90.8 73.9,87.8 		"/>
	</g>
	<g>
		<polygon class="st3" points="72.5,87.1 67.4,90.2 63,87.8 68.1,84.7 		"/>
	</g>
	<g>
		<polygon class="st3" points="97.7,85.7 92.6,88.8 88.2,86.1 93.3,83.3 		"/>
	</g>
	<g>
		<polygon class="st3" points="90.9,89.8 85.8,92.9 81.4,90.2 86.5,87.1 		"/>
	</g>
	<g>
		<polygon class="st3" points="27.9,106.5 20.4,110.9 15.7,108.2 23.5,103.8 		"/>
	</g>
</g>
<polygon class="st2" points="13.3,66.3 15,65.3 15,77.6 13.3,78.6 "/>
<path class="st2" d="M15,60.2v3.7c0,0,0,0.3-0.3,0.3c0,0,0,0-0.3,0l-3.7-1.7v-0.3c0,0,0,0,0.3-0.3L15,60.2
	C14.6,59.8,15,59.8,15,60.2L15,60.2z"/>
<path class="st2" d="M23.2,62.2l-2.7,1.7v10.2l-1.7,1V63.3l4.4-2.7c1.7-1,3.1-1.4,4.1-1c0.3-1,1-1.7,2-2.4l2.4-1.4
	c3.7-2,5.8-1.4,5.8,2.4v6.1l-1.7,1v-6.1c0-2.7-1.4-3.1-4.1-1.7l-2.4,1.4c-0.3,0-0.7,0.3-0.7,0.7l0,0V69l-1.4,1v-6.1
	C27.2,61.2,25.9,60.9,23.2,62.2z"/>
<path class="st2" d="M40.2,54.7c0-2.7,1.4-4.8,4.1-6.5l4.1-2.4c2.7-1.7,4.1-1,4.1,1.7v4.1c0,2.7-1.4,4.8-4.1,6.5l-4.1,2.4
	c-2.7,1.7-4.1,1-4.1-1.7V54.7z M43.9,50.3c-1.4,1-2.4,2-2.4,3.7v4.1c0,1.4,0.7,1.7,2.4,1l4.1-2.4c1.4-1,2.4-2,2.4-3.7V49
	c0-1.4-0.7-1.7-2.4-1L43.9,50.3z"/>
<path class="st2" d="M59.9,49.3L64,37l1.7-1l-5.1,15l-2,1l-5.1-9.2l1.7-1L59.9,49.3z"/>
<path class="st2" d="M75.6,40.4c1.4-1,2.4-2,2.4-3.7l1.7-1c0,2.7-1.4,4.8-4.1,6.5l-4.1,2.4c-2.7,1.7-4.1,1-4.1-1.7v-4.1
	c0-2.7,1.4-4.8,4.1-6.5l4.1-2.4c2.7-1.7,4.1-1,4.1,1c0,1.7-0.7,3.1-1.7,3.7l-8.5,6.8c0,1.4,0.7,1.7,2.4,0.7L75.6,40.4z M71.5,34.3
	c-1.4,1-2.4,2-2.4,3.7v2.4l8.2-6.5c0.3-0.3,0.3-0.7,0.3-1c0-1.4-0.7-1.7-2.4-1L71.5,34.3z"/>
</svg>
