<?xml version="1.0" encoding="utf-8"?>
<!-- Generator: Adobe Illustrator 22.1.0, SVG Export Plug-In . SVG Version: 6.00 Build 0)  -->
<svg version="1.1" id="レイヤー_1" xmlns="http://www.w3.org/2000/svg" xmlns:xlink="http://www.w3.org/1999/xlink" x="0px"
	 y="0px" viewBox="0 0 120 55.1" style="enable-background:new 0 0 120 55.1;" xml:space="preserve">
<style type="text/css">
	.st0{fill:#3E3C3C;}
	.st1{fill:#FFDF00;}
	.st2{fill:#EF9B0D;}
	.st3{fill:#F3D412;}
	.st4{fill:#FFFFFF;}
</style>
<g>
	<g>
		<path class="st0" d="M27.2,53.5c-14.3,0-26-11.6-26-26c0-14.3,11.6-26,26-26s26,11.6,26,26C53.1,41.9,41.5,53.5,27.2,53.5z
			 M27.2,2.5C13.3,2.5,2.1,13.7,2.1,27.6c0,13.8,11.3,25.1,25.1,25.1s25.1-11.3,25.1-25.1C52.3,13.7,41,2.5,27.2,2.5z"/>
	</g>
	<circle class="st1" cx="27.2" cy="27.7" r="25.5"/>
	<path class="st2" d="M27.2,53.5c-14.3,0-26-11.6-26-26c0-14.3,11.6-26,26-26s26,11.6,26,26C53.1,41.9,41.5,53.5,27.2,53.5z
		 M27.2,2.5C13.3,2.5,2.1,13.7,2.1,27.6c0,13.8,11.3,25.1,25.1,25.1s25.1-11.3,25.1-25.1C52.3,13.7,41,2.5,27.2,2.5z"/>
	<g>
		<circle class="st3" cx="27.2" cy="27.6" r="20.8"/>
		<path class="st0" d="M27.2,48.8c-11.7,0-21.2-9.5-21.2-21.2c0-11.7,9.5-21.2,21.2-21.2s21.2,9.5,21.2,21.2
			C48.4,39.3,38.9,48.8,27.2,48.8z M27.2,7.2c-11.2,0-20.4,9.1-20.4,20.4c0,11.2,9.1,20.4,20.4,20.4s20.4-9.1,20.4-20.4
			C47.5,16.3,38.4,7.2,27.2,7.2z"/>
	</g>
	<g>
		<circle class="st4" cx="27.2" cy="27.6" r="21.9"/>
	</g>
	<g>
		<polygon class="st1" points="24.4,33 31.9,46.3 32.2,33 		"/>
	</g>
	<g>
		<path class="st2" d="M31.7,47.1c-0.1,0-0.2,0-0.2-0.1l-12.7-7.3c-0.2-0.1-0.3-0.4-0.2-0.6c0.1-0.2,0.4-0.3,0.6-0.2l12,7V8.3
			c0-0.2,0.2-0.5,0.5-0.5s0.5,0.2,0.5,0.5v38.4c0,0.2-0.1,0.3-0.2,0.4C31.9,47.1,31.8,47.1,31.7,47.1z"/>
	</g>
	<g>
		<polygon class="st1" points="25.8,17.8 27.7,21.5 31.1,21.9 29.3,19.9 26.9,18.3 		"/>
	</g>
	<g>
		<polygon class="st1" points="19.2,24.4 25.4,27.3 31.7,33 24,33 		"/>
	</g>
	<g>
		<path class="st2" d="M31.7,47.1c-0.2,0-0.3-0.1-0.4-0.2L18.6,24.4c-0.1-0.2-0.1-0.4,0-0.5L31.4,8c0.1-0.2,0.4-0.2,0.6-0.1
			c0.2,0.1,0.3,0.3,0.2,0.5l-7.7,24.5l7.7,13.5c0.1,0.2,0,0.5-0.2,0.6C31.9,47.1,31.8,47.1,31.7,47.1z M19.6,24.2l4.3,7.6l6.7-21.4
			L19.6,24.2z"/>
	</g>
	<g>
		<path class="st2" d="M19,39.8c0,0-0.1,0-0.1,0c-0.2-0.1-0.3-0.2-0.3-0.4V24.2c0-0.2,0.1-0.3,0.2-0.4c0.1-0.1,0.3-0.1,0.4,0
			l6.7,3.3c0,0,0.1,0,0.1,0.1l6,5.5c0.1,0.1,0.2,0.3,0.1,0.5c-0.1,0.2-0.2,0.3-0.4,0.3h-7.5l-4.8,6.2C19.3,39.7,19.2,39.8,19,39.8z
			 M19.5,24.9V38l4.2-5.3c0.1-0.1,0.2-0.2,0.4-0.2h6.6l-5.1-4.7L19.5,24.9z"/>
	</g>
	<g>
		<path class="st2" d="M31.7,22.5C31.7,22.5,31.7,22.5,31.7,22.5L27.6,22c-0.1,0-0.2-0.1-0.3-0.2l-2.9-4.2c-0.1-0.2-0.1-0.4,0-0.5
			c0.1-0.2,0.4-0.2,0.5-0.1l3.5,1.6c0,0,0.1,0,0.1,0.1l3.4,3.1c0.1,0.1,0.2,0.3,0.1,0.5C32.1,22.4,31.9,22.5,31.7,22.5z M27.9,21.1
			l2.4,0.3l-2.3-2l-1.9-0.9L27.9,21.1z"/>
	</g>
	<g>
		<path class="st2" d="M64,22h2.1v9.7H71v1.8h-7V22z"/>
		<path class="st2" d="M78.3,22h2.1v11.5h-2.1V22z"/>
		<path class="st2" d="M97.6,24.7c-0.3-0.4-0.7-0.7-1.2-0.9c-0.5-0.2-1-0.3-1.4-0.3c-0.6,0-1.1,0.1-1.6,0.3
			c-0.5,0.2-0.9,0.5-1.3,0.9c-0.4,0.4-0.6,0.8-0.8,1.3c-0.2,0.5-0.3,1.1-0.3,1.7c0,0.6,0.1,1.2,0.3,1.7c0.2,0.5,0.4,1,0.8,1.3
			s0.8,0.7,1.2,0.9c0.5,0.2,1,0.3,1.6,0.3c0.6,0,1.2-0.1,1.6-0.4c0.5-0.2,0.9-0.6,1.2-1l1.6,1.2c-0.5,0.6-1.1,1.1-1.9,1.5
			c-0.7,0.4-1.6,0.5-2.6,0.5c-0.9,0-1.7-0.1-2.5-0.4c-0.8-0.3-1.4-0.7-1.9-1.3c-0.5-0.5-1-1.2-1.3-1.9c-0.3-0.7-0.5-1.6-0.5-2.5
			c0-0.9,0.2-1.8,0.5-2.5c0.3-0.7,0.8-1.4,1.3-1.9c0.6-0.5,1.2-0.9,2-1.2c0.8-0.3,1.6-0.4,2.5-0.4c0.4,0,0.8,0,1.2,0.1
			c0.4,0.1,0.8,0.2,1.2,0.3c0.4,0.1,0.7,0.3,1,0.5c0.3,0.2,0.6,0.5,0.8,0.8L97.6,24.7z"/>
		<path class="st2" d="M106.4,27.7c0-0.9,0.2-1.8,0.5-2.5c0.3-0.7,0.7-1.4,1.3-1.9c0.5-0.5,1.2-0.9,2-1.2c0.8-0.3,1.6-0.4,2.5-0.4
			c0.9,0,1.7,0.1,2.5,0.4c0.8,0.3,1.4,0.7,2,1.2c0.6,0.5,1,1.2,1.3,1.9c0.3,0.7,0.5,1.6,0.5,2.5c0,0.9-0.2,1.7-0.5,2.5
			c-0.3,0.7-0.7,1.4-1.3,1.9c-0.6,0.5-1.2,1-2,1.3c-0.8,0.3-1.6,0.4-2.5,0.4c-0.9,0-1.7-0.1-2.5-0.4c-0.8-0.3-1.4-0.7-2-1.3
			c-0.5-0.5-1-1.2-1.3-1.9C106.5,29.4,106.4,28.6,106.4,27.7z M108.6,27.7c0,0.6,0.1,1.2,0.3,1.7c0.2,0.5,0.5,1,0.8,1.3
			c0.4,0.4,0.8,0.7,1.3,0.9c0.5,0.2,1,0.3,1.6,0.3c0.6,0,1.1-0.1,1.6-0.3c0.5-0.2,0.9-0.5,1.3-0.9c0.4-0.4,0.6-0.8,0.8-1.3
			c0.2-0.5,0.3-1.1,0.3-1.7c0-0.6-0.1-1.2-0.3-1.7c-0.2-0.5-0.5-1-0.8-1.3c-0.3-0.4-0.8-0.7-1.3-0.9c-0.5-0.2-1-0.3-1.6-0.3
			c-0.6,0-1.1,0.1-1.6,0.3c-0.5,0.2-0.9,0.5-1.2,0.9c-0.3,0.4-0.6,0.8-0.8,1.3C108.7,26.6,108.6,27.1,108.6,27.7z"/>
	</g>
</g>
</svg>
