<?xml version="1.0" encoding="utf-8"?>
<!-- Generator: Adobe Illustrator 22.1.0, SVG Export Plug-In . SVG Version: 6.00 Build 0)  -->
<svg version="1.1" id="レイヤー_1" xmlns="http://www.w3.org/2000/svg" xmlns:xlink="http://www.w3.org/1999/xlink" x="0px"
	 y="0px" viewBox="0 0 297 136.4" style="enable-background:new 0 0 297 136.4;" xml:space="preserve">
<style type="text/css">
	.st0{fill:#3E3C3C;}
	.st1{fill:#FFDF00;}
	.st2{fill:#EF9B0D;}
	.st3{fill:#F3D412;}
	.st4{fill:#FFFFFF;}
</style>
<g>
	<path class="st0" d="M67.1,131.7c-35.2,0-63.9-28.7-63.9-63.9c0-35.2,28.7-63.9,63.9-63.9S131,32.5,131,67.8
		C131,103,102.3,131.7,67.1,131.7z M67.1,5.9C33,5.9,5.2,33.7,5.2,67.8c0,34.1,27.7,61.8,61.8,61.8s61.8-27.7,61.8-61.8
		C128.9,33.7,101.2,5.9,67.1,5.9z"/>
</g>
<circle class="st1" cx="67.1" cy="68.2" r="62.9"/>
<path class="st2" d="M67.1,131.7c-35.2,0-63.9-28.7-63.9-63.9c0-35.2,28.7-63.9,63.9-63.9S131,32.5,131,67.8
	C131,103,102.3,131.7,67.1,131.7z M67.1,5.9C33,5.9,5.2,33.7,5.2,67.8c0,34.1,27.7,61.8,61.8,61.8s61.8-27.7,61.8-61.8
	C128.9,33.7,101.2,5.9,67.1,5.9z"/>
<g>
	<circle class="st3" cx="67.1" cy="67.8" r="51.2"/>
	<path class="st0" d="M67.1,120c-28.8,0-52.3-23.4-52.3-52.3c0-28.8,23.4-52.3,52.3-52.3s52.3,23.4,52.3,52.3
		C119.3,96.6,95.9,120,67.1,120z M67.1,17.6c-27.7,0-50.2,22.5-50.2,50.2c0,27.7,22.5,50.2,50.2,50.2s50.2-22.5,50.2-50.2
		C117.2,40.1,94.7,17.6,67.1,17.6z"/>
</g>
<g>
	<circle class="st4" cx="67.1" cy="67.8" r="54"/>
</g>
<g>
	<polygon class="st1" points="60.3,81.1 78.8,113.9 79.4,81.1 	"/>
</g>
<g>
	<path class="st2" d="M78.4,116c-0.2,0-0.4,0-0.6-0.1L46.5,97.8c-0.5-0.3-0.7-1-0.4-1.5c0.3-0.5,1-0.7,1.5-0.4L77.2,113V20.2
		c0-0.6,0.5-1.1,1.1-1.1s1.1,0.5,1.1,1.1v94.7c0,0.4-0.2,0.8-0.6,1C78.7,116,78.5,116,78.4,116z"/>
</g>
<g>
	<polygon class="st1" points="63.7,43.7 68.4,52.8 76.8,53.9 72.4,48.8 66.4,44.9 	"/>
</g>
<g>
	<polygon class="st1" points="47.4,60.1 62.7,67.2 78.4,81.1 59.3,81.1 	"/>
</g>
<g>
	<path class="st2" d="M78.4,116c-0.4,0-0.8-0.2-1-0.6L46.1,60c-0.2-0.4-0.2-0.9,0.1-1.2l31.3-39.1c0.3-0.4,0.9-0.5,1.4-0.3
		c0.5,0.3,0.7,0.8,0.5,1.3L60.5,81l18.8,33.4c0.3,0.5,0.1,1.2-0.4,1.5C78.7,116,78.5,116,78.4,116z M48.4,59.5L59,78.3l16.5-52.7
		L48.4,59.5z"/>
</g>
<g>
	<path class="st2" d="M47,97.9c-0.1,0-0.2,0-0.4-0.1c-0.5-0.2-0.8-0.6-0.8-1.1V59.4c0-0.4,0.2-0.7,0.5-0.9c0.3-0.2,0.7-0.2,1.1-0.1
		L64,66.6c0.1,0,0.2,0.1,0.3,0.2l14.8,13.5c0.3,0.3,0.5,0.8,0.3,1.2c-0.2,0.4-0.6,0.7-1,0.7H59.8L47.9,97.5
		C47.7,97.8,47.4,97.9,47,97.9z M48.1,61.2v32.3l10.2-13.1c0.2-0.3,0.5-0.4,0.9-0.4h16.2L62.9,68.5L48.1,61.2z"/>
</g>
<g>
	<path class="st2" d="M78.4,55.2c0,0-0.1,0-0.1,0l-10-1.2c-0.3,0-0.6-0.2-0.8-0.5l-7-10.3c-0.3-0.4-0.3-1,0.1-1.4
		c0.3-0.4,0.9-0.5,1.3-0.3l8.5,4c0.1,0,0.2,0.1,0.3,0.2l8.5,7.5c0.4,0.3,0.5,0.8,0.3,1.3C79.2,54.9,78.8,55.2,78.4,55.2z M69,51.8
		l5.9,0.7l-5.7-5l-4.7-2.2L69,51.8z"/>
</g>
<g>
	<path class="st2" d="M157.8,54h5.1v23.9h12.1v4.5h-17.1V54z"/>
	<path class="st2" d="M193,54h5.1v28.4H193V54z"/>
	<path class="st2" d="M240.5,60.7c-0.7-1-1.7-1.8-2.9-2.2c-1.2-0.5-2.4-0.7-3.5-0.7c-1.5,0-2.8,0.3-4,0.8c-1.2,0.5-2.2,1.3-3.1,2.2
		c-0.9,0.9-1.5,2-2,3.3c-0.5,1.3-0.7,2.6-0.7,4.1c0,1.6,0.2,3,0.7,4.3c0.5,1.3,1.1,2.4,1.9,3.3c0.8,0.9,1.9,1.6,3,2.1
		c1.2,0.5,2.5,0.8,4,0.8c1.5,0,2.9-0.3,4.1-0.9c1.2-0.6,2.1-1.4,2.9-2.4l4.1,2.9c-1.3,1.6-2.8,2.8-4.6,3.7c-1.8,0.9-3.9,1.3-6.4,1.3
		c-2.2,0-4.3-0.4-6.1-1.1c-1.9-0.7-3.5-1.8-4.8-3.1c-1.3-1.3-2.4-2.9-3.1-4.7c-0.8-1.8-1.1-3.9-1.1-6.1c0-2.3,0.4-4.3,1.2-6.2
		c0.8-1.8,1.9-3.4,3.3-4.7c1.4-1.3,3-2.3,4.9-3c1.9-0.7,3.9-1,6.1-1c0.9,0,1.9,0.1,2.9,0.3c1,0.2,1.9,0.4,2.9,0.8
		c0.9,0.4,1.8,0.8,2.6,1.3c0.8,0.5,1.5,1.2,2,1.9L240.5,60.7z"/>
	<path class="st2" d="M262.2,68.1c0-2.3,0.4-4.3,1.1-6.2c0.8-1.8,1.8-3.4,3.2-4.7c1.4-1.3,3-2.3,4.8-3c1.9-0.7,3.9-1,6.1-1
		c2.2,0,4.3,0.3,6.1,1c1.9,0.7,3.5,1.7,4.9,3c1.4,1.3,2.4,2.8,3.2,4.7c0.8,1.8,1.1,3.9,1.1,6.2c0,2.2-0.4,4.2-1.1,6.1
		c-0.8,1.8-1.8,3.4-3.2,4.7c-1.4,1.3-3,2.4-4.9,3.1c-1.9,0.7-3.9,1.1-6.1,1.1c-2.2,0-4.2-0.4-6.1-1.1c-1.9-0.7-3.5-1.8-4.8-3.1
		c-1.4-1.3-2.4-2.9-3.2-4.7C262.6,72.4,262.2,70.3,262.2,68.1z M267.7,68.1c0,1.5,0.2,2.9,0.7,4.2c0.5,1.3,1.1,2.4,2,3.3
		c0.9,0.9,1.9,1.7,3.1,2.2c1.2,0.5,2.5,0.8,4,0.8c1.4,0,2.8-0.3,4-0.8c1.2-0.5,2.2-1.3,3.1-2.2c0.9-0.9,1.5-2,2-3.3
		c0.5-1.3,0.7-2.7,0.7-4.2c0-1.5-0.2-2.8-0.7-4.1c-0.5-1.3-1.1-2.4-2-3.3c-0.9-0.9-1.9-1.7-3.1-2.2c-1.2-0.5-2.5-0.8-4-0.8
		c-1.5,0-2.8,0.3-4,0.8c-1.2,0.5-2.2,1.3-3.1,2.2c-0.9,0.9-1.5,2-2,3.3C268,65.3,267.7,66.6,267.7,68.1z"/>
</g>
</svg>
