<?xml version="1.0" encoding="UTF-8"?>
<svg width="24px" height="24px" viewBox="0 0 24 24" version="1.1" xmlns="http://www.w3.org/2000/svg" xmlns:xlink="http://www.w3.org/1999/xlink">
    <!-- Generator: Sketch 51.1 (57501) - http://www.bohemiancoding.com/sketch -->
    <title>Shape</title>
    <desc>Created with Sketch.</desc>
    <defs></defs>
    <g id="C2C" stroke="none" stroke-width="1" fill="none" fill-rule="evenodd">
        <g id="法币首页-购买详情" transform="translate(-1276.000000, -114.000000)" fill="#03BF7B" fill-rule="nonzero">
            <g id="电话" transform="translate(1288.000000, 143.000000) scale(-1, 1) translate(-1288.000000, -143.000000) translate(1276.000000, 114.000000)">
                <g id="Shape">
                    <path d="M12.0016747,24 C5.38734304,24 0.00335084095,18.6160078 0.00335084095,11.9983238 C0.00335084095,5.38063974 5.38734304,0 12.0016747,0 C18.6193587,0 23.9999984,5.38399217 23.9999984,11.9983238 C24.0033509,18.6160078 18.6193587,24 12.0016747,24 Z M17.5229695,17.4786314 C17.8948739,17.2728203 18.2415033,17.0597877 18.5267503,16.8503658 C18.5592468,16.8250907 18.700065,16.7276012 18.7325615,16.6987154 C18.8914332,16.5687294 18.9925335,16.3737504 18.9925335,16.1498857 C18.9925335,15.9404638 18.9022654,15.7490955 18.7542258,15.6227202 L15.8584266,13.2396436 C15.7392728,13.1421541 15.5840118,13.0807718 15.4179185,13.0807718 C15.230161,13.0807718 15.0568463,13.1529862 14.930471,13.2721401 C14.8799209,13.3226902 14.4466342,13.766809 14.4466342,13.766809 C14.1433336,14.0701097 13.6558861,14.0701097 13.3561962,13.766809 L10.4026254,10.8096276 C10.0993248,10.5063269 10.0993248,10.0152687 10.4026254,9.71557873 L10.8828515,9.23535269 C11.0092268,9.1089774 11.0814412,8.93205204 11.0814412,8.74429447 C11.0814412,8.55292621 11.0092267,8.38683298 10.8900729,8.26045769 L8.40950676,5.26355829 C8.27952078,5.10829724 8.08454178,5.00719702 7.86428774,5.00719702 C7.63320153,5.00719702 7.43100107,5.1191294 7.30101508,5.29244407 L7.25768641,5.34660491 C6.71607808,6.07597079 6.01198726,7.23501259 6.01198726,8.32183997 C6.01198726,11.3187394 12.6918233,17.9913539 15.6634476,17.991354 C15.7212192,17.991354 15.77538,17.9877432 15.8295408,17.9877432 C16.5950139,17.926361 17.1799509,17.6699997 17.5229695,17.4786314 Z"></path>
                </g>
            </g>
        </g>
    </g>
</svg>