<?xml version="1.0" encoding="UTF-8"?>
<svg width="16px" height="16px" viewBox="0 0 16 16" version="1.1" xmlns="http://www.w3.org/2000/svg" xmlns:xlink="http://www.w3.org/1999/xlink">
    <!-- Generator: Sketch 51.1 (57501) - http://www.bohemiancoding.com/sketch -->
    <title>Combined Shape Copy 19</title>
    <desc>Created with Sketch.</desc>
    <defs></defs>
    <g id="Page-1" stroke="none" stroke-width="1" fill="none" fill-rule="evenodd">
        <g id="图标" transform="translate(-725.000000, -1796.000000)" fill="#14a2a5" fill-rule="nonzero">
            <path d="M739.189155,1803.73071 L740.697945,1805.2395 C741.100685,1805.64224 741.100685,1806.29521 740.697945,1806.69795 C740.295206,1807.10068 739.642236,1807.10068 739.239497,1806.69795 L737.730706,1805.18915 C736.945663,1805.70193 736.00764,1806 735,1806 C732.238576,1806 730,1803.76142 730,1801 C730,1798.23858 732.238576,1796 735,1796 C737.761424,1796 740,1798.23858 740,1801 C740,1802.00764 739.701931,1802.94566 739.189155,1803.73071 Z M730.101017,1796 C729.515133,1796.57412 729.02973,1797.2504 728.673631,1798 L726,1798 C725.447715,1798 725,1797.55228 725,1797 C725,1796.44772 725.447715,1796 726,1796 L730.101017,1796 Z M728.289879,1803 C728.504886,1803.72243 728.833381,1804.39599 729.254689,1805 L726,1805 C725.447715,1805 725,1804.55228 725,1804 C725,1803.44772 725.447715,1803 726,1803 L728.289879,1803 Z M726,1810 L740,1810 C740.552285,1810 741,1810.44772 741,1811 C741,1811.55228 740.552285,1812 740,1812 L726,1812 C725.447715,1812 725,1811.55228 725,1811 C725,1810.44772 725.447715,1810 726,1810 Z M735,1804 C736.656854,1804 738,1802.65685 738,1801 C738,1799.34315 736.656854,1798 735,1798 C733.343146,1798 732,1799.34315 732,1801 C732,1802.65685 733.343146,1804 735,1804 Z" id="Combined-Shape-Copy-19"></path>
        </g>
    </g>
</svg>