<?xml version="1.0" encoding="UTF-8"?>
<svg width="14px" height="13px" viewBox="0 0 14 13" version="1.1" xmlns="http://www.w3.org/2000/svg" xmlns:xlink="http://www.w3.org/1999/xlink">
    <!-- Generator: Sketch 51.1 (57501) - http://www.bohemiancoding.com/sketch -->
    <title>Star Copy 4</title>
    <desc>Created with Sketch.</desc>
    <defs></defs>
    <g id="C2C" stroke="none" stroke-width="1" fill="none" fill-rule="evenodd">
        <g id="法币首页-购买详情-交易完成" transform="translate(-362.000000, -575.000000)" fill="#E1E0EC">
            <g id="收藏-copy-10" transform="translate(282.000000, 575.000000)">
                <path d="M86.9999606,11.0574043 L83.3313712,12.9321056 C83.0346356,13.0837416 82.6676184,12.9728491 82.5116153,12.6844202 C82.4494941,12.5695662 82.4280576,12.4380102 82.4506244,12.3101185 L83.1512627,8.33943752 L80.1833115,5.52738564 C79.9432474,5.29993153 79.9383352,4.92638092 80.1723399,4.69303699 C80.2655218,4.60011822 80.387618,4.53964855 80.5197268,4.5209894 L84.6213345,3.94167486 L86.4556292,0.329029962 C86.6039969,0.0368195187 86.9679783,-0.0831549184 87.2686042,0.061059557 C87.388315,0.118486518 87.4852112,0.212670231 87.544292,0.329029962 L89.3785867,3.94167486 L93.4801944,4.5209894 C93.8119548,4.56784753 94.0418198,4.86724986 93.9936122,5.18972323 C93.9744157,5.31813382 93.9122045,5.43681222 93.8166097,5.52738564 L90.8486585,8.33943752 L91.5492968,12.3101185 C91.6059682,12.6312888 91.3840512,12.9363041 91.0536314,12.9913891 C90.9220564,13.0133243 90.7867117,12.9924879 90.66855,12.9321056 L86.9999606,11.0574043 Z" id="Star-Copy-4"></path>
            </g>
        </g>
    </g>
</svg>