<?xml version="1.0" encoding="UTF-8"?>
<svg width="16px" height="16px" viewBox="0 0 16 16" version="1.1" xmlns="http://www.w3.org/2000/svg" xmlns:xlink="http://www.w3.org/1999/xlink">
    <!-- Generator: Sketch 51.1 (57501) - http://www.bohemiancoding.com/sketch -->
    <title>Combined Shape Copy 17</title>
    <desc>Created with Sketch.</desc>
    <defs></defs>
    <g id="首页修改" stroke="none" stroke-width="1" fill="none" fill-rule="evenodd">
        <g id="Index-未登录-White" transform="translate(-1279.000000, -1094.000000)" fill="#14a2a5">
            <g id="form" transform="translate(120.000000, 582.000000)">
                <g id="Group-10" transform="translate(1159.000000, 62.000000)">
                    <path d="M8,466 C3.581722,466 0,462.418278 0,458 C0,453.581722 3.581722,450 8,450 C12.418278,450 16,453.581722 16,458 C16,462.418278 12.418278,466 8,466 Z M7.99902451,464.999025 C11.8650178,464.999025 14.9990245,461.865018 14.9990245,457.999025 C14.9990245,454.133031 11.8650178,450.999025 7.99902451,450.999025 C4.13303126,450.999025 0.99902451,454.133031 0.99902451,457.999025 C0.99902451,461.865018 4.13303126,464.999025 7.99902451,464.999025 Z M5.70393658,455.999025 L11.5000264,455.999025 C11.7761688,455.999025 12.0000264,456.222882 12.0000264,456.499025 C12.0000264,456.775167 11.7761688,456.999025 11.5000264,456.999025 L4.50002644,456.999025 C4.05502632,456.999025 3.83173864,456.461388 4.14581013,456.146135 L6.13831701,454.146135 C6.33321235,453.950507 6.64979428,453.949913 6.84542255,454.144808 C7.04105082,454.339704 7.04164498,454.656285 6.84674964,454.851914 L5.70393658,455.999025 Z M10.2951144,459.999025 L4.49902451,459.999025 C4.22288214,459.999025 3.99902451,459.775167 3.99902451,459.499025 C3.99902451,459.222882 4.22288214,458.999025 4.49902451,458.999025 L11.4990245,458.999025 C11.9440246,458.999025 12.1673123,459.536661 11.8532408,459.851914 L9.86073393,461.851914 C9.6658386,462.047542 9.34925667,462.048136 9.1536284,461.853241 C8.95800013,461.658345 8.95740597,461.341764 9.15230131,461.146135 L10.2951144,459.999025 Z" id="Combined-Shape-Copy-17"></path>
                </g>
            </g>
        </g>
    </g>
</svg>