<?xml version="1.0" encoding="UTF-8"?>
<svg width="16px" height="16px" viewBox="0 0 16 16" version="1.1" xmlns="http://www.w3.org/2000/svg" xmlns:xlink="http://www.w3.org/1999/xlink">
    <!-- Generator: Sketch 51.1 (57501) - http://www.bohemiancoding.com/sketch -->
    <title>地球 (1)</title>
    <desc>Created with Sketch.</desc>
    <defs></defs>
    <g id="首页修改" stroke="none" stroke-width="1" fill="none" fill-rule="evenodd">
        <g id="Index-未登录-White" transform="translate(-1310.000000, -22.000000)" fill="#646B8C">
            <g id="首页头部导航">
                <g id="Group-18" transform="translate(30.000000, 17.000000)">
                    <g id="User" transform="translate(1157.000000, 0.000000)">
                        <g id="Group-14">
                            <g id="地球-(1)" transform="translate(123.000000, 5.000000)">
                                <g id="Shape">
                                    <path d="M15.9994844,7.99351562 C15.9994844,3.57882812 12.4180156,0 8.0000625,0 C3.58198438,0 0.00046875,3.57879688 0.00046875,7.99351562 C0.00046875,12.0716094 3.05648438,15.4361719 7.00490625,15.92575 C7.2275,15.9726562 7.49860937,15.9999844 7.8215,15.9999844 C7.91214062,15.9999844 7.99957812,15.9952188 8.084,15.9865625 C12.4632812,15.9415937 15.9994844,12.3803594 15.9994844,7.99351562 Z M1.14326563,7.99351563 C1.14326563,7.50901563 1.19371875,7.03629688 1.28942188,6.58020313 C1.58553125,6.89689063 2.28345313,6.88942188 2.45365625,6.41625 C2.7581875,6.59775 3.16745313,6.63078125 3.16745313,6.99357813 C3.16745313,8.19089063 3.21009375,9.47446875 4.29796875,9.4943125 C4.32859375,9.4946875 4.90464063,9.71259375 5.17878125,10.4236094 C5.27359375,10.6693437 5.64853125,10.4236094 6.05971875,10.4236094 C6.26498438,10.4236094 6.05971875,10.7694219 6.05971875,11.5172188 C6.05971875,12.262125 7.6656875,13.4090938 7.6656875,13.4090938 C7.65825,13.9021719 7.6785,14.300875 7.71953125,14.6194063 C7.35703125,14.61275 7.05151563,14.6607813 6.8115,14.7424844 C3.59114063,14.1801562 1.14328125,11.3725938 1.14328125,7.99351563 L1.14326563,7.99351563 Z M9.68807813,14.6358906 C9.65253125,14.4618594 9.497,14.3665469 9.21328125,14.4411406 C9.43965625,13.4770469 9.54971875,12.9369844 10.0223438,12.5269219 C10.7061406,11.9341719 10.1037813,11.275 9.58340625,11.3526719 C9.17328125,11.414625 9.43246875,10.844875 9.066375,10.8133594 C8.70032812,10.7827344 8.22228125,10.0546094 7.6954375,9.80407813 C7.41617187,9.67145312 7.14173437,9.31603125 6.71103125,9.30009375 C6.32928125,9.28529688 5.77139062,9.62289063 5.77139062,9.36267188 C5.77139062,8.52446875 5.68651562,7.92634375 5.6690625,7.6875 C5.655,7.49557812 5.543625,7.622875 6.0596875,7.63526562 C6.34054688,7.64279688 6.20335937,7.07115625 6.48134375,7.0488125 C6.754375,7.02721875 7.40495312,7.30440625 7.57071875,7.19392187 C7.72470313,7.09104687 8.70267188,9.76095312 8.70267188,7.63523437 C8.70267188,7.383 8.57204687,6.94448438 8.70267188,6.70560937 C9.21928125,5.76165625 9.70290625,4.99232812 9.65948437,4.8798125 C9.63482812,4.8164375 9.13095312,4.764125 8.72776562,4.89940625 C8.59170312,4.94484375 8.77104687,5.15795313 8.57564062,5.20346875 C7.84340625,5.3725 7.19651562,5.00604687 7.4230625,4.66159375 C7.65503125,4.3085625 8.49553125,4.50757813 8.56921875,3.79940625 C8.611625,3.39375 8.64673438,2.9239375 8.67025,2.57476562 C9.65570312,2.72885937 9.54721875,1.29585937 8.08196875,1.14246875 C11.0462656,1.17715625 13.5581875,3.0915625 14.4799531,5.7484375 C14.4333281,5.70592187 14.3790937,5.6800625 14.3164531,5.67375 C13.8734531,4.5671875 12.7981406,5.36801562 13.1629219,6.34403125 C11.2084687,7.8464375 11.70875,8.89426563 12.3508906,9.49432813 C12.6887812,9.80973438 13.0109219,10.284125 13.2206719,10.6247969 C12.9923906,11.2905 14.0618437,11.0239375 14.5892656,9.89421875 C13.9183906,12.2209844 12.0467969,14.0391875 9.68807812,14.6358906 Z" fill-rule="nonzero"></path>
                                </g>
                            </g>
                        </g>
                    </g>
                </g>
            </g>
        </g>
    </g>
</svg>