<?xml version="1.0" standalone="no"?><!DOCTYPE svg PUBLIC "-//W3C//DTD SVG 1.1//EN" "http://www.w3.org/Graphics/SVG/1.1/DTD/svg11.dtd"><svg t="1561022307244" class="icon" viewBox="0 0 1024 1024" version="1.1" xmlns="http://www.w3.org/2000/svg" p-id="749" width="32" height="32" xmlns:xlink="http://www.w3.org/1999/xlink"><defs><style type="text/css"></style></defs><path d="M751.552 398.72l-18.56-4.992V448H768v64h-128v-64h32v-75.456l-128-39.552V736l41.056 3.84a73.92 73.92 0 0 1 73.952 73.92V832h-295.872v-18.24a73.92 73.92 0 0 1 73.984-73.92L480 736c-0.448-275.52-0.448-414.176 0-416l-128-32v64h32v64.928H256V352h33.152V274.848l-37.76-10.144a37.024 37.024 0 0 1 19.136-71.456l500.096 134.048a36.992 36.992 0 0 1-19.072 71.456z" fill="#c5c3dd" p-id="750"></path></svg>