<?xml version="1.0" standalone="no"?><!DOCTYPE svg PUBLIC "-//W3C//DTD SVG 1.1//EN" "http://www.w3.org/Graphics/SVG/1.1/DTD/svg11.dtd"><svg t="1561342044626" class="icon" viewBox="0 0 1024 1024" version="1.1" xmlns="http://www.w3.org/2000/svg" p-id="1412" width="16" height="16" xmlns:xlink="http://www.w3.org/1999/xlink"><defs><style type="text/css"></style></defs><path d="M512 102.4c-227.84 0-409.6 181.76-409.6 409.6s181.76 409.6 409.6 409.6 409.6-181.76 409.6-409.6-181.76-409.6-409.6-409.6z m-39.424 160.256c10.752-10.752 19.968-17.92 37.376-17.92 19.456-1.536 37.376 7.68 44.544 21.504 8.192 9.728 12.8 31.232 10.752 44.032 0 3.584-2.56 27.648-3.584 34.304l-14.336 181.76c0 17.92-3.584 35.84-10.752 49.664-3.584 10.752-14.336 17.92-28.672 17.92-10.752 0-21.504-7.168-25.088-17.92-7.168-17.92-10.752-32.256-10.752-49.664L462.336 348.16c-3.584-32.256-3.584-21.504-3.584-39.424 0-17.408 3.584-31.744 13.824-46.08z m78.848 502.272c-10.752 10.752-25.088 14.336-35.84 14.336-14.336 0-28.672-3.584-39.424-14.336s-17.92-25.088-17.92-42.496c0-14.336 3.584-28.672 14.336-39.424 10.752-10.752 25.088-17.92 39.424-17.92s28.672 7.168 39.424 17.92 14.336 25.088 14.336 39.424c-0.512 17.408-4.096 31.744-14.336 42.496z" p-id="1413" fill="#5E6573"></path></svg>