<?xml version="1.0" encoding="utf-8"?>
<!-- Generator: Adobe Illustrator 22.1.0, SVG Export Plug-In . SVG Version: 6.00 Build 0)  -->
<svg version="1.1" id="图层_1" xmlns="http://www.w3.org/2000/svg" xmlns:xlink="http://www.w3.org/1999/xlink" x="0px" y="0px"
	 viewBox="0 0 36 36" style="enable-background:new 0 0 36 36;" xml:space="preserve">
<style type="text/css">
	.st0{fill:#14A2A5;}
	.st1{fill:#FFFFFF;}
	.st2{fill:#F0EFFF;}
	.st3{fill:#17A2A5;}
</style>
<title>User</title>
<desc>Created with Sketch.</desc>
<g id="理财-新版">
	<g id="余币宝详情页-立即购买-copy-3" transform="translate(-399.000000, -871.000000)">
		<g id="锁定规则" transform="translate(359.000000, 851.000000)">
			<g id="User" transform="translate(40.000000, 20.000000)">
				<circle id="Oval-2" class="st0" cx="18" cy="18" r="18"/>
				<g id="文档" transform="translate(10.000000, 9.000000)">
					<path id="Shape" class="st1" d="M1,0C0.4,0,0,0.5,0,1v16c0,0.5,0.4,1,1,1h13.7c0.5,0,1-0.4,1-1V3.9L11.8,0H1z"/>
					<path id="Shape_1_" class="st2" d="M15.7,3.9h-2.9c-0.5,0-1-0.4-1-1V0L15.7,3.9z"/>
					<path id="Shape_2_" class="st3" d="M7.4,6.7H4.4c-0.3,0-0.5-0.2-0.5-0.5s0.2-0.5,0.5-0.5h2.9c0.3,0,0.5,0.2,0.5,0.5
						C7.9,6.5,7.6,6.7,7.4,6.7z M11.3,9.7H4.4c-0.3,0-0.5-0.2-0.5-0.5c0-0.3,0.2-0.5,0.5-0.5h6.9c0.3,0,0.5,0.2,0.5,0.5
						C11.8,9.4,11.6,9.7,11.3,9.7z M11.3,12.6H4.4c-0.3,0-0.5-0.2-0.5-0.5c0-0.3,0.2-0.5,0.5-0.5h6.9c0.3,0,0.5,0.2,0.5,0.5
						C11.8,12.4,11.6,12.6,11.3,12.6z"/>
				</g>
			</g>
		</g>
	</g>
</g>
</svg>
