<?xml version="1.0" encoding="utf-8"?>
<!-- Generator: Adobe Illustrator 22.1.0, SVG Export Plug-In . SVG Version: 6.00 Build 0)  -->
<svg version="1.1" id="图层_1" xmlns="http://www.w3.org/2000/svg" xmlns:xlink="http://www.w3.org/1999/xlink" x="0px" y="0px"
	 viewBox="0 0 36 36" style="enable-background:new 0 0 36 36;" xml:space="preserve">
<style type="text/css">
	.st0{fill:#14A2A5;}
	.st1{fill:#FFFFFF;}
</style>
<title>User</title>
<desc>Created with Sketch.</desc>
<g id="理财-新版">
	<g id="余币宝详情页-立即购买-copy-3" transform="translate(-399.000000, -651.000000)">
		<g id="认购流程" transform="translate(359.000000, 631.000000)">
			<g id="User" transform="translate(40.000000, 20.000000)">
				<circle id="Oval-2" class="st0" cx="18" cy="18" r="18"/>
				<g id="流程中心" transform="translate(8.000000, 9.000000)">
					<path id="Shape" class="st1" d="M16.2,10.4c-1.8,0-3.4,1.5-3.4,3.4c0,1.8,1.5,3.2,3.2,3.4h0.1c1.8,0,3.4-1.5,3.4-3.4
						C19.6,12,18.1,10.4,16.2,10.4 M4.1,10.4c-1.9,0-3.4,1.5-3.4,3.4c0,1.8,1.5,3.2,3.2,3.4h0.1c1.8,0,3.4-1.5,3.4-3.4
						C7.3,12,5.8,10.4,4.1,10.4 M10.4,6.8c1.9,0,3.4-1.5,3.4-3.4c0-1.8-1.5-3.4-3.4-3.4C8.6,0.2,7.2,1.7,7.2,3.6
						C7.2,5.4,8.6,6.8,10.4,6.8 M4.1,9.7c0.3-1.8,1.3-3.2,2.6-4.2c0-0.3-0.1-0.5-0.3-0.9c-1.8,1.2-3,3.1-3.2,5.1H4.1 M16.3,9.7
						c0.4,0,0.7,0.1,1.1,0.1c-0.3-2.2-1.4-3.9-3.1-5.1c-0.1,0.4-0.3,0.7-0.4,0.9C15.3,6.7,16.1,8.1,16.3,9.7 M13,16.3
						c-0.8,0.4-1.8,0.5-2.7,0.5c-1.1,0-2-0.3-2.8-0.7C7.3,16.4,7,16.7,6.8,17c1.1,0.5,2.3,0.9,3.6,0.9s2.4-0.4,3.4-0.8
						C13.4,16.8,13.2,16.6,13,16.3"/>
				</g>
			</g>
		</g>
	</g>
</g>
</svg>
