<?xml version="1.0" encoding="utf-8"?>
<!-- Generator: Adobe Illustrator 22.1.0, SVG Export Plug-In . SVG Version: 6.00 Build 0)  -->
<svg version="1.1" id="图层_1" xmlns="http://www.w3.org/2000/svg" xmlns:xlink="http://www.w3.org/1999/xlink" x="0px" y="0px"
	 viewBox="0 0 20 22" style="enable-background:new 0 0 20 22;" xml:space="preserve">
<style type="text/css">
	.st0{fill:#14A2A5;}
</style>
<title>android copy 2</title>
<desc>Created with Sketch.</desc>
<g id="首页_x2B_交易">
	<g id="Index-新1-Copy-6" transform="translate(-94.000000, -1943.000000)">
		<g id="Group-13" transform="translate(-16.000000, 1684.000000)">
			<g id="Group-12-Copy" transform="translate(0.000000, 190.000000)">
				<g id="Group-9" transform="translate(0.000000, 60.000000)">
					<g id="android-copy-2" transform="translate(110.000000, 9.000000)">
						<path id="Shape" class="st0" d="M18.6,8.3c-0.8,0-1.4,0.6-1.4,1.4v5.5c0,0.8,0.6,1.4,1.4,1.4c0.8,0,1.4-0.6,1.4-1.4V9.6
							C20,8.9,19.4,8.3,18.6,8.3z M1.4,8.3C0.6,8.3,0,8.9,0,9.6v5.5c0,0.8,0.6,1.4,1.4,1.4s1.4-0.6,1.4-1.4V9.6
							C2.9,8.9,2.2,8.3,1.4,8.3z M3.6,15.8c0,1.1,1,2.1,2.1,2.1v2.8c0,0.8,0.6,1.4,1.4,1.4s1.4-0.6,1.4-1.4v-2.8h2.9v2.8
							c0,0.8,0.6,1.4,1.4,1.4c0.8,0,1.4-0.6,1.4-1.4v-2.8c1.2,0,2.1-0.9,2.1-2.1V8.3H3.6V15.8z"/>
						<path id="Shape_1_" class="st0" d="M16.4,6.9c-0.2-1.9-1.3-3.5-2.9-4.5L14.2,1c0.2-0.3,0-0.8-0.3-0.9c-0.4-0.2-0.8,0-1,0.3
							l-0.7,1.4L12,1.7c-0.6-0.2-1.3-0.3-2-0.3S8.6,1.5,8,1.7L7.8,1.8L7.1,0.4C6.9,0,6.5-0.1,6.1,0.1S5.6,0.7,5.8,1l0.7,1.4
							C4.9,3.4,3.8,5,3.6,6.9v0.7h12.8L16.4,6.9L16.4,6.9z M7.9,5.5c-0.4,0-0.7-0.3-0.7-0.7s0.3-0.7,0.7-0.7c0,0,0,0,0,0s0,0,0,0
							c0.4,0,0.7,0.3,0.7,0.7S8.3,5.5,7.9,5.5L7.9,5.5z M12.1,5.5c-0.4,0-0.7-0.3-0.7-0.7s0.3-0.7,0.7-0.7c0,0,0,0,0,0s0,0,0,0
							c0.4,0,0.7,0.3,0.7,0.7S12.5,5.5,12.1,5.5L12.1,5.5z"/>
					</g>
				</g>
			</g>
		</g>
	</g>
</g>
</svg>
