<?xml version="1.0" encoding="utf-8"?>
<!-- Generator: Adobe Illustrator 22.1.0, SVG Export Plug-In . SVG Version: 6.00 Build 0)  -->
<svg version="1.1" id="图层_1" xmlns="http://www.w3.org/2000/svg" xmlns:xlink="http://www.w3.org/1999/xlink" x="0px" y="0px"
	 viewBox="0 0 18 22" style="enable-background:new 0 0 18 22;" xml:space="preserve">
<style type="text/css">
	.st0{fill:#14A2A5;}
</style>
<title>Shape Copy 10</title>
<desc>Created with Sketch.</desc>
<g id="首页_x2B_交易">
	<g id="Index-新1-Copy-6" transform="translate(-186.000000, -1883.000000)">
		<g id="Group-13" transform="translate(-16.000000, 1684.000000)">
			<g id="Group-12-Copy" transform="translate(0.000000, 190.000000)">
				<g id="Group-8-Copy" transform="translate(180.000000, 0.000000)">
					<g id="iOS" transform="translate(22.000000, 9.000000)">
						<path id="Shape-Copy-10" class="st0" d="M13.5,0c-1.1,0.1-2.5,0.7-3.3,1.7C9.5,2.5,8.9,3.8,9,5.1c1.3,0.1,2.5-0.7,3.3-1.5
							C13.1,2.6,13.7,1.3,13.5,0z M18,16.4c0,0.1-0.4,1.5-1.5,3c-0.9,1.3-1.9,2.6-3.4,2.6c-1.5,0-1.9-0.9-3.7-0.9S7.2,21.9,5.9,22
							c-1.4,0.1-2.5-1.4-3.5-2.7C0.5,16.6-1,11.8,0.9,8.6c1-1.6,2.7-2.6,4.6-2.6c1.4,0,2.8,1,3.6,1c0.9,0,2.5-1.2,4.3-1
							c0.7,0,2.8,0.3,4,2.1c-0.1,0-2.4,1.3-2.4,4C15.1,15.3,18,16.3,18,16.4z"/>
					</g>
				</g>
			</g>
		</g>
	</g>
</g>
</svg>
