<?xml version="1.0" encoding="UTF-8"?>
<svg width="14px" height="12px" viewBox="0 0 14 12" version="1.1" xmlns="http://www.w3.org/2000/svg" xmlns:xlink="http://www.w3.org/1999/xlink">
    <!-- Generator: Sketch 51.3 (57544) - http://www.bohemiancoding.com/sketch -->
    <title>买 copy</title>
    <desc>Created with Sketch.</desc>
    <defs></defs>
    <g id="首页+交易" stroke="none" stroke-width="1" fill="none" fill-rule="evenodd">
        <g id="币币交易-白未登录" transform="translate(-1368.000000, -113.000000)">
            <g id="委托列表" transform="translate(1039.000000, 104.000000)">
                <g id="买-copy" transform="translate(329.000000, 9.000000)">
                    <g id="Combined-Shape">
                        <path d="M3,3 L14,3 L14,4 L3,4 L3,3 Z M3,5 L14,5 L14,6 L3,6 L3,5 Z M3,7 L13,7 L13,8 L3,8 L3,7 Z M3,9 L14,9 L14,10 L3,10 L3,9 Z M3,11 L14,11 L14,12 L3,12 L3,11 Z" fill="#14a2a5" fill-rule="nonzero"></path>
                        <path d="M1,1 L1,12 L0,12 L0,1 L0,0 L14,0 L14,1 L1,1 Z" fill="#03BF7B" fill-rule="nonzero"></path>
                    </g>
                </g>
            </g>
        </g>
    </g>
</svg>