<?xml version="1.0" encoding="UTF-8"?>
<svg width="14px" height="13px" viewBox="0 0 14 13" version="1.1" xmlns="http://www.w3.org/2000/svg" xmlns:xlink="http://www.w3.org/1999/xlink">
    <!-- Generator: Sketch 51.3 (57544) - http://www.bohemiancoding.com/sketch -->
    <title>收藏 copy 13</title>
    <desc>Created with Sketch.</desc>
    <defs></defs>
    <g id="首页+交易" stroke="none" stroke-width="1" fill="none" fill-rule="evenodd">
        <g id="币币交易-标准dark" transform="translate(-128.000000, -469.000000)" fill="#14a2a5">
            <g id="Group-4-Copy" transform="translate(120.000000, 104.000000)">
                <g id="0.00197214-0.0020721">
                    <g id="Group-25" transform="translate(8.000000, 95.000000)">
                        <g id="收藏" transform="translate(0.000000, 270.000000)">
                            <path d="M6.99996059,11.0574043 L3.33137116,12.9321056 C3.03463561,13.0837416 2.66761842,12.9728491 2.51161532,12.6844202 C2.44949406,12.5695662 2.42805756,12.4380102 2.45062442,12.3101185 L3.15126266,8.33943752 L0.183311465,5.52738564 C-0.0567526326,5.29993153 -0.0616647765,4.92638092 0.172339884,4.69303699 C0.265521768,4.60011822 0.387618042,4.53964855 0.519726782,4.5209894 L4.62133445,3.94167486 L6.45562917,0.329029962 C6.60399694,0.0368195187 6.96797826,-0.0831549184 7.2686042,0.061059557 C7.38831503,0.118486518 7.48521118,0.212670231 7.54429201,0.329029962 L9.37858672,3.94167486 L13.4801944,4.5209894 C13.8119548,4.56784753 14.0418198,4.86724986 13.9936122,5.18972323 C13.9744157,5.31813382 13.9122045,5.43681222 13.8166097,5.52738564 L10.8486585,8.33943752 L11.5492968,12.3101185 C11.6059682,12.6312888 11.3840512,12.9363041 11.0536314,12.9913891 C10.9220564,13.0133243 10.7867117,12.9924879 10.66855,12.9321056 L6.99996059,11.0574043 Z" id="Star"></path>
                        </g>
                    </g>
                </g>
            </g>
        </g>
    </g>
</svg>