<?xml version="1.0" encoding="UTF-8"?>
<svg width="12px" height="12px" viewBox="0 0 12 12" version="1.1" xmlns="http://www.w3.org/2000/svg" xmlns:xlink="http://www.w3.org/1999/xlink">
    <!-- Generator: Sketch 51.3 (57544) - http://www.bohemiancoding.com/sketch -->
    <title>Star Copy</title>
    <desc>Created with Sketch.</desc>
    <defs></defs>
    <g id="首页+交易" stroke="none" stroke-width="1" fill="none" fill-rule="evenodd">
        <g id="Index-新1-Copy-6" transform="translate(-380.000000, -762.000000)" stroke="#8F9BC0">
            <g id="Form" transform="translate(360.000000, 630.000000)">
                <g id="收藏-copy-13" transform="translate(20.000000, 91.000000)">
                    <path d="M9.38629579,52.4998995 C9.39588892,52.4980254 9.41110793,52.4753499 9.40597667,52.4440328 L8.76447772,48.5288523 L11.485711,45.7522285 C11.4922067,45.7456007 11.4974643,45.7347993 11.4992736,45.7217654 C11.5036208,45.6904489 11.4882613,45.6689039 11.4792644,45.6675354 L7.70016803,45.092714 L6.01428137,41.516947 C6.01014944,41.5081831 6.00498645,41.5027786 6.00074023,41.500585 C5.99766486,41.4989962 5.99340077,41.5005098 5.98565106,41.516947 L4.29976441,45.092714 L0.520668059,45.6675354 C0.51958774,45.6676998 0.517155581,45.668997 0.513636539,45.672776 C0.495113192,45.6926679 0.495608563,45.7332368 0.514221401,45.7522285 L3.23545472,48.5288523 L2.59395577,52.4440328 C2.59163473,52.4581985 2.59383898,52.4727666 2.59962599,52.4842891 C2.60744355,52.4998545 2.61115478,52.5010621 2.61439301,52.49928 L5.99996622,50.6361213 L9.38553943,52.49928 C9.38650652,52.4998122 9.3864876,52.4998695 9.38630474,52.4999012 Z" id="Star-Copy"></path>
                </g>
            </g>
        </g>
    </g>
</svg>