<?xml version="1.0" encoding="UTF-8"?>
<svg width="8px" height="8px" viewBox="0 0 8 8" version="1.1" xmlns="http://www.w3.org/2000/svg" xmlns:xlink="http://www.w3.org/1999/xlink">
    <!-- Generator: Sketch 51.3 (57544) - http://www.bohemiancoding.com/sketch -->
    <title>Shape</title>
    <desc>Created with Sketch.</desc>
    <defs></defs>
    <g id="首页+交易" stroke="none" stroke-width="1" fill="none" fill-rule="evenodd">
        <g id="币币交易-标准dark" transform="translate(-233.000000, -148.000000)" fill="#9EAECB" fill-rule="nonzero">
            <g id="Group-4-Copy" transform="translate(120.000000, 104.000000)">
                <g id="tital">
                    <g id="Group-26-Copy-2" transform="translate(107.000000, 36.000000)">
                        <g id="切换" transform="translate(6.000000, 8.000000)">
                            <path d="M0.533345128,2.99999809 L7.51998165,2.99999809 C7.57331473,2.99999809 7.62664793,2.99999809 7.67998066,2.94775211 C7.73331374,2.94775211 7.73331374,2.89550625 7.78664694,2.89550625 C7.89331321,2.79101441 7.99997972,2.63427693 7.99997972,2.47753843 C7.99997972,2.32080106 7.94664664,2.21630911 7.83998071,2.11181716 C7.83998071,2.11181716 7.83998071,2.05957129 7.78664763,2.05957129 L5.86665031,0.178713872 C5.43998475,-0.239253944 4.79998756,0.126467895 4.79998756,0.753419058 L4.79998756,1.95508046 L0.533331951,1.95508046 C0.266666548,1.95508046 0,2.21630978 0,2.47754023 C1.14582924e-08,2.73876955 0.266665402,3 0.533331951,3 L0.533345128,2.99999809 Z M7.46663459,5.00000191 L0.479998068,5.00000191 C0.426664873,5.00000191 0.373331793,5.00000191 0.319999056,5.05224777 C0.266665861,5.05224777 0.266665861,5.10449364 0.21333278,5.10449364 C0.106666505,5.20898548 0,5.36572296 0,5.52246146 C0,5.67919883 0.0533331951,5.78369078 0.159999012,5.88818274 C0.159999012,5.88818274 0.159999012,5.9404286 0.213332207,5.94042872 L2.13332952,7.82128615 C2.55999508,8.23925397 3.19999228,7.87353201 3.19999228,7.24658096 L3.19999228,6.04491955 L7.46664788,6.04491955 C7.73331329,6.04491955 7.99997983,5.78369022 7.99997983,5.52245977 C7.99997983,5.26123045 7.73331443,5 7.46664788,5 L7.46663459,5.00000191 Z" id="Shape"></path>
                        </g>
                    </g>
                </g>
            </g>
        </g>
    </g>
</svg>