<?xml version="1.0" encoding="UTF-8"?>
<svg width="16px" height="16px" viewBox="0 0 16 16" version="1.1" xmlns="http://www.w3.org/2000/svg" xmlns:xlink="http://www.w3.org/1999/xlink">
    <!-- Generator: Sketch 51.3 (57544) - http://www.bohemiancoding.com/sketch -->
    <title>Combined Shape</title>
    <desc>Created with Sketch.</desc>
    <defs></defs>
    <g id="首页+交易" stroke="none" stroke-width="1" fill="none" fill-rule="evenodd">
        <g id="Index-新1-Copy-6" transform="translate(-1520.000000, -719.000000)" fill="#14a2a5">
            <g id="Form" transform="translate(360.000000, 630.000000)">
                <g id="Group-7" transform="translate(1.000000, 76.000000)">
                    <g id="Group-30" transform="translate(1159.000000, 13.000000)">
                        <path d="M8,16 C3.581722,16 0,12.418278 0,8 C0,3.581722 3.581722,0 8,0 C12.418278,0 16,3.581722 16,8 C16,12.418278 12.418278,16 8,16 Z M7.99902451,14.9990245 C11.8650178,14.9990245 14.9990245,11.8650178 14.9990245,7.99902451 C14.9990245,4.13303126 11.8650178,0.99902451 7.99902451,0.99902451 C4.13303126,0.99902451 0.99902451,4.13303126 0.99902451,7.99902451 C0.99902451,11.8650178 4.13303126,14.9990245 7.99902451,14.9990245 Z M5.70393658,5.99902452 L11.5000264,5.99902452 C11.7761688,5.99902452 12.0000264,6.22288214 12.0000264,6.49902452 C12.0000264,6.77516689 11.7761688,6.99902452 11.5000264,6.99902452 L4.50002644,6.99902452 C4.05502632,6.99902452 3.83173864,6.46138789 4.14581013,6.14613529 L6.13831701,4.14613529 C6.33321235,3.95050703 6.64979428,3.94991287 6.84542255,4.1448082 C7.04105082,4.33970354 7.04164498,4.65628547 6.84674964,4.85191374 L5.70393658,5.99902452 Z M10.2951144,9.99902451 L4.49902451,9.99902451 C4.22288214,9.99902451 3.99902451,9.77516689 3.99902451,9.49902451 C3.99902451,9.22288214 4.22288214,8.99902451 4.49902451,8.99902451 L11.4990245,8.99902451 C11.9440246,8.99902451 12.1673123,9.53666113 11.8532408,9.85191373 L9.86073393,11.8519137 C9.6658386,12.047542 9.34925667,12.0481362 9.1536284,11.8532408 C8.95800013,11.6583455 8.95740597,11.3417636 9.15230131,11.1461353 L10.2951144,9.99902451 Z" id="Combined-Shape"></path>
                    </g>
                </g>
            </g>
        </g>
    </g>
</svg>