<?xml version="1.0" encoding="UTF-8"?>
<svg width="228px" height="73px" viewBox="0 0 228 73" version="1.1" xmlns="http://www.w3.org/2000/svg" xmlns:xlink="http://www.w3.org/1999/xlink">
    <!-- Generator: Sketch 51.3 (57544) - http://www.bohemiancoding.com/sketch -->
    <title>Path 39 Copy</title>
    <desc>Created with Sketch.</desc>
    <defs></defs>
    <g id="首页+交易" stroke="none" stroke-width="1" fill="none" fill-rule="evenodd">
        <g id="Index-新1-Copy-3" transform="translate(-1332.000000, -457.000000)" fill-rule="nonzero">
            <g id="Group-14" transform="translate(360.000000, 430.000000)">
                <g id="Group-27-Copy-4" transform="translate(972.000000, 0.000000)">
                    <g id="Path-39">
                        <g id="Path-39-Copy" transform="translate(0.000000, 28.000000)">
                            <polygon fill="#FCFAFA" points="0 57.0259742 9.94643795 60.3559543 20.3946153 60.3559543 26.1220794 58.6909643 31.277997 57.0259742 51.3628428 51.0259742 57.5095525 48.2498088 70.8273668 44.9491677 82.7625829 44.9491677 87.3054054 48.2498088 92.9178916 47.0026148 97.7890637 48.2498088 103.276929 44.9491677 107.456737 47.0026148 111.99233 41.8762935 121.352535 41.8762935 131.807072 30.8969818 145.671989 37.3660834 157.649348 30.7344452 165.444299 33.2120521 173.293184 11.8790895 178.046281 16.8635491 183.626816 14.4027737 189.655711 2.87819831 194.84607 7.02886325 205.603275 0 210.737162 7.02886325 217.467688 9.92725945 227.475345 14.4027737 232.470617 16.8635491 236.070175 15.7041461 236.070175 72 0 72"></polygon>
                            <polyline id="Path-39" stroke="#F0E7E4" stroke-width="1" stroke-linejoin="round" points="0 57.0259742 9.94643795 60.3559543 20.3946153 60.3559543 26.1220794 58.6909643 31.277997 57.0259742 51.3628428 51.0259742 57.5095525 48.2498088 70.8273668 44.9491677 82.7625829 44.9491677 87.3054054 48.2498088 92.9178916 47.0026148 97.7890637 48.2498088 103.276929 44.9491677 107.456737 47.0026148 111.99233 41.8762935 121.352535 41.8762935 131.807072 30.8969818 145.671989 37.3660834 157.649348 30.7344452 165.444299 33.2120521 173.293184 11.8790895 178.046281 16.8635491 183.626816 14.4027737 189.655711 2.87819831 194.84607 7.02886325 205.603275 0 210.737162 7.02886325 217.467688 9.92725945 227.475345 14.4027737 232.470617 16.8635491 236.070175 15.7041461"></polyline>
                        </g>
                    </g>
                </g>
            </g>
        </g>
    </g>
</svg>