<?xml version="1.0" encoding="UTF-8"?>
<svg width="16px" height="16px" viewBox="0 0 16 16" version="1.1" xmlns="http://www.w3.org/2000/svg" xmlns:xlink="http://www.w3.org/1999/xlink">
    <!-- Generator: Sketch 51.3 (57544) - http://www.bohemiancoding.com/sketch -->
    <title>ewm hover</title>
    <desc>Created with Sketch.</desc>
    <defs></defs>
    <g id="首页+交易" stroke="none" stroke-width="1" fill="none" fill-rule="evenodd">
        <g id="Index-新1-Copy-6" transform="translate(-982.000000, -2332.000000)" fill-rule="nonzero">
            <g id="ewm-hover" transform="translate(982.000000, 2332.000000)">
                <rect id="Rectangle-2-Copy" fill="#FFFFFF" x="0" y="0" width="16" height="16" rx="1"></rect>
                <path d="M13,13 L14,13 L14,14 L11,14 L11,13 L12,13 L12,12 L13,12 L13,13 Z M14,10 L14,11 L13,11 L13,10 L11,10 L11,9 L14,9 L14,10 Z M2,2 L7,2 L7,7 L2,7 L2,2 Z M3,3 L3,6 L6,6 L6,3 L3,3 Z M2,9 L7,9 L7,14 L2,14 L2,9 Z M3,10 L3,13 L6,13 L6,10 L3,10 Z M9,2 L14,2 L14,7 L9,7 L9,2 Z M10,3 L10,6 L13,6 L13,3 L10,3 Z M11,4 L12,4 L12,5 L11,5 L11,4 Z M9,9 L10,9 L10,10 L9,10 L9,9 Z M9,13 L10,13 L10,14 L9,14 L9,13 Z M10,10 L11,10 L11,13 L10,13 L10,10 Z M4,4 L5,4 L5,5 L4,5 L4,4 Z M4,11 L5,11 L5,12 L4,12 L4,11 Z" id="Combined-Shape-Copy" fill="#1E222A"></path>
            </g>
        </g>
    </g>
</svg>