<?xml version="1.0" encoding="UTF-8"?>
<svg width="24px" height="24px" viewBox="0 0 24 24" version="1.1" xmlns="http://www.w3.org/2000/svg" xmlns:xlink="http://www.w3.org/1999/xlink">
    <!-- Generator: Sketch 51.1 (57501) - http://www.bohemiancoding.com/sketch -->
    <title>Facebook</title>
    <desc>Created with Sketch.</desc>
    <defs></defs>
    <g id="方案2" stroke="none" stroke-width="1" fill="none" fill-rule="evenodd">
        <g id="Index-已登录-White" transform="translate(-1063.000000, -2148.000000)">
            <g id="Footer" transform="translate(0.000000, 2065.000000)">
                <g id="Group-10" transform="translate(1009.000000, 83.000000)">
                    <g id="Facebook" transform="translate(54.000000, 0.000000)">
                        <g id="Shape">
                            <path d="M22.9332356,22.2408238 C22.9332356,22.5882297 22.6098059,22.8753267 22.2624,22.8753267 L1.70129109,22.8667248 C1.35172189,22.8644845 1.06883384,22.5817658 1.06638416,22.232198 L1.06638416,1.71754455 C1.06638416,1.37013861 1.35390891,1.08263762 1.70129109,1.08263762 L22.2983287,1.0916198 C22.6461149,1.0916198 22.9332356,1.37914455 22.9332356,1.72652673 L22.9332356,22.2408238 Z" fill="#39569D" fill-rule="nonzero"></path>
                            <path d="M22.7812277,22.1322535 C22.7812277,22.4762851 22.4626693,22.7607683 22.1197782,22.7607683 L1.84467327,22.7514297 C1.49925248,22.7483531 1.22039626,22.4683218 1.21877228,22.1228911 L1.21877228,1.82644752 C1.21877228,1.48241584 1.50213861,1.19793267 1.84467327,1.19793267 L22.1553267,1.20689109 C22.4978614,1.20689109 22.7812277,1.49139802 22.7812277,1.83469307 L22.7812277,22.1322535 Z M22.169204,0.00900594059 L1.8308198,0 C1.35002384,0.000692678479 0.889200851,0.192378756 0.549752681,0.53287865 C0.21030451,0.873378544 0.020044921,1.33479231 0.020839604,1.81558812 L0.020839604,22.1341307 C0.020839604,23.1366178 0.83130297,23.9497188 1.8308198,23.9497188 L22.1336317,23.9583208 C23.1331248,23.9583208 23.9791604,23.1456238 23.9791604,22.1427327 L23.9791604,1.82383366 C23.980408,0.822904293 23.1701093,0.0104247976 22.1691802,0.00898217822 L22.169204,0.00900594059 Z" fill="#39569D" fill-rule="nonzero"></path>
                            <path d="M17.0346297,10.0269386 L19.6988673,10.0269386 L19.6988673,6.73827327 L17.0346297,6.73827327 C14.8300752,6.73827327 13.0178376,8.67478812 13.0178376,11.0537584 L13.0178376,12.7241109 L10.3734653,12.712895 L10.3734653,15.9251644 L13.0178614,15.9251644 L13.0178614,23.9987644 L16.3686416,23.9987644 L16.3585426,15.9251644 L19.4315644,15.9251644 L19.6992238,12.712895 L16.3686416,12.712895 L16.3585426,10.9141307 C16.3585426,10.3443802 16.7205386,10.0269386 17.0346297,10.0269386" fill="#FFFFFF" fill-rule="nonzero"></path>
                        </g>
                    </g>
                </g>
            </g>
        </g>
    </g>
</svg>