<?xml version="1.0" encoding="utf-8"?>
<!-- Generator: Adobe Illustrator 22.1.0, SVG Export Plug-In . SVG Version: 6.00 Build 0)  -->
<svg version="1.1" id="图层_1" xmlns="http://www.w3.org/2000/svg" xmlns:xlink="http://www.w3.org/1999/xlink" x="0px" y="0px"
	 viewBox="0 0 14 14" style="enable-background:new 0 0 14 14;" xml:space="preserve">
<style type="text/css">
	.st0{opacity:0.6;}
	.st1{fill:#14A2A5;}
</style>
<title>搜索 copy</title>
<desc>Created with Sketch.</desc>
<g id="首页_x2B_交易" class="st0">
	<g id="Index-未登录" transform="translate(-1532.000000, -643.000000)">
		<g id="Group-4" transform="translate(360.000000, 630.000000)">
			<g id="搜索_1_" transform="translate(1020.000000, 5.000000)">
				<g id="搜索-copy" transform="translate(152.000000, 8.000000)">
					<path id="搜索" class="st1" d="M6.2,1.5c-2.6,0-4.7,2.1-4.7,4.8c0,2.6,2.1,4.8,4.7,4.8c2.6,0,4.7-2.1,4.7-4.8
						C11,3.7,8.8,1.5,6.2,1.5z M12.4,13.7L10,11.3c-1,0.8-2.4,1.3-3.8,1.3C2.8,12.6,0,9.8,0,6.3C0,2.8,2.8,0,6.2,0
						c3.4,0,6.2,2.8,6.2,6.3c0,1.4-0.4,2.6-1.2,3.7l2.4,2.4c0.4,0.4,0.4,0.9,0,1.3l0,0C13.4,14.1,12.8,14.1,12.4,13.7
						C12.4,13.7,12.4,13.7,12.4,13.7z"/>
				</g>
			</g>
		</g>
	</g>
</g>
</svg>
