<?xml version="1.0" encoding="UTF-8"?>
<svg width="16px" height="16px" viewBox="0 0 16 16" version="1.1" xmlns="http://www.w3.org/2000/svg" xmlns:xlink="http://www.w3.org/1999/xlink">
    <!-- Generator: Sketch 51.3 (57544) - http://www.bohemiancoding.com/sketch -->
    <title>Shape</title>
    <desc>Created with Sketch.</desc>
    <defs></defs>
    <g id="首页+交易" stroke="none" stroke-width="1" fill="none" fill-rule="evenodd">
        <g id="Index-新1-Copy-6" transform="translate(-1676.000000, -17.000000)" fill="#CED3DD" fill-rule="nonzero">
            <g id="首页头部导航">
                <g transform="translate(30.000000, 3.000000)" id="Group-18">
                    <g>
                        <g id="User" transform="translate(1646.000000, 10.000000)">
                            <g id="Group-14">
                                <path d="M7.23220893,4.00000318 L8.76754436,4 C9.25805289,4 9.67905293,4.34976171 9.72605062,4.79624001 L9.84206079,5.89846021 C10.2467959,6.02058862 10.6382591,6.18300792 11.0105708,6.38327757 L11.8728561,5.68523771 C12.0212712,5.56526959 12.2057995,5.50169899 12.4066522,5.50169899 C12.6724546,5.50419826 12.9265554,5.61138324 13.1138439,5.80001093 L14.1997397,6.88590675 C14.5465328,7.23270135 14.5969947,7.77762676 14.3145131,8.12664756 L13.6164733,8.98893292 C13.8166581,9.36128717 13.9790741,9.75274333 14.1012928,10.1574455 L15.20376,10.2734557 C15.6502383,10.320453 16,10.7414534 16,11.2319619 L16,12.7673032 C16,13.2578117 15.6502365,13.6788118 15.2035113,13.7258095 L14.1012911,13.8420669 C13.9791157,14.2467064 13.8166981,14.6380826 13.6164733,15.0103307 L14.3145132,15.8726161 C14.5969945,16.2216369 14.5465344,16.7665623 14.1997398,17.1133569 L13.1140927,18.1992527 C12.924618,18.3887277 12.6668717,18.4975646 12.407148,18.4975646 C12.2060465,18.4975646 12.0215187,18.4339942 11.8731049,18.313779 L11.0108195,17.6159861 C10.6384844,17.8162126 10.2470265,17.9786292 9.84230843,18.1008039 L9.72629827,19.2032711 C9.67905395,19.6497494 9.25805356,19.9995111 8.76754503,19.9995111 L7.23220379,19.9995111 C6.74169526,19.9995111 6.32069522,19.6497494 6.27369752,19.2032711 L6.15744004,18.1008039 C5.75280229,17.9786286 5.36142613,17.816211 4.98917868,17.6159865 L4.12689333,18.3140264 C3.97823129,18.4339945 3.79370296,18.4975651 3.59309722,18.4975651 C3.32729487,18.4950659 3.07319404,18.3878809 2.88590554,18.1992532 L1.80025842,17.113606 C1.45346539,16.7668114 1.4030035,16.221886 1.68548502,15.8728652 L2.38352488,15.0103329 C2.18330003,14.638083 2.02088316,14.2467069 1.89870718,13.8420694 L0.79624001,13.7260592 C0.349761711,13.6790619 0,13.2578145 0,12.767306 L0,11.2319647 C0,10.7417049 0.349761711,10.3204562 0.79624001,10.2734585 L1.89895589,10.1574483 C2.021133,9.75280881 2.18355056,9.36143265 2.38377502,8.98918349 L1.68573515,8.12689814 C1.40325381,7.77787734 1.45371396,7.23270495 1.80050855,6.88591036 L2.88615567,5.80026324 C3.07587734,5.61078819 3.33337488,5.50195129 3.59334734,5.50195129 C3.78706401,5.49962073 3.97560596,5.56447906 4.12689471,5.68548999 L4.98942704,6.38352986 C5.36167694,6.18330501 5.75305483,6.02088657 6.1576925,5.89871036 L6.27370266,4.79624319 C6.32070001,4.34976489 6.7417004,4.00000318 7.23220893,4.00000318 Z M7.08268307,6.6640086 L6.44674359,6.85602403 C6.10606178,6.95888943 5.77654285,7.09563681 5.46312808,7.26421557 L4.8773619,7.57928602 L4.36033803,7.16086313 L3.57519665,6.52543582 L2.52559034,7.57504214 L3.57957903,8.8770294 L3.26446073,9.46288453 C3.09588251,9.7762983 2.95913582,10.1058157 2.85626934,10.4465001 L2.66424868,11.0824551 L2.00358252,11.1519599 L1,11.2575408 L1,12.7419792 L2.6640057,12.9170788 L2.85602097,13.5530187 C2.9588867,13.8937021 3.09563286,14.223219 3.26421059,14.5366319 L3.57928105,15.122398 L3.16085815,15.6394219 L2.5254407,16.4245749 L3.57503236,17.4741752 L4.87702569,16.4201816 L5.46288144,16.7353017 C5.77629254,16.9038793 6.1058085,17.0406254 6.44648925,17.1434897 L7.08227742,17.3354581 L7.15192592,17.9959333 L7.25775529,18.9995111 L8.74221828,18.9995111 L8.91732225,17.335464 L9.5533131,17.1434734 C9.8940866,17.040602 10.2236939,16.9038472 10.5371994,16.7352568 L11.1229152,16.4202828 L11.6398829,16.838632 L12.4250829,17.4740448 L13.4745494,16.4243379 L12.4206684,15.1224837 L12.7357885,14.5366279 C12.9043667,14.2232158 13.0411124,13.8937002 13.1439765,13.5530189 L13.3359395,12.9172458 L13.9963972,12.8475835 L15,12.7417278 L15,11.2575357 L13.3360319,11.08244 L13.1439942,10.4465465 C13.0410646,10.1057162 12.9042821,9.77604258 12.7356927,9.46245758 L12.4207601,8.87666657 L12.8392281,8.35973505 L13.4745475,7.57492797 L12.4247171,6.52508888 L11.1227114,7.5790925 L10.5368486,7.2639519 C10.2234291,7.09536091 9.89388872,6.95863379 9.55317713,6.85582442 L8.91709949,6.66388866 L8.74197297,5.00000005 L7.25778266,5.00000313 L7.08268307,6.6640086 Z M8,9 C9.65385714,9 11,10.3457143 11,12 C11,13.6542857 9.65385714,15 8,15 C6.34614286,15 5,13.6542857 5,12 C5,11.7633063 5.19187779,11.5714286 5.42857143,11.5714286 C5.66526507,11.5714286 5.85714286,11.7633063 5.85714286,12 C5.85714286,13.1815714 6.81842857,14.1428571 8,14.1428571 C9.18157143,14.1428571 10.1428571,13.1815714 10.1428571,12 C10.1424353,11.6995865 10.0789278,11.4026082 9.95644531,11.1282974 C9.47334821,10.046364 8.20465123,9.56090792 7.12271754,10.044 C7.11948116,10.0455038 7.11622612,10.0469672 7.11295318,10.0483897 C6.89587673,10.142739 6.64341668,10.0432469 6.54906869,9.8261704 C6.45471936,9.60909395 6.55421155,9.3566339 6.771288,9.26228591 C7.158288,9.08828591 7.57185943,9.0000002 8.00000229,9.0000002 Z" id="Shape"></path>
                            </g>
                        </g>
                    </g>
                </g>
            </g>
        </g>
    </g>
</svg>