<?xml version="1.0" encoding="utf-8"?>
<!-- Generator: Adobe Illustrator 21.1.0, SVG Export Plug-In . SVG Version: 6.00 Build 0)  -->
<svg version="1.1" id="图层_1" xmlns="http://www.w3.org/2000/svg" xmlns:xlink="http://www.w3.org/1999/xlink" x="0px" y="0px"
	 viewBox="0 0 200 206" style="enable-background:new 0 0 200 206;" xml:space="preserve">
<style type="text/css">
	.st0{fill:#14A2A5;}
</style>
<path class="st0" d="M171.5,74h-143C19.4,74,12,81.4,12,90.5v99c0,9.1,7.4,16.5,16.5,16.5h143c9.1,0,16.5-7.4,16.5-16.5v-99
	C188,81.4,180.6,74,171.5,74z M27.1,194.9l-4-4l45.4-45.4l4,4L27.1,194.9L27.1,194.9z M172.9,194.9l-45.4-45.4l4-4l45.4,45.4
	L172.9,194.9z M105.5,158.3v3.7h-11v-3.7L23,92l7-7l70,64.9L170,85l7,7L105.5,158.3z"/>
</svg>
