<?xml version="1.0" encoding="utf-8"?>
<!-- Generator: Adobe Illustrator 21.1.0, SVG Export Plug-In . SVG Version: 6.00 Build 0)  -->
<svg version="1.1" id="图层_1" xmlns="http://www.w3.org/2000/svg" xmlns:xlink="http://www.w3.org/1999/xlink" x="0px" y="0px"
	 viewBox="0 0 200 200" style="enable-background:new 0 0 200 200;" xml:space="preserve">
<style type="text/css">
	.st0{fill:#14A2A5;}
</style>
<path class="st0" d="M166.8,100V83.2H33.2V100H166.8z M166.8,183.2v-50H33.2v50H166.8z M166.8,66.4c4.7,0,8.6,1.6,11.7,4.9
	c3.1,3.3,4.7,7.2,4.7,11.9v100c0,4.7-1.6,8.7-4.7,11.9c-3.1,3.3-7,4.9-11.7,4.9H33.2c-4.7,0-8.6-1.6-11.7-4.9
	c-3.1-3.3-4.7-7.2-4.7-11.9v-100c0-4.7,1.6-8.7,4.7-11.9s7-4.9,11.7-4.9H166.8z"/>
</svg>
