<?xml version="1.0" encoding="UTF-8"?>
<svg width="200px" height="66px" viewBox="0 0 200 66" version="1.1" xmlns="http://www.w3.org/2000/svg" xmlns:xlink="http://www.w3.org/1999/xlink">
    <!-- Generator: Sketch 51.3 (57544) - http://www.bohemiancoding.com/sketch -->
    <title>Path 39 Copy</title>
    <desc>Created with Sketch.</desc>
    <defs></defs>
    <g id="首页+交易" stroke="none" stroke-width="1" fill="none" fill-rule="evenodd">
        <g id="Index-新1-Copy-6" transform="translate(-1339.000000, -534.000000)" fill-rule="nonzero">
            <g id="Group-11" transform="translate(0.000000, 464.000000)">
                <g id="Group-17-Copy-4" transform="translate(1339.000000, 20.000000)">
                    <g id="Path-39-Copy" transform="translate(0.000000, 51.000000)">
                        <polygon fill="#E96C42" opacity="0.049999997" transform="translate(100.000000, 32.500000) scale(-1, 1) translate(-100.000000, -32.500000) " points="0 57.0259742 8.426679 60.3559543 17.2784345 60.3559543 22.1307748 58.6909643 26.4988976 57.0259742 43.5148935 51.0259742 48.7224211 48.2498088 60.0053494 44.9491677 70.1169326 44.9491677 73.9656377 48.2498088 78.7205681 47.0026148 82.8474529 48.2498088 87.4968035 44.9491677 91.0379609 47.0026148 94.8805409 41.8762935 102.81056 41.8762935 111.667704 30.8969818 123.414141 37.3660834 133.561427 30.7344452 140.165355 33.2120521 146.814975 11.8790895 150.841825 16.8635491 155.569686 14.4027737 160.6774 2.87819831 165.074703 7.02886325 174.188268 0 178.537726 7.02886325 184.239866 9.92725945 192.71841 14.4027737 196.950433 16.8635491 200 15.7041461 200 65 0 65"></polygon>
                        <polyline id="Path-39" stroke="#E96C42" stroke-width="1" opacity="0.5" stroke-linejoin="round" transform="translate(99.915051, 30.177977) scale(-1, 1) translate(-99.915051, -30.177977) " points="0 57.0259742 8.41952058 60.3559543 17.2637565 60.3559543 22.1119748 58.6909643 26.4763869 57.0259742 43.4779279 51.0259742 48.6810317 48.2498088 59.9543751 44.9491677 70.0573686 44.9491677 73.9028043 48.2498088 78.6536954 47.0026148 82.7770744 48.2498088 87.4224754 44.9491677 90.9606246 47.0026148 94.7999403 41.8762935 102.723223 41.8762935 111.572842 30.8969818 123.309301 37.3660834 133.447967 30.7344452 140.046285 33.2120521 146.690256 11.8790895 150.713686 16.8635491 155.437531 14.4027737 160.540906 2.87819831 164.934473 7.02886325 174.040296 0 178.386059 7.02886325 184.083355 9.92725945 192.554697 14.4027737 196.783125 16.8635491 199.830101 15.7041461"></polyline>
                    </g>
                </g>
            </g>
        </g>
    </g>
</svg>