<?xml version="1.0" encoding="UTF-8"?>
<svg width="200px" height="57px" viewBox="0 0 200 57" version="1.1" xmlns="http://www.w3.org/2000/svg" xmlns:xlink="http://www.w3.org/1999/xlink">
    <!-- Generator: Sketch 51.3 (57544) - http://www.bohemiancoding.com/sketch -->
    <title>Path 39 Copy</title>
    <desc>Created with Sketch.</desc>
    <defs></defs>
    <g id="首页+交易" stroke="none" stroke-width="1" fill="none" fill-rule="evenodd">
        <g id="Index-新1-Copy-6" transform="translate(-381.000000, -543.000000)" fill-rule="nonzero">
            <g id="Group-11" transform="translate(0.000000, 464.000000)">
                <g id="Group-17" transform="translate(381.000000, 20.000000)">
                    <g id="Path-39-Copy" transform="translate(0.000000, 59.000000)">
                        <polygon fill="#03BF7B" opacity="0.049999997" points="0 46.0259742 8.426679 49.3559543 17.2784345 49.3559543 22.1307748 47.6909643 26.4988976 46.0259742 43.5148935 40.0259742 48.7224211 37.2498088 60.0053494 33.9491677 70.1169326 33.9491677 73.9656377 37.2498088 78.7205681 36.0026148 82.8474529 37.2498088 87.4968035 33.9491677 91.0379609 36.0026148 94.8805409 30.8762935 102.81056 30.8762935 111.667704 19.8969818 123.414141 26.3660834 133.561427 19.7344452 140.165355 22.2120521 146.814975 0.879089465 150.841825 5.86354907 155.569686 3.40277367 160.6774 21.8781983 165.074703 26.0288633 174.188268 19 178.537726 26.0288633 184.239866 8.92725945 192.71841 3.40277367 196.950433 5.86354907 200 4.70414611 200 57 0 57"></polygon>
                        <polyline id="Path-39" stroke="#03BF7B" stroke-width="1" opacity="0.5" stroke-linejoin="round" points="0 46.0259742 8.41952058 49.3559543 17.2637565 49.3559543 22.1119748 47.6909643 26.4763869 46.0259742 43.4779279 40.0259742 48.6810317 37.2498088 59.9543751 33.9491677 70.0573686 33.9491677 73.9028043 37.2498088 78.6536954 36.0026148 82.7770744 37.2498088 87.4224754 33.9491677 90.9606246 36.0026148 94.7999403 30.8762935 102.723223 30.8762935 111.572842 19.8969818 123.309301 26.3660834 133.447967 19.7344452 140.046285 22.2120521 146.690256 0.879089465 150.713686 5.86354907 155.437531 3.40277367 160.540906 21.8781983 164.934473 26.0288633 174.040296 19 178.386059 26.0288633 184.083355 8.92725945 192.554697 3.40277367 196.783125 5.86354907 199.830101 4.70414611"></polyline>
                    </g>
                </g>
            </g>
        </g>
    </g>
</svg>