<?xml version="1.0" encoding="UTF-8"?>
<svg width="14px" height="14px" viewBox="0 0 14 14" version="1.1" xmlns="http://www.w3.org/2000/svg" xmlns:xlink="http://www.w3.org/1999/xlink">
    <!-- Generator: Sketch 51.3 (57544) - http://www.bohemiancoding.com/sketch -->
    <title>Shape</title>
    <desc>Created with Sketch.</desc>
    <defs></defs>
    <g id="首页+交易" stroke="none" stroke-width="1" fill="none" fill-rule="evenodd">
        <g id="币币交易-白未登录" transform="translate(-704.000000, -112.000000)" fill="#8583AC" fill-rule="nonzero">
            <g id="深度" transform="translate(406.000000, 104.000000)">
                <g id="tital" transform="translate(1.000000, 1.000000)">
                    <path d="M305.49385,8.70651985 C305.95031,8.83507617 306.382698,9.02108368 306.782717,9.25624358 C307.017826,9.01159081 307.240752,8.76253513 307.482606,8.53239357 C307.748863,8.26636343 308.225322,8.29436667 308.477566,8.57439816 C308.81389,8.91043573 309.150215,9.232471 309.472525,9.56850857 C309.710755,9.8205364 309.710755,10.2545846 309.458512,10.4926115 C309.215966,10.7349504 308.982939,10.9772902 308.735894,11.2039513 C308.972631,11.6040698 309.160107,12.0367844 309.289971,12.493745 C309.635764,12.4907454 309.981557,12.4833166 310.327351,12.4948333 C310.71973,12.5088349 311,12.9008783 311,13.27892 L311,14.7210783 C310.985986,15.0851191 310.705717,15.4631608 310.327351,15.4911641 C309.982874,15.5026369 309.638397,15.4953082 309.29392,15.4922868 C309.164322,15.9529725 308.976208,16.3891546 308.738107,16.7923047 C308.968186,17.0077784 309.203914,17.2250047 309.430484,17.4513816 C309.61266,17.6193997 309.696742,17.8854299 309.626673,18.1374577 C309.570619,18.3614823 309.388443,18.5154995 309.234294,18.6835189 C308.968037,18.9495491 308.701781,19.2295802 308.435523,19.481608 C308.18328,19.7196349 307.748861,19.7196349 307.510631,19.4676064 C307.265694,19.222878 307.020755,18.9878489 306.791978,18.7382997 C306.393126,18.9738253 305.961947,19.1604261 305.506699,19.2898444 L305.506699,20.2516945 C305.520713,20.6577395 305.128335,20.9937771 304.735956,20.9937771 C304.27351,21.0077787 303.811063,20.9937771 303.362637,20.9937771 C302.970258,21.0077787 302.535839,20.7417492 302.507813,20.3217019 C302.49638,19.9790079 302.503603,19.6363148 302.50665,19.2936211 C302.043473,19.1632206 301.605076,18.9736671 301.200129,18.73363 C300.966358,18.9774447 300.744487,19.2272051 300.503881,19.4676064 C300.251638,19.7056333 299.817219,19.7056333 299.564976,19.4676064 C299.228652,19.1455711 298.892327,18.8095335 298.570017,18.473496 C298.289747,18.2354691 298.275734,17.7594166 298.54199,17.4933865 C298.782674,17.2529075 299.013985,17.0124275 299.258922,16.7872681 C299.022228,16.3855242 298.83514,15.9510583 298.706081,15.4922926 C298.362175,15.4953172 298.019971,15.5026311 297.687165,15.4911648 C297.266759,15.4771631 296.986488,15.0291133 297.000503,14.6370706 L297.000503,13.2789194 C297.014516,12.9148785 297.280773,12.5088335 297.673152,12.4948326 C298.018779,12.4833215 298.364404,12.4907376 298.710031,12.49374 C298.840529,12.0345477 299.029204,11.5998388 299.267581,11.1980865 C299.021974,10.9672088 298.770227,10.7346536 298.527977,10.4926109 C298.26172,10.2265807 298.289747,9.75052829 298.570017,9.51250139 C298.920355,9.16246289 299.256679,8.81242301 299.607017,8.49038775 C299.85926,8.28036409 300.265652,8.2943664 300.503882,8.53239234 C300.747003,8.77530588 300.990125,9.00866354 301.217443,9.25614977 C301.615825,9.02196982 302.04631,8.83653997 302.500702,8.70805709 C302.489798,8.36381379 302.482205,8.02584789 302.4938,7.67829679 C302.507816,7.28625396 302.900194,7.02022519 303.264546,7.00622288 C303.726992,6.9922214 304.175424,7.00622288 304.637865,7.00622288 C305.030244,6.9922214 305.478676,7.25825072 305.492688,7.67829802 C305.504123,8.02103905 305.496897,8.36377916 305.49385,8.70651985 Z M303.306586,10.9126584 C302.031356,11.1786886 301.008375,12.2988129 300.868233,13.6009617 C300.686057,14.8611023 301.372719,16.1912516 302.507817,16.7793184 C303.3206,17.2133666 304.315556,17.2693731 305.17039,16.9333356 C306.151337,16.5552938 306.894052,15.6591941 307.090246,14.6230781 C307.342489,13.4329464 306.823989,12.1308016 305.829029,11.4447215 C305.11434,10.9126625 304.161419,10.7166412 303.306598,10.9126625 L303.306586,10.9126584 Z" id="Shape"></path>
                </g>
            </g>
        </g>
    </g>
</svg>