<?xml version="1.0" encoding="UTF-8"?>
<svg width="12px" height="14px" viewBox="0 0 12 14" version="1.1" xmlns="http://www.w3.org/2000/svg" xmlns:xlink="http://www.w3.org/1999/xlink">
    <!-- Generator: Sketch 51.3 (57544) - http://www.bohemiancoding.com/sketch -->
    <title>Shape</title>
    <desc>Created with Sketch.</desc>
    <defs></defs>
    <g id="登录注册" stroke="none" stroke-width="1" fill="none" fill-rule="evenodd">
        <g id="登录-1920" transform="translate(-531.000000, -448.000000)" fill="#A8B0C0" fill-rule="nonzero">
            <g id="Group-2" transform="translate(460.000000, 290.000000)">
                <g id="Group" transform="translate(60.000000, 150.000000)">
                    <g id="形状" transform="translate(11.000000, 8.000000)">
                        <path d="M10.4999854,4.66666141 L9.74998248,4.66666141 L9.74998248,3.33332394 C9.74998248,1.49332951 8.06998042,0 5.99999468,0 C3.93000184,0 2.25000688,1.49333581 2.25000688,3.33332394 L2.25000688,4.66666141 L1.50000399,4.66666141 C0.671252731,4.66666141 0,5.26333076 0,5.99999887 L0,12.6666625 C0,13.4033306 0.671252731,14 1.50000399,14 L10.499996,14 C11.3287473,14 12,13.4033306 12,12.6666625 L12,5.99999887 C12,5.26333076 11.3287473,4.66666141 10.499996,4.66666141 L10.4999854,4.66666141 Z M5.14285714,10.1974705 C4.44669664,9.91000393 3.96426775,9.28307826 3.96426775,8.55553558 C3.96426775,7.55577078 4.87525445,6.74600447 5.99998935,6.74600447 C7.12472426,6.74600447 8.03571096,7.55577078 8.03571096,8.55553558 C8.03569303,9.28308659 7.55328398,9.90999808 6.85714286,10.1974638 L6.85714286,10.8095238 C6.85714286,11.2829107 6.47338693,11.6666667 6,11.6666667 C5.52661307,11.6666667 5.14285714,11.2829107 5.14285714,10.8095238 L5.14285714,10.1974705 Z M8.32498285,4.66666141 L3.67499585,4.66666141 L3.67499585,3.33332394 C3.67499585,2.19332958 4.71749981,1.26666215 5.99998935,1.26666215 C7.28248245,1.26666215 8.32498285,2.19333274 8.32498285,3.33332394 L8.32498285,4.66666141 Z" id="Shape"></path>
                    </g>
                </g>
            </g>
        </g>
    </g>
</svg>