<?xml version="1.0" encoding="UTF-8"?>
<svg width="14px" height="16px" viewBox="0 0 14 16" version="1.1" xmlns="http://www.w3.org/2000/svg" xmlns:xlink="http://www.w3.org/1999/xlink">
    <!-- Generator: Sketch 51.3 (57544) - http://www.bohemiancoding.com/sketch -->
    <title>Shape</title>
    <desc>Created with Sketch.</desc>
    <defs></defs>
    <g id="首页+交易" stroke="none" stroke-width="1" fill="none" fill-rule="evenodd">
        <g id="Index-新1-Copy-6" transform="translate(-1746.000000, -17.000000)" fill="#CED3DD" fill-rule="nonzero">
            <g id="首页头部导航">
                <g transform="translate(30.000000, 3.000000)" id="Group-18">
                    <g>
                        <g id="User" transform="translate(1646.000000, 10.000000)">
                            <g id="Group-14">
                                <path d="M80.9283184,10.2200286 L80.9477442,10.3211262 C80.809736,10.5914196 80.6414238,10.8507373 80.4428077,11.0942593 C80.7033038,11.2389278 80.952028,11.3986865 81.1881106,11.5720687 L81.2177453,11.726297 C81.2400855,11.6989059 81.2621141,11.6713517 81.2838311,11.6436388 C82.9809346,12.9354084 83.9989025,14.9416469 84.0000257,17.0928485 C83.9998377,17.2547507 83.9998377,17.4970389 84.0000257,17.8197131 L84.0000257,18.5465013 C84.0000192,19.3492126 83.3402278,20 82.5263334,20 L71.4736861,20 C70.6597916,20 70.0000002,19.3492126 70.0000002,18.5464251 L70.0000002,17.8196369 C70.0001862,17.4969612 70.0001862,17.2546982 70.0000001,17.0928479 C70.0000003,14.9431336 71.0166463,12.936772 72.7126836,11.6441409 C72.7342712,11.6716722 72.7561722,11.6990586 72.7783868,11.7262957 L72.8078079,11.5729165 C73.0439338,11.3992394 73.2927291,11.239195 73.553323,11.0942562 C73.3539226,10.8497738 73.1856199,10.5905494 73.0479038,10.3212358 L73.0672589,10.2203331 C73.0490405,10.2304659 73.0308725,10.2406634 73.0127549,10.2509253 C72.1403224,8.46519621 72.5937595,6.25900749 74.2268711,4.9631464 C76.1293464,3.45354489 78.9123202,3.75098694 80.4428078,5.62750286 C81.5287414,6.95895953 81.7087818,8.76260688 80.9829289,10.2506355 C80.964776,10.2403685 80.9465724,10.2301661 80.9283184,10.2200286 Z M82.5263334,19 C82.7909925,19 83.0000237,18.7938295 83.0000257,18.5465013 L83.0000259,17.8202958 C82.9998376,17.4970889 82.9998375,17.2542914 83.0000258,17.0933706 C82.9989178,14.9713697 81.8373445,13.0125888 79.957297,11.96849 L78.9125686,11.3882921 L79.6678701,10.4622216 C80.6695429,9.23407671 80.6695429,7.48768545 79.6678711,6.25954172 C78.4835508,4.80745809 76.322903,4.57652928 74.8484527,5.74649586 C73.3821935,6.90996083 73.1505794,9.01827748 74.3282592,10.4622167 L75.0830789,11.3876923 L74.0393872,11.9681794 C72.1604099,13.0132409 71.0000003,14.9723287 70.9999995,17.0916983 C71.0001863,17.2542433 71.0001864,17.4970104 71.0000002,17.8196369 L71.0000002,18.5464251 C71.0000002,18.7938287 71.209024,19 71.4736861,19 L82.5263334,19 Z M75.5,14 L78.5,14 C78.7761424,14 79,14.2238576 79,14.5 C79,14.7761424 78.7761424,15 78.5,15 L75.5,15 C75.2238576,15 75,14.7761424 75,14.5 C75,14.2238576 75.2238576,14 75.5,14 Z M75.5,16 L78.5,16 C78.7761424,16 79,16.2238576 79,16.5 C79,16.7761424 78.7761424,17 78.5,17 L75.5,17 C75.2238576,17 75,16.7761424 75,16.5 C75,16.2238576 75.2238576,16 75.5,16 Z" id="Shape"></path>
                            </g>
                        </g>
                    </g>
                </g>
            </g>
        </g>
    </g>
</svg>