<?xml version="1.0" encoding="UTF-8"?>
<svg width="70px" height="26px" viewBox="0 0 70 26" version="1.1" xmlns="http://www.w3.org/2000/svg" xmlns:xlink="http://www.w3.org/1999/xlink">
    <!-- Generator: Sketch 51.3 (57544) - http://www.bohemiancoding.com/sketch -->
    <title>logo 灰</title>
    <desc>Created with Sketch.</desc>
    <defs>
        <linearGradient x1="51.0482981%" y1="20.4101781%" x2="47.8983487%" y2="139.219739%" id="linearGradient-1">
            <stop stop-color="#50F9FF" offset="0%"></stop>
            <stop stop-color="#14a2a5" offset="100%"></stop>
        </linearGradient>
        <linearGradient x1="53.6297305%" y1="-137.589721%" x2="50.4797811%" y2="25.1793012%" id="linearGradient-2">
            <stop stop-color="#50F9FF" offset="0%"></stop>
            <stop stop-color="#14a2a5" offset="100%"></stop>
        </linearGradient>
        <linearGradient x1="53.6344574%" y1="-13.1058486%" x2="49.4857077%" y2="59.1376361%" id="linearGradient-3">
            <stop stop-color="#50F9FF" offset="0%"></stop>
            <stop stop-color="#14a2a5" offset="100%"></stop>
        </linearGradient>
        <linearGradient x1="53.5734006%" y1="-12.2381313%" x2="49.4259399%" y2="59.9801243%" id="linearGradient-4">
            <stop stop-color="#50F9FF" offset="0%"></stop>
            <stop stop-color="#14a2a5" offset="100%"></stop>
        </linearGradient>
    </defs>
    <g id="首页+交易" stroke="none" stroke-width="1" fill="none" fill-rule="evenodd">
        <g id="logo-灰">
            <g id="logo">
                <g id="LOGO">
                    <g id="Group">
                        <polygon id="Fill-1" fill="url(#linearGradient-1)" points="10.0757576 0 7.27272727 2.65485681 7.27272727 13.313253 12.8787879 13.313253 12.8787879 2.65485681"></polygon>
                        <polygon id="Fill-4" fill="url(#linearGradient-2)" points="7.27272727 16.1325301 7.27272727 26 10.0757576 23.2238282 12.8787879 26 12.8787879 16.1325301"></polygon>
                        <polygon id="Fill-7" fill="url(#linearGradient-3)" points="0 9.28886055 0 25.8433735 3.93939394 22.1186902 3.93939394 5.48192771"></polygon>
                        <polygon id="Fill-10" fill="url(#linearGradient-4)" points="16.0606061 22.1186902 20 25.8433735 20 9.28886055 16.0606061 5.48192771"></polygon>
                    </g>
                </g>
                <path d="M38.8747236,8.66666667 C39.0316319,8.66666667 39.1671416,8.72444387 39.2812567,8.84 C39.3953718,8.95555613 39.4524285,9.09277698 39.4524285,9.25166667 L39.4524285,23.2483333 C39.4524285,23.407223 39.3953718,23.5444439 39.2812567,23.66 C39.1671416,23.7755561 39.0316319,23.8333333 38.8747236,23.8333333 L36.0717852,23.8333333 C35.9148769,23.8333333 35.7793672,23.7755561 35.6652521,23.66 C35.551137,23.5444439 35.4940803,23.407223 35.4940803,23.2483333 L35.4940803,17.94 L30.7440625,17.94 L30.7440625,23.2483333 C30.7440625,23.407223 30.6870058,23.5444439 30.5728907,23.66 C30.4587756,23.7755561 30.3232659,23.8333333 30.1663576,23.8333333 L27.3634192,23.8333333 C27.2065109,23.8333333 27.0710012,23.7791672 26.9568861,23.6708333 C26.842771,23.5624995 26.7857143,23.4216675 26.7857143,23.2483333 L26.7857143,9.25166667 C26.7857143,9.09277698 26.842771,8.95555613 26.9568861,8.84 C27.0710012,8.72444387 27.2065109,8.66666667 27.3634192,8.66666667 L30.1663576,8.66666667 C30.3232659,8.66666667 30.4587756,8.72444387 30.5728907,8.84 C30.6870058,8.95555613 30.7440625,9.09277698 30.7440625,9.25166667 L30.7440625,14.4733333 L35.4940803,14.4733333 L35.4940803,9.25166667 C35.4940803,9.09277698 35.551137,8.95555613 35.6652521,8.84 C35.7793672,8.72444387 35.9148769,8.66666667 36.0717852,8.66666667 L38.8747236,8.66666667 Z M53.1675701,20.3666667 C53.3244784,20.3666667 53.459988,20.4244439 53.5741031,20.54 C53.6882182,20.6555561 53.7452749,20.792777 53.7452749,20.9516667 L53.7452749,23.2483333 C53.7452749,23.407223 53.6882182,23.5444439 53.5741031,23.66 C53.459988,23.7755561 53.3244784,23.8333333 53.1675701,23.8333333 L43.0256401,23.8333333 C42.8687318,23.8333333 42.7332222,23.7755561 42.6191071,23.66 C42.5049919,23.5444439 42.4479352,23.407223 42.4479352,23.2483333 L42.4479352,9.25166667 C42.4479352,9.09277698 42.5049919,8.95555613 42.6191071,8.84 C42.7332222,8.72444387 42.8687318,8.66666667 43.0256401,8.66666667 L52.9963983,8.66666667 C53.1533065,8.66666667 53.2888162,8.72444387 53.4029313,8.84 C53.5170464,8.95555613 53.5741031,9.09277698 53.5741031,9.25166667 L53.5741031,11.5483333 C53.5741031,11.707223 53.5170464,11.8444439 53.4029313,11.96 C53.2888162,12.0755561 53.1533065,12.1333333 52.9963983,12.1333333 L46.4062834,12.1333333 L46.4062834,14.4733333 L52.5256758,14.4733333 C52.6825841,14.4733333 52.8180937,14.5311105 52.9322088,14.6466667 C53.0463239,14.7622228 53.1033806,14.8994437 53.1033806,15.0583333 L53.1033806,17.355 C53.1033806,17.5138897 53.0463239,17.6511105 52.9322088,17.7666667 C52.8180937,17.8822228 52.6825841,17.94 52.5256758,17.94 L46.4062834,17.94 L46.4062834,20.3666667 L53.1675701,20.3666667 Z M62.2824692,19.435 L59.5437201,23.335 C59.4581338,23.4650007 59.3618506,23.5805551 59.2548677,23.6816667 C59.1478848,23.7827783 58.9517524,23.8333333 58.6664646,23.8333333 L55.4142001,23.8333333 C55.2858206,23.8333333 55.1752733,23.7863894 55.0825547,23.6925 C54.9898362,23.5986106 54.9434776,23.4866673 54.9434776,23.3566667 C54.9434776,23.3277776 54.9470437,23.295278 54.9541759,23.2591667 C54.9613081,23.2230554 54.9791383,23.1761114 55.0076671,23.1183333 L59.9502532,16.12 L55.2216318,9.38166667 C55.1788387,9.29499957 55.1574424,9.21555592 55.1574424,9.14333333 C55.1574424,9.01333268 55.203801,8.90138936 55.2965195,8.8075 C55.389238,8.71361064 55.4997854,8.66666667 55.6281649,8.66666667 L58.8590329,8.66666667 C59.1443207,8.66666667 59.3511512,8.73888817 59.4795307,8.88333333 C59.6079102,9.0277785 59.7006273,9.13611075 59.7576849,9.20833333 L62.3466586,12.87 L64.8500464,9.20833333 C64.9071039,9.13611075 64.9998211,9.0277785 65.1282006,8.88333333 C65.2565801,8.73888817 65.4634106,8.66666667 65.7486984,8.66666667 L69.0223593,8.66666667 C69.1507388,8.66666667 69.2612862,8.71361064 69.3540047,8.8075 C69.4467232,8.90138936 69.4930818,9.01333268 69.4930818,9.14333333 C69.4930818,9.21555592 69.4716855,9.29499957 69.4288924,9.38166667 L64.6788745,16.2066667 L69.5786677,23.1183333 C69.6071965,23.1761114 69.6250267,23.2230554 69.6321589,23.2591667 C69.6392911,23.295278 69.6428571,23.3277776 69.6428571,23.3566667 C69.6428571,23.4866673 69.5964986,23.5986106 69.50378,23.6925 C69.4110615,23.7863894 69.3005142,23.8333333 69.1721347,23.8333333 L65.9198702,23.8333333 C65.6345824,23.8333333 65.43845,23.7827783 65.3314671,23.6816667 C65.2244842,23.5805551 65.128201,23.4650007 65.0426146,23.335 L62.2824692,19.435 Z" id="HEX" fill="#1E222A"></path>
            </g>
        </g>
    </g>
</svg>