<?xml version="1.0" encoding="UTF-8"?>
<svg width="82px" height="26px" viewBox="0 0 82 26" version="1.1" xmlns="http://www.w3.org/2000/svg" xmlns:xlink="http://www.w3.org/1999/xlink">
    <!-- Generator: Sketch 51.3 (57544) - http://www.bohemiancoding.com/sketch -->
    <title>logo</title>
    <desc>Created with Sketch.</desc>
    <defs>
        <linearGradient x1="50%" y1="-7.90331486%" x2="49.4259399%" y2="81.2673902%" id="linearGradient-1">
            <stop stop-color="#54EAFD" offset="0%"></stop>
            <stop stop-color="#14a2a5" offset="100%"></stop>
        </linearGradient>
    </defs>
    <g id="首页+交易" stroke="none" stroke-width="1" fill="none" fill-rule="evenodd">
        <g id="Index-新1-Copy-6" transform="translate(-30.000000, -12.000000)">
            <g id="首页头部导航">
                <g transform="translate(30.000000, 12.000000)" id="Group-18">
                    <g>
                        <g id="logo">
                            <g id="logo图形" fill="url(#linearGradient-1)" fill-rule="nonzero">
                                <path d="M7,16 L13,16 L13,26 L10,23 L7,26 L7,16 Z M7,13 L7,2.7 L10,0 L13,2.7 L13,13 L7,13 Z M0,26 L0,9 L4,5.4 L4,22 L0,26 Z M20,26 L16,22 L16,5.4 L20,9 L20,26 Z" id="Combined-Shape"></path>
                            </g>
                            <path d="M73.3305515,16.78 L70.6037343,12.8457143 L65.07505,4.84857143 C65.0250164,4.74571377 65,4.651429 65,4.56571429 C65,4.4114278 65.0542022,4.27857199 65.1626084,4.16714286 C65.2710145,4.05571373 65.400266,4 65.5503668,4 L69.3915978,4 C69.7251551,4 69.9669805,4.08571343 70.1170813,4.25714286 C70.267182,4.42857229 70.3755865,4.55714243 70.442298,4.64285714 L81.92495,21.1514286 C81.9583057,21.2200003 81.9791527,21.2757141 81.9874917,21.3185714 C81.9958306,21.3614288 82,21.3999998 82,21.4342857 C82,21.5885722 81.9457978,21.721428 81.8373916,21.8328571 C81.7289855,21.9442863 81.599734,22 81.4496332,22 L77.5833855,22 C77.2498283,22 77.0205111,21.9400006 76.8954271,21.82 C76.7703431,21.6999994 76.6577692,21.5628579 76.557702,21.4085714 L73.3305515,16.78 Z M72.7223786,18.1383442 L70.442298,21.4085714 C70.3422308,21.5628579 70.2296569,21.6999994 70.1045729,21.82 C69.9794889,21.9400006 69.7501717,22 69.4166145,22 L65.5503668,22 C65.400266,22 65.2710145,21.9442863 65.1626084,21.8328571 C65.0542022,21.721428 65,21.5885722 65,21.4342857 C65,21.3999998 65.0041694,21.3614288 65.0125083,21.3185714 C65.0208473,21.2757141 65.0416943,21.2200003 65.07505,21.1514286 L69.9515299,14.1405293 L72.7223786,18.1383442 Z M74.2653242,7.93860133 L76.557702,4.64285714 C76.6244135,4.55714243 76.732818,4.42857229 76.8829187,4.25714286 C77.0330195,4.08571343 77.2748449,4 77.6084022,4 L81.4496332,4 C81.599734,4 81.7289855,4.05571373 81.8373916,4.16714286 C81.9457978,4.27857199 82,4.4114278 82,4.56571429 C82,4.651429 81.9749836,4.74571377 81.92495,4.84857143 L77.0354304,11.921174 L74.2653242,7.93860133 Z M28,4 L30,4 C30.5522847,4 31,4.44771525 31,5 L31,21 C31,21.5522847 30.5522847,22 30,22 L28,22 C27.4477153,22 27,21.5522847 27,21 L27,5 C27,4.44771525 27.4477153,4 28,4 Z M40,4 L42,4 C42.5522847,4 43,4.44771525 43,5 L43,21 C43,21.5522847 42.5522847,22 42,22 L40,22 C39.4477153,22 39,21.5522847 39,21 L39,5 C39,4.44771525 39.4477153,4 40,4 Z M32,11 L38,11 L38,15 L32,15 L32,11 Z M47,4 L61,4 C61.5522847,4 62,4.44771525 62,5 L62,7 C62,7.55228475 61.5522847,8 61,8 L47,8 L47,4 Z M47,11 L58,11 C58.5522847,11 59,11.4477153 59,12 L59,14 C59,14.5522847 58.5522847,15 58,15 L47,15 L47,11 Z M47,18 L62,18 C62.5522847,18 63,18.4477153 63,19 L63,21 C63,21.5522847 62.5522847,22 62,22 L47,22 L47,18 Z" id="Combined-Shape" fill="#FFFFFF" fill-rule="evenodd"></path>
                        </g>
                    </g>
                </g>
            </g>
        </g>
    </g>
</svg>