<?xml version="1.0" encoding="UTF-8"?>
<svg width="360px" height="360px" viewBox="0 0 360 360" version="1.1" xmlns="http://www.w3.org/2000/svg" xmlns:xlink="http://www.w3.org/1999/xlink">
    <!-- Generator: Sketch 51.3 (57544) - http://www.bohemiancoding.com/sketch -->
    <title>维护</title>
    <desc>Created with Sketch.</desc>
    <defs>
        <linearGradient x1="50%" y1="100%" x2="50%" y2="-5.55111512e-15%" id="linearGradient-1">
            <stop stop-color="#FFFFFF" stop-opacity="0" offset="0%"></stop>
            <stop stop-color="#ABDDFF" offset="100%"></stop>
        </linearGradient>
        <circle id="path-2" cx="180" cy="180" r="180"></circle>
        <linearGradient x1="-1.11022302e-14%" y1="50%" x2="74.1397218%" y2="50%" id="linearGradient-4">
            <stop stop-color="#ECF8FF" offset="0%"></stop>
            <stop stop-color="#FFFFFF" offset="100%"></stop>
        </linearGradient>
        <radialGradient cx="50%" cy="29.2581358%" fx="50%" fy="29.2581358%" r="247.368482%" gradientTransform="translate(0.500000,0.292581),scale(1.000000,0.607143),rotate(76.065099),scale(1.000000,0.844980),translate(-0.500000,-0.292581)" id="radialGradient-5">
            <stop stop-color="#FFFFFF" offset="0%"></stop>
            <stop stop-color="#AADBFE" offset="100%"></stop>
        </radialGradient>
        <linearGradient x1="50%" y1="0%" x2="50%" y2="100%" id="linearGradient-6">
            <stop stop-color="#E3EFFF" offset="0%"></stop>
            <stop stop-color="#B5DDFF" offset="100%"></stop>
        </linearGradient>
        <linearGradient x1="7.93923507%" y1="0%" x2="41.9010772%" y2="109.732706%" id="linearGradient-7">
            <stop stop-color="#A1D1FF" offset="0%"></stop>
            <stop stop-color="#D7EAFF" offset="100%"></stop>
        </linearGradient>
        <path d="M0.0348446538,0.186629995 C0.806185825,5.90599855 1.19185641,9.16752081 1.19185641,9.97119677 C1.19185641,11.1767107 1.58163077,15.506189 1.74114293,16.9706581 C1.84748437,17.9469707 2.06681654,22.960472 2.39913944,32.0111617 L5.92561226,32.0111617 L7.32854568,8.05586921 C8.89088942,11.8734151 9.85392612,14.7325168 10.2176558,16.6331744 C10.7632503,19.4841606 9.47515249,27.0683665 9.84640414,32.0111617 L14.0002103,32.7438542 C15.3886013,26.6730679 16.0041224,21.9508151 15.8467736,18.5770959 C15.6107505,13.5165172 14.6614762,4.58339392 13.6373165,0.928485772 L0.0348446538,0.186629995 Z" id="path-8"></path>
        <path d="M0.795432658,9.9344797 C0.591702124,9.37221179 0.431015575,8.67842522 0.313373011,7.85312001 C0.136909164,6.6151622 0.116459149,6.19366414 0.313373011,5.72647809 C0.510286873,5.25929204 -0.0365861311,4.92616737 0.13839344,4.36541427 C0.313373011,3.80466118 1.05856169,3.83923148 1.69490351,2.84854062 C2.33124534,1.85784977 3.16285183,-0.287051121 4.47288974,0.272647015 C5.78292764,0.832345151 7.75701385,2.16955137 7.99754891,3.61363183 C8.23808398,5.05771228 8.31741025,7.10904691 7.66548354,8.18681274 C7.01355682,9.26457857 6.23538424,10.886137 6.23538424,11.0206041 C6.23538424,11.1550712 4.62651223,12.1364297 3.16070787,11.7038951 C2.18350497,11.4155387 1.3950799,10.8257336 0.795432658,9.9344797 Z" id="path-10"></path>
        <path d="M4.73855162,0.26011677 C6.36435724,-0.0212336038 7.28971134,0.0275459276 7.51461394,0.406455364 C7.73951653,0.7853648 7.56997766,1.41555227 7.00599732,2.29701776 C5.45259085,5.15704207 4.58594546,6.73751886 4.40606115,7.03844815 C4.13623468,7.48984207 3.65662936,7.70806671 4.5591696,10.4780844 C5.46170985,13.2481021 5.9995718,14.7045286 5.9995718,16.7649225 C5.9995718,18.8253164 9.40811889,19.4737657 10.521814,18.9409314 C11.6355092,18.4080971 11.5425238,18.4643286 12.5442013,18.6135649 C13.5458787,18.7628013 15.6949129,19.1771292 16.2756423,20.4168729 C16.8563717,21.6566165 18.4878855,25.6559274 19.1745777,26.7213909 C19.86127,27.7868545 20.3695701,28.3224822 20.7589202,28.206836 C21.018487,28.1297386 23.9765845,26.8145557 29.6332129,24.2612874 C29.8101229,24.9286501 29.9568867,25.4265872 30.0735042,25.7550987 C30.2484306,26.2478659 30.5137955,26.5129447 30.0735042,26.8282848 C29.6332129,27.1436249 21.5058514,31.9130606 20.9334383,32.3826618 C20.3610251,32.8522629 19.9006522,33.0957161 19.1745777,32.8878404 C18.6905281,32.7492567 17.4464253,31.579786 15.4422694,29.3794286 C16.1402241,34.5552524 16.4180151,38.2069415 16.2756423,40.3344959 L2.54304101,39.6435835 C1.77523662,33.9657899 1.39133442,29.8940356 1.39133442,27.4283205 C1.39133442,24.9626055 1.39133442,22.5161835 1.39133442,20.0890545 C1.39133442,19.8488829 1.39133442,19.5216912 1.39133442,19.1074794 C1.39133442,18.4861617 0.583928399,16.1642421 0.583928399,14.935713 C0.583928399,13.707184 0.462494301,11.2508613 0.307152066,10.3503322 C0.151809832,9.44980311 -0.00353240294,7.96813329 0.583928399,7.03844815 C0.975568933,6.41865805 2.36044334,4.15921426 4.73855162,0.26011677 Z" id="path-12"></path>
    </defs>
    <g id="通用" stroke="none" stroke-width="1" fill="none" fill-rule="evenodd">
        <g id="维护中" transform="translate(-780.000000, -360.000000)">
            <g id="维护" transform="translate(780.000000, 360.000000)">
                <g id="Group-6">
                    <g id="Rectangle-2">
                        <mask id="mask-3" fill="white">
                            <use xlink:href="#path-2"></use>
                        </mask>
                        <use id="Mask" fill="url(#linearGradient-1)" fill-rule="nonzero" xlink:href="#path-2"></use>
                        <path d="M108.346939,135 L83.7755102,135 C78.9289297,135 75,131.100545 75,126.290323 C75,121.480101 78.9289297,117.580645 83.7755102,117.580645 C83.8998842,117.580645 84.023654,117.583213 84.1467685,117.588299 C85.5180701,112.082285 90.5286973,108 96.5,108 C101.819248,108 106.376174,111.239408 108.277301,115.838954 C108.300494,115.838791 108.323707,115.83871 108.346939,115.83871 C113.678177,115.83871 118,120.128111 118,125.419355 C118,130.710599 113.678177,135 108.346939,135 Z" id="Combined-Shape" fill="#FFFFFF" fill-rule="nonzero" mask="url(#mask-3)"></path>
                        <path d="M309.142857,167 L289.142857,167 C285.197966,167 282,163.822666 282,159.903226 C282,155.983786 285.197966,152.806452 289.142857,152.806452 C289.244092,152.806452 289.344835,152.808544 289.445044,152.812688 C290.56122,148.326306 294.639637,145 299.5,145 C303.829621,145 307.538746,147.639518 309.086175,151.387296 C309.105053,151.387163 309.123948,151.387097 309.142857,151.387097 C313.482237,151.387097 317,154.882164 317,159.193548 C317,163.504933 313.482237,167 309.142857,167 Z" id="Combined-Shape-Copy-3" fill="#FFFFFF" fill-rule="nonzero" mask="url(#mask-3)"></path>
                        <path d="M141.322581,145 L122.154707,145 C119.307841,145 117,142.689212 117,139.83871 C117,136.988208 119.307841,134.677419 122.154707,134.677419 C122.227764,134.677419 122.300466,134.678941 122.372783,134.681955 C123.178281,131.419132 126.121508,129 129.629032,129 C132.753542,129 135.430266,130.919649 136.546982,133.645306 C136.560605,133.64521 136.57424,133.645161 136.587887,133.645161 C138.301478,133.645161 139.83753,134.406272 140.877241,135.609287 C141.023823,135.595359 141.172375,135.588235 141.322581,135.588235 C143.905848,135.588235 146,137.695131 146,140.294118 C146,142.893105 143.905848,145 141.322581,145 Z" id="Combined-Shape" fill="#FFFFFF" fill-rule="nonzero" mask="url(#mask-3)"></path>
                        <path d="M62.6129032,165 L7.75312706,165 C-0.394800028,165 -7,158.356483 -7,150.16129 C-7,141.966097 -0.394800028,135.322581 7.75312706,135.322581 C7.96222101,135.322581 8.170299,135.326956 8.37727547,135.33562 C10.682667,125.955003 19.1063846,119 29.1451613,119 C38.0877237,119 45.7486912,124.518991 48.94481,132.355255 C48.9838017,132.354977 49.0228262,132.354839 49.0618828,132.354839 C53.9662999,132.354839 58.3625846,134.543033 61.3383097,138.001701 C61.7578393,137.961656 62.1830048,137.941176 62.6129032,137.941176 C70.0063926,137.941176 76,143.9985 76,151.470588 C76,158.942676 70.0063926,165 62.6129032,165 Z" id="Combined-Shape-Copy-4" fill="url(#linearGradient-4)" fill-rule="nonzero" mask="url(#mask-3)"></path>
                        <path d="M44.5507182,232.395687 C40.5958985,229.694748 38,225.150526 38,220 C38,211.715729 44.7157288,205 53,205 C61.2842712,205 68,211.715729 68,220 C68,223.153704 67.0267454,226.080093 65.3642044,228.495197 C67.0133863,230.550332 68,233.159948 68,236 C68,238.46593 67.2562,240.758137 65.9807142,242.664506 C68.3560536,243.784004 70,246.20002 70,249 C70,250.200622 69.6977332,251.330646 69.1651466,252.318125 C70.8261324,252.980079 72,254.602954 72,256.5 C72,258.985281 69.9852814,261 67.5,261 C65.0147186,261 63,258.985281 63,256.5 C63,256.330977 63.0093187,256.164131 63.0274702,255.999947 C63.0183176,255.999982 63.0091609,256 63,256 C59.1340068,256 56,252.865993 56,249 C56,248.660408 56.0241821,248.326463 56.0709182,247.999795 C56.0472949,247.999932 56.0236555,248 56,248 C49.372583,248 44,242.627417 44,236 C44,234.744166 44.1929118,233.53339 44.5507182,232.395687 Z" id="Combined-Shape" fill="url(#radialGradient-5)" mask="url(#mask-3)"></path>
                        <rect fill="url(#linearGradient-6)" fill-rule="nonzero" mask="url(#mask-3)" x="13" y="258" width="334" height="102"></rect>
                        <rect id="Rectangle-16" stroke="#05A79A" stroke-width="2" fill="#1DE0CF" fill-rule="nonzero" mask="url(#mask-3)" x="300" y="210" width="58" height="47"></rect>
                        <path d="M305,211 L307,211 L307,256 L305,256 L305,211 Z M311,211 L313,211 L313,256 L311,256 L311,211 Z M317,211 L319,211 L319,256 L317,256 L317,211 Z M323,211 L325,211 L325,256 L323,256 L323,211 Z M329,211 L331,211 L331,256 L329,256 L329,211 Z M335,211 L337,211 L337,256 L335,256 L335,211 Z M341,211 L343,211 L343,256 L341,256 L341,211 Z M347,211 L349,211 L349,256 L347,256 L347,211 Z M353,211 L355,211 L355,256 L353,256 L353,211 Z" id="Combined-Shape" fill="#17C7B8" fill-rule="nonzero" mask="url(#mask-3)"></path>
                        <path d="M301,211 L303,211 L303,256 L301,256 L301,211 Z M307,211 L309,211 L309,256 L307,256 L307,211 Z M313,211 L315,211 L315,256 L313,256 L313,211 Z M319,211 L321,211 L321,256 L319,256 L319,211 Z M325,211 L327,211 L327,256 L325,256 L325,211 Z M331,211 L333,211 L333,256 L331,256 L331,211 Z M337,211 L339,211 L339,256 L337,256 L337,211 Z M343,211 L345,211 L345,256 L343,256 L343,211 Z M349,211 L351,211 L351,256 L349,256 L349,211 Z" id="Combined-Shape-Copy-5" fill="#29EFDE" fill-rule="nonzero" mask="url(#mask-3)"></path>
                        <polygon id="Path-2" fill="url(#linearGradient-7)" fill-rule="nonzero" mask="url(#mask-3)" points="91.697367 262.222948 120.642241 283.703904 160 282.93077 106.640039 264.170417 95.8478036 260.977227"></polygon>
                        <g id="Group-5" mask="url(#mask-3)">
                            <g transform="translate(87.000000, 181.000000)">
                                <g>
                                    <path d="M4.81684774,5.50123675 C5.0735206,3.69552764 5.32027605,2.51166486 5.5571141,1.94964843 C5.91237116,1.10662377 7.08697579,-0.110183548 7.43725571,0.104899309 C7.78753564,0.319982165 6.92029696,2.32645813 7.27876151,2.79054021 C7.63722607,3.2546223 8.08417308,3.41397518 8.2866873,2.97194508 C8.48920153,2.52991498 8.73728422,2.120648 8.90020254,2.120648 C9.06312087,2.120648 9.19805662,3.07654762 8.74237196,3.77665538 C8.43858219,4.24339389 8.00354344,4.92673912 7.43725571,5.82669107 L4.81684774,5.50123675 Z" id="Path-3" fill="#FAB8BC" fill-rule="nonzero"></path>
                                    <path d="M29.542076,29.4593197 C30.1838801,28.3667589 30.5598795,27.7444978 30.6700742,27.5925363 C30.8353662,27.3645941 31.071626,26.7346956 31.2575047,26.9391363 C31.3814238,27.0754301 31.4377688,27.3606403 31.4265397,27.7947669 C32.218514,27.3101993 32.6539527,27.0249891 32.7328556,26.9391363 C32.8512101,26.8103571 33.3355576,26.6943968 33.552728,27.2445818 C33.7698983,27.7947669 34.1897909,28.8570483 33.657907,29.4593197 C33.1260231,30.0615911 30.977152,31.4421371 30.177492,31.6563762 C29.6443854,31.7992023 29.43258,31.0668502 29.542076,29.4593197 Z" id="Path-4" fill="#FAB8BC" fill-rule="nonzero"></path>
                                    <g id="Path-6" transform="translate(2.544218, 44.386189)">
                                        <mask id="mask-9" fill="white">
                                            <use xlink:href="#path-8"></use>
                                        </mask>
                                        <use id="Mask" fill="#0254D6" fill-rule="nonzero" xlink:href="#path-8"></use>
                                        <path d="M4.86919152,32.0662699 L5.39405879,3.43664963 C6.46931234,6.21147142 7.4034312,8.21675229 8.19641537,9.45249223 C9.38589162,11.3061021 12.3684415,15.8045772 12.1222219,17.7514598 C11.9580755,19.0493815 11.4363285,24.175158 10.5569808,33.1287892 L9.73340724,33.1287892 L4.86919152,32.0662699 Z" fill="#2637DF" fill-rule="nonzero" mask="url(#mask-9)"></path>
                                    </g>
                                    <path d="M5.85890268,23.0619255 C5.85250191,21.5478721 6.27354332,20.1520032 7.12202691,18.8743191 C7.9705105,17.5966349 9.78467282,17.9321414 12.5645139,19.8808384 L11.2841304,24.1858796 C10.045352,24.922734 8.9181299,25.1069476 7.90246418,24.7385204 C6.88679845,24.3700932 6.20561129,23.8112283 5.85890268,23.0619255 Z" id="Path-8" fill="#FAB8BC" fill-rule="nonzero"></path>
                                    <g id="Path-10" transform="translate(6.244898, 9.104859)">
                                        <mask id="mask-11" fill="white">
                                            <use xlink:href="#path-10"></use>
                                        </mask>
                                        <use id="Mask" fill="#ED9A13" fill-rule="nonzero" xlink:href="#path-10"></use>
                                        <path d="M4.92245689,0.00891720045 C4.21227442,1.01093967 3.6584311,1.88339904 3.26092692,2.62629532 C2.66467064,3.74063974 1.66672593,4.53961822 1.77513616,5.42135132 C1.8835464,6.30308441 2.00172781,6.87429472 2.00172781,7.26111457 C2.00172781,7.64793443 2.40983528,8.67748872 2.40983528,9.28498752 C2.40983528,9.89248632 2.27196884,11.476335 1.77513616,11.7173692 C1.44391438,11.8780586 0.821411417,11.1268331 -0.092372719,9.46369254 L-0.702893497,3.51518784 L1.59290712,1.252597 L3.81068091,-0.338481311 L4.92245689,0.00891720045 Z" fill="#D68500" fill-rule="nonzero" mask="url(#mask-11)"></path>
                                    </g>
                                    <g id="Path-5" transform="translate(0.000000, 5.007673)">
                                        <mask id="mask-13" fill="white">
                                            <use xlink:href="#path-12"></use>
                                        </mask>
                                        <use id="Mask" fill="#FF5A4F" fill-rule="nonzero" xlink:href="#path-12"></use>
                                        <path d="M15.3966012,29.4762193 L14.2978449,24.2621273 C15.0303491,32.421705 15.3966012,37.8066936 15.3966012,40.4170931 L16.3292015,40.4170931 C16.4894056,38.2663529 16.4894056,36.5081115 16.3292015,35.1423691 C16.1689975,33.7766267 15.8581307,31.8879101 15.3966012,29.4762193 Z" fill="#FF3F3E" fill-rule="nonzero" mask="url(#mask-13)"></path>
                                    </g>
                                    <polygon id="Path-2" fill="#0A0122" fill-rule="nonzero" points="4.9290118 75.3397836 8.53797475 75.3397836 8.53797475 78.6823327 4.9290118 78.9109879"></polygon>
                                    <polygon id="Path-7" fill="#0A0122" fill-rule="nonzero" points="12.3375192 76.4160764 16.6482754 76.7243555 15.8496941 80.6308374 12.9096914 81.1188846 12.3375192 79.7327339"></polygon>
                                    <g id="Path-11-Copy" transform="translate(9.387916, 80.265600) rotate(23.000000) translate(-9.387916, -80.265600) translate(3.726520, 76.763050)" fill-rule="nonzero">
                                        <path d="M1.60431232,6.33499618 C1.60039676,6.70495416 1.67542679,6.88993315 1.8294024,6.88993315 C2.06036582,6.88993315 7.34321211,5.08736178 10.3903847,2.9050183 C10.8052886,2.55491768 10.9486234,2.08078491 10.8203889,1.48261999 C10.8042329,1.37597225 10.7285265,1.28406444 10.5932698,1.20689655 C10.412959,1.92358416 10.1353331,2.41286756 9.76039205,2.67474675 C9.38545101,2.93662594 6.66675776,4.15670908 1.60431232,6.33499618 Z" fill="#EEEEEE"></path>
                                        <path d="M2.19018995,2.25137751 C2.70327306,1.96267969 2.9746438,1.28464866 3.1707075,0.78286935 C3.3667712,0.281090044 3.70017901,-0.0983194058 3.93107637,0.0226527361 C4.16197372,0.143624878 5.41193786,1.53567808 7.02058909,1.25061432 C8.62924033,0.965550563 9.98649211,0.594527396 10.2542136,0.922570859 C10.5219351,1.25061432 10.8239595,1.98133917 10.4008467,2.37339793 C9.97773394,2.76545669 4.32008532,6.08810228 1.53591444,6.4661839 C0.701012617,5.60139825 0.219401436,4.84635318 0.0910808964,4.20104869 C-0.101399913,3.23309195 -0.00306948932,2.25137751 0.523283583,2.25137751 C1.04963666,2.25137751 1.67710684,2.54007532 2.19018995,2.25137751 Z" id="Path-7-Copy" fill="#FFFFFF"></path>
                                    </g>
                                    <g id="Path-11-Copy" transform="translate(16.423470, 82.859164) rotate(32.000000) translate(-16.423470, -82.859164) translate(10.762074, 79.356615)" fill-rule="nonzero">
                                        <path d="M1.60431232,6.33499618 C1.60039676,6.70495416 1.67542679,6.88993315 1.8294024,6.88993315 C2.06036582,6.88993315 7.34321211,5.08736178 10.3903847,2.9050183 C10.8052886,2.55491768 10.9486234,2.08078491 10.8203889,1.48261999 C10.8042329,1.37597225 10.7285265,1.28406444 10.5932698,1.20689655 C10.412959,1.92358416 10.1353331,2.41286756 9.76039205,2.67474675 C9.38545101,2.93662594 6.66675776,4.15670908 1.60431232,6.33499618 Z" fill="#EEEEEE"></path>
                                        <path d="M2.19018995,2.25137751 C2.70327306,1.96267969 2.9746438,1.28464866 3.1707075,0.78286935 C3.3667712,0.281090044 3.70017901,-0.0983194058 3.93107637,0.0226527361 C4.16197372,0.143624878 5.41193786,1.53567808 7.02058909,1.25061432 C8.62924033,0.965550563 9.98649211,0.594527396 10.2542136,0.922570859 C10.5219351,1.25061432 10.8239595,1.98133917 10.4008467,2.37339793 C9.97773394,2.76545669 4.32008532,6.08810228 1.53591444,6.4661839 C0.701012617,5.60139825 0.219401436,4.84635318 0.0910808964,4.20104869 C-0.101399913,3.23309195 -0.00306948932,2.25137751 0.523283583,2.25137751 C1.04963666,2.25137751 1.67710684,2.54007532 2.19018995,2.25137751 Z" id="Path-7-Copy" fill="#FFFFFF"></path>
                                    </g>
                                </g>
                            </g>
                        </g>
                    </g>
                    <text id="维护中…" font-family="PingFangSC-Medium, PingFang SC" font-size="24" font-weight="400" fill="#21283E">
                        <tspan x="140" y="318">维护中…</tspan>
                    </text>
                    <g id="Group-7" transform="translate(133.000000, 45.000000)">
                        <path d="M90,86 L90,97.8890873 L101.889087,86 L90,86 Z M87,86 L83,86 L83,66 L110,66 L110,86 L106,86 L106,86.1109127 L106.010408,86.1213203 L106,86.131728 L106,117.767767 L106.12132,117.889087 L106,118.010408 L106,120.110913 L106.010408,120.12132 L106,120.131728 L106,151.767767 L106.12132,151.889087 L106,152.010408 L106,154.110913 L106.010408,154.12132 L106,154.131728 L106,185.767767 L106.12132,185.889087 L106,186.010408 L106,188.110913 L106.010408,188.12132 L106,188.131728 L106,213 L103,213 L103,191.131728 L90,204.131728 L90,213 L87,213 L87,86 Z M103,89.131728 L90.1819805,101.949747 L103,114.767767 L103,89.131728 Z M90,106.010408 L90,131.889087 L102.93934,118.949747 L90,106.010408 Z M103,123.131728 L90.1819805,135.949747 L103,148.767767 L103,123.131728 Z M90,140.010408 L90,165.889087 L102.93934,152.949747 L90,140.010408 Z M90.1819805,169.949747 L103,182.767767 L103,157.131728 L90.1819805,169.949747 Z M102.93934,186.949747 L90,174.010408 L90,199.889087 L102.93934,186.949747 Z M86,69 L86,80 L95,80 L95,69 L86,69 Z M98,69 L98,80 L107,80 L107,69 L98,69 Z" id="Combined-Shape" fill="#5A97C3" fill-rule="nonzero"></path>
                        <rect id="Rectangle-11" fill="#FFFFFF" fill-rule="nonzero" x="86" y="69" width="9" height="11"></rect>
                        <rect id="Rectangle-11-Copy" fill="#FFFFFF" fill-rule="nonzero" x="98" y="69" width="9" height="11"></rect>
                        <path d="M2.16289766,53.2422276 C1.63670474,53.4099758 1.07415432,53.1193989 0.906406138,52.593206 C0.738657952,52.0670131 1.02923482,51.5044627 1.55542774,51.3367145 L104.807072,18.4205057 L149.314619,51.4867574 C149.757946,51.8161206 149.850332,52.4425093 149.520968,52.8858357 C149.191605,53.3291622 148.565217,53.4215478 148.12189,53.0921847 L104.437509,20.6374929 L2.16289766,53.2422276 Z" id="Path-16" fill="#666666" fill-rule="nonzero"></path>
                        <path d="M75.5,123.62132 L75.5,-13.3786797 L78.5,-13.3786797 L87.5,-13.3786797 L90.5,-13.3786797 L90.5,139.62132 L90.5,141.62132 L75.5,141.62132 L64.5,141.62132 L64.5,123.62132 L75.5,123.62132 Z M87.5,138.62132 L87.5,130.766041 L79.6447208,138.62132 L87.5,138.62132 Z M87.5,-10.3786797 L78.5,-10.3786797 L78.5,-10.0443277 L87.5,-1.04432767 L87.5,-10.3786797 Z M87.5,2.00022809 L78.5,-6.99977191 L78.5,11.7172488 L87.5,2.71724882 L87.5,2.00022809 Z M87.5,5.76180458 L78.7037187,14.5580859 L87.5,23.3543672 L87.5,5.76180458 Z M87.5,26.398923 L78.5,17.398923 L78.5,36.1159437 L87.5,27.1159437 L87.5,26.398923 Z M87.5,30.1604995 L78.7037187,38.9567808 L87.5,47.7530622 L87.5,30.1604995 Z M87.5,50.7976179 L78.5,41.7976179 L78.5,60.5146386 L87.5,51.5146386 L87.5,50.7976179 Z M87.5,54.5591944 L78.9171111,63.1420833 L87.5,71.7249723 L87.5,54.5591944 Z M87.5,125.283404 L78.5,116.283404 L78.5,136.721485 L87.5,127.721485 L87.5,125.283404 Z M87.5,122.238848 L87.5,105.027193 L78.8941723,113.633021 L87.5,122.238848 Z M87.5,100.041202 L78.5,91.0412021 L78.5,110.982637 L87.5,101.982637 L87.5,100.041202 Z M87.5,96.9966464 L87.5,79.1469484 L78.575151,88.0717974 L87.5,96.9966464 Z M87.5,74.769528 L78.5,65.769528 L78.5,85.1023927 L87.5,76.1023927 L87.5,74.769528 Z" id="Combined-Shape-Copy" fill="#5A97C3" fill-rule="nonzero" transform="translate(77.500000, 64.121320) rotate(-90.000000) translate(-77.500000, -64.121320) "></path>
                        <rect id="Rectangle-3-Copy-4" fill="#50789F" fill-rule="nonzero" x="82" y="205" width="29" height="8"></rect>
                        <rect id="Rectangle-6" fill="#5A97C3" fill-rule="nonzero" x="103" y="18" width="3" height="48"></rect>
                        <rect id="Rectangle-18" fill="#3C5363" fill-rule="nonzero" x="103" y="0" width="1" height="18"></rect>
                        <polygon id="Rectangle-19" fill="#FF6A38" fill-rule="nonzero" points="104 0 114 4 104 8"></polygon>
                        <rect id="Rectangle-6-Copy" fill="#666666" fill-rule="nonzero" x="11" y="66" width="2" height="48"></rect>
                        <path d="M11,126.126017 L11,123.873983 C9.27477279,123.42994 8,121.863839 8,120 L8,116 C8,114.895431 8.8954305,114 10,114 L14,114 C15.1045695,114 16,114.895431 16,116 L16,120 C16,121.863839 14.7252272,123.42994 13,123.873983 L13,127 L13,128.267564 C12.7058266,128.097394 12.3642871,128 12,128 C10.8954305,128 10,128.895431 10,130 C10,131.104569 10.8954305,132 12,132 C12.7402824,132 13.3866262,131.597801 13.7324356,131 L15.8739825,131 C15.4299397,132.725227 13.8638394,134 12,134 C9.790861,134 8,132.209139 8,130 C8,128.136161 9.27477279,126.57006 11,126.126017 Z M10,118 C10.5522847,118 11,117.552285 11,117 C11,116.447715 10.5522847,116 10,116 C9.44771525,116 9,116.447715 9,117 C9,117.552285 9.44771525,118 10,118 Z M14,118 C14.5522847,118 15,117.552285 15,117 C15,116.447715 14.5522847,116 14,116 C13.4477153,116 13,116.447715 13,117 C13,117.552285 13.4477153,118 14,118 Z" id="Combined-Shape" fill="#434E36" fill-rule="nonzero"></path>
                        <polyline id="Path-3" stroke="#434E36" stroke-linecap="round" stroke-linejoin="round" fill-rule="nonzero" points="2 149 12.1478198 132 22.2956396 149"></polyline>
                        <rect id="Rectangle-12" fill="#17C7B8" fill-rule="nonzero" x="0" y="148" width="24" height="18" rx="1"></rect>
                        <rect id="Rectangle-13" fill="#FFF8A1" fill-rule="nonzero" x="0" y="153" width="24" height="8"></rect>
                        <path d="M1.0225,155.787 L1.4365,155.787 L2.143,158.4825 L2.161,158.4825 L2.8945,155.787 L3.295,155.787 L4.024,158.4825 L4.042,158.4825 L4.7485,155.787 L5.1625,155.787 L4.24,159 L3.8305,159 L3.1015,156.3225 L3.088,156.3225 L2.3545,159 L1.945,159 L1.0225,155.787 Z M6.913,155.724 C7.39,155.724 7.7725,155.8815 8.0515,156.2055 C8.3125,156.5115 8.4475,156.9075 8.4475,157.398 C8.4475,157.884 8.3125,158.2755 8.0515,158.5815 C7.7725,158.901 7.39,159.063 6.9085,159.063 C6.427,159.063 6.049,158.901 5.77,158.5815 C5.5045,158.2755 5.374,157.8795 5.374,157.398 C5.374,156.912 5.5045,156.516 5.77,156.21 C6.049,155.886 6.427,155.724 6.913,155.724 Z M6.913,156.0525 C6.544,156.0525 6.2515,156.1785 6.04,156.435 C5.842,156.678 5.743,156.9975 5.743,157.398 C5.743,157.794 5.842,158.1135 6.04,158.3565 C6.247,158.6085 6.5395,158.7345 6.9085,158.7345 C7.2775,158.7345 7.57,158.6085 7.777,158.3655 C7.975,158.1225 8.0785,157.803 8.0785,157.398 C8.0785,156.9885 7.975,156.6645 7.777,156.4215 C7.57,156.174 7.282,156.0525 6.913,156.0525 Z M8.9605,155.787 L10.3465,155.787 C10.666,155.787 10.918,155.859 11.1025,156.0075 C11.2915,156.1605 11.3905,156.3855 11.3905,156.6825 C11.3905,156.8625 11.341,157.02 11.242,157.1595 C11.134,157.3035 10.99,157.3935 10.8055,157.4385 L10.8055,157.4475 C11.1115,157.515 11.2825,157.7085 11.3185,158.0325 L11.368,158.5275 C11.386,158.7255 11.4445,158.883 11.539,159 L11.1385,159 C11.0665,158.892 11.0215,158.7525 11.008,158.5725 L10.9675,158.145 C10.9495,157.956 10.882,157.8165 10.765,157.7355 C10.657,157.6545 10.504,157.6185 10.3015,157.6185 L9.3295,157.6185 L9.3295,159 L8.9605,159 L8.9605,155.787 Z M9.3295,156.1065 L9.3295,157.299 L10.3015,157.299 C10.5355,157.299 10.72,157.2405 10.846,157.1325 C10.9585,157.029 11.017,156.885 11.017,156.696 C11.017,156.498 10.9585,156.3495 10.8505,156.255 C10.7335,156.156 10.549,156.1065 10.3015,156.1065 L9.3295,156.1065 Z M12.0025,155.787 L12.3895,155.787 L14.2075,158.4015 L14.221,158.4015 L14.221,155.787 L14.59,155.787 L14.59,159 L14.212,159 L12.385,156.3585 L12.3715,156.3585 L12.3715,159 L12.0025,159 L12.0025,155.787 Z M15.265,155.787 L15.6295,155.787 L15.6295,159 L15.265,159 L15.265,155.787 Z M16.3045,155.787 L16.6915,155.787 L18.5095,158.4015 L18.523,158.4015 L18.523,155.787 L18.892,155.787 L18.892,159 L18.514,159 L16.687,156.3585 L16.6735,156.3585 L16.6735,159 L16.3045,159 L16.3045,155.787 Z M20.9125,155.724 C21.313,155.724 21.6325,155.8185 21.871,156.0165 C22.096,156.201 22.2355,156.4665 22.294,156.8175 L21.925,156.8175 C21.8755,156.5745 21.7675,156.39 21.601,156.2595 C21.4255,156.12 21.196,156.0525 20.9125,156.0525 C20.5615,156.0525 20.287,156.174 20.08,156.4215 C19.873,156.6645 19.774,156.993 19.774,157.407 C19.774,157.812 19.873,158.1315 20.071,158.3655 C20.2825,158.613 20.5975,158.739 21.016,158.739 C21.1915,158.739 21.358,158.712 21.52,158.667 C21.6775,158.622 21.8125,158.559 21.925,158.487 L21.925,157.668 L20.917,157.668 L20.917,157.3485 L22.2895,157.3485 L22.2895,158.6625 C22.1365,158.7885 21.9475,158.883 21.727,158.955 C21.493,159.027 21.2455,159.063 20.98,159.063 C20.4715,159.063 20.0755,158.901 19.7965,158.577 C19.5355,158.2755 19.405,157.884 19.405,157.407 C19.405,156.93 19.531,156.5385 19.792,156.228 C20.0665,155.8905 20.44,155.724 20.9125,155.724 Z" id="WORNING" fill="#333333"></path>
                        <path d="M22.1213203,153 L21.1213203,154 L18.5355339,154 L19.5355339,153 L22.1213203,153 Z M23.5355339,153 L24,153 L24,154 L22.5355339,154 L23.5355339,153 Z M18.1213203,153 L17.1213203,154 L14.5355339,154 L15.5355339,153 L18.1213203,153 Z M14.1213203,153 L13.1213203,154 L10.5355339,154 L11.5355339,153 L14.1213203,153 Z M10.1213203,153 L9.12132034,154 L6.53553391,154 L7.53553391,153 L10.1213203,153 Z M6.12132034,153 L5.12132034,154 L2.53553391,154 L3.53553391,153 L6.12132034,153 Z M2.12132034,153 L1.12132034,154 L0,154 L0,153 L2.12132034,153 Z" id="Combined-Shape" fill="#333333" fill-rule="nonzero"></path>
                        <path d="M22.1213203,160 L21.1213203,161 L18.5355339,161 L19.5355339,160 L22.1213203,160 Z M23.5355339,160 L24,160 L24,161 L22.5355339,161 L23.5355339,160 Z M18.1213203,160 L17.1213203,161 L14.5355339,161 L15.5355339,160 L18.1213203,160 Z M14.1213203,160 L13.1213203,161 L10.5355339,161 L11.5355339,160 L14.1213203,160 Z M10.1213203,160 L9.12132034,161 L6.53553391,161 L7.53553391,160 L10.1213203,160 Z M6.12132034,160 L5.12132034,161 L2.53553391,161 L3.53553391,160 L6.12132034,160 Z M2.12132034,160 L1.12132034,161 L0,161 L0,160 L2.12132034,160 Z" id="Combined-Shape-Copy-2" fill="#333333" fill-rule="nonzero"></path>
                    </g>
                </g>
            </g>
        </g>
    </g>
</svg>