<?xml version="1.0" encoding="UTF-8"?>
<svg width="14px" height="16px" viewBox="0 0 14 16" version="1.1" xmlns="http://www.w3.org/2000/svg" xmlns:xlink="http://www.w3.org/1999/xlink">
    <!-- Generator: Sketch 51.1 (57501) - http://www.bohemiancoding.com/sketch -->
    <title>灯</title>
    <desc>Created with Sketch.</desc>
    <defs></defs>
    <g id="首页修改" stroke="none" stroke-width="1" fill="none" fill-rule="evenodd">
        <g id="币币交易-定宽-Dark-又新-drop" transform="translate(-1273.000000, -86.000000)" fill="#AAB5E0">
            <g id="Group-2" transform="translate(121.000000, 76.000000)">
                <g id="灯" transform="translate(1151.000000, 10.000000)">
                    <g transform="translate(1.000000, 0.000000)" id="Shape">
                        <path d="M6.99999999,13.1237485 C4.99337656,13.1237485 3.36069511,11.4765849 3.36069511,9.45193913 L3.36069511,8.73480375 L10.6392879,8.73480375 L10.6392879,9.45193913 C10.6392879,11.4765849 9.00660641,13.1237485 6.99999999,13.1237485 Z M4.89898047,10.1690745 C5.19609158,11.0521901 6.02584453,11.6894777 6.99999999,11.6894777 C7.97415546,11.6894777 8.8039084,11.0521729 9.10101953,10.1690745 L4.89898047,10.1690745 Z M6.28916981,2.88847537 L6.28916981,0.135243101 C6.28916982,0.0605504027 6.34918785,9.26234748e-09 6.42322383,0 L7.57677615,0 C7.65081214,-1.19164897e-15 7.71083018,0.0605503962 7.71083019,0.135243101 L7.71083019,2.88847537 L6.28916981,2.88847537 Z M2.0032449,14.2995016 L1.3079545,13.6311677 C1.21573703,13.5425282 1.21221377,13.3952307 1.30009099,13.3022124 L2.05645122,12.5015031 C2.14431141,12.4084848 2.29027985,12.4049303 2.38248028,12.4935698 L3.0777707,13.1619037 C3.16998817,13.2505432 3.17351142,13.3978407 3.08563421,13.490859 L2.32927398,14.2915683 C2.24141379,14.3845866 2.09546237,14.3881239 2.0032449,14.2995016 Z M7.52140835,16 L6.56098847,16 C6.43362352,16 6.3303597,15.8958374 6.3303597,15.7673255 L6.3303597,14.798627 C6.3303597,14.6701323 6.43360649,14.5659525 6.56098847,14.5659525 L7.52140835,14.5659525 C7.6487733,14.5659525 7.75202009,14.6701151 7.75202009,14.798627 L7.75202009,15.7673255 C7.75202009,15.8958202 7.6487733,16 7.52140835,16 Z M11.708665,14.2037702 L11.0041324,13.5226264 C10.9121703,13.4337121 10.9090555,13.2864146 10.997205,13.1936367 L11.6619095,12.4940163 C11.750042,12.4012556 11.8960104,12.3981304 11.9879726,12.4870275 L12.6925052,13.1681713 C12.7844673,13.2570856 12.7875821,13.4043831 12.6994325,13.497161 L12.0347281,14.1967814 C11.9465786,14.2895421 11.8006101,14.2926673 11.708665,14.2037702 Z M13.6106884,10.1690745 L0.389311566,10.1690745 C0.174307695,10.1690745 1.22746258e-12,9.99322068 1.22746258e-12,9.77630968 L1.22746258e-12,9.6564351 C1.22746258e-12,5.85810577 2.88752319,2.58520865 6.64791243,2.39838221 C10.6672697,2.19867711 14,5.43989271 14,9.45193913 L14,9.77630968 C14,9.99322068 13.8256923,10.1690745 13.6106884,10.1690745 Z" fill-rule="nonzero"></path>
                    </g>
                </g>
            </g>
        </g>
    </g>
</svg>