<?xml version="1.0" encoding="UTF-8"?>
<svg width="80px" height="80px" viewBox="0 0 80 80" version="1.1" xmlns="http://www.w3.org/2000/svg" xmlns:xlink="http://www.w3.org/1999/xlink">
    <!-- Generator: Sketch 55.2 (78181) - https://sketchapp.com -->
    <title>诚信</title>
    <desc>Created with Sketch.</desc>
    <defs>
        <linearGradient x1="16.4990234%" y1="12.6977539%" x2="85.4980469%" y2="83.2543945%" id="linearGradient-1">
            <stop stop-color="#88CCF5" stop-opacity="0" offset="0%"></stop>
            <stop stop-color="#88CCF5" offset="100%"></stop>
        </linearGradient>
    </defs>
    <g id="1.首页" stroke="none" stroke-width="1" fill="none" fill-rule="evenodd">
        <g transform="translate(-770.000000, -1413.000000)" id="诚信">
            <g transform="translate(770.000000, 1413.000000)">
                <path d="M40,78.5 C61.2629629,78.5 78.5,61.2629629 78.5,40 C78.5,18.7370371 61.2629629,1.5 40,1.5 C18.7370371,1.5 1.5,18.7370371 1.5,40 C1.5,61.2629629 18.7370371,78.5 40,78.5 Z M40,78.5 C18.7370371,78.5 1.5,61.2629629 1.5,40 C1.5,18.7370371 18.7370371,1.5 40,1.5 C61.2629629,1.5 78.5,18.7370371 78.5,40 C78.5,61.2629629 61.2629629,78.5 40,78.5 Z" id="形状结合" stroke="url(#linearGradient-1)" stroke-width="3" fill="#F4F5F7"></path>
                <path d="M40,70 C23.4314575,70 10,56.5685425 10,40 C10,23.4314575 23.4314575,10 40,10 C56.5685425,10 70,23.4314575 70,40 C70,56.5685425 56.5685425,70 40,70 Z M40,67 C54.9116882,67 67,54.9116882 67,40 C67,25.0883118 54.9116882,13 40,13 C25.0883118,13 13,25.0883118 13,40 C13,54.9116882 25.0883118,67 40,67 Z" id="形状结合" fill="#116CEB"></path>
                <g id="btc" transform="translate(28.000000, 23.000000)" fill="#EB863C" fill-rule="nonzero">
                    <path d="M22.1760124,10.1538462 C22.4155372,12.5600962 21.5439328,14.265625 19.561199,15.2704327 C21.1181108,15.640625 22.2824679,16.3215144 23.0542703,17.313101 C23.8260727,18.3046875 24.1254788,19.719351 23.9524886,21.5570913 C23.85934,22.4957933 23.6431023,23.3221154 23.3037754,24.0360577 C22.9644484,24.75 22.5352997,25.3383414 22.0163291,25.8010817 C21.4973586,26.2638221 20.8519721,26.6505409 20.0801696,26.961238 C19.3083672,27.2719351 18.4999707,27.5 17.6549802,27.6454327 C16.8099896,27.7908654 15.8419099,27.8900241 14.7507409,27.9429086 L14.7507409,33 L11.6768382,33 L11.6768382,28.0222356 C10.6122832,28.0222356 9.80055994,28.015625 9.24166853,28.0024038 L9.24166853,33 L6.16776583,33 L6.16776583,27.9429086 C5.92824095,27.9429086 5.56895362,27.9396034 5.08990384,27.9329928 C4.61085406,27.9263822 4.24491326,27.9230769 3.99208146,27.9230769 L0,27.9230769 L0.618772632,24.2938702 L2.83437781,24.2938702 C3.49972473,24.2938702 3.88562594,23.9567308 3.99208146,23.2824519 L3.99208146,15.3100961 L4.31144797,15.3100961 C4.23160635,15.296875 4.12515085,15.2902644 3.99208146,15.2902644 L3.99208146,9.59855771 C3.81909127,8.69951924 3.22693253,8.25000001 2.21560522,8.25000001 L0,8.25000001 L0,4.99759615 L4.23160631,5.0174279 C5.08325036,5.0174279 5.72863687,5.01081732 6.16776583,4.99759615 L6.16776583,0 L9.24166853,0 L9.24166853,4.89843749 C10.3328375,4.87199519 11.1445607,4.85877404 11.6768382,4.85877404 L11.6768382,0 L14.7507409,0 L14.7507409,4.99759615 C15.801989,5.09014423 16.7334747,5.23888221 17.5451979,5.4438101 C18.3569212,5.64873799 19.1087632,5.94621395 19.8007239,6.33623799 C20.4926847,6.72626204 21.0415959,7.24188703 21.4474575,7.88311297 C21.8533191,8.52433892 22.0961708,9.28124998 22.1760124,10.1538462 Z M17.8845248,20.9621394 C17.8845248,20.4861779 17.7847228,20.063101 17.5851187,19.6929087 C17.3855147,19.3227164 17.1393363,19.0186298 16.8465837,18.780649 C16.553831,18.5426682 16.1712566,18.3410456 15.6988603,18.1757813 C15.226464,18.0105169 14.7906617,17.8882212 14.3914536,17.8088942 C13.9922454,17.7295672 13.4998887,17.670072 12.9143834,17.6304087 C12.3288782,17.5907453 11.8697888,17.5709134 11.5371154,17.5709134 C11.2044419,17.5709134 10.7752931,17.577524 10.2496691,17.5907452 C9.72404506,17.6039664 9.40800528,17.610577 9.30154977,17.6105769 L9.30154977,24.3137019 C9.40800528,24.3137019 9.65418363,24.3170072 10.0400848,24.3236178 C10.425986,24.3302284 10.7453525,24.3335336 10.9981844,24.3335336 C11.2510162,24.3335336 11.60365,24.3236178 12.0560859,24.303786 C12.5085218,24.2839543 12.8977498,24.257512 13.2237698,24.2244591 C13.5497898,24.1914063 13.9290375,24.1352164 14.361513,24.0558894 C14.7939884,23.9765625 15.1632559,23.8840144 15.4693156,23.7782452 C15.7753752,23.672476 16.091415,23.5336539 16.4174349,23.3617788 C16.7434548,23.1899038 17.0062669,22.9915865 17.205871,22.7668269 C17.4054751,22.5420673 17.5684851,22.2776442 17.694901,21.9735577 C17.8213168,21.6694711 17.8845248,21.3323317 17.8845248,20.9621394 L17.8845248,20.9621394 Z M16.4673359,11.5222356 C16.4673359,11.0859375 16.3841676,10.6992188 16.2178308,10.3620793 C16.0514941,10.0249399 15.8485633,9.7472957 15.6090384,9.52914665 C15.3695135,9.3109976 15.050147,9.12590144 14.6509389,8.97385819 C14.2517308,8.82181493 13.88579,8.7127404 13.5531165,8.64663461 C13.220443,8.58052881 12.8112546,8.5276442 12.3255514,8.48798078 C11.8398482,8.44831736 11.453947,8.43179091 11.1678478,8.43840144 C10.8817486,8.44501196 10.5224613,8.45162254 10.0899858,8.45823318 C9.65751038,8.46484382 9.39469836,8.46814911 9.30154977,8.46814904 L9.30154977,14.5564904 C9.36808446,14.5564904 9.59762913,14.5597957 9.99018379,14.5664063 C10.3827384,14.5730168 10.6921248,14.5730168 10.9183427,14.5664063 C11.1445607,14.5597957 11.4772342,14.5465745 11.9163631,14.5267428 C12.355492,14.5069111 12.7214328,14.4705529 13.0141855,14.4176683 C13.3069382,14.3647837 13.6495918,14.2920673 14.0421464,14.1995192 C14.4347011,14.1069711 14.7573943,13.9846755 15.0102262,13.8326322 C15.2630581,13.680589 15.5092365,13.5021034 15.7487613,13.2971755 C15.9882861,13.0922475 16.1679297,12.8377403 16.2876923,12.5336538 C16.4074548,12.2295674 16.4673359,11.8924279 16.4673359,11.5222356 L16.4673359,11.5222356 Z" id="形状"></path>
                </g>
            </g>
        </g>
    </g>
</svg>