<?xml version="1.0" encoding="utf-8"?>
<!-- Generator: Adobe Illustrator 22.1.0, SVG Export Plug-In . SVG Version: 6.00 Build 0)  -->
<svg version="1.1" id="图层_1" xmlns="http://www.w3.org/2000/svg" xmlns:xlink="http://www.w3.org/1999/xlink" x="0px" y="0px"
	 viewBox="0 0 20 20" style="enable-background:new 0 0 20 20;" xml:space="preserve">
<style type="text/css">
	.st0{fill:#14A2A5;}
</style>
<title>选中svg</title>
<desc>Created with Sketch.</desc>
<g id="控件">
	<g id="计算器" transform="translate(-128.000000, -210.000000)">
		<g id="计算器-收益" transform="translate(60.000000, 60.000000)">
			<g id="内容" transform="translate(24.000000, 82.000000)">
				<g id="杠杆" transform="translate(0.000000, 52.000000)">
					<g id="_x31_x">
						<path id="选中" class="st0" d="M64,16v18c0,1.1-0.9,2-2,2H44L64,16z M55.7,29.3c-0.3-0.3-0.6-0.4-1-0.3
							c-0.3,0.1-0.6,0.4-0.7,0.7c-0.1,0.3,0,0.7,0.3,1l2,2c0.4,0.4,1,0.4,1.4,0l4-4c0.3-0.3,0.4-0.6,0.3-1c-0.1-0.3-0.4-0.6-0.7-0.7
							c-0.3-0.1-0.7,0-1,0.3L57,30.6L55.7,29.3z"/>
					</g>
				</g>
			</g>
		</g>
	</g>
</g>
</svg>
