<?xml version="1.0" encoding="UTF-8"?>
<svg width="14px" height="12px" viewBox="0 0 14 12" version="1.1" xmlns="http://www.w3.org/2000/svg" xmlns:xlink="http://www.w3.org/1999/xlink">
    <!-- Generator: Sketch 51.3 (57544) - http://www.bohemiancoding.com/sketch -->
    <title>买卖 copy</title>
    <desc>Created with Sketch.</desc>
    <defs></defs>
    <g id="首页+交易" stroke="none" stroke-width="1" fill="none" fill-rule="evenodd">
        <g id="币币交易-白未登录" transform="translate(-1334.000000, -113.000000)">
            <g id="委托列表" transform="translate(1039.000000, 104.000000)">
                <g id="买卖-copy" transform="translate(295.000000, 9.000000)">
                    <g id="Combined-Shape">
                        <path d="M3,2 L14,2 L14,3 L3,3 L3,2 Z M3,0 L14,0 L14,1 L3,1 L3,0 Z M3,9 L14,9 L14,10 L3,10 L3,9 Z M3,11 L14,11 L14,12 L3,12 L3,11 Z" fill="#14a2a5" fill-rule="nonzero"></path>
                        <path d="M1,8 L1,12 L0,12 L0,8 L0,7 L14,7 L14,8 L1,8 Z" fill="#03BF7B" fill-rule="nonzero"></path>
                        <path d="M1,4 L14,4 L14,5 L0,5 L0,4 L0,0 L1,0 L1,4 Z" fill="#E96C42" fill-rule="nonzero"></path>
                    </g>
                </g>
            </g>
        </g>
    </g>
</svg>