<?xml version="1.0" encoding="UTF-8"?>
<svg width="14px" height="12px" viewBox="0 0 14 12" version="1.1" xmlns="http://www.w3.org/2000/svg" xmlns:xlink="http://www.w3.org/1999/xlink">
    <!-- Generator: Sketch 51.3 (57544) - http://www.bohemiancoding.com/sketch -->
    <title>卖</title>
    <desc>Created with Sketch.</desc>
    <defs></defs>
    <g id="首页+交易" stroke="none" stroke-width="1" fill="none" fill-rule="evenodd">
        <g id="币币交易-白未登录" transform="translate(-1118.000000, -113.000000)">
            <g id="委托列表" transform="translate(1039.000000, 104.000000)">
                <g id="卖" transform="translate(79.000000, 9.000000)">
                    <g id="Combined-Shape">
                        <path d="M3,0 L14,0 L14,1 L3,1 L3,0 Z M3,2 L14,2 L14,3 L3,3 L3,2 Z M3,4 L13,4 L13,5 L3,5 L3,4 Z M3,6 L14,6 L14,7 L3,7 L3,6 Z M3,8 L14,8 L14,9 L3,9 L3,8 Z" fill="#A8B0C0" fill-rule="nonzero"></path>
                        <path d="M1,11 L14,11 L14,12 L0,12 L0,11 L0,0 L1,0 L1,11 Z" fill="#E96C42" fill-rule="nonzero"></path>
                    </g>
                </g>
            </g>
        </g>
    </g>
</svg>