<?xml version="1.0" encoding="UTF-8"?>
<svg width="31px" height="24px" viewBox="0 0 31 24" version="1.1" xmlns="http://www.w3.org/2000/svg" xmlns:xlink="http://www.w3.org/1999/xlink">
    <!-- Generator: Sketch 51.1 (57501) - http://www.bohemiancoding.com/sketch -->
    <title>Twitter</title>
    <desc>Created with Sketch.</desc>
    <defs></defs>
    <g id="方案2" stroke="none" stroke-width="1" fill="none" fill-rule="evenodd">
        <g id="Index-已登录-White" transform="translate(-1117.000000, -2148.000000)" fill="#00AAEC">
            <g id="Footer" transform="translate(0.000000, 2065.000000)">
                <g id="Group-10" transform="translate(1009.000000, 83.000000)">
                    <g id="Twitter" transform="translate(108.000000, 0.000000)">
                        <g id="twiter-copy">
                            <g fill-rule="nonzero">
                                <path d="M30.7894438,2.84123532 C29.6863899,3.32281258 28.4990755,3.64869082 27.2548615,3.79502028 C28.5265556,3.04513318 29.5024133,1.85869553 29.9606541,0.444187171 C28.7708035,1.13829755 27.4553082,1.6419329 26.0511664,1.9127687 C24.9308964,0.735465632 23.3299181,0 21.5588077,0 C18.1617752,0 15.4059753,2.71343936 15.4059753,6.0583394 C15.4059753,6.53401296 15.4584889,6.99526505 15.564262,7.43795427 C10.4493487,7.18485892 5.91557592,4.77526909 2.87793323,1.10713425 C2.34832173,2.005025 2.04472753,3.04525067 2.04472753,4.15579202 C2.04472753,6.25562864 3.13157984,8.1108877 4.78325162,9.19840169 C3.77463263,9.16803143 2.8246737,8.89296611 1.99409369,8.44178849 L1.99409369,8.51636306 C1.99409369,11.4532618 4.11522504,13.901769 6.93275821,14.4570397 C6.4159469,14.5993746 5.87266993,14.6704246 5.31035679,14.6704246 C4.91399853,14.6704246 4.52709868,14.6339744 4.15305869,14.5629538 C4.93539185,16.9690778 7.20797717,18.7220355 9.90156633,18.7685307 C7.7952641,20.3944855 5.14088111,21.3626919 2.25800432,21.3626919 C1.76106463,21.3626919 1.27015206,21.3356406 0.789473684,21.2789534 C3.51337751,22.9962539 6.74878162,24 10.2239878,24 C21.5467236,24 27.7356592,14.7693776 27.7356592,6.76190744 C27.7356592,6.49862015 27.7303482,6.23639023 27.7193382,5.97809611 C28.9220188,5.12332291 29.9668304,4.05589911 30.7894737,2.84149967 L30.7894438,2.84123532 Z" id="Shape"></path>
                            </g>
                        </g>
                    </g>
                </g>
            </g>
        </g>
    </g>
</svg>