<?xml version="1.0" encoding="UTF-8"?>
<svg width="29px" height="24px" viewBox="0 0 29 24" version="1.1" xmlns="http://www.w3.org/2000/svg" xmlns:xlink="http://www.w3.org/1999/xlink">
    <!-- Generator: Sketch 51.3 (57544) - http://www.bohemiancoding.com/sketch -->
    <title>微信 (2)</title>
    <desc>Created with Sketch.</desc>
    <defs></defs>
    <g id="首页+交易" stroke="none" stroke-width="1" fill="none" fill-rule="evenodd">
        <g id="Index-新1-Copy-6" transform="translate(-1249.000000, -2260.000000)" fill="#42AE3C">
            <g id="Footer" transform="translate(0.000000, 2187.000000)">
                <g id="Group-10" transform="translate(1249.000000, 73.000000)">
                    <g id="微信-(2)">
                        <g id="Shape">
                            <path d="M19.6281993,7.26172376 C19.9606869,7.26172376 20.2890597,7.28651934 20.6157016,7.32354696 C19.728491,3.12908287 15.3109223,0.0131270718 10.2680574,0.0131270718 C4.63075788,0.0131270718 0.0124099099,3.91345856 0.0124099099,8.8661768 C0.0124099099,11.7250276 1.54875676,14.0726188 4.11662838,15.8934033 L3.09094932,19.0249392 L6.67529054,17.1999779 C7.95883446,17.4579116 8.98777928,17.7225746 10.2679921,17.7225746 C10.58967,17.7225746 10.9088986,17.7065967 11.2256126,17.6813702 C11.024964,16.9853702 10.9088986,16.2565193 10.9088986,15.5004199 C10.908964,10.952453 14.7561993,7.26175691 19.6281993,7.26175691 L19.6281993,7.26172376 Z M14.1135946,4.43943646 C14.885589,4.43943646 15.3971385,4.95490608 15.3971385,5.73838674 C15.3971385,6.51858564 14.885589,7.04114917 14.1135946,7.04114917 C13.344964,7.04114917 12.573884,6.51855249 12.573884,5.73838674 C12.5739167,4.95490608 13.3449966,4.43943646 14.1135946,4.43943646 Z M6.93658446,7.04121547 C6.16792117,7.04121547 5.39187725,6.51861878 5.39187725,5.73845304 C5.39187725,4.95497238 6.16795383,4.43950276 6.93658446,4.43950276 C7.70518243,4.43950276 8.21676464,4.95497238 8.21676464,5.73845304 C8.21676464,6.51861878 7.70518243,7.04121547 6.93658446,7.04121547 Z" fill-rule="nonzero"></path>
                            <path d="M28.9875248,15.3750166 C28.9875248,11.2133702 24.8850045,7.82091713 20.2766171,7.82091713 C15.3971385,7.82091713 11.5540507,11.2133702 11.5540507,15.3750166 C11.5540507,19.5441878 15.3971385,22.9290166 20.2766171,22.9290166 C21.298116,22.9290166 22.328759,22.6672376 23.3543727,22.4064199 L26.1668502,23.9700663 L25.395705,21.3687514 C27.4544764,19.8012597 28.9874921,17.7225746 28.9874921,15.3750166 L28.9875248,15.3750166 Z M17.4492151,14.0726519 C16.938482,14.0726519 16.4227523,13.5572155 16.4227523,13.0312044 C16.4227523,12.5123867 16.938482,11.9901547 17.4492151,11.9901547 C18.2245079,11.9901547 18.732759,12.5124199 18.732759,13.0312044 C18.732759,13.5571823 18.2245079,14.0726519 17.4492151,14.0726519 Z M23.0898784,14.0726519 C22.582411,14.0726519 22.0708941,13.5572155 22.0708941,13.0312044 C22.0708941,12.5123867 22.5824437,11.9901547 23.0898784,11.9901547 C23.858509,11.9901547 24.373357,12.5124199 24.373357,13.0312044 C24.3733896,13.5571823 23.858509,14.0726519 23.0898784,14.0726519 Z" fill-rule="nonzero"></path>
                        </g>
                    </g>
                </g>
            </g>
        </g>
    </g>
</svg>