<?xml version="1.0" encoding="UTF-8"?>
<svg width="29px" height="24px" viewBox="0 0 29 24" version="1.1" xmlns="http://www.w3.org/2000/svg" xmlns:xlink="http://www.w3.org/1999/xlink">
    <!-- Generator: Sketch 51.1 (57501) - http://www.bohemiancoding.com/sketch -->
    <title>微博</title>
    <desc>Created with Sketch.</desc>
    <defs></defs>
    <g id="方案2" stroke="none" stroke-width="1" fill="none" fill-rule="evenodd">
        <g id="Index-已登录-White" transform="translate(-1291.000000, -2148.000000)">
            <g id="Footer" transform="translate(0.000000, 2065.000000)">
                <g id="Group-10" transform="translate(1009.000000, 83.000000)">
                    <g id="微博" transform="translate(282.000000, 0.000000)">
                        <g>
                            <path d="M26.9623439,2.27979529 C24.2185114,-0.35622568 20.1027627,0.0203487489 20.1027627,0.0203487489 C19.6038841,0.0203487489 19.2297251,0.396923178 19.2297251,0.899022393 L19.2297251,1.40112164 C19.2297251,1.90322086 19.6038841,2.27979529 20.1027627,2.27979529 C20.1027627,2.27979529 23.9690721,1.90322086 25.7151473,4.28819222 C27.3365028,6.67316358 26.7129045,9.81128376 26.7129045,9.81128376 C26.5881849,10.313383 26.9623439,10.6899574 27.4612225,10.6899574 L27.8353815,10.6899574 C28.3342601,10.6899574 28.8331388,10.313383 28.8331388,9.81128376 C28.8331388,9.81128376 29.7061764,5.04134108 26.9623439,2.27979529 Z" id="Shape" fill="#DD8419" fill-rule="nonzero"></path>
                            <path d="M24.0937917,5.04134104 C22.5971558,3.66056815 20.6016413,4.1626674 20.6016413,4.1626674 C20.2274823,4.1626674 19.978043,4.53924183 19.978043,4.91581626 L19.978043,5.16686586 C19.978043,5.54344029 20.2274823,5.7944899 20.6016413,5.7944899 C20.6016413,5.7944899 22.2229969,5.54344029 23.0960345,6.54763876 C23.8443524,7.55183722 23.2207541,9.0581349 23.2207541,9.0581349 C23.0960345,9.43470933 23.3454738,9.68575894 23.5949131,9.68575894 L24.3432311,9.68575894 C24.71739,9.68575894 24.9668294,9.43470933 25.091549,9.0581349 C24.9668293,9.0581349 25.5904276,6.42211394 24.0937917,5.04134104 Z" id="Shape" fill="#DD8419" fill-rule="nonzero"></path>
                            <polygon id="Path-2" fill="#FFFFFF" fill-rule="nonzero" points="3.68555537 19.9390762 2.04817925 15.5101237 5.15087169 11.4076002 13.9767221 8.76263843 18.6894755 9.88644852 20.9113188 12.6507541 22.9252353 17.3480696 18.0585471 21.1232648 10.6966089 22.9116233 7.63437864 22.2218958"></polygon>
                            <path d="M16.6106123,15.3343753 C16.1117337,13.0749287 13.6173405,11.5686311 10.873508,12.0707303 C8.12967555,12.5728295 6.25888065,14.9578009 6.75775926,17.2172474 C7.25663788,19.476694 9.75103107,20.9829916 12.4948636,20.4808924 C15.1139764,19.9787932 16.9847712,17.7193467 16.6106123,15.3343753 Z M10.6240687,18.2214459 C9.75103107,18.5980203 8.87799343,18.4724955 8.62855416,17.7193466 C8.37911485,17.0917226 8.75327383,16.2130489 9.62631143,15.8364745 C10.499349,15.4599001 11.3723867,15.5854249 11.6218259,16.3385737 C11.8712652,16.9661978 11.4971063,17.8448714 10.6240687,18.2214459 Z M12.4948636,16.2130489 C11.9959849,16.2130489 11.621826,15.8364745 11.6218259,15.3343753 C11.6218259,14.8322761 11.9959849,14.4557016 12.4948636,14.4557016 C12.9937422,14.4557016 13.3679012,14.8322761 13.3679012,15.3343753 C13.3679012,15.8364745 12.9937422,16.2130489 12.4948636,16.2130489 Z" id="Shape" fill="#0C0414" fill-rule="nonzero"></path>
                            <path d="M20.9758003,11.1920566 C20.9758003,10.941007 23.3454738,8.68156047 20.9758003,7.17526279 C18.6061268,5.66896511 14.1162191,7.92841165 14.2409388,7.67736201 C16.1117336,4.28819222 13.3679012,3.28399375 11.9959849,3.28399375 C8.62855416,3.28399375 0.0228977322,10.6899574 0.0228977322,15.4599001 C0.0228977322,20.2298428 5.76000199,23.995587 12.9937422,23.995587 C20.1027627,23.995587 25.839867,20.2298428 25.839867,15.4599001 C25.839867,11.4431062 20.9758003,11.4431062 20.9758003,11.1920566 Z M13.2431815,21.3595661 C8.62855413,21.9871901 4.63752509,20.104318 4.26336611,17.0917226 C3.88920713,14.0791272 7.25663791,11.0665318 11.7465456,10.4389078 C16.361173,9.81128376 20.352202,11.6941559 20.726361,14.7067512 C21.2252396,17.7193466 17.8578088,20.731942 13.2431815,21.3595661 Z" id="Shape" fill="#C72525" fill-rule="nonzero"></path>
                        </g>
                    </g>
                </g>
            </g>
        </g>
    </g>
</svg>