<?xml version="1.0" encoding="UTF-8"?>
<svg width="36px" height="36px" viewBox="0 0 36 36" version="1.1" xmlns="http://www.w3.org/2000/svg" xmlns:xlink="http://www.w3.org/1999/xlink">
    <!-- Generator: Sketch 51.1 (57501) - http://www.bohemiancoding.com/sketch -->
    <title>safe copy</title>
    <desc>Created with Sketch.</desc>
    <defs></defs>
    <g id="Page-1" stroke="none" stroke-width="1" fill="none" fill-rule="evenodd">
        <g id="图标" transform="translate(-288.000000, -1171.000000)">
            <g id="Group-2" transform="translate(60.000000, 1003.000000)">
                <g id="safe" transform="translate(228.000000, 168.000000)">
                    <g>
                        <circle id="Oval-2" fill="#F0EFFF" cx="18" cy="18" r="18"></circle>
                        <g id="Safe" transform="translate(10.000000, 9.000000)" fill="#8583AC">
                            <path d="M8,18 L0,13.5647799 L0,2.30261258 L8,0 L16,2.30261258 L16,13.5647799 L8,18 Z M8,16.875 L14.8571429,12.9941825 L14.8571429,3.13978601 L8,1.125 L1.14285714,3.13978601 L1.14285714,12.9941825 L8,16.875 Z M8,15.75 L2.28571429,12.423585 L2.28571429,3.97695944 L8,2.25 L13.7142857,3.97695944 L13.7142857,12.423585 L8,15.75 Z M5.71428571,5.625 L5.71428571,6.75 L10.2857143,6.75 L10.2857143,5.625 L5.71428571,5.625 Z M5.71428571,7.875 L5.71428571,9 L10.2857143,9 L10.2857143,7.875 L5.71428571,7.875 Z M5.71428571,10.125 L5.71428571,11.25 L10.2857143,11.25 L10.2857143,10.125 L5.71428571,10.125 Z" id="Combined-Shape"></path>
                        </g>
                    </g>
                </g>
            </g>
        </g>
    </g>
</svg>