<?xml version="1.0" encoding="UTF-8"?>
<svg width="36px" height="36px" viewBox="0 0 36 36" version="1.1" xmlns="http://www.w3.org/2000/svg" xmlns:xlink="http://www.w3.org/1999/xlink">
    <!-- Generator: Sketch 51.1 (57501) - http://www.bohemiancoding.com/sketch -->
    <title>User Copy</title>
    <desc>Created with Sketch.</desc>
    <defs></defs>
    <g id="Page-1" stroke="none" stroke-width="1" fill="none" fill-rule="evenodd">
        <g id="图标" transform="translate(-60.000000, -1171.000000)">
            <g id="Group-2" transform="translate(60.000000, 1003.000000)">
                <g id="User" transform="translate(0.000000, 168.000000)">
                    <g>
                        <circle id="Oval-2" fill="#F0EFFF" cx="18" cy="18" r="18"></circle>
                        <path d="M14.5708715,17 C15.5260075,17.7063993 16.7133431,18.125 18,18.125 C19.2866569,18.125 20.4739925,17.7063993 21.4291285,17 L24,17 L26,19.0617428 L26,24.0474544 L24,26 L12,26 L10,24.0576011 L10,19.06559 L12,17 L14.5708715,17 Z M18,20.375 L16.8571429,23.9702641 L18,24.875 L19.1428571,23.9702641 L18,20.375 Z M18,17 C15.4752697,17 13.4285714,14.9852814 13.4285714,12.5 C13.4285714,10.0147186 15.4752697,8 18,8 C20.5247303,8 22.5714286,10.0147186 22.5714286,12.5 C22.5714286,14.9852814 20.5247303,17 18,17 Z" id="Combined-Shape" fill="#8583AC"></path>
                    </g>
                </g>
            </g>
        </g>
    </g>
</svg>