<?xml version="1.0" encoding="UTF-8"?>
<svg width="12px" height="14px" viewBox="0 0 12 14" version="1.1" xmlns="http://www.w3.org/2000/svg" xmlns:xlink="http://www.w3.org/1999/xlink">
    <!-- Generator: Sketch 51.3 (57544) - http://www.bohemiancoding.com/sketch -->
    <title>Combined Shape Copy 7</title>
    <desc>Created with Sketch.</desc>
    <defs></defs>
    <g id="Page-1" stroke="none" stroke-width="1" fill="none" fill-rule="evenodd">
        <g id="图标" transform="translate(-452.000000, -1267.000000)" fill="#14a2a5">
            <g id="Group-2" transform="translate(60.000000, 1003.000000)">
                <path d="M398.709042,269.375 L399.521542,268.5625 L398.902824,267.943782 L397.951412,268.895193 L397,267.943782 L396.381282,268.5625 L397.193782,269.375 L396.285714,269.375 L396.285714,270.25 L397.5625,270.25 L397.5625,271.125 L396.285714,271.125 L396.285714,272 L397.5625,272 L397.5625,274 L398.4375,274 L398.4375,272 L399.714286,272 L399.714286,271.125 L398.4375,271.125 L398.4375,270.25 L399.714286,270.25 L399.714286,269.375 L398.709042,269.375 Z M398,278 L392,274.550384 L392,265.790921 L398,264 L404,265.790921 L404,274.550384 L398,278 Z M398,277.125 L403.142857,274.106586 L403.142857,266.442056 L398,264.875 L392.857143,266.442056 L392.857143,274.106586 L398,277.125 Z M398,276.25 L393.714286,273.662788 L393.714286,267.093191 L398,265.75 L402.285714,267.093191 L402.285714,273.662788 L398,276.25 Z" id="Combined-Shape-Copy-7"></path>
            </g>
        </g>
    </g>
</svg>