<?xml version="1.0" encoding="UTF-8"?>
<svg width="14px" height="14px" viewBox="0 0 14 14" version="1.1" xmlns="http://www.w3.org/2000/svg" xmlns:xlink="http://www.w3.org/1999/xlink">
    <!-- Generator: Sketch 51.3 (57544) - http://www.bohemiancoding.com/sketch -->
    <title>Combined Shape Copy 8</title>
    <desc>Created with Sketch.</desc>
    <defs></defs>
    <g id="Page-1" stroke="none" stroke-width="1" fill="none" fill-rule="evenodd">
        <g id="图标" transform="translate(-375.000000, -1267.000000)" fill="#14a2a5">
            <g id="Group-2" transform="translate(60.000000, 1003.000000)">
                <path d="M322,278 C318.134007,278 315,274.865993 315,271 C315,267.134007 318.134007,264 322,264 C325.865993,264 329,267.134007 329,271 C329,274.865993 325.865993,278 322,278 Z M324.562941,268.635253 L323.954951,268.003072 L321.230816,270.837836 L321.838805,271.470017 L324.562941,268.635253 Z M326.386908,268.003072 L321.836657,272.732147 L320.044914,270.86911 L319.436925,271.501291 L321.836657,273.99651 L326.992749,268.635253 L326.386908,268.003072 Z M317.007116,271.501291 L319.406848,273.99651 L320.014837,273.364328 L317.615106,270.86911 L317.007116,271.501291 Z" id="Combined-Shape-Copy-8"></path>
            </g>
        </g>
    </g>
</svg>