<?xml version="1.0" encoding="UTF-8"?>
<svg width="14px" height="14px" viewBox="0 0 14 14" version="1.1" xmlns="http://www.w3.org/2000/svg" xmlns:xlink="http://www.w3.org/1999/xlink">
    <!-- Generator: Sketch 51.3 (57544) - http://www.bohemiancoding.com/sketch -->
    <title>Shape</title>
    <desc>Created with Sketch.</desc>
    <defs></defs>
    <g id="Page-1" stroke="none" stroke-width="1" fill="none" fill-rule="evenodd">
        <g id="图标" transform="translate(-299.000000, -1267.000000)" fill="#14a2a5" fill-rule="nonzero">
            <g id="Group-2" transform="translate(60.000000, 1003.000000)">
                <g id="谷歌" transform="translate(239.000000, 264.000000)">
                    <path d="M13.8896396,5.8018018 L6.96373874,5.8018018 L6.96373874,8.35743243 L11.1290541,8.35743243 C10.5583333,10.0932432 8.92657658,11.3481982 7,11.3481982 C4.59887387,11.3481982 2.6518018,9.40112613 2.6518018,7 C2.6518018,4.59887387 4.59887387,2.6518018 7,2.6518018 C8.11306306,2.6518018 9.1268018,3.07432432 9.89459459,3.76171171 L11.6650901,1.79256757 C10.4259009,0.681081081 8.79414414,0 7,0 C3.13265766,0 0,3.13423423 0,7 C0,10.8657658 3.13265766,14 7,14 C10.8657658,14 14,10.8657658 14,7 C14,6.59009009 13.9574324,6.19121622 13.8896396,5.8018018" id="Shape"></path>
                </g>
            </g>
        </g>
    </g>
</svg>