<?xml version="1.0" encoding="UTF-8"?>
<svg width="14px" height="14px" viewBox="0 0 14 14" version="1.1" xmlns="http://www.w3.org/2000/svg" xmlns:xlink="http://www.w3.org/1999/xlink">
    <!-- Generator: Sketch 51.3 (57544) - http://www.bohemiancoding.com/sketch -->
    <title>Combined Shape Copy 10</title>
    <desc>Created with Sketch.</desc>
    <defs></defs>
    <g id="Page-1" stroke="none" stroke-width="1" fill="none" fill-rule="evenodd">
        <g id="图标" transform="translate(-147.000000, -1267.000000)" fill="#14a2a5">
            <g id="Group-2" transform="translate(60.000000, 1003.000000)">
                <path d="M96,276 L94,278 L92,276 L89,276 L87,274 L87,266 L89,264 L99,264 L101,266 L101,274 L99,276 L96,276 Z M90,269 L90,271 L92,271 L92,269 L90,269 Z M93,269 L93,271 L95,271 L95,269 L93,269 Z M96,269 L96,271 L98,271 L98,269 L96,269 Z" id="Combined-Shape-Copy-10"></path>
            </g>
        </g>
    </g>
</svg>