<?xml version="1.0" encoding="UTF-8"?>
<svg width="12px" height="14px" viewBox="0 0 12 14" version="1.1" xmlns="http://www.w3.org/2000/svg" xmlns:xlink="http://www.w3.org/1999/xlink">
    <!-- Generator: Sketch 51.1 (57501) - http://www.bohemiancoding.com/sketch -->
    <title>Combined Shape</title>
    <desc>Created with Sketch.</desc>
    <defs></defs>
    <g id="Page-1" stroke="none" stroke-width="1" fill="none" fill-rule="evenodd">
        <g id="图标" transform="translate(-81.000000, -448.000000)" fill="#C5C3DD">
            <path d="M82,453 L82,450 L84,448 L90,448 L92,450 L92,453 L93,453 L93,462 L81,462 L81,453 L82,453 Z M85,450 L84,451 L84,453 L90,453 L90,451 L89,450 L85,450 Z M87,455 C86.4477153,455 86,455.447715 86,456 L86,459 C86,459.552285 86.4477153,460 87,460 C87.5522847,460 88,459.552285 88,459 L88,456 C88,455.447715 87.5522847,455 87,455 Z" id="Combined-Shape"></path>
        </g>
    </g>
</svg>