<?xml version="1.0" encoding="UTF-8"?>
<svg width="12px" height="14px" viewBox="0 0 12 14" version="1.1" xmlns="http://www.w3.org/2000/svg" xmlns:xlink="http://www.w3.org/1999/xlink">
    <!-- Generator: Sketch 51.3 (57544) - http://www.bohemiancoding.com/sketch -->
    <title>Combined Shape Copy 11</title>
    <desc>Created with Sketch.</desc>
    <defs></defs>
    <g id="Page-1" stroke="none" stroke-width="1" fill="none" fill-rule="evenodd">
        <g id="图标" transform="translate(-72.000000, -1267.000000)" fill="#14a2a5">
            <g id="Group-2" transform="translate(60.000000, 1003.000000)">
                <path d="M13,269 L13,266 L15,264 L21,264 L23,266 L23,269 L24,269 L24,278 L12,278 L12,269 L13,269 Z M16,266 L15,267 L15,269 L21,269 L21,267 L20,266 L16,266 Z M18,271 C17.4477153,271 17,271.447715 17,272 L17,275 C17,275.552285 17.4477153,276 18,276 C18.5522847,276 19,275.552285 19,275 L19,272 C19,271.447715 18.5522847,271 18,271 Z" id="Combined-Shape-Copy-11"></path>
            </g>
        </g>
    </g>
</svg>