<?xml version="1.0" encoding="UTF-8"?>
<svg width="18px" height="22px" viewBox="0 0 18 22" version="1.1" xmlns="http://www.w3.org/2000/svg" xmlns:xlink="http://www.w3.org/1999/xlink">
    <!-- Generator: Sketch 51.1 (57501) - http://www.bohemiancoding.com/sketch -->
    <title>iOS</title>
    <desc>Created with Sketch.</desc>
    <defs></defs>
    <g id="Page-1" stroke="none" stroke-width="1" fill="none" fill-rule="evenodd">
        <g id="图标" transform="translate(-90.000000, -1570.000000)" fill="#FFFFFF">
            <g id="Group" transform="translate(69.000000, 1561.000000)">
                <g id="iOS" transform="translate(21.000000, 9.000000)">
                    <g id="Shape">
                        <path d="M13.5005575,0 C12.3781587,0.0733245391 11.0312801,0.733245348 10.2081876,1.68646429 C9.45992177,2.49303418 8.86130908,3.81287579 9.01096224,5.13271741 C10.2830142,5.20604195 11.4802396,4.4727966 12.3033321,3.59290218 C13.1264245,2.63968323 13.6502107,1.31984162 13.5005575,0 Z M17.9901527,16.3513712 C17.9901527,16.4246957 17.5411932,17.8911864 16.493621,19.3576771 C15.5957019,20.6775187 14.6229563,21.9240358 13.1264245,21.9973603 C11.6298928,21.9973603 11.1809333,21.1174659 9.45992177,21.1174659 C7.73891027,21.1174659 7.21512417,21.9240358 5.86824558,21.9973603 C4.44654042,22.0706849 3.3241416,20.6041942 2.35139597,19.2843525 C0.480731284,16.6446693 -1.01580045,11.80525 0.929690814,8.57897053 C1.90243644,6.96583078 3.62344795,5.9392873 5.49411264,5.93928728 C6.9158178,5.93928728 8.26269637,6.89250622 9.08578883,6.89250624 C9.98370787,6.89250624 11.6298928,5.71931368 13.3509043,5.93928728 C14.0991702,5.93928728 16.119488,6.23258541 17.39154,8.06569878 C17.3167134,8.06569878 14.9970892,9.3855404 14.9970892,12.0252236 C15.0719158,15.2515031 17.9901527,16.2780466 17.9901527,16.3513712 Z" fill-rule="nonzero"></path>
                    </g>
                </g>
            </g>
        </g>
    </g>
</svg>