<?xml version="1.0" encoding="UTF-8"?>
<svg width="20px" height="22px" viewBox="0 0 20 22" version="1.1" xmlns="http://www.w3.org/2000/svg" xmlns:xlink="http://www.w3.org/1999/xlink">
    <!-- Generator: Sketch 51.1 (57501) - http://www.bohemiancoding.com/sketch -->
    <title>Google Play logo</title>
    <desc>Created with Sketch.</desc>
    <defs></defs>
    <g id="Page-1" stroke="none" stroke-width="1" fill="none" fill-rule="evenodd">
        <g id="图标" transform="translate(-239.000000, -1570.000000)" fill="#FFFFFF">
            <g id="Group-Copy" transform="translate(225.000000, 1561.000000)">
                <g id="Google-Play-logo" transform="translate(14.000000, 9.000000)">
                    <g id="Shape">
                        <path d="M0.011658412,20.4923333 L0.011658412,1.50766666 C0.0106567543,0.864866025 0.378247473,0.278546491 0.956884077,2.58895935e-14 L12.0438915,11 L0.956884077,22 C0.380301123,21.7191578 0.0136145585,21.1342804 0.011658412,20.4923333 Z M15.5541113,14.4843333 L3.44430247,21.4306667 L12.9997713,11.9493333 L15.5547772,14.4826667 L15.5541113,14.4843333 Z M19.3246926,9.66933333 C19.7390562,9.98666648 19.9839246,10.4777152 19.9882483,11 C19.9938963,11.5159386 19.7561046,12.0043103 19.3466669,12.3176667 L16.7693538,13.792 L13.9556511,11 L16.7693538,8.208 L19.3240267,9.671 L19.3246926,9.66933333 Z M3.44430247,0.569333338 L15.5541113,7.51566666 L12.9991054,10.049 L3.44430247,0.569333338 Z" fill-rule="nonzero"></path>
                    </g>
                </g>
            </g>
        </g>
    </g>
</svg>