<?xml version="1.0" encoding="UTF-8"?>
<svg width="80px" height="80px" viewBox="0 0 80 80" version="1.1" xmlns="http://www.w3.org/2000/svg" xmlns:xlink="http://www.w3.org/1999/xlink">
    <!-- Generator: Sketch 55.2 (78181) - https://sketchapp.com -->
    <title>安全</title>
    <desc>Created with Sketch.</desc>
    <defs>
        <linearGradient x1="100%" y1="0%" x2="0%" y2="0%" id="linearGradient-1">
            <stop stop-color="#BDE8FB" stop-opacity="0" offset="0%"></stop>
            <stop stop-color="#88CCF5" offset="100%"></stop>
        </linearGradient>
        <linearGradient x1="50%" y1="0%" x2="50%" y2="100%" id="linearGradient-2">
            <stop stop-color="#88CCF5" stop-opacity="0" offset="0%"></stop>
            <stop stop-color="#88CCF5" offset="100%"></stop>
        </linearGradient>
    </defs>
    <g id="1.首页" stroke="none" stroke-width="1" fill="none" fill-rule="evenodd">
        <g transform="translate(-1371.000000, -1413.000000)" id="安全">
            <g transform="translate(1371.000000, 1413.000000)">
                <path d="M15,3 L73,3 C75.209139,3 77,4.790861 77,7 L77,59 C77,61.209139 75.209139,63 73,63 L15,63 C12.790861,63 11,61.209139 11,59 L11,7 C11,4.790861 12.790861,3 15,3 Z M15,6 C14.4477153,6 14,6.44771525 14,7 L14,59 C14,59.5522847 14.4477153,60 15,60 L73,60 C73.5522847,60 74,59.5522847 74,59 L74,7 C74,6.44771525 73.5522847,6 73,6 L15,6 Z" id="形状结合" fill="#DCEDF7"></path>
                <rect id="矩形" fill="#F4F5F7" x="26" y="57" width="35" height="6"></rect>
                <circle id="椭圆形" fill="#D3E8F6" cx="69.5" cy="13.5" r="2.5"></circle>
                <circle id="椭圆形备份-4" fill="#D3E8F6" cx="60.5" cy="13.5" r="2.5"></circle>
                <circle id="椭圆形备份-5" fill="#D3E8F6" cx="51.5" cy="13.5" r="2.5"></circle>
                <path d="M6,24 L36,24 L36,27 L6,27 L6,44 L3,44 L3,24 L6,24 Z" id="形状结合" fill="url(#linearGradient-1)"></path>
                <path d="M77,71 L77,74 L71,74 L71,71 L74,71 L74,31 L77,31 L77,71 Z" id="形状结合" fill="url(#linearGradient-2)"></path>
                <rect id="矩形备份-10" fill="#EB863C" x="0" y="44" width="9" height="9"></rect>
                <rect id="矩形备份-11" fill="#EB863C" x="71" y="22" width="9" height="9"></rect>
                <rect id="矩形备份-13" fill="#EB863C" x="62" y="68" width="9" height="9"></rect>
                <path d="M21.0088077,47.4567379 C21.0088077,41.5725869 21,35.9903834 21,28.9429921 C27.2308467,26.8235098 34.0891399,24.2936309 43.5,22 C52.9108601,24.2936309 59.7691533,26.8235098 66,28.9429921 C66,35.9903834 65.9911923,41.5725869 65.9911923,47.4571879 C65.9911923,64.0363997 53.3873169,73.1564737 43.5004194,76 C33.6131026,73.1564737 21.0088077,64.0359497 21.0088077,47.4567379 Z M25.0072419,47.6853693 C25.0072419,61.8084016 35.3707732,69.5777369 43.5003449,72 C51.6295716,69.5777369 61.9927581,61.8087849 61.9927581,47.6857526 C61.9927581,42.6729444 62,37.917734 62,31.9144007 C56.8768594,30.1089158 51.2378183,27.9538337 43.5,26 C35.7621817,27.9538337 30.1231406,30.1089158 25,31.9144007 C25,37.917734 25.0072419,42.6729444 25.0072419,47.6853693 Z" id="形状结合" fill="#116CEB" fill-rule="nonzero"></path>
                <g id="盾牌备份" transform="translate(32.000000, 35.000000)" fill="#D3E8F6" fill-rule="nonzero">
                    <path d="M0.00430600604,13.19979 C0.00430600604,10.1487488 0,7.25427288 0,3.60007 C3.0461917,2.50107916 6.39913507,1.18929009 11,0 C15.6008649,1.18929009 18.9538083,2.50107916 22,3.60007 C22,7.25427288 21.995694,10.1487488 21.995694,13.2000233 C21.995694,21.7966517 15.8337994,26.525579 11.000205,28 C6.1664057,26.525579 0.00430600604,21.7964184 0.00430600604,13.19979 Z" id="路径"></path>
                </g>
            </g>
        </g>
    </g>
</svg>