<?xml version="1.0" encoding="UTF-8"?>
<svg width="36px" height="36px" viewBox="0 0 36 36" version="1.1" xmlns="http://www.w3.org/2000/svg" xmlns:xlink="http://www.w3.org/1999/xlink">
    <!-- Generator: Sketch 51.1 (57501) - http://www.bohemiancoding.com/sketch -->
    <title>！</title>
    <desc>Created with Sketch.</desc>
    <defs></defs>
    <g id="C2C" stroke="none" stroke-width="1" fill="none" fill-rule="evenodd">
        <g id="法币首页-认证提示" transform="translate(-702.000000, -399.000000)">
            <g id="Win" transform="translate(540.000000, 349.000000)">
                <g id="Group" transform="translate(162.000000, 50.000000)">
                    <g id="！">
                        <circle id="Oval" fill="#F5A623" cx="18" cy="18" r="18"></circle>
                        <path d="M16.26,9 L19.77,9 L19.12,22.234 L16.91,22.234 L16.26,9 Z M18.002,23.638 C18.574,23.638 19.068,23.82 19.458,24.184 C19.822,24.548 20.03,25.016 20.03,25.588 C20.03,26.16 19.822,26.654 19.458,27.018 C19.042,27.382 18.574,27.564 18.002,27.564 C17.43,27.564 16.962,27.356 16.598,26.992 C16.182,26.628 16,26.16 16,25.588 C16,25.016 16.182,24.548 16.598,24.184 C16.962,23.82 17.43,23.638 18.002,23.638 Z" id="!" fill="#FFFFFF"></path>
                    </g>
                </g>
            </g>
        </g>
    </g>
</svg>