<?xml version="1.0" encoding="UTF-8"?>
<svg width="12px" height="14px" viewBox="0 0 12 14" version="1.1" xmlns="http://www.w3.org/2000/svg" xmlns:xlink="http://www.w3.org/1999/xlink">
    <!-- Generator: Sketch 51.1 (57501) - http://www.bohemiancoding.com/sketch -->
    <title>Combined Shape</title>
    <desc>Created with Sketch.</desc>
    <defs></defs>
    <g id="Page-1" stroke="none" stroke-width="1" fill="none" fill-rule="evenodd">
        <g id="图标" transform="translate(-461.000000, -448.000000)" fill="#C5C3DD">
            <path d="M467.709042,453.375 L468.521542,452.5625 L467.902824,451.943782 L466.951412,452.895193 L466,451.943782 L465.381282,452.5625 L466.193782,453.375 L465.285714,453.375 L465.285714,454.25 L466.5625,454.25 L466.5625,455.125 L465.285714,455.125 L465.285714,456 L466.5625,456 L466.5625,458 L467.4375,458 L467.4375,456 L468.714286,456 L468.714286,455.125 L467.4375,455.125 L467.4375,454.25 L468.714286,454.25 L468.714286,453.375 L467.709042,453.375 Z M467,462 L461,458.550384 L461,449.790921 L467,448 L473,449.790921 L473,458.550384 L467,462 Z M467,461.125 L472.142857,458.106586 L472.142857,450.442056 L467,448.875 L461.857143,450.442056 L461.857143,458.106586 L467,461.125 Z M467,460.25 L462.714286,457.662788 L462.714286,451.093191 L467,449.75 L471.285714,451.093191 L471.285714,457.662788 L467,460.25 Z" id="Combined-Shape"></path>
        </g>
    </g>
</svg>