<?xml version="1.0" encoding="UTF-8"?>
<svg width="18px" height="18px" viewBox="0 0 18 18" version="1.1" xmlns="http://www.w3.org/2000/svg" xmlns:xlink="http://www.w3.org/1999/xlink">
    <!-- Generator: Sketch 51.1 (57501) - http://www.bohemiancoding.com/sketch -->
    <title>Paypal</title>
    <desc>Created with Sketch.</desc>
    <defs></defs>
    <g id="个人中心-修改" stroke="none" stroke-width="1" fill="none" fill-rule="evenodd">
        <g id="收款方式" transform="translate(-351.000000, -363.000000)">
            <g id="Group" transform="translate(351.000000, 177.000000)">
                <g id="Paypal" transform="translate(0.000000, 186.000000)">
                    <circle id="Mask" fill="#CDEEFF" cx="9" cy="9" r="9"></circle>
                    <g id="paypal" stroke-width="1" transform="translate(3.000000, 3.000000)">
                        <path d="M5.42759764,2.8564656 L8.94669126,2.8564656 C10.8364667,2.8564656 11.5477604,3.76795381 11.4379713,5.11015803 C11.2569359,7.32194296 9.85420395,8.54540926 7.99362773,8.54540926 L7.05457985,8.54540926 C6.79996239,8.54540926 6.6282708,8.70605469 6.5581926,9.14259119 L6.15524295,11.6779952 C6.12954761,11.8421329 6.03844595,11.9399171 5.90179346,11.951558 L3.69433016,11.951558 C3.4864315,11.951558 3.41284939,11.8002254 3.46657601,11.4719499 L4.81441339,3.3372378 C4.86814001,3.01129055 5.05618318,2.8564656 5.42759764,2.8564656 Z" id="Shape" fill="#009DE2" fill-rule="nonzero"></path>
                        <path d="M3.22714216,0.05681152 L6.74973968,0.05681152 C7.74251418,0.05681152 8.91865998,0.0870780506 9.70587176,0.749449432 C10.2314583,1.19180642 10.5070992,1.8960853 10.4440288,2.65274857 C10.2267864,5.21725499 8.61849168,6.65375109 6.46125109,6.65375109 L4.7244797,6.65375109 C4.42898329,6.65375109 4.23276433,6.84000667 4.14983846,7.346389 L3.66513091,10.2868989 C3.63359572,10.4778108 3.54716594,10.5907283 3.38832202,10.6035333 L1.21823375,10.6035333 C0.977631934,10.6035333 0.892370124,10.4277546 0.955440504,10.0482589 L2.5170164,0.614414141 C2.57891881,0.237246606 2.79616123,0.05681152 3.22714216,0.05681152 Z" id="Shape" fill="#113984" fill-rule="nonzero"></path>
                        <path d="M4.20006117,7.04954419 L4.81558136,3.3372378 C4.86930798,3.01129055 5.05618318,2.8564656 5.42876561,2.8564656 L8.94669126,2.8564656 C9.52950829,2.8564656 10.0002002,2.9437729 10.3692787,3.10325423 C10.0153838,5.384885 8.46782355,6.65375109 6.44022763,6.65375109 L4.70228827,6.65375109 C4.47336615,6.652587 4.30284253,6.76434034 4.20006117,7.04954419 Z" id="Shape" fill="#172C70" fill-rule="nonzero"></path>
                    </g>
                </g>
            </g>
        </g>
    </g>
</svg>