<?xml version="1.0" encoding="UTF-8"?>
<svg width="14px" height="14px" viewBox="0 0 14 14" version="1.1" xmlns="http://www.w3.org/2000/svg" xmlns:xlink="http://www.w3.org/1999/xlink">
    <!-- Generator: Sketch 51.3 (57544) - http://www.bohemiancoding.com/sketch -->
    <title>Shape Copy</title>
    <desc>Created with Sketch.</desc>
    <defs></defs>
    <g id="C2C" stroke="none" stroke-width="1" fill="none" fill-rule="evenodd">
        <g id="创建挂单" transform="translate(-1186.000000, -496.000000)" fill="#14a2a5" fill-rule="nonzero">
            <g id="Group-4" transform="translate(174.000000, 286.000000)">
                <g id="Group-Copy-2" transform="translate(666.000000, 0.000000)">
                    <g id="Group-11-Copy-2" transform="translate(0.000000, 206.000000)">
                        <path d="M347.167456,10.4745958 C347.433865,7.49915361 349.941282,5.16661802 352.995176,5.16661802 C353.982943,5.16661802 354.911755,5.41236314 355.726741,5.84361371 C355.727052,5.84376937 355.383943,6.44293604 354.697414,7.64111373 C354.628885,7.7606591 354.70185,7.91137499 354.838206,7.93250557 L359.272826,8.61673935 C359.422608,8.63985457 359.545772,8.49065635 359.488451,8.35079761 C358.441962,5.79890094 355.931743,4 352.995176,4 C349.331998,4 346.324101,6.79670783 346.002356,10.3652071 C345.971652,10.7059814 346.245066,10.9999416 346.588175,10.9999416 C346.888439,10.9999416 347.140839,10.7728755 347.167456,10.4745958 Z M358.832469,11.5251707 C358.56606,14.5007296 356.058643,16.8332652 353.004749,16.8332652 C352.016982,16.8332652 351.088171,16.5875201 350.273184,16.1562695 C350.272951,16.1561139 350.61606,15.5569472 351.302512,14.3587695 C351.370924,14.2392242 351.298076,14.0885083 351.161719,14.0674944 L346.7271,13.3831439 C346.577318,13.3600287 346.454153,13.5092269 346.511474,13.6490856 C347.557963,16.2009823 350.068299,18 353.004749,18 C356.667811,18 359.675824,15.2032922 359.997569,11.6347929 C360.028273,11.2939018 359.75486,10.9999416 359.41175,10.9999416 C359.111486,10.9999416 358.859087,11.2271245 358.832469,11.5251707 Z" id="Shape-Copy"></path>
                    </g>
                </g>
            </g>
        </g>
    </g>
</svg>