<?xml version="1.0" encoding="UTF-8"?>
<svg width="14px" height="14px" viewBox="0 0 14 14" version="1.1" xmlns="http://www.w3.org/2000/svg" xmlns:xlink="http://www.w3.org/1999/xlink">
    <!-- Generator: Sketch 51.3 (57544) - http://www.bohemiancoding.com/sketch -->
    <title>月亮</title>
    <desc>Created with Sketch.</desc>
    <defs></defs>
    <g id="首页+交易" stroke="none" stroke-width="1" fill="none" fill-rule="evenodd">
        <g id="币币交易-标准dark" transform="translate(-1267.000000, -70.000000)" fill="#14a2a5">
            <g id="Group-2" transform="translate(120.000000, 60.000000)">
                <g id="Group-15" transform="translate(1118.000000, 5.000000)">
                    <g id="月亮" transform="translate(29.000000, 5.000000)">
                        <g id="月">
                            <path d="M4.41154862,8 C4.68769099,8 4.91154862,7.77614237 4.91154862,7.5 C4.91154862,7.22385763 4.68769099,7 4.41154862,7 L2.5,7 C2.22385763,7 2,6.77614237 2,6.5 C2,6.22385763 2.22385763,6 2.5,6 L8.5,6 C8.77614237,6 9,6.22385763 9,6.5 C9,6.77614237 8.77614237,7 8.5,7 L6.41154862,7 C6.13540624,7 5.91154862,7.22385763 5.91154862,7.5 C5.91154862,7.77614237 6.13540624,8 6.41154862,8 L7.5,8 C7.77614237,8 8,8.22385763 8,8.5 C8,8.77614237 7.77614237,9 7.5,9 L0.5,9 C0.223857625,9 3.27418431e-11,8.77614237 3.27418093e-11,8.5 C3.27417754e-11,8.22385763 0.223857625,8 0.5,8 L4.41154888,8 Z M3.1896652e-11,9.21363279 C0.945691654,10.8776212 2.73429823,12 4.78505044,12 C7.82261656,12 10.2850504,9.53756612 10.2850504,6.5 C10.2850504,3.46243388 7.82261656,1 4.78505044,1 C3.77553949,1 2.82955261,1.27197887 2.01636809,1.74665831 C3.2498794,0.659512403 4.86930698,0 6.64277193,0 C10.5087652,0 13.6427719,3.13400675 13.6427719,7 C13.6427719,10.8659932 10.5087652,14 6.64277193,14 C3.55038183,14 0.926340554,11.9947603 3.18998994e-11,9.21363279 Z" id="Combined-Shape" fill-rule="nonzero"></path>
                        </g>
                    </g>
                </g>
            </g>
        </g>
    </g>
</svg>