<?xml version="1.0" encoding="utf-8"?>
<!-- Generator: Adobe Illustrator 22.0.1, SVG Export Plug-In . SVG Version: 6.00 Build 0)  -->
<svg version="1.1" id="图层_1" xmlns="http://www.w3.org/2000/svg" xmlns:xlink="http://www.w3.org/1999/xlink" x="0px" y="0px"
	 viewBox="0 0 16 16" style="enable-background:new 0 0 16 16;" xml:space="preserve">
<style type="text/css">
	.st0{fill:#14A2A5;}
</style>
<title>Shape Copy 8</title>
<desc>Created with Sketch.</desc>
<g id="首页_x2B_交易">
	<g id="Index-新1-Copy-6" transform="translate(-1790.000000, -40.000000)">
		<g id="首页头部导航">
			<g id="Group-18" transform="translate(30.000000, 3.000000)">
				<g>
					<g id="User" transform="translate(1646.000000, 10.000000)">
						<g id="Group-14">
							<path id="Shape-Copy-8" class="st0" d="M130,35c0-4.4-3.6-8-8-8c-4.4,0-8,3.6-8,8c0,4.1,3.1,7.4,7,7.9c0.2,0,0.5,0.1,0.8,0.1
								c0.1,0,0.2,0,0.3,0C126.5,42.9,130,39.4,130,35z M115.1,35c0-0.5,0.1-1,0.1-1.4c0.3,0.3,1,0.3,1.2-0.2
								c0.3,0.2,0.7,0.2,0.7,0.6c0,1.2,0,2.5,1.1,2.5c0,0,0.6,0.2,0.9,0.9c0.1,0.2,0.5,0,0.9,0c0.2,0,0,0.3,0,1.1
								c0,0.7,1.6,1.9,1.6,1.9c0,0.5,0,0.9,0.1,1.2c-0.4,0-0.7,0-0.9,0.1C117.6,41.2,115.1,38.4,115.1,35L115.1,35z M123.7,41.6
								c0-0.2-0.2-0.3-0.5-0.2c0.2-1,0.3-1.5,0.8-1.9c0.7-0.6,0.1-1.3-0.4-1.2c-0.4,0.1-0.2-0.5-0.5-0.5c-0.4,0-0.8-0.8-1.4-1
								c-0.3-0.1-0.6-0.5-1-0.5c-0.4,0-0.9,0.3-0.9,0.1c0-0.8-0.1-1.4-0.1-1.7c0-0.2-0.1-0.1,0.4-0.1c0.3,0,0.1-0.6,0.4-0.6
								c0.3,0,0.9,0.3,1.1,0.1c0.2-0.1,1.1,2.6,1.1,0.4c0-0.3-0.1-0.7,0-0.9c0.5-0.9,1-1.7,1-1.8c0-0.1-0.5-0.1-0.9,0
								c-0.1,0,0,0.3-0.2,0.3c-0.7,0.2-1.4-0.2-1.2-0.5c0.2-0.4,1.1-0.2,1.1-0.9c0-0.4,0.1-0.9,0.1-1.2c1,0.2,0.9-1.3-0.6-1.4
								c3,0,5.5,1.9,6.4,4.6c0,0-0.1-0.1-0.2-0.1c-0.4-1.1-1.5-0.3-1.2,0.7c-2,1.5-1.5,2.6-0.8,3.2c0.3,0.3,0.7,0.8,0.9,1.1
								c-0.2,0.7,0.8,0.4,1.4-0.7C127.9,39.2,126,41,123.7,41.6z"/>
						</g>
					</g>
				</g>
			</g>
		</g>
	</g>
</g>
</svg>
