<?xml version="1.0" encoding="utf-8"?>
<!-- Generator: Adobe Illustrator 22.1.0, SVG Export Plug-In . SVG Version: 6.00 Build 0)  -->
<svg version="1.1" id="图层_1" xmlns="http://www.w3.org/2000/svg" xmlns:xlink="http://www.w3.org/1999/xlink" x="0px" y="0px"
	 viewBox="0 0 36 36" style="enable-background:new 0 0 36 36;" xml:space="preserve">
<style type="text/css">
	.st0{fill:#14A2A5;}
	.st1{fill:#FFFFFF;}
	.st2{fill:#17A2A5;}
</style>
<title>User</title>
<desc>Created with Sketch.</desc>
<g id="理财-新版">
	<g id="余币宝详情页-立即购买-copy-3" transform="translate(-399.000000, -1215.000000)">
		<g id="常见问题" transform="translate(360.000000, 1195.000000)">
			<g id="User" transform="translate(39.000000, 20.000000)">
				<circle id="Oval-2" class="st0" cx="18" cy="18" r="18"/>
				<g id="帮助" transform="translate(9.000000, 9.000000)">
					<path id="Shape" class="st1" d="M17.3,5.5c-0.5-1.1-1.1-2-1.9-2.9s-1.8-1.5-2.9-1.9C11.4,0.2,10.2,0,9,0S6.6,0.2,5.5,0.7
						c-1.1,0.5-2,1.1-2.9,1.9S1.2,4.4,0.7,5.5C0.2,6.6,0,7.8,0,9s0.2,2.4,0.7,3.5c0.5,1.1,1.1,2,1.9,2.9c0.8,0.8,1.8,1.5,2.9,1.9
						C6.6,17.7,7.8,18,9,18s2.4-0.2,3.5-0.7c1.1-0.5,2-1.1,2.9-1.9c0.8-0.8,1.5-1.8,1.9-2.9C17.7,11.4,18,10.2,18,9
						S17.7,6.6,17.3,5.5z"/>
					<path id="Shape_1_" class="st2" d="M7.2,7.2H6c0-0.6,0.1-1,0.2-1.3C6.3,5.4,6.6,5,7.1,4.7C7.3,4.5,7.7,4.3,8,4.2
						C8.4,4.1,8.7,4,9.1,4c0.8,0,1.5,0.2,2,0.7c0.6,0.5,0.9,1.2,0.9,2c0,0.4-0.1,0.8-0.3,1.1c-0.2,0.3-0.5,0.6-1,1.1
						C10.3,9.3,10,9.6,9.9,9.8c-0.3,0.4-0.4,1-0.4,1.7H8.3c0-0.7,0.1-1.3,0.3-1.7c0.1-0.3,0.5-0.7,1-1.3c0.4-0.4,0.6-0.7,0.7-0.8
						c0.2-0.3,0.4-0.7,0.4-1.1c0-0.4-0.1-0.7-0.3-1C10.1,5.3,9.6,5.1,9,5.1c-0.7,0-1.3,0.3-1.6,0.9C7.3,6.3,7.2,6.7,7.2,7.2z
						 M9.6,12.6V14H8.3v-1.4H9.6z"/>
				</g>
			</g>
		</g>
	</g>
</g>
</svg>
