<?xml version="1.0" encoding="UTF-8"?>
<svg width="14px" height="14px" viewBox="0 0 14 14" version="1.1" xmlns="http://www.w3.org/2000/svg" xmlns:xlink="http://www.w3.org/1999/xlink">
    <!-- Generator: Sketch 51.3 (57544) - http://www.bohemiancoding.com/sketch -->
    <title>日亮</title>
    <desc>Created with Sketch.</desc>
    <defs></defs>
    <g id="首页+交易" stroke="none" stroke-width="1" fill="none" fill-rule="evenodd">
        <g id="币币交易-标准dark" transform="translate(-1243.000000, -70.000000)" fill="#646B8C">
            <g id="Group-2" transform="translate(120.000000, 60.000000)">
                <g id="Group-15" transform="translate(1118.000000, 5.000000)">
                    <g id="日亮" transform="translate(5.000000, 5.000000)">
                        <g id="日">
                            <path d="M7,11 C4.790861,11 3,9.209139 3,7 C3,4.790861 4.790861,3 7,3 C9.209139,3 11,4.790861 11,7 C11,9.209139 9.209139,11 7,11 Z M6.5,0 L7.5,0 C7.77614237,-5.07265313e-17 8,0.223857625 8,0.5 L8,1.5 C8,1.77614237 7.77614237,2 7.5,2 L6.5,2 C6.22385763,2 6,1.77614237 6,1.5 L6,0.5 C6,0.223857625 6.22385763,5.07265313e-17 6.5,0 Z M11.5961941,1.69669914 L12.3033009,2.40380592 C12.498563,2.59906807 12.498563,2.91565056 12.3033009,3.1109127 L11.5961941,3.81801948 C11.4009319,4.01328163 11.0843494,4.01328163 10.8890873,3.81801948 L10.1819805,3.1109127 C9.98671837,2.91565056 9.98671837,2.59906807 10.1819805,2.40380592 L10.8890873,1.69669914 C11.0843494,1.501437 11.4009319,1.501437 11.5961941,1.69669914 Z M14,6.5 L14,7.5 C14,7.77614237 13.7761424,8 13.5,8 L12.5,8 C12.2238576,8 12,7.77614237 12,7.5 L12,6.5 C12,6.22385763 12.2238576,6 12.5,6 L13.5,6 C13.7761424,6 14,6.22385763 14,6.5 Z M12.3033009,11.5961941 L11.5961941,12.3033009 C11.4009319,12.498563 11.0843494,12.498563 10.8890873,12.3033009 L10.1819805,11.5961941 C9.98671837,11.4009319 9.98671837,11.0843494 10.1819805,10.8890873 L10.8890873,10.1819805 C11.0843494,9.98671837 11.4009319,9.98671837 11.5961941,10.1819805 L12.3033009,10.8890873 C12.498563,11.0843494 12.498563,11.4009319 12.3033009,11.5961941 Z M7.5,14 L6.5,14 C6.22385763,14 6,13.7761424 6,13.5 L6,12.5 C6,12.2238576 6.22385763,12 6.5,12 L7.5,12 C7.77614237,12 8,12.2238576 8,12.5 L8,13.5 C8,13.7761424 7.77614237,14 7.5,14 Z M2.40380592,12.3033009 L1.69669914,11.5961941 C1.501437,11.4009319 1.501437,11.0843494 1.69669914,10.8890873 L2.40380592,10.1819805 C2.59906807,9.98671837 2.91565056,9.98671837 3.1109127,10.1819805 L3.81801948,10.8890873 C4.01328163,11.0843494 4.01328163,11.4009319 3.81801948,11.5961941 L3.1109127,12.3033009 C2.91565056,12.498563 2.59906807,12.498563 2.40380592,12.3033009 Z M1.30196095e-16,7.5 L-5.35009249e-17,6.5 C-1.54953988e-16,6.22385763 0.223857625,6 0.5,6 L1.5,6 C1.77614237,6 2,6.22385763 2,6.5 L2,7.5 C2,7.77614237 1.77614237,8 1.5,8 L0.5,8 C0.223857625,8 2.31649158e-16,7.77614237 1.30196095e-16,7.5 Z M1.69669914,2.40380592 L2.40380592,1.69669914 C2.59906807,1.501437 2.91565056,1.501437 3.1109127,1.69669914 L3.81801948,2.40380592 C4.01328163,2.59906807 4.01328163,2.91565056 3.81801948,3.1109127 L3.1109127,3.81801948 C2.91565056,4.01328163 2.59906807,4.01328163 2.40380592,3.81801948 L1.69669914,3.1109127 C1.501437,2.91565056 1.501437,2.59906807 1.69669914,2.40380592 Z" id="Combined-Shape" fill-rule="nonzero"></path>
                        </g>
                    </g>
                </g>
            </g>
        </g>
    </g>
</svg>