<?xml version="1.0" encoding="UTF-8"?>
<svg width="40px" height="40px" viewBox="0 0 40 40" version="1.1" xmlns="http://www.w3.org/2000/svg" xmlns:xlink="http://www.w3.org/1999/xlink">
    <!-- Generator: Sketch 52.1 (67048) - http://www.bohemiancoding.com/sketch -->
    <title>合作</title>
    <desc>Created with Sketch.</desc>
    <g id="理财-新版" stroke="none" stroke-width="1" fill="none" fill-rule="evenodd">
        <g id="理财-新-copy-2" transform="translate(-360.000000, -2466.000000)">
            <g id="USDT" transform="translate(360.000000, 2466.000000)">
                <g id="合作">
                    <circle id="Oval" fill="#E96C42" cx="20" cy="20" r="20"></circle>
                    <g id="校企合作" transform="translate(6.250000, 10.000000)">
                        <path d="M18.0198669,0.871887207 C21.0511285,4.06643103 28.1351617,8.39207759 26.3900757,9.18212891 C26.8816316,9.70016305 22.0663393,14.0602892 21.5747833,14.5783234 L14.5314026,21.25 C14.0398466,21.7680341 13.3025127,21.9407122 12.8109568,21.422678 L1.03258967,10.5450585 C0.541033723,10.0270244 0.704885705,9.16363415 1.19644165,8.6456 L8.9730835,1.25 C9.46463944,0.731965854 10.2019733,0.731965854 10.6935293,1.25 L13.5955598,4.19616699 L18.0198669,0.871887207 Z" id="Path" fill="#FFFFFF"></path>
                        <path d="M27.01166,8.10606059 L19.0960724,0.530303027 C18.7002931,0.151515154 18.2253578,0 17.9087343,0 C17.433799,0 16.9588638,0.227272718 16.5630844,0.606060591 L13.7926288,3.25757575 L10.9430173,0.681818182 C10.2306144,-0.0757575639 8.88496448,-0.0757575639 8.17256163,0.681818182 L0.652753472,7.95454544 C-0.0596494067,8.63636362 -0.297117024,9.92424242 0.494441718,10.6818182 L12.367823,22.0454545 C12.6844465,22.3484848 13.1593817,22.5 13.634317,22.5 C14.1884082,22.5 14.7424993,22.2727273 15.1382787,21.8181818 L26.8533482,10.530303 C27.644907,9.84848485 27.7240629,8.86363636 27.01166,8.10606059 Z M1.84009158,9.01515152 L9.35989977,1.74242424 C9.51821152,1.59090908 9.75567914,1.59090908 9.91399089,1.74242424 L12.6052907,4.46969696 L11.4971084,5.53030302 C10.9430173,6.06060605 11.1804849,6.96969695 11.8928878,7.65151515 C12.2886671,8.03030303 13.7134729,9.01515152 16.0089933,7.72727272 L21.4707487,13.030303 C21.6290605,13.1818182 21.6290605,13.4090909 21.4707487,13.560606 L20.3625664,14.6969697 L17.433799,11.8939394 L16.3256168,12.9545455 L19.2543842,15.7575757 L18.067046,16.969697 L15.1382787,14.1666667 L14.0300964,15.2272727 L16.9588638,18.030303 L15.6923698,19.2424242 L12.7636024,16.4393939 L11.6554201,17.5 L14.5841875,20.3030303 L14.0300964,20.8333333 C13.9509405,20.9090909 13.8717847,20.9090909 13.7926288,20.9090909 C13.7134729,20.9090909 13.634317,20.9090909 13.5551611,20.8333333 L13.4760053,20.9090909 L1.68177983,9.6969697 C1.52346808,9.54545455 1.60262397,9.24242424 1.84009158,9.01515152 Z M25.6660101,9.54545455 L22.8955545,12.2727273 C22.8163986,12.1969697 22.7372427,12.0454546 22.6580868,11.969697 L17.3546432,6.81818182 C17.5921108,6.5909091 17.8295784,6.43939395 18.067046,6.13636364 L16.9588638,5.07575758 C15.534058,6.43939395 14.267564,7.04545456 13.3968494,6.81818182 C13.0802259,6.74242425 12.9219141,6.51515151 12.8427583,6.36363635 L17.6712667,1.74242424 C17.8295784,1.59090908 17.9087343,1.59090908 17.9087343,1.51515152 L17.9878902,1.59090908 L25.9034777,9.16666667 C25.9034777,9.24242424 25.9826336,9.31818183 25.6660101,9.54545455 Z" id="Shape" fill="#E96C42" fill-rule="nonzero"></path>
                    </g>
                </g>
            </g>
        </g>
    </g>
</svg>