<?xml version="1.0" encoding="UTF-8"?>
<svg width="80px" height="80px" viewBox="0 0 80 80" version="1.1" xmlns="http://www.w3.org/2000/svg" xmlns:xlink="http://www.w3.org/1999/xlink">
    <!-- Generator: Sketch 55.2 (78181) - https://sketchapp.com -->
    <title>方便快捷</title>
    <desc>Created with Sketch.</desc>
    <defs>
        <linearGradient x1="50%" y1="0%" x2="50%" y2="100%" id="linearGradient-1">
            <stop stop-color="#88CCF5" stop-opacity="0" offset="0%"></stop>
            <stop stop-color="#88CCF5" offset="100%"></stop>
        </linearGradient>
    </defs>
    <g id="1.首页" stroke="none" stroke-width="1" fill="none" fill-rule="evenodd">
        <g transform="translate(-1071.000000, -1413.000000)" id="方便快捷">
            <g transform="translate(1071.000000, 1413.000000)">
                <path d="M36,73.0293074 L36,75.8036224 C17.4467392,73.9709277 3,59.5357796 3,42 L6,42 C6,58.0116357 19.1073195,71.2101129 36,73.0293074 Z M45,72.9077815 C61.4071542,70.6857701 74,57.6942549 74,42 L77,42 C77,59.2194445 63.0697809,73.4491155 45,75.6921927 L45,72.9077815 Z" id="形状结合" fill="url(#linearGradient-1)"></path>
                <path d="M65.9715511,27.0949256 C66.0541457,27.3597298 65.9524909,27.6374512 65.7237674,27.7859999 L22.9842448,56.8950809 C22.749168,57.0565468 22.425143,57.0307122 22.2218333,56.8240358 C22.0185235,56.6238181 21.9867563,56.2944275 22.1392387,56.0489993 L34.1789882,37.0928971 L22.6220993,37.2801975 C22.3870224,37.2801975 22.1773592,37.1510248 22.0693509,36.9443484 C21.9613427,36.7312133 21.9804029,36.4793265 22.1201784,36.292026 L40.5895989,11.2454282 C40.7103141,11.0904209 40.8882102,11 41.078813,11 L63.9956345,11 C64.2497716,11 64.4784951,11.1614659 64.5674431,11.4068942 C64.6500377,11.6523225 64.58015,11.9235853 64.3895471,12.0915098 L47.2734071,26.9334597 L65.3806822,26.6621969 C65.6538796,26.6557382 65.8889565,26.8301215 65.9715511,27.0949256 Z M42.2453613,14.1333008 L27.4611816,34 L40.0078125,34 L30.9309082,47.9709473 L57.3925781,29.8266602 L39.4301758,29.8266602 L57.3925781,14.1333008 L42.2453613,14.1333008 Z" id="形状结合" fill="#116CEB" fill-rule="nonzero"></path>
                <path d="M38,70 L43,70 C44.1045695,70 45,70.8954305 45,72 L45,77 C45,78.1045695 44.1045695,79 43,79 L38,79 C36.8954305,79 36,78.1045695 36,77 L36,72 C36,70.8954305 36.8954305,70 38,70 Z M40,73 C39.4477153,73 39,73.4477153 39,74 L39,75 C39,75.5522847 39.4477153,76 40,76 L41,76 C41.5522847,76 42,75.5522847 42,75 L42,74 C42,73.4477153 41.5522847,73 41,73 L40,73 Z" id="形状结合" fill="#88CCF5"></path>
                <rect id="矩形备份-10" fill="#EB863C" x="0" y="33" width="9" height="9"></rect>
                <rect id="矩形备份-11" fill="#EB863C" x="71" y="33" width="9" height="9"></rect>
                <rect id="矩形" fill="#88CCF5" x="45" y="73" width="27" height="3"></rect>
                <rect id="矩形备份-9" fill="#88CCF5" x="8" y="73" width="28" height="3"></rect>
                <path d="M75.5,79 C73.0147186,79 71,76.9852814 71,74.5 C71,72.0147186 73.0147186,70 75.5,70 C77.9852814,70 80,72.0147186 80,74.5 C80,76.9852814 77.9852814,79 75.5,79 Z M75.5,76 C76.3284271,76 77,75.3284271 77,74.5 C77,73.6715729 76.3284271,73 75.5,73 C74.6715729,73 74,73.6715729 74,74.5 C74,75.3284271 74.6715729,76 75.5,76 Z" id="形状结合" fill="#88CCF5"></path>
                <path d="M4.5,79 C2.01471863,79 0,76.9852814 0,74.5 C0,72.0147186 2.01471863,70 4.5,70 C6.98528137,70 9,72.0147186 9,74.5 C9,76.9852814 6.98528137,79 4.5,79 Z M4.5,76 C5.32842712,76 6,75.3284271 6,74.5 C6,73.6715729 5.32842712,73 4.5,73 C3.67157288,73 3,73.6715729 3,74.5 C3,75.3284271 3.67157288,76 4.5,76 Z" id="形状结合备份" fill="#88CCF5"></path>
            </g>
        </g>
    </g>
</svg>