<?xml version="1.0" encoding="UTF-8"?>
<svg width="14px" height="14px" viewBox="0 0 14 14" version="1.1" xmlns="http://www.w3.org/2000/svg" xmlns:xlink="http://www.w3.org/1999/xlink">
    <!-- Generator: Sketch 51.3 (57544) - http://www.bohemiancoding.com/sketch -->
    <title>Shape Copy</title>
    <desc>Created with Sketch.</desc>
    <defs></defs>
    <g id="首页+交易" stroke="none" stroke-width="1" fill="none" fill-rule="evenodd">
        <g id="币币交易-白未登录" transform="translate(-704.000000, -141.000000)" fill="#14a2a5" fill-rule="nonzero">
            <g id="深度" transform="translate(406.000000, 104.000000)">
                <g id="tital" transform="translate(1.000000, 1.000000)">
                    <path d="M305.49385,37.7065199 C305.95031,37.8350762 306.382698,38.0210837 306.782717,38.2562436 C307.017826,38.0115908 307.240752,37.7625351 307.482606,37.5323936 C307.748863,37.2663634 308.225322,37.2943667 308.477566,37.5743982 C308.81389,37.9104357 309.150215,38.232471 309.472525,38.5685086 C309.710755,38.8205364 309.710755,39.2545846 309.458512,39.4926115 C309.215966,39.7349504 308.982939,39.9772902 308.735894,40.2039513 C308.972631,40.6040698 309.160107,41.0367844 309.289971,41.493745 C309.635764,41.4907454 309.981557,41.4833166 310.327351,41.4948333 C310.71973,41.5088349 311,41.9008783 311,42.27892 L311,43.7210783 C310.985986,44.0851191 310.705717,44.4631608 310.327351,44.4911641 C309.982874,44.5026369 309.638397,44.4953082 309.29392,44.4922868 C309.164322,44.9529725 308.976208,45.3891546 308.738107,45.7923047 C308.968186,46.0077784 309.203914,46.2250047 309.430484,46.4513816 C309.61266,46.6193997 309.696742,46.8854299 309.626673,47.1374577 C309.570619,47.3614823 309.388443,47.5154995 309.234294,47.6835189 C308.968037,47.9495491 308.701781,48.2295802 308.435523,48.481608 C308.18328,48.7196349 307.748861,48.7196349 307.510631,48.4676064 C307.265694,48.222878 307.020755,47.9878489 306.791978,47.7382997 C306.393126,47.9738253 305.961947,48.1604261 305.506699,48.2898444 L305.506699,49.2516945 C305.520713,49.6577395 305.128335,49.9937771 304.735956,49.9937771 C304.27351,50.0077787 303.811063,49.9937771 303.362637,49.9937771 C302.970258,50.0077787 302.535839,49.7417492 302.507813,49.3217019 C302.49638,48.9790079 302.503603,48.6363148 302.50665,48.2936211 C302.043473,48.1632206 301.605076,47.9736671 301.200129,47.73363 C300.966358,47.9774447 300.744487,48.2272051 300.503881,48.4676064 C300.251638,48.7056333 299.817219,48.7056333 299.564976,48.4676064 C299.228652,48.1455711 298.892327,47.8095335 298.570017,47.473496 C298.289747,47.2354691 298.275734,46.7594166 298.54199,46.4933865 C298.782674,46.2529075 299.013985,46.0124275 299.258922,45.7872681 C299.022228,45.3855242 298.83514,44.9510583 298.706081,44.4922926 C298.362175,44.4953172 298.019971,44.5026311 297.687165,44.4911648 C297.266759,44.4771631 296.986488,44.0291133 297.000503,43.6370706 L297.000503,42.2789194 C297.014516,41.9148785 297.280773,41.5088335 297.673152,41.4948326 C298.018779,41.4833215 298.364404,41.4907376 298.710031,41.49374 C298.840529,41.0345477 299.029204,40.5998388 299.267581,40.1980865 C299.021974,39.9672088 298.770227,39.7346536 298.527977,39.4926109 C298.26172,39.2265807 298.289747,38.7505283 298.570017,38.5125014 C298.920355,38.1624629 299.256679,37.812423 299.607017,37.4903877 C299.85926,37.2803641 300.265652,37.2943664 300.503882,37.5323923 C300.747003,37.7753059 300.990125,38.0086635 301.217443,38.2561498 C301.615825,38.0219698 302.04631,37.83654 302.500702,37.7080571 C302.489798,37.3638138 302.482205,37.0258479 302.4938,36.6782968 C302.507816,36.286254 302.900194,36.0202252 303.264546,36.0062229 C303.726992,35.9922214 304.175424,36.0062229 304.637865,36.0062229 C305.030244,35.9922214 305.478676,36.2582507 305.492688,36.678298 C305.504123,37.021039 305.496897,37.3637792 305.49385,37.7065199 Z M303.306586,39.9126584 C302.031356,40.1786886 301.008375,41.2988129 300.868233,42.6009617 C300.686057,43.8611023 301.372719,45.1912516 302.507817,45.7793184 C303.3206,46.2133666 304.315556,46.2693731 305.17039,45.9333356 C306.151337,45.5552938 306.894052,44.6591941 307.090246,43.6230781 C307.342489,42.4329464 306.823989,41.1308016 305.829029,40.4447215 C305.11434,39.9126625 304.161419,39.7166412 303.306598,39.9126625 L303.306586,39.9126584 Z" id="Shape-Copy"></path>
                </g>
            </g>
        </g>
    </g>
</svg>