<?xml version="1.0" encoding="utf-8"?>
<!-- Generator: Adobe Illustrator 22.0.1, SVG Export Plug-In . SVG Version: 6.00 Build 0)  -->
<svg version="1.1" id="图层_1" xmlns="http://www.w3.org/2000/svg" xmlns:xlink="http://www.w3.org/1999/xlink" x="0px" y="0px"
	 viewBox="0 0 16 16" style="enable-background:new 0 0 16 16;" xml:space="preserve">
<style type="text/css">
	.st0{fill:#14A2A5;}
</style>
<title>Shape Copy 5</title>
<desc>Created with Sketch.</desc>
<g id="首页_x2B_交易">
	<g id="Index-新1-Copy-6" transform="translate(-1676.000000, -40.000000)">
		<g id="首页头部导航">
			<g id="Group-18" transform="translate(30.000000, 3.000000)">
				<g>
					<g id="User" transform="translate(1646.000000, 10.000000)">
						<g id="Group-14">
							<path id="Shape-Copy-5" class="st0" d="M7.2,27l1.5,0c0.5,0,0.9,0.3,1,0.8l0.1,1.1c0.4,0.1,0.8,0.3,1.2,0.5l0.9-0.7
								c0.1-0.1,0.3-0.2,0.5-0.2c0.3,0,0.5,0.1,0.7,0.3l1.1,1.1c0.3,0.3,0.4,0.9,0.1,1.2L13.6,32c0.2,0.4,0.4,0.8,0.5,1.2l1.1,0.1
								c0.4,0,0.8,0.5,0.8,1v1.5c0,0.5-0.3,0.9-0.8,1l-1.1,0.1c-0.1,0.4-0.3,0.8-0.5,1.2l0.7,0.9c0.3,0.3,0.2,0.9-0.1,1.2l-1.1,1.1
								c-0.2,0.2-0.4,0.3-0.7,0.3c-0.2,0-0.4-0.1-0.5-0.2L11,40.6c-0.4,0.2-0.8,0.4-1.2,0.5l-0.1,1.1c0,0.4-0.5,0.8-1,0.8H7.2
								c-0.5,0-0.9-0.3-1-0.8l-0.1-1.1C5.8,41,5.4,40.8,5,40.6l-0.9,0.7c-0.1,0.1-0.3,0.2-0.5,0.2c-0.3,0-0.5-0.1-0.7-0.3l-1.1-1.1
								c-0.3-0.3-0.4-0.9-0.1-1.2L2.4,38c-0.2-0.4-0.4-0.8-0.5-1.2l-1.1-0.1c-0.4,0-0.8-0.5-0.8-1v-1.5c0-0.5,0.3-0.9,0.8-1l1.1-0.1
								C2,32.8,2.2,32.4,2.4,32l-0.7-0.9c-0.3-0.3-0.2-0.9,0.1-1.2l1.1-1.1c0.2-0.2,0.4-0.3,0.7-0.3c0.2,0,0.4,0.1,0.5,0.2L5,29.4
								c0.4-0.2,0.8-0.4,1.2-0.5l0.1-1.1C6.3,27.3,6.7,27,7.2,27z M7.1,29.7l-0.6,0.2c-0.3,0.1-0.7,0.2-1,0.4l-0.6,0.3l-0.5-0.4
								l-0.8-0.6l-1,1l1.1,1.3l-0.3,0.6c-0.2,0.3-0.3,0.6-0.4,1l-0.2,0.6L2,34.2l-1,0.1v1.5l1.7,0.2l0.2,0.6c0.1,0.3,0.2,0.7,0.4,1
								l0.3,0.6l-0.4,0.5l-0.6,0.8l1,1l1.3-1.1l0.6,0.3c0.3,0.2,0.6,0.3,1,0.4l0.6,0.2L7.2,41l0.1,1h1.5l0.2-1.7l0.6-0.2
								c0.3-0.1,0.7-0.2,1-0.4l0.6-0.3l0.5,0.4l0.8,0.6l1-1l-1.1-1.3l0.3-0.6c0.2-0.3,0.3-0.6,0.4-1l0.2-0.6l0.7-0.1l1-0.1v-1.5
								l-1.7-0.2l-0.2-0.6c-0.1-0.3-0.2-0.7-0.4-1l-0.3-0.6l0.4-0.5l0.6-0.8l-1-1l-1.3,1.1l-0.6-0.3c-0.3-0.2-0.6-0.3-1-0.4
								l-0.6-0.2L8.7,28l-1.5,0L7.1,29.7z M8,32c1.7,0,3,1.3,3,3s-1.3,3-3,3s-3-1.3-3-3c0-0.2,0.2-0.4,0.4-0.4
								c0.2,0,0.4,0.2,0.4,0.4c0,1.2,1,2.1,2.1,2.1s2.1-1,2.1-2.1c0-0.3-0.1-0.6-0.2-0.9C9.5,33,8.2,32.6,7.1,33c0,0,0,0,0,0
								c-0.2,0.1-0.5,0-0.6-0.2c-0.1-0.2,0-0.5,0.2-0.6C7.2,32.1,7.6,32,8,32z"/>
						</g>
					</g>
				</g>
			</g>
		</g>
	</g>
</g>
</svg>
