<?xml version="1.0" encoding="UTF-8"?>
<svg width="24px" height="24px" viewBox="0 0 24 24" version="1.1" xmlns="http://www.w3.org/2000/svg" xmlns:xlink="http://www.w3.org/1999/xlink">
    <!-- Generator: Sketch 51.1 (57501) - http://www.bohemiancoding.com/sketch -->
    <title>Shape Copy 2</title>
    <desc>Created with Sketch.</desc>
    <defs></defs>
    <g id="C2C" stroke="none" stroke-width="1" fill="none" fill-rule="evenodd">
        <g id="法币首页-购买详情" transform="translate(-1276.000000, -148.000000)" fill="#03BF59" fill-rule="nonzero">
            <g id="电话" transform="translate(1288.000000, 143.000000) scale(-1, 1) translate(-1288.000000, -143.000000) translate(1276.000000, 114.000000)">
                <g id="Shape-Copy-2">
                    <path d="M11.9983238,58 C5.3839922,58 0,52.6160078 0,45.9983238 C0,39.3806397 5.3839922,34 11.9983238,34 C18.6160079,34 23.9966476,39.3839922 23.9966476,45.9983238 C24,52.6160078 18.6160078,58 11.9983238,58 Z M17.5196187,51.4786314 C17.8915231,51.2728203 18.2381524,51.0597877 18.5233995,50.8503658 C18.555896,50.8250907 18.6967141,50.7276012 18.7292106,50.6987154 C18.8880824,50.5687294 18.9891826,50.3737504 18.9891826,50.1498857 C18.9891826,49.9404638 18.8989146,49.7490955 18.750875,49.6227202 L15.8550758,47.2396436 C15.735922,47.1421541 15.5806609,47.0807718 15.4145677,47.0807718 C15.2268101,47.0807718 15.0534955,47.1529862 14.9271202,47.2721401 C14.8765701,47.3226902 14.4432834,47.766809 14.4432834,47.766809 C14.1399827,48.0701097 13.6525352,48.0701097 13.3528453,47.766809 L10.3992746,44.8096276 C10.0959739,44.5063269 10.0959739,44.0152687 10.3992746,43.7155787 L10.8795006,43.2353527 C11.0058759,43.1089774 11.0780904,42.932052 11.0780903,42.7442945 C11.0780903,42.5529262 11.0058759,42.386833 10.8867221,42.2604577 L8.40615592,39.2635583 C8.27616993,39.1082972 8.08119094,39.007197 7.8609369,39.007197 C7.62985069,39.007197 7.42765023,39.1191294 7.29766424,39.2924441 L7.25433556,39.3466049 C6.71272724,40.0759708 6.00863642,41.2350126 6.00863642,42.32184 C6.00863642,45.3187394 12.6884724,51.9913539 15.6600968,51.991354 C15.7178683,51.991354 15.7720292,51.9877432 15.82619,51.9877432 C16.5916631,51.926361 17.1766001,51.6699997 17.5196187,51.4786314 Z"></path>
                </g>
            </g>
        </g>
    </g>
</svg>