<svg xmlns="http://www.w3.org/2000/svg" viewBox="0 0 129 134.9"><defs><style>.cls-1,.cls-2{fill:none;stroke:#ba9156;}.cls-1{stroke-miterlimit:10;}.cls-2{stroke-linecap:round;stroke-linejoin:round;stroke-width:2px;}</style></defs><title>资源 22</title><g id="图层_2" data-name="图层 2"><g id="图层_1-2" data-name="图层 1"><path class="cls-1" d="M68.42,1.77a6.7,6.7,0,0,0-7.84,0L46.49,12h36Z"/><path class="cls-1" d="M22.73,118.28a6.66,6.66,0,0,0,6.34,4.61H46.49L17.34,101.71Z"/><path class="cls-1" d="M3.25,43.43A6.64,6.64,0,0,0,.83,50.88L6.21,67.45,17.34,33.19Z"/><path class="cls-1" d="M99.93,122.89a6.66,6.66,0,0,0,6.34-4.61l5.39-16.57L82.51,122.89Z"/><path class="cls-1" d="M128.17,50.88a6.64,6.64,0,0,0-2.42-7.45L111.66,33.19l11.13,34.26Z"/><path class="cls-1" d="M6.21,67.45.83,84a6.64,6.64,0,0,0,2.42,7.45l14.09,10.24"/><path class="cls-1" d="M46.49,122.89l14.09,10.24a6.7,6.7,0,0,0,7.84,0l14.09-10.24"/><path class="cls-1" d="M46.49,12H29.07a6.66,6.66,0,0,0-6.34,4.61L17.34,33.19"/><path class="cls-1" d="M111.66,101.71l14.09-10.24A6.64,6.64,0,0,0,128.17,84l-5.38-16.57"/><path class="cls-1" d="M111.66,33.19l-5.39-16.57A6.66,6.66,0,0,0,99.93,12H82.51"/><line class="cls-1" x1="82.51" y1="122.89" x2="111.66" y2="101.71"/><line class="cls-1" x1="17.34" y1="101.71" x2="46.49" y2="122.89"/><line class="cls-1" x1="17.34" y1="33.19" x2="6.21" y2="67.45"/><line class="cls-1" x1="82.51" y1="12.01" x2="46.49" y2="12.01"/><line class="cls-1" x1="122.79" y1="67.45" x2="111.66" y2="33.19"/><circle class="cls-2" cx="62.93" cy="63.69" r="15.86"/><path class="cls-2" d="M81.81,44.81l-3.6,3.59A21.62,21.62,0,0,1,47.64,79l-3.19,3.19"/><ellipse class="cls-2" cx="62.93" cy="63.69" rx="15.86" ry="8.04" transform="translate(-26.61 63.15) rotate(-45)"/><line class="cls-2" x1="74.14" y1="52.48" x2="51.72" y2="74.9"/><line class="cls-2" x1="74.14" y1="74.9" x2="51.72" y2="52.48"/><path class="cls-2" d="M54.06,96.09a10.44,10.44,0,0,1,20.88,0"/><line class="cls-2" x1="40.5" y1="96.09" x2="88.5" y2="96.09"/></g></g></svg>