<?xml version="1.0" encoding="utf-8"?>
<!-- Generator: Adobe Illustrator 23.0.3, SVG Export Plug-In . SVG Version: 6.00 Build 0)  -->
<svg version="1.1" id="Layer_1" xmlns="http://www.w3.org/2000/svg" xmlns:xlink="http://www.w3.org/1999/xlink" x="0px" y="0px"
	 width="120.4px" height="164.2px" viewBox="0 0 120.4 164.2" style="enable-background:new 0 0 120.4 164.2;" xml:space="preserve"
	>
<style type="text/css">
	.st0{fill:#AAAAAA;}
	.st1{fill:#777777;}
	.st2{fill:#FFFFFF;}
	.st3{fill:#F5BC00;}
	.st4{fill:#DBDBDB;}
</style>
<path class="st0" d="M114.6,0.2c-0.6-0.4-1.5-0.3-2.5,0.2L3.5,63.3C1.5,64.4,0,67,0,69.2l0.2,89.9c0,1.1,0.4,1.9,1,2.2l4.5,2.6
	c-0.6-0.4-1-1.1-1-2.2L4.5,71.9c0-2.2,1.5-4.9,3.5-6L116.7,3.1c1-0.6,1.8-0.6,2.5-0.2L114.6,0.2z"/>
<g>
	<path class="st1" d="M116.7,3.1c1.9-1.1,3.5-0.2,3.5,2l0.2,89.9c0,2.2-1.5,4.9-3.4,6L8.2,163.7c-1.9,1.1-3.5,0.2-3.5-2L4.5,71.9
		c0-2.2,1.5-4.9,3.5-6L116.7,3.1z"/>
</g>
<g>
	<g>
		<polygon class="st2" points="115.9,16.1 116,96.5 9,158.3 8.9,77.8 		"/>
	</g>
</g>
<g>
	<g>
		<path class="st2" d="M102.7,16c1-0.6,1.8-0.1,1.8,1c0,1.1-0.8,2.5-1.8,3.1c-1,0.6-1.8,0.1-1.8-1C101,17.9,101.8,16.6,102.7,16z"/>
	</g>
	<g>
		<path class="st2" d="M114.1,9.4c1-0.6,1.8-0.1,1.8,1c0,1.1-0.8,2.5-1.8,3.1c-1,0.6-1.8,0.1-1.8-1C112.3,11.4,113.1,10,114.1,9.4z"
			/>
	</g>
	<g>
		<path class="st2" d="M108.4,12.7c1-0.6,1.8-0.1,1.8,1c0,1.1-0.8,2.5-1.8,3.1c-1,0.6-1.8,0.1-1.8-1
			C106.7,14.6,107.4,13.3,108.4,12.7z"/>
	</g>
</g>
<polygon class="st3" points="107.8,41.3 107.8,46.2 92.2,55.1 76.2,82.3 49.5,68.7 34.2,93.3 19.6,101.7 19.6,96.8 32.8,89.3 
	48.5,63.2 75.2,76.9 90.8,51 "/>
<polygon class="st4" points="26.6,139.1 19.6,143.1 19.6,118.1 26.6,114.1 "/>
<polygon class="st3" points="42.6,129.9 35.7,133.9 35.7,106.1 42.6,102.1 "/>
<polygon class="st4" points="58.7,120.7 51.8,124.7 51.8,92.5 58.7,88.5 "/>
<polygon class="st4" points="74.8,111.5 67.8,115.4 67.8,98.1 74.8,94.1 "/>
<polygon class="st3" points="90.8,102.2 83.9,106.2 83.9,82.9 90.8,78.9 "/>
<polygon class="st3" points="106.9,93 99.9,97 99.9,67.8 106.9,63.8 "/>
</svg>
