<svg xmlns="http://www.w3.org/2000/svg" xmlns:xlink="http://www.w3.org/1999/xlink" viewBox="0 0 119.84 87.77"><defs><style>.cls-1{fill:none;}.cls-2{clip-path:url(#clip-path);}.cls-3{fill:url(#未命名的渐变_48);}.cls-4{fill:url(#未命名的渐变_85);}.cls-5{fill:url(#未命名的渐变_48-2);}.cls-6{fill:url(#未命名的渐变_48-3);}.cls-7{fill:url(#未命名的渐变_48-4);}.cls-8{fill:url(#未命名的渐变_48-5);}.cls-9{fill:url(#未命名的渐变_48-6);}.cls-10{fill:url(#未命名的渐变_79);}.cls-11{fill:url(#未命名的渐变_48-7);}.cls-12{isolation:isolate;}.cls-13{fill:#fdfdff;}.cls-14{fill:url(#未命名的渐变_48-8);}.cls-15{fill:url(#未命名的渐变_48-9);}.cls-16{fill:url(#未命名的渐变_74);}.cls-17{fill:url(#未命名的渐变_48-10);}.cls-18{fill:url(#未命名的渐变_74-2);}.cls-19{fill:url(#未命名的渐变_48-11);}.cls-20{fill:url(#未命名的渐变_74-3);}.cls-21{fill:url(#未命名的渐变_48-12);}.cls-22{fill:url(#未命名的渐变_79-2);}.cls-23{fill:url(#未命名的渐变_48-13);}.cls-24{fill:#fff;}</style><clipPath id="clip-path" transform="translate(0 -5.66)"><rect class="cls-1" x="0.02" width="120" height="93.62"/></clipPath><linearGradient id="未命名的渐变_48" y1="73.55" x2="119.83" y2="73.55" gradientUnits="userSpaceOnUse"><stop offset="0" stop-color="#d6a55b"/><stop offset="1" stop-color="#e9d7b1"/></linearGradient><linearGradient id="未命名的渐变_85" x1="0.07" y1="53.73" x2="119.84" y2="53.73" gradientUnits="userSpaceOnUse"><stop offset="0" stop-color="#fcf9f5"/><stop offset="1" stop-color="#f3e7d7"/></linearGradient><linearGradient id="未命名的渐变_48-2" x1="69.28" y1="36.09" x2="74.11" y2="36.09" xlink:href="#未命名的渐变_48"/><linearGradient id="未命名的渐变_48-3" x1="80.68" y1="13" x2="83.5" y2="13" xlink:href="#未命名的渐变_48"/><linearGradient id="未命名的渐变_48-4" x1="69.22" y1="11.02" x2="81.65" y2="11.02" xlink:href="#未命名的渐变_48"/><linearGradient id="未命名的渐变_48-5" x1="38.17" y1="54.34" x2="43.21" y2="54.34" xlink:href="#未命名的渐变_48"/><linearGradient id="未命名的渐变_48-6" x1="24.66" y1="37.12" x2="69.23" y2="37.12" xlink:href="#未命名的渐变_48"/><linearGradient id="未命名的渐变_79" x1="27.19" y1="35.13" x2="85.3" y2="35.13" gradientUnits="userSpaceOnUse"><stop offset="0" stop-color="#f0e4de"/><stop offset="1" stop-color="#ebd7c0"/></linearGradient><linearGradient id="未命名的渐变_48-7" x1="45.02" y1="41.13" x2="63.97" y2="41.13" xlink:href="#未命名的渐变_48"/><linearGradient id="未命名的渐变_48-8" x1="45.72" y1="42.33" x2="66.27" y2="42.33" xlink:href="#未命名的渐变_48"/><linearGradient id="未命名的渐变_48-9" x1="69" y1="58.38" x2="93.45" y2="58.38" xlink:href="#未命名的渐变_48"/><linearGradient id="未命名的渐变_74" x1="69.08" y1="53.56" x2="93.45" y2="53.56" gradientUnits="userSpaceOnUse"><stop offset="0" stop-color="#fff"/><stop offset="1" stop-color="#e8d0b1"/></linearGradient><linearGradient id="未命名的渐变_48-10" x1="69" y1="54.9" x2="93.45" y2="54.9" xlink:href="#未命名的渐变_48"/><linearGradient id="未命名的渐变_74-2" x1="69.08" y1="50.08" x2="93.45" y2="50.08" xlink:href="#未命名的渐变_74"/><linearGradient id="未命名的渐变_48-11" x1="69" y1="51.13" x2="93.45" y2="51.13" xlink:href="#未命名的渐变_48"/><linearGradient id="未命名的渐变_74-3" x1="69.08" y1="46.3" x2="93.45" y2="46.3" xlink:href="#未命名的渐变_74"/><linearGradient id="未命名的渐变_48-12" x1="69" y1="47.64" x2="93.45" y2="47.64" xlink:href="#未命名的渐变_48"/><linearGradient id="未命名的渐变_79-2" x1="69.08" y1="42.82" x2="93.45" y2="42.82" xlink:href="#未命名的渐变_79"/><linearGradient id="未命名的渐变_48-13" x1="74.22" y1="41.68" x2="87.14" y2="41.68" xlink:href="#未命名的渐变_48"/></defs><title>资源 8</title><g id="图层_2" data-name="图层 2"><g id="图层_1-2" data-name="图层 1"><g class="cls-2"><path class="cls-3" d="M119.82,54c-.16,1.67-1.7,2.51-3,3.27l-3.64,2.11-5.81,3.37c-2.44,1.42-4.85,2.83-7.28,4.23l-8,4.66L84,76.31l-7.42,4.31-6,3.51c-1.32.76-2.65,1.54-4,2.29a13.7,13.7,0,0,1-3.08,1.49,11.56,11.56,0,0,1-8.92-1c-1-.57-1.93-1.11-2.89-1.67l-5.27-3c-2.31-1.34-4.62-2.68-6.93-4l-7.9-4.56C28.83,72.1,26.12,70.52,23.4,69L15.68,64.5,9.11,60.72,4.4,58,2.26,56.75A3.83,3.83,0,0,1,0,53.67C0,55,0,56.22,0,57.51c0,.46,0,.93,0,1.4a3.85,3.85,0,0,0,2.09,2.8c.62.38,1.26.73,1.89,1.09,1.65.94,3.29,1.9,4.93,2.84,2.37,1.37,4.72,2.74,7.09,4.1l8.45,4.88,8.81,5.09,8.37,4.83,7,4,4.71,2.72a19.7,19.7,0,0,0,2.8,1.48A11.47,11.47,0,0,0,65.65,92l3.23-1.88,6-3.47c2.6-1.5,5.18-3,7.78-4.53l8.69-5L100,72l7.81-4.55,6.06-3.52c1.11-.65,2.24-1.29,3.35-1.95a11.76,11.76,0,0,0,1-.62,3.39,3.39,0,0,0,1.53-2.63c0-.56,0-1.11,0-1.67,0-1.11,0-2.23,0-3.34a.35.35,0,0,1,0,.27c0,.05,0,0,0,0Z" transform="translate(0 -5.66)"/><path class="cls-4" d="M117.67,50.71c2.88,1.67,2.9,4.39,0,6.06L65.37,87.17a11.52,11.52,0,0,1-10.45,0L2.25,56.77c-2.89-1.67-2.9-4.39,0-6.06L54.54,20.29a11.52,11.52,0,0,1,10.45,0Z" transform="translate(0 -5.66)"/></g><path class="cls-5" d="M71.82,35.93l-2.54-1.47,2,1.56a4,4,0,0,0,.34.23l2.53,1.47-.33-.22Z" transform="translate(0 -5.66)"/><path class="cls-6" d="M81,12.33h0l-.18-.09-.08,0,2.54,1.47a1.82,1.82,0,0,1,.28.13Z" transform="translate(0 -5.66)"/><path class="cls-7" d="M79.45,7.2a4.59,4.59,0,0,1,.73-.06h.08a3.1,3.1,0,0,1,.69.1h0a2.48,2.48,0,0,1,.65.27L79.12,6.05l0,0-.29-.14-.3-.11h-.08l-.25,0-.34,0h-.39l-.43,0-.09,0-.13,0-.29.06A5,5,0,0,0,76,6l-.06,0a5.19,5.19,0,0,0-.71.35,8.29,8.29,0,0,0-.75.51L74.29,7a7.06,7.06,0,0,0-.72.63h0l-.12.14a5.33,5.33,0,0,0-.4.42l0,0c-.14.16-.27.32-.4.49h0l0,.06c-.1.12-.2.25-.29.38l-.09.13-.09.15L72,9.61c-.09.13-.17.27-.26.42h0v0c-.08.12-.15.26-.22.39l-.15.29L69.22,14.9l2.54,1.47,2.12-4.16c.11-.23.24-.46.37-.68v0c.11-.2.24-.4.37-.59l.09-.14c.12-.18.25-.35.37-.52l0,0,.45-.54c.13-.15.26-.28.39-.42l.14-.14a8.22,8.22,0,0,1,.71-.63L77,8.34c.25-.18.5-.36.76-.51a6,6,0,0,1,.77-.37,4.12,4.12,0,0,1,.79-.23Z" transform="translate(0 -5.66)"/><path class="cls-8" d="M40.7,53.93l-2.53-1.47a8.19,8.19,0,0,0,2.5,2.28l2.54,1.47A8.1,8.1,0,0,1,40.7,53.93Z" transform="translate(0 -5.66)"/><path class="cls-9" d="M60,14.07l.48-.18c.18-.08.37-.15.55-.21l.46-.15c.18-.06.36-.12.53-.16l.17,0c.35-.09.7-.17,1-.22l.34-.06q.33,0,.66-.06l.46,0a7.11,7.11,0,0,1,1,0l.42,0,.71.13.37.08c.26.07.51.16.77.25l.23.09a6.79,6.79,0,0,1,1,.47L66.69,12.6l-.09,0a8,8,0,0,0-.83-.41l-.06,0L65.48,12c-.19-.07-.38-.15-.58-.21l-.19,0-.37-.08c-.12,0-.24-.07-.37-.09l-.34,0-.41-.05-.26,0-.79,0h-.23l-.23,0-.65.07-.18,0-.16,0c-.34.06-.69.13-1,.22l-.13,0h0l-.53.17-.46.14-.56.21-.43.17h0c-.48.2-1,.44-1.5.69l-.37.19c-.53.27-1.08.56-1.65.89l-.93.55-.29.17-.66.4-.37.24-.59.38-.4.27-.58.4c-.14.09-.27.19-.41.3l-.57.42-.42.34-.57.46-.42.37-.58.52-.42.39-.15.14-.76.78c-.29.31-.57.63-.85,1,0,0-.09.11-.14.17-.34.39-.67.8-1,1.21a3.11,3.11,0,0,0-.23.28l0,.06c-.33.42-.65.86-1,1.31l-.14.18h0l-.48.72c-.18.26-.36.52-.52.78h0l-.19.32c-.25.38-.48.77-.71,1.16l0,.05-.29.52c-.17.3-.35.61-.52.93l-.05.1c-.11.2-.21.41-.31.62s-.27.52-.4.79c0,.05,0,.11-.08.16-.11.23-.21.46-.31.69s-.22.46-.32.7l0,.07-2.08-1.2-.06,0L36,31l-.34-.17-.08,0-.11,0-.22-.08-.1,0-.13,0-.17,0-.08,0-.2,0-.13,0h0a2.28,2.28,0,0,0-.37,0H34l-.29,0-.08,0-.17,0-.17,0-.11,0-.28.09-.14.06-.23.1a3.55,3.55,0,0,0-.43.23,8,8,0,0,0-.88.59l-.28.25c-.18.15-.35.29-.52.45l-.05.06-.12.13c-.13.13-.26.26-.38.4l-.31.37-.05.07,0,.05a3.72,3.72,0,0,0-.33.45c-.1.14-.2.28-.29.43l-.06.09,0,0-.3.49c-.1.17-.19.34-.28.51s-.17.32-.24.48l0,0v0c-.09.18-.17.37-.25.55s-.17.39-.24.59-.1.26-.14.39a1,1,0,0,0,0,.1.78.78,0,0,1-.05.14l-.21.69q-.11.38-.18.75h0c-.07.31-.12.62-.16.93s-.05.43-.06.64a8.52,8.52,0,0,0,.18,2.36l0,.08c-.11.18-.21.36-.31.55l-.21.41-.06.11-.26.57-.24.59a1.46,1.46,0,0,1-.07.19s0,.08,0,.13-.09.22-.12.33-.16.49-.23.73,0,.19-.07.29,0,.16-.05.23-.06.21-.08.32c-.08.36-.14.71-.19,1.07h0a11.12,11.12,0,0,0-.09,1.51A5.85,5.85,0,0,0,26,54.55a2.82,2.82,0,0,0,.55.43l.14.08c0,.23-.08.45-.11.68a.49.49,0,0,1,0,.12A11.26,11.26,0,0,0,26.54,57a5.12,5.12,0,0,0,1.56,4.05,2.27,2.27,0,0,0,.32.22L31,62.76a3.62,3.62,0,0,1-.32-.22,5.1,5.1,0,0,1-1.56-4.06,7.55,7.55,0,0,1,.07-1.15c0-.26.07-.53.12-.8l-.18-.1a3.9,3.9,0,0,1-.51-.4,5.88,5.88,0,0,1-1.39-4.22,11,11,0,0,1,.1-1.5,13.76,13.76,0,0,1,.26-1.4l.06-.23A13.26,13.26,0,0,1,28,47.32s0-.09.05-.13c.18-.49.39-1,.62-1.46s.36-.69.57-1a7.82,7.82,0,0,1-.18-2.36,9.72,9.72,0,0,1,.22-1.57h0a13.53,13.53,0,0,1,.45-1.59.42.42,0,0,1,0-.1,13.69,13.69,0,0,1,.64-1.55v0A15.19,15.19,0,0,1,31.3,36a10.85,10.85,0,0,1,.71-1l.06-.07c.22-.27.45-.53.68-.77l.12-.13c.19-.18.38-.34.57-.5a3.23,3.23,0,0,1,.29-.25,6.77,6.77,0,0,1,.87-.6l.43-.23.38-.15.28-.1.28-.07.17,0,.36,0h.07A3.05,3.05,0,0,1,37,32h.13l.28,0,.17,0,.22.06.23.08.18.08h0l-.12.3h0l2.54,1.48c.16-.37.33-.74.5-1.11s.2-.46.31-.69.32-.64.48-1l.31-.61c.18-.35.38-.69.57-1l.29-.51c.23-.39.47-.78.71-1.16.07-.12.14-.24.22-.36s.35-.53.53-.8.31-.48.48-.71.11-.15.17-.23c.3-.43.62-.86.94-1.28l.27-.34c.33-.41.66-.81,1-1.21s.65-.75,1-1.11.61-.63.91-.92l.42-.39.57-.53.43-.36.56-.47.43-.33.56-.43.42-.3.57-.4.4-.27.6-.38c.12-.08.24-.16.37-.23l.65-.4.3-.18.93-.54c.57-.33,1.11-.62,1.64-.89l.38-.19C59.06,14.5,59.56,14.27,60,14.07Z" transform="translate(0 -5.66)"/><path class="cls-10" d="M56.52,15.84C59.89,13.9,62.42,13,64.71,13a8.25,8.25,0,0,1,7.05,3.41l2.12-4.16a10.54,10.54,0,0,1,3.88-4.38,6,6,0,0,1,.77-.37c2-.75,3.62-.18,4.38,1.52a8.06,8.06,0,0,1,.31,4.69,1.83,1.83,0,0,1,.44.23c1.31,1,1.89,3.24,1.55,5.93A15.26,15.26,0,0,1,84,23.92a17.08,17.08,0,0,1-.8,1.53,11.24,11.24,0,0,1-.93,6.63l-.32.77-.25.63-.31.42A10.75,10.75,0,0,1,78,37.42c-1.59.91-3.11.93-4.2.08l-2-1.57a39.3,39.3,0,0,1-7.77,12.38,31.79,31.79,0,0,1-7.86,6l-.27.16c-3.36,1.93-5.88,2.82-8.18,2.88a8.21,8.21,0,0,1-7-3.4c-1.48,3.11-3.32,6.93-6,8.5a5.6,5.6,0,0,1-.74.36,3.17,3.17,0,0,1-3.28-.25,5.1,5.1,0,0,1-1.56-4.06,9.4,9.4,0,0,1,.19-1.95,3,3,0,0,1-.69-.5,5.88,5.88,0,0,1-1.39-4.22,14.22,14.22,0,0,1,1.5-6.08c.18-.35.36-.69.57-1a7.82,7.82,0,0,1-.18-2.36A14,14,0,0,1,31.3,36a9.94,9.94,0,0,1,3.3-3.34l.43-.23c2.49-1.18,4.22.42,5.6,1.7A41.66,41.66,0,0,1,48.4,22,32.86,32.86,0,0,1,56.52,15.84Z" transform="translate(0 -5.66)"/><path class="cls-11" d="M62.26,33.62a1.16,1.16,0,0,1,1.2-.12c.67.38.67,1.61,0,2.76-2.92,5.07-6.68,9-10.23,11-2.89,1.67-5.65,2.11-7.71.95-.67-.39-.68-1.63,0-2.78a3.52,3.52,0,0,1,1.2-1.27,1.21,1.21,0,0,1,1.2-.12c1.4.8,3.3.49,5.31-.67a23.5,23.5,0,0,0,7.83-8.5A3.36,3.36,0,0,1,62.26,33.62Z" transform="translate(0 -5.66)"/><g class="cls-12"><path class="cls-13" d="M65.06,35.75a1.23,1.23,0,0,1,1.21-.12c.66.38.67,1.62,0,2.77-2.92,5.06-6.68,9-10.22,11-2.9,1.67-5.66,2.11-7.72.94-.67-.38-.67-1.62,0-2.77a3.38,3.38,0,0,1,1.21-1.27,1.21,1.21,0,0,1,1.2-.12c1.4.8,3.29.49,5.31-.68A23.4,23.4,0,0,0,63.86,37,3.52,3.52,0,0,1,65.06,35.75Z" transform="translate(0 -5.66)"/><path class="cls-14" d="M64.39,36.3l.06-.06.09-.09a3,3,0,0,1,.52-.4,2,2,0,0,1,.3-.14l.06,0a1.31,1.31,0,0,1,.27-.06H66a.86.86,0,0,1,.27.09h0l-.61-.35-1.5-.88h0l-.09,0-.09,0-.08,0h-.35l-.15,0-.08,0-.06,0-.06,0-.24.12a2.75,2.75,0,0,0-.52.41l0,0a.12.12,0,0,1-.05,0l0,.06-.08.09a2.09,2.09,0,0,0-.14.17l0,0,0,0-.06.08-.09.15a1.19,1.19,0,0,0-.09.15h0c-.27.46-.54.9-.82,1.34l-.25.36c-.19.29-.39.58-.59.86l-.35.48-.52.67-.48.57-.44.52c-.26.29-.53.56-.79.83l-.42.42-.33.31c-.2.19-.41.38-.62.55L55.8,43c-.22.17-.43.34-.65.49l-.3.22a9.58,9.58,0,0,1-.93.59,7.77,7.77,0,0,1-1.08.54l-.24.1a4.72,4.72,0,0,1-.69.24l-.15,0-.28.06-.4.08-.17,0-.45,0h-.17a3.88,3.88,0,0,1-.48,0h-.08a2.93,2.93,0,0,1-.51-.13l-.12,0a3.52,3.52,0,0,1-.49-.22h0l-.08,0-.09,0H48l-.15,0-.08,0-.06,0-.06,0-.24.12a3,3,0,0,0-.52.4.1.1,0,0,1,0,0l0,0-.06.06-.08.09a1.15,1.15,0,0,0-.14.17l0,0,0,0a.35.35,0,0,0-.05.08l-.1.15-.09.14v0a.83.83,0,0,0-.07.13s0,.1-.08.14l-.06.15h0l-.06.13a1.42,1.42,0,0,0,0,.16.56.56,0,0,0,0,.12v.06c0,.06,0,.13,0,.19s0,.1,0,.15a.43.43,0,0,0,0,0s0,0,0,0v.1c0,.11,0,.21,0,.31s0,.09,0,.14a1.84,1.84,0,0,0,.05.25.56.56,0,0,0,0,.12.68.68,0,0,0,.1.21l.06.09a.61.61,0,0,0,.24.21l2.11,1.23a1,1,0,0,1-.24-.21.41.41,0,0,1-.05-.09.7.7,0,0,1-.11-.21.56.56,0,0,1,0-.12,1.87,1.87,0,0,1,0-.25.68.68,0,0,1,0-.14c0-.1,0-.21,0-.31a.66.66,0,0,0,0-.14.13.13,0,0,0,0-.06,2.83,2.83,0,0,1,.09-.37v0A3.39,3.39,0,0,1,48.1,48h0a4.25,4.25,0,0,1,.21-.43,3.77,3.77,0,0,1,.26-.39l0,0a2.55,2.55,0,0,1,.26-.3l0-.06.1-.09a2.68,2.68,0,0,1,.52-.4,1.92,1.92,0,0,1,.29-.14l.06,0,.27-.06h0a1.29,1.29,0,0,1,.28,0h0a.82.82,0,0,1,.26.1l0,0a2.3,2.3,0,0,0,.32.15l.14.05.11,0,.11,0c.12,0,.25.06.38.09h.11l.3,0h.47l.32,0,.17,0h.05l.36-.08.27-.06h0l.12,0a5.28,5.28,0,0,0,.7-.24l.11,0,.12-.07A8.47,8.47,0,0,0,56,45.52c.31-.17.62-.38.93-.59l.3-.22.64-.49.35-.29.62-.55.33-.31.17-.16c.08-.08.16-.18.25-.26q.39-.4.78-.84l.21-.22.24-.29c.16-.18.31-.38.47-.57a3.88,3.88,0,0,1,.26-.31l.26-.37c.12-.15.24-.31.35-.47l.2-.27.4-.6.24-.35.09-.14.66-1.07s.05-.09.07-.13.17-.26.26-.39l0,0C64.22,36.49,64.31,36.39,64.39,36.3Z" transform="translate(0 -5.66)"/></g><path class="cls-15" d="M93.43,53.81a1.09,1.09,0,0,1,0,.18c0,.06,0,.11,0,.17a1.13,1.13,0,0,1,0,.18,1.22,1.22,0,0,1,0,.17l0,.18,0,.16a.6.6,0,0,1-.06.19,1.56,1.56,0,0,1-.06.15l-.08.18c0,.05,0,.11-.07.15l-.09.19a.53.53,0,0,0-.08.15l-.14.21-.09.14a2.5,2.5,0,0,0-.16.24s0,.08-.08.11a3.45,3.45,0,0,1-.32.36l-.09.09-.27.28-.14.12-.18.15-.17.14-.2.15-.18.13-.21.16a1.74,1.74,0,0,1-.2.13l-.23.14a2,2,0,0,1-.29.17c-.18.1-.36.21-.56.3a.89.89,0,0,1-.17.08l-.45.21-.15.08c-.2.09-.4.16-.61.24l-.11,0c-.16.07-.35.13-.53.19l-.23.07-.3.09-.26.08a1.84,1.84,0,0,1-.3.07l-.26.07-.31.07a2.27,2.27,0,0,1-.25.06l-.32.06-.25.05c-.22,0-.45.07-.68.11H84l-.6.08a1.6,1.6,0,0,0-.23,0c-.14,0-.26,0-.4,0h-.24a2.82,2.82,0,0,1-.41,0H80.35a1,1,0,0,1-.24,0,2.43,2.43,0,0,1-.38,0h-.21l-.46,0h-.14l-.57-.08-.09,0-.51-.07a.63.63,0,0,0-.19,0l-.38-.08-.2,0-.41-.09a1,1,0,0,1-.23-.07L76,59.94a1.8,1.8,0,0,1-.22-.06l-.57-.18a.45.45,0,0,1-.11,0l-.64-.23a.38.38,0,0,1-.13-.06c-.28-.1-.55-.23-.81-.35l-.07,0c-.28-.14-.55-.28-.81-.43a8.67,8.67,0,0,1-2.46-2,5.36,5.36,0,0,1-1-2,3.18,3.18,0,0,0-.08-.33,5.36,5.36,0,0,1-.06-.69v2.6c0,1.82,1.2,3.65,3.6,5,.26.15.54.29.81.42l.08.05c.25.12.53.24.8.35l.08,0s0,0,.06,0c.21.07.42.16.64.22a.38.38,0,0,0,.1,0l.58.19a.32.32,0,0,1,.09,0,.45.45,0,0,1,.11,0l.36.09a2,2,0,0,1,.23.06l.41.09.15,0a.06.06,0,0,1,.05,0l.38.07a.63.63,0,0,0,.19,0l.51.08h.09l.57.08H79l.47,0h.22l.38,0h.25l.35,0H82a.5.5,0,0,0,.17,0h.41l.24,0,.4,0a.36.36,0,0,0,.14,0h.09L84,63h.1l.68-.11h.06l.18,0,.32-.06.26-.07.32-.07a2.44,2.44,0,0,1,.26-.06l.3-.08.26-.07.29-.1.13,0a.38.38,0,0,1,.1,0l.53-.18.1,0,.61-.24.15-.08.46-.21.17-.08a6,6,0,0,0,.56-.3l.15-.09.14-.09.23-.14.19-.14a1.43,1.43,0,0,0,.22-.15l.18-.14.2-.15.16-.13L91.5,60s0,0,.08-.06l.43-.42.32-.37h0A.47.47,0,0,0,92.4,59a1.56,1.56,0,0,0,.17-.25l.09-.13a1.53,1.53,0,0,1,.14-.21.21.21,0,0,0,0-.07l0-.09.09-.18S93,58,93,57.94a1.42,1.42,0,0,0,.08-.18.41.41,0,0,0,0-.08.41.41,0,0,1,0-.08,1.27,1.27,0,0,1,.06-.18c0-.06,0-.1,0-.16l0-.19a.16.16,0,0,1,0-.09.15.15,0,0,1,0-.06,1.13,1.13,0,0,0,0-.18c0-.06,0-.11,0-.17s0-.12,0-.18a.22.22,0,0,1,0-.11v-2.7a.79.79,0,0,1,0,.23Z" transform="translate(0 -5.66)"/><path class="cls-16" d="M89.85,48.56c4.77,2.75,4.8,7.24.06,10s-12.46,2.75-17.23,0-4.8-7.24-.06-10,12.46-2.75,17.23,0Z" transform="translate(0 -5.66)"/><path class="cls-17" d="M93.43,50.33a1.09,1.09,0,0,1,0,.18c0,.06,0,.11,0,.17a1.13,1.13,0,0,1,0,.18,1,1,0,0,1,0,.17l0,.18,0,.17a.64.64,0,0,1-.06.18,1.56,1.56,0,0,1-.06.15l-.08.18S93,52,93,52l-.09.19a.53.53,0,0,0-.08.15l-.14.21-.09.14a2.5,2.5,0,0,0-.16.24s0,.08-.08.11a3.45,3.45,0,0,1-.32.36l-.09.09-.27.28-.14.12c-.06,0-.12.1-.18.15l-.17.14-.2.15-.18.14-.21.15a1.74,1.74,0,0,1-.2.13l-.23.14a2,2,0,0,1-.29.17c-.18.1-.36.21-.56.3a.89.89,0,0,1-.17.08l-.45.21-.15.08c-.2.09-.4.16-.61.24l-.11.05-.53.18-.23.07-.3.09-.26.08-.3.08a2.44,2.44,0,0,0-.26.06l-.31.07a2.27,2.27,0,0,1-.25.06l-.32.06-.25,0c-.22,0-.45.08-.68.11H84l-.6.08a1.6,1.6,0,0,0-.23,0c-.14,0-.26,0-.4,0h-.24a2.82,2.82,0,0,1-.41,0H80.35a1,1,0,0,1-.24,0,2.43,2.43,0,0,1-.38,0h-.21L79.06,57h-.14L78.35,57h-.09l-.51-.08-.19,0-.38-.08-.2,0-.41-.09-.23-.06L76,56.47l-.22-.07-.57-.18a.45.45,0,0,1-.11,0L74.44,56a.38.38,0,0,1-.13-.06,7.32,7.32,0,0,1-.81-.35l-.07,0c-.28-.14-.55-.28-.81-.43a8.67,8.67,0,0,1-2.46-2,5.28,5.28,0,0,1-1-2c0-.1,0-.23-.08-.33a5.36,5.36,0,0,1-.06-.69v2.6c0,1.82,1.2,3.65,3.6,5,.26.15.54.29.81.43l.08,0c.25.12.53.24.8.35l.08,0s0,0,.06,0c.21.07.42.16.64.22a.38.38,0,0,0,.1,0c.18.07.38.13.58.19a.32.32,0,0,1,.09,0,.45.45,0,0,1,.11,0l.36.09a2,2,0,0,1,.23.06l.41.09a.44.44,0,0,0,.15,0,.06.06,0,0,1,.05,0l.38.07a.63.63,0,0,0,.19,0l.51.08h.09l.57.08a.3.3,0,0,1,.13,0l.47,0h0l.21,0,.38,0h.25l.35,0H82a.5.5,0,0,0,.17,0h.41l.24,0,.4,0h.14l.09,0a4.11,4.11,0,0,0,.6-.08h.1l.68-.11h.06a.57.57,0,0,1,.18,0l.32-.06.26-.06.32-.08a2.44,2.44,0,0,1,.26-.06l.3-.08.26-.07L87,58.9l.13,0a.38.38,0,0,0,.1,0l.53-.18.1,0c.22-.07.41-.16.61-.24l.15-.08c.16-.07.31-.13.46-.21l.17-.08a6,6,0,0,0,.56-.3l.15-.09.14-.09.23-.14.19-.14a1.43,1.43,0,0,0,.22-.15l.18-.13a1.75,1.75,0,0,1,.2-.16l.16-.13.18-.15s0,0,.08-.07L92,56l.32-.37h0a.47.47,0,0,0,.06-.09,2.07,2.07,0,0,0,.17-.24l.09-.14A1.53,1.53,0,0,1,92.8,55l0-.06,0-.1.09-.18s.05-.1.08-.15a1.42,1.42,0,0,0,.08-.18.41.41,0,0,0,0-.08.21.21,0,0,1,0-.07,1.06,1.06,0,0,1,.06-.19c0-.06,0-.1,0-.16l0-.19a.16.16,0,0,1,0-.09.15.15,0,0,1,0-.06,1.13,1.13,0,0,0,0-.18c0-.06,0-.11,0-.17s0-.12,0-.18a.22.22,0,0,1,0-.11V50.1a.86.86,0,0,1,0,.23Z" transform="translate(0 -5.66)"/><path class="cls-18" d="M89.85,45.09c4.77,2.75,4.8,7.23.06,10s-12.46,2.75-17.23,0-4.8-7.23-.06-10,12.46-2.75,17.23,0Z" transform="translate(0 -5.66)"/><path class="cls-19" d="M93.43,46.56a1.09,1.09,0,0,1,0,.18c0,.06,0,.11,0,.17a1.13,1.13,0,0,1,0,.18,1,1,0,0,1,0,.17l0,.18,0,.17a.64.64,0,0,1-.06.18.67.67,0,0,1-.06.15l-.08.18c0,.05,0,.11-.07.16l-.09.18a.53.53,0,0,0-.08.15,1.53,1.53,0,0,1-.14.21l-.09.14c-.06.08-.1.15-.16.24s0,.08-.08.11a3.45,3.45,0,0,1-.32.36l-.09.1-.27.27-.14.12c-.06.05-.12.11-.18.15l-.17.14a1.73,1.73,0,0,1-.2.15l-.18.14-.21.15-.2.14-.23.13a2,2,0,0,1-.29.17,5,5,0,0,1-.56.3.89.89,0,0,1-.17.08l-.45.21-.15.08a6.44,6.44,0,0,1-.61.24l-.11,0-.53.18a2.09,2.09,0,0,0-.23.08l-.3.09-.26.07-.3.08a2.44,2.44,0,0,0-.26.06,2.81,2.81,0,0,0-.31.08,2.27,2.27,0,0,0-.25.06,3,3,0,0,0-.32.06l-.25,0c-.22,0-.45.08-.68.11H84l-.6.08a1.6,1.6,0,0,0-.23,0,2.69,2.69,0,0,1-.4,0l-.24,0h-.41a.9.9,0,0,0-.23,0H80.7l-.35,0h-.24l-.38,0-.21,0-.46,0h-.14l-.57-.08h-.09l-.51-.08-.19,0L77.18,53l-.2-.05-.41-.09-.23-.06L76,52.7a1.8,1.8,0,0,0-.22-.06l-.57-.19a.45.45,0,0,1-.11,0l-.64-.22a.75.75,0,0,1-.13-.06c-.28-.11-.55-.23-.81-.35l-.07,0c-.28-.14-.55-.27-.81-.43a8.5,8.5,0,0,1-2.46-2,5.28,5.28,0,0,1-1-2c0-.1,0-.22-.08-.33a5.36,5.36,0,0,1-.06-.68v2.59c0,1.83,1.2,3.65,3.6,5,.26.15.54.29.81.43l.08,0a7.17,7.17,0,0,0,.8.35l.08,0s0,0,.06,0c.21.07.42.17.64.23a.38.38,0,0,1,.1,0l.58.18a.32.32,0,0,1,.09,0,.45.45,0,0,1,.11,0l.36.09a2,2,0,0,0,.23.06l.41.09.15,0a.06.06,0,0,1,.05,0l.38.07a.65.65,0,0,0,.19,0,4.46,4.46,0,0,0,.51.07l.09,0,.57.07a.3.3,0,0,1,.13,0l.47,0h0l.21,0,.38,0h.25l.35,0H82a.5.5,0,0,0,.17,0h.41l.24,0,.4,0h.14l.09,0c.19,0,.41,0,.6-.07l.1,0,.68-.1a.08.08,0,0,0,.06,0l.18,0,.32-.06.26-.06.32-.08a2.44,2.44,0,0,0,.26-.06l.3-.07a2.58,2.58,0,0,1,.26-.08l.29-.09.13-.05a.38.38,0,0,0,.1,0l.53-.18.1,0c.22-.07.41-.16.61-.24a.41.41,0,0,0,.15-.07l.46-.22a.61.61,0,0,1,.17-.07,6.12,6.12,0,0,0,.56-.31l.15-.09.14-.09.23-.14.19-.13a1.53,1.53,0,0,0,.22-.16l.18-.13a1,1,0,0,1,.2-.15l.16-.14.18-.15s0,0,.08-.06l.43-.43.32-.36v0a.47.47,0,0,0,.06-.09,2.07,2.07,0,0,0,.17-.24l.09-.14a1.53,1.53,0,0,1,.14-.21.33.33,0,0,0,0-.06l0-.09.09-.19s.05-.1.08-.15a1.42,1.42,0,0,0,.08-.18.41.41,0,0,0,0-.08.21.21,0,0,1,0-.07,1.27,1.27,0,0,1,.06-.18c0-.07,0-.11,0-.17l0-.18a.22.22,0,0,1,0-.1.15.15,0,0,1,0-.06,1.13,1.13,0,0,0,0-.18c0-.06,0-.1,0-.17s0-.12,0-.18a.18.18,0,0,1,0-.1V46.33a.9.9,0,0,1,0,.23Z" transform="translate(0 -5.66)"/><path class="cls-20" d="M89.85,41.32c4.77,2.75,4.8,7.23.06,10s-12.46,2.75-17.23,0-4.8-7.23-.06-10,12.46-2.77,17.23,0Z" transform="translate(0 -5.66)"/><path class="cls-21" d="M93.43,43.06a1.15,1.15,0,0,1,0,.19c0,.06,0,.1,0,.16a1.08,1.08,0,0,1,0,.19.9.9,0,0,1,0,.16l0,.19,0,.16a.82.82,0,0,1-.06.19,1.56,1.56,0,0,1-.06.15l-.08.18s0,.11-.07.15l-.09.18a.8.8,0,0,0-.08.16l-.14.21-.09.14a2.5,2.5,0,0,0-.16.24l-.08.1a2.73,2.73,0,0,1-.32.37l-.36.36-.14.13c-.06,0-.12.1-.18.15l-.17.13a1.75,1.75,0,0,1-.2.16l-.18.13-.21.15a1,1,0,0,1-.2.14l-.23.14a2,2,0,0,1-.29.17c-.18.1-.36.21-.56.3a.89.89,0,0,1-.17.08l-.45.21c-.05,0-.11,0-.15.07a6.5,6.5,0,0,1-.61.25l-.11,0-.53.18a2.09,2.09,0,0,1-.23.08l-.3.09-.26.08a1.84,1.84,0,0,1-.3.07,2.44,2.44,0,0,1-.26.06c-.11,0-.21,0-.31.08a2.27,2.27,0,0,1-.25.06l-.32.06-.25.05-.68.1-.11,0-.6.08a1.6,1.6,0,0,0-.23,0c-.14,0-.26,0-.4,0h-.24a2.82,2.82,0,0,1-.41,0H80.35a1,1,0,0,1-.24,0,2.43,2.43,0,0,1-.38,0h-.21l-.46,0h-.14l-.57-.08-.09,0-.51-.07a.63.63,0,0,0-.19,0l-.38-.08-.2,0-.41-.1a1,1,0,0,1-.23-.06L76,49.2a1.8,1.8,0,0,1-.22-.06L75.19,49a.45.45,0,0,0-.11,0l-.64-.23a.38.38,0,0,1-.13-.06c-.28-.11-.55-.23-.81-.35l-.07,0c-.28-.14-.55-.28-.81-.43a8.52,8.52,0,0,1-2.46-2,5.24,5.24,0,0,1-1-2,3.18,3.18,0,0,0-.08-.33,5.36,5.36,0,0,1-.06-.69v2.6c0,1.82,1.2,3.65,3.6,5,.26.15.54.29.81.42l.08,0c.25.12.53.24.8.35l.08,0h.06c.21.08.42.17.64.23a.38.38,0,0,0,.1,0l.58.18.09,0a.45.45,0,0,1,.11,0l.36.09a2,2,0,0,1,.23.06L77,52l.15,0h.05l.38.08a.63.63,0,0,0,.19,0l.51.08h.09l.57.08H79l.47,0h.22l.38,0a1.06,1.06,0,0,1,.25,0h1.79l.41,0h.24l.4,0a.36.36,0,0,0,.14,0h.09l.6-.08h.1l.68-.11h.06a.57.57,0,0,1,.18,0l.32-.07a1.22,1.22,0,0,0,.26-.06l.32-.07a2.44,2.44,0,0,1,.26-.06l.3-.08a2.58,2.58,0,0,0,.26-.08l.29-.09.13,0a.38.38,0,0,1,.1,0l.53-.18.1-.05.61-.24.15-.08.46-.21.17-.08c.19-.09.38-.2.56-.3l.15-.09.14-.09.23-.14.19-.14a1.43,1.43,0,0,0,.22-.15l.18-.14.2-.15.16-.13.18-.16s0,0,.08-.06l.06-.06.27-.27.1-.09.32-.37h0a.47.47,0,0,0,.06-.09,2.2,2.2,0,0,0,.17-.25l.09-.13c0-.08.09-.14.14-.22a.11.11,0,0,0,0-.06l0-.09.09-.18c0-.05.05-.11.08-.15a1.08,1.08,0,0,0,.08-.19s0-.06,0-.07a.26.26,0,0,1,0-.08,1.27,1.27,0,0,1,.06-.18c0-.06,0-.11,0-.17l0-.18a.16.16,0,0,1,0-.09s0-.05,0-.06a1.13,1.13,0,0,0,0-.18c0-.06,0-.11,0-.17s0-.12,0-.18a.22.22,0,0,1,0-.11v-2.7a.72.72,0,0,1,0,.22Z" transform="translate(0 -5.66)"/><path class="cls-22" d="M89.85,37.84c4.77,2.75,4.8,7.23.06,10s-12.46,2.75-17.23,0-4.8-7.23-.06-10,12.46-2.77,17.23,0Z" transform="translate(0 -5.66)"/><path class="cls-23" d="M86.73,41.2a.57.57,0,0,1,.25.26c.09.2,0,.41-.25.57l-2,1.17,2.09,1.21.06,0a.47.47,0,0,1,.27.55.92.92,0,0,1-.74.44,1.63,1.63,0,0,1-1-.16,0,0,0,0,1,0,0L83.28,44l-2.23,1.29a1.62,1.62,0,0,1-1.38,0c-.38-.23-.4-.58,0-.82l2.23-1.29-1-.56-2.23,1.3a1.51,1.51,0,0,1-1,.19,2,2,0,0,1-.49-.16.7.7,0,0,1-.27-.27c-.09-.21,0-.44.31-.59l1.64-1H75.22a1.41,1.41,0,0,1-.71-.18.48.48,0,0,1-.29-.41c0-.33.45-.59,1-.59h4.31l0-2.49c0-.21.19-.4.5-.5a1.74,1.74,0,0,1,1,0,.72.72,0,0,1,.2.09.49.49,0,0,1,.3.41l0,2.11,1.35-.78a1.52,1.52,0,0,1,1-.15,1.32,1.32,0,0,1,.45.15.54.54,0,0,1,.26.26c.09.21,0,.42-.26.57l-2,1.18,1,.55,2-1.17a1.5,1.5,0,0,1,1-.16,1.65,1.65,0,0,1,.49.16Z" transform="translate(0 -5.66)"/><path class="cls-24" d="M86.73,40.47a.62.62,0,0,1,.25.26c.09.21,0,.41-.25.57l-2,1.18,2.09,1.21h.06a.48.48,0,0,1,.27.56.91.91,0,0,1-.74.43,1.63,1.63,0,0,1-1-.16,0,0,0,0,1,0,0l-2.1-1.21-2.23,1.3a1.62,1.62,0,0,1-1.38,0c-.38-.23-.4-.57,0-.81l2.23-1.3-1-.55L78.68,43.2a1.4,1.4,0,0,1-1,.19,1.66,1.66,0,0,1-.49-.15.72.72,0,0,1-.27-.28c-.09-.21,0-.43.31-.59l1.64-.95H75.22a1.52,1.52,0,0,1-.71-.17.5.5,0,0,1-.29-.42c0-.33.45-.58,1-.58h4.31l0-2.5c0-.2.19-.39.5-.5a1.74,1.74,0,0,1,1,0,.72.72,0,0,1,.2.09.5.5,0,0,1,.3.41l0,2.11,1.35-.77a1.46,1.46,0,0,1,1-.16,1.32,1.32,0,0,1,.45.16.47.47,0,0,1,.26.26c.09.2,0,.41-.26.57l-2,1.17,1,.56,2-1.18a1.5,1.5,0,0,1,1-.16,1.65,1.65,0,0,1,.49.16Z" transform="translate(0 -5.66)"/></g></g></svg>