<?xml version="1.0" encoding="UTF-8"?>
<svg width="18px" height="18px" viewBox="0 0 18 18" version="1.1" xmlns="http://www.w3.org/2000/svg" xmlns:xlink="http://www.w3.org/1999/xlink">
    <!-- Generator: Sketch 51.1 (57501) - http://www.bohemiancoding.com/sketch -->
    <title>链接</title>
    <desc>Created with Sketch.</desc>
    <defs></defs>
    <g id="C2C" stroke="none" stroke-width="1" fill="none" fill-rule="evenodd">
        <g id="法币首页-购买详情" transform="translate(-1282.000000, -783.000000)" fill="#BDBCCB">
            <g id="发送" transform="translate(1242.000000, 783.000000)">
                <g id="链接" transform="translate(40.000000, 0.000000)">
                    <g id="Shape">
                        <path d="M16.7563544,1.31718602 L16.6843341,1.2452469 C15.9133612,0.479445321 14.8505688,0.00606764374 13.6770542,0.00606764374 C12.5035395,0.00606764374 11.4407472,0.479445321 10.6695914,1.24542954 L6.83813093,5.07407215 C6.07136343,5.84441939 5.59741084,6.90627734 5.59741084,8.07869222 C5.59741084,9.2511071 6.07136343,10.3129651 6.83831377,11.0835355 L6.90862754,11.1522683 C7.04515124,11.2901398 7.19368172,11.4145163 7.34369526,11.529903 L8.74493228,10.1272424 C8.40309481,9.92571139 8.12626862,9.64755355 7.93225056,9.31525366 L8.21685779,9.70616009 C7.80068397,9.28929876 7.54332054,8.71402931 7.54332054,8.07871251 C7.54332054,7.44339572 7.80066366,6.86812627 8.21689842,6.45122435 L12.0515079,2.62093799 C12.4681896,2.20503044 13.0436614,1.94779481 13.6792889,1.94779481 C14.3149165,1.94779481 14.8903883,2.20501015 15.30707,2.62093799 L15.3775666,2.69135513 C15.7941061,3.10805411 16.0517133,3.68338444 16.0517133,4.31880271 C16.0517133,4.95422097 15.7941061,5.5295513 15.377526,5.94627057 L13.6447517,7.67859301 C13.9447991,8.42188952 14.0873363,9.21313867 14.0738262,10.0013641 L16.7562935,7.32642616 C17.524219,6.55632244 17.9989842,5.49407892 17.9989842,4.32103495 C17.9989842,3.14876212 17.5248284,2.0871071 16.757614,1.31698309 L16.7563544,1.31718602 Z M11.0928555,6.83190304 C10.6410271,6.38724014 10.0889391,6.04288613 9.47366817,5.83581511 L9.25502709,7.85841037 C9.41855079,7.95431567 9.57307449,8.07120406 9.71260497,8.21057723 L9.78462528,8.28251635 C10.2002709,8.69907328 10.4572889,9.27379481 10.4572889,9.90846223 C10.4572889,10.5431297 10.2002912,11.1178715 9.78456433,11.534469 L5.95145824,15.3632537 C5.53420767,15.7785321 4.95857336,16.0352807 4.32292551,16.0352807 C3.68727765,16.0352807 3.11164334,15.7785321 2.69431151,15.3631928 L2.62237246,15.2928162 C2.20636117,14.8764419 1.94909932,14.3016595 1.94909932,13.6668703 C1.94909932,13.0320812 2.20636117,12.4572988 2.62241309,12.0408839 L4.35667043,10.30708 C4.0837246,9.65023224 3.92519865,8.88731229 3.92519865,8.08741826 C3.92519865,8.05115445 3.9255237,8.01497182 3.92617381,7.97889064 L1.2436456,10.6607689 C0.476878104,11.4311161 0.0029255079,12.4929741 0.0029255079,13.665389 C0.0029255079,14.8378038 0.476878104,15.8996618 1.24382844,16.6702322 L1.31562528,16.7404667 C2.08684199,17.5063698 3.14989842,17.979788 4.32363657,17.979788 C5.49737472,17.979788 6.56043115,17.5063698 7.33187133,16.7402841 L11.1633318,12.9116415 C11.9293679,12.1409696 12.4028126,11.0792131 12.4028126,9.90702142 C12.4028126,8.73482976 11.9293883,7.67307328 11.163088,6.90215784 L11.0928352,6.83348591 L11.0928555,6.83190304 Z" fill-rule="nonzero"></path>
                    </g>
                </g>
            </g>
        </g>
    </g>
</svg>