<?xml version="1.0" encoding="UTF-8"?>
<svg width="20px" height="22px" viewBox="0 0 20 22" version="1.1" xmlns="http://www.w3.org/2000/svg" xmlns:xlink="http://www.w3.org/1999/xlink">
    <!-- Generator: Sketch 51.3 (57544) - http://www.bohemiancoding.com/sketch -->
    <title>android</title>
    <desc>Created with Sketch.</desc>
    <defs></defs>
    <g id="首页+交易" stroke="none" stroke-width="1" fill="none" fill-rule="evenodd">
        <g id="Index-新1-Copy-6" transform="translate(-470.000000, -1943.000000)" fill="#333333" fill-rule="nonzero">
            <g id="Group-13" transform="translate(-16.000000, 1684.000000)">
                <g id="Group-12" transform="translate(376.000000, 190.000000)">
                    <g id="Group-9" transform="translate(0.000000, 60.000000)">
                        <g id="android" transform="translate(110.000000, 9.000000)">
                            <path d="M18.5714286,8.25 C17.7857143,8.25 17.1428571,8.86875 17.1428571,9.625 L17.1428571,15.125 C17.1428571,15.88125 17.7857143,16.5 18.5714286,16.5 C19.3571429,16.5 20,15.88125 20,15.125 L20,9.625 C20,8.86875 19.3571429,8.25 18.5714286,8.25 Z M1.42857143,8.25 C0.642857143,8.25 0,8.86875 0,9.625 L0,15.125 C0,15.88125 0.642857143,16.5 1.42857143,16.5 C2.21428571,16.5 2.85714286,15.88125 2.85714286,15.125 L2.85714286,9.625 C2.85714286,8.86875 2.21428571,8.25 1.42857143,8.25 Z M3.57142857,15.8125 C3.57142857,16.9516875 4.53071429,17.875 5.71428571,17.875 L5.71428571,20.625 C5.71428571,21.38125 6.35714286,22 7.14285714,22 C7.92857143,22 8.57142857,21.38125 8.57142857,20.625 L8.57142857,17.875 L11.4285714,17.875 L11.4285714,20.625 C11.4285714,21.38125 12.0714286,22 12.8571429,22 C13.6428571,22 14.2857143,21.38125 14.2857143,20.625 L14.2857143,17.875 C15.4692857,17.875 16.4285714,16.9516875 16.4285714,15.8125 L16.4285714,8.25 L3.57142857,8.25 L3.57142857,15.8125 Z" id="Shape"></path>
                            <path d="M16.3885714,6.875 C16.1714286,4.987125 15.0714286,3.3556875 13.495,2.3711875 L14.21,0.9955 C14.3864286,0.655875 14.2435714,0.2426875 13.8907143,0.072875 C13.5378571,-0.0969375 13.1085714,0.0405625 12.9321429,0.3801875 L12.215,1.761375 L12.0285714,1.689875 C11.3907143,1.4856875 10.7085714,1.375 10,1.375 C9.29142857,1.375 8.60928571,1.4856875 7.97142857,1.689875 L7.785,1.761375 L7.06785714,0.3801875 C6.89142857,0.0405625 6.46214286,-0.0969375 6.10928571,0.072875 C5.75642857,0.2426875 5.61357143,0.655875 5.79,0.9955 L6.505,2.3711875 C4.92857143,3.356375 3.82857143,4.987125 3.61142857,6.875 L3.61142857,7.5625 L16.4285714,7.5625 L16.4285714,6.875 L16.3885714,6.875 Z M7.85714286,5.5 C7.46285714,5.5 7.14285714,5.192 7.14285714,4.8125 C7.14285714,4.433 7.46214286,4.1256875 7.85571429,4.125 C7.85642857,4.125 7.85714286,4.125 7.85785714,4.125 C7.85857143,4.125 7.85857143,4.125 7.85928571,4.125 C8.25285714,4.1256875 8.57214286,4.433 8.57214286,4.8125 C8.57214286,5.192 8.25214286,5.5 7.85785714,5.5 L7.85714286,5.5 Z M12.1428571,5.5 C11.7485714,5.5 11.4285714,5.192 11.4285714,4.8125 C11.4285714,4.433 11.7471429,4.1256875 12.1414286,4.125 C12.1414286,4.125 12.1421429,4.125 12.1428571,4.125 C12.1435714,4.125 12.1442857,4.125 12.145,4.125 C12.5385714,4.1256875 12.8578571,4.433 12.8578571,4.8125 C12.8578571,5.192 12.5378571,5.5 12.1435714,5.5 L12.1428571,5.5 Z" id="Shape"></path>
                        </g>
                    </g>
                </g>
            </g>
        </g>
    </g>
</svg>