<svg xmlns="http://www.w3.org/2000/svg" viewBox="0 0 129 134.9"><defs><style>.cls-1,.cls-2{fill:none;stroke:#ba9156;}.cls-1{stroke-miterlimit:10;}.cls-2{stroke-linecap:round;stroke-linejoin:round;stroke-width:2px;}</style></defs><title>资源 20</title><g id="图层_2" data-name="图层 2"><g id="图层_1-2" data-name="图层 1"><path class="cls-1" d="M68.42,1.77a6.7,6.7,0,0,0-7.84,0L46.49,12h36Z"/><path class="cls-1" d="M22.73,118.28a6.66,6.66,0,0,0,6.34,4.61H46.49L17.34,101.71Z"/><path class="cls-1" d="M3.25,43.43A6.64,6.64,0,0,0,.83,50.88L6.21,67.45,17.34,33.19Z"/><path class="cls-1" d="M99.93,122.89a6.66,6.66,0,0,0,6.34-4.61l5.39-16.57L82.51,122.89Z"/><path class="cls-1" d="M128.17,50.88a6.64,6.64,0,0,0-2.42-7.45L111.66,33.19l11.13,34.26Z"/><path class="cls-1" d="M46.49,12H29.07a6.66,6.66,0,0,0-6.34,4.61L17.34,33.19,6.21,67.45.83,84a6.64,6.64,0,0,0,2.42,7.45l14.09,10.24,29.15,21.18,14.09,10.24a6.7,6.7,0,0,0,7.84,0l14.09-10.24,29.15-21.18,14.09-10.24A6.64,6.64,0,0,0,128.17,84l-5.38-16.57L111.66,33.19l-5.39-16.57A6.66,6.66,0,0,0,99.93,12H46.49Z"/><path class="cls-2" d="M44.94,55l-4.52,2.61S38,58.9,38,60.57V86.8a3.48,3.48,0,0,0,3.48,3.48H87.53A3.48,3.48,0,0,0,91,86.8V60.57c0-1.67-2.43-3-2.43-3L84.23,55.1m0,6.11V45a2.58,2.58,0,0,0-2.43-2.71H47.38A2.58,2.58,0,0,0,44.94,45V61.11M46.43,69,64.51,79.65,43.22,67.14M62.74,47.77H77.28m-27.1.62a.79.79,0,0,1,.8-.79h7.13a.79.79,0,0,1,.79.79v7.16a.79.79,0,0,1-.79.8H51a.8.8,0,0,1-.8-.8Zm0,12.82H77.45M62.9,54.06H77.45M86,67.24,64.51,79.65"/></g></g></svg>