<?xml version="1.0" encoding="UTF-8"?>
<svg width="16px" height="16px" viewBox="0 0 16 16" version="1.1" xmlns="http://www.w3.org/2000/svg" xmlns:xlink="http://www.w3.org/1999/xlink">
    <!-- Generator: Sketch 51.3 (57544) - http://www.bohemiancoding.com/sketch -->
    <title>Combined Shape</title>
    <desc>Created with Sketch.</desc>
    <defs></defs>
    <g id="Page-1" stroke="none" stroke-width="1" fill="none" fill-rule="evenodd">
        <g id="图标" transform="translate(-725.000000, -1760.000000)" fill="#A5A9BE" fill-rule="nonzero">
            <path d="M739.189155,1767.73071 L740.697945,1769.2395 C741.100685,1769.64224 741.100685,1770.29521 740.697945,1770.69795 C740.295206,1771.10068 739.642236,1771.10068 739.239497,1770.69795 L737.730706,1769.18915 C736.945663,1769.70193 736.00764,1770 735,1770 C732.238576,1770 730,1767.76142 730,1765 C730,1762.23858 732.238576,1760 735,1760 C737.761424,1760 740,1762.23858 740,1765 C740,1766.00764 739.701931,1766.94566 739.189155,1767.73071 Z M730.101017,1760 C729.515133,1760.57412 729.02973,1761.2504 728.673631,1762 L726,1762 C725.447715,1762 725,1761.55228 725,1761 C725,1760.44772 725.447715,1760 726,1760 L730.101017,1760 Z M728.289879,1767 C728.504886,1767.72243 728.833381,1768.39599 729.254689,1769 L726,1769 C725.447715,1769 725,1768.55228 725,1768 C725,1767.44772 725.447715,1767 726,1767 L728.289879,1767 Z M726,1774 L740,1774 C740.552285,1774 741,1774.44772 741,1775 C741,1775.55228 740.552285,1776 740,1776 L726,1776 C725.447715,1776 725,1775.55228 725,1775 C725,1774.44772 725.447715,1774 726,1774 Z M735,1768 C736.656854,1768 738,1766.65685 738,1765 C738,1763.34315 736.656854,1762 735,1762 C733.343146,1762 732,1763.34315 732,1765 C732,1766.65685 733.343146,1768 735,1768 Z" id="Combined-Shape"></path>
        </g>
    </g>
</svg>