<?xml version="1.0" encoding="utf-8"?>
<!-- Generator: Adobe Illustrator 22.0.1, SVG Export Plug-In . SVG Version: 6.00 Build 0)  -->
<svg version="1.1" id="图层_1" xmlns="http://www.w3.org/2000/svg" xmlns:xlink="http://www.w3.org/1999/xlink" x="0px" y="0px"
	 viewBox="0 0 14 16" style="enable-background:new 0 0 14 16;" xml:space="preserve">
<style type="text/css">
	.st0{fill:#14A2A5;}
</style>
<title>Shape Copy 7</title>
<desc>Created with Sketch.</desc>
<g id="首页_x2B_交易">
	<g id="Index-新1-Copy-6" transform="translate(-1746.000000, -40.000000)">
		<g id="首页头部导航">
			<g id="Group-18" transform="translate(30.000000, 3.000000)">
				<g>
					<g id="User" transform="translate(1646.000000, 10.000000)">
						<g id="Group-14">
							<path id="Shape-Copy-7" class="st0" d="M80.9,33.2l0,0.1c-0.1,0.3-0.3,0.5-0.5,0.8c0.3,0.1,0.5,0.3,0.7,0.5l0,0.2
								c0,0,0-0.1,0.1-0.1c1.7,1.3,2.7,3.3,2.7,5.4c0,0.2,0,0.4,0,0.7v0.7c0,0.8-0.7,1.5-1.5,1.5H71.5c-0.8,0-1.5-0.7-1.5-1.5v-0.7
								c0-0.3,0-0.6,0-0.7c0-2.1,1-4.2,2.7-5.4c0,0,0,0.1,0.1,0.1l0-0.2c0.2-0.2,0.5-0.3,0.7-0.5c-0.2-0.2-0.4-0.5-0.5-0.8l0-0.1
								c0,0,0,0-0.1,0c-0.9-1.8-0.4-4,1.2-5.3c1.9-1.5,4.7-1.2,6.2,0.7C81.5,30,81.7,31.8,80.9,33.2C81,33.2,80.9,33.2,80.9,33.2z
								 M82.5,42c0.3,0,0.5-0.2,0.5-0.5v-0.7c0-0.3,0-0.6,0-0.7c0-2.1-1.2-4.1-3-5.1l-1-0.6l0.8-0.9c1-1.2,1-3,0-4.2
								c-1.2-1.5-3.3-1.7-4.8-0.5c-1.5,1.2-1.7,3.3-0.5,4.7l0.8,0.9L74,35c-1.9,1-3,3-3,5.1c0,0.2,0,0.4,0,0.7v0.7
								c0,0.2,0.2,0.5,0.5,0.5H82.5z M75.5,37h3c0.3,0,0.5,0.2,0.5,0.5S78.8,38,78.5,38h-3c-0.3,0-0.5-0.2-0.5-0.5S75.2,37,75.5,37z
								 M75.5,39h3c0.3,0,0.5,0.2,0.5,0.5S78.8,40,78.5,40h-3c-0.3,0-0.5-0.2-0.5-0.5S75.2,39,75.5,39z"/>
						</g>
					</g>
				</g>
			</g>
		</g>
	</g>
</g>
</svg>
