<svg xmlns="http://www.w3.org/2000/svg" xmlns:xlink="http://www.w3.org/1999/xlink" viewBox="0 0 120.02 94.76"><defs><style>.cls-1{fill:none;}.cls-2{fill:#e8cfac;}.cls-3{clip-path:url(#clip-path);}.cls-4{fill:url(#未命名的渐变_48);}.cls-5{fill:url(#未命名的渐变_85);}.cls-6{fill:url(#未命名的渐变_48-2);}.cls-7{fill:url(#未命名的渐变_48-3);}.cls-8{fill:url(#未命名的渐变_79);}.cls-9{fill:url(#未命名的渐变_48-4);}.cls-10{fill:url(#未命名的渐变_48-5);}.cls-11{fill:url(#未命名的渐变_48-6);}.cls-12{fill:#fff;}.cls-13{fill:url(#未命名的渐变_48-7);}.cls-14{fill:url(#未命名的渐变_79-2);}.cls-15{fill:url(#未命名的渐变_48-8);}.cls-16{fill:url(#未命名的渐变_48-9);}.cls-17{fill:url(#未命名的渐变_48-10);}.cls-18{clip-path:url(#clip-path-2);}.cls-19{isolation:isolate;}.cls-20{clip-path:url(#clip-path-3);}.cls-21{clip-path:url(#clip-path-4);}.cls-22{clip-path:url(#clip-path-5);}</style><clipPath id="clip-path" transform="translate(0 -0.15)"><rect class="cls-1" x="0.02" width="120" height="95.09"/></clipPath><linearGradient id="未命名的渐变_48" y1="74.99" x2="120.02" y2="74.99" gradientUnits="userSpaceOnUse"><stop offset="0" stop-color="#d6a55b"/><stop offset="1" stop-color="#e9d7b1"/></linearGradient><linearGradient id="未命名的渐变_85" x1="0.06" y1="55.14" x2="120.02" y2="55.14" gradientUnits="userSpaceOnUse"><stop offset="0" stop-color="#fcf9f5"/><stop offset="1" stop-color="#f3e7d7"/></linearGradient><linearGradient id="未命名的渐变_48-2" x1="67.23" y1="13.1" x2="81.5" y2="13.1" xlink:href="#未命名的渐变_48"/><linearGradient id="未命名的渐变_48-3" x1="32.5" y1="54.49" x2="36" y2="54.49" xlink:href="#未命名的渐变_48"/><linearGradient id="未命名的渐变_79" x1="25.35" y1="34.77" x2="82.25" y2="34.77" gradientUnits="userSpaceOnUse"><stop offset="0" stop-color="#f0e4de"/><stop offset="1" stop-color="#ebd7c0"/></linearGradient><linearGradient id="未命名的渐变_48-4" x1="23.08" y1="26.18" x2="69.04" y2="26.18" xlink:href="#未命名的渐变_48"/><linearGradient id="未命名的渐变_48-5" x1="47" y1="46.99" x2="58.48" y2="46.99" xlink:href="#未命名的渐变_48"/><linearGradient id="未命名的渐变_48-6" x1="48.25" y1="48.73" x2="60.18" y2="48.73" xlink:href="#未命名的渐变_48"/><linearGradient id="未命名的渐变_48-7" x1="90.27" y1="48.81" x2="94.03" y2="48.81" xlink:href="#未命名的渐变_48"/><linearGradient id="未命名的渐变_79-2" x1="68.69" y1="52.7" x2="94.13" y2="52.7" xlink:href="#未命名的渐变_79"/><linearGradient id="未命名的渐变_48-8" x1="66.28" y1="51.99" x2="93.94" y2="51.99" xlink:href="#未命名的渐变_48"/><linearGradient id="未命名的渐变_48-9" x1="73.59" y1="54.74" x2="89.21" y2="54.74" xlink:href="#未命名的渐变_48"/><linearGradient id="未命名的渐变_48-10" x1="73.58" y1="49.53" x2="89.19" y2="49.53" xlink:href="#未命名的渐变_48"/><clipPath id="clip-path-2" transform="translate(0 -0.15)"><path class="cls-2" d="M89.35,49.68l1.61.93a.84.84,0,0,0-.84.08l-1.61-.93A.82.82,0,0,1,89.35,49.68Z"/></clipPath><clipPath id="clip-path-3" transform="translate(0 -0.15)"><path class="cls-2" d="M76,61.14l-1.61-.93a.85.85,0,0,1-.35-.76,2.62,2.62,0,0,1,1.18-2l1.6.93a2.65,2.65,0,0,0-1.17,2A.8.8,0,0,0,76,61.14Z"/></clipPath><clipPath id="clip-path-4" transform="translate(0 -0.15)"><path class="cls-2" d="M89.34,44.47l1.61.94a.84.84,0,0,0-.85.08l-1.61-.93A.87.87,0,0,1,89.34,44.47Z"/></clipPath><clipPath id="clip-path-5" transform="translate(0 -0.15)"><path class="cls-2" d="M76,55.93,74.41,55a.84.84,0,0,1-.34-.76,2.61,2.61,0,0,1,1.17-2l1.61.93a2.56,2.56,0,0,0-1.17,2A.81.81,0,0,0,76,55.93Z"/></clipPath></defs><title>资源 9</title><g id="图层_2" data-name="图层 2"><g id="图层_1-2" data-name="图层 1"><g class="cls-3"><path class="cls-4" d="M120,55.38c-.16,1.68-1.7,2.51-3,3.27s-2.43,1.42-3.64,2.12l-5.82,3.38c-2.44,1.41-4.86,2.83-7.29,4.23-2.68,1.55-5.36,3.12-8,4.67l-8.1,4.7-7.42,4.32-6.06,3.52-4,2.3a14.93,14.93,0,0,1-3.09,1.49,11.58,11.58,0,0,1-8.93-1c-1-.56-1.94-1.11-2.89-1.68l-5.28-3c-2.32-1.34-4.63-2.68-6.94-4L31.6,75.1c-2.72-1.56-5.44-3.15-8.17-4.71L15.7,65.93,9.13,62.14,4.41,59.42,2.27,58.17A3.85,3.85,0,0,1,0,55.08c0,1.28,0,2.55,0,3.85,0,.46,0,.93,0,1.4a3.88,3.88,0,0,0,2.09,2.8c.62.38,1.26.73,1.9,1.09l4.93,2.85L16,71.18l8.46,4.88c2.93,1.71,5.87,3.4,8.82,5.1L41.71,86l7,4,4.71,2.72a20.84,20.84,0,0,0,2.8,1.48,11.51,11.51,0,0,0,9.56-.78L69,91.55q3-1.72,6-3.47,3.9-2.25,7.79-4.53l8.7-5.07,8.72-5.07c2.6-1.52,5.21-3,7.82-4.54,2-1.18,4.05-2.35,6.07-3.54l3.35-1.94c.34-.2.69-.4,1-.63A3.39,3.39,0,0,0,120,60.13c0-.56,0-1.11,0-1.67,0-1.11,0-2.24,0-3.35a.48.48,0,0,1,0,.27s0,0,0,0Z" transform="translate(0 -0.15)"/><path class="cls-5" d="M117.84,52.11c2.89,1.68,2.9,4.4,0,6.07L65.48,88.63a11.51,11.51,0,0,1-10.47,0L2.24,58.18c-2.9-1.67-2.91-4.39,0-6.07L54.61,21.65a11.51,11.51,0,0,1,10.47,0Z" transform="translate(0 -0.15)"/></g><path class="cls-6" d="M79.25,14.62a.84.84,0,0,0-.14-.06s-11.88-4.28-11.88-4.28l2.25,1.31L81.3,15.83s0,0,.06,0l.14.07Z" transform="translate(0 -0.15)"/><path class="cls-7" d="M34.81,65.47l-.06-23L32.5,41.2l.06,23a2.57,2.57,0,0,0,1.19,2.32L36,67.78A2.6,2.6,0,0,1,34.81,65.47Z" transform="translate(0 -0.15)"/><path class="cls-8" d="M53.73,6.81a1.94,1.94,0,0,1,1.64-.27L64.5,9.81V5.68A4,4,0,0,1,66.3,2.55l1.47-.85c1-.58,1.82-.11,1.83,1l0,8a2.82,2.82,0,0,1-.16.91l11.83,4.24c1.11.4,1.29,2.2.38,4a5.52,5.52,0,0,1-2,2.26,1.93,1.93,0,0,1-1.64.28l-5.17-1.86.06,23a9.19,9.19,0,0,1-3.79,6.58L38.65,67.65a2.41,2.41,0,0,1-3.82-2.18l-.08-23-5.14,7.82A5.28,5.28,0,0,1,28,52a1.74,1.74,0,0,1-2,.06c-.91-.76-.74-2.74.37-4.43L52.09,8.44a5.08,5.08,0,0,1,1.64-1.63Z" transform="translate(0 -0.15)"/><path class="cls-9" d="M66.82.27,66.71.22h0l0,0h-.05l0,0h-.42L66,.18H66l0,0-.12,0,0,0h0a1.2,1.2,0,0,0-.23.11l-1.47.85-.28.18a.05.05,0,0,1,0,0c-.09.08-.17.14-.26.23l-.06.06a1.35,1.35,0,0,1-.12.12l0,0a.13.13,0,0,0,0,.05l-.08.09a.15.15,0,0,0,0,.06.05.05,0,0,0,0,0,.56.56,0,0,0-.05.08s0,0,0,0a.24.24,0,0,1-.06.09.05.05,0,0,0,0,0l0,0-.09.15v0s0,0,0,0a.53.53,0,0,0-.06.1.13.13,0,0,0,0,0s0,0,0,.06,0,0,0,0a.42.42,0,0,1-.07.13s0,0,0,0h0a.58.58,0,0,0-.06.17l0,0s0,0,0,.06a.32.32,0,0,0,0,.09s0,.05,0,.06a.26.26,0,0,1,0,.08s0,0,0,0a.45.45,0,0,1,0,.08.28.28,0,0,0,0,.09s0,0,0,0,0,.05,0,.06a.7.7,0,0,0,0,.14v.08a1.67,1.67,0,0,0,0,.32l0,4.12L53.14,5.23l-.08,0-.08,0h-.06a.34.34,0,0,0-.15,0h-.2s-.06,0-.07,0h-.11a.66.66,0,0,1-.15,0l-.06,0h0l-.27.09h0a0,0,0,0,0,0,0l-.34.17-.21.13s-.05,0-.06,0l-.15.11a.28.28,0,0,0-.09.07L50.84,6l-.09.09a1.31,1.31,0,0,0-.12.11,0,0,0,0,0,0,0,2.66,2.66,0,0,0-.23.24s0,0,0,0l0,.06s-.08.09-.11.14,0,0-.05.06a.59.59,0,0,0,0,.08l-.08.1S50,7,50,7l-.11.16L24,46.28s0,0,0,.08l-.14.23h0a.13.13,0,0,1,0,0c0,.06-.06.1-.09.17l0,.09s0,0,0,.07a.11.11,0,0,0,0,.06l-.11.23v0s0,0,0,0a.59.59,0,0,0-.07.2s0,0,0,.06a4945011281930.74,4945011281930.74,0,0,1-.06.18.27.27,0,0,0,0,.12.29.29,0,0,0,0,.11l0,0a5268955432512,5268955432512,0,0,0-.06.28v0s0,.06,0,.09,0,.15,0,.24a.06.06,0,0,1,0,0,.28.28,0,0,1,0,.09c0,.06,0,.12,0,.18v.44c0,.06,0,.11,0,.16s0,.07,0,.12a.66.66,0,0,1,0,.15.61.61,0,0,1,0,.11l0,.13a.45.45,0,0,1,0,.11.84.84,0,0,1,.06.14l.05.09.09.12,0,.06.17.17a1.77,1.77,0,0,0,.17.12l2.25,1.31a1,1,0,0,1-.17-.12c-.06-.05-.1-.11-.16-.17l-.05-.06-.09-.12-.05-.1a.75.75,0,0,0-.06-.13.29.29,0,0,1,0-.11l0-.14a.38.38,0,0,1,0-.1.66.66,0,0,1,0-.15c0-.05,0-.08,0-.13s0-.1,0-.15V50.3c0-.06,0-.12,0-.18s0-.09,0-.14,0-.15,0-.24,0-.08,0-.11a.89.89,0,0,1,0-.14l0-.18a.29.29,0,0,0,0-.1,1.8,1.8,0,0,0,.06-.22.32.32,0,0,0,0-.09,1.45,1.45,0,0,1,.11-.26s0,0,0,0l.13-.29s0,0,0-.07l.14-.26a.09.09,0,0,0,0-.05c.07-.1.13-.21.2-.3L52,8.48l.15-.21a1,1,0,0,0,.08-.11A1.25,1.25,0,0,1,52.36,8l.11-.13a.53.53,0,0,0,.09-.11,1.75,1.75,0,0,1,.23-.24l0,0a.41.41,0,0,1,.12-.11L53,7.33l.12-.11.09-.07A.83.83,0,0,1,53.39,7l.08,0,.21-.13A2.7,2.7,0,0,1,54,6.69s0,0,.06,0l.27-.09.08,0a.57.57,0,0,1,.15,0h.12a.11.11,0,0,0,.08,0H55l.16,0h0l.15.05,9.13,3.27V5.72c0-.11,0-.22,0-.32a.12.12,0,0,1,0-.08.35.35,0,0,1,0-.14s0-.06,0-.1,0-.06,0-.1a.61.61,0,0,1,0-.13.13.13,0,0,1,0-.08,1.55,1.55,0,0,0,0-.15s0,0,0-.06,0-.14.08-.2,0,0,0,0,0-.12.08-.17,0,0,0-.06.06-.1.09-.17,0,0,0,0a1,1,0,0,1,.13-.18l0,0,.09-.14,0-.08.08-.1.08-.1s0,0,.07-.07a1.35,1.35,0,0,1,.12-.12L65.67,3l.26-.23s0,0,0,0a1.48,1.48,0,0,1,.27-.19l1.48-.85.23-.1.07,0,.12-.05h.08l.08,0,.09,0h.21l.14,0,0,0,.11,0h0l.12.06Z" transform="translate(0 -0.15)"/><path class="cls-10" d="M54.61,35.52c2.1-1.21,3.82-.24,3.82,2.18l0,14.69L47.05,59,47,44.3a8.4,8.4,0,0,1,3.79-6.57Z" transform="translate(0 -0.15)"/><path class="cls-11" d="M57.93,37.53l.33-.13h0l.27-.08.16,0a.63.63,0,0,1,.19,0l.11,0h.3a2.58,2.58,0,0,1,.29,0l.06,0,.22.06.06,0a.9.9,0,0,1,.24.12l-1.64-1,0,0-.19-.09h0s0,0-.06,0a.29.29,0,0,0-.1,0,.45.45,0,0,1-.11,0H58s0,0,0,0l-.23,0h-.32a.27.27,0,0,0-.12,0h-.11l-.09,0a.8.8,0,0,0-.15,0h-.09l-.2.06h0l-.22.09-.09.05-.1,0a3.91,3.91,0,0,0-.35.18L52,39l-.36.23a.91.91,0,0,1-.13.08l-.24.18-.14.11-.21.18a1.35,1.35,0,0,0-.12.12l-.08.08a.28.28,0,0,0-.07.09c-.1.09-.17.18-.26.27a.39.39,0,0,0-.08.1s0,0-.06.07-.09.12-.15.18l-.09.13-.08.1c0,.05-.08.09-.11.14a.52.52,0,0,0-.07.11c0,.06-.08.12-.12.16s-.05.08-.08.11,0,0,0,0-.14.22-.2.32v0s0,0,0,.06l-.14.23s0,.07-.06.11a.34.34,0,0,0-.06.12.93.93,0,0,0-.05.1c0,.09-.07.19-.12.28l0,0v0l-.13.33a.08.08,0,0,0,0,.06c0,.05,0,.08,0,.13a1,1,0,0,0-.06.16l0,.14a.66.66,0,0,1,0,.15.32.32,0,0,1,0,.09c0,.06,0,.12,0,.17s0,.14-.05.2,0,0,0,.06a.58.58,0,0,0,0,.14c0,.1,0,.19,0,.3s0,.06,0,.09a.55.55,0,0,0,0,.18c0,.05,0,.1,0,.14a3.1,3.1,0,0,0,0,.43l0,14.68,1.64,1,0-14.68a3.17,3.17,0,0,1,0-.43s0-.09,0-.14a2.48,2.48,0,0,1,0-.27c0-.11,0-.2,0-.31s0-.13,0-.21l0-.2c0-.09,0-.18.08-.27s0-.11,0-.15.07-.2.11-.31,0-.09,0-.12a3.47,3.47,0,0,1,.16-.41l0,0c.06-.13.11-.25.17-.37a.45.45,0,0,1,.06-.12L51,42.8a.11.11,0,0,0,0-.06c.08-.14.15-.26.24-.4l.08-.1.18-.28a1.71,1.71,0,0,0,.11-.14c.06-.07.11-.15.17-.21a1.19,1.19,0,0,1,.15-.18,1.14,1.14,0,0,1,.15-.17l.26-.27.17-.17s.09-.08.12-.12l.21-.18.14-.11.24-.18.12-.08c.13-.07.25-.17.37-.23l3.8-2.2.35-.19s0,0,.08,0Z" transform="translate(0 -0.15)"/><path class="cls-12" d="M57.49,37.75c2.1-1.22,3.82-.25,3.82,2.17l0,14.69-11.42,6.6,0-14.68A8.4,8.4,0,0,1,53.67,40Z" transform="translate(0 -0.15)"/><path class="cls-13" d="M94,49.67l-2.41-1.41h-.1a2.64,2.64,0,0,1-.65-.07h-.06a1.86,1.86,0,0,1-.54-.22l2.41,1.41h0l.2.1.23.08.09,0h.06l.12,0,.31,0h.22a.17.17,0,0,1,.1,0Z" transform="translate(0 -0.15)"/><path class="cls-14" d="M69.26,50.24l24.2-14c.44-.25.62-.14.63.36,0,1.35,0,2.71,0,4.06a.62.62,0,0,1-.2.47,8.57,8.57,0,0,0-2.32,5.61c0,1.94.84,2.87,2.35,2.87.16,0,.2.13.2.32,0,1.35,0,2.72,0,4.06a1.23,1.23,0,0,1-.64,1.21l-12,7-12,6.93c-.54.32-.7.14-.69-.49,0-1.36,0-2.73,0-4.09a.53.53,0,0,1,.18-.42,8.66,8.66,0,0,0,2.35-5.63c0-1.95-.85-2.89-2.37-2.89-.14,0-.19,0-.19-.22,0-1.38,0-2.76,0-4.14A1.08,1.08,0,0,1,69.26,50.24Z" transform="translate(0 -0.15)"/><path class="cls-15" d="M70.14,55.89l-1.45-.84V51.23a1.39,1.39,0,0,1,0-.3h0a.82.82,0,0,1,.1-.26h0a1,1,0,0,1,.18-.23,1.64,1.64,0,0,1,.25-.19l24.2-14a1.23,1.23,0,0,1,.28-.12h0a.29.29,0,0,1,.19,0l-2.41-1.4h-.22l-.09,0-.17.08-24.2,14a1.18,1.18,0,0,0-.25.19h0l-.06.06,0,0,0,0,0,0,0,0h0l0,0v0l0,0,0,0v.05s0,0,0,0v0h0v0a.36.36,0,0,0,0,.1.91.91,0,0,0,0,.17c0,1.38,0,2.76,0,4.14,0,.12,0,.18.07.21l2.2,1.27a4.4,4.4,0,0,1,.29,1.63,5.69,5.69,0,0,1-.06.83c0,.19,0,.37-.08.56,0,0,0,.05,0,.08a4.77,4.77,0,0,1-.17.65l0,.09c-.07.22-.14.43-.23.64l0,.06c-.09.22-.2.44-.31.66v0c-.12.23-.25.45-.4.68h0q-.19.3-.42.6l-.1.14c-.16.2-.32.41-.49.61h0l0,.06,0,0,0,0v0h0v0h0V63a.08.08,0,0,1,0,0v.09c0,1.36,0,2.73,0,4.09,0,.34,0,.54.16.62l2.41,1.4c-.12-.07-.17-.28-.16-.62,0-1.36,0-2.73,0-4.09a.54.54,0,0,1,0-.22h0a.73.73,0,0,1,.14-.2c.14-.17.28-.33.4-.5l.09-.11.1-.14.15-.2.26-.39h0l.21-.33.18-.34h0l.15-.3a3.09,3.09,0,0,0,.14-.32.08.08,0,0,0,0,0l0-.06a1.8,1.8,0,0,0,.08-.21c.05-.12.09-.23.13-.35s0-.05,0-.08l0-.09.06-.2c0-.15.08-.29.11-.44h0s0-.06,0-.08.06-.32.08-.48v-.08a5.69,5.69,0,0,0,.06-.83A2.79,2.79,0,0,0,70.14,55.89Z" transform="translate(0 -0.15)"/><path class="cls-16" d="M88,49.55c.65-.38,1.19-.06,1.19.68a2.63,2.63,0,0,1-1.18,2L74.77,59.92c-.64.37-1.18.07-1.18-.67a2.63,2.63,0,0,1,1.18-2Z" transform="translate(0 -0.15)"/><path class="cls-17" d="M88,44.35c.66-.38,1.19-.07,1.19.67a2.58,2.58,0,0,1-1.18,2L74.76,54.71c-.65.37-1.18.07-1.18-.67a2.59,2.59,0,0,1,1.17-2Z" transform="translate(0 -0.15)"/><path class="cls-2" d="M89.35,49.68l1.61.93a.84.84,0,0,0-.84.08l-1.61-.93A.82.82,0,0,1,89.35,49.68Z" transform="translate(0 -0.15)"/><g class="cls-18"><g class="cls-19"><path class="cls-2" d="M90.12,50.69l-1.61-.93.16-.08,1.61.93-.16.08" transform="translate(0 -0.15)"/><path class="cls-2" d="M90.28,50.61l-1.61-.93.14,0,1.61.93-.14,0" transform="translate(0 -0.15)"/><path class="cls-2" d="M90.42,50.56l-1.61-.93.11,0,1.6.93-.1,0" transform="translate(0 -0.15)"/><path class="cls-2" d="M90.52,50.54l-1.6-.93H89l1.61.93h-.09" transform="translate(0 -0.15)"/><path class="cls-2" d="M90.61,50.53,89,49.6h.08l1.61.93h-.08" transform="translate(0 -0.15)"/><path class="cls-2" d="M90.69,50.53l-1.61-.93h.07l1.61.93h-.07" transform="translate(0 -0.15)"/><path class="cls-2" d="M90.76,50.54l-1.61-.93h.07l1.61.94-.07,0" transform="translate(0 -0.15)"/><path class="cls-2" d="M90.83,50.56l-1.61-.94.07,0,1.6.94-.06,0" transform="translate(0 -0.15)"/><path class="cls-2" d="M90.89,50.58l-1.6-.94.06,0,1.6.94-.06,0" transform="translate(0 -0.15)"/><polyline class="cls-2" points="90.95 50.46 89.34 49.53 89.35 49.53 90.96 50.47 90.95 50.46"/></g></g><polygon class="cls-2" points="76.86 58.2 75.26 57.26 88.51 49.61 90.12 50.55 76.86 58.2"/><path class="cls-2" d="M76,61.14l-1.61-.93a.85.85,0,0,1-.35-.76,2.62,2.62,0,0,1,1.18-2l1.6.93a2.65,2.65,0,0,0-1.17,2A.8.8,0,0,0,76,61.14Z" transform="translate(0 -0.15)"/><g class="cls-20"><g class="cls-19"><path class="cls-2" d="M76,61.14l-1.61-.93a.85.85,0,0,1-.35-.76,2,2,0,0,1,0-.23l1.6.94a1.69,1.69,0,0,0,0,.23.8.8,0,0,0,.35.75" transform="translate(0 -0.15)"/><path class="cls-2" d="M75.7,60.16l-1.6-.94a.9.9,0,0,1,0-.16l1.6.93,0,.17" transform="translate(0 -0.15)"/><path class="cls-2" d="M75.73,60l-1.6-.93,0-.14,1.61.94a.65.65,0,0,0,0,.13" transform="translate(0 -0.15)"/><path class="cls-2" d="M75.77,59.86l-1.61-.94a.56.56,0,0,1,0-.12l1.6.94,0,.12" transform="translate(0 -0.15)"/><path class="cls-2" d="M75.8,59.74l-1.6-.94a.49.49,0,0,1,0-.11l1.6.93a.56.56,0,0,1,0,.12" transform="translate(0 -0.15)"/><path class="cls-2" d="M75.84,59.62l-1.6-.93s0-.07,0-.11l1.61.93a1.17,1.17,0,0,1,0,.11" transform="translate(0 -0.15)"/><path class="cls-2" d="M75.89,59.51l-1.61-.93,0-.1,1.61.93,0,.1" transform="translate(0 -0.15)"/><path class="cls-2" d="M75.94,59.41l-1.61-.93,0-.11,1.61.94,0,.1" transform="translate(0 -0.15)"/><path class="cls-2" d="M76,59.31l-1.61-.94.06-.1,1.6.94a.93.93,0,0,0-.05.1" transform="translate(0 -0.15)"/><path class="cls-2" d="M76,59.21l-1.6-.94.06-.1,1.61.93-.07.11" transform="translate(0 -0.15)"/><path class="cls-2" d="M76.11,59.1l-1.61-.93.07-.1,1.61.93-.07.1" transform="translate(0 -0.15)"/><path class="cls-2" d="M76.18,59l-1.61-.93a1,1,0,0,1,.08-.11l1.61.93a.76.76,0,0,0-.08.11" transform="translate(0 -0.15)"/><path class="cls-2" d="M76.26,58.89,74.65,58l.1-.12,1.6.94-.09.11" transform="translate(0 -0.15)"/><path class="cls-2" d="M76.35,58.78l-1.6-.94.12-.13,1.61.93-.13.14" transform="translate(0 -0.15)"/><path class="cls-2" d="M76.48,58.64l-1.61-.93a1.85,1.85,0,0,1,.39-.3l1.6.93a2.08,2.08,0,0,0-.38.3" transform="translate(0 -0.15)"/></g></g><path class="cls-12" d="M90.12,50.69c.65-.38,1.18-.06,1.19.68a2.61,2.61,0,0,1-1.19,2L76.87,61.06c-.65.37-1.18.07-1.18-.67a2.65,2.65,0,0,1,1.17-2Z" transform="translate(0 -0.15)"/><path class="cls-2" d="M89.34,44.47l1.61.94a.84.84,0,0,0-.85.08l-1.61-.93A.87.87,0,0,1,89.34,44.47Z" transform="translate(0 -0.15)"/><g class="cls-21"><g class="cls-19"><path class="cls-2" d="M90.1,45.49l-1.61-.93.17-.09,1.61.94-.17.08" transform="translate(0 -0.15)"/><path class="cls-2" d="M90.27,45.41l-1.61-.94.14,0,1.61.93-.14,0" transform="translate(0 -0.15)"/><path class="cls-2" d="M90.41,45.36l-1.61-.93.11,0,1.6.94-.1,0" transform="translate(0 -0.15)"/><path class="cls-2" d="M90.51,45.34l-1.6-.94H89l1.61.94h-.09" transform="translate(0 -0.15)"/><path class="cls-2" d="M90.6,45.33,89,44.39h.08l1.61.93H90.6" transform="translate(0 -0.15)"/><path class="cls-2" d="M90.68,45.33l-1.61-.93h.07l1.61.94h-.07" transform="translate(0 -0.15)"/><path class="cls-2" d="M90.75,45.34l-1.61-.94.07,0,1.61.93h-.07" transform="translate(0 -0.15)"/><path class="cls-2" d="M90.82,45.35l-1.61-.93.06,0,1.61.93-.06,0" transform="translate(0 -0.15)"/><path class="cls-2" d="M90.88,45.37l-1.61-.93.06,0,1.61.93-.06,0" transform="translate(0 -0.15)"/><polyline class="cls-2" points="90.94 45.26 89.33 44.33 89.34 44.33 90.95 45.26 90.94 45.26"/></g></g><polygon class="cls-2" points="76.85 52.99 75.24 52.06 88.5 44.41 90.1 45.34 76.85 52.99"/><path class="cls-2" d="M76,55.93,74.41,55a.84.84,0,0,1-.34-.76,2.61,2.61,0,0,1,1.17-2l1.61.93a2.56,2.56,0,0,0-1.17,2A.81.81,0,0,0,76,55.93Z" transform="translate(0 -0.15)"/><g class="cls-22"><g class="cls-19"><path class="cls-2" d="M76,55.93,74.41,55a.84.84,0,0,1-.34-.76,1.85,1.85,0,0,1,0-.23l1.61.94a.89.89,0,0,0,0,.23.81.81,0,0,0,.34.75" transform="translate(0 -0.15)"/><path class="cls-2" d="M75.69,55,74.08,54l0-.16,1.61.94,0,.16" transform="translate(0 -0.15)"/><path class="cls-2" d="M75.72,54.79l-1.61-.94,0-.13,1.61.93,0,.14" transform="translate(0 -0.15)"/><path class="cls-2" d="M75.75,54.65l-1.61-.93a.56.56,0,0,0,0-.12l1.61.93a.56.56,0,0,0,0,.12" transform="translate(0 -0.15)"/><path class="cls-2" d="M75.79,54.53l-1.61-.93s0-.08,0-.11l1.61.93a.49.49,0,0,0,0,.11" transform="translate(0 -0.15)"/><path class="cls-2" d="M75.83,54.42l-1.61-.93s0-.08,0-.11l1.61.93s0,.07,0,.11" transform="translate(0 -0.15)"/><path class="cls-2" d="M75.87,54.31l-1.61-.93,0-.1,1.61.93,0,.1" transform="translate(0 -0.15)"/><path class="cls-2" d="M75.92,54.21l-1.61-.93a.54.54,0,0,0,0-.11l1.61.94,0,.1" transform="translate(0 -0.15)"/><path class="cls-2" d="M76,54.11l-1.61-.94.06-.1L76,54l-.06.1" transform="translate(0 -0.15)"/><path class="cls-2" d="M76,54l-1.61-.94.06-.1,1.61.94L76,54" transform="translate(0 -0.15)"/><path class="cls-2" d="M76.09,53.91,74.48,53l.07-.1,1.61.93-.07.11" transform="translate(0 -0.15)"/><path class="cls-2" d="M76.16,53.8l-1.61-.93.08-.11,1.61.94-.08.1" transform="translate(0 -0.15)"/><path class="cls-2" d="M76.24,53.7l-1.61-.94.1-.12,1.6.94-.09.12" transform="translate(0 -0.15)"/><path class="cls-2" d="M76.33,53.58l-1.6-.94.13-.13,1.6.93-.13.14" transform="translate(0 -0.15)"/><path class="cls-2" d="M76.46,53.44l-1.6-.93a2.08,2.08,0,0,1,.38-.3l1.61.93a1.85,1.85,0,0,0-.39.3" transform="translate(0 -0.15)"/></g></g><path class="cls-12" d="M90.1,45.49c.66-.38,1.19-.07,1.19.67a2.63,2.63,0,0,1-1.18,2L76.86,55.85c-.65.37-1.18.07-1.18-.67a2.56,2.56,0,0,1,1.17-2Z" transform="translate(0 -0.15)"/></g></g></svg>