<?xml version="1.0" encoding="UTF-8"?>
<svg width="13px" height="12px" viewBox="0 0 13 12" version="1.1" xmlns="http://www.w3.org/2000/svg" xmlns:xlink="http://www.w3.org/1999/xlink">
    <!-- Generator: Sketch 51.3 (57544) - http://www.bohemiancoding.com/sketch -->
    <title>Combined Shape</title>
    <desc>Created with Sketch.</desc>
    <defs></defs>
    <g id="首页+交易" stroke="none" stroke-width="1" fill="none" fill-rule="evenodd">
        <g id="Index-新1-Copy-6" transform="translate(-360.000000, -62.000000)" fill="#838CAC" fill-rule="nonzero">
            <g id="Group-21" transform="translate(360.000000, 60.000000)">
                <g id="通知-(1)" transform="translate(0.000000, 2.000000)">
                    <path d="M9.20096189,2.75 C8.92481952,2.27170738 9.08869467,1.66011697 9.5669873,1.3839746 L10.4330127,0.883974596 C10.9113053,0.607832221 11.5228957,0.771707377 11.7990381,1.25 C12.0751805,1.72829262 11.9113053,2.33988303 11.4330127,2.6160254 L10.5669873,3.1160254 C10.0886947,3.39216778 9.47710427,3.22829262 9.20096189,2.75 Z M9,6 C9,5.44771525 9.44771525,5 10,5 L12,5 C12.5522847,5 13,5.44771525 13,6 C13,6.55228475 12.5522847,7 12,7 L10,7 C9.44771525,7 9,6.55228475 9,6 Z M9.20096189,9.25 C9.47710427,8.77170738 10.0886947,8.60783222 10.5669873,8.8839746 L11.4330127,9.3839746 C11.9113053,9.66011697 12.0751805,10.2717074 11.7990381,10.75 C11.5228957,11.2282926 10.9113053,11.3921678 10.4330127,11.1160254 L9.5669873,10.6160254 C9.08869467,10.339883 8.92481952,9.72829262 9.20096189,9.25 Z M0,9.00445791 L0,3.00166047 L1.91822222,3.00166047 L8,0 L8,12 L1.86933333,9.00445791 L0,9.00445791 Z" id="Combined-Shape"></path>
                </g>
            </g>
        </g>
    </g>
</svg>