<?xml version="1.0" encoding="UTF-8"?>
<svg width="18px" height="22px" viewBox="0 0 18 22" version="1.1" xmlns="http://www.w3.org/2000/svg" xmlns:xlink="http://www.w3.org/1999/xlink">
    <!-- Generator: Sketch 51.3 (57544) - http://www.bohemiancoding.com/sketch -->
    <title>Shape Copy</title>
    <desc>Created with Sketch.</desc>
    <defs></defs>
    <g id="首页+交易" stroke="none" stroke-width="1" fill="none" fill-rule="evenodd">
        <g id="Index-新1-Copy-6" transform="translate(-388.000000, -1883.000000)" fill="#333333" fill-rule="nonzero">
            <g id="Group-13" transform="translate(-16.000000, 1684.000000)">
                <g id="Group-12" transform="translate(376.000000, 190.000000)">
                    <g id="Group-8">
                        <g id="iOS" transform="translate(28.000000, 9.000000)">
                            <path d="M13.4826639,0 C12.3602651,0.0733245391 11.0133865,0.733245348 10.1902941,1.68646429 C9.44202819,2.49303418 8.8434155,3.81287579 8.99306866,5.13271741 C10.2651206,5.20604195 11.462346,4.4727966 12.2854385,3.59290218 C13.108531,2.63968323 13.6323171,1.31984162 13.4826639,0 Z M17.9722591,16.3513712 C17.9722591,16.4246957 17.5232996,17.8911864 16.4757274,19.3576771 C15.5778083,20.6775187 14.6050627,21.9240358 13.108531,21.9973603 C11.6119992,21.9973603 11.1630397,21.1174659 9.44202819,21.1174659 C7.72101668,21.1174659 7.19723058,21.9240358 5.85035199,21.9973603 C4.42864684,22.0706849 3.30624802,20.6041942 2.33350239,19.2843525 C0.462837702,16.6446693 -1.03369403,11.80525 0.911797232,8.57897053 C1.88454286,6.96583078 3.60555437,5.9392873 5.47621906,5.93928728 C6.89792422,5.93928728 8.24480278,6.89250622 9.06789525,6.89250624 C9.96581429,6.89250624 11.6119992,5.71931368 13.3330107,5.93928728 C14.0812766,5.93928728 16.1015944,6.23258541 17.3736464,8.06569878 C17.2988198,8.06569878 14.9791956,9.3855404 14.9791956,12.0252236 C15.0540222,15.2515031 17.9722591,16.2780466 17.9722591,16.3513712 Z" id="Shape-Copy"></path>
                        </g>
                    </g>
                </g>
            </g>
        </g>
    </g>
</svg>