<?xml version="1.0" encoding="utf-8"?>
<!-- Generator: Adobe Illustrator 23.0.3, SVG Export Plug-In . SVG Version: 6.00 Build 0)  -->
<svg version="1.1" id="Layer_1" xmlns="http://www.w3.org/2000/svg" xmlns:xlink="http://www.w3.org/1999/xlink" x="0px" y="0px"
	 width="110.7px" height="140.1px" viewBox="0 0 110.7 140.1" style="enable-background:new 0 0 110.7 140.1;" xml:space="preserve"
	>
<style type="text/css">
	.st0{fill:#999999;}
	.st1{fill:#F5BC00;}
	.st2{fill:#E0E0E0;}
	.st3{fill:#FFFFFF;}
</style>
<path class="st0" d="M92.6,107.8L81.8,86c-0.1-0.2-0.3-0.5-0.5-0.7c-0.2-0.2-0.4-0.3-0.7-0.4l-12.7-4.6C67,80,66,79.9,65,79.9
	c-1,0-1.9,0.2-2.8,0.5l-9.7,3.7c-0.7,0.3-1.4,0.6-2,0.9c-0.2,0.1-0.4,0.2-0.7,0.4c-0.7-0.4-1.5-0.7-2.3-1c-2.5-0.9-5.1-1.3-7.6-1.1
	l-6.5,0.6c-0.3,0-0.6,0.1-0.8,0.3c-0.3,0.2-0.5,0.4-0.7,0.6l-14.6,20.8c-0.3,0.4-0.5,1-0.4,1.5c0,0.6,0.3,1.1,0.7,1.4l6.4,6.3
	c-0.3,0.6-0.6,1.4-0.6,2.1c-0.1,1.4,0.4,2.7,1.3,3.8c0.9,1,2.2,1.7,3.6,1.8c0.1,0,0.1,0,0.2,0c-0.6,1.8-0.1,3.9,1.4,5.3
	c0.9,0.8,2,1.3,3.2,1.4c-0.8,1.9-0.4,4.2,1.2,5.7c1,0.9,2.2,1.4,3.6,1.4c1.4,0,2.7-0.5,3.7-1.5c0.4,2.3,2.3,4.2,4.8,4.4
	c0.1,0,0.2,0,0.3,0c0.6,0,1.2-0.1,1.8-0.3c0.9,0.6,2,0.9,3.2,0.9c1.4-0.1,2.7-0.7,3.7-1.7l-3.5-3.5c0-0.1,0-0.2,0-0.2
	c0-0.7,0-1.4-0.3-2l7.2,7.1c0.9,0.4,1.9,0.6,2.9,0.5c2.1-0.1,3.9-1.1,5.2-2.6l0.7-0.8c0.1-0.1,0.1-0.2,0.2-0.3l-11-11
	c-0.3-0.3-0.3-0.8-0.1-1c0.3-0.3,0.7-0.3,1,0l13.1,13.1c0.7,0.3,1.5,0.4,2.3,0.3c1.8-0.1,3.4-0.9,4.5-2.2l1.7-2
	c0.4-0.5,0.6-1.1,0.6-1.8l-11.5-11.5c-0.3-0.3-0.3-0.8-0.1-1c0.3-0.3,0.7-0.3,1,0l11.6,11.5c0.5,0.1,1,0.2,1.5,0.2
	c1.5-0.1,2.8-0.8,3.7-1.8l0.5-0.5c0.9-1.1,1.5-2.5,1.4-4.1c-0.1-1.6-0.7-3-1.7-4l-3.1-3.1l0.8,0.8l8.4-7.5c0.4-0.3,0.6-0.8,0.7-1.3
	C92.9,108.7,92.8,108.2,92.6,107.8z M28.3,120.3c-0.8-0.1-1.5-0.4-2-1c-0.5-0.6-0.8-1.3-0.7-2.1c0.1-1.5,1.4-2.7,2.9-2.7
	c0.1,0,0.1,0,0.2,0c0.8,0.1,1.5,0.4,2,1c0.5,0.6,0.8,1.3,0.7,2.1C31.3,119.1,29.9,120.4,28.3,120.3z M33.3,127c-0.8,0-1.5-0.3-2-0.8
	c-1.2-1.1-1.2-3-0.1-4.1c0.1-0.1,1.2-1.3,1.8-1.9l0.3-0.3c0.6-0.6,1.3-0.9,2.1-0.9c0.8,0,1.5,0.3,2,0.8c0.6,0.5,0.9,1.3,0.9,2.1
	c0,0.8-0.3,1.5-0.8,2.1l-0.8,0.9c-0.2,0.2-0.4,0.4-0.6,0.6c0,0-0.1,0.1-0.1,0.1c-0.1,0.1-0.3,0.3-0.4,0.4c-0.1,0.1-0.1,0.1-0.2,0.2
	c0,0,0,0,0,0C34.8,126.7,34.1,127,33.3,127z M39.8,133.2c-0.6,0.6-1.3,0.9-2.1,0.9c-0.8,0-1.5-0.3-2-0.8c-1.2-1.1-1.2-3-0.1-4.1
	c0,0,0.7-0.7,1.5-1.5c0,0,0,0,0,0l0.6-0.6c1-1.1,1.3-1.4,1.4-1.5c0,0,0,0,0,0l0,0l0,0c0.1-0.1,0.2-0.2,0.2-0.2
	c0.6-0.6,1.3-0.9,2.1-0.9c0.8,0,1.5,0.3,2,0.8c0.6,0.5,0.9,1.3,0.9,2.1c0,0.8-0.3,1.5-0.8,2.1C43.4,129.4,39.9,133.1,39.8,133.2z
	 M46.3,137c-1.6-0.1-2.8-1.5-2.7-3.1c0.1-1.5,1.4-2.7,2.9-2.7c0.1,0,0.1,0,0.2,0c1.6,0.1,2.8,1.5,2.7,3.1
	C49.3,135.8,47.9,137.1,46.3,137z M82.2,116.6L59.4,93.8l0,0l0.3-0.7c0.1-0.3,0.1-0.7-0.1-1.1c-0.2-0.3-0.5-0.5-0.9-0.6L57,91.4l0,0
	l-1.9-0.1L55,93.5c0,0-0.4,5.1-2.9,9.6c-2.6,4.6-6.1,6.2-6.6,6.3c-0.6,0.1-1.2,0.2-1.7,0.2c-0.4,0-0.6,0-0.9-0.2L42,109
	c-0.4-0.2-0.6-0.5-0.8-0.9c-0.1-0.4-0.1-0.8,0-1.2l8.7-19.1l1.5-1l0.6-0.2h0l10.9-4.2c0.7-0.3,1.4-0.4,2.1-0.4l0.1,0
	c0.7,0,1.4,0.1,2.1,0.4l12.7,4.6l10.9,21.8L82.2,116.6z"/>
<path class="st1" d="M94.6,72.1L86,76.4c-1.2,0.6-2.2,1.7-2.7,3.1c-0.5,1.4-0.3,2.9,0.3,4.1l11.3,22.6c0.6,1.2,1.7,2.2,3.1,2.7
	c1.4,0.5,2.9,0.3,4.1-0.3l8.6-4.3L94.6,72.1z M102.1,104.3c-1.1,0-2.1-0.9-2.1-2.1c0-1.1,0.9-2.1,2.1-2.1c1.1,0,2.1,0.9,2.1,2.1
	C104.1,103.4,103.2,104.3,102.1,104.3z"/>
<path class="st1" d="M0,99.4l7.9,5.5c1.1,0.8,2.6,1.2,4,0.9c1.5-0.3,2.7-1.1,3.5-2.2L29.9,83c0.8-1.1,1.2-2.6,0.9-4
	c-0.3-1.5-1.1-2.7-2.2-3.5l-7.9-5.5L0,99.4z M6.8,98.4c0.2-1.1,1.2-1.9,2.4-1.7c1.1,0.2,1.9,1.2,1.7,2.4c-0.2,1.1-1.2,1.9-2.4,1.7
	C7.4,100.5,6.6,99.5,6.8,98.4z"/>
<g>
	<path class="st2" d="M74,38.4c0,0-2.5,3.7-1.5,11.4c2.2,16.1-4.2,29.7-23.3,23.8l-0.8-0.2l-0.8-0.6c-19.1-16.1-25.3-37-23.1-50.6
		c1.1-6.5-1.4-13-1.4-13l-1.5-4l10.4-2.5l1.7,1.7c1.3,1.3,2.6,2.3,3.9,3.1c4.9,2.8,8.7,1.4,8.7,1.4L48.7,8l2.2,3.3
		c0,0,3.9,5.9,8.7,8.7c1.3,0.8,2.6,1.3,3.9,1.4l1.7,0.2l10.4,14.5L74,38.4z"/>
</g>
<g>
	<path class="st0" d="M80,33.6L69.7,19.1L68,18.9c-1.3-0.2-2.6-0.7-3.9-1.4c-4.8-2.8-8.7-8.6-8.7-8.7l-2.2-3.4L51,6.3l0,0
		c-0.5,0.1-4.2,1.2-8.7-1.4c-1.3-0.8-2.7-1.8-3.9-3.1L36.6,0L26.2,2.5l-4.5,2.6l10.4-2.5l1.7,1.7c1.3,1.3,2.6,2.3,3.9,3.1
		c4.9,2.8,8.7,1.4,8.7,1.4L48.7,8l2.2,3.3c0,0,3.9,5.9,8.7,8.7c1.3,0.8,2.6,1.3,3.9,1.4l1.7,0.2l10.4,14.5L74,38.4
		c0,0-2.5,3.7-1.5,11.4c1.4,10-0.6,19.1-6.9,23.1l4.1-2.4c6.6-3.9,8.7-13.1,7.3-23.3c-1-7.6,1.4-11.4,1.5-11.4L80,33.6z"/>
</g>
<g>
	<path class="st1" d="M48.6,13.1c0.2,0.4,4.7,7.3,10.9,10.9c1.6,0.9,3.4,1.6,5.2,1.9l6.4,8.9c-0.2,0.2-3.1,4.4-1.9,13.7
		c1.7,13-2.8,26.4-20.7,20.8C30.6,54.2,26.1,35.6,28,24.7c1.3-7.9-1.6-15.5-1.8-15.9l6.4-1.6c1.8,1.8,3.5,3.1,5.1,4.1
		C43.9,15,48.4,13.2,48.6,13.1z"/>
</g>
<g>
	<g>
		<path class="st3" d="M54.6,40.2c1.4,0.8,2.5,2.7,2.5,4.3l0,11.8c0,1.5-1.1,2.2-2.5,1.4L41.3,50c-1.4-0.8-2.5-2.7-2.5-4.2l0-11.8
			c0-1.6,1.1-2.2,2.5-1.4L54.6,40.2z M48.8,46.4c0.7,0,1.2-0.5,1.2-1.4c0-1.3-0.9-2.8-2-3.5c-1.1-0.6-2-0.1-2,1.2
			c0,0.9,0.5,2,1.2,2.8l0,3.4l1.7,1L48.8,46.4"/>
	</g>
	<g>
		<path class="st3" d="M48,25.4c0.1,0,0.1,0.1,0.2,0.1c3.5,2.2,6.4,7.3,6.4,11.5l0,3.1L52.4,39l0-3.1c0-2.9-1.9-6.4-4.3-7.9
			c0,0-0.1,0-0.1-0.1c-1.2-0.7-2.3-0.8-3.1-0.4c-0.9,0.5-1.4,1.5-1.4,2.9l0,3.4l-2.2-1.3l0-3.4c0-2.1,0.7-3.6,2-4.3
			C44.7,24.2,46.3,24.4,48,25.4z"/>
	</g>
</g>
</svg>
