<?xml version="1.0" encoding="UTF-8"?>
<svg width="130px" height="71px" viewBox="0 0 130 71" version="1.1" xmlns="http://www.w3.org/2000/svg" xmlns:xlink="http://www.w3.org/1999/xlink">
    <!-- Generator: Sketch 51.3 (57544) - http://www.bohemiancoding.com/sketch -->
    <title>暂无记录 dark</title>
    <desc>Created with Sketch.</desc>
    <defs>
        <linearGradient x1="50%" y1="0%" x2="50%" y2="96.0869625%" id="linearGradient-1">
            <stop stop-color="#2E2C4F" offset="0%"></stop>
            <stop stop-color="#1A2134" stop-opacity="0" offset="100%"></stop>
        </linearGradient>
        <linearGradient x1="23.523353%" y1="0%" x2="54.922842%" y2="90.6455618%" id="linearGradient-2">
            <stop stop-color="#293553" offset="0%"></stop>
            <stop stop-color="#3A385E" offset="100%"></stop>
        </linearGradient>
    </defs>
    <g id="首页修改" stroke="none" stroke-width="1" fill="none" fill-rule="evenodd">
        <g id="币币交易-专业版-无数据" transform="translate(-571.000000, -908.000000)">
            <g id="委托" transform="translate(4.000000, 786.000000)">
                <g id="暂无记录-dark" transform="translate(567.000000, 122.000000)">
                    <g id="暂无记录">
                        <path d="M0,72 C15.4813912,72 111.758671,72 130,72 C130,60.8986781 100.845588,51.9999998 65,52 C29.1544118,52.0000002 0,60.8986784 0,72 Z" id="Shape" fill="url(#linearGradient-1)" fill-rule="nonzero"></path>
                        <path d="M113.936279,9.45898138 C113.936279,7.5425187 112.342809,5.99999988 110.468139,6 C108.59347,6.00000012 107,7.58926174 107,9.45898138 C107,11.328701 108.593469,12.9179629 110.468139,12.9179629 C112.342809,12.9179629 113.936279,11.3754442 113.936279,9.45898138 Z M98.4992076,28.2436636 C98.4992076,26.8413738 97.4681392,26 96.2496038,26 C94.8436014,26 94,27.0283458 94,28.2436636 C94,29.4589814 95.0310684,30.4873272 96.2496038,30.4873273 C97.4212725,30.4873273 98.4992076,29.4589815 98.4992076,28.2436636 Z M24.4670829,4.72104232 C24.4670829,2.10343473 22.3580793,1.24161074e-07 19.7335414,0 C17.1090034,-1.24161074e-07 15,2.10343473 15,4.72104232 C15,7.3386499 17.1090035,9.44208451 19.7335414,9.44208451 C22.3580792,9.44208451 24.4670827,7.3386499 24.4670829,4.72104232 Z" id="Shape" fill="#312F50" fill-rule="nonzero"></path>
                        <polygon id="Combined-Shape" fill="#38385D" points="30 26 30 24 31 24 31 26 33 26 33 27 31 27 31 29 30 29 30 27 28 27 28 26"></polygon>
                        <path d="M63.7814646,44.7976313 L63.4533974,44.7976313 C55.5797839,44.7976313 49.4871069,38.5340703 49.4871068,30.8682196 L49.4871068,27.0352941 C49.4871068,19.1824713 55.7672509,13.1058823 63.4533974,13.1058823 L63.7814646,13.1058823 C71.467611,13.1058823 77.7477551,19.3694434 77.7477551,27.0352941 L77.7477551,30.4942756 C77.7477551,38.3470983 71.467611,44.7976313 63.7814646,44.7976313 Z" id="Shape" fill="#FFFFFF" fill-rule="nonzero"></path>
                        <path d="M64.8036008,30.1131314 C63.578614,30.1131314 62.5420867,29.6020203 61.976708,28.7191919 C61.2699848,27.6969697 60.3721807,27 58.3017476,27 L44.8274388,27 C42.5659247,27 42,28.0491324 42,29.7683243 L42,47.769697 C42,48.9777778 42.8114909,50 44.2249372,50 L81.6982151,50 C83.3001209,50 84,49.3008588 84,47.769697 L84,33.0304387 C84,31.2027396 82.7750132,30.1131314 81.1731074,30.1131314 L64.8036008,30.1131314 Z" id="Shape-Copy" fill="#2E2B49" fill-rule="nonzero"></path>
                        <rect id="Rectangle-5" fill="url(#linearGradient-2)" x="49" y="12" width="30" height="34"></rect>
                        <rect id="Rectangle-8" fill="#3C4C76" x="54" y="19" width="19" height="2"></rect>
                        <rect id="Rectangle-8-Copy" fill="#3C4C76" x="54" y="23" width="12" height="2"></rect>
                        <rect id="Rectangle-8-Copy-2" fill="#3C4C76" x="67" y="23" width="2" height="2"></rect>
                        <path d="M64.7951808,33.1131314 C63.5706463,33.1131314 62.5345017,32.6020203 61.9693318,31.7191919 C61.2628696,30.6969697 60.365397,30 58.2957283,30 L44.8263948,30 C42.5657158,30 42,31.0491324 42,32.7683243 L42,55.769697 C42,56.9777778 42.8111913,58 44.2241156,58 L83.699065,58 C85.3003793,58 86,57.3008588 86,55.769697 L86,36.0304387 C86,34.2027396 84.7754655,33.1131314 83.1741512,33.1131314 L64.7951808,33.1131314 Z" id="Shape" fill="#312F50" fill-rule="nonzero"></path>
                    </g>
                </g>
            </g>
        </g>
    </g>
</svg>