<svg xmlns="http://www.w3.org/2000/svg" xmlns:xlink="http://www.w3.org/1999/xlink" viewBox="0 0 119.84 101.06"><defs><style>.cls-1{fill:none;}.cls-2{clip-path:url(#clip-path);}.cls-3{fill:url(#未命名的渐变_48);}.cls-4{fill:url(#未命名的渐变_85);}.cls-5{fill:url(#未命名的渐变_48-2);}.cls-6{fill:url(#未命名的渐变_48-3);}.cls-7{fill:url(#未命名的渐变_79);}.cls-8{fill:url(#未命名的渐变_48-4);}.cls-9{fill:url(#未命名的渐变_48-5);}.cls-10{fill:url(#未命名的渐变_48-6);}.cls-11{fill:url(#未命名的渐变_48-7);}.cls-12{fill:#878787;}.cls-13{fill:#838383;}.cls-14{fill:url(#未命名的渐变_48-8);}.cls-15{fill:#fff;}.cls-16{fill:#caaa76;}.cls-17{fill:url(#未命名的渐变_48-9);}.cls-18{fill:url(#未命名的渐变_48-10);}.cls-19{fill:url(#未命名的渐变_48-11);}.cls-20{fill:url(#未命名的渐变_48-12);}.cls-21{fill:url(#未命名的渐变_79-2);}.cls-22{fill:url(#未命名的渐变_79-3);}.cls-23{fill:url(#未命名的渐变_48-13);}.cls-24{fill:url(#未命名的渐变_48-14);}.cls-25{fill:#e8cfac;}</style><clipPath id="clip-path" transform="translate(0 -1.68)"><rect class="cls-1" x="0.02" width="120" height="102.92"/></clipPath><linearGradient id="未命名的渐变_48" y1="82.85" x2="119.83" y2="82.85" gradientUnits="userSpaceOnUse"><stop offset="0" stop-color="#d6a55b"/><stop offset="1" stop-color="#e9d7b1"/></linearGradient><linearGradient id="未命名的渐变_85" x1="0.07" y1="63.03" x2="119.84" y2="63.03" gradientUnits="userSpaceOnUse"><stop offset="0" stop-color="#fcf9f5"/><stop offset="1" stop-color="#f3e7d7"/></linearGradient><linearGradient id="未命名的渐变_48-2" x1="57.48" y1="42.29" x2="72.78" y2="42.29" xlink:href="#未命名的渐变_48"/><linearGradient id="未命名的渐变_48-3" x1="27.61" y1="60.06" x2="46.63" y2="60.06" xlink:href="#未命名的渐变_48"/><linearGradient id="未命名的渐变_79" x1="31.97" y1="25.17" x2="65.32" y2="58.53" gradientUnits="userSpaceOnUse"><stop offset="0" stop-color="#f0e4de"/><stop offset="1" stop-color="#ebd7c0"/></linearGradient><linearGradient id="未命名的渐变_48-4" x1="35.97" y1="47.4" x2="38.79" y2="47.4" xlink:href="#未命名的渐变_48"/><linearGradient id="未命名的渐变_48-5" x1="35.97" y1="24.78" x2="62.16" y2="24.78" xlink:href="#未命名的渐变_48"/><linearGradient id="未命名的渐变_48-6" x1="50.37" y1="50.47" x2="55.19" y2="50.47" xlink:href="#未命名的渐变_48"/><linearGradient id="未命名的渐变_48-7" x1="51.36" y1="54.46" x2="54.21" y2="54.46" xlink:href="#未命名的渐变_48"/><linearGradient id="未命名的渐变_48-8" x1="52.22" y1="45.29" x2="56.45" y2="45.29" xlink:href="#未命名的渐变_48"/><linearGradient id="未命名的渐变_48-9" x1="80.52" y1="53.6" x2="89.7" y2="53.6" xlink:href="#未命名的渐变_48"/><linearGradient id="未命名的渐变_48-10" x1="82.65" y1="47.46" x2="86" y2="47.46" xlink:href="#未命名的渐变_48"/><linearGradient id="未命名的渐变_48-11" x1="78.8" y1="52.13" x2="81.05" y2="52.13" xlink:href="#未命名的渐变_48"/><linearGradient id="未命名的渐变_48-12" x1="73.65" y1="53.63" x2="77.6" y2="53.63" xlink:href="#未命名的渐变_48"/><linearGradient id="未命名的渐变_79-2" x1="72.86" y1="57.8" x2="83.3" y2="68.24" xlink:href="#未命名的渐变_79"/><linearGradient id="未命名的渐变_79-3" x1="75.4" y1="47.35" x2="82.81" y2="54.76" xlink:href="#未命名的渐变_79"/><linearGradient id="未命名的渐变_48-13" x1="65.11" y1="50.33" x2="90.29" y2="50.33" xlink:href="#未命名的渐变_48"/><linearGradient id="未命名的渐变_48-14" x1="76.24" y1="60.86" x2="83.44" y2="60.86" xlink:href="#未命名的渐变_48"/></defs><title>资源 10</title><g id="图层_2" data-name="图层 2"><g id="图层_1-2" data-name="图层 1"><g class="cls-2"><path class="cls-3" d="M119.82,63.27c-.16,1.67-1.7,2.51-3,3.27l-3.64,2.11L107.37,72c-2.44,1.42-4.85,2.83-7.28,4.23l-8,4.66L84,85.6l-7.42,4.32-6,3.51-4,2.29a13.7,13.7,0,0,1-3.08,1.49,11.56,11.56,0,0,1-8.92-1c-1-.56-1.93-1.1-2.89-1.67l-5.27-3-6.93-4L31.55,83c-2.72-1.56-5.43-3.14-8.15-4.71L15.68,73.8,9.11,70,4.4,67.3,2.26,66.05A3.83,3.83,0,0,1,0,63c0,1.27,0,2.55,0,3.84,0,.46,0,.93,0,1.4A3.82,3.82,0,0,0,2.1,71c.62.38,1.26.73,1.89,1.1C5.64,73,7.28,74,8.92,74.94L16,79l8.45,4.88L33.27,89l8.37,4.83,7,4,4.71,2.72a18.67,18.67,0,0,0,2.8,1.47,11.47,11.47,0,0,0,9.54-.77c1.08-.62,2.15-1.26,3.23-1.89l6-3.46c2.6-1.5,5.18-3,7.78-4.53l8.69-5.06,8.7-5.06,7.81-4.54,6.06-3.52c1.11-.66,2.24-1.29,3.35-1.95a11.76,11.76,0,0,0,1-.62A3.39,3.39,0,0,0,119.76,68c0-.56,0-1.11,0-1.67,0-1.11,0-2.23,0-3.34a.35.35,0,0,1,0,.27s0,0,0,0Z" transform="translate(0 -1.68)"/><path class="cls-4" d="M117.67,60c2.88,1.68,2.9,4.4,0,6.07L65.37,96.47a11.52,11.52,0,0,1-10.45,0L2.25,66.07c-2.89-1.67-2.9-4.39,0-6.07L54.54,29.59a11.52,11.52,0,0,1,10.45,0Z" transform="translate(0 -1.68)"/></g><path class="cls-5" d="M63,42.88l.68-.05h0l.69,0h.08l.73-.06.73-.06a.23.23,0,0,0,.11,0l.68,0h.11l.66-.05h.08l.65,0h1.77l.18,0h.09l.15,0h.09l.14,0,.11,0,.3.1.09,0,.27.09.32.11s.06,0,.08,0a1.53,1.53,0,0,1,.27.11.32.32,0,0,1,.09,0,.84.84,0,0,1,.14.06l.12.06a.84.84,0,0,1,.14.06s.1,0,.15.08l-2.25-1.31s0,0,0,0a.6.6,0,0,1-.11-.06.42.42,0,0,0-.14-.06l-.12-.06L70,41.81h0s0,0-.06,0l-.27-.1-.08,0a1.92,1.92,0,0,0-.31-.11L69,41.45l-.09,0c-.11,0-.21-.08-.3-.11H68.5a.06.06,0,0,1,0,0l-.14,0h-.09l-.15,0H68l-.18,0H66c-.21,0-.42,0-.65,0h-.07l-.67.05h-.11l-.68,0a.22.22,0,0,0-.12,0c-.25,0-.48,0-.72.06l-.74.06h-.06l-.7,0h0l-.68,0h-.09l-.63,0h-.12l-.38,0h-1a1.32,1.32,0,0,1-.29,0h-.35l-.24,0-.2-.05a8.27,8.27,0,0,0,1.69,1.18c1,.57,3.83.22,3.86.22Z" transform="translate(0 -1.68)"/><path class="cls-6" d="M46.63,47V47c0-.17,0-.34,0-.51l-2.25-1.3c0,.16,0,.33,0,.5v.06a4.19,4.19,0,0,1,0,.5.28.28,0,0,1,0,.09c0,.11,0,.23-.05.34s0,.16,0,.25-.08.35-.12.54c0,0,0,0,0,0a3,3,0,0,1-.17.5.66.66,0,0,1,0,.11c-.06.18-.14.35-.21.53l0,.09c-.08.18-.17.37-.26.55,0,0,0,0,0,0-.11.2-.22.38-.34.56s-.06.09-.09.15-.12.17-.18.28l-.09.13a2,2,0,0,1-.17.23l-.11.15-.18.25a1,1,0,0,0-.1.15l-.37.46s0,0-.06.07-.23.27-.33.41-.09.11-.14.17-.21.24-.3.36a2.09,2.09,0,0,0-.14.17c-.14.15-.27.32-.41.49l0,0-.48.56s-.09.11-.14.17l-.36.41c-.07.06-.11.12-.17.18l-.41.46-.09.11c-.17.19-.35.37-.52.57L38,56c-.13.13-.25.28-.39.42l-.17.18-.39.43-.13.13c-.16.19-.33.37-.51.55s-.11.11-.15.17a4,4,0,0,0-.35.38c-.08.07-.14.15-.22.23l-.3.32-1,1.12-.13.15-.31.32a1.49,1.49,0,0,0-.12.14c-.12.13-.26.27-.36.39l0,0c-.12.13-.23.26-.35.38L33,61.4l-.21.24a.53.53,0,0,0-.09.11c-.08.07-.14.16-.22.23l-.06.06a1.42,1.42,0,0,1-.12.13.12.12,0,0,1-.06.06,1.27,1.27,0,0,1-.14.17c-.1.14-.21.26-.32.4s0,.07-.07.1-.26.35-.38.52a1.77,1.77,0,0,0-.12.17.05.05,0,0,0,0,0,5.79,5.79,0,0,0-.38.58l-.09.14s0,0,0,0c-.15.24-.3.47-.44.72h0a1,1,0,0,0-.11.2l-.28.5s0,0,0,0-.09.18-.14.26-.15.29-.22.44,0,0,0,0-.08.19-.12.26-.14.29-.2.44,0,0,0,.06a1.36,1.36,0,0,1-.11.25l-.18.45a.32.32,0,0,0,0,.09c0,.08,0,.14-.07.22l-.19.48a.83.83,0,0,1,0,.12c0,.06,0,.13-.05.17a5.7,5.7,0,0,0-.16.55,1.34,1.34,0,0,1-.07.18l0,.18c0,.06,0,.12-.05.17-.06.21-.1.43-.15.65s-.09.46-.12.69a1.77,1.77,0,0,0,0,.21c0,.12-.05.24-.06.35a.15.15,0,0,1,0,.09l0,.5c0,.08,0,.17,0,.24,0,.25,0,.51,0,.75L29.86,75c0-.25,0-.49,0-.75,0-.07,0-.17,0-.24l0-.5c0-.15.05-.29.06-.44s0-.16,0-.22c.05-.22.08-.45.12-.68s.1-.43.16-.65c0-.06,0-.12,0-.17a2.47,2.47,0,0,1,.11-.36c.06-.19.1-.37.16-.55l.11-.31.18-.48c0-.11.08-.2.11-.31l.18-.45c.05-.11.08-.2.12-.31s.14-.28.2-.44l.14-.3c.07-.15.15-.29.23-.44a2,2,0,0,1,.15-.29c.09-.17.18-.33.29-.5a1.05,1.05,0,0,1,.12-.21c.13-.25.29-.49.44-.72l.09-.13c.12-.2.26-.38.38-.58l.15-.21c.12-.19.26-.35.38-.52s.26-.34.4-.5l.13-.17.06-.06a.83.83,0,0,1,.13-.14.15.15,0,0,0,0-.06l.21-.23L35,63l.21-.25.09-.1.33-.37,0,0,.35-.38a1,1,0,0,0,.14-.15,4,4,0,0,1,.29-.3c0-.06.1-.11.15-.17s.24-.26.36-.39.35-.37.54-.57l.07-.09c.14-.15.28-.29.41-.44a1.22,1.22,0,0,0,.15-.17c.14-.15.28-.28.42-.44l.12-.12c.16-.18.35-.36.51-.56l.12-.14c.14-.13.26-.28.4-.42l.17-.18c.13-.16.27-.29.39-.44l.14-.16.52-.57s.07-.08.1-.13l.41-.45c0-.06.11-.12.15-.18l.37-.41a1.14,1.14,0,0,1,.15-.17c.17-.18.32-.36.49-.55h0l0,0c.13-.17.27-.32.41-.47l.13-.17c.11-.12.22-.24.31-.36l.13-.17a4.35,4.35,0,0,0,.34-.41s0,0,.06-.07.24-.32.36-.46,0,0,0,0a.26.26,0,0,0,.08-.11l.18-.24a1.12,1.12,0,0,0,.11-.15l.17-.23s0,0,.06-.08l0-.06a1.64,1.64,0,0,1,.19-.25s0,0,0-.08,0,0,0-.06.1-.18.16-.27.11-.2.17-.29,0,0,0,0v0a3.29,3.29,0,0,0,.16-.33,2,2,0,0,0,.09-.2l.05-.09s0,0,0-.06l.15-.35a.18.18,0,0,0,0-.11l.05-.12a1.15,1.15,0,0,1,.06-.17c0-.1.07-.23.11-.33s0,0,0,0h0a3.84,3.84,0,0,0,.11-.46.15.15,0,0,1,0-.06c0-.09,0-.17.05-.26s0-.16,0-.24a.15.15,0,0,1,0-.09.28.28,0,0,1,0-.09,4.17,4.17,0,0,1,0-.5Z" transform="translate(0 -1.68)"/><path class="cls-7" d="M51.62,6.11c.51-.3.94-.48,1.32-.71,1.34-.78,3.28-1.34,3.89-.7a11.21,11.21,0,0,1,1.32-.9A4.43,4.43,0,0,1,60.94,3c1.58.5,4.62.56,4.67,17.7,0,.44,0,8.84,1.61,10.18,0,.15-.62,3.06-5.86,6.84a33.21,33.21,0,0,1-2.91,1.87c-.39,1.73.14,3,1.26,3.2,2.07.49,9.36-.76,11.06-.2s4.14.72,4.15,6.33L29.78,75a19.4,19.4,0,0,1,4.47-11.31c1.22-1.53,9.09-9.46,11-12.55a7.86,7.86,0,0,0,1.32-4.69,24.13,24.13,0,0,1-2.29,1.12c-2.1.9-5.05,1.77-6.09.2.07-.23,1.56-4.42,1.55-12-.14-7.37.32-16.64,5.16-23,3.47-4.51,5.38-6,6.69-6.73Z" transform="translate(0 -1.68)"/><path class="cls-8" d="M38.34,48a.48.48,0,0,1-.12-.16L36,46.48a1.48,1.48,0,0,0,.26.3,1.09,1.09,0,0,0,.32.23l2.24,1.31a1.74,1.74,0,0,1-.45-.37Z" transform="translate(0 -1.68)"/><path class="cls-9" d="M59.91,2.16h0l-.15-.08L59.56,2a0,0,0,0,1,0,0,.58.58,0,0,0-.17-.06l-.12,0a1,1,0,0,1-.2-.06l-.35-.1-.07,0h-.52a.23.23,0,0,0-.12,0h-.06a.23.23,0,0,0-.11,0l-.21,0-.06,0-.14,0-.12,0L57.07,2,57,2h0s0,0-.06,0l-.38.18a.45.45,0,0,1-.12.06L56,2.54a11.79,11.79,0,0,0-1.31.88l-.18-.1h0l-.09,0h0l0,0h-.05l-.06,0h-.09a.12.12,0,0,1-.08,0l-.1,0h-.34a1.75,1.75,0,0,0-.33,0h-.09l-.19,0-.1,0-.19,0H52.6l0,0-.41.12s0,0-.06,0-.27.11-.42.15h0s0,0,0,0a5.16,5.16,0,0,0-.49.21h0c-.17.07-.32.17-.48.24-.37.23-.8.41-1.32.72a1.91,1.91,0,0,0-.27.16l0,0c-.09.06-.18.1-.27.17h0l-.29.2,0,0-.3.23,0,0a4,4,0,0,0-.34.27V6l-.38.31,0,0L47,6.66s0,0,0,0-.26.24-.4.38h0l0,0-.34.34,0,0c-.12.13-.23.25-.37.38v0c-.12.14-.25.27-.38.41s0,0-.06.08a4.15,4.15,0,0,0-.38.44.05.05,0,0,0,0,0l0,.05a6.08,6.08,0,0,0-.39.47s0,0-.07.06l-.41.5,0,.05-.46.56-.09.1c-.15.2-.3.38-.45.6,0,0,0,0,0,0a3.25,3.25,0,0,0-.23.29l-.46.61h0a1.05,1.05,0,0,1-.07.11l-.37.53a.13.13,0,0,1,0,.05c0,.07-.09.14-.14.21s-.16.27-.24.41l0,.06c0,.08-.08.14-.13.21L41,14.2s0,.06-.06.09l-.1.18c-.07.15-.15.29-.22.44a.59.59,0,0,0-.06.14.52.52,0,0,0-.07.15c-.07.16-.15.33-.22.51l-.08.17a.32.32,0,0,0,0,.09l-.35.84h0s0,0,0,.05c-.13.32-.23.64-.35,1l-.05.12,0,.13a2.79,2.79,0,0,0-.11.35,2.59,2.59,0,0,0-.11.37c0,.12-.07.23-.1.35a1.29,1.29,0,0,0-.06.21.7.7,0,0,0,0,.12c-.07.23-.13.46-.19.7l0,.18c-.08.29-.14.58-.2.88,0,0,0,0,0,.06s0,.17,0,.26l-.09.46c0,.11-.05.23-.06.33s-.06.29-.08.44,0,.23-.06.35,0,.29-.08.44,0,.25,0,.35-.05.29-.06.44,0,.11,0,.17,0,.08,0,.12c0,.38-.09.75-.14,1.13,0,0,0,.09,0,.13,0,.37-.08.73-.1,1.1,0,0,0,.09,0,.13,0,.38-.05.75-.08,1.13,0,.07,0,.15,0,.23,0,.36,0,.73,0,1.11v.18c0,.36,0,.71,0,1.08V31c0,.37,0,.75,0,1.11V33.5c0,.35,0,.72,0,1.07v1.11c0,.21,0,.42,0,.63v.22c0,.27,0,.53,0,.79v.13c0,.22,0,.43,0,.63s0,.15,0,.21,0,.41,0,.61a.27.27,0,0,1,0,.12c0,.23-.05.46-.06.68,0,.06,0,.12,0,.17l0,.5c0,.06,0,.12,0,.18,0,.22,0,.41-.07.61s0,.31-.06.46,0,.09,0,.15,0,.2,0,.29a.86.86,0,0,0,0,.17c0,.09,0,.16-.05.24a1.22,1.22,0,0,0,0,.17l0,.22a1,1,0,0,1,0,.17c0,.08,0,.14,0,.21a1.1,1.1,0,0,0,0,.16c0,.06,0,.13,0,.19a.66.66,0,0,1,0,.15c0,.07,0,.13,0,.2a.7.7,0,0,0,0,.14.42.42,0,0,0,0,.12c0,.12,0,.23-.08.33a.29.29,0,0,1,0,.08l-.09.37s0,0,0,.07a1.31,1.31,0,0,0-.06.27s0,0,0,.08,0,.2-.07.27,0,0,0,0l0,.18s0,.05,0,.06l0,.14a.43.43,0,0,0,0,0c0,.06,0,.1-.05.15h0a1,1,0,0,0,0,.11v0a.08.08,0,0,0,0,.06h0a.43.43,0,0,1,0,0l2.25,1.31s0,0,0-.05h0s0,0,0-.06v0a.45.45,0,0,1,0-.11v0a1.55,1.55,0,0,0,0-.15s0,0,0,0l0-.14s0-.05,0-.06l0-.18a.06.06,0,0,1,0-.05h0c0-.1,0-.19.08-.28s0,0,0-.07a2.3,2.3,0,0,0,.06-.28s0,0,0-.07.06-.23.09-.37a.56.56,0,0,1,0-.07c0-.11.05-.22.08-.34s0,0,0-.06a.1.1,0,0,1,0-.06.7.7,0,0,1,0-.14l.05-.18a.8.8,0,0,1,0-.15c0-.06,0-.14,0-.2a.65.65,0,0,0,0-.17c0-.07,0-.13,0-.21a1.22,1.22,0,0,1,0-.17l0-.22a1,1,0,0,0,0-.17c0-.08,0-.17,0-.24a1,1,0,0,1,0-.17,2.93,2.93,0,0,1,0-.29s0-.09,0-.15,0-.31.06-.46.05-.41.08-.6,0-.13,0-.19l0-.5c0-.06,0-.12,0-.17,0-.22,0-.45.06-.68a.25.25,0,0,1,0-.12c0-.2,0-.4,0-.61s0-.14,0-.21,0-.41,0-.62v-.14c0-.26,0-.52,0-.79v-.21c0-.22,0-.43,0-.64V35.86c0-.35,0-.7,0-1.06V33.35c0-.36,0-.73,0-1.11v-.07c0-.35,0-.72,0-1.08v-.18c0-.37,0-.73,0-1.11,0-.08,0-.15,0-.23,0-.38,0-.74.07-1.12,0-.05,0-.1,0-.14l.09-1.1s0-.09,0-.13c0-.38.08-.75.14-1.13a1.27,1.27,0,0,0,0-.28c0-.16.05-.29.06-.45s0-.24,0-.34a3.5,3.5,0,0,1,.07-.45c0-.12,0-.22.06-.34l.08-.45a3.23,3.23,0,0,0,.06-.33l.09-.46c0-.1.05-.21.06-.31.06-.29.14-.58.2-.89l0-.18.18-.7c0-.1.06-.22.09-.33a2,2,0,0,1,.11-.35c0-.12.07-.24.1-.37s.08-.22.11-.34a2.56,2.56,0,0,1,.09-.26c.11-.32.23-.64.35-1,0,0,0,0,0-.05.11-.28.23-.56.35-.83,0-.09.08-.17.11-.26s.15-.35.23-.52l.14-.29c.07-.15.15-.3.22-.44a1.91,1.91,0,0,1,.16-.27l.22-.41c.05-.09.11-.18.15-.27l.25-.41c0-.09.1-.17.15-.26s.24-.37.36-.53l.08-.12a7,7,0,0,1,.46-.61c.09-.11.16-.21.25-.34l.48-.59a.3.3,0,0,0,.07-.1c.15-.2.31-.38.46-.57l0,0c.13-.17.29-.35.42-.5s0-.05.06-.06l.41-.48.08-.09c.14-.15.26-.3.4-.44s0,0,.06-.06.25-.29.38-.41h0a4.44,4.44,0,0,1,.37-.38l0-.05.34-.33.06-.06c.13-.14.27-.26.39-.38l0,0a4.17,4.17,0,0,1,.4-.35v0c.14-.12.26-.23.38-.32h0c.12-.09.22-.19.33-.28l0,0,.31-.22s0,0,0,0L51,6.51s0,0,0,0l.27-.17h0l.27-.17c.52-.3.94-.48,1.32-.71a4.16,4.16,0,0,1,.47-.24h0A3.64,3.64,0,0,1,53.9,5h0a2.6,2.6,0,0,1,.42-.15s0,0,.06,0a3.84,3.84,0,0,1,.41-.13.32.32,0,0,0,.09,0l.19,0a.38.38,0,0,1,.1,0,.57.57,0,0,1,.18,0l.1,0,.33,0h.32a.2.2,0,0,1,.1,0h.1l.06,0a.32.32,0,0,1,.09,0l.35.19a13.8,13.8,0,0,1,1.32-.89l.42-.23s.08-.05.13-.06l.38-.18.09,0,.1,0,.25-.09.12-.05a1.17,1.17,0,0,1,.2-.06l.21,0,.18,0h.12l.23,0h.06a2.53,2.53,0,0,1,.3,0l.25.08h0a.45.45,0,0,1,.11,0l.2.06.12,0a.67.67,0,0,1,.18.07l.17.08.18.09Z" transform="translate(0 -1.68)"/><path class="cls-10" d="M54,43.27l.68.35a1.3,1.3,0,0,1,.43.47.89.89,0,0,1,0,.73c-.31.79-.55,1.43-.76,1.9a7.24,7.24,0,0,1-.64,1.2c.12.32.24.76.39,1.32s.29,1.16.43,1.77.26,1.17.36,1.65a5.3,5.3,0,0,1,.17,1.08,2.64,2.64,0,0,1-.24.87,8.56,8.56,0,0,1-.63,1.15,9,9,0,0,1-.76,1.1,2.85,2.85,0,0,1-.66.68.89.89,0,0,1-.66.09,1.87,1.87,0,0,1-.7-.32,4.58,4.58,0,0,1-.59-.48.82.82,0,0,1-.26-.55,12.12,12.12,0,0,1,.14-1.43c.09-.65.2-1.34.33-2.1s.28-1.47.41-2.2.26-1.28.34-1.66a1.31,1.31,0,0,1-.62-.59q-.33-.51-.69-1a.68.68,0,0,1,0-.62,4.47,4.47,0,0,1,.37-.85,11.11,11.11,0,0,1,.62-1.11Z" transform="translate(0 -1.68)"/><path class="cls-11" d="M53.26,58.6a.77.77,0,0,1-.26-.54,4.49,4.49,0,0,1,0-.64c0-.06,0-.14,0-.2s0-.39.08-.59c.09-.65.19-1.34.33-2.1s.27-1.47.41-2.2.26-1.28.33-1.66l-1.64-1q-.1.59-.33,1.65c-.15.72-.29,1.44-.41,2.2s-.24,1.45-.34,2.1c0,.12,0,.23,0,.35a2.3,2.3,0,0,0,0,.26c0,.06,0,.13,0,.2l0,.63a.74.74,0,0,0,.26.55,3.94,3.94,0,0,0,.59.49l.15.1,1.64,1a1.12,1.12,0,0,1-.15-.11,4,4,0,0,1-.59-.5Z" transform="translate(0 -1.68)"/><path class="cls-12" d="M56.45,45l-1.64-1c.18.08.33.17.48.25l1.64.95a3.06,3.06,0,0,0-.48-.24" transform="translate(0 -1.68)"/><path class="cls-13" d="M56.93,45.26l-1.64-.95.05,0,1.64.95s0,0,0,0" transform="translate(0 -1.68)"/><path class="cls-14" d="M53.86,46.51l-1.64-1,2.59-1.49,1.64,1Z" transform="translate(0 -1.68)"/><path class="cls-15" d="M56.45,45c.26.12.48.24.68.35a1.22,1.22,0,0,1,.43.47.89.89,0,0,1,0,.73c-.31.79-.55,1.43-.76,1.9a7.67,7.67,0,0,1-.64,1.2c.12.32.24.76.39,1.32s.29,1.16.43,1.76.26,1.17.36,1.66a4.6,4.6,0,0,1,.17,1.08,2.37,2.37,0,0,1-.24.86,7.67,7.67,0,0,1-.63,1.16,10,10,0,0,1-.75,1.09,2.94,2.94,0,0,1-.67.69.89.89,0,0,1-.66.09,1.94,1.94,0,0,1-.7-.32,4.65,4.65,0,0,1-.59-.49A.81.81,0,0,1,53,58a11.92,11.92,0,0,1,.14-1.43c.09-.66.2-1.34.33-2.1s.28-1.47.41-2.2.26-1.28.34-1.66a1.36,1.36,0,0,1-.62-.59q-.33-.52-.69-1a.68.68,0,0,1,0-.62,4.47,4.47,0,0,1,.37-.85,10.1,10.1,0,0,1,.62-1.11Z" transform="translate(0 -1.68)"/><path class="cls-16" d="M53.59,50.1l-1.64-1a1.53,1.53,0,0,0,.55.55l1.64,1a1.58,1.58,0,0,1-.55-.54Zm-.68-1a.2.2,0,0,1-.06-.11l0,0a.41.41,0,0,1,0-.11h0a.71.71,0,0,1,0-.15v0l.05-.18c0-.14.1-.27.15-.41v0c.06-.13.12-.27.2-.41a4.37,4.37,0,0,1,.25-.48,1,1,0,0,0,.08-.14c.09-.17.18-.32.29-.49l-1.64-1a3.35,3.35,0,0,0-.21.36,1.33,1.33,0,0,0-.06.12c0,.05,0,.1-.08.14l-.08.14-.18.35h0a1.86,1.86,0,0,0-.1.2l-.09.2v0c0,.06,0,.12-.07.18l-.08.21v.06s0,0,0,0,0,0,0,.06v.21s0,.08,0,.11l0,0a.41.41,0,0,0,.06.11l.68,1,1.64,1c-.21-.32-.44-.65-.71-1Z" transform="translate(0 -1.68)"/><path class="cls-17" d="M82.77,52.79l-2.25-1.31,6.91,2.93,2.27,1.31Z" transform="translate(0 -1.68)"/><path class="cls-18" d="M86,48.88l-2.24-1.3c-.64-.37-.61-1.23-1.11-1.54l2.25,1.31c.48.29.47,1.17,1.1,1.53" transform="translate(0 -1.68)"/><path class="cls-19" d="M81.05,53.78,78.8,52.47v-2l2.25,1.31Z" transform="translate(0 -1.68)"/><path class="cls-16" d="M81.05,51.8,78.8,50.49l1.72-1,2.25,1.32Zm-3.43,4-2.27-1.31,3.45-2,2.25,1.31ZM69,67.65l-2.24-1.32,6.86-10.88,2.25,1.3Z" transform="translate(0 -1.68)"/><path class="cls-16" d="M69.05,72.25l0-4.62-2.24-1.3v4.61a1.25,1.25,0,0,0,.56,1.13l2.25,1.3a1.22,1.22,0,0,1-.56-1.12Zm6.85-15.5-2.25-1.3v-2l2.25,1.31Z" transform="translate(0 -1.68)"/><path class="cls-20" d="M75.9,54.78l-2.25-1.31,1.7-1,2.25,1.31Z" transform="translate(0 -1.68)"/><path class="cls-21" d="M82.77,50.81v2l6.91,2.93,0,4.62A5.1,5.1,0,0,1,87.39,64L71.33,73.25c-1.11.64-2.3.29-2.3-1V67.65l6.87-10.9v-2l1.7-1v2l3.45-2v-2Z" transform="translate(0 -1.68)"/><path class="cls-22" d="M79.3,45.54c.34-.2,6.63-3.8,10-3.48a2.16,2.16,0,0,1,2,2.3,4.71,4.71,0,0,1-2.41,4,5.36,5.36,0,0,1-1.6.6c-2.51.5-1.5-1.89-3-1.72a14.33,14.33,0,0,0-5,1.73,25.37,25.37,0,0,0-5,4.07c-1.5,1.57-.48,2.8-3,5.2a8.71,8.71,0,0,1-1.6,1.24c-1.61.93-2.44.22-2.43-1.21a8.34,8.34,0,0,1,2-4.64c3.42-4.25,9.71-7.91,10-8.11Z" transform="translate(0 -1.68)"/><path class="cls-23" d="M79.47,45.45l.08-.05.06,0,.09,0,.08,0,.1-.06.09,0,.14-.08.09,0a.71.71,0,0,1,.15-.08l.11-.06a.67.67,0,0,1,.17-.08l.12-.06.18-.09a.45.45,0,0,0,.12-.06,1,1,0,0,0,.2-.11l.12-.06.27-.13.06,0,.35-.17.11-.05.26-.12.14-.06.24-.11a1.47,1.47,0,0,1,.17-.07c.07,0,.15-.08.24-.11l.17-.07.24-.11.14-.06c.19-.08.39-.17.6-.24l.06,0,.6-.21.09,0a5.45,5.45,0,0,1,.61-.2.24.24,0,0,1,.12,0l.61-.18a.15.15,0,0,1,.09,0c.19,0,.39-.1.57-.13l0,0c.2,0,.39-.08.58-.11h.12a2,2,0,0,1,.24,0l.15,0h.26a.23.23,0,0,0,.12,0h.5a.65.65,0,0,1,.2,0,2.13,2.13,0,0,1,.25,0,1,1,0,0,1,.15,0,.38.38,0,0,1,.1,0l.13,0,.1,0,.12.06a.6.6,0,0,1,.11.06L88,41.1h0L87.92,41A.45.45,0,0,1,87.8,41h0l-.09,0-.12,0h0a.15.15,0,0,0-.09,0,.57.57,0,0,0-.15,0h0a1.33,1.33,0,0,1-.21,0h-.2a2.09,2.09,0,0,0-.5,0h-.12l-.26,0h-.15a2.13,2.13,0,0,1-.25,0,.08.08,0,0,0-.06,0h-.06a5.72,5.72,0,0,0-.57.11h-.05l-.58.14s0,0-.06,0h0l-.61.18a.24.24,0,0,1-.12,0c-.2.06-.39.14-.61.2a.32.32,0,0,1-.09,0l-.57.21s-.05,0-.06,0q-.3.1-.6.24l-.06,0-.07,0-.23.09-.17.08-.23.1-.16.08-.25.1-.15.07c-.09,0-.18.07-.27.12l-.11,0-.36.17s0,0-.06,0l-.28.14a.21.21,0,0,0-.1.06l-.22.1a.45.45,0,0,1-.12.06l-.18.1a.45.45,0,0,0-.12.06l-.15.07a.75.75,0,0,1-.13.06l-.13.08a.3.3,0,0,0-.11.06.45.45,0,0,1-.12.06l-.09,0-.11.06-.07,0-.09.06a.11.11,0,0,1-.07,0s-.06,0-.07,0h0s0,0-.06,0l-.08,0,0,0a0,0,0,0,0,0,0l-.06,0h0s0,0-.06.05l0,0-.07,0-.06,0a.29.29,0,0,1-.11.06l-.06,0-.18.1a0,0,0,0,0,0,0l-.17.11-.08,0L75.9,45a.52.52,0,0,1-.11.07l-.15.09-.1.06a1,1,0,0,0-.19.12.47.47,0,0,0-.09.06c-.07,0-.15.09-.22.15s-.05,0-.06,0l-.31.19a.18.18,0,0,1-.07,0l-.25.17-.1.07-.22.16-.12.09-.21.15-.14.09-.23.17-.12.09-.29.21-.07.06-.37.27a.39.39,0,0,1-.1.08c-.09.08-.19.14-.28.21l-.13.11-.25.18a.61.61,0,0,1-.15.12l-.24.2a.88.88,0,0,1-.15.12,2.53,2.53,0,0,0-.26.22.63.63,0,0,0-.12.1,4.38,4.38,0,0,0-.34.29.05.05,0,0,1,0,0l-.38.32a.29.29,0,0,0-.11.11l-.26.22-.13.13a2.29,2.29,0,0,0-.23.21l-.14.14a2.29,2.29,0,0,1-.23.21l-.13.13-.12.13-.51.51,0,.05c-.17.18-.34.36-.5.56l-.06.06s0,.05,0,.06c-.15.17-.29.34-.42.52a.76.76,0,0,0-.11.14c-.11.13-.21.28-.32.44,0,0,0,0,0,0l-.05.07-.18.28a2.29,2.29,0,0,1-.15.24l0,.08s0,0,0,0l-.19.35s0,.11-.08.15l-.09.18a2.52,2.52,0,0,0-.15.34l-.05.09a.32.32,0,0,0,0,.09.84.84,0,0,1-.06.14,1.85,1.85,0,0,0-.12.33.06.06,0,0,1,0,.05.17.17,0,0,0,0,.07c0,.08,0,.17-.08.25s0,.13,0,.19a.45.45,0,0,0,0,.11s0,0,0,.06,0,.27-.07.41v0a4.4,4.4,0,0,0,0,.49,1.62,1.62,0,0,0,.61,1.49L68,59.85a1.6,1.6,0,0,1-.61-1.49c0-.15,0-.32,0-.48v0a4.3,4.3,0,0,1,.09-.47s0-.08,0-.11a4.16,4.16,0,0,1,.12-.44s0,0,0-.08a5.38,5.38,0,0,1,.2-.51.32.32,0,0,0,0-.09c.08-.17.15-.35.24-.54l0-.09c.09-.18.2-.36.3-.54l0-.08c.1-.17.21-.35.33-.52l.05-.07c.13-.2.29-.41.45-.61l.43-.52a.63.63,0,0,1,.11-.12c.16-.18.33-.38.5-.56l0,0,.5-.51.13-.12.13-.14a2.19,2.19,0,0,1,.23-.21l.14-.14c.07-.08.15-.14.22-.21l.14-.12.26-.23a1.31,1.31,0,0,0,.12-.11l.38-.32,0,0,.33-.28a.63.63,0,0,0,.12-.1l.26-.22.15-.12a2.7,2.7,0,0,1,.25-.18l.15-.12.24-.18.14-.11a2.73,2.73,0,0,0,.25-.2l.11-.07.37-.28s0,0,.07-.06l.29-.21.12-.09.23-.17.14-.09.21-.15.12-.09.21-.15s.08,0,.11-.08a2.49,2.49,0,0,0,.24-.17l.08,0,.3-.2.08,0,.21-.13a.47.47,0,0,1,.09-.06l.19-.13.1-.06.15-.09.11-.06.15-.09.08,0,.16-.11a0,0,0,0,0,0,0,.87.87,0,0,1,.18-.11l.06,0,.1-.06.07,0a.13.13,0,0,0,.07,0l0,0,.06,0s0,0,0,0a.11.11,0,0,1,.06,0h0l0,0s.05,0,.08,0l.06,0a.36.36,0,0,1,0-.12Z" transform="translate(0 -1.68)"/><path class="cls-24" d="M79.82,56.72c2-1.15,3.6-.22,3.62,2.05A8,8,0,0,1,79.85,65c-2,1.15-3.6.23-3.61-2a8,8,0,0,1,3.58-6.22Z" transform="translate(0 -1.68)"/><path class="cls-25" d="M82.42,57.33h0a1.34,1.34,0,0,0,.26-.08l.15,0,.2,0h.38l.28,0h.06a.73.73,0,0,1,.19.07H84l.25.11L83,56.65s0,0,0,0l-.19-.09h0s0,0-.06,0l-.09,0a.35.35,0,0,0-.11,0l-.06,0h0a1.33,1.33,0,0,0-.21,0h-.39a.23.23,0,0,0-.11,0h-.09a.66.66,0,0,1-.15,0l-.08,0-.18.06h0l-.23.09-.09,0-.09,0-.33.17c-.12.06-.23.14-.35.21l-.11.08-.23.17-.12.1-.19.18a1.27,1.27,0,0,1-.13.11l-.07.08s0,.06-.08.07l-.24.26-.08.08s0,0-.06.07l-.13.17-.1.11-.07.09a.63.63,0,0,1-.11.13.3.3,0,0,1-.07.1c0,.06-.08.1-.11.16s-.05.08-.08.11,0,0,0,0l-.18.31h0a.11.11,0,0,0,0,.06,2.14,2.14,0,0,1-.13.22l0,.1a.6.6,0,0,1-.06.11l0,.09c0,.09-.07.17-.12.26s0,0,0,0v0l-.14.32s0,0,0,.06,0,.08,0,.12a1.15,1.15,0,0,0-.06.17s0,.09-.05.12,0,.11,0,.15a.32.32,0,0,0,0,.09l0,.17,0,.18s0,0,0,.06a.34.34,0,0,0,0,.14c0,.09,0,.2,0,.29s0,0,0,.07a1.28,1.28,0,0,0,0,.19s0,.09,0,.12,0,.27,0,.39a2.53,2.53,0,0,0,1,2.31l1.3.76a2.51,2.51,0,0,1-1.05-2.31,2.61,2.61,0,0,1,0-.39s0-.09,0-.12,0-.17,0-.26,0-.2,0-.29,0-.14.05-.2l0-.18a2.58,2.58,0,0,1,.08-.26s0-.1,0-.15l.09-.29,0-.12c0-.14.11-.26.15-.4s0,0,0,0a2.72,2.72,0,0,1,.16-.35s0-.08.07-.11l.18-.32a.11.11,0,0,0,0-.06l.23-.36a.34.34,0,0,1,.07-.11c.06-.09.12-.16.18-.26a.63.63,0,0,1,.11-.13c0-.08.11-.14.17-.22a1.12,1.12,0,0,1,.13-.16l.14-.15a3,3,0,0,1,.24-.26l.16-.15a.41.41,0,0,1,.12-.11l.19-.18s.08-.08.13-.11l.22-.17a.34.34,0,0,1,.11-.07c.11-.08.23-.15.35-.22l.33-.16.1,0c.07,0,.16-.06.27-.09Z" transform="translate(0 -1.68)"/><path class="cls-15" d="M81.69,57.67c2-1.16,3.6-.23,3.62,2a7.94,7.94,0,0,1-3.59,6.21c-2,1.15-3.6.23-3.62-2.05a7.89,7.89,0,0,1,3.59-6.21Z" transform="translate(0 -1.68)"/></g></g></svg>