<?xml version="1.0" encoding="UTF-8"?>
<svg width="16px" height="16px" viewBox="0 0 16 16" version="1.1" xmlns="http://www.w3.org/2000/svg" xmlns:xlink="http://www.w3.org/1999/xlink">
    <!-- Generator: Sketch 51.3 (57544) - http://www.bohemiancoding.com/sketch -->
    <title>全屏 nor</title>
    <desc>Created with Sketch.</desc>
    <defs></defs>
    <g id="Page-1" stroke="none" stroke-width="1" fill="none" fill-rule="evenodd">
        <g id="图标" transform="translate(-237.000000, -1762.000000)" fill="#8583AC">
            <g id="全屏-nor" transform="translate(237.000000, 1762.000000)">
                <path d="M2.73137085,1.6 L5.6,4.46862915 L4.46862915,5.6 L1.6,2.73137085 L1.6,4.8 L-2.22044605e-16,4.8 L3.65785859e-16,1.6 L0,0 L4.8,0 L4.8,1.6 L2.73137085,1.6 Z M2.73137085,14.4 L4.8,14.4 L4.8,16 L0,16 L0,14.4 L0,11.2 L1.6,11.2 L1.6,13.2686292 L4.46862915,10.4 L5.6,11.5313708 L2.73137085,14.4 Z M13.2686292,1.6 L11.2,1.6 L11.2,0 L16,0 L16,1.6 L16,4.8 L14.4,4.8 L14.4,2.73137085 L11.5313708,5.6 L10.4,4.46862915 L13.2686292,1.6 Z M13.2686292,14.4 L10.4,11.5313708 L11.5313708,10.4 L14.4,13.2686292 L14.4,11.2 L16,11.2 L16,14.4 L16,16 L11.2,16 L11.2,14.4 L13.2686292,14.4 Z" id="Combined-Shape"></path>
            </g>
        </g>
    </g>
</svg>