<?xml version="1.0" encoding="utf-8"?>
<!-- Generator: Adobe Illustrator 22.0.1, SVG Export Plug-In . SVG Version: 6.00 Build 0)  -->
<svg version="1.1" id="图层_1" xmlns="http://www.w3.org/2000/svg" xmlns:xlink="http://www.w3.org/1999/xlink" x="0px" y="0px"
	 viewBox="0 0 16 16" style="enable-background:new 0 0 16 16;" xml:space="preserve">
<style type="text/css">
	.st0{fill:#CED3DD;}
</style>
<title>地球 (1)</title>
<desc>Created with Sketch.</desc>
<g id="首页修改">
	<g id="币币交易-专业版-登录" transform="translate(-1790.000000, -22.000000)">
		<g id="头部导航">
			<g id="地球-_x28_1_x29_" transform="translate(1790.000000, 22.000000)">
				<g id="Shape">
					<path class="st0" d="M16,8c0-4.4-3.6-8-8-8C3.6,0,0,3.6,0,8c0,4.1,3.1,7.4,7,7.9C7.2,16,7.5,16,7.8,16c0.1,0,0.2,0,0.3,0
						C12.5,15.9,16,12.4,16,8z M1.1,8c0-0.5,0.1-1,0.1-1.4c0.3,0.3,1,0.3,1.2-0.2C2.8,6.6,3.2,6.6,3.2,7c0,1.2,0,2.5,1.1,2.5
						c0,0,0.6,0.2,0.9,0.9c0.1,0.2,0.5,0,0.9,0c0.2,0,0,0.3,0,1.1c0,0.7,1.6,1.9,1.6,1.9c0,0.5,0,0.9,0.1,1.2c-0.4,0-0.7,0-0.9,0.1
						C3.6,14.2,1.1,11.4,1.1,8L1.1,8z M9.7,14.6c0-0.2-0.2-0.3-0.5-0.2c0.2-1,0.3-1.5,0.8-1.9c0.7-0.6,0.1-1.3-0.4-1.2
						c-0.4,0.1-0.2-0.5-0.5-0.5c-0.4,0-0.8-0.8-1.4-1c-0.3-0.1-0.6-0.5-1-0.5c-0.4,0-0.9,0.3-0.9,0.1c0-0.8-0.1-1.4-0.1-1.7
						c0-0.2-0.1-0.1,0.4-0.1c0.3,0,0.1-0.6,0.4-0.6c0.3,0,0.9,0.3,1.1,0.1c0.2-0.1,1.1,2.6,1.1,0.4c0-0.3-0.1-0.7,0-0.9
						c0.5-0.9,1-1.7,1-1.8c0-0.1-0.5-0.1-0.9,0c-0.1,0,0,0.3-0.2,0.3C7.8,5.4,7.2,5,7.4,4.7c0.2-0.4,1.1-0.2,1.1-0.9
						c0-0.4,0.1-0.9,0.1-1.2c1,0.2,0.9-1.3-0.6-1.4c3,0,5.5,1.9,6.4,4.6c0,0-0.1-0.1-0.2-0.1c-0.4-1.1-1.5-0.3-1.2,0.7
						c-2,1.5-1.5,2.6-0.8,3.2c0.3,0.3,0.7,0.8,0.9,1.1c-0.2,0.7,0.8,0.4,1.4-0.7C13.9,12.2,12,14,9.7,14.6z"/>
				</g>
			</g>
		</g>
	</g>
</g>
</svg>
