<?xml version="1.0" encoding="UTF-8"?>
<svg width="16px" height="16px" viewBox="0 0 16 16" version="1.1" xmlns="http://www.w3.org/2000/svg" xmlns:xlink="http://www.w3.org/1999/xlink">
    <!-- Generator: Sketch 51.3 (57544) - http://www.bohemiancoding.com/sketch -->
    <title>ico_k</title>
    <desc>Created with Sketch.</desc>
    <defs></defs>
    <g id="首页+交易" stroke="none" stroke-width="1" fill="none" fill-rule="evenodd">
        <g id="币币交易-标准dark" transform="translate(-936.000000, -111.000000)" fill="#8790A1">
            <g id="Group-19" transform="translate(406.000000, 104.000000)">
                <g id="tital">
                    <g id="ico_k" transform="translate(530.000000, 7.000000)">
                        <g id="Combined-Shape">
                            <path d="M1.5,13 L0,13 L0,3 L1.5,3 L1.5,0 L2.5,0 L2.5,3 L4,3 L4,13 L2.5,13 L2.5,16 L1.5,16 L1.5,13 Z M7.5,14 L6,14 L6,2 L7.5,2 L7.5,0 L8.5,0 L8.5,2 L10,2 L10,14 L8.5,14 L8.5,16 L7.5,16 L7.5,14 Z M13.5,13 L12,13 L12,3 L13.5,3 L13.5,0 L14.5,0 L14.5,3 L16,3 L16,13 L14.5,13 L14.5,16 L13.5,16 L13.5,13 Z"></path>
                        </g>
                    </g>
                </g>
            </g>
        </g>
    </g>
</svg>