<?xml version="1.0" encoding="UTF-8"?>
<svg width="16px" height="16px" viewBox="0 0 16 16" version="1.1" xmlns="http://www.w3.org/2000/svg" xmlns:xlink="http://www.w3.org/1999/xlink">
    <!-- Generator: Sketch 51.3 (57544) - http://www.bohemiancoding.com/sketch -->
    <title>专业版hover</title>
    <desc>Created with Sketch.</desc>
    <defs></defs>
    <g id="首页+交易" stroke="none" stroke-width="1" fill="none" fill-rule="evenodd">
        <g id="币币交易-白未登录" transform="translate(-898.000000, -142.000000)" fill="#14a2a5" fill-rule="nonzero">
            <g id="深度" transform="translate(406.000000, 104.000000)">
                <g id="专业版hover" transform="translate(492.000000, 38.000000)">
                    <path d="M1,0 L15,0 C15.5522847,-1.01453063e-16 16,0.44771525 16,1 L16,15 C16,15.5522847 15.5522847,16 15,16 L1,16 C0.44771525,16 6.76353751e-17,15.5522847 0,15 L0,1 C-6.76353751e-17,0.44771525 0.44771525,1.01453063e-16 1,0 Z M1.68062597,11.3605504 L1.68062597,14 L3.49092513,14 L3.49092513,11.3605504 L1.68062597,11.3605504 Z M4.39607471,9.60091738 L4.39607471,14 L6.20637387,14 L6.20637387,9.60091738 L4.39607471,9.60091738 Z M7.11152344,12.240367 L7.11152344,14 L8.9218226,14 L8.9218226,12.240367 L7.11152344,12.240367 Z M9.82697218,9.60091738 L9.82697218,14 L11.6372713,14 L11.6372713,9.60091738 L9.82697218,9.60091738 Z M12.5424209,10.4807339 L12.5424209,14 L14.3527201,14 L14.3527201,10.4807339 L12.5424209,10.4807339 Z M2.32162937,8.90396302 L3.37365636,5.9029264 L5.33312934,5.00826429 L7.45634223,8.33931279 C7.67904413,8.68870349 8.17262059,8.75731817 8.48714981,8.48261082 L10.7818768,6.47841431 L12.1444959,7.42989176 C12.5009029,7.67876043 13.0029308,7.53848559 13.1689658,7.14363801 L14.9493561,2.9096957 C15.0912093,2.57235479 14.9248611,2.18710961 14.577807,2.04922651 C14.2307528,1.91134341 13.8344151,2.07303591 13.6925618,2.41037681 L12.2377539,5.87005247 L11.1304644,5.09686431 C10.8714649,4.91601246 10.5178746,4.93477181 10.2806642,5.14194954 L8.18319513,6.97386253 L6.16884759,3.8136098 C5.98733163,3.52883456 5.61508913,3.4214567 5.30314192,3.5638865 L2.53544128,4.82757165 C2.36867403,4.90371475 2.24091084,5.04247582 2.18148432,5.21199727 L1.03646437,8.47830777 C0.915538485,8.82326377 1.10520267,9.19819203 1.46009118,9.31573349 C1.8149797,9.43327494 2.20070348,9.24891902 2.32162937,8.90396302 Z" id="Combined-Shape"></path>
                </g>
            </g>
        </g>
    </g>
</svg>