<?xml version="1.0" encoding="UTF-8"?>
<svg width="14px" height="14px" viewBox="0 0 14 14" version="1.1" xmlns="http://www.w3.org/2000/svg" xmlns:xlink="http://www.w3.org/1999/xlink">
    <!-- Generator: Sketch 51.3 (57544) - http://www.bohemiancoding.com/sketch -->
    <title>搜索 copy</title>
    <desc>Created with Sketch.</desc>
    <defs></defs>
    <g id="首页+交易" stroke="none" stroke-width="1" fill="none" fill-rule="evenodd">
        <g id="Index-新1-Copy-6" transform="translate(-1532.000000, -643.000000)" fill="#A5A9BE" fill-rule="nonzero">
            <g id="Group-4" transform="translate(360.000000, 630.000000)">
                <g id="搜索" transform="translate(1020.000000, 5.000000)">
                    <g transform="translate(152.000000, 8.000000)">
                        <path d="M6.23699218,1.52729432 C3.62723986,1.52729432 1.51167481,3.66350903 1.51167481,6.29885967 C1.51167481,8.93436068 3.62716409,11.0707255 6.23699218,11.0707255 C8.8461435,11.0707255 10.9616328,8.93436068 10.9616328,6.29885967 C10.9616328,3.66350903 8.8461435,1.52729432 6.23699218,1.52729432 Z M12.4049302,13.7110962 L10.0146049,11.3027594 C8.96537576,12.1120251 7.65877509,12.5978697 6.23699218,12.5978697 C2.7923894,12.5978697 0,9.77771778 0,6.29908507 C0,2.82037705 2.7923894,0 6.23699218,0 C9.68137022,0 12.4738328,2.82007687 12.4738328,6.29885967 C12.4738328,7.67063884 12.0349477,8.93646328 11.2975692,9.97055398 L13.7057036,12.3975655 C14.0661502,12.7608377 14.0664362,13.3467391 13.7063444,13.7103629 L13.7063444,13.7103629 C13.3502608,14.0699393 12.7701037,14.0727707 12.4105273,13.7166871 C12.4086536,13.7148315 12.4067878,13.7129679 12.4049302,13.7110962 Z"></path>
                    </g>
                </g>
            </g>
        </g>
    </g>
</svg>