<svg xmlns="http://www.w3.org/2000/svg" xmlns:xlink="http://www.w3.org/1999/xlink" viewBox="0 0 119.84 93.84"><defs><style>.cls-1{fill:none;}.cls-2{clip-path:url(#clip-path);}.cls-3{fill:url(#未命名的渐变_48);}.cls-4{fill:url(#未命名的渐变_85);}.cls-5{fill:url(#未命名的渐变_48-2);}.cls-6{fill:url(#未命名的渐变_48-3);}.cls-7{fill:url(#未命名的渐变_79);}.cls-8{fill:#caaa76;}.cls-9{fill:url(#未命名的渐变_48-4);}.cls-10{fill:url(#未命名的渐变_79-2);}.cls-11{fill:#e8cfac;}.cls-12{fill:#fff;}.cls-13{fill:url(#未命名的渐变_48-5);}.cls-14{fill:url(#未命名的渐变_48-6);}.cls-15{fill:url(#未命名的渐变_48-7);}.cls-16{fill:url(#未命名的渐变_48-8);}</style><clipPath id="clip-path" transform="translate(0 -0.15)"><rect class="cls-1" x="0.02" width="120" height="94.16"/></clipPath><linearGradient id="未命名的渐变_48" y1="74.1" x2="119.83" y2="74.1" gradientUnits="userSpaceOnUse"><stop offset="0" stop-color="#d6a55b"/><stop offset="1" stop-color="#e9d7b1"/></linearGradient><linearGradient id="未命名的渐变_85" x1="0.07" y1="54.28" x2="119.84" y2="54.28" gradientUnits="userSpaceOnUse"><stop offset="0" stop-color="#fcf9f5"/><stop offset="1" stop-color="#f3e7d7"/></linearGradient><linearGradient id="未命名的渐变_48-2" x1="45.12" y1="65.77" x2="51.29" y2="65.77" xlink:href="#未命名的渐变_48"/><linearGradient id="未命名的渐变_48-3" x1="26.48" y1="31.58" x2="70.71" y2="31.58" xlink:href="#未命名的渐变_48"/><linearGradient id="未命名的渐变_79" x1="28.58" y1="35.13" x2="77.85" y2="35.13" gradientUnits="userSpaceOnUse"><stop offset="0" stop-color="#f0e4de"/><stop offset="1" stop-color="#ebd7c0"/></linearGradient><linearGradient id="未命名的渐变_48-4" x1="65.39" y1="51.28" x2="92.87" y2="51.28" xlink:href="#未命名的渐变_48"/><linearGradient id="未命名的渐变_79-2" x1="67.68" y1="52.87" x2="93.51" y2="52.87" xlink:href="#未命名的渐变_79"/><linearGradient id="未命名的渐变_48-5" x1="43" y1="34.7" x2="64.6" y2="34.7" xlink:href="#未命名的渐变_48"/><linearGradient id="未命名的渐变_48-6" x1="60.98" y1="39.57" x2="66.17" y2="39.57" xlink:href="#未命名的渐变_48"/><linearGradient id="未命名的渐变_48-7" x1="44.01" y1="36.25" x2="62.53" y2="36.25" xlink:href="#未命名的渐变_48"/><linearGradient id="未命名的渐变_48-8" x1="50.91" y1="29.12" x2="64.92" y2="29.12" xlink:href="#未命名的渐变_48"/></defs><title>资源 7</title><g id="图层_2" data-name="图层 2"><g id="图层_1-2" data-name="图层 1"><g class="cls-2"><path class="cls-3" d="M119.82,54.52c-.16,1.67-1.7,2.51-3,3.27l-3.64,2.11-5.81,3.37c-2.44,1.41-4.85,2.83-7.28,4.22-2.68,1.55-5.35,3.12-8,4.67L84,76.85l-7.42,4.32-6,3.51-4,2.29a13.7,13.7,0,0,1-3.08,1.49,11.56,11.56,0,0,1-8.92-1L51.65,85.8l-5.27-3-6.93-4-7.9-4.56c-2.72-1.56-5.43-3.14-8.15-4.71l-7.72-4.45L9.11,61.27C7.55,60.35,6,59.46,4.4,58.55L2.26,57.3A3.84,3.84,0,0,1,0,54.22c0,1.27,0,2.55,0,3.84,0,.46,0,.93,0,1.4A3.82,3.82,0,0,0,2.1,62.25c.62.38,1.26.73,1.89,1.1,1.65.94,3.29,1.9,4.93,2.84L16,70.29l8.45,4.88,8.81,5.09,8.37,4.83,7,4,4.71,2.72a18.67,18.67,0,0,0,2.8,1.47,11.47,11.47,0,0,0,9.54-.77l3.23-1.89,6-3.46c2.6-1.5,5.18-3,7.78-4.53l8.69-5.06,8.7-5.06L107.82,68l6.06-3.52c1.11-.66,2.24-1.29,3.35-1.95.33-.2.68-.39,1-.62a3.39,3.39,0,0,0,1.53-2.63c0-.56,0-1.11,0-1.67,0-1.11,0-2.23,0-3.34a.47.47,0,0,1,0,.27Z" transform="translate(0 -0.15)"/><path class="cls-4" d="M117.67,51.25c2.88,1.68,2.9,4.39,0,6.07L65.37,87.72a11.52,11.52,0,0,1-10.45,0L2.25,57.32c-2.89-1.68-2.9-4.39,0-6.07L54.54,20.84a11.52,11.52,0,0,1,10.45,0Z" transform="translate(0 -0.15)"/><path class="cls-5" d="M50.91,68.45,47.17,64l-2.05-1.19,3.74,4.5c.06.06.12.13.18.18a.81.81,0,0,0,.2.14l2,1.18A1.14,1.14,0,0,1,50.91,68.45Z" transform="translate(0 -0.15)"/><path class="cls-6" d="M68.65,1.79l-.13-.08-.09-.05L68,1.44a.59.59,0,0,0-.14-.06c-.18-.1-.36-.17-.56-.26,0,0,0,0,0,0s-.06,0-.07,0L66.73.89a1.77,1.77,0,0,0-.17-.06L66,.66H66L65.34.49a.9.9,0,0,0-.16,0l-.51-.1-.1,0h0L63.87.25h-.15l-.55,0H63c-.23,0-.47,0-.7,0h-.91L60.6.22l-.16,0-.84.1-.55.09-.16,0-.4.08-.21,0-.35.07-.24.06c-.1,0-.17.05-.26.06l-.06,0c-.19,0-.37.11-.54.15a.24.24,0,0,1-.12,0L56,1.19a1.27,1.27,0,0,1-.18.06l-.48.19-.25.09-.44.18a.75.75,0,0,0-.13.06l-.11.05-.64.27a.45.45,0,0,0-.12.06l-.76.37-.2.1c-.19.11-.39.2-.59.31l-.23.12c-.26.13-.51.29-.79.44s-.65.38-1,.59a.82.82,0,0,0-.17.11c-.3.19-.62.39-.92.6l-.19.13c-.32.21-.62.42-.92.65,0,0-.06,0-.08.06-.3.21-.59.44-.9.67a.63.63,0,0,0-.13.11c-.31.22-.59.47-.9.71l-.18.15L44.88,8a1.27,1.27,0,0,0-.12.1c-.29.24-.57.5-.85.76l-.1.08L43,9.78l-.2.2c-.15.15-.3.28-.44.44l-.2.19-.62.66-.06.06c-.18.2-.38.39-.56.6s-.14.16-.2.23-.27.31-.41.47-.08.08-.11.13l-.07.09c-.31.35-.6.7-.88,1l-.14.16c-.29.36-.58.71-.87,1.08l0,.06-.08.1-.74,1,0,0-.73,1a.34.34,0,0,0-.07.11.24.24,0,0,1-.06.08c-.22.3-.43.6-.64.92,0,.06-.08.11-.11.17l-.55.83a.88.88,0,0,0-.07.13l0,.07-.56.91-.11.19c-.15.25-.3.51-.47.77l-.09.14,0,.09c-.19.3-.35.61-.52.91a1,1,0,0,1-.08.14c-.15.27-.28.53-.44.8,0,.05,0,.09-.07.14a1.33,1.33,0,0,0-.06.12c-.15.27-.29.56-.44.84l0,.09c-.15.3-.3.62-.45.94a.58.58,0,0,0,0,.11s-.05.1-.08.15l-.36.76a.84.84,0,0,1-.11.21c-.13.32-.29.64-.42.94,0,0,0,.05,0,.06a.84.84,0,0,0-.06.14c-.13.27-.23.55-.35.82,0,.08-.08.17-.11.24-.14.32-.26.66-.39,1,0,0,0,0,0,0a.16.16,0,0,0,0,.09c-.12.3-.23.62-.35.92l-.09.25c-.12.33-.24.68-.35,1,0,0,0,0,0,0a.32.32,0,0,1,0,.09c-.1.35-.22.68-.33,1a1.17,1.17,0,0,0-.06.2l-.32,1.1a.29.29,0,0,0,0,.1.45.45,0,0,0,0,.11c-.12.41-.23.83-.32,1.24a1.09,1.09,0,0,1-.05.17c-.1.43-.19.87-.28,1.29v0l-.05.18c0,.2-.08.4-.12.61s0,.2-.06.3l-.09.52c0,.1,0,.21-.06.33s-.06.32-.08.49,0,.23-.05.33,0,.32-.06.47a1.25,1.25,0,0,1,0,.19s0,.07,0,.1c-.05.35-.09.72-.12,1.07,0,0,0,.1,0,.15,0,.33-.06.65-.07,1,0,.06,0,.12,0,.18,0,.35-.05.7-.05,1.05V45c0,.35,0,.72,0,1.07a23.88,23.88,0,0,0,1.72,9.34c.15.35.3.67.47,1a13.64,13.64,0,0,0,1.38,2.22,12.11,12.11,0,0,0,1,1.14c.11.12.23.23.35.35a11.91,11.91,0,0,0,2.31,1.75l2,1.18c-4.42-2.56-7.17-8-7.18-15.8,0-.35,0-.71,0-1.06a.61.61,0,0,0,0-.23l.05-1.05c0-.06,0-.12,0-.18,0-.32.05-.65.08-1,0,0,0-.1,0-.15,0-.35.08-.71.12-1.06a2.93,2.93,0,0,0,.05-.29c0-.15.05-.32.06-.47s0-.23.05-.34,0-.32.07-.48,0-.22.06-.34.06-.35.09-.51,0-.2.07-.31.07-.39.12-.6,0-.14,0-.22c.09-.42.2-.86.29-1.29l0-.17c.1-.41.21-.83.32-1.24a1.29,1.29,0,0,1,.06-.21l.32-1.1c0-.06,0-.12.06-.2.1-.35.21-.68.33-1l.05-.14c.1-.33.22-.68.35-1l.09-.25c.1-.3.23-.62.35-.92,0-.05,0-.08,0-.12.12-.34.26-.66.4-1,0-.07.06-.16.1-.24.11-.27.23-.55.35-.82l.09-.2c.14-.32.28-.64.43-.94a.7.7,0,0,1,.11-.21c.12-.26.24-.52.36-.76.05-.08.08-.17.12-.25.15-.31.31-.62.46-.92a.66.66,0,0,0,0-.11c.14-.27.29-.56.44-.83l.14-.26.44-.81.08-.13c.16-.31.35-.61.51-.92l.14-.22.46-.78a1.88,1.88,0,0,1,.12-.18c.18-.31.38-.61.56-.91a1.06,1.06,0,0,0,.12-.2c.18-.27.37-.55.55-.84,0-.06.07-.1.1-.16l.64-.93c.05-.06.09-.14.14-.2l.73-1v0c.25-.33.49-.65.75-1,0-.06.09-.1.13-.16l.87-1.08.14-.16.88-1,.18-.2c.14-.15.27-.31.41-.47s.14-.15.2-.23.38-.41.56-.61c0,0,0,0,.06-.06.21-.21.41-.44.62-.65l.2-.2c.15-.15.31-.3.44-.45l.19-.19c.28-.27.57-.56.86-.82l.09-.07c.28-.26.56-.52.85-.76A1.31,1.31,0,0,0,47,9.2c.29-.26.6-.5.89-.74L48,8.3l.89-.71.14-.11L50,6.82,50,6.75c.3-.22.62-.44.93-.65L51.14,6c.3-.21.61-.41.92-.61.07,0,.11-.07.17-.1l1-.6L54,4.23a1.67,1.67,0,0,0,.23-.12l.59-.3L55,3.7l.76-.36a.34.34,0,0,0,.12-.06c.22-.1.43-.2.64-.28a1.73,1.73,0,0,0,.24-.1l.44-.19.25-.09.48-.18.19-.06q.33-.12.66-.21a.31.31,0,0,1,.13,0A5.52,5.52,0,0,1,59.46,2l.32-.09L60,1.83a2.41,2.41,0,0,1,.35-.07l.22-.05L61,1.63l.16,0,.55-.09.84-.1.16,0c.26,0,.54,0,.79-.06h.92q.36,0,.69,0h.17l.55,0H66l.65.09.14,0a4.48,4.48,0,0,1,.5.11,1,1,0,0,0,.17,0l.61.15,0,0,.55.16a1.15,1.15,0,0,0,.17.06l.47.19.1,0,.57.26.13.06.43.23a1.67,1.67,0,0,0,.23.12Z" transform="translate(0 -0.15)"/><path class="cls-7" d="M53.13,4.67C66.74-3.18,77.8,3.12,77.85,18.76c0,13.2-7.8,28.83-18.43,38.12l-3.71,8.81a6,6,0,0,1-2.4,2.88,1.77,1.77,0,0,1-2.4-.12L47.17,64c-10.65,3-18.55-3.55-18.59-16.75,0-15.63,11-34.68,24.55-42.54Z" transform="translate(0 -0.15)"/></g><path class="cls-8" d="M75.26,70.08V66.67L73,65.37l0,3.4a.46.46,0,0,0,.19.43l2.25,1.3a.45.45,0,0,1-.2-.42Zm-7.53-1.43-2.25-1.31a1.43,1.43,0,0,0,.61,1.33L68.34,70a1.49,1.49,0,0,1-.61-1.32Z" transform="translate(0 -0.15)"/><path class="cls-9" d="M92.87,35.36l-2.25-1.3h0A.28.28,0,0,0,90.5,34h0a0,0,0,0,1,0,0H90.4l-.07,0h0l-.12,0h-.29l0,0h-.09a0,0,0,0,0,0,0h0l-.15,0,0,0h0c-.09,0-.16.08-.26.12L67.48,46.71l-.31.21-.06,0a2.43,2.43,0,0,0-.29.26h0l-.05,0a1,1,0,0,0-.14.15l0,.05a.05.05,0,0,0,0,0l-.08.09,0,.06,0,.06s0,0-.06.08l0,.06a.47.47,0,0,1-.06.09l0,.06s0,0,0,0a1.28,1.28,0,0,1-.1.17v0l0,0s0,.09-.07.12,0,0,0,.06,0,0,0,.06,0,0,0,.06a.84.84,0,0,0-.06.14s0,0,0,0l-.08.18s0,0,0,0,0,0,0,.06a.16.16,0,0,0,0,.09.12.12,0,0,0,0,.08.32.32,0,0,1,0,.09v0a1,1,0,0,1,0,.1.38.38,0,0,1,0,.1s0,0,0,0,0,.05,0,.08a1.22,1.22,0,0,1,0,.17.06.06,0,0,1,0,0v0a2.19,2.19,0,0,0,0,.36l0,17.08,2.25,1.3,0-17.07a2.31,2.31,0,0,1,0-.37.28.28,0,0,1,0-.09.9.9,0,0,0,0-.16s0-.08,0-.11a.45.45,0,0,1,0-.11,1.55,1.55,0,0,0,0-.15.32.32,0,0,0,0-.09.61.61,0,0,1,.07-.17s0,0,0-.06L68,50s0,0,0,0l.09-.19s0,0,0-.07a.87.87,0,0,1,.11-.18s0,0,0,0a1.53,1.53,0,0,0,.14-.21s0-.05,0-.06a.78.78,0,0,1,.1-.15.42.42,0,0,1,.06-.08l.1-.12.07-.09.08-.09a1.12,1.12,0,0,0,.13-.16.24.24,0,0,1,.08-.06,3.23,3.23,0,0,1,.29-.25l0,0,.32-.21L91.4,35.48c.09,0,.17-.09.26-.12s.06,0,.07,0l.15,0a.38.38,0,0,1,.1,0l.09,0h.48s0,0,0,0a.29.29,0,0,1,.11,0h0a.52.52,0,0,1,.15.06Z" transform="translate(0 -0.15)"/><path class="cls-10" d="M91.4,35.5c1.14-.65,2.06-.14,2.06,1.17l.05,16.73A4.51,4.51,0,0,1,91.46,57L82,62.42l-5.67,7.67a1,1,0,0,1-.38.35c-.35.2-.67.08-.67-.38v-3.4L69.79,69.8c-1.14.66-2.06.13-2.06-1.18l0-17.08a4.51,4.51,0,0,1,2-3.55Z" transform="translate(0 -0.15)"/><path class="cls-8" d="M74.5,52.56c1-.61,1.9-.12,1.9,1.08a4.16,4.16,0,0,1-1.88,3.27c-1,.6-1.9.12-1.9-1.08a4.19,4.19,0,0,1,1.88-3.27Zm5.69-3.28c1-.61,1.89-.12,1.89,1.08a4.13,4.13,0,0,1-1.88,3.26c-1,.61-1.9.13-1.9-1.07a4.17,4.17,0,0,1,1.89-3.27ZM85.87,46c1-.61,1.9-.12,1.9,1.08a4.16,4.16,0,0,1-1.89,3.26c-1,.61-1.9.12-1.9-1.08A4.11,4.11,0,0,1,85.87,46Z" transform="translate(0 -0.15)"/><path class="cls-11" d="M74.67,56.78a1,1,0,0,1,0-.15s0-.06,0-.1a.19.19,0,0,1,0-.1.61.61,0,0,0,0-.13.13.13,0,0,1,0-.08s0-.1,0-.15,0,0,0-.06a1,1,0,0,0,.07-.21,0,0,0,0,1,0,0l.09-.18a.11.11,0,0,0,0-.06l.09-.17,0,0a2.12,2.12,0,0,1,.12-.2.09.09,0,0,0,0-.06l.09-.13,0-.08.09-.11.07-.09s0-.06.08-.07a.81.81,0,0,1,.12-.14l.06-.06a1.84,1.84,0,0,1,.27-.23l0,0a2.51,2.51,0,0,1,.29-.2l.24-.12.08,0,.13,0,.1,0h.56a.38.38,0,0,1,.1,0s0,0,0,0a.26.26,0,0,1,.13.06l-1.64-1h0l-.09-.05h0l0,0h-.11l-.12,0h-.26a0,0,0,0,0,0,0h-.08a.06.06,0,0,0-.05,0h0l-.14.05h0s0,0,0,0l-.25.12a1.79,1.79,0,0,0-.28.2l0,0-.27.23h0l0,.05-.13.13,0,.05s0,0,0,0l-.08.09,0,.06a.05.05,0,0,0,0,0l-.05.08s0,0,0,0a.33.33,0,0,0-.06.1.06.06,0,0,0,0,.06s0,0,0,0l-.09.15h0a0,0,0,0,1,0,0,.6.6,0,0,0-.06.11.11.11,0,0,0,0,.06.11.11,0,0,0,0,.06.13.13,0,0,0,0,0l-.07.13s0,0,0,0l-.08.17s0,0,0,0,0,0,0,.06,0,.06,0,.07,0,0,0,.08a.26.26,0,0,0,0,.08l0,0a.28.28,0,0,0,0,.09.32.32,0,0,0,0,.09s0,0,0,0a.22.22,0,0,1,0,.08,1,1,0,0,0,0,.15v.09a1.94,1.94,0,0,0,0,.34,1.31,1.31,0,0,0,.55,1.21l1.64,1a1.33,1.33,0,0,1-.55-1.22c0-.1,0-.22,0-.33a.28.28,0,0,1,0-.11Z" transform="translate(0 -0.15)"/><path class="cls-12" d="M76.52,53.93c1-.61,1.9-.12,1.9,1.08a4.13,4.13,0,0,1-1.88,3.26c-1.05.61-1.9.12-1.9-1.08a4.17,4.17,0,0,1,1.88-3.26Z" transform="translate(0 -0.15)"/><path class="cls-11" d="M80.35,53.5a1,1,0,0,1,0-.15s0-.06,0-.11a.16.16,0,0,1,0-.09.61.61,0,0,0,0-.13.13.13,0,0,1,0-.08.88.88,0,0,1,.05-.15s0,0,0-.06l.09-.21s0,0,0,0l.09-.18s0,0,0-.06l.09-.17s0,0,0,0,.08-.13.13-.19,0,0,0-.06l.09-.14,0-.08.09-.1.08-.09s0-.07.08-.08l.12-.14.06-.06a2.76,2.76,0,0,1,.27-.23s0,0,0,0,.2-.13.29-.19a1.83,1.83,0,0,1,.24-.13l.08,0,.13,0,.08,0,.07,0h.46s0,0,0,0a.45.45,0,0,1,.11,0h0a.45.45,0,0,1,.12.06l-1.64-1h0l-.09,0h0l0,0h-.06s0,0,0,0h-.46l-.07,0h0l0,0-.14,0-.05,0h0l-.24.12-.29.2a.05.05,0,0,1,0,0l-.28.23a0,0,0,0,1,0,0l0,0a.75.75,0,0,0-.12.14l0,0s0,0,0,0l-.08.09,0,.07a.05.05,0,0,0,0,0l0,.08,0,0a.24.24,0,0,1-.06.09s0,0,0,.06,0,0,0,0a1.14,1.14,0,0,0-.09.16v0s0,0,0,0a.45.45,0,0,0-.06.12s0,0,0,.06a.11.11,0,0,0,0,.06.13.13,0,0,0,0,0,.75.75,0,0,0-.06.13,0,0,0,0,1,0,0,.89.89,0,0,1-.08.17s0,0,0,0,0,0,0,.06a.32.32,0,0,1,0,.09s0,0,0,.06a.21.21,0,0,0,0,.07s0,0,0,0a.28.28,0,0,0,0,.09.32.32,0,0,0,0,.09s0,0,0,0a.22.22,0,0,1,0,.08.8.8,0,0,0,0,.15v.09a1.94,1.94,0,0,0,0,.34,1.32,1.32,0,0,0,.55,1.21l1.64,1a1.35,1.35,0,0,1-.55-1.22c0-.1,0-.23,0-.33a.49.49,0,0,0,0-.11Z" transform="translate(0 -0.15)"/><path class="cls-12" d="M82.21,50.65c1-.61,1.9-.13,1.9,1.08A4.16,4.16,0,0,1,82.22,55c-1,.61-1.9.12-1.9-1.08a4.14,4.14,0,0,1,1.89-3.26Z" transform="translate(0 -0.15)"/><path class="cls-11" d="M86,50.22a.4.4,0,0,1,0-.15s0-.06,0-.11a.32.32,0,0,1,0-.09.32.32,0,0,0,0-.14s0,0,0-.07,0-.11,0-.15,0,0,0-.06l.09-.22h0l.09-.18a.11.11,0,0,0,0-.06.87.87,0,0,1,.09-.17s0,0,0,0a1.06,1.06,0,0,1,.12-.2s0,0,0-.06l.09-.14,0-.07L87,48.2l.07-.09A.6.6,0,0,1,87.1,48a1.42,1.42,0,0,1,.12-.13l.06-.06a1.38,1.38,0,0,1,.27-.23s0,0,0,0a2.51,2.51,0,0,1,.29-.2,1.34,1.34,0,0,1,.24-.12l.08,0,.13,0a.38.38,0,0,0,.1,0h.07l.11,0h.21l.14,0h0a.38.38,0,0,0,.1,0s0,0,0,0a.26.26,0,0,1,.13.06l-1.64-1h0l-.09,0h0l0,0h0l-.06,0s0,0,0,0h-.46l-.08,0a0,0,0,0,0,0,0h0l-.13,0h0s0,0,0,0l-.24.12a1.49,1.49,0,0,0-.29.2s0,0,0,0l-.27.22,0,0,0,0-.12.14,0,0s0,0,0,0l-.07.09s0,0,0,.06l0,0,0,.08s0,0,0,.05a.24.24,0,0,1-.06.09.09.09,0,0,0,0,.06s0,0,0,0a.87.87,0,0,0-.09.17h0s0,0,0,0a.45.45,0,0,1-.06.12.33.33,0,0,1,0,.06.11.11,0,0,0,0,.06.13.13,0,0,0,0,.05.84.84,0,0,0-.06.14h0c0,.06,0,.11-.07.17l0,0s0,0,0,.06a.32.32,0,0,0,0,.09s0,0,0,.06a.26.26,0,0,1,0,.08v0a.15.15,0,0,0,0,.09.29.29,0,0,1,0,.1v0a.1.1,0,0,1,0,.07,1,1,0,0,0,0,.15v.1a1.77,1.77,0,0,0,0,.33,1.36,1.36,0,0,0,.55,1.22l1.64,1A1.34,1.34,0,0,1,86,50.68c0-.11,0-.23,0-.34a.17.17,0,0,1,0-.12Z" transform="translate(0 -0.15)"/><path class="cls-12" d="M87.89,47.36c1-.6,1.9-.12,1.9,1.08a4.17,4.17,0,0,1-1.89,3.27c-1,.61-1.9.12-1.9-1.08a4.15,4.15,0,0,1,1.89-3.27Z" transform="translate(0 -0.15)"/><path class="cls-13" d="M64.6,38.53a2.47,2.47,0,0,1-1.09,1.91c-.64.37-1.08,0-1.08-.62-.28-2.26-1.2-3.75-2.73-4.51s-3.37-.64-5.47.46a4.66,4.66,0,0,1-.47.3,3.67,3.67,0,0,1-.48.25,19.64,19.64,0,0,0-8.11,13.42,2.46,2.46,0,0,1-1.08,1.92C43.45,52,43,51.66,43,51v-.32l0-.24A24.65,24.65,0,0,1,49.48,37c-2-.42-3.34-2.36-3.34-5.29a14.78,14.78,0,0,1,2.18-7.43,15,15,0,0,1,5.39-5.68c4.17-2.4,7.61-.45,7.62,4.34A16,16,0,0,1,58,32.1c3.54-.33,6,2,6.51,6.12l0,.21ZM53.75,33.59a12,12,0,0,0,5.4-9.37c0-1.74-.54-2.88-1.6-3.47s-2.34-.49-3.83.38a10.62,10.62,0,0,0-3.83,4,10.55,10.55,0,0,0-1.59,5.32c0,3.39,2.5,4.8,5.45,3.1" transform="translate(0 -0.15)"/><path class="cls-14" d="M65.85,42.1a6.09,6.09,0,0,0-1.54-3.64,4.31,4.31,0,0,0-.92-.72L61,36.34a5.42,5.42,0,0,1,2.46,4.36.79.79,0,0,0,.32.7l2.41,1.4A.79.79,0,0,1,65.85,42.1Z" transform="translate(0 -0.15)"/><path class="cls-15" d="M46.69,51.31c0-.12,0-.23.06-.35.11-.53.25-1.06.4-1.6,0-.11.07-.22.11-.34.16-.52.33-1,.53-1.56,0,0,0-.07.05-.1.21-.55.45-1.09.7-1.62a.2.2,0,0,1,0-.08c.25-.54.53-1.07.83-1.59l.09-.16c.28-.49.59-1,.9-1.45l.17-.25c.32-.46.65-.91,1-1.35.08-.1.17-.2.25-.31.35-.42.71-.84,1.08-1.24l-2-1.19a6.17,6.17,0,0,1-1.3-4.1,11.61,11.61,0,0,1,.1-1.44c0-.08,0-.17,0-.25l.12-.68.06-.32c0-.1,0-.2.07-.3s.1-.39.16-.59a2,2,0,0,1,.08-.26c.06-.21.13-.42.2-.63l.09-.23c.1-.27.21-.55.33-.82a.31.31,0,0,1,0-.1c.1-.25.22-.5.34-.74,0-.08.09-.16.13-.24.14-.28.28-.55.44-.83.36-.62.74-1.19,1.13-1.73l.1-.14a16.54,16.54,0,0,1,1.12-1.34l.22-.24c.31-.31.63-.59.95-.87l.44-.38a12.48,12.48,0,0,1,1.43-1c.32-.18.63-.33.94-.47l.3-.11a5.62,5.62,0,0,1,.53-.19l.34-.09.31-.07.4-.06.23,0a4.34,4.34,0,0,1,.51,0h.09a5,5,0,0,1,.56.07l.14,0,.42.13.13,0a4.59,4.59,0,0,1,.5.24L60.12,19l0,0a3.39,3.39,0,0,0-.39-.18l-.07,0-.13-.05-.2-.07-.22-.05-.14,0-.07,0-.47-.05h-.62l-.23,0-.22,0-.18,0-.31.07-.18,0-.16.06a5.62,5.62,0,0,0-.53.19,1.06,1.06,0,0,0-.19.06l-.11.05c-.31.14-.62.29-.94.47a12.48,12.48,0,0,0-1.43,1l-.44.38c-.24.2-.48.39-.71.62l-.24.25-.22.24-.31.33c-.2.23-.4.47-.59.71l-.22.3-.1.14-.18.24c-.16.22-.31.45-.46.69s-.29.47-.44.72l-.05.08L49,25.8l-.11.21-.12.25a2.12,2.12,0,0,0-.11.21c-.09.18-.17.35-.25.53a1,1,0,0,0,0,.1v0c-.1.21-.19.43-.27.65,0,0,0,.1-.05.14l-.09.23-.1.3c0,.11-.07.22-.1.33a2,2,0,0,0-.08.26.65.65,0,0,0,0,.13c-.05.16-.08.31-.12.46s0,.2-.07.3,0,0,0,.06,0,.18,0,.27l-.12.67s0,.07,0,.11a.66.66,0,0,0,0,.14,11.61,11.61,0,0,0-.1,1.44c0,2.35.85,4.06,2.23,4.86l1,.58-.47.51c-.17.19-.32.39-.48.58s-.17.21-.25.31l-.13.16c-.25.31-.48.63-.71,1l-.16.23-.17.25c-.09.15-.2.29-.29.44s-.37.6-.55.9l-.06.11-.09.16c-.12.21-.24.42-.35.63s-.32.61-.46.91l0,0a.2.2,0,0,0,0,.08c-.13.27-.25.53-.37.81s-.23.54-.33.81c0,0,0,.07,0,.1a.14.14,0,0,1,0,.06c-.13.34-.25.68-.37,1-.05.16-.09.32-.14.48s-.07.23-.11.34l-.09.3c-.11.42-.22.84-.31,1.26v0c0,.12,0,.23-.06.35-.08.39-.15.78-.2,1.17a2.36,2.36,0,0,0,0,.28l0,.24v.32a.77.77,0,0,0,.32.69L46.74,54a.77.77,0,0,1-.32-.69V53l0-.24C46.51,52.28,46.59,51.79,46.69,51.31Z" transform="translate(0 -0.15)"/><path class="cls-16" d="M59.87,33.46l1.57.92a5.65,5.65,0,0,1,.82,0h.19a5.3,5.3,0,0,1,.8.1l.18,0a5.25,5.25,0,0,1,.6.17l.18.06a5.17,5.17,0,0,1,.71.34l-2.41-1.4-.06,0a5.28,5.28,0,0,0-.53-.27l-.11,0-.19-.06-.27-.1L61,33.1l-.18,0-.09,0-.5-.05.11-.15.32-.48.28-.46s0,0,0-.05l0,0,.21-.37c.08-.16.16-.31.23-.47l.2-.42v-.05c.07-.16.14-.33.2-.49s.13-.34.18-.52.05-.16.08-.25l0-.11a1.39,1.39,0,0,0,.06-.19c.06-.21.11-.42.16-.62l.06-.37,0-.2a1.13,1.13,0,0,0,0-.18,7.65,7.65,0,0,0,.07-1.06c0-1.72-.53-2.85-1.56-3.45l-2.41-1.4c1,.6,1.56,1.73,1.56,3.45a7.49,7.49,0,0,1-.1,1.24l0,.2a10.59,10.59,0,0,1-.28,1.18l0,.11a12.31,12.31,0,0,1-.47,1.28v0c-.19.43-.41.85-.64,1.26l0,0a12.76,12.76,0,0,1-.75,1.16l-.08.11c-.25.33-.52.65-.79.95l-.18.19c-.22.23-.45.44-.69.65l-.31.27a8.3,8.3,0,0,1-1,.7,6.77,6.77,0,0,1-.66.33l-.21.08-.37.13-.25.07-.22.05-.29,0h-.59a2.57,2.57,0,0,1-.4-.06l-.11,0a1.4,1.4,0,0,1-.29-.09l-.1,0a2.92,2.92,0,0,1-.36-.17l2.41,1.4,0,0,.28.13,0,0,.1,0,.15.06.14,0,.11,0h.06l.33,0h.6l.17,0,.12,0,.22-.05.13,0,.12,0a2.72,2.72,0,0,0,.37-.13l.14-.05.07,0a5.08,5.08,0,0,0,.66-.33,8.3,8.3,0,0,0,1-.7l.31-.27a6.1,6.1,0,0,0,.46-.41c.08-.07.15-.16.23-.24l.18-.19.19-.2C59.66,33.73,59.77,33.6,59.87,33.46Z" transform="translate(0 -0.15)"/><path class="cls-12" d="M68,40.81a2.44,2.44,0,0,1-1.08,1.91c-.64.37-1.08,0-1.08-.62-.28-2.26-1.2-3.75-2.74-4.51s-3.36-.64-5.46.46a4.66,4.66,0,0,1-.47.3,3.67,3.67,0,0,1-.48.25A19.64,19.64,0,0,0,48.59,52a2.48,2.48,0,0,1-1.09,1.92c-.64.37-1.08,0-1.08-.62V53l0-.24A24.65,24.65,0,0,1,52.9,39.31c-2-.42-3.34-2.36-3.35-5.29a14.9,14.9,0,0,1,2.19-7.43,15,15,0,0,1,5.39-5.68c4.17-2.4,7.61-.45,7.62,4.34a16.06,16.06,0,0,1-3.31,9.13c3.54-.33,6,2,6.51,6.12l0,.21ZM57.17,35.87a12,12,0,0,0,5.4-9.37c0-1.74-.54-2.88-1.6-3.47s-2.34-.49-3.84.37a10.88,10.88,0,0,0-3.83,4.05,10.64,10.64,0,0,0-1.58,5.32c0,3.39,2.5,4.8,5.45,3.1" transform="translate(0 -0.15)"/></g></g></svg>