<?xml version="1.0" encoding="UTF-8"?>
<svg width="12px" height="14px" viewBox="0 0 12 14" version="1.1" xmlns="http://www.w3.org/2000/svg" xmlns:xlink="http://www.w3.org/1999/xlink">
    <!-- Generator: Sketch 51.1 (57501) - http://www.bohemiancoding.com/sketch -->
    <title>Combined Shape</title>
    <desc>Created with Sketch.</desc>
    <defs></defs>
    <g id="个人中心-修改" stroke="none" stroke-width="1" fill="none" fill-rule="evenodd">
        <g id="我的钱包-管理提币地址" transform="translate(-644.000000, -302.000000)" fill="#14a2a5">
            <g id="提币" transform="translate(331.000000, 80.000000)">
                <g id="1">
                    <g id="adress" transform="translate(76.000000, 209.000000)">
                        <path d="M237,13 L246,13 L249,16 L249,27 L237,27 L237,13 Z M242.5,23 L241,21.5 L240,22.5 L242.5,25 L246.5,21 L245.5,20 L242.5,23 Z M239,15 L239,16 L244,16 L244,15 L239,15 Z M239,17 L239,18 L247,18 L247,17 L239,17 Z M246,14 L246,16 L248,16 L246,14 Z" id="Combined-Shape"></path>
                    </g>
                </g>
            </g>
        </g>
    </g>
</svg>