<?xml version="1.0" encoding="UTF-8"?>
<svg width="14px" height="14px" viewBox="0 0 14 14" version="1.1" xmlns="http://www.w3.org/2000/svg" xmlns:xlink="http://www.w3.org/1999/xlink">
    <!-- Generator: Sketch 51.3 (57544) - http://www.bohemiancoding.com/sketch -->
    <title>Combined Shape Copy 2</title>
    <desc>Created with Sketch.</desc>
    <defs></defs>
    <g id="首页+交易" stroke="none" stroke-width="1" fill="none" fill-rule="evenodd">
        <g id="币币交易-白未登录" transform="translate(-738.000000, -141.000000)" fill="#14a2a5">
            <g id="深度" transform="translate(406.000000, 104.000000)">
                <g id="tital" transform="translate(1.000000, 1.000000)">
                    <path d="M332.446285,42.1048635 L335.006937,40.1184084 C335.002356,40.0795765 335,40.0400634 335,40 C335,39.4477153 335.447715,39 336,39 C336.442446,39 336.81778,39.2873403 336.949573,39.6855916 L339.29064,40.2951537 C339.471779,40.1128614 339.72271,40 340,40 C340.100532,40 340.197599,40.0148349 340.289132,40.042435 L343.046093,37.300993 C343.016148,37.2060004 343,37.1048859 343,37 C343,36.4477153 343.447715,36 344,36 C344.552285,36 345,36.4477153 345,37 C345,37.5522847 344.552285,38 344,38 C343.926091,38 343.854055,37.9919819 343.784714,37.9767682 L340.973847,40.7718125 C340.990954,40.8451052 341,40.9214962 341,41 C341,41.5522847 340.552285,42 340,42 C339.538313,42 339.149702,41.6871248 339.034629,41.2618365 L336.746024,40.6659343 C336.562897,40.8709425 336.29652,41 336,41 C335.86007,41 335.726852,40.9712591 335.605928,40.9193586 L332.998358,42.9422109 C332.999448,42.961335 333,42.980603 333,43 C333,43.5522847 332.552285,44 332,44 C331.447715,44 331,43.5522847 331,43 C331,42.4477153 331.447715,42 332,42 C332.160381,42 332.311944,42.0377556 332.446285,42.1048635 Z M331.5,46 L332.5,46 C332.776142,46 333,46.2238576 333,46.5 L333,49.5 C333,49.7761424 332.776142,50 332.5,50 L331.5,50 C331.223858,50 331,49.7761424 331,49.5 L331,46.5 C331,46.2238576 331.223858,46 331.5,46 Z M335.5,43 L336.5,43 C336.776142,43 337,43.2238576 337,43.5 L337,49.5 C337,49.7761424 336.776142,50 336.5,50 L335.5,50 C335.223858,50 335,49.7761424 335,49.5 L335,43.5 C335,43.2238576 335.223858,43 335.5,43 Z M339.5,45 L340.5,45 C340.776142,45 341,45.2238576 341,45.5 L341,49.5 C341,49.7761424 340.776142,50 340.5,50 L339.5,50 C339.223858,50 339,49.7761424 339,49.5 L339,45.5 C339,45.2238576 339.223858,45 339.5,45 Z M343.5,40 L344.5,40 C344.776142,40 345,40.2238576 345,40.5 L345,49.5 C345,49.7761424 344.776142,50 344.5,50 L343.5,50 C343.223858,50 343,49.7761424 343,49.5 L343,40.5 C343,40.2238576 343.223858,40 343.5,40 Z" id="Combined-Shape-Copy-2"></path>
                </g>
            </g>
        </g>
    </g>
</svg>