<?xml version="1.0" encoding="UTF-8"?>
<svg width="36px" height="36px" viewBox="0 0 36 36" version="1.1" xmlns="http://www.w3.org/2000/svg" xmlns:xlink="http://www.w3.org/1999/xlink">
    <!-- Generator: Sketch 51.1 (57501) - http://www.bohemiancoding.com/sketch -->
    <title>exchange</title>
    <desc>Created with Sketch.</desc>
    <defs></defs>
    <g id="个人中心-修改" stroke="none" stroke-width="1" fill="none" fill-rule="evenodd">
        <g id="个人中心" transform="translate(-351.000000, -486.000000)">
            <g id="Group-16" transform="translate(331.000000, 80.000000)">
                <g id="我的交易" transform="translate(0.000000, 390.000000)">
                    <g id="exchange" transform="translate(20.000000, 16.000000)">
                        <g id="User">
                            <circle id="Oval-2" fill="#F0EFFF" cx="18" cy="18" r="18"></circle>
                            <g id="BTC" transform="translate(9.000000, 9.000000)" fill="#8583AC">
                                <path d="M9,18 C4.02943725,18 0,13.9705627 0,9 C0,4.02943725 4.02943725,0 9,0 C13.9705627,0 18,4.02943725 18,9 C18,13.9705627 13.9705627,18 9,18 Z M9,16.875 C13.3492424,16.875 16.875,13.3492424 16.875,9 C16.875,4.6507576 13.3492424,1.125 9,1.125 C4.6507576,1.125 1.125,4.6507576 1.125,9 C1.125,13.3492424 4.6507576,16.875 9,16.875 Z M9,15.75 C5.27207794,15.75 2.25,12.7279221 2.25,9 C2.25,5.27207794 5.27207794,2.25 9,2.25 C12.7279221,2.25 15.75,5.27207794 15.75,9 C15.75,12.7279221 12.7279221,15.75 9,15.75 Z M12.025601,7.26923077 C12.0028846,7.03125 11.9325721,6.82463942 11.8152043,6.6499399 C11.6978365,6.47524038 11.539363,6.33461538 11.3397837,6.2280649 C11.1396635,6.12151442 10.9227764,6.04038462 10.6885817,5.98467548 C10.454387,5.92896635 10.1855769,5.88840144 9.88215144,5.86298077 L9.88215144,4.5 L8.99513221,4.5 L8.99513221,5.82512019 C8.84098558,5.82512019 8.60679087,5.82890625 8.29200721,5.8359375 L8.29200721,4.5 L7.40498798,4.5 L7.40498798,5.86298077 C7.27842548,5.86676683 7.09182692,5.86838942 6.84627404,5.86838942 L5.625,5.86298077 L5.625,6.75 L6.26430288,6.75 C6.55637019,6.75 6.72728365,6.87277644 6.77704327,7.11778846 L6.77704327,8.67007212 C6.81544471,8.67007212 6.84573317,8.67169471 6.86899038,8.67548077 L6.77704327,8.67548077 L6.77704327,10.8497596 C6.74621394,11.0336538 6.63479567,11.125601 6.44278846,11.125601 L5.80348558,11.125601 L5.625,12.1153846 L6.77758413,12.1153846 C6.85060096,12.1153846 6.95606971,12.1164663 7.09453125,12.1180889 C7.23245192,12.1197115 7.33629808,12.1207933 7.40552885,12.1207933 L7.40552885,13.5 L8.29254808,13.5 L8.29254808,12.1370192 C8.45426683,12.1408053 8.68846154,12.1424279 8.99567308,12.1424279 L8.99567308,13.5 L9.88269231,13.5 L9.88269231,12.1207933 C10.197476,12.1061899 10.4771034,12.0791466 10.7210337,12.0396635 C10.9649639,12.0001803 11.1980769,11.9379808 11.4209135,11.8530649 C11.64375,11.768149 11.8298077,11.6626803 11.9796274,11.5366587 C12.1294471,11.410637 12.2533053,11.25 12.3512019,11.0552885 C12.4490986,10.8605769 12.5112981,10.6350361 12.5383413,10.3792067 C12.5886418,9.87782452 12.5021034,9.4921875 12.2792668,9.22175481 C12.0564303,8.95132212 11.7205529,8.76580529 11.2710937,8.66466346 C11.8433293,8.39044471 12.0948317,7.92530048 12.025601,7.26923077 Z M10.7870192,10.2169471 C10.7870192,10.3180889 10.7686298,10.4100361 10.7323918,10.4927885 C10.6961538,10.5755409 10.6490986,10.6480168 10.591226,10.7091346 C10.5333534,10.7702524 10.4576322,10.8243389 10.3635216,10.8713942 C10.2694111,10.9184495 10.1780048,10.9563101 10.0898437,10.984976 C10.0016827,11.0136418 9.89513221,11.0390625 9.77019231,11.0606971 C9.6452524,11.0823317 9.5359976,11.097476 9.44188702,11.1066707 C9.34777644,11.1158654 9.23527644,11.1228966 9.10492788,11.1283053 C8.97403846,11.1337139 8.87235577,11.1364183 8.79933894,11.1364183 C8.72632212,11.1364183 8.634375,11.1353365 8.52295673,11.1337139 C8.41153846,11.1320913 8.3406851,11.1310096 8.30985577,11.1310096 L8.30985577,9.30288462 C8.3406851,9.30288462 8.43209135,9.30126202 8.58353365,9.29747596 C8.73497596,9.2936899 8.85883413,9.29206731 8.95510817,9.29206731 C9.05138221,9.29206731 9.18389423,9.29747596 9.35264423,9.30829327 C9.52139423,9.31911058 9.66364183,9.33533654 9.77884615,9.35697115 C9.89405048,9.37860577 10.0200721,9.41213942 10.1563702,9.45703125 C10.2926683,9.50192308 10.4030048,9.55709135 10.4873798,9.62199519 C10.5717548,9.68689904 10.6426082,9.76965144 10.7004808,9.87079327 C10.7583534,9.9719351 10.7870192,10.0871394 10.7870192,10.2169471 Z M10.378125,7.64242788 C10.378125,7.74356971 10.3613582,7.83551683 10.3267428,7.91826923 C10.2921274,8.00102163 10.2402043,8.07079327 10.1709736,8.1265024 C10.1017428,8.18221154 10.0308894,8.23088942 9.9578726,8.27253606 C9.88485577,8.31418269 9.79182692,8.34717548 9.67824519,8.37259615 C9.56466346,8.39801683 9.4656851,8.41748798 9.3813101,8.43209135 C9.2969351,8.44669471 9.19092548,8.45643029 9.06436298,8.46183894 C8.93725962,8.4672476 8.84098558,8.47103365 8.77608173,8.47265625 C8.71117788,8.47427885 8.62139423,8.47427885 8.50835337,8.47265625 C8.3953125,8.47103365 8.32932692,8.46995192 8.30985577,8.46995192 L8.30985577,6.80949519 C8.33689904,6.80949519 8.41262019,6.80841346 8.5375601,6.80679087 C8.6625,6.80516827 8.76580529,6.80300481 8.84855769,6.80138221 C8.9313101,6.79975962 9.04272837,6.80408654 9.1828125,6.81490385 C9.32289663,6.82572115 9.44080529,6.84032452 9.53707933,6.85817308 C9.63335337,6.87602163 9.73882212,6.90576923 9.85402644,6.94741587 C9.96923077,6.9890625 10.0611779,7.03936298 10.1304087,7.09885817 C10.1996394,7.15835337 10.2580529,7.23407452 10.3061899,7.32602163 C10.3543269,7.41796875 10.378125,7.5234375 10.378125,7.64242788 Z" id="Combined-Shape"></path>
                            </g>
                        </g>
                    </g>
                </g>
            </g>
        </g>
    </g>
</svg>