<?xml version="1.0" encoding="UTF-8"?>
<svg width="14px" height="14px" viewBox="0 0 14 14" version="1.1" xmlns="http://www.w3.org/2000/svg" xmlns:xlink="http://www.w3.org/1999/xlink">
    <!-- Generator: Sketch 51.1 (57501) - http://www.bohemiancoding.com/sketch -->
    <title>Combined Shape</title>
    <desc>Created with Sketch.</desc>
    <defs></defs>
    <g id="Page-1" stroke="none" stroke-width="1" fill="none" fill-rule="evenodd">
        <g id="图标" transform="translate(-308.000000, -539.000000)" fill="#C5C3DD">
            <path d="M317,540 L322,540 L322,541 L308,541 L308,540 L313,540 L313,539 L317,539 L317,540 Z M309,542 L321,542 L321,553 L309,553 L309,542 Z M311,544 L311,551 L312,551 L312,544 L311,544 Z M314,544 L314,551 L316,551 L316,544 L314,544 Z M318,544 L318,551 L319,551 L319,544 L318,544 Z" id="Combined-Shape"></path>
        </g>
    </g>
</svg>