<?xml version="1.0" encoding="UTF-8"?>
<svg width="16px" height="16px" viewBox="0 0 16 16" version="1.1" xmlns="http://www.w3.org/2000/svg" xmlns:xlink="http://www.w3.org/1999/xlink">
    <!-- Generator: Sketch 51.1 (57501) - http://www.bohemiancoding.com/sketch -->
    <title>Combined Shape</title>
    <desc>Created with Sketch.</desc>
    <defs></defs>
    <g id="个人中心-修改" stroke="none" stroke-width="1" fill="none" fill-rule="evenodd">
        <g id="个人中心" transform="translate(-131.000000, -460.000000)" fill="#C5C3DD">
            <g id="左导航" transform="translate(121.000000, 80.000000)">
                <g id="我的交易">
                    <g transform="translate(0.000000, 368.000000)">
                        <path d="M18,28 C13.581722,28 10,24.418278 10,20 C10,15.581722 13.581722,12 18,12 C22.418278,12 26,15.581722 26,20 C26,24.418278 22.418278,28 18,28 Z M18,27 C21.8659932,27 25,23.8659932 25,20 C25,16.1340068 21.8659932,13 18,13 C14.1340068,13 11,16.1340068 11,20 C11,23.8659932 14.1340068,27 18,27 Z M18,26 C14.6862915,26 12,23.3137085 12,20 C12,16.6862915 14.6862915,14 18,14 C21.3137085,14 24,16.6862915 24,20 C24,23.3137085 21.3137085,26 18,26 Z M20.6894231,18.4615385 C20.6692308,18.25 20.6067308,18.0663462 20.5024038,17.9110577 C20.3980769,17.7557692 20.2572115,17.6307692 20.0798077,17.5360577 C19.9019231,17.4413462 19.7091346,17.3692308 19.5009615,17.3197115 C19.2927885,17.2701923 19.0538462,17.2341346 18.7841346,17.2115385 L18.7841346,16 L17.9956731,16 L17.9956731,17.1778846 C17.8586538,17.1778846 17.6504808,17.18125 17.3706731,17.1875 L17.3706731,16 L16.5822115,16 L16.5822115,17.2115385 C16.4697115,17.2149038 16.3038462,17.2163462 16.0855769,17.2163462 L15,17.2115385 L15,18 L15.5682692,18 C15.8278846,18 15.9798077,18.1091346 16.0240385,18.3269231 L16.0240385,19.7067308 C16.0581731,19.7067308 16.0850962,19.7081731 16.1057692,19.7115385 L16.0240385,19.7115385 L16.0240385,21.6442308 C15.9966346,21.8076923 15.8975962,21.8894231 15.7269231,21.8894231 L15.1586538,21.8894231 L15,22.7692308 L16.0245192,22.7692308 C16.0894231,22.7692308 16.1831731,22.7701923 16.30625,22.7716346 C16.4288462,22.7730769 16.5211538,22.7740385 16.5826923,22.7740385 L16.5826923,24 L17.3711538,24 L17.3711538,22.7884615 C17.5149038,22.7918269 17.7230769,22.7932692 17.9961538,22.7932692 L17.9961538,24 L18.7846154,24 L18.7846154,22.7740385 C19.0644231,22.7610577 19.3129808,22.7370192 19.5298077,22.7019231 C19.7466346,22.6668269 19.9538462,22.6115385 20.1519231,22.5360577 C20.35,22.4605769 20.5153846,22.3668269 20.6485577,22.2548077 C20.7817308,22.1427885 20.8918269,22 20.9788462,21.8269231 C21.0658654,21.6538462 21.1211538,21.4533654 21.1451923,21.2259615 C21.1899038,20.7802885 21.1129808,20.4375 20.9149038,20.1971154 C20.7168269,19.9567308 20.4182692,19.7918269 20.01875,19.7019231 C20.5274038,19.4581731 20.7509615,19.0447115 20.6894231,18.4615385 Z M19.5884615,21.0817308 C19.5884615,21.1716346 19.5721154,21.2533654 19.5399038,21.3269231 C19.5076923,21.4004808 19.4658654,21.4649038 19.4144231,21.5192308 C19.3629808,21.5735577 19.2956731,21.6216346 19.2120192,21.6634615 C19.1283654,21.7052885 19.0471154,21.7389423 18.96875,21.7644231 C18.8903846,21.7899038 18.7956731,21.8125 18.6846154,21.8317308 C18.5735577,21.8509615 18.4764423,21.8644231 18.3927885,21.8725962 C18.3091346,21.8807692 18.2091346,21.8870192 18.0932692,21.8918269 C17.9769231,21.8966346 17.8865385,21.8990385 17.8216346,21.8990385 C17.7567308,21.8990385 17.675,21.8980769 17.5759615,21.8966346 C17.4769231,21.8951923 17.4139423,21.8942308 17.3865385,21.8942308 L17.3865385,20.2692308 C17.4139423,20.2692308 17.4951923,20.2677885 17.6298077,20.2644231 C17.7644231,20.2610577 17.8745192,20.2596154 17.9600962,20.2596154 C18.0456731,20.2596154 18.1634615,20.2644231 18.3134615,20.2740385 C18.4634615,20.2836538 18.5899038,20.2980769 18.6923077,20.3173077 C18.7947115,20.3365385 18.9067308,20.3663462 19.0278846,20.40625 C19.1490385,20.4461538 19.2471154,20.4951923 19.3221154,20.5528846 C19.3971154,20.6105769 19.4600962,20.6841346 19.5115385,20.7740385 C19.5629808,20.8639423 19.5884615,20.9663462 19.5884615,21.0817308 Z M19.225,18.7932692 C19.225,18.8831731 19.2100962,18.9649038 19.1793269,19.0384615 C19.1485577,19.1120192 19.1024038,19.1740385 19.0408654,19.2235577 C18.9793269,19.2730769 18.9163462,19.3163462 18.8514423,19.3533654 C18.7865385,19.3903846 18.7038462,19.4197115 18.6028846,19.4423077 C18.5019231,19.4649038 18.4139423,19.4822115 18.3389423,19.4951923 C18.2639423,19.5081731 18.1697115,19.5168269 18.0572115,19.5216346 C17.9442308,19.5264423 17.8586538,19.5298077 17.8009615,19.53125 C17.7432692,19.5326923 17.6634615,19.5326923 17.5629808,19.53125 C17.4625,19.5298077 17.4038462,19.5288462 17.3865385,19.5288462 L17.3865385,18.0528846 C17.4105769,18.0528846 17.4778846,18.0519231 17.5889423,18.0504808 C17.7,18.0490385 17.7918269,18.0471154 17.8653846,18.0456731 C17.9389423,18.0442308 18.0379808,18.0480769 18.1625,18.0576923 C18.2870192,18.0673077 18.3918269,18.0802885 18.4774038,18.0961538 C18.5629808,18.1120192 18.6567308,18.1384615 18.7591346,18.1754808 C18.8615385,18.2125 18.9432692,18.2572115 19.0048077,18.3100962 C19.0663462,18.3629808 19.1182692,18.4302885 19.1610577,18.5120192 C19.2038462,18.59375 19.225,18.6875 19.225,18.7932692 Z" id="Combined-Shape"></path>
                    </g>
                </g>
            </g>
        </g>
    </g>
</svg>