<?xml version="1.0" encoding="UTF-8"?>
<svg width="291px" height="152px" viewBox="0 0 291 152" version="1.1" xmlns="http://www.w3.org/2000/svg" xmlns:xlink="http://www.w3.org/1999/xlink">
    <!-- Generator: Sketch 51.3 (57544) - http://www.bohemiancoding.com/sketch -->
    <title>lost</title>
    <desc>Created with Sketch.</desc>
    <defs>
        <linearGradient x1="50%" y1="0%" x2="50%" y2="126.915225%" id="linearGradient-1">
            <stop stop-color="#F0EFF6" offset="0%"></stop>
            <stop stop-color="#FFFFFF" stop-opacity="0" offset="100%"></stop>
        </linearGradient>
        <linearGradient x1="23.523353%" y1="0%" x2="56.1295235%" y2="94.1290684%" id="linearGradient-2">
            <stop stop-color="#F1F1F7" offset="0%"></stop>
            <stop stop-color="#E0DFEF" offset="100%"></stop>
        </linearGradient>
        <linearGradient x1="50%" y1="21.2453267%" x2="50%" y2="100%" id="linearGradient-3">
            <stop stop-color="#F1F1F7" offset="0%"></stop>
            <stop stop-color="#E0DFEF" offset="100%"></stop>
        </linearGradient>
        <linearGradient x1="23.523353%" y1="0%" x2="56.1295235%" y2="94.1290684%" id="linearGradient-4">
            <stop stop-color="#EDEDF4" offset="0%"></stop>
            <stop stop-color="#D5D4E7" offset="100%"></stop>
        </linearGradient>
        <path d="M14.1777778,25.7471264 C21.4486503,25.7471264 28.3555556,22.7450497 28.3555556,12.8735632 C28.3555556,3.00207671 21.4486503,0 14.1777778,0 C6.90690521,0 1.84222822e-12,2.8531923 0,12.8735632 C-1.84242498e-12,22.8939341 6.90690521,25.7471264 14.1777778,25.7471264 Z" id="path-5"></path>
        <linearGradient x1="50%" y1="0%" x2="50%" y2="100%" id="linearGradient-7">
            <stop stop-color="#FAF9FC" offset="0%"></stop>
            <stop stop-color="#D6D6E5" offset="100%"></stop>
        </linearGradient>
    </defs>
    <g id="通用" stroke="none" stroke-width="1" fill="none" fill-rule="evenodd">
        <g id="帮助中心搜索无结果" transform="translate(-815.000000, -362.000000)">
            <g id="lost" transform="translate(815.000000, 362.000000)">
                <g id="暂无记录">
                    <path d="M0,152 C34.546973,152 249.39127,152 290.097087,152 C290.097087,140.989117 238.269245,90 145.048544,90 C51.8278419,90 0,140.989117 0,152 Z" id="Shape" fill="url(#linearGradient-1)" fill-rule="nonzero"></path>
                    <g id="宇航员" transform="translate(119.000000, 0.000000)">
                        <g>
                            <g id="Group-4">
                                <path d="M27.0666667,34.7586207 L47.6888889,34.7586207 C51.959891,34.7586207 55.4222222,31.3004063 55.4222222,27.0344828 C55.4222222,22.7685592 51.959891,19.3103448 47.6888889,19.3103448 L27.0666667,19.3103448 L27.0666667,16.7356322 L47.6888889,16.7356322 C53.3835583,16.7356322 58,21.3465846 58,27.0344828 C58,32.7223809 53.3835583,37.3333333 47.6888889,37.3333333 L27.0666667,37.3333333 L27.0666667,34.7586207 Z" id="Combined-Shape" fill="#EDEDF6" fill-rule="nonzero"></path>
                                <path d="M11.6,37.3333333 L39.9555556,37.3333333 C45.650225,37.3333333 50.2666667,41.9442858 50.2666667,47.6321839 L50.2666667,75.954023 C50.2666667,78.797972 47.9584458,81.1034483 45.1111111,81.1034483 L6.44444444,81.1034483 C3.59710973,81.1034483 1.28888889,78.797972 1.28888889,75.954023 L1.28888889,47.6321839 C1.28888889,41.9442858 5.90533058,37.3333333 11.6,37.3333333 Z" id="Rectangle-13" fill="url(#linearGradient-2)" fill-rule="nonzero"></path>
                                <path d="M41.2444444,50.2068966 L50.2666667,50.2068966 C50.9785003,50.2068966 51.5555556,50.7832656 51.5555556,51.4942529 C51.5555556,52.2052401 50.9785003,52.7816092 50.2666667,52.7816092 L41.2444444,52.7816092 C40.5326108,52.7816092 39.9555556,52.2052401 39.9555556,51.4942529 C39.9555556,50.7832656 40.5326108,50.2068966 41.2444444,50.2068966 Z" id="Rectangle-22" fill="#D6D6E5" fill-rule="nonzero"></path>
                                <path d="M1.28888889,50.2068966 L10.3111111,50.2068966 C11.0229448,50.2068966 11.6,50.7832656 11.6,51.4942529 C11.6,52.2052401 11.0229448,52.7816092 10.3111111,52.7816092 L1.28888889,52.7816092 C0.577055211,52.7816092 8.71744835e-17,52.2052401 0,51.4942529 C-8.71744835e-17,50.7832656 0.577055211,50.2068966 1.28888889,50.2068966 Z" id="Rectangle-22-Copy-2" fill="#D6D6E5" fill-rule="nonzero"></path>
                                <path d="M41.2444444,55.3563218 L50.2666667,55.3563218 C50.9785003,55.3563218 51.5555556,55.9326909 51.5555556,56.6436782 C51.5555556,57.3546654 50.9785003,57.9310345 50.2666667,57.9310345 L41.2444444,57.9310345 C40.5326108,57.9310345 39.9555556,57.3546654 39.9555556,56.6436782 C39.9555556,55.9326909 40.5326108,55.3563218 41.2444444,55.3563218 Z" id="Rectangle-22-Copy" fill="#D6D6E5" fill-rule="nonzero"></path>
                                <path d="M1.28888889,55.3563218 L10.3111111,55.3563218 C11.0229448,55.3563218 11.6,55.9326909 11.6,56.6436782 C11.6,57.3546654 11.0229448,57.9310345 10.3111111,57.9310345 L1.28888889,57.9310345 C0.577055211,57.9310345 8.71744835e-17,57.3546654 0,56.6436782 C-8.71744835e-17,55.9326909 0.577055211,55.3563218 1.28888889,55.3563218 Z" id="Rectangle-22-Copy-3" fill="#D6D6E5" fill-rule="nonzero"></path>
                                <path d="M27.0666667,109.425287 L27.0666667,83.6781609 C27.0666667,82.9671737 26.4896115,82.3908046 25.7777778,82.3908046 C25.0659441,82.3908046 24.4888889,82.9671737 24.4888889,83.6781609 L24.4888889,109.425287 L11.6,109.425287 C10.8881663,109.425287 10.3111111,108.848918 10.3111111,108.137931 L10.3111111,38.6206897 C10.3111111,37.9097024 10.8881663,37.3333333 11.6,37.3333333 L39.9555556,37.3333333 C40.6673892,37.3333333 41.2444444,37.9097024 41.2444444,38.6206897 L41.2444444,108.137931 C41.2444444,108.848918 40.6673892,109.425287 39.9555556,109.425287 L27.0666667,109.425287 Z" id="Combined-Shape" fill="url(#linearGradient-2)" fill-rule="nonzero"></path>
                                <path d="M31.5777778,90.1149425 L36.7333333,90.1149425 C37.0892502,90.1149425 37.3777778,90.4031271 37.3777778,90.7586207 C37.3777778,91.1141143 37.0892502,91.4022989 36.7333333,91.4022989 L31.5777778,91.4022989 C31.2218609,91.4022989 30.9333333,91.1141143 30.9333333,90.7586207 C30.9333333,90.4031271 31.2218609,90.1149425 31.5777778,90.1149425 Z" id="Rectangle-23" fill="#D6D6E5" fill-rule="nonzero"></path>
                                <path d="M14.8222222,90.1149425 L19.9777778,90.1149425 C20.3336946,90.1149425 20.6222222,90.4031271 20.6222222,90.7586207 C20.6222222,91.1141143 20.3336946,91.4022989 19.9777778,91.4022989 L14.8222222,91.4022989 C14.4663054,91.4022989 14.1777778,91.1141143 14.1777778,90.7586207 C14.1777778,90.4031271 14.4663054,90.1149425 14.8222222,90.1149425 Z" id="Rectangle-23-Copy-2" fill="#D6D6E5" fill-rule="nonzero"></path>
                                <path d="M31.5777778,92.6896552 L36.7333333,92.6896552 C37.0892502,92.6896552 37.3777778,92.9778397 37.3777778,93.3333333 C37.3777778,93.688827 37.0892502,93.9770115 36.7333333,93.9770115 L31.5777778,93.9770115 C31.2218609,93.9770115 30.9333333,93.688827 30.9333333,93.3333333 C30.9333333,92.9778397 31.2218609,92.6896552 31.5777778,92.6896552 Z" id="Rectangle-23-Copy" fill="#D6D6E5" fill-rule="nonzero"></path>
                                <path d="M14.8222222,92.6896552 L19.9777778,92.6896552 C20.3336946,92.6896552 20.6222222,92.9778397 20.6222222,93.3333333 C20.6222222,93.688827 20.3336946,93.9770115 19.9777778,93.9770115 L14.8222222,93.9770115 C14.4663054,93.9770115 14.1777778,93.688827 14.1777778,93.3333333 C14.1777778,92.9778397 14.4663054,92.6896552 14.8222222,92.6896552 Z" id="Rectangle-23-Copy-3" fill="#D6D6E5" fill-rule="nonzero"></path>
                                <rect id="Rectangle-20" fill="#D6D6E5" fill-rule="nonzero" x="14.1777778" y="46.3448276" width="23.2" height="20.5977011" rx="2"></rect>
                                <rect id="Rectangle-21" fill="#FFFFFF" fill-rule="nonzero" x="16.7555556" y="50.2068966" width="2.57777778" height="2.57471264"></rect>
                                <rect id="Rectangle-21-Copy" fill="#FFFFFF" fill-rule="nonzero" x="24.4888889" y="50.2068966" width="2.57777778" height="2.57471264"></rect>
                                <rect id="Rectangle-21-Copy-2" fill="#FFFFFF" fill-rule="nonzero" x="32.2222222" y="50.2068966" width="2.57777778" height="2.57471264"></rect>
                                <rect id="Rectangle-21-Copy-3" fill="#FFFFFF" fill-rule="nonzero" x="16.7555556" y="56.6436782" width="7.73333333" height="2.57471264"></rect>
                                <rect id="Rectangle-21-Copy-5" fill="#FFFFFF" fill-rule="nonzero" x="27.0666667" y="56.6436782" width="7.73333333" height="7.72413793"></rect>
                                <rect id="Rectangle-21-Copy-4" fill="#FFFFFF" fill-rule="nonzero" x="16.7555556" y="61.7931034" width="7.73333333" height="2.57471264"></rect>
                                <rect id="Rectangle-18" fill="#FFFFFF" fill-rule="nonzero" x="10.3111111" y="70.8045977" width="30.9333333" height="3.86206897"></rect>
                                <rect id="Rectangle-19" fill="#F2F2F8" fill-rule="nonzero" x="19.3333333" y="70.8045977" width="1.28888889" height="3.86206897"></rect>
                                <rect id="Rectangle-19-Copy" fill="#F2F2F8" fill-rule="nonzero" x="30.9333333" y="70.8045977" width="1.28888889" height="3.86206897"></rect>
                                <path d="M11.6,37.3333332 L11.6,34.7586207 L12.779715,34.7586207 C14.9675067,32.485272 19.9639842,30.8965517 25.7777778,30.8965517 C31.5915713,30.8965517 36.5880489,32.485272 38.7758406,34.7586207 L39.9555556,34.7586207 L39.9555556,37.3333333 C39.9555556,40.8882697 33.6079482,43.7701149 25.7777778,43.7701149 C17.9476073,43.7701149 11.6,40.8882697 11.6,37.3333333 L11.6,37.3333332 Z" id="Combined-Shape" fill="url(#linearGradient-2)" fill-rule="nonzero"></path>
                                <ellipse id="Oval-3-Copy-2" fill="#F4F6F9" fill-rule="nonzero" cx="25.7777778" cy="34.7586207" rx="14.1777778" ry="6.43678161"></ellipse>
                                <path d="M15.4666667,34.7586207 L15.4666667,29.6091954 L36.0888889,29.6091954 L36.0888889,34.7586207 C36.0888889,36.8915825 31.4724472,38.6206897 25.7777778,38.6206897 C20.0831084,38.6206897 15.4666667,36.8915825 15.4666667,34.7586207 Z" id="Combined-Shape" fill="url(#linearGradient-3)" fill-rule="nonzero"></path>
                                <path d="M7.73333333,15.4482759 L9.02222222,15.4482759 L9.02222222,20.5977011 L7.73333333,20.5977011 C6.30966598,20.5977011 5.15555556,19.444963 5.15555556,18.0229885 C5.15555556,16.601014 6.30966598,15.4482759 7.73333333,15.4482759 Z" id="Rectangle-6" fill="#D3D3E7" fill-rule="nonzero"></path>
                                <path d="M43.8222222,15.4482759 C45.2458896,15.4482759 46.4,16.601014 46.4,18.0229885 C46.4,19.444963 45.2458896,20.5977011 43.8222222,20.5977011 L42.5333333,20.5977011 L42.5333333,15.4482759 L43.8222222,15.4482759 Z" id="Rectangle-6-Copy" fill="#D3D3E7" fill-rule="nonzero"></path>
                                <path d="M25.7777778,34.7586207 C35.0316156,34.7586207 43.8222222,30.855921 43.8222222,18.0229885 C43.8222222,5.19005604 35.0316156,0 25.7777778,0 C16.52394,0 7.73333333,4.99650632 7.73333333,18.0229885 C7.73333333,31.0494707 16.52394,34.7586207 25.7777778,34.7586207 Z" id="Oval-2" fill="#F5F7FB" fill-rule="nonzero"></path>
                                <g id="Path-2" transform="translate(11.600000, 5.149425)">
                                    <mask id="mask-6" fill="white">
                                        <use xlink:href="#path-5"></use>
                                    </mask>
                                    <use id="Mask" fill="url(#linearGradient-4)" fill-rule="nonzero" xlink:href="#path-5"></use>
                                    <path d="M20.3957722,0.270283964 C22.937718,4.54529695 23.5732045,9.19364012 22.3022316,14.2153135 C20.3957722,21.7478235 12.6350416,24.9843251 10.3685892,25.5186669 L15.5663534,27.4624867 L24.006978,25.5186669 L30.2475525,17.267027 L30.2475525,8.15651914 L27.0627421,2.05684618 L24.006978,0.270283964 L20.3957722,0.270283964 Z" fill="#FFFFFF" fill-rule="nonzero" opacity="0.200000003" mask="url(#mask-6)"></path>
                                </g>
                            </g>
                            <g id="Group-5" transform="translate(27.066667, 100.413793)" fill-rule="nonzero">
                                <path d="M7.08888889,0 C11.0039741,-7.18334329e-16 14.1777778,3.17002982 14.1777778,7.08045977 L14.1777778,9.01149425 L0,9.01149425 L0,7.08045977 C-4.79459659e-16,3.17002982 3.17380366,7.18334329e-16 7.08888889,0 Z" id="Path" fill="url(#linearGradient-7)"></path>
                                <rect id="Rectangle-16" fill="#E0DFEF" x="0" y="9.01149425" width="14.1777778" height="2.57471264"></rect>
                                <rect id="Rectangle-17" fill="#EDEDF6" x="1.28888889" y="9.01149425" width="1.28888889" height="2.57471264"></rect>
                                <rect id="Rectangle-17-Copy" fill="#EDEDF6" x="3.86666667" y="9.01149425" width="1.28888889" height="2.57471264"></rect>
                                <rect id="Rectangle-17-Copy-2" fill="#EDEDF6" x="6.44444444" y="9.01149425" width="1.28888889" height="2.57471264"></rect>
                                <rect id="Rectangle-17-Copy-3" fill="#EDEDF6" x="9.02222222" y="9.01149425" width="1.28888889" height="2.57471264"></rect>
                                <rect id="Rectangle-17-Copy-4" fill="#EDEDF6" x="11.6" y="9.01149425" width="1.28888889" height="2.57471264"></rect>
                            </g>
                            <g id="Group-5-Copy" transform="translate(10.311111, 100.413793)" fill-rule="nonzero">
                                <path d="M7.08888889,0 C11.0039741,-7.18334329e-16 14.1777778,3.17002982 14.1777778,7.08045977 L14.1777778,9.01149425 L0,9.01149425 L0,7.08045977 C-4.79459659e-16,3.17002982 3.17380366,7.18334329e-16 7.08888889,0 Z" id="Path" fill="url(#linearGradient-7)"></path>
                                <rect id="Rectangle-16" fill="#E0DFEF" x="0" y="9.01149425" width="14.1777778" height="2.57471264"></rect>
                                <rect id="Rectangle-17" fill="#EDEDF6" x="1.28888889" y="9.01149425" width="1.28888889" height="2.57471264"></rect>
                                <rect id="Rectangle-17-Copy" fill="#EDEDF6" x="3.86666667" y="9.01149425" width="1.28888889" height="2.57471264"></rect>
                                <rect id="Rectangle-17-Copy-2" fill="#EDEDF6" x="6.44444444" y="9.01149425" width="1.28888889" height="2.57471264"></rect>
                                <rect id="Rectangle-17-Copy-3" fill="#EDEDF6" x="9.02222222" y="9.01149425" width="1.28888889" height="2.57471264"></rect>
                                <rect id="Rectangle-17-Copy-4" fill="#EDEDF6" x="11.6" y="9.01149425" width="1.28888889" height="2.57471264"></rect>
                            </g>
                        </g>
                    </g>
                    <path d="M243.860892,39.1113218 C243.860892,35.1712651 240.594958,31.9999997 236.752682,32 C232.910406,32.0000003 229.644471,35.2673641 229.644471,39.1113218 C229.644471,42.9552794 232.910406,46.2226438 236.752682,46.2226438 C240.594958,46.2226438 243.860893,43.0513787 243.860892,39.1113218 Z M212.221462,77.7307607 C212.221462,74.8477922 210.10821,73.1180114 207.610731,73.1180114 C204.729024,73.1180114 203,75.2321882 203,77.7307607 C203,80.2293331 205.113252,82.3435099 207.610731,82.3435102 C210.012154,82.3435102 212.221462,80.2293334 212.221462,77.7307607 Z" id="Shape" fill="#F2F2F8" fill-rule="nonzero"></path>
                    <g id="star" transform="translate(27.000000, 32.000000)">
                        <g id="Group-6">
                            <path d="M35.5862069,14.2562376 C35.5862069,6.35178914 29.3101743,3.74931985e-07 21.4999998,0 C13.6898253,-3.74931985e-07 7.4137931,6.35178914 7.4137931,14.2562376 C7.4137931,22.1606861 13.6898257,28.5124749 21.4999998,28.5124749 C29.3101739,28.5124749 35.5862065,22.1606861 35.5862069,14.2562376 Z" id="Path-Copy" fill="#F2F2F8" fill-rule="nonzero"></path>
                            <path d="M7.47918536,15.4818935 C7.52968904,16.0890432 7.61739136,16.6850645 7.73999377,17.2676311 C4.17007922,20.440276 2.31589812,23.2054456 3.13796679,24.6293103 C4.58771426,27.1403466 13.8117645,24.5289682 23.7404597,18.7966334 C33.6691548,13.0642986 40.5427,6.38172593 39.0929525,3.87068966 C38.3210962,2.53379533 35.3455543,2.64888866 31.2332438,3.91391964 C30.8008291,3.49775308 30.3421225,3.109276 29.8598239,2.75122075 C35.9040903,0.663874494 40.4997531,0.376305172 41.6611658,2.38793103 C43.5251268,5.61640624 35.8375398,13.5444317 24.4904597,20.0956715 C13.1433795,26.6469113 2.43371455,29.3405442 0.569753522,26.112069 C-0.646103982,24.006142 2.20214862,19.9005926 7.47918536,15.4818935 Z" id="Combined-Shape" fill="#EDEDF6" fill-rule="nonzero"></path>
                        </g>
                    </g>
                    <polygon id="Combined-Shape" fill="#F0F0F7" points="96.5384615 79.1111111 96.5384615 76.3333333 97.9230769 76.3333333 97.9230769 79.1111111 100.692308 79.1111111 100.692308 80.5 97.9230769 80.5 97.9230769 83.2777778 96.5384615 83.2777778 96.5384615 80.5 93.7692308 80.5 93.7692308 79.1111111"></polygon>
                </g>
            </g>
        </g>
    </g>
</svg>