<?xml version="1.0" encoding="UTF-8"?>
<svg width="18px" height="18px" viewBox="0 0 18 18" version="1.1" xmlns="http://www.w3.org/2000/svg" xmlns:xlink="http://www.w3.org/1999/xlink">
    <!-- Generator: Sketch 51.1 (57501) - http://www.bohemiancoding.com/sketch -->
    <title>支付宝</title>
    <desc>Created with Sketch.</desc>
    <defs>
        <ellipse id="path-1" cx="8.9503856" cy="8.99441523" rx="8.9503856" ry="8.99441523"></ellipse>
    </defs>
    <g id="个人中心-修改" stroke="none" stroke-width="1" fill="none" fill-rule="evenodd">
        <g id="收款方式" transform="translate(-351.000000, -240.000000)">
            <g id="Group" transform="translate(351.000000, 177.000000)">
                <g id="支付宝" transform="translate(0.000000, 63.000000)">
                    <g>
                        <mask id="mask-2" fill="white">
                            <use xlink:href="#path-1"></use>
                        </mask>
                        <use id="Mask" fill="#12AEFF" xlink:href="#path-1"></use>
                        <g mask="url(#mask-2)">
                            <g transform="translate(3.000000, 3.750000)">
                                <g>
                                    <path d="M8.41189686,6.86862805 C8.41189686,6.86862805 8.76539686,6.329125 9.11888117,5.25003506 C9.49763453,4.17094512 9.54810987,3.57744817 9.54810987,3.57744817 L6.66958744,3.55046799 L6.66958744,2.49839177 L10.1541278,2.47141159 L10.1541278,1.71608384 L6.66958744,1.71608384 L6.66958744,0.0165167683 L4.95257848,0.0165167683 L4.95257848,1.68910366 L1.64481166,1.68910366 L1.64481166,2.4444314 L4.90207175,2.41745122 L4.90207175,3.55046799 L2.30132063,3.55046799 L2.30132063,4.14396494 L7.67961211,4.14396494 C7.67961211,4.14396494 7.62908969,4.62955793 7.42707848,5.22305488 C7.19984529,5.81655183 6.99784978,6.329125 6.99784978,6.329125 C6.99784978,6.329125 4.47282735,5.38493598 3.13457175,5.38493598 C1.79631614,5.38493598 0.180289238,5.97843293 0.0287690583,7.62402287 C-0.122735426,9.2696128 0.78629148,10.1868216 2.07400897,10.5105503 C3.33653587,10.8342622 4.52325561,10.5105503 5.55854933,9.97104726 C6.59382735,9.43154421 7.60378924,8.21757012 7.60378924,8.21757012 L12.9568274,10.9961601 C12.9568274,10.9961601 13.285074,10.456657 13.5375919,9.94408384 C13.7901256,9.43152744 13.9921054,8.8649939 13.9921054,8.8649939 L8.411787,6.86867835 L8.41189686,6.86862805 Z M2.90735426,9.59329116 C1.01360314,9.59329116 0.634802691,8.59515854 0.634802691,7.89372409 C0.634802691,7.19228963 1.03880942,6.40998171 2.62956726,6.30209451 C4.2203565,6.19420732 6.39186323,7.51605183 6.39186323,7.51605183 C6.39186323,7.51605183 4.80107399,9.59329116 2.90732287,9.59329116 L2.90735426,9.59329116 Z" id="Shape" fill="#FFFFFF" fill-rule="nonzero"></path>
                                </g>
                            </g>
                        </g>
                    </g>
                </g>
            </g>
        </g>
    </g>
</svg>