<?xml version="1.0" encoding="UTF-8"?>
<svg width="18px" height="18px" viewBox="0 0 18 18" version="1.1" xmlns="http://www.w3.org/2000/svg" xmlns:xlink="http://www.w3.org/1999/xlink">
    <!-- Generator: Sketch 51.1 (57501) - http://www.bohemiancoding.com/sketch -->
    <title>moneygram</title>
    <desc>Created with Sketch.</desc>
    <defs></defs>
    <g id="个人中心-修改" stroke="none" stroke-width="1" fill="none" fill-rule="evenodd">
        <g id="收款方式" transform="translate(-351.000000, -423.000000)" fill="#D80000" fill-rule="nonzero">
            <g id="Group" transform="translate(351.000000, 177.000000)">
                <g id="moneygram" transform="translate(0.000000, 246.000000)">
                    <path d="M17.5750253,6.17804868 C18.2522631,8.21732941 18.1086715,10.7930366 17.2256907,12.7291171 C16.3223498,14.6447725 14.8028511,16.2110519 12.8932978,17.1377045 C11.5784707,17.7966813 11.1476961,17.8998816 9.56604586,17.9826569 C7.22464632,18.1062822 5.39760458,17.5709307 3.69272281,16.3142522 C1.10485534,14.4103753 0.0160188355,11.4282997 0.0160188355,8.47464684 C0.0160188355,6.57376877 0.574109953,5.09875336 1.6508319,3.64418557 C1.20763886,4.57582013 0.729745006,5.16805551 0.729745006,7.42125413 C0.729745006,9.52540123 1.80636474,10.8038834 2.4629194,11.3571945 C3.11947406,11.9105056 3.81779269,12.4726782 5.46052289,12.4726782 C7.57581932,12.4522532 8.79725049,11.5475061 10.598072,10.3068435 C11.2147392,9.88199525 11.6272198,9.51543404 11.8045738,9.36973265 C11.673064,9.78499467 11.6470247,10.0792704 11.5655847,10.5318467 C11.4636357,11.1258954 11.3678246,11.2871504 11.3882571,11.6306912 C11.429462,12.3234889 12.2853757,12.4726782 12.6264747,12.0679902 C12.6807505,12.0035962 12.7380543,11.8485207 12.7965763,11.6306912 C13.1058392,10.4795594 13.5877145,7.25333155 13.6639938,6.72633381 C12.9979442,6.72633381 10.901233,6.72633381 10.901233,6.72633381 C9.70982986,6.72633381 9.37602573,6.72633381 9.03186669,6.72633381 C8.57996636,6.72633381 8.29980673,7.10679517 8.29980673,7.42125413 C8.29980673,7.73571308 8.53640884,8.13347917 9.03186669,8.13347917 C9.23136471,8.13347917 9.8544868,8.13347917 10.901233,8.13347917 C10.6991257,8.36092429 10.4579766,8.57788797 10.1777858,8.78437021 C9.34756945,9.39618516 7.95596896,10.5318467 6.60956013,10.8328118 C5.48580689,11.0840062 4.44542859,11.0690207 3.58280771,10.3068435 C2.57659528,9.42104104 2.56506077,8.42157998 2.56506077,7.0412761 C2.56506077,4.36344358 4.4715044,1.38005764 7.47325259,0.36765735 C9,-0.147269098 10.3257952,-0.147269098 12.1539085,0.533207815 C14.6796196,1.48136048 16.7327644,3.6238415 17.5750253,6.17804868 Z" id="Path"></path>
                </g>
            </g>
        </g>
    </g>
</svg>