<?xml version="1.0" encoding="UTF-8"?>
<svg width="20px" height="20px" viewBox="0 0 20 20" version="1.1" xmlns="http://www.w3.org/2000/svg" xmlns:xlink="http://www.w3.org/1999/xlink">
    <!-- Generator: Sketch 51.1 (57501) - http://www.bohemiancoding.com/sketch -->
    <title>ico_二维码</title>
    <desc>Created with Sketch.</desc>
    <defs></defs>
    <g id="个人中心-修改" stroke="none" stroke-width="1" fill="none" fill-rule="evenodd">
        <g id="收款方式" transform="translate(-633.000000, -240.000000)" fill="#BDBCCB" fill-rule="nonzero">
            <g id="Group" transform="translate(351.000000, 177.000000)">
                <g id="ico_二维码" transform="translate(282.000000, 63.000000)">
                    <path d="M0,9.39315587 L9.3931786,9.39315587 L9.3931786,0 L0,0 L0,9.39315587 Z M2.3483117,2.34828897 L7.04488963,2.34828897 L7.04488963,7.0448669 L2.3483117,7.0448669 L2.3483117,2.34828897 Z M10.5673345,0 L10.5673345,9.3931786 L19.9605131,9.3931786 L19.9605131,0 L10.5673345,0 Z M17.6122014,7.0448669 L12.9156234,7.0448669 L12.9156234,2.34828897 L17.6122014,2.34828897 L17.6122014,7.0448669 Z M3.52244482,5.87073378 L5.87073378,5.87073378 L5.87073378,3.52242209 L3.52244482,3.52242209 L3.52244482,5.87073378 Z M0,19.9604903 L9.3931786,19.9604903 L9.3931786,10.5673117 L0,10.5673117 L0,19.9604903 Z M2.3483117,12.9156007 L7.04488963,12.9156007 L7.04488963,17.6121786 L2.3483117,17.6121786 L2.3483117,12.9156007 Z M16.4380682,3.52242209 L14.0897565,3.52242209 L14.0897565,5.87071105 L16.4380682,5.87071105 L16.4380682,3.52242209 Z M10.5673345,19.9604903 L12.9156234,19.9604903 L12.9156234,17.6122013 L10.5673345,17.6122013 L10.5673345,19.9604903 Z M12.9156234,12.9156007 L12.9156234,17.6121786 L15.2639124,17.6121786 L15.2639124,12.9156007 L12.9156234,12.9156007 Z M17.6122014,17.6122013 L15.2639124,17.6122013 L15.2639124,19.9604903 L19.9604903,19.9604903 L19.9604903,15.2638897 L17.6122014,15.2638897 L17.6122014,17.6122013 Z M17.6122014,12.9156007 L19.9604903,12.9156007 L19.9604903,10.5673117 L17.6122014,10.5673117 L17.6122014,12.9156007 Z M10.5673345,10.5673117 L10.5673345,12.9156007 L12.9156234,12.9156007 L12.9156234,10.5673117 L10.5673345,10.5673117 Z M3.52244482,16.4380455 L5.87073378,16.4380455 L5.87073378,14.0897565 L3.52244482,14.0897565 L3.52244482,16.4380455 Z" id="Shape"></path>
                </g>
            </g>
        </g>
    </g>
</svg>