<?xml version="1.0" encoding="UTF-8"?>
<svg width="18px" height="18px" viewBox="0 0 18 18" version="1.1" xmlns="http://www.w3.org/2000/svg" xmlns:xlink="http://www.w3.org/1999/xlink">
    <!-- Generator: Sketch 51.1 (57501) - http://www.bohemiancoding.com/sketch -->
    <title>微信</title>
    <desc>Created with Sketch.</desc>
    <defs></defs>
    <g id="个人中心-修改" stroke="none" stroke-width="1" fill="none" fill-rule="evenodd">
        <g id="收款方式" transform="translate(-351.000000, -301.000000)">
            <g id="Group" transform="translate(351.000000, 177.000000)">
                <g id="微信" transform="translate(0.000000, 124.000000)">
                    <g id="Shape">
                        <path d="M0,9 C6.08718376e-16,13.9705627 4.02943725,18 9,18 C13.9705627,18 18,13.9705627 18,9 C18,4.02943725 13.9705627,3.04359188e-16 9,0 C4.02943725,-3.04359188e-16 6.08718376e-16,4.02943725 0,9 Z" fill="#4DB233" fill-rule="nonzero"></path>
                        <path d="M10.2974257,8.9910891 C10.0710891,8.9910891 9.84415841,9.21920792 9.84415841,9.49960396 C9.84415841,9.72772277 10.0710891,9.95524752 10.2974257,9.95524752 C10.6372277,9.95524752 10.880198,9.7271287 10.880198,9.49960396 C10.880198,9.21920792 10.6378218,8.9910891 10.2974257,8.9910891 Z M8.80871288,6.62435643 C9.16514852,6.62435643 9.39148515,6.37900989 9.39148515,6.01069307 C9.39148515,5.62514852 9.16514851,5.3970297 8.80871288,5.3970297 C8.4689109,5.3970297 8.14514852,5.62514852 8.14514852,6.01069307 C8.14514852,6.37900989 8.4689109,6.62435643 8.80871288,6.62435643 Z M7.10970296,11.7261386 C6.51089108,11.7261386 6.07425741,11.6209901 5.50574258,11.4457426 L3.87148514,12.3368317 L4.34079207,10.8285148 C3.19306931,9.95524752 2.51287128,8.85148515 2.51287128,7.50059406 C2.51287128,5.11603961 4.58435642,3.29287129 7.10910891,3.29287129 C9.34277228,3.29287129 11.3328713,4.73049504 11.7213861,6.76455446 C11.5788439,6.73216145 11.433292,6.71483859 11.2871287,6.71287129 C9.08613861,6.71287129 7.3871287,8.5009901 7.38712872,10.6574257 C7.38919098,11.0119647 7.43265372,11.3650496 7.51663366,11.7095049 C7.38229423,11.7239582 7.24716103,11.7297128 7.11207921,11.7267327 L7.10970296,11.7261386 Z M13.8582178,13.4447525 L14.1819802,14.7071287 L12.9504951,13.9532673 C12.4811881,14.0584158 12.0279208,14.2158416 11.5586139,14.2158416 C9.38970297,14.2158416 7.67465348,12.6029703 7.67465346,10.6039604 C7.67465344,8.6049505 9.39029702,6.99207921 11.5586139,6.99207921 C13.6140594,6.99207921 15.4586139,8.60554455 15.4586139,10.6039604 C15.4586139,11.7261386 14.7623762,12.7253465 13.8546535,13.4441584 L13.8582178,13.4447525 Z M5.60435644,5.3970297 C5.26455446,5.3970297 4.90871289,5.62514852 4.90871287,6.01069307 C4.90871287,6.37900989 5.26514852,6.62435643 5.60435644,6.62435643 C5.92811882,6.62435643 6.18712871,6.37900989 6.18712871,6.01069307 C6.18712871,5.62514852 5.92811882,5.3970297 5.60435644,5.3970297 Z M12.8382178,8.9910891 C12.5952475,8.9910891 12.3849505,9.21920792 12.3849505,9.49960396 C12.3948723,9.74611112 12.5917659,9.94403692 12.8382178,9.95524752 C13.1619802,9.95524752 13.4043564,9.7271287 13.4043564,9.49960396 C13.4043564,9.21920792 13.1613861,8.9910891 12.8382178,8.9910891 Z" fill="#FFFFFF" fill-rule="nonzero"></path>
                    </g>
                </g>
            </g>
        </g>
    </g>
</svg>