<?xml version="1.0" encoding="UTF-8"?>
<svg width="18px" height="18px" viewBox="0 0 18 18" version="1.1" xmlns="http://www.w3.org/2000/svg" xmlns:xlink="http://www.w3.org/1999/xlink">
    <!-- Generator: Sketch 51.1 (57501) - http://www.bohemiancoding.com/sketch -->
    <title>WU</title>
    <desc>Created with Sketch.</desc>
    <defs></defs>
    <g id="个人中心-修改" stroke="none" stroke-width="1" fill="none" fill-rule="evenodd">
        <g id="收款方式" transform="translate(-351.000000, -484.000000)" fill-rule="nonzero">
            <g id="Group" transform="translate(351.000000, 177.000000)">
                <g id="WU" transform="translate(0.000000, 307.000000)">
                    <circle id="Oval" fill="#000000" cx="9" cy="9" r="9"></circle>
                    <path d="M10.8081815,6.33754828 L10.8081815,6.32860138 L13.5858924,6.32860138 L13.5858924,10.971708 C13.6316808,11.258278 13.8101031,11.401563 14.1211594,11.401563 C14.4322157,11.401563 14.6187328,11.258278 14.6807109,10.971708 L14.6807109,6.32860138 L17.3748725,6.32860138 L17.3748725,11.1850883 C17.1506393,12.5759619 16.0660683,13.2713986 14.1211594,13.2713986 C12.9633529,13.2713986 12.1034351,13.0249473 11.541406,12.5320448 L11.4171764,13.009584 L8.47647043,13.009584 L7.8534834,9.04099313 L7.14526534,13.009584 L4.22608576,13.009584 L2.69253265,6.33754828 L4.99329956,6.33754828 L5.851126,10.2374565 L6.34307116,6.33754828 L9.08633982,6.33754828 L9.66587046,10.2374565 L10.4527271,6.33754828 L10.8081815,6.33754828 Z M10.8081815,6.33754828 L10.8081815,11.1850883 C10.914918,11.7479733 11.1593262,12.1969587 11.541406,12.5320448 L13.1528757,6.33754828 L10.8081815,6.33754828 Z M1.69555289,6.33516553 L2.23684132,6.33516553 L3.83640358,13.0080489 L3.29511515,13.0080489 L1.69555289,6.33516553 Z M0.625127542,6.33516553 L1.16641597,6.33516553 L2.76597823,13.0080489 L2.2246898,13.0080489 L0.625127542,6.33516553 Z" id="Combined-Shape" fill="#FEDD00"></path>
                </g>
            </g>
        </g>
    </g>
</svg>