<?xml version="1.0" encoding="UTF-8"?>
<svg width="514px" height="425px" viewBox="0 0 514 425" version="1.1" xmlns="http://www.w3.org/2000/svg" xmlns:xlink="http://www.w3.org/1999/xlink">
    <!-- Generator: Sketch 51.1 (57501) - http://www.bohemiancoding.com/sketch -->
    <title>HEX</title>
    <desc>Created with Sketch.</desc>
    <defs>
        <path d="M41.9520929,244.898025 C60.2765249,241.372928 70.6606486,234.010255 73.1044638,222.810006 C75.0731013,213.787544 87.738003,179.192082 82.045654,183.349169 C77.9449474,186.343889 81.7155088,177.301675 82.3096169,173.98672 C82.7146629,171.726679 84.2986718,166.234444 83.5164759,167.249807 C80.0676682,171.726679 86.1556518,152.535868 87.3202827,146.2115 C89.1388628,136.335953 86.4442533,120.278808 84.8054291,124.351119 C83.166605,128.423429 86.4442533,116.455993 84.8054291,109.765449 C83.6180442,104.917918 81.6023678,101.284859 82.045654,92.6425447 C82.3267901,87.1615106 78.3119991,80.0154816 77.9449474,74.9308845 C77.519828,69.0419016 74.605481,61.9712521 73.1044638,60.2041484 C68.2639803,54.5055879 69.6712417,53.1880582 65.3071344,45.652771 C59.818275,36.1754301 58.0470089,34.953035 55.7224743,26.0592414 C54.7830859,22.4650912 52.7135219,22.7530123 51.4811584,16.609182 C47.1992877,-4.73767483 45.4798878,4.26497719 41.9520929,1.90517481 C38.4242981,-0.45462757 35.7660203,-1.15903332 34.1036266,3.3510603 C33.8082317,4.15247038 34.8109767,7.21837125 34.1036266,9.8947583 C33.4007071,12.5543817 30.9877063,7.02016025 30.6846424,9.7797961 C30.2413049,13.8167341 31.5115353,15.8993773 30.6846424,19.973797 C29.4444517,26.0846939 26.9056784,30.4987189 25.419172,33.4795704 C24.1369247,36.0508265 23.7548238,41.7090461 21.4795139,45.652771 C19.7119216,48.7164846 18.1348859,51.6943015 16.2078243,54.5967621 C13.1926472,59.138097 10.1047188,63.4809809 10.1047188,67.5725975 C10.1047188,72.9894309 7.4604473,82.1883732 7.13506361,91.2740055 C6.85538298,99.0834792 4.41616448,103.407851 2.47948611,107.92375 C1.58629116,110.00648 2.91641488,118.955458 2.47948611,124.351119 C2.21626926,127.601601 4.96976685,140.750381 2.10191067,135.272196 C-0.765945511,129.794011 2.37319459,148.021294 2.80255884,154.924341 C2.97352491,157.673025 3.75441183,163.994591 3.38466178,163.229286 C1.15120766,158.606505 7.86431794,190.202616 4.96976685,185.52771 C2.92006408,182.217293 6.76011163,197.61224 7.13506361,200.868148 C10.1047188,226.655246 20.051141,244.898025 36.9764766,244.898025 C38.8366639,244.898025 40.4952027,244.898025 41.9520929,244.898025 Z" id="path-1"></path>
        <linearGradient x1="95.9253146%" y1="6.54354596%" x2="18.4039331%" y2="100%" id="linearGradient-3">
            <stop stop-color="#5BA7C9" offset="0%"></stop>
            <stop stop-color="#276C9B" offset="100%"></stop>
        </linearGradient>
        <linearGradient x1="-1.11022302e-14%" y1="50%" x2="100%" y2="50%" id="linearGradient-4">
            <stop stop-color="#0D64C8" offset="0%"></stop>
            <stop stop-color="#0496D2" offset="76.2102601%"></stop>
            <stop stop-color="#048FD1" offset="100%"></stop>
        </linearGradient>
        <linearGradient x1="-1.11022302e-14%" y1="50%" x2="100%" y2="50%" id="linearGradient-5">
            <stop stop-color="#37BFF2" offset="0%"></stop>
            <stop stop-color="#00AEEF" offset="100%"></stop>
        </linearGradient>
        <linearGradient x1="100%" y1="50%" x2="-2.22044605e-14%" y2="50%" id="linearGradient-6">
            <stop stop-color="#FFC358" offset="0%"></stop>
            <stop stop-color="#D58325" offset="100%"></stop>
        </linearGradient>
        <linearGradient x1="100%" y1="50%" x2="-2.22044605e-14%" y2="50%" id="linearGradient-7">
            <stop stop-color="#FAD773" offset="0%"></stop>
            <stop stop-color="#FAAE28" offset="100%"></stop>
        </linearGradient>
        <linearGradient x1="97.5885116%" y1="50%" x2="3.34402095%" y2="50%" id="linearGradient-8">
            <stop stop-color="#FFE2AF" offset="0%"></stop>
            <stop stop-color="#FFC889" offset="100%"></stop>
        </linearGradient>
        <path d="M12.1904502,-2.27373675e-13 C12.4237845,1.1594532 13.1653131,1.73917981 14.4150361,1.73917981 C15.6647591,1.73917981 16.4052325,1.1594532 16.6364563,-2.27373675e-13 C22.15479,0.710855951 25.5961913,1.33709331 26.9606601,1.87871208 C28.6430715,2.54653648 28.8754761,2.88083145 29.782036,5.88756662 C30.3864092,7.89205673 28.7203116,11.264869 24.783743,16.0060033 L24.4193283,31.0334957 L4.43192293,31.0334957 L4.43192293,30.6043322 L0,30.6043322 L0,7.09422528 C0.128394555,4.19511463 0.880719072,2.51088162 2.25697355,2.04152626 C3.63322803,1.5721709 6.94438692,0.891662142 12.1904502,-2.27373675e-13 Z" id="path-9"></path>
        <linearGradient x1="50%" y1="0%" x2="50%" y2="98.9207009%" id="linearGradient-11">
            <stop stop-color="#4225A0" offset="0%"></stop>
            <stop stop-color="#080219" offset="100%"></stop>
        </linearGradient>
    </defs>
    <g id="HEX上线预热" stroke="none" stroke-width="1" fill="none" fill-rule="evenodd">
        <g transform="translate(-1046.000000, -226.000000)" id="HEX">
            <g transform="translate(1046.000000, 219.000000)">
                <g transform="translate(0.000000, 7.753846)">
                    <g id="灯泡" transform="translate(22.155172, 0.000000)" fill="#E8EDF4" fill-rule="nonzero">
                        <path d="M101.733037,160.641969 L66.3079638,160.641969 C63.5829581,160.641969 61.247239,162.981415 61.247239,165.710769 C61.247239,168.440123 63.5829581,170.779569 66.3079638,170.779569 L101.733037,170.779569 C104.458043,170.779569 106.793762,168.440123 106.793762,165.710769 C106.793762,162.591508 104.458043,160.641969 101.733037,160.641969 Z M74.4829807,187.155692 C75.2615537,191.834585 79.1544189,194.953846 83.8258572,194.953846 C88.4972954,194.953846 92.3901606,191.444677 93.1687337,187.155692 C99.397318,186.765785 104.068756,181.696985 104.068756,175.458462 L63.5829581,175.458462 C63.5829581,181.696985 68.6436829,186.765785 74.4829807,187.155692 Z M83.8258572,28.8531692 C87.3294359,28.8531692 90.443728,25.7339077 90.443728,22.2247385 L90.443728,6.62843077 C90.443728,3.11926154 87.3294359,0 83.8258572,0 C80.3222785,0 77.2079863,3.11926154 77.2079863,6.62843077 L77.2079863,22.2247385 C77.2079863,25.7339077 80.3222785,28.8531692 83.8258572,28.8531692 Z M40.2257669,38.6008615 C41.3936264,40.5504 43.7293456,41.3302154 45.6757782,41.3302154 C46.8436377,41.3302154 48.4007838,40.9403077 49.5686434,40.1604923 C52.6829355,37.8210462 53.0722221,33.9219692 51.1257895,30.8027077 L42.1721995,18.3256615 C39.8364804,15.2064 35.9436152,14.8164923 32.829323,16.7660308 C29.7150308,19.1054769 29.3257443,23.0045538 31.2721769,26.1238154 L40.2257669,38.6008615 Z M23.875733,60.8256 L9.08284526,56.1467077 C5.57926658,54.9769846 1.68640137,56.9265231 0.51854181,60.4356923 C-0.649317751,63.9448615 1.29711485,67.8439385 4.80069353,69.0136615 L19.5935813,73.6925538 C20.3721543,73.6925538 21.1507274,74.0824615 21.9293004,74.0824615 C24.6543061,74.0824615 27.3793117,72.1329231 28.1578848,69.4035692 C29.3257443,65.8944 27.3793117,61.9953231 23.875733,60.8256 Z M162.461734,106.054892 L147.668847,101.376 C144.165268,100.206277 140.272403,102.155815 139.104543,105.664985 C137.936684,109.174154 139.883116,113.073231 143.386695,114.242954 L158.179583,118.921846 C158.958156,119.311754 159.736729,119.311754 160.126015,119.311754 C162.851021,119.311754 165.576026,117.362215 166.354599,114.632862 C167.911746,111.123692 165.965313,107.224615 162.461734,106.054892 Z M19.9828678,101.376 L5.18998005,106.054892 C1.68640137,107.224615 -0.26003123,111.123692 0.907828331,114.632862 C1.68640137,117.362215 4.41140701,119.311754 7.13641266,119.311754 C7.9149857,119.311754 8.69355874,119.311754 9.08284526,118.921846 L23.875733,114.242954 C27.3793117,113.073231 29.3257443,109.174154 28.1578848,105.664985 C26.9900252,102.155815 23.4864465,100.206277 19.9828678,101.376 Z M145.722414,74.0824615 C146.500987,74.0824615 147.27956,74.0824615 147.668847,73.6925538 L162.461734,69.0136615 C165.965313,67.8439385 167.911746,63.9448615 166.743886,60.4356923 C165.576026,56.9265231 161.683161,54.9769846 158.179583,56.1467077 L143.386695,60.8256 C139.883116,61.9953231 137.936684,65.8944 139.104543,69.4035692 C140.272403,72.1329231 142.997408,74.0824615 145.722414,74.0824615 Z M125.868801,18.3256615 L116.915211,30.8027077 C114.579492,33.9219692 115.358065,37.8210462 118.472357,40.1604923 C119.640217,40.9403077 121.197363,41.3302154 122.365223,41.3302154 C124.311655,41.3302154 126.647374,40.5504 127.815234,38.6008615 L136.768824,26.1238154 C139.104543,23.0045538 138.32597,19.1054769 135.211678,16.7660308 C132.097386,14.4265846 127.815234,15.2064 125.868801,18.3256615 Z M83.8258572,39.3806769 C57.3543738,39.3806769 35.5543286,60.8256 35.5543286,87.7292308 C35.5543286,99.0365538 39.4471938,109.174154 45.6757782,117.362215 C51.1257895,124.380554 56.5758007,132.178708 61.247239,140.366769 L61.247239,156.352985 L105.236616,156.352985 L105.236616,140.756677 C109.908054,132.958523 115.747352,124.380554 121.197363,117.362215 C127.815234,109.174154 131.318813,99.0365538 131.318813,87.7292308 C132.097386,61.2155077 110.297341,39.3806769 83.8258572,39.3806769 Z M75.2615537,61.2155077 C65.5293907,61.2155077 57.3543738,69.0136615 57.3543738,78.7613538 C57.3543738,80.3209846 56.1865142,81.4907077 54.6293681,81.4907077 C53.0722221,81.4907077 51.9043625,80.3209846 51.9043625,78.7613538 C51.9043625,65.8944 62.4150986,55.3668923 75.2615537,55.3668923 C76.8186998,55.3668923 77.9865594,56.5366154 77.9865594,58.0962462 C77.9865594,60.0457846 76.8186998,61.2155077 75.2615537,61.2155077 Z" id="Shape"></path>
                    </g>
                    <g id="齿轮-copy" transform="translate(428.148707, 76.984615) scale(-1, 1) translate(-428.148707, -76.984615) translate(350.051724, 2.215385)" fill="#E8EDF4" fill-rule="nonzero">
                        <g id="齿轮">
                            <path d="M84.112861,22.5707943 L80.8529115,23.6562041 C79.0418285,24.3798107 77.0496371,23.6562041 75.781879,22.208991 C74.5141209,20.5808763 73.0652545,19.1336632 71.6163881,17.8673517 C70.1675216,16.6010403 69.6241967,14.6111222 70.3486299,12.8021059 L71.6163881,9.72677803 C72.5219296,7.37505674 71.4352798,4.84243381 69.2619801,3.93792562 L65.8209224,2.49071252 L62.3798646,0.862597784 C60.206565,-0.0419104044 57.4899404,0.862597784 56.4032906,3.03341744 L54.9544242,6.10874527 C54.0488827,7.91776165 52.2377997,8.82226984 50.2456083,8.6413682 C48.253417,8.46046656 46.2612257,8.46046656 44.2690343,8.46046656 C42.276843,8.6413682 40.46576,7.55595838 39.7413267,5.746942 L38.4735686,2.67161416 C37.5680271,0.500794508 34.8514026,-0.584615318 32.6781029,0.31989287 L29.2370452,1.58620433 L25.7959874,2.8525158 C23.4415795,3.75702398 22.3549297,6.28964691 23.0793629,8.6413682 L24.1660127,11.8975977 C24.8904459,13.7066141 24.1660127,15.6965321 22.7171463,16.9628435 C21.0871715,18.229155 19.6383051,19.6763681 18.370547,21.1235812 C17.1027889,22.5707943 15.1105976,23.1134992 13.2995145,22.3898927 L9.85845677,21.1235812 C7.50404883,20.219073 4.96853259,21.3044828 4.06299107,23.4753025 L2.61412465,26.9124336 L1.16525823,30.3495647 C0.259716713,32.5203844 1.16525823,35.2339089 3.33855786,36.3193188 L6.41739901,37.7665319 C8.22848204,38.6710401 9.13402356,40.4800564 8.95291525,42.4699744 C8.77180695,44.4598925 8.77180695,46.4498105 8.77180695,48.4397285 C8.95291526,50.4296465 7.86626544,52.2386629 6.05518241,52.9622694 L2.97634126,54.2285809 C0.803041621,55.1330891 -0.283608196,57.8466136 0.62193332,60.0174333 L1.88969144,63.4545644 L3.15744956,66.8916955 C4.06299107,69.2434168 6.59850732,70.3288266 8.95291525,69.6052201 L12.2128647,68.5198103 C14.0239477,67.7962037 16.0161391,68.5198103 17.2838972,69.9670234 C18.5516553,71.5951381 20.0005217,73.0423512 21.4493882,74.3086627 C22.8982546,75.5749741 23.4415795,77.5648922 22.7171463,79.3739085 L21.4493882,82.4492364 C20.5438466,84.8009577 21.6304965,87.3335806 23.8037961,88.2380888 L27.2448538,89.6853019 L30.6859116,91.132515 C32.8592112,92.0370232 35.5758358,91.132515 36.6624856,88.9616953 L38.111352,85.8863675 C39.0168935,84.0773511 40.8279766,83.1728429 42.8201679,83.3537446 C44.8123592,83.5346462 46.8045506,83.5346462 48.7967419,83.5346462 C50.7889332,83.3537446 52.6000163,84.4391544 53.3244495,86.2481708 L54.5922076,89.3234986 C55.4977491,91.4943183 58.2143736,92.5797281 60.3876733,91.6752199 L63.828731,90.4089084 L67.2697888,89.142597 C69.6241967,88.2380888 70.7108465,85.7054658 69.9864133,83.3537446 L68.8997635,80.0975151 C68.1753303,78.2884987 68.8997635,76.2985807 70.3486299,75.0322692 C71.9786047,73.7659578 73.4274711,72.3187447 74.6952292,70.8715316 C75.9629873,69.4243185 77.9551787,68.8816135 79.7662617,69.6052201 L82.8451028,70.8715316 C85.1995108,71.7760398 87.735027,70.6906299 88.6405685,68.5198103 L90.089435,65.0826792 L91.5383014,61.645548 C92.4438429,59.4747284 91.5383014,56.7612038 89.3650017,55.675794 L86.2861606,54.2285809 C84.4750776,53.3240727 83.5695361,51.5150563 83.7506444,49.5251383 C83.9317527,47.5352203 83.9317527,45.5453023 83.9317527,43.5553843 C83.7506444,41.5654663 84.8372942,39.7564499 86.6483772,39.0328433 L89.7272183,37.7665319 C91.900518,36.8620237 92.9871678,34.1484991 92.0816263,31.9776795 L90.8138682,28.5405483 L89.54611,25.1034172 C89.0027851,22.9325976 86.4672689,21.8471878 84.112861,22.5707943 Z M52.9622329,62.9118595 C43.7257094,66.5298923 33.2214278,62.0073513 29.5992618,52.7813678 C25.9770957,43.5553843 30.5048033,33.0630893 39.7413267,29.4450565 C48.9778502,25.8270238 59.4821318,30.3495647 63.1042978,39.5755482 C66.7264639,48.8015318 62.1987563,59.2938268 52.9622329,62.9118595 Z M153.296233,75.0322692 L150.941825,74.8513676 C149.674067,74.670466 148.587417,73.7659578 148.044092,72.4996463 C147.681875,71.2333348 147.13855,69.7861217 146.595225,68.7007119 C146.051901,67.4344004 146.233009,65.9871873 147.13855,65.0826792 L148.768525,63.4545644 C150.036283,62.188253 150.036283,60.3792366 148.768525,59.1129251 L146.957442,57.3039087 L145.146359,55.4948924 C144.059709,54.2285809 142.067518,54.2285809 140.79976,55.3139907 L138.988677,56.7612038 C137.902027,57.665712 136.45316,57.8466136 135.366511,57.1230071 C134.098753,56.3994005 132.830994,55.8566956 131.563236,55.4948924 C130.295478,55.1330891 129.389937,53.8667776 129.389937,52.6004662 L129.389937,50.2487449 C129.389937,48.6206301 127.94107,47.173417 126.311096,47.173417 L121.240063,47.173417 C119.610088,47.173417 118.161222,48.4397285 117.980114,50.0678432 L117.799005,52.4195645 C117.617897,53.685876 116.712355,54.7712858 115.444597,55.3139907 C114.176839,55.675794 112.727973,56.2184989 111.641323,56.7612038 C110.373565,57.3039087 108.924698,57.1230071 108.019157,56.2184989 L106.389182,54.5903842 C105.121424,53.3240727 103.310341,53.3240727 102.042583,54.5903842 L100.2315,56.3994005 L98.4204169,58.2084169 C97.1526588,59.2938267 97.1526588,61.2837448 98.2393086,62.5500562 L99.688175,64.3590726 C100.593717,65.4444824 100.774825,66.8916955 100.050392,67.9771054 C99.3259584,69.2434168 98.7826335,70.5097283 98.4204169,71.7760397 C98.0582003,73.0423512 96.7904422,73.9468594 95.522684,73.9468594 L93.1682761,73.9468594 C91.5383014,73.9468594 90.089435,75.3940725 90.089435,77.0221872 L90.089435,82.0874331 C90.089435,83.7155478 91.3571931,85.1627609 92.9871678,85.3436626 L95.3415757,85.5245642 C96.6093339,85.7054659 97.6959837,86.609974 98.2393086,87.8762855 C98.6015252,89.142597 99.1448501,90.5898101 99.688175,91.6752199 C100.2315,92.9415314 100.050392,94.3887445 99.1448501,95.2932526 L97.5148754,96.9213674 C96.2471173,98.1876789 96.2471173,99.9966952 97.5148754,101.263007 L99.3259584,103.072023 L101.137041,104.881039 C102.223691,106.147351 104.215883,106.147351 105.483641,105.061941 L107.294724,103.614728 C108.381374,102.71022 109.83024,102.529318 110.91689,103.252925 C112.184648,103.976531 113.452406,104.519236 114.720164,104.881039 C115.987922,105.242843 116.893464,106.509154 116.893464,107.775466 L116.893464,110.127187 C116.893464,111.755302 118.34233,113.202515 119.972305,113.202515 L125.043337,113.202515 C126.673312,113.202515 128.122179,111.936203 128.303287,110.308089 L128.484395,107.956367 C128.665503,106.690056 129.571045,105.604646 130.838803,105.061941 C132.106561,104.700138 133.555428,104.157433 134.642077,103.614728 C135.909836,103.072023 137.358702,103.252925 138.264244,104.157433 L139.894218,105.785548 C141.161976,107.051859 142.973059,107.051859 144.240818,105.785548 L146.051901,103.976531 L147.862984,102.167515 C149.130742,101.082105 149.130742,99.092187 148.044092,97.8258756 L146.595225,96.0168592 C145.689684,94.9314494 145.508576,93.4842363 146.233009,92.3988264 C146.957442,91.132515 147.500767,89.8662035 147.862984,88.5998921 C148.2252,87.3335806 149.492958,86.4290724 150.760716,86.4290724 L153.115124,86.4290724 C154.745099,86.4290724 156.193966,84.9818593 156.193966,83.3537446 L156.193966,78.2884987 C156.193966,76.4794823 154.926207,75.0322692 153.296233,75.0322692 Z M122.688929,92.2179248 C115.806814,92.0370232 110.554673,86.2481708 110.735781,79.5548102 C110.91689,72.6805479 116.712355,67.4344004 123.413363,67.6153021 C130.295478,67.7962037 135.547619,73.5850561 135.366511,80.2784167 C135.366511,86.9717773 129.571045,92.3988264 122.688929,92.2179248 Z M112.104223,125.597689 L110.655357,125.416787 C109.749816,125.416787 109.206491,124.693181 108.844274,123.969574 C108.663166,123.065066 108.300949,122.34146 107.938732,121.617853 C107.576516,120.894246 107.757624,119.989738 108.300949,119.447033 L109.387599,118.361624 C110.112032,117.638017 110.112032,116.371706 109.387599,115.648099 L108.300949,114.562689 L107.214299,113.477279 C106.489866,112.753673 105.222108,112.572771 104.497675,113.296378 L103.411025,114.200886 C102.8677,114.743591 101.962158,114.743591 101.237725,114.381787 C100.513292,114.019984 99.7888588,113.658181 98.8833173,113.296378 C98.1588841,112.934574 97.6155592,112.210968 97.6155592,111.487361 L97.6155592,110.040148 C97.6155592,108.954738 96.7100177,108.05023 95.6233679,108.05023 L92.3634184,108.05023 C91.2767686,108.05023 90.3712271,108.773837 90.3712271,109.859247 L90.1901188,111.30646 C90.1901188,112.210968 89.4656856,112.753673 88.7412524,113.115476 C87.8357109,113.296378 87.1112776,113.658181 86.3868444,114.019984 C85.6624112,114.381787 84.7568697,114.200886 84.2135448,113.658181 L83.126895,112.572771 C82.4024618,111.849165 81.1347036,111.849165 80.4102704,112.572771 L79.3236206,113.658181 L78.0558625,114.743591 C77.3314293,115.467197 77.150321,116.733509 77.8747542,117.457115 L78.7802957,118.542525 C79.3236206,119.08523 79.3236206,119.989738 78.961404,120.713345 C78.5991874,121.436951 78.2369708,122.160558 77.8747542,123.065066 C77.5125376,123.788673 76.7881044,124.331378 76.0636712,124.331378 L74.6148047,124.331378 C73.5281549,124.331378 72.6226134,125.235886 72.6226134,126.321296 L72.6226134,129.577525 C72.6226134,130.662935 73.3470466,131.567443 74.4336964,131.567443 L75.8825629,131.748345 C76.7881044,131.748345 77.3314293,132.471951 77.6936459,133.195558 C77.8747542,134.100066 78.2369708,134.823673 78.5991874,135.547279 C78.961404,136.270886 78.7802957,137.175394 78.2369708,137.718099 L77.150321,138.803509 C76.4258878,139.527115 76.4258878,140.793427 77.150321,141.517033 L78.2369708,142.602443 L79.3236206,143.687853 C80.0480538,144.411459 81.3158119,144.592361 82.0402452,143.868754 L83.126895,142.964246 C83.6702199,142.421541 84.5757614,142.421541 85.3001946,142.783345 C86.0246278,143.145148 86.749061,143.506951 87.6546025,143.868754 C88.3790358,144.230558 88.9223607,144.954164 88.9223607,145.677771 L88.9223607,147.124984 C88.9223607,148.210394 89.8279022,149.114902 90.914552,149.114902 L94.1745015,149.114902 C95.2611513,149.114902 96.1666928,148.391295 96.1666928,147.305886 L96.3478011,145.858672 C96.3478011,144.954164 97.0722343,144.411459 97.7966675,144.049656 C98.702209,143.868754 99.4266422,143.506951 100.151075,143.145148 C100.875509,142.783345 101.78105,142.964246 102.324375,143.506951 L103.411025,144.592361 C104.135458,145.315968 105.403216,145.315968 106.127649,144.592361 L107.214299,143.506951 L108.300949,142.421541 C109.025382,141.697935 109.206491,140.431623 108.482057,139.708017 L107.576516,138.622607 C107.033191,138.079902 107.033191,137.175394 107.395408,136.451787 C107.757624,135.728181 108.119841,135.004574 108.482057,134.100066 C108.844274,133.376459 109.568707,132.833755 110.29314,132.833755 L111.742007,132.833755 C112.828657,132.833755 113.734198,131.929246 113.734198,130.843837 L113.734198,127.587607 C113.915306,126.502197 113.190873,125.597689 112.104223,125.597689 Z M93.0878516,136.270886 C88.9223607,136.089984 85.4813029,132.652853 85.6624112,128.311214 C85.8435195,123.969574 89.2845773,120.713345 93.6311765,120.894246 C97.7966675,121.075148 101.237725,124.512279 101.056617,128.853919 C100.875509,133.014656 97.4344509,136.451787 93.0878516,136.270886 Z" id="Shape"></path>
                        </g>
                    </g>
                    <g id="H" transform="translate(0.000000, 48.738462)">
                        <g id="Group-2" transform="translate(0.000000, 269.169231)" fill-rule="nonzero">
                            <rect id="Combined-Shape" fill="#82C6A8" x="0" y="0" width="232.62931" height="28.8" rx="13"></rect>
                            <path d="M54.2801724,28.8 C63.2589011,21.4972354 72.0435706,17.2143052 80.6341808,15.9512093 C93.5200962,14.0565654 94.5056128,22.3756046 106.816961,22.3756046 C119.128308,22.3756046 125.175537,13.4453266 137.149184,15.9512093 C145.131615,17.6217977 155.399316,21.904728 167.952286,28.8 L54.2801724,28.8 Z" id="Path-27" fill="#74BCA7"></path>
                            <path d="M32.1828243,28.8 C21.6941885,23.407636 16.9120608,18.5853874 17.8364412,14.3332541 C18.7608215,10.0811208 22.8346201,13.0883084 30.057837,23.3548168 C25.6962117,13.792688 24.95997,7.97758545 27.8491117,5.90950915 C30.7382535,3.84143286 32.7718902,10.4183513 33.9500221,25.6402646 C40.7059737,15.7198514 45.5169204,11.9508479 48.382862,14.3332541 C51.2488036,16.7156603 47.1253422,21.5379089 36.0124778,28.8 L32.1828243,28.8 Z" id="Path-26" fill="#75BE9E"></path>
                        </g>
                        <g id="Rectangle-14" transform="translate(369.991379, 27.692308)">
                            <mask id="mask-2" fill="white">
                                <use xlink:href="#path-1"></use>
                            </mask>
                            <use id="Mask" fill="#72BBB4" fill-rule="nonzero" xlink:href="#path-1"></use>
                            <path d="M38.2176724,209.907692 L82.5280172,182.215385" id="Line" stroke="#5BA9B3" stroke-linecap="square" fill-rule="nonzero" mask="url(#mask-2)"></path>
                            <path d="M51.5107759,64.8 L76.9892241,64.8" id="Line-Copy" stroke="#5BA9B3" stroke-linecap="square" fill-rule="nonzero" mask="url(#mask-2)"></path>
                            <path d="M62.5883621,194.4 L91.3900862,133.476923" id="Line-2" stroke="#5BA9B3" stroke-linecap="square" fill-rule="nonzero" mask="url(#mask-2)"></path>
                            <path d="M36.0021552,94.7076923 L61.4806034,41.5384615" id="Line-2-Copy" stroke="#5BA9B3" stroke-linecap="square" fill-rule="nonzero" mask="url(#mask-2)"></path>
                            <rect fill="#80C7A7" fill-rule="nonzero" mask="url(#mask-2)" x="-14.4008621" y="-7.75384615" width="54.2801724" height="252.553846"></rect>
                            <path d="M23.8168103,68.1230769 L39.325431,32.6769231" id="Line-2-Copy" stroke="#5BA9B3" stroke-linecap="round" fill-rule="nonzero" mask="url(#mask-2)" transform="translate(31.571121, 50.400000) scale(-1, 1) translate(-31.571121, -50.400000) "></path>
                            <path d="M-7.20043103,154.523077 L39.325431,106.892308" id="Line-2-Copy-5" stroke="#5BA9B3" stroke-linecap="round" fill-rule="nonzero" mask="url(#mask-2)" transform="translate(16.062500, 130.707692) scale(-1, 1) translate(-16.062500, -130.707692) "></path>
                        </g>
                        <rect id="Rectangle-16" fill="#74BCA7" fill-rule="nonzero" x="301.310345" y="269.169231" width="212.689655" height="28.8" rx="13"></rect>
                        <path d="M408.160623,297.969231 L405.066985,297.969231 C396.089885,292.090395 392.758905,288.18667 395.074046,286.258056 C397.389187,284.329441 401.275525,287.380539 406.733061,295.41135 C407.684769,283.088849 409.327564,277.764676 411.661446,279.438833 C413.995329,281.11299 413.400584,285.820454 409.877213,293.561225 C415.712211,285.250242 419.003072,282.815852 419.749797,286.258056 C420.496523,289.700259 416.633465,293.603984 408.160623,297.969231 Z" id="Path-26" fill="#82CBB5" fill-rule="nonzero"></path>
                        <g id="Group-19" transform="translate(130.161638, 239.261538) scale(-1, 1) translate(-130.161638, -239.261538) translate(103.021552, 209.353846)">
                            <g transform="translate(-16.530612, -1.111111)">
                                <g id="Group-18" transform="translate(23.142857, 22.222222)" fill-rule="nonzero">
                                    <path d="M17.2517128,38.8888889 C29.8118566,26.6697369 38.7314067,16.1474201 44.0103631,7.32193843 C51.9287976,-5.91628408 38.6949691,1.5524442 23.4227153,14.3865903 C13.2412128,22.9426878 5.433641,31.1101206 0,38.8888889 L17.2517128,38.8888889 Z" id="Path-7" fill="url(#linearGradient-3)"></path>
                                    <path d="M9.7948839,37.9216661 C26.8816683,19.5714618 38.7900239,7.39966312 45.5199507,1.40626996" id="Path-8" stroke="#226D86" stroke-linecap="round"></path>
                                </g>
                                <path d="M39.215236,61.1111111 L27.5510204,61.001406 C29.5177928,45.2885826 33.0913114,37.91691 38.4964194,26.9619984 C48.4658339,6.75628685 52.8738931,-5.19068587 53.1145808,10.1379015 C53.2750392,20.3569598 45.3054648,38.0134239 39.215236,61.1111111 Z" id="Path-7" fill="url(#linearGradient-3)" fill-rule="nonzero"></path>
                                <path d="M22.6171587,49.4566147 C41.7554965,33.6185487 54.6896289,22.7028191 61.4195557,16.7094259" id="Path-8" stroke="#226D86" stroke-linecap="round" fill-rule="nonzero" transform="translate(42.018357, 33.083020) rotate(-31.000000) translate(-42.018357, -33.083020) "></path>
                                <path d="M27.0804569,61.1575238 L16.5306122,61.1575238 C18.4973846,45.4447005 17.860047,41.0674937 21.7335734,25.4865309 C27.092787,3.9295048 34.4316561,-7.11422555 34.6723438,8.21436183 C34.8328022,18.4334201 33.1706857,38.0598366 27.0804569,61.1575238 Z" id="Path-7-Copy" fill="url(#linearGradient-3)" fill-rule="nonzero"></path>
                                <path d="M8.94190669,50.5630643 C26.6812727,28.6924555 38.9159191,14.7604545 45.645846,8.76706132" id="Path-8-Copy" stroke="#226D86" stroke-linecap="round" fill-rule="nonzero" transform="translate(27.293876, 29.665063) rotate(-31.000000) translate(-27.293876, -29.665063) "></path>
                            </g>
                        </g>
                        <g id="分组" transform="translate(146.224138, 0.000000)">
                            <g id="Group">
                                <path d="M18.359375,240.073615 L18.359375,96.818508 L42.6697582,74.212512 L42.6697582,57.1428094 L61.0264372,57.1428094 L61.0310133,57.1385542 L61.0310133,230.544809 L18.359375,269.36747 L18.359375,269.370912 L9.9475983e-14,269.370912 L9.9475983e-14,240.073615 L18.359375,240.073615 Z M192.344866,57.1539017 L235,96.818508 L235,269.36747 L235,269.398589 L216.640625,269.398589 L216.640625,252.664109 L192.328362,230.544809 L192.328362,81.5619233 L173.985491,81.5619233 L173.985491,57.1475089 L192.328362,57.1475089 L192.337992,57.1475089 L192.344866,57.1475089 L192.344866,57.1539017 Z M139.53125,253.529556 L127.500296,242.063748 L97.1554256,270.983187 L97.1554256,271 L78.7960506,271 L78.7960506,246.585586 L97.1377841,246.585586 L97.1377841,168.150602 L157.862808,168.150602 L157.862808,246.585586 L157.890625,246.585586 L157.890625,271 L139.53125,271 L139.53125,253.529556 Z M108.932292,16.9225021 L108.932292,0 L127.291667,0 L127.291667,0.190140473 L127.500296,0 L157.862808,27.6717768 L157.862808,138.76506 L97.1377841,138.76506 L97.1377841,27.6717768 L108.932292,16.9225021 Z" id="Combined-Shape" fill="url(#linearGradient-4)"></path>
                                <path d="M109.140921,0 L139.503433,27.6717768 L139.503433,138.76506 L78.7784091,138.76506 L78.7784091,27.6717768 L109.140921,0 Z M78.7784091,168.150602 L139.503433,168.150602 L139.503433,271 L109.140921,242.063748 L78.7784091,271 L78.7784091,168.150602 Z M-1.27897692e-13,96.818508 L42.6716383,57.1385542 L42.6716383,230.544809 L-1.27897692e-13,269.36747 L-1.27897692e-13,96.818508 Z M173.968987,230.544809 L173.968987,57.1385542 L216.640625,96.818508 L216.640625,269.36747 L173.968987,230.544809 Z" id="Combined-Shape-Copy" fill="url(#linearGradient-5)"></path>
                            </g>
                        </g>
                        <path d="M150.056034,297.969231 L354.991379,297.969231 C363.275651,297.969231 369.991379,304.68496 369.991379,312.969231 L369.991379,316.2 C369.991379,324.484271 363.275651,331.2 354.991379,331.2 L150.056034,331.2 C158.340306,331.2 165.056034,324.484271 165.056034,316.2 L165.056034,312.969231 C165.056034,304.68496 158.340306,297.969231 150.056034,297.969231 Z" id="Combined-Shape" fill="#82C6A8" fill-rule="nonzero"></path>
                        <rect id="Rectangle" fill="#CCF6E3" fill-rule="nonzero" x="85.2974138" y="331.2" width="198.288793" height="44.3076923" rx="20"></rect>
                        <path d="M270.293103,331.025341 C276.005623,326.360147 282.906168,324.02755 290.994738,324.02755 C303.127592,324.02755 305.2284,330.244401 315.555238,325.539934 C321.597587,322.787298 326.431015,315.692308 339.494733,315.692308 C352.611057,315.692308 354.071401,331.025341 352.041985,331.025341 C350.689042,331.025341 323.439414,331.025341 270.293103,331.025341 Z" id="Path-4" fill="#74BCA7" fill-rule="nonzero"></path>
                        <path d="M197.181034,331.025341 C202.893554,326.360147 209.794099,324.02755 217.882669,324.02755 C230.015523,324.02755 232.116331,330.244401 242.443169,325.539934 C248.485518,322.787298 253.318946,315.692308 266.382664,315.692308 C279.498989,315.692308 280.959332,331.025341 278.929916,331.025341 C277.576973,331.025341 250.327345,331.025341 197.181034,331.025341 Z" id="Path-4-Copy" fill="#74BCA7" fill-rule="nonzero"></path>
                        <g id="小草" transform="translate(107.452586, 307.938462)" fill-rule="nonzero">
                            <path d="M19.6476747,23.3024423 C27.4941547,17.1803456 31.0153235,12.1407824 30.2111814,8.18375253 C29.4070393,4.22672267 25.8858704,7.02552718 19.6476747,16.5801661 C24.6574713,6.83948801 25.3149055,1.39877155 21.6199775,0.258016704 C17.9250494,-0.882738144 15.9946533,1.7591738 15.8287892,8.18375253 C15.1384387,2.04423288 13.5231762,-0.597679067 10.9830016,0.258016704 C7.17273971,1.54156036 8.59465562,11.2357933 10.9830016,16.5801661 C6.73208007,9.2794511 3.34142361,6.99748868 0.811032205,9.73427881 C-1.7193592,12.4710689 1.67129726,16.9937901 10.9830016,23.3024423 L19.6476747,23.3024423 Z" id="Path-5" fill="#82C6A8"></path>
                            <path d="M19.9383069,5.53846154 C18.4621943,10.8365958 17.7241379,15.7391922 17.7241379,20.2462506 C21.0780245,18.6732479 23.8721166,16.4797965 26.1064144,13.6658965" id="Path-6" stroke="#72BBB4" stroke-linecap="round"></path>
                            <path d="M4.24225448,4.44145724 C3.67600277,10.4709277 3.39287692,15.7391922 3.39287692,20.2462506 C7.43886849,17.7918862 10.5790132,15.1577539 12.8133109,12.3438539" id="Path-6-Copy" stroke="#72BBB4" stroke-linecap="round" transform="translate(8.103094, 12.343854) scale(-1, 1) translate(-8.103094, -12.343854) "></path>
                        </g>
                        <g id="Group-26" transform="translate(234.844828, 238.153846)" fill-rule="nonzero">
                            <g id="Group-25" transform="translate(12.185345, 49.846154)">
                                <rect id="Rectangle-44" fill="url(#linearGradient-6)" x="0" y="0" width="40.987069" height="9.96923077"></rect>
                                <path d="M1.10775862,0 L2.21551724,0 L2.21551724,9.96923077 L1.10775862,9.96923077 L1.10775862,0 Z M3.32327586,0 L4.43103448,0 L4.43103448,9.96923077 L3.32327586,9.96923077 L3.32327586,0 Z M5.5387931,0 L6.64655172,0 L6.64655172,9.96923077 L5.5387931,9.96923077 L5.5387931,0 Z M7.75431034,0 L8.86206897,0 L8.86206897,9.96923077 L7.75431034,9.96923077 L7.75431034,0 Z M9.96982759,0 L11.0775862,0 L11.0775862,9.96923077 L9.96982759,9.96923077 L9.96982759,0 Z M12.1853448,0 L13.2931034,0 L13.2931034,9.96923077 L12.1853448,9.96923077 L12.1853448,0 Z M14.4008621,0 L15.5086207,0 L15.5086207,9.96923077 L14.4008621,9.96923077 L14.4008621,0 Z M16.6163793,0 L17.7241379,0 L17.7241379,9.96923077 L16.6163793,9.96923077 L16.6163793,0 Z M18.8318966,0 L19.9396552,0 L19.9396552,9.96923077 L18.8318966,9.96923077 L18.8318966,0 Z M21.0474138,0 L22.1551724,0 L22.1551724,9.96923077 L21.0474138,9.96923077 L21.0474138,0 Z M23.262931,0 L24.3706897,0 L24.3706897,9.96923077 L23.262931,9.96923077 L23.262931,0 Z M25.4784483,0 L26.5862069,0 L26.5862069,9.96923077 L25.4784483,9.96923077 L25.4784483,0 Z M27.6939655,0 L28.8017241,0 L28.8017241,9.96923077 L27.6939655,9.96923077 L27.6939655,0 Z M29.9094828,0 L31.0172414,0 L31.0172414,9.96923077 L29.9094828,9.96923077 L29.9094828,0 Z M32.125,0 L33.2327586,0 L33.2327586,9.96923077 L32.125,9.96923077 L32.125,0 Z M34.3405172,0 L35.4482759,0 L35.4482759,9.96923077 L34.3405172,9.96923077 L34.3405172,0 Z M36.5560345,0 L37.6637931,0 L37.6637931,9.96923077 L36.5560345,9.96923077 L36.5560345,0 Z M38.7715517,0 L39.8793103,0 L39.8793103,9.96923077 L38.7715517,9.96923077 L38.7715517,0 Z" id="Combined-Shape" fill="url(#linearGradient-7)"></path>
                                <rect id="Rectangle-44-Copy" fill="url(#linearGradient-8)" x="0" y="0" width="40.987069" height="1.10769231"></rect>
                            </g>
                            <g id="Group-25-Copy-7" transform="translate(54.280172, 49.846154)">
                                <rect id="Rectangle-44" fill="url(#linearGradient-6)" x="0" y="0" width="40.987069" height="9.96923077"></rect>
                                <path d="M1.10775862,0 L2.21551724,0 L2.21551724,9.96923077 L1.10775862,9.96923077 L1.10775862,0 Z M3.32327586,0 L4.43103448,0 L4.43103448,9.96923077 L3.32327586,9.96923077 L3.32327586,0 Z M5.5387931,0 L6.64655172,0 L6.64655172,9.96923077 L5.5387931,9.96923077 L5.5387931,0 Z M7.75431034,0 L8.86206897,0 L8.86206897,9.96923077 L7.75431034,9.96923077 L7.75431034,0 Z M9.96982759,0 L11.0775862,0 L11.0775862,9.96923077 L9.96982759,9.96923077 L9.96982759,0 Z M12.1853448,0 L13.2931034,0 L13.2931034,9.96923077 L12.1853448,9.96923077 L12.1853448,0 Z M14.4008621,0 L15.5086207,0 L15.5086207,9.96923077 L14.4008621,9.96923077 L14.4008621,0 Z M16.6163793,0 L17.7241379,0 L17.7241379,9.96923077 L16.6163793,9.96923077 L16.6163793,0 Z M18.8318966,0 L19.9396552,0 L19.9396552,9.96923077 L18.8318966,9.96923077 L18.8318966,0 Z M21.0474138,0 L22.1551724,0 L22.1551724,9.96923077 L21.0474138,9.96923077 L21.0474138,0 Z M23.262931,0 L24.3706897,0 L24.3706897,9.96923077 L23.262931,9.96923077 L23.262931,0 Z M25.4784483,0 L26.5862069,0 L26.5862069,9.96923077 L25.4784483,9.96923077 L25.4784483,0 Z M27.6939655,0 L28.8017241,0 L28.8017241,9.96923077 L27.6939655,9.96923077 L27.6939655,0 Z M29.9094828,0 L31.0172414,0 L31.0172414,9.96923077 L29.9094828,9.96923077 L29.9094828,0 Z M32.125,0 L33.2327586,0 L33.2327586,9.96923077 L32.125,9.96923077 L32.125,0 Z M34.3405172,0 L35.4482759,0 L35.4482759,9.96923077 L34.3405172,9.96923077 L34.3405172,0 Z M36.5560345,0 L37.6637931,0 L37.6637931,9.96923077 L36.5560345,9.96923077 L36.5560345,0 Z M38.7715517,0 L39.8793103,0 L39.8793103,9.96923077 L38.7715517,9.96923077 L38.7715517,0 Z" id="Combined-Shape" fill="url(#linearGradient-7)"></path>
                                <rect id="Rectangle-44-Copy" fill="url(#linearGradient-8)" x="0" y="0" width="40.987069" height="1.10769231"></rect>
                            </g>
                            <g id="Group-25-Copy" transform="translate(6.646552, 39.876923)">
                                <rect id="Rectangle-44" fill="url(#linearGradient-6)" x="0" y="0" width="40.987069" height="9.96923077"></rect>
                                <path d="M1.10775862,0 L2.21551724,0 L2.21551724,9.96923077 L1.10775862,9.96923077 L1.10775862,0 Z M3.32327586,0 L4.43103448,0 L4.43103448,9.96923077 L3.32327586,9.96923077 L3.32327586,0 Z M5.5387931,0 L6.64655172,0 L6.64655172,9.96923077 L5.5387931,9.96923077 L5.5387931,0 Z M7.75431034,0 L8.86206897,0 L8.86206897,9.96923077 L7.75431034,9.96923077 L7.75431034,0 Z M9.96982759,0 L11.0775862,0 L11.0775862,9.96923077 L9.96982759,9.96923077 L9.96982759,0 Z M12.1853448,0 L13.2931034,0 L13.2931034,9.96923077 L12.1853448,9.96923077 L12.1853448,0 Z M14.4008621,0 L15.5086207,0 L15.5086207,9.96923077 L14.4008621,9.96923077 L14.4008621,0 Z M16.6163793,0 L17.7241379,0 L17.7241379,9.96923077 L16.6163793,9.96923077 L16.6163793,0 Z M18.8318966,0 L19.9396552,0 L19.9396552,9.96923077 L18.8318966,9.96923077 L18.8318966,0 Z M21.0474138,0 L22.1551724,0 L22.1551724,9.96923077 L21.0474138,9.96923077 L21.0474138,0 Z M23.262931,0 L24.3706897,0 L24.3706897,9.96923077 L23.262931,9.96923077 L23.262931,0 Z M25.4784483,0 L26.5862069,0 L26.5862069,9.96923077 L25.4784483,9.96923077 L25.4784483,0 Z M27.6939655,0 L28.8017241,0 L28.8017241,9.96923077 L27.6939655,9.96923077 L27.6939655,0 Z M29.9094828,0 L31.0172414,0 L31.0172414,9.96923077 L29.9094828,9.96923077 L29.9094828,0 Z M32.125,0 L33.2327586,0 L33.2327586,9.96923077 L32.125,9.96923077 L32.125,0 Z M34.3405172,0 L35.4482759,0 L35.4482759,9.96923077 L34.3405172,9.96923077 L34.3405172,0 Z M36.5560345,0 L37.6637931,0 L37.6637931,9.96923077 L36.5560345,9.96923077 L36.5560345,0 Z M38.7715517,0 L39.8793103,0 L39.8793103,9.96923077 L38.7715517,9.96923077 L38.7715517,0 Z" id="Combined-Shape" fill="url(#linearGradient-7)"></path>
                                <rect id="Rectangle-44-Copy" fill="url(#linearGradient-8)" x="0" y="0" width="40.987069" height="1.10769231"></rect>
                            </g>
                            <g id="Group-25-Copy-6" transform="translate(59.818966, 39.876923)">
                                <rect id="Rectangle-44" fill="url(#linearGradient-6)" x="0" y="0" width="40.987069" height="9.96923077"></rect>
                                <path d="M1.10775862,0 L2.21551724,0 L2.21551724,9.96923077 L1.10775862,9.96923077 L1.10775862,0 Z M3.32327586,0 L4.43103448,0 L4.43103448,9.96923077 L3.32327586,9.96923077 L3.32327586,0 Z M5.5387931,0 L6.64655172,0 L6.64655172,9.96923077 L5.5387931,9.96923077 L5.5387931,0 Z M7.75431034,0 L8.86206897,0 L8.86206897,9.96923077 L7.75431034,9.96923077 L7.75431034,0 Z M9.96982759,0 L11.0775862,0 L11.0775862,9.96923077 L9.96982759,9.96923077 L9.96982759,0 Z M12.1853448,0 L13.2931034,0 L13.2931034,9.96923077 L12.1853448,9.96923077 L12.1853448,0 Z M14.4008621,0 L15.5086207,0 L15.5086207,9.96923077 L14.4008621,9.96923077 L14.4008621,0 Z M16.6163793,0 L17.7241379,0 L17.7241379,9.96923077 L16.6163793,9.96923077 L16.6163793,0 Z M18.8318966,0 L19.9396552,0 L19.9396552,9.96923077 L18.8318966,9.96923077 L18.8318966,0 Z M21.0474138,0 L22.1551724,0 L22.1551724,9.96923077 L21.0474138,9.96923077 L21.0474138,0 Z M23.262931,0 L24.3706897,0 L24.3706897,9.96923077 L23.262931,9.96923077 L23.262931,0 Z M25.4784483,0 L26.5862069,0 L26.5862069,9.96923077 L25.4784483,9.96923077 L25.4784483,0 Z M27.6939655,0 L28.8017241,0 L28.8017241,9.96923077 L27.6939655,9.96923077 L27.6939655,0 Z M29.9094828,0 L31.0172414,0 L31.0172414,9.96923077 L29.9094828,9.96923077 L29.9094828,0 Z M32.125,0 L33.2327586,0 L33.2327586,9.96923077 L32.125,9.96923077 L32.125,0 Z M34.3405172,0 L35.4482759,0 L35.4482759,9.96923077 L34.3405172,9.96923077 L34.3405172,0 Z M36.5560345,0 L37.6637931,0 L37.6637931,9.96923077 L36.5560345,9.96923077 L36.5560345,0 Z M38.7715517,0 L39.8793103,0 L39.8793103,9.96923077 L38.7715517,9.96923077 L38.7715517,0 Z" id="Combined-Shape" fill="url(#linearGradient-7)"></path>
                                <rect id="Rectangle-44-Copy" fill="url(#linearGradient-8)" x="0" y="0" width="40.987069" height="1.10769231"></rect>
                            </g>
                            <g id="Group-25-Copy-2" transform="translate(0.000000, 29.907692)">
                                <rect id="Rectangle-44" fill="url(#linearGradient-6)" x="0" y="0" width="40.987069" height="9.96923077"></rect>
                                <path d="M1.10775862,0 L2.21551724,0 L2.21551724,9.96923077 L1.10775862,9.96923077 L1.10775862,0 Z M3.32327586,0 L4.43103448,0 L4.43103448,9.96923077 L3.32327586,9.96923077 L3.32327586,0 Z M5.5387931,0 L6.64655172,0 L6.64655172,9.96923077 L5.5387931,9.96923077 L5.5387931,0 Z M7.75431034,0 L8.86206897,0 L8.86206897,9.96923077 L7.75431034,9.96923077 L7.75431034,0 Z M9.96982759,0 L11.0775862,0 L11.0775862,9.96923077 L9.96982759,9.96923077 L9.96982759,0 Z M12.1853448,0 L13.2931034,0 L13.2931034,9.96923077 L12.1853448,9.96923077 L12.1853448,0 Z M14.4008621,0 L15.5086207,0 L15.5086207,9.96923077 L14.4008621,9.96923077 L14.4008621,0 Z M16.6163793,0 L17.7241379,0 L17.7241379,9.96923077 L16.6163793,9.96923077 L16.6163793,0 Z M18.8318966,0 L19.9396552,0 L19.9396552,9.96923077 L18.8318966,9.96923077 L18.8318966,0 Z M21.0474138,0 L22.1551724,0 L22.1551724,9.96923077 L21.0474138,9.96923077 L21.0474138,0 Z M23.262931,0 L24.3706897,0 L24.3706897,9.96923077 L23.262931,9.96923077 L23.262931,0 Z M25.4784483,0 L26.5862069,0 L26.5862069,9.96923077 L25.4784483,9.96923077 L25.4784483,0 Z M27.6939655,0 L28.8017241,0 L28.8017241,9.96923077 L27.6939655,9.96923077 L27.6939655,0 Z M29.9094828,0 L31.0172414,0 L31.0172414,9.96923077 L29.9094828,9.96923077 L29.9094828,0 Z M32.125,0 L33.2327586,0 L33.2327586,9.96923077 L32.125,9.96923077 L32.125,0 Z M34.3405172,0 L35.4482759,0 L35.4482759,9.96923077 L34.3405172,9.96923077 L34.3405172,0 Z M36.5560345,0 L37.6637931,0 L37.6637931,9.96923077 L36.5560345,9.96923077 L36.5560345,0 Z M38.7715517,0 L39.8793103,0 L39.8793103,9.96923077 L38.7715517,9.96923077 L38.7715517,0 Z" id="Combined-Shape" fill="url(#linearGradient-7)"></path>
                                <rect id="Rectangle-44-Copy" fill="url(#linearGradient-8)" x="0" y="0" width="40.987069" height="1.10769231"></rect>
                            </g>
                            <g id="Group-25-Copy-9" transform="translate(45.418103, 29.907692)">
                                <rect id="Rectangle-44" fill="url(#linearGradient-6)" x="0" y="0" width="40.987069" height="9.96923077"></rect>
                                <path d="M1.10775862,0 L2.21551724,0 L2.21551724,9.96923077 L1.10775862,9.96923077 L1.10775862,0 Z M3.32327586,0 L4.43103448,0 L4.43103448,9.96923077 L3.32327586,9.96923077 L3.32327586,0 Z M5.5387931,0 L6.64655172,0 L6.64655172,9.96923077 L5.5387931,9.96923077 L5.5387931,0 Z M7.75431034,0 L8.86206897,0 L8.86206897,9.96923077 L7.75431034,9.96923077 L7.75431034,0 Z M9.96982759,0 L11.0775862,0 L11.0775862,9.96923077 L9.96982759,9.96923077 L9.96982759,0 Z M12.1853448,0 L13.2931034,0 L13.2931034,9.96923077 L12.1853448,9.96923077 L12.1853448,0 Z M14.4008621,0 L15.5086207,0 L15.5086207,9.96923077 L14.4008621,9.96923077 L14.4008621,0 Z M16.6163793,0 L17.7241379,0 L17.7241379,9.96923077 L16.6163793,9.96923077 L16.6163793,0 Z M18.8318966,0 L19.9396552,0 L19.9396552,9.96923077 L18.8318966,9.96923077 L18.8318966,0 Z M21.0474138,0 L22.1551724,0 L22.1551724,9.96923077 L21.0474138,9.96923077 L21.0474138,0 Z M23.262931,0 L24.3706897,0 L24.3706897,9.96923077 L23.262931,9.96923077 L23.262931,0 Z M25.4784483,0 L26.5862069,0 L26.5862069,9.96923077 L25.4784483,9.96923077 L25.4784483,0 Z M27.6939655,0 L28.8017241,0 L28.8017241,9.96923077 L27.6939655,9.96923077 L27.6939655,0 Z M29.9094828,0 L31.0172414,0 L31.0172414,9.96923077 L29.9094828,9.96923077 L29.9094828,0 Z M32.125,0 L33.2327586,0 L33.2327586,9.96923077 L32.125,9.96923077 L32.125,0 Z M34.3405172,0 L35.4482759,0 L35.4482759,9.96923077 L34.3405172,9.96923077 L34.3405172,0 Z M36.5560345,0 L37.6637931,0 L37.6637931,9.96923077 L36.5560345,9.96923077 L36.5560345,0 Z M38.7715517,0 L39.8793103,0 L39.8793103,9.96923077 L38.7715517,9.96923077 L38.7715517,0 Z" id="Combined-Shape" fill="url(#linearGradient-7)"></path>
                                <rect id="Rectangle-44-Copy" fill="url(#linearGradient-8)" x="0" y="0" width="40.987069" height="1.10769231"></rect>
                            </g>
                            <g id="Group-25-Copy-3" transform="translate(14.400862, 19.938462)">
                                <rect id="Rectangle-44" fill="url(#linearGradient-6)" x="0" y="0" width="40.987069" height="9.96923077"></rect>
                                <path d="M1.10775862,0 L2.21551724,0 L2.21551724,9.96923077 L1.10775862,9.96923077 L1.10775862,0 Z M3.32327586,0 L4.43103448,0 L4.43103448,9.96923077 L3.32327586,9.96923077 L3.32327586,0 Z M5.5387931,0 L6.64655172,0 L6.64655172,9.96923077 L5.5387931,9.96923077 L5.5387931,0 Z M7.75431034,0 L8.86206897,0 L8.86206897,9.96923077 L7.75431034,9.96923077 L7.75431034,0 Z M9.96982759,0 L11.0775862,0 L11.0775862,9.96923077 L9.96982759,9.96923077 L9.96982759,0 Z M12.1853448,0 L13.2931034,0 L13.2931034,9.96923077 L12.1853448,9.96923077 L12.1853448,0 Z M14.4008621,0 L15.5086207,0 L15.5086207,9.96923077 L14.4008621,9.96923077 L14.4008621,0 Z M16.6163793,0 L17.7241379,0 L17.7241379,9.96923077 L16.6163793,9.96923077 L16.6163793,0 Z M18.8318966,0 L19.9396552,0 L19.9396552,9.96923077 L18.8318966,9.96923077 L18.8318966,0 Z M21.0474138,0 L22.1551724,0 L22.1551724,9.96923077 L21.0474138,9.96923077 L21.0474138,0 Z M23.262931,0 L24.3706897,0 L24.3706897,9.96923077 L23.262931,9.96923077 L23.262931,0 Z M25.4784483,0 L26.5862069,0 L26.5862069,9.96923077 L25.4784483,9.96923077 L25.4784483,0 Z M27.6939655,0 L28.8017241,0 L28.8017241,9.96923077 L27.6939655,9.96923077 L27.6939655,0 Z M29.9094828,0 L31.0172414,0 L31.0172414,9.96923077 L29.9094828,9.96923077 L29.9094828,0 Z M32.125,0 L33.2327586,0 L33.2327586,9.96923077 L32.125,9.96923077 L32.125,0 Z M34.3405172,0 L35.4482759,0 L35.4482759,9.96923077 L34.3405172,9.96923077 L34.3405172,0 Z M36.5560345,0 L37.6637931,0 L37.6637931,9.96923077 L36.5560345,9.96923077 L36.5560345,0 Z M38.7715517,0 L39.8793103,0 L39.8793103,9.96923077 L38.7715517,9.96923077 L38.7715517,0 Z" id="Combined-Shape" fill="url(#linearGradient-7)"></path>
                                <rect id="Rectangle-44-Copy" fill="url(#linearGradient-8)" x="0" y="0" width="40.987069" height="1.10769231"></rect>
                            </g>
                            <g id="Group-25-Copy-8" transform="translate(57.603448, 19.938462)">
                                <rect id="Rectangle-44" fill="url(#linearGradient-6)" x="0" y="0" width="40.987069" height="9.96923077"></rect>
                                <path d="M1.10775862,0 L2.21551724,0 L2.21551724,9.96923077 L1.10775862,9.96923077 L1.10775862,0 Z M3.32327586,0 L4.43103448,0 L4.43103448,9.96923077 L3.32327586,9.96923077 L3.32327586,0 Z M5.5387931,0 L6.64655172,0 L6.64655172,9.96923077 L5.5387931,9.96923077 L5.5387931,0 Z M7.75431034,0 L8.86206897,0 L8.86206897,9.96923077 L7.75431034,9.96923077 L7.75431034,0 Z M9.96982759,0 L11.0775862,0 L11.0775862,9.96923077 L9.96982759,9.96923077 L9.96982759,0 Z M12.1853448,0 L13.2931034,0 L13.2931034,9.96923077 L12.1853448,9.96923077 L12.1853448,0 Z M14.4008621,0 L15.5086207,0 L15.5086207,9.96923077 L14.4008621,9.96923077 L14.4008621,0 Z M16.6163793,0 L17.7241379,0 L17.7241379,9.96923077 L16.6163793,9.96923077 L16.6163793,0 Z M18.8318966,0 L19.9396552,0 L19.9396552,9.96923077 L18.8318966,9.96923077 L18.8318966,0 Z M21.0474138,0 L22.1551724,0 L22.1551724,9.96923077 L21.0474138,9.96923077 L21.0474138,0 Z M23.262931,0 L24.3706897,0 L24.3706897,9.96923077 L23.262931,9.96923077 L23.262931,0 Z M25.4784483,0 L26.5862069,0 L26.5862069,9.96923077 L25.4784483,9.96923077 L25.4784483,0 Z M27.6939655,0 L28.8017241,0 L28.8017241,9.96923077 L27.6939655,9.96923077 L27.6939655,0 Z M29.9094828,0 L31.0172414,0 L31.0172414,9.96923077 L29.9094828,9.96923077 L29.9094828,0 Z M32.125,0 L33.2327586,0 L33.2327586,9.96923077 L32.125,9.96923077 L32.125,0 Z M34.3405172,0 L35.4482759,0 L35.4482759,9.96923077 L34.3405172,9.96923077 L34.3405172,0 Z M36.5560345,0 L37.6637931,0 L37.6637931,9.96923077 L36.5560345,9.96923077 L36.5560345,0 Z M38.7715517,0 L39.8793103,0 L39.8793103,9.96923077 L38.7715517,9.96923077 L38.7715517,0 Z" id="Combined-Shape" fill="url(#linearGradient-7)"></path>
                                <rect id="Rectangle-44-Copy" fill="url(#linearGradient-8)" x="0" y="0" width="40.987069" height="1.10769231"></rect>
                            </g>
                            <g id="Group-25-Copy-4" transform="translate(9.969828, 9.969231)">
                                <rect id="Rectangle-44" fill="url(#linearGradient-6)" x="0" y="0" width="40.987069" height="9.96923077"></rect>
                                <path d="M1.10775862,0 L2.21551724,0 L2.21551724,9.96923077 L1.10775862,9.96923077 L1.10775862,0 Z M3.32327586,0 L4.43103448,0 L4.43103448,9.96923077 L3.32327586,9.96923077 L3.32327586,0 Z M5.5387931,0 L6.64655172,0 L6.64655172,9.96923077 L5.5387931,9.96923077 L5.5387931,0 Z M7.75431034,0 L8.86206897,0 L8.86206897,9.96923077 L7.75431034,9.96923077 L7.75431034,0 Z M9.96982759,0 L11.0775862,0 L11.0775862,9.96923077 L9.96982759,9.96923077 L9.96982759,0 Z M12.1853448,0 L13.2931034,0 L13.2931034,9.96923077 L12.1853448,9.96923077 L12.1853448,0 Z M14.4008621,0 L15.5086207,0 L15.5086207,9.96923077 L14.4008621,9.96923077 L14.4008621,0 Z M16.6163793,0 L17.7241379,0 L17.7241379,9.96923077 L16.6163793,9.96923077 L16.6163793,0 Z M18.8318966,0 L19.9396552,0 L19.9396552,9.96923077 L18.8318966,9.96923077 L18.8318966,0 Z M21.0474138,0 L22.1551724,0 L22.1551724,9.96923077 L21.0474138,9.96923077 L21.0474138,0 Z M23.262931,0 L24.3706897,0 L24.3706897,9.96923077 L23.262931,9.96923077 L23.262931,0 Z M25.4784483,0 L26.5862069,0 L26.5862069,9.96923077 L25.4784483,9.96923077 L25.4784483,0 Z M27.6939655,0 L28.8017241,0 L28.8017241,9.96923077 L27.6939655,9.96923077 L27.6939655,0 Z M29.9094828,0 L31.0172414,0 L31.0172414,9.96923077 L29.9094828,9.96923077 L29.9094828,0 Z M32.125,0 L33.2327586,0 L33.2327586,9.96923077 L32.125,9.96923077 L32.125,0 Z M34.3405172,0 L35.4482759,0 L35.4482759,9.96923077 L34.3405172,9.96923077 L34.3405172,0 Z M36.5560345,0 L37.6637931,0 L37.6637931,9.96923077 L36.5560345,9.96923077 L36.5560345,0 Z M38.7715517,0 L39.8793103,0 L39.8793103,9.96923077 L38.7715517,9.96923077 L38.7715517,0 Z" id="Combined-Shape" fill="url(#linearGradient-7)"></path>
                                <rect id="Rectangle-44-Copy" fill="url(#linearGradient-8)" x="0" y="0" width="40.987069" height="1.10769231"></rect>
                            </g>
                            <g id="Group-25-Copy-5" transform="translate(31.017241, 0.000000)">
                                <rect id="Rectangle-44" fill="url(#linearGradient-6)" x="0" y="0" width="40.987069" height="9.96923077"></rect>
                                <path d="M1.10775862,0 L2.21551724,0 L2.21551724,9.96923077 L1.10775862,9.96923077 L1.10775862,0 Z M3.32327586,0 L4.43103448,0 L4.43103448,9.96923077 L3.32327586,9.96923077 L3.32327586,0 Z M5.5387931,0 L6.64655172,0 L6.64655172,9.96923077 L5.5387931,9.96923077 L5.5387931,0 Z M7.75431034,0 L8.86206897,0 L8.86206897,9.96923077 L7.75431034,9.96923077 L7.75431034,0 Z M9.96982759,0 L11.0775862,0 L11.0775862,9.96923077 L9.96982759,9.96923077 L9.96982759,0 Z M12.1853448,0 L13.2931034,0 L13.2931034,9.96923077 L12.1853448,9.96923077 L12.1853448,0 Z M14.4008621,0 L15.5086207,0 L15.5086207,9.96923077 L14.4008621,9.96923077 L14.4008621,0 Z M16.6163793,0 L17.7241379,0 L17.7241379,9.96923077 L16.6163793,9.96923077 L16.6163793,0 Z M18.8318966,0 L19.9396552,0 L19.9396552,9.96923077 L18.8318966,9.96923077 L18.8318966,0 Z M21.0474138,0 L22.1551724,0 L22.1551724,9.96923077 L21.0474138,9.96923077 L21.0474138,0 Z M23.262931,0 L24.3706897,0 L24.3706897,9.96923077 L23.262931,9.96923077 L23.262931,0 Z M25.4784483,0 L26.5862069,0 L26.5862069,9.96923077 L25.4784483,9.96923077 L25.4784483,0 Z M27.6939655,0 L28.8017241,0 L28.8017241,9.96923077 L27.6939655,9.96923077 L27.6939655,0 Z M29.9094828,0 L31.0172414,0 L31.0172414,9.96923077 L29.9094828,9.96923077 L29.9094828,0 Z M32.125,0 L33.2327586,0 L33.2327586,9.96923077 L32.125,9.96923077 L32.125,0 Z M34.3405172,0 L35.4482759,0 L35.4482759,9.96923077 L34.3405172,9.96923077 L34.3405172,0 Z M36.5560345,0 L37.6637931,0 L37.6637931,9.96923077 L36.5560345,9.96923077 L36.5560345,0 Z M38.7715517,0 L39.8793103,0 L39.8793103,9.96923077 L38.7715517,9.96923077 L38.7715517,0 Z" id="Combined-Shape" fill="url(#linearGradient-7)"></path>
                                <rect id="Rectangle-44-Copy" fill="url(#linearGradient-8)" x="0" y="0" width="40.987069" height="1.10769231"></rect>
                            </g>
                        </g>
                        <g id="con" transform="translate(78.650862, 263.630769)">
                            <g id="Group-25-Copy-10">
                                <rect id="Rectangle-44" fill="url(#linearGradient-6)" fill-rule="nonzero" x="0" y="0" width="23" height="6"></rect>
                                <path d="M0.621621622,0 L1.24324324,0 L1.24324324,6 L0.621621622,6 L0.621621622,0 Z M1.86486486,0 L2.48648649,0 L2.48648649,6 L1.86486486,6 L1.86486486,0 Z M3.10810811,0 L3.72972973,0 L3.72972973,6 L3.10810811,6 L3.10810811,0 Z M4.35135135,0 L4.97297297,0 L4.97297297,6 L4.35135135,6 L4.35135135,0 Z M5.59459459,0 L6.21621622,0 L6.21621622,6 L5.59459459,6 L5.59459459,0 Z M6.83783784,0 L7.45945946,0 L7.45945946,6 L6.83783784,6 L6.83783784,0 Z M8.08108108,0 L8.7027027,0 L8.7027027,6 L8.08108108,6 L8.08108108,0 Z M9.32432432,0 L9.94594595,0 L9.94594595,6 L9.32432432,6 L9.32432432,0 Z M10.5675676,0 L11.1891892,0 L11.1891892,6 L10.5675676,6 L10.5675676,0 Z M11.8108108,0 L12.4324324,0 L12.4324324,6 L11.8108108,6 L11.8108108,0 Z M13.0540541,0 L13.6756757,0 L13.6756757,6 L13.0540541,6 L13.0540541,0 Z M14.2972973,0 L14.9189189,0 L14.9189189,6 L14.2972973,6 L14.2972973,0 Z M15.5405405,0 L16.1621622,0 L16.1621622,6 L15.5405405,6 L15.5405405,0 Z M16.7837838,0 L17.4054054,0 L17.4054054,6 L16.7837838,6 L16.7837838,0 Z M18.027027,0 L18.6486486,0 L18.6486486,6 L18.027027,6 L18.027027,0 Z M19.2702703,0 L19.8918919,0 L19.8918919,6 L19.2702703,6 L19.2702703,0 Z M20.5135135,0 L21.1351351,0 L21.1351351,6 L20.5135135,6 L20.5135135,0 Z M21.7567568,0 L22.3783784,0 L22.3783784,6 L21.7567568,6 L21.7567568,0 Z" id="Combined-Shape" fill="url(#linearGradient-7)" fill-rule="nonzero"></path>
                                <rect id="Rectangle-44-Copy" fill="url(#linearGradient-8)" fill-rule="nonzero" x="0" y="0" width="23" height="1"></rect>
                            </g>
                        </g>
                        <g id="con" transform="translate(85.297414, 258.092308)">
                            <g id="Group-25-Copy-10">
                                <rect id="Rectangle-44" fill="url(#linearGradient-6)" fill-rule="nonzero" x="0" y="0" width="23" height="6"></rect>
                                <path d="M0.621621622,0 L1.24324324,0 L1.24324324,6 L0.621621622,6 L0.621621622,0 Z M1.86486486,0 L2.48648649,0 L2.48648649,6 L1.86486486,6 L1.86486486,0 Z M3.10810811,0 L3.72972973,0 L3.72972973,6 L3.10810811,6 L3.10810811,0 Z M4.35135135,0 L4.97297297,0 L4.97297297,6 L4.35135135,6 L4.35135135,0 Z M5.59459459,0 L6.21621622,0 L6.21621622,6 L5.59459459,6 L5.59459459,0 Z M6.83783784,0 L7.45945946,0 L7.45945946,6 L6.83783784,6 L6.83783784,0 Z M8.08108108,0 L8.7027027,0 L8.7027027,6 L8.08108108,6 L8.08108108,0 Z M9.32432432,0 L9.94594595,0 L9.94594595,6 L9.32432432,6 L9.32432432,0 Z M10.5675676,0 L11.1891892,0 L11.1891892,6 L10.5675676,6 L10.5675676,0 Z M11.8108108,0 L12.4324324,0 L12.4324324,6 L11.8108108,6 L11.8108108,0 Z M13.0540541,0 L13.6756757,0 L13.6756757,6 L13.0540541,6 L13.0540541,0 Z M14.2972973,0 L14.9189189,0 L14.9189189,6 L14.2972973,6 L14.2972973,0 Z M15.5405405,0 L16.1621622,0 L16.1621622,6 L15.5405405,6 L15.5405405,0 Z M16.7837838,0 L17.4054054,0 L17.4054054,6 L16.7837838,6 L16.7837838,0 Z M18.027027,0 L18.6486486,0 L18.6486486,6 L18.027027,6 L18.027027,0 Z M19.2702703,0 L19.8918919,0 L19.8918919,6 L19.2702703,6 L19.2702703,0 Z M20.5135135,0 L21.1351351,0 L21.1351351,6 L20.5135135,6 L20.5135135,0 Z M21.7567568,0 L22.3783784,0 L22.3783784,6 L21.7567568,6 L21.7567568,0 Z" id="Combined-Shape" fill="url(#linearGradient-7)" fill-rule="nonzero"></path>
                                <rect id="Rectangle-44-Copy" fill="url(#linearGradient-8)" fill-rule="nonzero" x="0" y="0" width="23" height="1"></rect>
                            </g>
                        </g>
                        <g id="con" transform="translate(83.081897, 252.553846)">
                            <g id="Group-25-Copy-10">
                                <rect id="Rectangle-44" fill="url(#linearGradient-6)" fill-rule="nonzero" x="0" y="0" width="23" height="6"></rect>
                                <path d="M0.621621622,0 L1.24324324,0 L1.24324324,6 L0.621621622,6 L0.621621622,0 Z M1.86486486,0 L2.48648649,0 L2.48648649,6 L1.86486486,6 L1.86486486,0 Z M3.10810811,0 L3.72972973,0 L3.72972973,6 L3.10810811,6 L3.10810811,0 Z M4.35135135,0 L4.97297297,0 L4.97297297,6 L4.35135135,6 L4.35135135,0 Z M5.59459459,0 L6.21621622,0 L6.21621622,6 L5.59459459,6 L5.59459459,0 Z M6.83783784,0 L7.45945946,0 L7.45945946,6 L6.83783784,6 L6.83783784,0 Z M8.08108108,0 L8.7027027,0 L8.7027027,6 L8.08108108,6 L8.08108108,0 Z M9.32432432,0 L9.94594595,0 L9.94594595,6 L9.32432432,6 L9.32432432,0 Z M10.5675676,0 L11.1891892,0 L11.1891892,6 L10.5675676,6 L10.5675676,0 Z M11.8108108,0 L12.4324324,0 L12.4324324,6 L11.8108108,6 L11.8108108,0 Z M13.0540541,0 L13.6756757,0 L13.6756757,6 L13.0540541,6 L13.0540541,0 Z M14.2972973,0 L14.9189189,0 L14.9189189,6 L14.2972973,6 L14.2972973,0 Z M15.5405405,0 L16.1621622,0 L16.1621622,6 L15.5405405,6 L15.5405405,0 Z M16.7837838,0 L17.4054054,0 L17.4054054,6 L16.7837838,6 L16.7837838,0 Z M18.027027,0 L18.6486486,0 L18.6486486,6 L18.027027,6 L18.027027,0 Z M19.2702703,0 L19.8918919,0 L19.8918919,6 L19.2702703,6 L19.2702703,0 Z M20.5135135,0 L21.1351351,0 L21.1351351,6 L20.5135135,6 L20.5135135,0 Z M21.7567568,0 L22.3783784,0 L22.3783784,6 L21.7567568,6 L21.7567568,0 Z" id="Combined-Shape" fill="url(#linearGradient-7)" fill-rule="nonzero"></path>
                                <rect id="Rectangle-44-Copy" fill="url(#linearGradient-8)" fill-rule="nonzero" x="0" y="0" width="23" height="1"></rect>
                            </g>
                        </g>
                        <g id="con" transform="translate(87.512931, 247.015385)">
                            <g id="Group-25-Copy-10">
                                <rect id="Rectangle-44" fill="url(#linearGradient-6)" fill-rule="nonzero" x="0" y="0" width="23" height="6"></rect>
                                <path d="M0.621621622,0 L1.24324324,0 L1.24324324,6 L0.621621622,6 L0.621621622,0 Z M1.86486486,0 L2.48648649,0 L2.48648649,6 L1.86486486,6 L1.86486486,0 Z M3.10810811,0 L3.72972973,0 L3.72972973,6 L3.10810811,6 L3.10810811,0 Z M4.35135135,0 L4.97297297,0 L4.97297297,6 L4.35135135,6 L4.35135135,0 Z M5.59459459,0 L6.21621622,0 L6.21621622,6 L5.59459459,6 L5.59459459,0 Z M6.83783784,0 L7.45945946,0 L7.45945946,6 L6.83783784,6 L6.83783784,0 Z M8.08108108,0 L8.7027027,0 L8.7027027,6 L8.08108108,6 L8.08108108,0 Z M9.32432432,0 L9.94594595,0 L9.94594595,6 L9.32432432,6 L9.32432432,0 Z M10.5675676,0 L11.1891892,0 L11.1891892,6 L10.5675676,6 L10.5675676,0 Z M11.8108108,0 L12.4324324,0 L12.4324324,6 L11.8108108,6 L11.8108108,0 Z M13.0540541,0 L13.6756757,0 L13.6756757,6 L13.0540541,6 L13.0540541,0 Z M14.2972973,0 L14.9189189,0 L14.9189189,6 L14.2972973,6 L14.2972973,0 Z M15.5405405,0 L16.1621622,0 L16.1621622,6 L15.5405405,6 L15.5405405,0 Z M16.7837838,0 L17.4054054,0 L17.4054054,6 L16.7837838,6 L16.7837838,0 Z M18.027027,0 L18.6486486,0 L18.6486486,6 L18.027027,6 L18.027027,0 Z M19.2702703,0 L19.8918919,0 L19.8918919,6 L19.2702703,6 L19.2702703,0 Z M20.5135135,0 L21.1351351,0 L21.1351351,6 L20.5135135,6 L20.5135135,0 Z M21.7567568,0 L22.3783784,0 L22.3783784,6 L21.7567568,6 L21.7567568,0 Z" id="Combined-Shape" fill="url(#linearGradient-7)" fill-rule="nonzero"></path>
                                <rect id="Rectangle-44-Copy" fill="url(#linearGradient-8)" fill-rule="nonzero" x="0" y="0" width="23" height="1"></rect>
                            </g>
                        </g>
                        <g id="con" transform="translate(77.543103, 241.476923)">
                            <g id="Group-25-Copy-10">
                                <rect id="Rectangle-44" fill="url(#linearGradient-6)" fill-rule="nonzero" x="0" y="0" width="23" height="6"></rect>
                                <path d="M0.621621622,0 L1.24324324,0 L1.24324324,6 L0.621621622,6 L0.621621622,0 Z M1.86486486,0 L2.48648649,0 L2.48648649,6 L1.86486486,6 L1.86486486,0 Z M3.10810811,0 L3.72972973,0 L3.72972973,6 L3.10810811,6 L3.10810811,0 Z M4.35135135,0 L4.97297297,0 L4.97297297,6 L4.35135135,6 L4.35135135,0 Z M5.59459459,0 L6.21621622,0 L6.21621622,6 L5.59459459,6 L5.59459459,0 Z M6.83783784,0 L7.45945946,0 L7.45945946,6 L6.83783784,6 L6.83783784,0 Z M8.08108108,0 L8.7027027,0 L8.7027027,6 L8.08108108,6 L8.08108108,0 Z M9.32432432,0 L9.94594595,0 L9.94594595,6 L9.32432432,6 L9.32432432,0 Z M10.5675676,0 L11.1891892,0 L11.1891892,6 L10.5675676,6 L10.5675676,0 Z M11.8108108,0 L12.4324324,0 L12.4324324,6 L11.8108108,6 L11.8108108,0 Z M13.0540541,0 L13.6756757,0 L13.6756757,6 L13.0540541,6 L13.0540541,0 Z M14.2972973,0 L14.9189189,0 L14.9189189,6 L14.2972973,6 L14.2972973,0 Z M15.5405405,0 L16.1621622,0 L16.1621622,6 L15.5405405,6 L15.5405405,0 Z M16.7837838,0 L17.4054054,0 L17.4054054,6 L16.7837838,6 L16.7837838,0 Z M18.027027,0 L18.6486486,0 L18.6486486,6 L18.027027,6 L18.027027,0 Z M19.2702703,0 L19.8918919,0 L19.8918919,6 L19.2702703,6 L19.2702703,0 Z M20.5135135,0 L21.1351351,0 L21.1351351,6 L20.5135135,6 L20.5135135,0 Z M21.7567568,0 L22.3783784,0 L22.3783784,6 L21.7567568,6 L21.7567568,0 Z" id="Combined-Shape" fill="url(#linearGradient-7)" fill-rule="nonzero"></path>
                                <rect id="Rectangle-44-Copy" fill="url(#linearGradient-8)" fill-rule="nonzero" x="0" y="0" width="23" height="1"></rect>
                            </g>
                        </g>
                    </g>
                    <g id="man" transform="translate(47.633621, 192.738462)">
                        <rect id="Rectangle-19" fill="#9D6D6E" fill-rule="nonzero" x="13.2931034" y="18.8307692" width="4.43103448" height="4.43076923"></rect>
                        <rect id="Rectangle-26" fill="#BD6FF3" fill-rule="nonzero" x="7.75431034" y="114.092308" width="4.43103448" height="6.64615385"></rect>
                        <rect id="Rectangle-26-Copy" fill="#BD6FF3" fill-rule="nonzero" x="19.9396552" y="114.092308" width="4.43103448" height="6.64615385"></rect>
                        <g id="衣服" transform="translate(0.000000, 21.046154)">
                            <path d="M1.62762209,30.4237275 L1.62762209,35.3937654 C1.30183922,37.4371985 1.13894778,38.7270273 1.13894778,39.2632517 C1.13894778,40.0675882 3.59258662,44.1044135 3.90220217,44.591677 C4.21181772,45.0789405 4.66261919,44.9459157 4.83280428,44.8351248 C5.00298937,44.7243338 4.98328445,44.0753374 4.63520957,43.3572757 C4.40315965,42.8785679 3.9524415,41.6867449 3.28305512,39.7818066 L4.0637621,37.9518071 C4.25585671,37.8112219 4.35190401,37.8112219 4.35190401,37.9518071 C4.35190401,38.0923923 4.15946396,38.693806 3.77458386,39.7560483 C3.74899246,40.1560775 3.86249465,40.4056809 4.11509041,40.5048587 C4.36768618,40.6040365 4.81291114,40.1148477 5.45076529,39.0372924 C5.91373257,38.1913634 6.1452162,37.5921106 6.1452162,37.2395341 C6.1452162,36.8869575 5.81949163,35.9048017 5.16804248,34.2930668 L4.85467282,30.3062959 L1.62762209,30.4237275 Z" id="Path-33" fill="#7D5152" fill-rule="nonzero" transform="translate(3.642082, 37.622973) rotate(3.000000) translate(-3.642082, -37.622973) "></path>
                            <g id="Rectangle-35-+-Rectangle-35-Copy-+-Rectangle-35-Copy-2-+-Rectangle-35-Copy-3-+-Rectangle-35-Copy-4-Mask" transform="translate(1.107759, 0.000000)">
                                <mask id="mask-10" fill="white">
                                    <use xlink:href="#path-9"></use>
                                </mask>
                                <use id="Mask" fill="#3FA2F7" fill-rule="nonzero" xlink:href="#path-9"></use>
                                <polygon id="Rectangle-35-Copy-4" fill="#4ED6FC" fill-rule="nonzero" mask="url(#mask-10)" points="3.32327586 3.32307692 14.1891795 7.66420411 14.1891795 31.0153846 4.43103448 31.0153846"></polygon>
                                <polygon id="Rectangle-35-Copy-5" fill="#51D7FC" fill-rule="nonzero" mask="url(#mask-10)" transform="translate(19.833814, 17.169231) scale(-1, 1) translate(-19.833814, -17.169231) " points="14.4008621 3.32307692 25.2667657 7.66420411 25.2667657 31.0153846 15.2817796 31.0153846"></polygon>
                            </g>
                            <rect id="Rectangle-36" fill="#3FA2F7" fill-rule="nonzero" x="25.4784483" y="4.43076923" width="5.5387931" height="18.8307692" rx="2.5"></rect>
                            <rect id="Rectangle-21" fill="#000000" fill-rule="nonzero" x="6.64655172" y="31.0153846" width="18.8318966" height="2.21538462"></rect>
                            <rect id="Rectangle-22" fill="#FFFFFF" fill-rule="nonzero" x="14.4008621" y="31.0153846" width="4.43103448" height="2.21538462"></rect>
                            <path d="M31.7100151,1.18486127 L26.5558429,1.18486127 C26.1939921,1.18486127 25.8603696,1.38034098 25.6834773,1.69600711 L20.0364473,11.7731932 C19.7664606,12.2549873 19.9381645,12.8644261 20.4199587,13.1344128 C20.569299,13.2180998 20.7376228,13.2620473 20.9088128,13.2620473 L26.0269685,13.2620473 C26.3878475,13.2620473 26.7207317,13.067607 26.8980032,12.7532688 L32.5810498,2.67608279 C32.8523439,2.19502362 32.6822958,1.58512075 32.2012366,1.31382659 C32.0513226,1.22928229 31.8821255,1.18486127 31.7100151,1.18486127 Z" id="Path-29" fill="#000000" fill-rule="nonzero"></path>
                            <path d="M27.1846479,13.6090588 C24.143831,13.6090588 23.262931,10.3236927 23.262931,9.49535396 C23.262931,8.66701517 23.8717884,6.07212424 26.4827964,5.55860508 C26.5418228,5.25458049 26.4417108,4.99269784 26.1824605,4.77295714 C25.7935849,4.44334609 25.6010144,3.86788918 25.9690987,3.50527666 C26.3371831,3.14266413 26.983471,3.38810628 27.1846479,3.66311857 C27.3187658,3.84646009 28.354868,4.86758828 30.2929544,6.72650313 L31.2917377,5.00255455 L31.2917377,9.62821074 C30.580889,12.2821094 29.2118591,13.6090588 27.1846479,13.6090588 Z" id="Path-28" fill="#7D5152" fill-rule="nonzero"></path>
                        </g>
                        <path d="M13.2931034,65.3538462 L13.2931034,111.876923 L6.64655172,111.876923 L6.64655172,54.2769231 L13.2931034,54.2769231 L18.8318966,54.2769231 L25.4784483,54.2769231 L25.4784483,111.876923 L18.8318966,111.876923 L18.8318966,65.3538462 L18.8318966,65.1384615 C18.8318966,64.033892 17.9364661,63.1384615 16.8318966,63.1384615 L15.2931034,63.1384615 C14.1885339,63.1384615 13.2931034,64.033892 13.2931034,65.1384615 L13.2931034,65.3538462 Z" id="Combined-Shape" fill="url(#linearGradient-11)" fill-rule="nonzero"></path>
                        <rect id="Rectangle-25" fill="#16337F" fill-rule="nonzero" x="5.5387931" y="111.876923" width="8.86206897" height="3.32307692"></rect>
                        <rect id="Rectangle-25-Copy" fill="#16337F" fill-rule="nonzero" x="17.7241379" y="111.876923" width="8.86206897" height="3.32307692"></rect>
                        <g id="鞋2" transform="translate(6.646552, 116.307692)" fill-rule="nonzero">
                            <path d="M3.32327586,0 C4.86116289,0 6.04061101,3.14362926 6.04061101,4.00347186 C6.04061101,4.86331447 7.6365532,8.95695408 5.64830755,8.95695408 C4.32281046,8.95695408 2.70224751,8.95695408 0.786618723,8.95695408 C0.262206241,8.63423171 3.97257193e-17,8.04038293 0,7.17540774 C-1.15299293e-17,5.87794496 0.514055755,4.74098662 0.786618723,4.00347186 C1.05918169,3.26595711 1.78538884,0 3.32327586,0 Z" id="Path-12" fill="#16337F"></path>
                            <path d="M0.171334094,7.54688085 C0.514002281,7.54688085 1.25919411,8.37660807 1.5958596,8.37660807 C1.93252509,8.37660807 2.45527416,6.64615385 3.44348942,6.64615385 C4.43170468,6.64615385 4.97880754,8.37660807 5.34977415,8.37660807 C5.72074077,8.37660807 6.10721309,7.54688085 6.60526535,7.54688085 C6.93730019,7.54688085 6.93730019,8.01690526 6.60526535,8.95695408 L0.171334094,8.95695408 C-0.0571113645,8.01690526 -0.0571113645,7.54688085 0.171334094,7.54688085 Z" id="Path-13" fill="#04203B"></path>
                        </g>
                        <g id="鞋1" transform="translate(21.601293, 121.292308) scale(-1, 1) translate(-21.601293, -121.292308) translate(17.724138, 116.307692)" fill-rule="nonzero">
                            <path d="M3.32327586,0 C4.86116289,0 6.04061101,3.14362926 6.04061101,4.00347186 C6.04061101,4.86331447 7.6365532,8.95695408 5.64830755,8.95695408 C4.32281046,8.95695408 2.70224751,8.95695408 0.786618723,8.95695408 C0.262206241,8.63423171 3.97257193e-17,8.04038293 0,7.17540774 C-1.15299293e-17,5.87794496 0.514055755,4.74098662 0.786618723,4.00347186 C1.05918169,3.26595711 1.78538884,0 3.32327586,0 Z" id="Path-12" fill="#16337F"></path>
                            <path d="M0.171334094,7.54688085 C0.514002281,7.54688085 1.25919411,8.37660807 1.5958596,8.37660807 C1.93252509,8.37660807 2.45527416,6.64615385 3.44348942,6.64615385 C4.43170468,6.64615385 4.97880754,8.37660807 5.34977415,8.37660807 C5.72074077,8.37660807 6.14946784,7.54688085 6.6475201,7.54688085 C6.97955494,7.54688085 6.97955494,8.01690526 6.6475201,8.95695408 L0.171334094,8.95695408 C-0.0571113645,8.01690526 -0.0571113645,7.54688085 0.171334094,7.54688085 Z" id="Path-13" fill="#04203B"></path>
                        </g>
                        <g id="头" transform="translate(7.754310, 0.000000)" fill-rule="nonzero">
                            <path d="M7.75431034,0 L7.75431034,0 C11.4250995,-6.74313029e-16 14.4008621,2.97576257 14.4008621,6.64655172 L14.4008621,7.75384615 L1.10775862,7.75384615 L1.10775862,6.64655172 C1.10775862,2.97576257 4.08352119,6.74313029e-16 7.75431034,0 Z" id="Rectangle-38" fill="#000000"></path>
                            <rect id="Rectangle-17" fill="#B7898A" x="1.10775862" y="2.21538462" width="13.2931034" height="17.7230769" rx="6"></rect>
                            <ellipse id="Oval-8" fill="#9D6D6E" cx="14.4008621" cy="9.96923077" rx="1.10775862" ry="1.10769231"></ellipse>
                            <ellipse id="Oval-8-Copy" fill="#9D6D6E" cx="1.10775862" cy="9.96923077" rx="1.10775862" ry="1.10769231"></ellipse>
                            <rect id="Rectangle-37" fill="#000000" x="9.96982759" y="7.75384615" width="1.10775862" height="1.10769231" rx="0.5"></rect>
                            <rect id="Rectangle-37-Copy" fill="#000000" x="4.43103448" y="7.75384615" width="1.10775862" height="1.10769231" rx="0.5"></rect>
                            <rect id="Rectangle-37-Copy-3" fill="#000000" x="9.96982759" y="5.53846154" width="2.21551724" height="1.10769231" rx="0.5"></rect>
                            <rect id="Rectangle-37-Copy-2" fill="#000000" x="3.32327586" y="5.53846154" width="2.21551724" height="1.10769231" rx="0.5"></rect>
                            <path d="M14.4008621,12.1846154 L14.4008621,13.2923077 C14.4008621,16.9628771 11.4250995,19.9384615 7.75431034,19.9384615 C4.08352119,19.9384615 1.10775862,16.9628771 1.10775862,13.2923077 L1.10775862,12.1846154 L2.21551724,12.1846154 L2.21551724,13.2923077 C2.21551724,13.9040693 2.71147767,14.4 3.32327586,14.4 C3.93507405,14.4 4.43103448,13.9040693 4.43103448,13.2923077 L4.43103448,12.1846154 C5.68190161,11.4461538 6.78966023,11.0769231 7.75431034,11.0769231 C8.71896046,11.0769231 9.82671908,11.4461538 11.0775862,12.1846154 L11.0775862,13.2923077 C11.0775862,13.9040693 11.5735466,14.4 12.1853448,14.4 C12.797143,14.4 13.2931034,13.9040693 13.2931034,13.2923077 L13.2931034,12.1846154 L14.4008621,12.1846154 Z" id="Combined-Shape" fill="#000000"></path>
                            <path d="M5.5387931,13.2923077 L9.96982759,13.2923077 C9.96982759,14.5158308 8.97790673,15.5076923 7.75431034,15.5076923 C6.53071396,15.5076923 5.5387931,14.5158308 5.5387931,13.2923077 Z" id="Combined-Shape" fill="#FFFFFF"></path>
                        </g>
                    </g>
                    <g id="Group-24" transform="translate(22.155172, 194.953846)" fill-rule="nonzero">
                        <path d="M14.6544931,26.5846154 L19.6860241,26.5846154 L24.2489289,27.0750859 C25.8178693,27.5401154 26.7473982,28.5126275 27.0375157,29.9926221 C27.3276332,31.4726167 27.9090882,37.3806309 29.5336155,48.7337662 L24.8272249,49.3971995 L25.0453649,57.2238339 C26.4611503,58.3693998 27.5718133,59.6024808 28.3773539,60.9230769 L5.96316334,60.9230769 C6.76870397,59.6024808 7.87936696,58.3693998 9.29515232,57.2238339 L9.5088704,49.3971995 L4.75252298,48.7337662 C6.37705023,37.3806309 7.01288408,31.4726167 7.30300154,29.9926221 C7.593119,28.5126275 8.52264795,27.5401154 10.0915884,27.0750859 L14.6544931,26.5846154 Z" id="Combined-Shape" fill="#FD69FC"></path>
                        <rect id="Rectangle-41" fill="#FFFFFF" x="15.5086207" y="28.8" width="3.32327586" height="32.1230769"></rect>
                        <path d="M22.1551724,21.2570893 L22.1551724,16.6153846 L12.1853448,16.6153846 L12.1853448,21.2570893 C10.819844,19.946767 9.96982759,18.1034127 9.96982759,16.0615385 C9.96982759,12.9603438 11.9306007,10.3170848 14.6801201,9.30371819 C13.1888475,8.44218517 12.1853448,6.83058357 12.1853448,4.98461538 C12.1853448,2.23168832 14.4171668,0 17.1702586,0 C19.9233505,0 22.1551724,2.23168832 22.1551724,4.98461538 C22.1551724,6.83058357 21.1516697,8.44218517 19.6603971,9.30371819 C22.4099165,10.3170848 24.3706897,12.9603438 24.3706897,16.0615385 C24.3706897,18.1034127 23.5206733,19.946767 22.1551724,21.2570893 Z" id="Combined-Shape" fill="#000000"></path>
                        <path d="M15.5086207,25.4769231 L18.8318966,25.4769231 L18.8318966,30.461439 C18.8318966,31.3791363 18.0879559,32.1230769 17.1702586,32.1230769 L17.1702586,32.1230769 C16.2525613,32.1230769 15.5086207,31.3791363 15.5086207,30.461439 L15.5086207,25.4769231 Z" id="Rectangle-40" fill="#B77C54"></path>
                        <ellipse id="Oval-17" fill="#9C5B37" cx="17.1702586" cy="26.0307692" rx="1.66163793" ry="1.66153846"></ellipse>
                        <path d="M12.1853448,16.6153846 L22.1551724,16.6153846 L22.1551724,21.5997016 C22.1551724,24.3527935 19.9233505,26.5846154 17.1702586,26.5846154 L17.1702586,26.5846154 C14.4171668,26.5846154 12.1853448,24.3527935 12.1853448,21.5997016 L12.1853448,16.6153846 Z" id="Rectangle-39-Copy" fill="#B77C54"></path>
                        <path d="M15.5086207,22.1538462 L18.8318966,22.1538462 C18.8318966,23.3773693 18.0879559,24.3692308 17.1702586,24.3692308 C16.2525613,24.3692308 15.5086207,23.3773693 15.5086207,22.1538462 Z" id="Combined-Shape" fill="#FFFFFF"></path>
                        <ellipse id="Oval-15" stroke="#FFFFFF" cx="14.9547414" cy="17.1692308" rx="2.26939655" ry="2.26923077"></ellipse>
                        <ellipse id="Oval-15-Copy" stroke="#FFFFFF" cx="19.3857759" cy="17.1692308" rx="2.26939655" ry="2.26923077"></ellipse>
                        <ellipse id="Oval-16" fill="#000000" cx="14.9547414" cy="17.1692308" rx="1" ry="1"></ellipse>
                        <ellipse id="Oval-16-Copy" fill="#000000" cx="19.3857759" cy="17.1692308" rx="1" ry="1"></ellipse>
                        <polygon id="Path-30" fill="#0394CC" points="5.98536517 60.9334155 28.3644752 60.9334155 25.6482249 108.626991 9.13615508 108.626991"></polygon>
                        <polygon id="Rectangle-42" fill="#B77C54" points="9.96982759 108.553846 15.5086207 108.553846 15.5086207 118.523077 11.0775862 118.523077"></polygon>
                        <polygon id="Rectangle-42-Copy" fill="#B77C54" points="24.3706897 108.553846 23.262931 118.523077 18.8318966 118.523077 18.8318966 108.553846"></polygon>
                        <path d="M4.8086399,48.7384615 L3.32509656,70.4104652 L0.822125603,73.4413897 C0.708816662,73.7394609 0.616236496,74.0404498 0.544385106,74.3443564 C0.472533715,74.6482631 0.364204313,75.4166655 0.219396898,76.6495635 L0.000679457596,78.8483556 C-0.0108023555,79.2783837 0.123234882,79.4933978 0.402791171,79.4933978 C0.822125603,79.4933978 1.03303481,79.1270078 1.03303481,78.9876817 C1.03303481,78.8947976 1.10137146,78.0534436 1.23804476,76.4636196 L2.94651115,73.9400848 C3.19890143,73.8555351 3.32509656,73.9017764 3.32509656,74.0788084 C3.32509656,74.2558404 2.92188946,74.845579 2.11547526,75.8480241 C1.92291213,76.2017367 1.92291213,76.4689165 2.11547526,76.6495635 C2.40431995,76.920534 2.74225437,76.8355074 2.94651115,76.6495635 C3.08268234,76.5256009 3.92549263,75.3320405 5.47494201,73.0688823 C5.54212381,72.7201403 5.57571471,72.3528967 5.57571471,71.9671516 C5.57571471,71.5814066 5.72071835,70.6397795 6.01072563,69.1422705 L8.78096977,53.3023748 L9.53344167,49.3981022 L4.8086399,48.7384615 Z" id="Path-31" fill="#B77C54"></path>
                        <path d="M29.6236209,48.7445268 L28.1400776,70.4165304 L25.6371066,73.4474549 C25.5237977,73.7455261 25.4312175,74.046515 25.3593661,74.3504217 C25.2875148,74.6543283 25.1791854,75.4227307 25.0343779,76.6556288 L24.8156605,78.8544208 C24.8041787,79.284449 24.9382159,79.4994631 25.2177722,79.4994631 C25.6371066,79.4994631 25.8480159,79.133073 25.8480159,78.9937469 C25.8480159,78.9008629 25.9163525,78.0595088 26.0530258,76.4696849 L27.7614922,73.94615 C28.0138825,73.8616004 28.1400776,73.9078416 28.1400776,74.0848736 C28.1400776,74.2619057 27.7368705,74.8516442 26.9304563,75.8540894 C26.7378932,76.207802 26.7378932,76.4749818 26.9304563,76.6556288 C27.219301,76.9265992 27.5572354,76.8415726 27.7614922,76.6556288 C27.8976634,76.5316662 28.7404737,75.3381058 30.289923,73.0749476 C30.3571049,72.7262055 30.3906958,72.3589619 30.3906958,71.9732169 C30.3906958,71.5874718 30.5356994,70.6458448 30.8257067,69.1483357 L33.5959508,53.30844 L34.3484227,49.4041675 L29.6236209,48.7445268 Z" id="Path-31-Copy" fill="#B77C54" transform="translate(29.581702, 64.121995) scale(-1, 1) translate(-29.581702, -64.121995) "></path>
                        <path d="M6.64655172,122.953846 C6.69826161,121.859683 6.8518575,121.118089 7.1073394,120.729063 C7.49056224,120.145523 9.24081042,118.894004 9.24081042,118.035352 C9.24081042,117.176701 10.6906592,115.2 12.5796038,115.2 C14.4685484,115.2 15.6070424,116.579751 15.9113857,117.083879 C16.2157291,117.588007 16.5058303,120.289679 16.5058303,120.729063 C16.5058303,121.168446 16.9961978,122.953846 15.9113857,122.953846 C15.1881777,122.953846 12.0998997,122.953846 6.64655172,122.953846 Z" id="Path-32" fill="#2E3192"></path>
                        <path d="M27.6939655,122.953846 C22.2406176,122.953846 19.1523395,122.953846 18.4291315,122.953846 C17.3443194,122.953846 17.8346869,121.168446 17.8346869,120.729063 C17.8346869,120.289679 18.1247882,117.588007 18.4291315,117.083879 C18.7334749,116.579751 19.8719688,115.2 21.7609134,115.2 C23.649858,115.2 25.0997068,117.176701 25.0997068,118.035352 C25.0997068,118.894004 26.849955,120.145523 27.2331778,120.729063 C27.4886597,121.118089 27.6422556,121.859683 27.6939655,122.953846 Z" id="Path-32-Copy" fill="#2E3192"></path>
                    </g>
                    <g id="women" transform="translate(456.396552, 309.600000) scale(-1, 1) translate(-456.396552, -309.600000) translate(423.163793, 256.984615)" fill-rule="nonzero">
                        <ellipse id="Oval-10" fill="#000000" cx="44.3103448" cy="16.6153846" rx="4.43103448" ry="4.43076923"></ellipse>
                        <polygon id="Rectangle-27" fill="#F09980" points="38.4034646 14.4 43.2025862 14.4 43.2025862 24.3692308 38.4034646 24.3692308"></polygon>
                        <g id="头" transform="translate(29.909483, 0.000000)">
                            <path d="M2.21551724,6.64615385 C2.21551724,10.3077913 2.21551724,12.8819507 2.21551724,14.3686323 C2.21551724,16.5986546 3.12518868,19.1810382 5.59592386,19.1810382 C8.06665905,19.1810382 10.4334807,18.9758565 12.6619465,16.4546724 C14.1475903,14.7738831 14.7241735,11.8099043 14.3916962,7.56273593 L2.21551724,6.64615385 Z" id="Path-15" fill="#F5AF95"></path>
                            <path d="M3.32327586,15.5076923 L7.75431034,15.5076923 C7.75431034,16.7312154 6.76238949,17.7230769 5.5387931,17.7230769 C4.31519672,17.7230769 3.32327586,16.7312154 3.32327586,15.5076923 Z" id="Combined-Shape" fill="#FFFFFF"></path>
                            <path d="M2.28404289,15.1439045 L2.28404289,8.27137815 C2.94997451,9.72328597 4.46050893,10.4492399 6.81564615,10.4492399 C10.348352,10.4492399 12.6404369,9.57092627 13.0356456,11.7748687 C13.2991181,13.2441637 13.383312,14.5900981 13.2882274,15.812672 C16.0252303,14.5233825 17.3937317,12.4711376 17.3937317,9.65593729 C17.3937317,6.840737 16.4510683,4.64389365 14.5657415,3.06540725 C12.5731356,1.5085253 10.6168438,0.730084333 8.69686587,0.730084333 C5.816899,0.730084333 3.20695714,1.04823955 1.27790604,4.64293583 C0.504027414,6.08502235 -0.31168323,8.58796794 0.119663997,10.8294914 C0.309975351,11.8184566 1.03143498,13.2565943 2.28404289,15.1439045 Z" id="Path-16" fill="#000000"></path>
                            <ellipse id="Oval-9" fill="#000000" cx="3.87715517" cy="12.7384615" rx="1" ry="1"></ellipse>
                            <ellipse id="Oval-9-Copy" fill="#000000" cx="7.20043103" cy="12.7384615" rx="1" ry="1"></ellipse>
                        </g>
                        <polygon id="Path-21" fill="#F5AF95" points="25.6477064 93.5180338 26.5158931 98.6175482 23.8378617 99.9428004 20.9973476 98.9414585 19.9396552 93.0461538"></polygon>
                        <polygon id="Path-21-Copy" fill="#F5AF95" points="14.3305482 93.286473 14.7772786 98.732364 11.6525169 101.050493 9.21120974 99.0122475 9.21120974 93.286473"></polygon>
                        <path d="M33.9945177,47.6307692 L48.0379793,47.6307692 C49.9916277,50.2283747 50.9684519,52.4349102 50.9684519,54.2503756 C50.9684519,56.9735737 50.1105967,61.3741788 45.0397864,61.3741788 C41.6592463,61.3741788 31.1799871,61.3741788 13.6020088,61.3741788 L14.5708069,94.0661557 L8.87361532,95.1738481 L4.44258084,57.4640381 C4.08870937,53.6764479 5.50018326,51.6426207 8.67700252,51.3625565 C11.8538218,51.0824923 20.2929935,50.6015713 33.9945177,49.9197936 L33.9945177,47.6307692 Z" id="Path-19" fill="#000000"></path>
                        <path d="M34.0361727,47.6307692 L48.0796343,47.6307692 C50.0332827,50.2283747 51.0101069,52.4349102 51.0101069,54.2503756 C51.0101069,56.9735737 50.1522517,61.3741788 45.0814414,61.3741788 C41.7009013,61.3741788 34.6796534,61.3741788 24.0176979,61.3741788 L26.2752488,94.1241024 L20.5780572,95.2317947 L14.306073,60.3154014 C13.828575,57.4517444 14.7905281,55.5042153 17.1919325,54.472814 C19.5933369,53.4414128 25.2080837,51.9237393 34.0361727,49.9197936 L34.0361727,47.6307692 Z" id="Path-19-Copy" fill="#17175E"></path>
                        <path d="M14.8307374,98.5846154 C15.356641,100.509576 15.6195929,101.68851 15.6195929,102.121418 C15.6195929,102.77078 15.6586194,104.252137 13.3432209,104.252137 C11.799622,104.252137 9.01318827,104.252137 4.98391976,104.252137 C2.45928152,104.154316 0.802534656,103.444077 0.0136791595,102.121418 C-0.113287028,101.375045 0.643595652,100.914965 2.2843272,100.741177 C3.92505875,100.567389 6.21998995,99.8485355 9.16912078,98.5846154 C10.6984934,99.1078744 11.7840923,99.3695039 12.4259174,99.3695039 C13.0677426,99.3695039 13.8693493,99.1078744 14.8307374,98.5846154 Z" id="Path-20" fill="#131441"></path>
                        <path d="M27.0160822,98.5846154 C27.5419859,100.509576 27.8049377,101.68851 27.8049377,102.121418 C27.8049377,102.77078 27.8439642,104.252137 25.5285658,104.252137 C23.9849668,104.252137 21.1985331,104.252137 17.1692646,104.252137 C14.6446263,104.154316 12.9878795,103.444077 12.199024,102.121418 C12.0720578,101.375045 12.8289405,100.914965 14.469672,100.741177 C16.1104036,100.567389 18.4053348,99.8485355 21.3544656,98.5846154 C22.8838382,99.1078744 23.9694371,99.3695039 24.6112623,99.3695039 C25.2530874,99.3695039 26.0546941,99.1078744 27.0160822,98.5846154 Z" id="Path-20-Copy" fill="#2E3192"></path>
                        <g id="Group-22" transform="translate(37.663793, 40.984615) scale(-1, 1) translate(-37.663793, -40.984615) translate(8.862069, 19.938462)">
                            <path d="M10.9803596,37.6615385 L10.4867348,39.241278 C10.4450007,40.8263929 9.84909321,41.6189503 8.69901226,41.6189503 C7.54893131,41.6189503 5.35784482,41.6189503 2.12575279,41.6189503 L1.09510746,41.9366281 C0.557256231,42.1015019 0.205351203,41.9956093 0.0393923819,41.6189503 C-0.20954585,41.0539618 0.780489416,40.6365974 1.35020318,40.4155277 C1.73001235,40.2681479 3.85004345,39.5795284 7.71029646,38.3496693 L7.95908808,37.6615385 L10.9803596,37.6615385 Z" id="Path-24" fill="#F5AF95"></path>
                            <path d="M47.6091484,5.42925252 L51.7471235,5.42925252 C52.0045649,5.33894818 52.2790616,5.19943579 52.5706135,5.01071536 C52.8621654,4.82199492 54.1831409,3.98839007 56.5335401,2.50990082 C56.8373603,2.21420667 56.872003,1.94893678 56.6374683,1.71409116 C56.4029335,1.47924554 56.1152578,1.51199723 55.7744412,1.81234622 L53.8081259,3.08314408 L50.5122117,3.32668016 C50.6185341,3.0706363 50.7868915,2.94261437 51.0172838,2.94261437 C51.2476762,2.94261437 51.8979975,2.90791343 52.9682477,2.83851153 C53.3170243,2.67245866 53.4630044,2.44354205 53.4061881,2.15176169 C53.3209637,1.71409116 53.0289831,1.61583611 52.072934,1.71409116 C51.435568,1.77959453 50.3000338,1.86463115 48.6663315,1.969201 C48.4501128,1.93671328 48.2412245,1.99756684 48.0396668,2.15176169 C47.838109,2.30595655 46.9770313,2.85209546 45.4564337,3.79017843 L47.6091484,5.42925252 Z" id="Path-25" fill="#F5AF95"></path>
                            <path d="M31.6290976,2.10632959 L36.0472547,12.8369455 L45.3725433,3.54381291 L48.0632399,5.55641678 L37.7299808,18.4836645 C37.1489518,19.3691572 36.3901198,19.8119036 35.4534849,19.8119036 C34.51685,19.8119036 33.7371409,19.2398652 33.1143575,18.0957884 L31.0172414,13.904267 L31.6290976,2.10632959 Z" id="Path-23" fill="#7BC2FF"></path>
                            <path d="M23.2684516,0 L23.2684516,2.27598119 C23.8179033,3.54758407 24.6721444,4.1833855 25.8311749,4.1833855 C26.9902055,4.1833855 27.7367382,3.54758407 28.0707731,2.27598119 L28.0707731,0 L31.6286612,2.09169275 L32.0646805,3.86830072 L33.6502255,9.04986139 C34.1667881,10.6566608 34.4250694,11.7326459 34.4250694,12.2778168 C34.4250694,12.8229877 33.6709255,13.6727433 32.1626377,14.8270837 L32.6956681,27.8661533 L17.8760224,27.8661533 L17.8760224,16.9825395 L11.8590419,37.923118 L7.75431034,37.923118 L15.8398349,4.92659392 C16.0974252,3.64805343 16.7761544,2.76451586 17.8760224,2.27598119 C18.9758904,1.78744653 20.7733668,1.02878613 23.2684516,0 Z" id="Path-22" fill="#68E1FD"></path>
                        </g>
                    </g>
                </g>
                <g id="img_28" transform="translate(467.474138, 261.415385)">
                    <polygon id="Shape" fill="#2198D2" fill-rule="nonzero" points="6.58634225 0 6.43950447 0.495266272 6.43950447 14.8420118 6.58634225 14.9884615 13.2687965 11.0502959"></polygon>
                    <polygon id="Shape" fill="#50CCFF" fill-rule="nonzero" points="6.63439826 0 0 11.0502959 6.63439826 14.9884615 6.63439826 8.02278107"></polygon>
                    <polygon id="Shape" fill="#2198D2" fill-rule="nonzero" points="6.7144916 14.945858 6.63439826 15.0443787 6.63439826 20.1328402 6.7144916 20.3724852 13.2687965 11.0289941"></polygon>
                    <polygon id="Shape" fill="#50E2FF" fill-rule="nonzero" points="6.63439826 20.3724852 6.63439826 14.945858 0 11.0289941"></polygon>
                    <polygon id="Shape" fill="#132030" fill-rule="nonzero" points="6.63439826 14.9884615 13.2687965 11.0263314 6.63439826 7.98017751"></polygon>
                    <polygon id="Shape" fill="#2D6FBC" fill-rule="nonzero" points="0 11.0263314 6.63439826 14.9884615 6.63439826 7.98017751"></polygon>
                </g>
            </g>
        </g>
    </g>
</svg>