<?xml version="1.0" encoding="UTF-8"?>
<svg width="464px" height="270px" viewBox="0 0 464 270" version="1.1" xmlns="http://www.w3.org/2000/svg" xmlns:xlink="http://www.w3.org/1999/xlink">
    <!-- Generator: Sketch 51.1 (57501) - http://www.bohemiancoding.com/sketch -->
    <title>X</title>
    <desc>Created with Sketch.</desc>
    <defs>
        <linearGradient x1="51.0482981%" y1="20.4101781%" x2="47.8983487%" y2="139.219739%" id="linearGradient-1">
            <stop stop-color="#50F9FF" offset="0%"></stop>
            <stop stop-color="#2895FB" offset="100%"></stop>
        </linearGradient>
        <linearGradient x1="53.6297305%" y1="-137.589721%" x2="50.4797811%" y2="25.1793012%" id="linearGradient-2">
            <stop stop-color="#50F9FF" offset="0%"></stop>
            <stop stop-color="#2895FB" offset="100%"></stop>
        </linearGradient>
        <linearGradient x1="53.6344574%" y1="-13.1058486%" x2="49.4857077%" y2="59.1376361%" id="linearGradient-3">
            <stop stop-color="#50F9FF" offset="0%"></stop>
            <stop stop-color="#2895FB" offset="100%"></stop>
        </linearGradient>
        <linearGradient x1="53.5734006%" y1="-12.2381313%" x2="49.4259399%" y2="59.9801243%" id="linearGradient-4">
            <stop stop-color="#50F9FF" offset="0%"></stop>
            <stop stop-color="#2895FB" offset="100%"></stop>
        </linearGradient>
        <path d="M44.3886208,137.088495 C58.8940041,135.193386 68.3970663,130.633206 72.8978072,123.407954 C79.6489187,112.570076 81.3877541,105.706781 77.1427807,84.9824224 C75.6185179,77.5408286 70.317341,61.338001 62.9733317,51.4981922 C59.7746878,47.2125162 59.301837,37.9624654 57.4621965,32.1829461 C51.9084552,14.7349959 46.902566,0.373527763 41.5597302,0.373527763 C37.8322113,0.373527763 34.8946989,9.9188174 29.966818,20.649525 C27.885977,25.1806604 25.3499025,37.3242757 21.4948045,41.699069 C10.7373337,53.9067252 9.4437496,72.3582959 5.74728943,77.3278969 C-1.33030215,86.8431641 -0.177770404,97.8518033 5.74728943,114.335516 C11.6723493,130.819229 20.1006409,137.088495 35.379543,137.088495 C37.0587783,137.088495 40.0618042,137.088495 44.3886208,137.088495 Z" id="path-5"></path>
        <linearGradient x1="95.9253146%" y1="6.54354596%" x2="18.4039331%" y2="100%" id="linearGradient-7">
            <stop stop-color="#5BA7C9" offset="0%"></stop>
            <stop stop-color="#276C9B" offset="100%"></stop>
        </linearGradient>
        <linearGradient x1="-1.11022302e-14%" y1="50%" x2="100%" y2="50%" id="linearGradient-8">
            <stop stop-color="#0D64C8" offset="0%"></stop>
            <stop stop-color="#0496D2" offset="76.2102601%"></stop>
            <stop stop-color="#048FD1" offset="100%"></stop>
        </linearGradient>
        <linearGradient x1="-1.11022302e-14%" y1="50%" x2="100%" y2="50%" id="linearGradient-9">
            <stop stop-color="#37BFF2" offset="0%"></stop>
            <stop stop-color="#00AEEF" offset="100%"></stop>
        </linearGradient>
        <path d="M11.0046088,-2.27373675e-13 C11.2152452,1.04672859 11.8846407,1.57009288 13.0127953,1.57009288 C14.1409499,1.57009288 14.8093928,1.04672859 15.018124,-2.27373675e-13 C19.9996548,0.641744956 23.1062894,1.20709813 24.3380278,1.69605952 C25.8567805,2.29895655 26.0665776,2.60075061 26.8849508,5.31516431 C27.4305329,7.12477344 26.150185,10.1952417 23.0439072,14.5265692 L23.0439072,28.0163503 L4.00080202,28.0163503 L4.00080202,21.6289111 L0,21.6289111 L0,6.40450893 C0.115904812,3.78725626 0.79504601,2.26676813 2.03742359,1.84304454 C3.27980118,1.41932095 6.2688629,0.804972767 11.0046088,-2.27373675e-13 Z" id="path-10"></path>
        <linearGradient x1="50%" y1="0%" x2="50%" y2="98.9207009%" id="linearGradient-12">
            <stop stop-color="#4225A0" offset="0%"></stop>
            <stop stop-color="#080219" offset="100%"></stop>
        </linearGradient>
    </defs>
    <g id="HEX上线预热" stroke="none" stroke-width="1" fill="none" fill-rule="evenodd">
        <g transform="translate(-1036.000000, -1817.000000)" id="X">
            <g transform="translate(420.000000, 1817.000000)">
                <g transform="translate(616.000000, 0.000000)">
                    <g>
                        <g id="齿轮" transform="translate(24.000000, 0.000000)" fill="#F0FBFF" fill-rule="nonzero">
                            <path d="M158.634607,42.9811433 L152.470321,45.0341407 C149.045717,46.4028057 145.278653,45.0341407 142.881431,42.2968108 C140.484208,39.2173147 137.744525,36.4799848 135.004842,34.0848211 C132.265159,31.6896575 131.237778,27.9258289 132.60762,24.5041665 L135.004842,18.6873405 C136.717144,14.2391794 134.662382,9.44885207 130.552857,7.73802088 L124.046111,5.00069099 L117.539364,1.92119486 C113.429839,0.210363675 108.292934,1.92119486 106.238172,6.0271897 L103.498489,11.8440157 C101.786187,15.2656781 98.3615831,16.9765093 94.5945191,16.634343 C90.8274551,16.2921768 87.0603911,16.2921768 83.2933271,16.2921768 C79.526263,16.634343 76.1016594,14.5813456 74.7318179,11.1596833 L72.3345954,5.34285723 C70.6222935,1.23686238 65.4853881,-0.816135038 61.3758637,0.894696147 L54.8691167,3.2898598 L48.3623698,5.68502346 C43.9103851,7.39585465 41.8556229,12.186182 43.2254643,16.634343 L45.2802265,22.7933353 C46.650068,26.2149977 45.2802265,29.9788263 42.5405436,32.3739899 C39.4584003,34.7691536 36.7187174,37.5064835 34.3214948,40.2438134 C31.9242723,42.9811433 28.1572083,44.007642 24.7326046,42.6389771 L18.2258577,40.2438134 C13.7738729,38.5329822 8.97942783,40.5859796 7.267126,44.6919745 L4.52744308,51.193133 L1.78776016,57.6942915 C0.0754583325,61.8002863 1.78776016,66.9327799 5.89728454,68.9857773 L11.7191107,71.7231072 C15.1437144,73.4339384 16.8560162,76.8556008 16.5135559,80.6194294 C16.1710955,84.383258 16.1710955,88.1470866 16.1710955,91.9109152 C16.5135559,95.6747438 14.4587937,99.0964062 11.03419,100.465071 L5.21236381,102.860235 C1.10283943,104.571066 -0.951922764,109.703559 0.760379064,113.809554 L3.15760162,120.310713 L5.55482417,126.811871 C7.267126,131.260032 12.0615711,133.31303 16.5135559,131.944365 L22.6778424,129.891367 C26.1024461,128.522703 29.8695101,129.891367 32.2667327,132.628697 C34.6639552,135.708194 37.4036381,138.445523 40.1433211,140.840687 C42.883004,143.235851 43.9103851,146.999679 42.5405436,150.421342 L40.1433211,156.238168 C38.4310192,160.686329 40.4857814,165.476656 44.5953058,167.187487 L51.1020527,169.924817 L57.6087997,172.662147 C61.7183241,174.372978 66.8552295,172.662147 68.9099917,168.556152 L71.6496746,162.739326 C73.3619765,159.317664 76.7865801,157.606833 80.5536441,157.948999 C84.3207081,158.291165 88.0877722,158.291165 91.8548362,158.291165 C95.6219002,157.948999 99.0465039,160.001996 100.416345,163.423659 L102.813568,169.240485 C104.52587,173.34648 109.662775,175.399477 113.7723,173.688646 L120.279046,171.293482 L126.785793,168.898318 C131.237778,167.187487 133.29254,162.39716 131.922699,157.948999 L129.867937,151.790007 C128.498095,148.368344 129.867937,144.604516 132.60762,142.209352 C135.689763,139.814188 138.429446,137.076858 140.826668,134.339529 C143.223891,131.602199 146.990955,130.5757 150.415559,131.944365 L156.237385,134.339529 C160.68937,136.05036 165.483815,133.997362 167.196117,129.891367 L169.935799,123.390209 L172.675482,116.88905 C174.387784,112.783056 172.675482,107.650562 168.565958,105.597565 L162.744132,102.860235 C159.319528,101.149404 157.607226,97.7277412 157.949687,93.9639126 C158.292147,90.200084 158.292147,86.4362554 158.292147,82.6724268 C157.949687,78.9085982 160.004449,75.4869358 163.429052,74.1182709 L169.250879,71.7231072 C173.360403,70.012276 175.415165,64.8797825 173.702863,60.7737876 L171.305641,54.2726291 L168.908418,47.7714706 C167.881037,43.6654758 163.086592,41.6124783 158.634607,42.9811433 Z M99.7314246,119.284214 C82.265946,126.127539 62.4032448,117.573383 55.5540375,100.122905 C48.7048302,82.6724268 57.2663393,62.826785 74.7318179,55.9834603 C92.1972966,49.1401356 112.059998,57.6942915 118.909205,75.1447696 C125.758412,92.5952477 117.196903,112.440889 99.7314246,119.284214 Z M289.454467,142.209352 L285.002482,141.867186 C282.60526,141.52502 280.550497,139.814188 279.523116,137.419025 C278.838196,135.023861 277.810814,132.286531 276.783433,130.233534 C275.756052,127.83837 276.098513,125.10104 277.810814,123.390209 L280.892958,120.310713 C283.29018,117.915549 283.29018,114.493887 280.892958,112.098723 L277.468354,108.677061 L274.04375,105.255398 C271.988988,102.860235 268.221924,102.860235 265.824702,104.913232 L262.400098,107.650562 C260.345336,109.361393 257.605653,109.70356 255.550891,108.334895 C253.153668,106.96623 250.756446,105.939731 248.359223,105.255398 C245.962,104.571066 244.249699,102.175902 244.249699,99.7807386 L244.249699,95.3325776 C244.249699,92.2530814 241.510016,89.5157515 238.427872,89.5157515 L228.838982,89.5157515 C225.756839,89.5157515 223.017156,91.9109152 222.674696,94.9904113 L222.332235,99.4385724 C221.989775,101.833736 220.277473,103.886733 217.880251,104.913232 C215.483028,105.597565 212.743345,106.624063 210.688583,107.650562 C208.29136,108.677061 205.551677,108.334895 203.839376,106.624063 L200.757232,103.544567 C198.36001,101.149404 194.935406,101.149404 192.538184,103.544567 L189.11358,106.96623 L185.688976,110.387892 C183.291754,112.440889 183.291754,116.204718 185.346516,118.599882 L188.086199,122.021544 C189.798501,124.074541 190.140961,126.811871 188.77112,128.864869 C187.401278,131.260032 186.373897,133.655196 185.688976,136.05036 C185.004055,138.445523 182.606833,140.156355 180.20961,140.156355 L175.757626,140.156355 C172.675482,140.156355 169.935799,142.893684 169.935799,145.973181 L169.935799,155.553835 C169.935799,158.633331 172.333022,161.370661 175.415165,161.712828 L179.86715,162.054994 C182.264373,162.39716 184.319135,164.107991 185.346516,166.503155 C186.031437,168.898318 187.058818,171.635648 188.086199,173.688646 C189.11358,176.083809 188.77112,178.821139 187.058818,180.531971 L183.976674,183.611467 C181.579452,186.00663 181.579452,189.428293 183.976674,191.823456 L187.401278,195.245119 L190.825882,198.666781 C192.880644,201.061945 196.647708,201.061945 199.04493,199.008947 L202.469534,196.271617 C204.524296,194.560786 207.263979,194.21862 209.318741,195.587285 C211.715964,196.95595 214.113187,197.982449 216.510409,198.666781 C218.907632,199.351114 220.619933,201.746277 220.619933,204.141441 L220.619933,208.589602 C220.619933,211.669098 223.359616,214.406428 226.44176,214.406428 L236.03065,214.406428 C239.112793,214.406428 241.852476,212.011264 242.194936,208.931768 L242.537397,204.483607 C242.879857,202.088443 244.592159,200.035446 246.989382,199.008947 C249.386604,198.324615 252.126287,197.298116 254.181049,196.271617 C256.578272,195.245119 259.317955,195.587285 261.030257,197.298116 L264.1124,200.377612 C266.509622,202.772776 269.934226,202.772776 272.331449,200.377612 L275.756052,196.95595 L279.180656,193.534288 C281.577878,191.48129 281.577878,187.717462 279.523116,185.322298 L276.783433,181.900636 C275.071132,179.847638 274.728671,177.110308 276.098513,175.057311 C277.468354,172.662147 278.495735,170.266983 279.180656,167.87182 C279.865577,165.476656 282.262799,163.765825 284.660022,163.765825 L289.112006,163.765825 C292.19415,163.765825 294.933833,161.028495 294.933833,157.948999 L294.933833,148.368344 C294.933833,144.946682 292.53661,142.209352 289.454467,142.209352 Z M231.578665,174.715145 C218.565171,174.372978 208.633821,163.423659 208.976281,150.763508 C209.318741,137.761191 220.277473,127.83837 232.948507,128.180536 C245.962,128.522703 255.893351,139.472022 255.550891,152.132173 C255.550891,164.792324 244.592159,175.057311 231.578665,174.715145 Z M182.606833,203.457108 L179.86715,203.114942 C178.154848,203.114942 177.127467,201.746277 176.442546,200.377612 C176.100086,198.666781 175.415165,197.298116 174.730245,195.929451 C174.045324,194.560786 174.387784,192.849955 175.415165,191.823456 L177.469927,189.770459 C178.839769,188.401794 178.839769,186.00663 177.469927,184.637965 L175.415165,182.584968 L173.360403,180.531971 C171.990562,179.163306 169.593339,178.821139 168.223498,180.189804 L166.168735,181.900636 C165.141354,182.927134 163.429052,182.927134 162.059211,182.242802 C160.68937,181.558469 159.319528,180.874137 157.607226,180.189804 C156.237385,179.505472 155.210004,178.136807 155.210004,176.768142 L155.210004,174.030812 C155.210004,171.977815 153.497702,170.266983 151.44294,170.266983 L145.278653,170.266983 C143.223891,170.266983 141.511589,171.635648 141.511589,173.688646 L141.169129,176.425976 C141.169129,178.136807 139.799287,179.163306 138.429446,179.847638 C136.717144,180.189804 135.347303,180.874137 133.977461,181.558469 C132.60762,182.242802 130.895318,181.900636 129.867937,180.874137 L127.813175,178.821139 C126.443333,177.452474 124.046111,177.452474 122.676269,178.821139 L120.621507,180.874137 L118.224284,182.927134 C116.854443,184.295799 116.511982,186.690963 117.881824,188.059628 L119.594126,190.112625 C120.621507,191.139124 120.621507,192.849955 119.936586,194.21862 C119.251665,195.587285 118.566745,196.95595 117.881824,198.666781 C117.196903,200.035446 115.827062,201.061945 114.45722,201.061945 L111.717537,201.061945 C109.662775,201.061945 107.950473,202.772776 107.950473,204.825773 L107.950473,210.984766 C107.950473,213.037763 109.320315,214.748594 111.375077,214.748594 L114.11476,215.09076 C115.827062,215.09076 116.854443,216.459425 117.539364,217.82809 C117.881824,219.538922 118.566745,220.907587 119.251665,222.276251 C119.936586,223.644916 119.594126,225.355748 118.566745,226.382246 L116.511982,228.435244 C115.142141,229.803909 115.142141,232.199072 116.511982,233.567737 L118.566745,235.620735 L120.621507,237.673732 C121.991348,239.042397 124.388571,239.384563 125.758412,238.015898 L127.813175,236.305067 C128.840556,235.278568 130.552857,235.278568 131.922699,235.962901 C133.29254,236.647233 134.662382,237.331566 136.374684,238.015898 C137.744525,238.700231 138.771906,240.068896 138.771906,241.437561 L138.771906,244.174891 C138.771906,246.227888 140.484208,247.938719 142.53897,247.938719 L148.703257,247.938719 C150.758019,247.938719 152.470321,246.570054 152.470321,244.517057 L152.812781,241.779727 C152.812781,240.068896 154.182623,239.042397 155.552464,238.358065 C157.264766,238.015898 158.634607,237.331566 160.004449,236.647233 C161.37429,235.962901 163.086592,236.305067 164.113973,237.331566 L166.168735,239.384563 C167.538577,240.753228 169.935799,240.753228 171.305641,239.384563 L173.360403,237.331566 L175.415165,235.278568 C176.785007,233.909904 177.127467,231.51474 175.757626,230.146075 L174.045324,228.093077 C173.017943,227.066579 173.017943,225.355748 173.702863,223.987083 C174.387784,222.618418 175.072705,221.249753 175.757626,219.538922 C176.442546,218.170257 177.812388,217.143758 179.182229,217.143758 L181.921912,217.143758 C183.976674,217.143758 185.688976,215.432927 185.688976,213.379929 L185.688976,207.220937 C186.031437,205.16794 184.661595,203.457108 182.606833,203.457108 Z M146.648495,223.644916 C138.771906,223.30275 132.265159,216.801592 132.60762,208.589602 C132.95008,200.377612 139.456827,194.21862 147.675876,194.560786 C155.552464,194.902953 162.059211,201.404111 161.716751,209.616101 C161.37429,217.485924 154.867543,223.987083 146.648495,223.644916 Z" id="Shape"></path>
                        </g>
                        <g id="齿轮-copy" transform="translate(381.500000, 104.000000) scale(-1, 1) translate(-381.500000, -104.000000) translate(300.000000, 26.000000)" fill="#F0FBFF" fill-rule="nonzero">
                            <g id="齿轮">
                                <path d="M87.56681,23.5836154 L84.1607805,24.7177309 C82.2685418,25.4738079 80.1870794,24.7177309 78.8625123,23.2055769 C77.5379453,21.5044037 76.0241544,19.9922496 74.5103635,18.6691149 C72.9965726,17.3459801 72.428901,15.2667683 73.1857964,13.3765758 L74.5103635,10.1632485 C75.4564828,7.70599827 74.3211396,5.05972874 72.0504533,4.11463249 L68.4551999,2.60247847 L64.8599465,0.901305206 C62.5892601,-0.0437910534 59.7509022,0.901305206 58.615559,3.16953623 L57.1017681,6.38286351 C56.1556488,8.27305603 54.2634102,9.21815228 52.1819477,9.02913303 C50.1004852,8.84011378 48.0190227,8.84011378 45.9375602,8.84011378 C43.8560977,9.02913304 41.9638591,7.89501752 41.2069636,6.00482501 L39.8823966,2.79149772 C38.9362773,0.523266701 36.0979193,-0.61084881 33.827233,0.334247449 L30.2319796,1.65738221 L26.6367262,2.98051697 C24.176816,3.92561323 23.0414728,6.57188276 23.7983683,9.02913303 L24.9337114,12.4314796 C25.6906069,14.3216721 24.9337114,16.4008839 23.4199205,17.7240186 C21.7169058,19.0471534 20.2031149,20.5593074 18.8785478,22.0714614 C17.5539808,23.5836154 15.4725183,24.1506732 13.5802797,23.3945962 L9.98502627,22.0714614 C7.52511605,21.1263652 4.87598197,22.2604807 3.92986266,24.5287117 L2.41607176,28.1200775 L0.902280856,31.7114433 C-0.0438384574,33.9796743 0.902280856,36.8149631 3.17296721,37.9490786 L6.38977288,39.4612326 C8.28201151,40.4063288 9.22813082,42.2965214 9.03890695,44.3757331 C8.84968309,46.4549449 8.84968309,48.5341567 8.84968309,50.6133684 C9.03890696,52.6925802 7.90356378,54.5827727 6.01132515,55.3388497 L2.79451948,56.6619845 C0.52383313,57.6070808 -0.611510047,60.4423695 0.334609269,62.7106006 L1.65917631,66.3019664 L2.98374335,69.8933321 C3.92986266,72.3505824 6.57899674,73.4846979 9.03890695,72.7286209 L12.4449365,71.5945054 C14.3371751,70.8384284 16.4186376,71.5945054 17.7432046,73.1066594 C19.0677717,74.8078327 20.5815626,76.3199867 22.0953535,77.6431215 C23.6091444,78.9662562 24.176816,81.045468 23.4199205,82.9356605 L22.0953535,86.1489878 C21.1492342,88.6062381 22.2845773,91.2525076 24.5552637,92.1976039 L28.1505171,93.7097579 L31.7457705,95.2219119 C34.0164568,96.1670081 36.8548148,95.2219119 37.990158,92.9536809 L39.5039489,89.7403536 C40.4500682,87.8501611 42.3423068,86.9050648 44.4237693,87.0940841 C46.5052318,87.2831033 48.5866943,87.2831033 50.6681568,87.2831033 C52.7496193,87.0940841 54.6418579,88.2281996 55.3987533,90.1183921 L56.7233204,93.3317194 C57.6694397,95.5999504 60.5077976,96.7340659 62.778484,95.7889696 L66.3737374,94.4658349 L69.9689908,93.1427001 C72.428901,92.1976039 73.5642442,89.5513343 72.8073487,87.0940841 L71.6720055,83.6917375 C70.9151101,81.801545 71.6720055,79.7223332 73.1857964,78.3991985 C74.8888112,77.0760637 76.4026021,75.5639097 77.7271691,74.0517557 C79.0517362,72.5396017 81.1331987,71.9725439 83.0254373,72.7286209 L86.242243,74.0517557 C88.7021532,74.9968519 91.3512873,73.8627364 92.2974066,71.5945054 L93.8111975,68.0031396 L95.3249884,64.4117738 C96.2711077,62.1435428 95.3249884,59.308254 93.054302,58.1741385 L89.8374964,56.6619845 C87.9452577,55.7168882 86.9991384,53.8266957 87.1883623,51.747484 C87.3775861,49.6682722 87.3775861,47.5890604 87.3775861,45.5098486 C87.1883623,43.4306369 88.3237055,41.5404444 90.2159441,40.7843673 L93.4327497,39.4612326 C95.7034361,38.5161363 96.8387793,35.6808476 95.89266,33.4126165 L94.5680929,29.8212507 L93.2435259,26.229885 C92.6758543,23.9616539 90.0267202,22.8275384 87.56681,23.5836154 Z M55.0203056,65.7349086 C45.3698886,69.5152936 34.3949046,64.7898123 30.6104273,55.1498305 C26.8259501,45.5098486 31.5565466,34.546732 41.2069636,30.766347 C50.8573806,26.985962 61.8323647,31.7114433 65.6168419,41.3514251 C69.4013192,50.991407 64.6707226,61.9545236 55.0203056,65.7349086 Z M159.850326,78.3991985 L157.390415,78.2101792 C156.065848,78.02116 154.930505,77.0760637 154.362834,75.7529289 C153.984386,74.4297942 153.416714,72.9176402 152.849043,71.7835247 C152.281371,70.4603899 152.470595,68.9482359 153.416714,68.0031396 L155.119729,66.3019664 C156.444296,64.9788316 156.444296,63.0886391 155.119729,61.7655043 L153.22749,59.8753118 L151.335252,57.9851193 C150.199909,56.6619845 148.118446,56.6619845 146.793879,57.7961 L144.90164,59.308254 C143.766297,60.2533503 142.252506,60.4423695 141.117163,59.6862925 C139.792596,58.9302155 138.468029,58.3631578 137.143462,57.9851193 C135.818895,57.6070808 134.872776,56.283946 134.872776,54.9608112 L134.872776,52.503561 C134.872776,50.8023877 133.358985,49.2902337 131.65597,49.2902337 L126.357702,49.2902337 C124.654687,49.2902337 123.140896,50.6133684 122.951672,52.3145417 L122.762448,54.771792 C122.573225,56.0949268 121.627105,57.2290423 120.302538,57.7961 C118.977971,58.1741385 117.46418,58.7411963 116.328837,59.308254 C115.00427,59.8753118 113.490479,59.6862925 112.54436,58.7411963 L110.841345,57.040023 C109.516778,55.7168882 107.624539,55.7168882 106.299972,57.040023 L104.407734,58.9302155 L102.515495,60.820408 C101.190928,61.9545236 101.190928,64.0337353 102.326271,65.3568701 L103.840062,67.2470626 C104.786182,68.3811781 104.975405,69.8933321 104.21851,71.0274476 C103.461614,72.3505824 102.893943,73.6737172 102.515495,74.9968519 C102.137047,76.3199867 100.81248,77.265083 99.4879134,77.265083 L97.0280031,77.265083 C95.3249884,77.265083 93.8111975,78.777237 93.8111975,80.4784102 L93.8111975,85.7709493 C93.8111975,87.4721226 95.1357645,88.9842766 96.8387793,89.1732958 L99.2986895,89.3623151 C100.623257,89.5513343 101.7586,90.4964306 102.326271,91.8195654 C102.704719,93.1427001 103.272391,94.6548541 103.840062,95.7889696 C104.407734,97.1121044 104.21851,98.6242584 103.272391,99.5693547 L101.569376,101.270528 C100.244809,102.593663 100.244809,104.483855 101.569376,105.80699 L103.461614,107.697183 L105.353853,109.587375 C106.489196,110.91051 108.570659,110.91051 109.895226,109.776394 L111.787464,108.26424 C112.922808,107.319144 114.436599,107.130125 115.571942,107.886202 C116.896509,108.642279 118.221076,109.209337 119.545643,109.587375 C120.87021,109.965414 121.816329,111.288548 121.816329,112.611683 L121.816329,115.068933 C121.816329,116.770107 123.33012,118.282261 125.033135,118.282261 L130.331403,118.282261 C132.034418,118.282261 133.548209,116.959126 133.737433,115.257953 L133.926656,112.800702 C134.11588,111.477568 135.062,110.343452 136.386567,109.776394 C137.711134,109.398356 139.224925,108.831298 140.360268,108.26424 C141.684835,107.697183 143.198626,107.886202 144.144745,108.831298 L145.84776,110.532471 C147.172327,111.855606 149.064565,111.855606 150.389132,110.532471 L152.281371,108.642279 L154.17361,106.752086 C155.498177,105.617971 155.498177,103.538759 154.362834,102.215624 L152.849043,100.325432 C151.902923,99.1913162 151.713699,97.6791622 152.470595,96.5450467 C153.22749,95.2219119 153.795162,93.8987771 154.17361,92.5756424 C154.552057,91.2525076 155.876624,90.3074113 157.201191,90.3074113 L159.661102,90.3074113 C161.364116,90.3074113 162.877907,88.7952573 162.877907,87.0940841 L162.877907,81.801545 C162.877907,79.9113525 161.55334,78.3991985 159.850326,78.3991985 Z M127.871493,96.3560274 C120.680986,96.1670081 115.193494,90.1183921 115.382718,83.1246798 C115.571942,75.9419482 121.627105,70.4603899 128.628388,70.6494091 C135.818895,70.8384284 141.306387,76.8870445 141.117163,83.8807568 C141.117163,90.8744691 135.062,96.5450467 127.871493,96.3560274 Z M116.81248,131.233645 L115.298689,131.044625 C114.35257,131.044625 113.784899,130.288548 113.406451,129.532471 C113.217227,128.587375 112.838779,127.831298 112.460332,127.075221 C112.081884,126.319144 112.271108,125.374048 112.838779,124.80699 L113.974122,123.672874 C114.731018,122.916797 114.731018,121.593663 113.974122,120.837586 L112.838779,119.70347 L111.703436,118.569355 C110.946541,117.813278 109.621974,117.624258 108.865078,118.380335 L107.729735,119.325432 C107.162063,119.892489 106.215944,119.892489 105.459049,119.514451 C104.702153,119.136412 103.945258,118.758374 102.999138,118.380335 C102.242243,118.002297 101.674571,117.24622 101.674571,116.490143 L101.674571,114.977989 C101.674571,113.843873 100.728452,112.898777 99.5931089,112.898777 L96.1870794,112.898777 C95.0517362,112.898777 94.1056169,113.654854 94.1056169,114.78897 L93.916393,116.301124 C93.916393,117.24622 93.1594975,117.813278 92.4026021,118.191316 C91.4564828,118.380335 90.6995873,118.758374 89.9426919,119.136412 C89.1857964,119.514451 88.2396771,119.325432 87.6720055,118.758374 L86.5366624,117.624258 C85.7797669,116.868181 84.4551999,116.868181 83.6983044,117.624258 L82.5629612,118.758374 L81.2383942,119.892489 C80.4814987,120.648566 80.2922749,121.971701 81.0491703,122.727778 L81.9952896,123.861894 C82.5629612,124.428951 82.5629612,125.374048 82.1845135,126.130125 C81.8060658,126.886202 81.4276181,127.642279 81.0491703,128.587375 C80.6707226,129.343452 79.9138272,129.91051 79.1569317,129.91051 L77.6431408,129.91051 C76.5077976,129.91051 75.5616783,130.855606 75.5616783,131.989722 L75.5616783,135.392068 C75.5616783,136.526184 76.3185738,137.47128 77.4539169,137.47128 L78.9677078,137.660299 C79.9138272,137.660299 80.4814987,138.416376 80.8599465,139.172453 C81.0491703,140.117549 81.4276181,140.873626 81.8060658,141.629703 C82.1845135,142.38578 81.9952896,143.330877 81.4276181,143.897934 L80.2922749,145.03205 C79.5353794,145.788127 79.5353794,147.111262 80.2922749,147.867339 L81.4276181,149.001454 L82.5629612,150.13557 C83.3198567,150.891647 84.6444237,151.080666 85.4013192,150.324589 L86.5366624,149.379493 C87.1043339,148.812435 88.0504533,148.812435 88.8073487,149.190473 C89.5642442,149.568512 90.3211396,149.94655 91.2672589,150.324589 C92.0241544,150.702628 92.591826,151.458705 92.591826,152.214782 L92.591826,153.726936 C92.591826,154.861051 93.5379453,155.806147 94.6732885,155.806147 L98.079318,155.806147 C99.2146612,155.806147 100.16078,155.05007 100.16078,153.915955 L100.350004,152.403801 C100.350004,151.458705 101.1069,150.891647 101.863795,150.513608 C102.809915,150.324589 103.56681,149.94655 104.323705,149.568512 C105.080601,149.190473 106.02672,149.379493 106.594392,149.94655 L107.729735,151.080666 C108.48663,151.836743 109.811197,151.836743 110.568093,151.080666 L111.703436,149.94655 L112.838779,148.812435 C113.595675,148.056358 113.784899,146.733223 113.028003,145.977146 L112.081884,144.843031 C111.514212,144.275973 111.514212,143.330877 111.89266,142.5748 C112.271108,141.818723 112.649555,141.062646 113.028003,140.117549 C113.406451,139.361472 114.163346,138.794415 114.920242,138.794415 L116.434033,138.794415 C117.569376,138.794415 118.515495,137.849318 118.515495,136.715203 L118.515495,133.312856 C118.704719,132.178741 117.947824,131.233645 116.81248,131.233645 Z M96.9439748,142.38578 C92.591826,142.196761 88.9965726,138.605395 89.1857964,134.068933 C89.3750203,129.532471 92.9702737,126.130125 97.5116464,126.319144 C101.863795,126.508163 105.459049,130.099529 105.269825,134.635991 C105.080601,138.983434 101.485348,142.5748 96.9439748,142.38578 Z" id="Shape"></path>
                            </g>
                        </g>
                        <rect id="Combined-Shape" fill="#82C6A8" fill-rule="nonzero" x="0" y="222" width="176" height="26" rx="13"></rect>
                        <path d="M68.5408245,248.037049 C76.6461361,241.655505 84.5762657,237.912852 92.3312134,236.809092 C103.963635,235.153451 104.853284,242.42307 115.96703,242.42307 C127.080776,242.42307 132.539753,234.619318 143.348648,236.809092 C150.554578,238.268941 159.823475,242.011593 171.15534,248.037049 L68.5408245,248.037049 Z" id="Path-27" fill="#74BCA7" fill-rule="nonzero"></path>
                        <path d="M28.8982784,248.111487 C19.4299379,243.334121 15.1129977,239.061849 15.9474577,235.294671 C16.7819178,231.527493 20.4594325,234.191711 26.9800019,243.287326 C23.0426592,234.815756 22.3780363,229.663865 24.9861331,227.831653 C27.5942299,225.99944 29.4300421,231.826262 30.4935697,245.312119 C36.5923276,236.523127 40.9352833,233.183978 43.5224369,235.294671 C46.1095904,237.405364 42.3872439,241.677636 32.3553974,248.111487 L28.8982784,248.111487 Z" id="Path-26" fill="#75BE9E" fill-rule="nonzero"></path>
                        <g id="robote" transform="translate(366.000000, 117.000000)">
                            <rect id="Rectangle-31" fill="#D1DCEA" fill-rule="nonzero" x="0" y="44" width="85" height="65"></rect>
                            <rect id="Rectangle-31-Copy" fill="#FFFFFF" fill-rule="nonzero" x="0" y="44" width="63" height="65"></rect>
                            <rect id="Rectangle-31-Copy-8" fill="#9FB2CA" fill-rule="nonzero" x="75" y="55" width="6" height="44"></rect>
                            <rect id="Rectangle-31-Copy-7" fill="#FFFFFF" fill-rule="nonzero" x="69" y="55" width="7" height="44"></rect>
                            <g id="LOGO" transform="translate(17.000000, 60.000000)">
                                <g id="Group">
                                    <polygon id="Fill-1" fill="url(#linearGradient-1)" points="13.6022727 0 9.81818182 3.47173583 9.81818182 17.4096386 17.3863636 17.4096386 17.3863636 3.47173583"></polygon>
                                    <polygon id="Fill-4" fill="url(#linearGradient-2)" points="9.81818182 21.0963855 9.81818182 34 13.6022727 30.3696215 17.3863636 34 17.3863636 21.0963855"></polygon>
                                    <polygon id="Fill-7" fill="url(#linearGradient-3)" points="0 12.1469715 0 33.7951807 5.31818182 28.924441 5.31818182 7.1686747"></polygon>
                                    <polygon id="Fill-10" fill="url(#linearGradient-4)" points="21.6818182 28.924441 27 33.7951807 27 12.1469715 21.6818182 7.1686747"></polygon>
                                </g>
                            </g>
                            <rect id="Rectangle-31-Copy-4" fill="#D1DCEA" fill-rule="nonzero" x="15" y="0" width="52" height="40"></rect>
                            <rect id="Rectangle-31-Copy-3" fill="#FFFFFF" fill-rule="nonzero" x="15" y="0" width="39" height="40"></rect>
                            <rect id="Rectangle-31-Copy-6" fill="#D1DCEA" fill-rule="nonzero" x="30" y="40" width="22" height="4"></rect>
                            <rect id="Rectangle-31-Copy-5" fill="#F0EFF8" fill-rule="nonzero" x="30" y="40" width="14" height="4"></rect>
                            <rect id="Rectangle-34" fill="#237A36" fill-rule="nonzero" x="22" y="9" width="9" height="5"></rect>
                            <rect id="Rectangle-34-Copy" fill="#46B05D" fill-rule="nonzero" x="19" y="9" width="9" height="5"></rect>
                            <rect id="Rectangle-34-Copy-3" fill="#237A36" fill-rule="nonzero" x="39" y="9" width="9" height="5"></rect>
                            <rect id="Rectangle-34-Copy-2" fill="#46B05D" fill-rule="nonzero" x="36" y="9" width="9" height="5"></rect>
                            <rect id="Rectangle-34-Copy-4" fill="#C5C3DD" fill-rule="nonzero" x="28" y="27" width="12" height="5" rx="2.5"></rect>
                        </g>
                        <g id="H" transform="translate(64.000000, 48.000000)">
                            <g id="tree" transform="translate(0.000000, 37.000000)">
                                <mask id="mask-6" fill="white">
                                    <use xlink:href="#path-5"></use>
                                </mask>
                                <use id="Mask" fill="#72BBB4" fill-rule="nonzero" xlink:href="#path-5"></use>
                                <path d="M36.5,119.5 L78.5,90.5" id="Line" stroke="#5BA9B3" stroke-linecap="square" fill-rule="nonzero" mask="url(#mask-6)"></path>
                                <path d="M40.5,58.5 L59.5,27.5" id="Line-Copy-2" stroke="#5BA9B3" stroke-linecap="square" fill-rule="nonzero" mask="url(#mask-6)"></path>
                                <path d="M58.5,104.5 L74.5,70.5" id="Line-2" stroke="#5BA9B3" stroke-linecap="square" fill-rule="nonzero" mask="url(#mask-6)"></path>
                                <path d="M49.5,44.5 L64.5,39.5" id="Line-2-Copy-4" stroke="#5BA9B3" stroke-linecap="square" fill-rule="nonzero" mask="url(#mask-6)"></path>
                                <rect id="Rectangle-14" fill="#80C7A7" fill-rule="nonzero" mask="url(#mask-6)" x="-8" y="-1" width="49" height="138"></rect>
                                <path d="M7.5,95.5 L40.5,67.5" id="Line-2-Copy-2" stroke="#5BA9B3" stroke-linecap="round" fill-rule="nonzero" mask="url(#mask-6)" transform="translate(24.000000, 81.500000) scale(-1, 1) translate(-24.000000, -81.500000) "></path>
                                <path d="M4.5,83.5 L25.5,80.5" id="Line-2-Copy-3" stroke="#5BA9B3" stroke-linecap="round" fill-rule="nonzero" mask="url(#mask-6)" transform="translate(15.000000, 82.000000) scale(-1, 1) translate(-15.000000, -82.000000) "></path>
                            </g>
                            <rect id="Rectangle-16" fill="#5CE1D0" fill-rule="nonzero" x="254" y="178" width="146" height="22" rx="11"></rect>
                            <path d="M371.456283,200 L368.663582,200 C360.55974,194.692718 357.552786,191.168522 359.642718,189.427411 C361.732651,187.686301 365.240941,190.440764 370.167588,197.690802 C371.026718,186.566322 372.509708,181.759777 374.616559,183.271169 C376.723409,184.782561 376.186519,189.032355 373.005888,196.020551 C378.27328,188.51758 381.244019,186.319867 381.918105,189.427411 C382.592192,192.534956 379.104917,196.059152 371.456283,200 Z" id="Path-26" fill="#70EADA" fill-rule="nonzero"></path>
                            <g id="Group-19" transform="translate(281.000000, 146.000000)">
                                <g transform="translate(-15.000000, -1.000000)">
                                    <g id="Group-18" transform="translate(21.000000, 20.000000)" fill-rule="nonzero">
                                        <path d="M15.654332,35 C27.0514995,24.0027632 35.1451654,14.5326781 39.9353295,6.58974459 C47.1205756,-5.32465567 35.1121016,1.39719978 21.2539454,12.9479313 C12.0151745,20.648419 4.93052609,27.9991086 0,35 L15.654332,35 Z" id="Path-7" fill="url(#linearGradient-7)"></path>
                                        <path d="M8.88795021,34.1294995 C24.3926249,17.6143157 35.198355,6.65969681 41.3051405,1.26564296" id="Path-8" stroke="#226D86" stroke-linecap="round"></path>
                                    </g>
                                    <path d="M35.5841957,55 L25,54.9012654 C26.7846638,40.7597244 30.0273011,34.125219 34.9319361,24.2657986 C43.9782567,6.08065817 47.9781623,-4.67161728 48.196564,9.12411136 C48.3421652,18.3212638 41.1105144,34.2120815 35.5841957,55 Z" id="Path-7" fill="url(#linearGradient-7)" fill-rule="nonzero"></path>
                                    <path d="M20.5229773,44.5109532 C37.8892468,30.2566938 49.6257743,20.4325372 55.7325598,15.0384833" id="Path-8" stroke="#226D86" stroke-linecap="round" fill-rule="nonzero" transform="translate(38.127769, 29.774718) rotate(-31.000000) translate(-38.127769, -29.774718) "></path>
                                    <path d="M24.5730072,55.0417714 L15,55.0417714 C16.7846638,40.9002304 16.2063389,36.9607444 19.7212055,22.9378778 C24.5841957,3.53655432 31.2435398,-6.402803 31.4619416,7.39292564 C31.6075427,16.5900781 30.0993259,34.2538529 24.5730072,55.0417714 Z" id="Path-7-Copy" fill="url(#linearGradient-7)" fill-rule="nonzero"></path>
                                    <path d="M8.11395236,45.5067578 C24.2107845,25.8232099 35.3125933,13.284409 41.4193788,7.89035519" id="Path-8-Copy" stroke="#226D86" stroke-linecap="round" fill-rule="nonzero" transform="translate(24.766666, 26.698557) rotate(-31.000000) translate(-24.766666, -26.698557) "></path>
                                </g>
                            </g>
                            <polygon id="X" fill="url(#linearGradient-8)" points="161.747899 95.2380952 97.3221289 0 158.302521 0 197.518207 63.8655462 238.134454 0 296.313725 0 232.168067 95.5182073 301.915966 200 239.535014 200 195.837535 130.812325 151.29972 200 92 200"></polygon>
                            <polygon id="X-Copy" fill="url(#linearGradient-9)" points="131.747899 95.2380952 67.3221289 0 128.302521 0 167.518207 63.8655462 208.134454 0 266.313725 0 202.168067 95.5182073 271.915966 200 209.535014 200 165.837535 130.812325 121.29972 200 62 200"></polygon>
                            <rect id="Rectangle-16" fill="#82C6A8" fill-rule="nonzero" x="36" y="200" width="161" height="22" rx="11"></rect>
                            <path d="M200,200 L294,200 C300.075132,200 305,204.924868 305,211 C305,217.075132 300.075132,222 294,222 L200,222 C206.075132,222 211,217.075132 211,211 C211,204.924868 206.075132,200 200,200 Z" id="Combined-Shape" fill="#82C6A8" fill-rule="nonzero"></path>
                            <path d="M110,221.842322 C115.156827,217.630688 121.386112,215.524872 128.687856,215.524872 C139.640473,215.524872 141.536921,221.137307 150.859203,216.890219 C156.313775,214.4052 160.677025,208 172.469954,208 C184.310371,208 185.628657,221.842322 183.796656,221.842322 C182.575322,221.842322 157.976436,221.842322 110,221.842322 Z" id="Path-4" fill="#74BCA7" fill-rule="nonzero"></path>
                            <g id="小草" transform="translate(160.000000, 179.000000)" fill-rule="nonzero">
                                <path d="M17.7364223,21.0369271 C24.819626,15.5100343 27.9982687,10.9604286 27.2723505,7.38810993 C26.5464323,3.8157913 23.3677896,6.34248982 17.7364223,14.9682055 C22.2588846,6.17453779 22.8523661,1.26277987 19.5168668,0.232931746 C16.1813676,-0.79691638 14.4387532,1.58814301 14.2890237,7.38810993 C13.6658279,1.84548801 12.2076921,-0.53957138 9.91461621,0.232931746 C6.47500239,1.39168644 7.75859963,10.1434245 9.91461621,14.9682055 C6.07720847,8.37728224 3.0163824,6.31717728 0.732138022,8.78789059 C-1.55210636,11.2586039 1.5087197,15.3416161 9.91461621,21.0369271 L17.7364223,21.0369271 Z" id="Path-5" fill="#82C6A8"></path>
                                <path d="M17.9987829,5 C16.666261,9.78303789 16,14.2089929 16,18.2778651 C19.027633,16.8577932 21.5499263,14.8775941 23.5668799,12.3372677" id="Path-6" stroke="#72BBB4" stroke-linecap="round"></path>
                                <path d="M3.82958381,4.0096489 C3.31841495,9.45292085 3.06283053,14.2089929 3.06283053,18.2778651 C6.71524315,16.0621195 9.54992628,13.6840834 11.5668799,11.143757" id="Path-6-Copy" stroke="#72BBB4" stroke-linecap="round" transform="translate(7.314855, 11.143757) scale(-1, 1) translate(-7.314855, -11.143757) "></path>
                            </g>
                        </g>
                        <g id="man" transform="translate(155.000000, 136.000000)">
                            <rect id="Rectangle-19" fill="#9D6D6E" fill-rule="nonzero" x="11" y="16" width="4" height="4"></rect>
                            <rect id="Rectangle-26" fill="#BD6FF3" fill-rule="nonzero" x="6" y="102" width="4" height="6"></rect>
                            <rect id="Rectangle-26-Copy" fill="#BD6FF3" fill-rule="nonzero" x="17" y="102" width="4" height="6"></rect>
                            <g id="衣服" transform="translate(0.000000, 18.000000)">
                                <g id="Rectangle-35-+-Rectangle-35-Copy-+-Rectangle-35-Copy-2-+-Rectangle-35-Copy-3-+-Rectangle-35-Copy-4-Mask">
                                    <mask id="mask-11" fill="white">
                                        <use xlink:href="#path-10"></use>
                                    </mask>
                                    <use id="Mask" fill="#85E8F9" fill-rule="nonzero" xlink:href="#path-10"></use>
                                    <rect id="Rectangle-35" fill="#FFFFFF" fill-rule="nonzero" mask="url(#mask-11)" x="4" y="3" width="19" height="3"></rect>
                                    <rect id="Rectangle-35-Copy" fill="#FFFFFF" fill-rule="nonzero" mask="url(#mask-11)" x="4" y="9" width="19" height="3"></rect>
                                    <rect id="Rectangle-35-Copy-2" fill="#FFFFFF" fill-rule="nonzero" mask="url(#mask-11)" x="4" y="15" width="19" height="3"></rect>
                                    <rect id="Rectangle-35-Copy-3" fill="#FFFFFF" fill-rule="nonzero" mask="url(#mask-11)" x="3" y="21" width="20" height="3"></rect>
                                    <rect id="Rectangle-35-Copy-4" fill="#FFFFFF" fill-rule="nonzero" mask="url(#mask-11)" x="3" y="27" width="20" height="3"></rect>
                                </g>
                                <rect id="Rectangle-36" fill="#85E8F9" fill-rule="nonzero" x="22" y="4" width="5" height="17" rx="2.5"></rect>
                                <path d="M12.8663855,7.28379049 L15.5582693,10.0628561 L4.28860753,23.089482 C3.44311243,24.1190827 2.38227838,24.2329744 1.1061054,23.4311571 C-0.808154083,22.2284312 0.219799598,19.6350029 0.810182111,18.5569328 C1.20377045,17.8382194 5.2225049,14.0805053 12.8663855,7.28379049 Z" id="Path-10" fill="#85E8F9" fill-rule="nonzero"></path>
                                <path d="M12,7.57645938 C11.8777002,6.47392426 12.5629049,5.33368577 14.055614,4.15574393 C14.3024678,3.96094412 14.7367448,3.73670454 15.358445,3.48302521 C18.2285847,2.54591878 19.860005,2.07736557 20.2527058,2.07736557 C20.841757,2.07736557 21.0691503,2.91152949 20.5328268,3.33659165 C20.1752778,3.61996642 19.1431129,4.08129196 17.436332,4.72056828 C18.4087102,5.53758243 18.8030333,6.42807527 18.6193013,7.39204679 C18.3437033,8.83800408 16.8122101,10.4201945 15.2555548,10.4201945 C14.4537911,10.4201945 13.2962827,9.97978391 12.4379169,8.84819631 C12.2694715,8.62613408 12.1234993,8.20222177 12,7.57645938 Z" id="Path-11" fill="#7D5152" fill-rule="nonzero"></path>
                                <rect id="Rectangle-21" fill="#000000" fill-rule="nonzero" x="5" y="28" width="17" height="2"></rect>
                                <rect id="Rectangle-22" fill="#FFFFFF" fill-rule="nonzero" x="12" y="28" width="4" height="2"></rect>
                                <path d="M27.4588955,1.06966642 L23.029604,1.06966642 C22.6677441,1.06966642 22.3341146,1.26515592 22.157226,1.58083454 L17.1684737,10.4838497 C16.8984993,10.9656508 17.0702188,11.5750852 17.5520199,11.8450596 C17.7013548,11.9287385 17.8696703,11.9726816 18.0408517,11.9726816 L22.4383252,11.9726816 C22.7992134,11.9726816 23.1321045,11.7782315 23.3093725,11.4638808 L28.3299428,2.56086564 C28.6012246,2.07979952 28.4311609,1.469901 27.9500947,1.19861916 C27.8001861,1.11408296 27.6309972,1.06966642 27.4588955,1.06966642 Z" id="Path-29" fill="#000000" fill-rule="nonzero"></path>
                                <path d="M23.5402269,12.2859558 C20.7952093,12.2859558 20,9.32000039 20,8.57219454 C20,7.8243887 20.54963,5.48177883 22.9066489,5.01818514 C22.9599334,4.7437185 22.8695599,4.50729667 22.6355285,4.30891964 C22.2844814,4.01135411 22.1106433,3.4918444 22.4429218,3.16448587 C22.7752003,2.83712734 23.3586197,3.05870706 23.5402269,3.30698204 C23.6612983,3.4724987 24.5966123,4.39435053 26.3461689,6.07253755 L27.2477943,4.51619508 L27.2477943,8.6921347 C26.6060944,11.0880154 25.3702386,12.2859558 23.5402269,12.2859558 Z" id="Path-28" fill="#7D5152" fill-rule="nonzero"></path>
                            </g>
                            <path d="M11,58 L11,100 L5,100 L5,48 L11,48 L16,48 L22,48 L22,100 L16,100 L16,58 C16,56.8954305 15.1045695,56 14,56 L13,56 C11.8954305,56 11,56.8954305 11,58 Z" id="Combined-Shape" fill="url(#linearGradient-12)" fill-rule="nonzero"></path>
                            <rect id="Rectangle-25" fill="#16337F" fill-rule="nonzero" x="4" y="100" width="8" height="3"></rect>
                            <rect id="Rectangle-25-Copy" fill="#16337F" fill-rule="nonzero" x="15" y="100" width="8" height="3"></rect>
                            <g id="鞋2" transform="translate(5.000000, 104.000000)" fill-rule="nonzero">
                                <path d="M3,0 C4.38828712,0 5.45300293,2.83799863 5.45300293,3.61424543 C5.45300293,4.39049223 6.89369783,8.0861391 5.09886129,8.0861391 C3.9023036,8.0861391 2.43938297,8.0861391 0.710099392,8.0861391 C0.236699797,7.79479252 3.58613497e-17,7.25867904 0,6.47779866 C-1.04083409e-17,5.30647809 0.464050332,4.28005736 0.710099392,3.61424543 C0.956148453,2.9484335 1.61171288,0 3,0 Z" id="Path-12" fill="#16337F"></path>
                                <path d="M0.154667353,6.81315632 C0.464002059,6.81315632 1.13670441,7.56221562 1.44062034,7.56221562 C1.74453627,7.56221562 2.21643426,6 3.10851963,6 C4.000605,6 4.49448774,7.56221562 4.82936811,7.56221562 C5.16424847,7.56221562 5.51312621,6.81315632 5.96272981,6.81315632 C6.26246554,6.81315632 6.26246554,7.23748392 5.96272981,8.0861391 L0.154667353,8.0861391 C-0.0515557843,7.23748392 -0.0515557843,6.81315632 0.154667353,6.81315632 Z" id="Path-13" fill="#04203B"></path>
                            </g>
                            <g id="鞋1" transform="translate(18.500000, 108.500000) scale(-1, 1) translate(-18.500000, -108.500000) translate(15.000000, 104.000000)" fill-rule="nonzero">
                                <path d="M3,0 C4.38828712,0 5.45300293,2.83799863 5.45300293,3.61424543 C5.45300293,4.39049223 6.89369783,8.0861391 5.09886129,8.0861391 C3.9023036,8.0861391 2.43938297,8.0861391 0.710099392,8.0861391 C0.236699797,7.79479252 3.58613497e-17,7.25867904 0,6.47779866 C-1.04083409e-17,5.30647809 0.464050332,4.28005736 0.710099392,3.61424543 C0.956148453,2.9484335 1.61171288,0 3,0 Z" id="Path-12" fill="#16337F"></path>
                                <path d="M0.154667353,6.81315632 C0.464002059,6.81315632 1.13670441,7.56221562 1.44062034,7.56221562 C1.74453627,7.56221562 2.21643426,6 3.10851963,6 C4.000605,6 4.49448774,7.56221562 4.82936811,7.56221562 C5.16424847,7.56221562 5.55127058,6.81315632 6.00087418,6.81315632 C6.30060991,6.81315632 6.30060991,7.23748392 6.00087418,8.0861391 L0.154667353,8.0861391 C-0.0515557843,7.23748392 -0.0515557843,6.81315632 0.154667353,6.81315632 Z" id="Path-13" fill="#04203B"></path>
                            </g>
                            <g id="头" transform="translate(6.000000, 0.000000)" fill-rule="nonzero">
                                <path d="M3,0 L11,0 C12.1045695,-2.02906125e-16 13,0.8954305 13,2 L13,7 L1,7 L1,2 C1,0.8954305 1.8954305,2.02906125e-16 3,0 Z" id="Rectangle-38" fill="#000000"></path>
                                <rect id="Rectangle-17" fill="#B7898A" x="1" y="1" width="12" height="16" rx="6"></rect>
                                <circle id="Oval-8" fill="#9D6D6E" cx="13" cy="8" r="1"></circle>
                                <circle id="Oval-8-Copy" fill="#9D6D6E" cx="1" cy="8" r="1"></circle>
                                <rect id="Rectangle-37" fill="#000000" x="9" y="6" width="1" height="1" rx="0.5"></rect>
                                <rect id="Rectangle-37-Copy" fill="#000000" x="4" y="6" width="1" height="1" rx="0.5"></rect>
                                <rect id="Rectangle-37-Copy-3" fill="#000000" x="9" y="4" width="2" height="1" rx="0.5"></rect>
                                <rect id="Rectangle-37-Copy-2" fill="#000000" x="3" y="4" width="2" height="1" rx="0.5"></rect>
                                <path d="M13,10 L13,11 C13,14.3137085 10.3137085,17 7,17 C3.6862915,17 1,14.3137085 1,11 L1,10 L2,10 L2,11 C2,11.5522847 2.44771525,12 3,12 C3.55228475,12 4,11.5522847 4,11 L4,10 C5.12918745,9.33333333 6.12918745,9 7,9 C7.87081255,9 8.87081255,9.33333333 10,10 L10,11 C10,11.5522847 10.4477153,12 11,12 C11.5522847,12 12,11.5522847 12,11 L12,10 L13,10 Z" id="Combined-Shape" fill="#000000"></path>
                                <path d="M5,11 L9,11 C9,12.1045695 8.1045695,13 7,13 C5.8954305,13 5,12.1045695 5,11 Z" id="Combined-Shape" fill="#FFFFFF"></path>
                            </g>
                        </g>
                        <g id="Group-24" transform="translate(21.000000, 95.000000)" fill-rule="nonzero">
                            <path d="M13.2289588,24 L17.7710412,24 L21.8900836,24.4427859 C23.3064034,24.8626042 24.1455113,25.7405665 24.4074072,27.0766727 C24.6693031,28.412779 25.1941964,33.7464029 26.6606957,43.9957612 L22.4121252,44.594694 L22.6090454,51.6604056 C23.8871084,52.6945971 24.8897303,53.8077952 25.6169109,55 L5.38308909,55 C6.11026973,53.8077952 7.11289157,52.6945971 8.39095462,51.6604056 L8.58388301,44.594694 L4.2902153,43.9957612 C5.7567146,33.7464029 6.33069691,28.412779 6.59259283,27.0766727 C6.85448875,25.7405665 7.69359659,24.8626042 9.10991636,24.4427859 L13.2289588,24 Z" id="Combined-Shape" fill="#FD69FC"></path>
                            <rect id="Rectangle-41" fill="#FFFFFF" x="14" y="26" width="3" height="29"></rect>
                            <path d="M20,19.1904278 L20,15 L11,15 L11,19.1904278 C9.76732995,18.0074979 9,16.3433587 9,14.5 C9,11.7003104 10.7700365,9.31403488 13.2520929,8.39919004 C11.9058857,7.62141716 11,6.16649906 11,4.5 C11,2.01471863 13.0147186,0 15.5,0 C17.9852814,0 20,2.01471863 20,4.5 C20,6.16649906 19.0941143,7.62141716 17.7479071,8.39919004 C20.2299635,9.31403488 22,11.7003104 22,14.5 C22,16.3433587 21.2326701,18.0074979 20,19.1904278 Z" id="Combined-Shape" fill="#000000"></path>
                            <path d="M14,23 L17,23 L17,27.5 C17,28.3284271 16.3284271,29 15.5,29 L15.5,29 C14.6715729,29 14,28.3284271 14,27.5 L14,23 Z" id="Rectangle-40" fill="#B77C54"></path>
                            <circle id="Oval-17" fill="#9C5B37" cx="15.5" cy="23.5" r="1.5"></circle>
                            <path d="M11,15 L20,15 L20,19.5 C20,21.9852814 17.9852814,24 15.5,24 L15.5,24 C13.0147186,24 11,21.9852814 11,19.5 L11,15 Z" id="Rectangle-39-Copy" fill="#B77C54"></path>
                            <path d="M14,20 L17,20 C17,21.1045695 16.3284271,22 15.5,22 C14.6715729,22 14,21.1045695 14,20 Z" id="Combined-Shape" fill="#FFFFFF"></path>
                            <circle id="Oval-15" stroke="#FFFFFF" cx="13.5" cy="15.5" r="2"></circle>
                            <circle id="Oval-15-Copy" stroke="#FFFFFF" cx="17.5" cy="15.5" r="2"></circle>
                            <circle id="Oval-16" fill="#000000" cx="13.5" cy="15.5" r="1"></circle>
                            <circle id="Oval-16-Copy" fill="#000000" cx="17.5" cy="15.5" r="1"></circle>
                            <polygon id="Path-30" fill="#0394CC" points="5.40313121 55.0093334 25.605285 55.0093334 23.1532614 98.0660335 8.24742404 98.0660335"></polygon>
                            <polygon id="Rectangle-42" fill="#B77C54" points="9 98 14 98 14 123 10 123"></polygon>
                            <polygon id="Rectangle-42-Copy" fill="#B77C54" points="22 98 21 123 17 123 17 98"></polygon>
                            <path d="M4.34087337,44 L3.00164359,63.5650033 L0.742152295,66.3012546 C0.639865625,66.5703466 0.556291312,66.8420727 0.491429356,67.1164329 C0.426567401,67.3907931 0.328775878,68.0844896 0.198054787,69.1975226 L0.000613362499,71.1825432 C-0.00975154273,71.5707631 0.111247053,71.764873 0.36360915,71.764873 C0.742152295,71.764873 0.932545046,71.4341043 0.932545046,71.3083237 C0.932545046,71.2244701 0.99423416,70.4649144 1.11761239,69.0296566 L2.65988556,66.7514654 C2.88772424,66.6751359 3.00164359,66.7168814 3.00164359,66.876702 C3.00164359,67.0365226 2.63765897,67.5689255 1.90968973,68.4739107 C1.73585842,68.7932346 1.73585842,69.0344385 1.90968973,69.1975226 C2.17043668,69.4421487 2.47549811,69.3653886 2.65988556,69.1975226 C2.78281052,69.0856119 3.54363537,68.0080921 4.9423601,65.9649632 C5.00300671,65.6501266 5.03333001,65.3185873 5.03333001,64.9703452 C5.03333001,64.6221032 5.16422824,63.7720232 5.4260247,62.4201053 L7.92678983,48.1201994 L8.60606408,44.5955089 L4.34087337,44 Z" id="Path-31" fill="#B77C54"></path>
                            <path d="M26.7419457,44.0054756 L25.402716,63.5704788 L23.1432247,66.3067302 C23.040938,66.5758222 22.9573637,66.8475483 22.8925017,67.1219085 C22.8276398,67.3962686 22.7298483,68.0899652 22.5991272,69.2029982 L22.4016857,71.1880188 C22.3913208,71.5762387 22.5123194,71.7703486 22.7646815,71.7703486 C23.1432247,71.7703486 23.3336174,71.4395798 23.3336174,71.3137993 C23.3336174,71.2299456 23.3953065,70.4703899 23.5186848,69.0351322 L25.0609579,66.756941 C25.2887966,66.6806115 25.402716,66.722357 25.402716,66.8821776 C25.402716,67.0419982 25.0387313,67.5744011 24.3107621,68.4793862 C24.1369308,68.7987101 24.1369308,69.0399141 24.3107621,69.2029982 C24.5715091,69.4476243 24.8765705,69.3708642 25.0609579,69.2029982 C25.1838829,69.0910875 25.9447077,68.0135677 27.3434325,65.9704388 C27.4040791,65.6556022 27.4344024,65.3240629 27.4344024,64.9758208 C27.4344024,64.6275787 27.5653006,63.7774987 27.8270971,62.4255808 L30.3278622,48.125675 L31.0071365,44.6009845 L26.7419457,44.0054756 Z" id="Path-31-Copy" fill="#B77C54" transform="translate(26.704104, 57.887912) scale(-1, 1) translate(-26.704104, -57.887912) "></path>
                            <path d="M6,127 C6.04667974,126.012214 6.1853344,125.342719 6.41596397,124.991515 C6.76190832,124.464708 8.3418989,123.334865 8.3418989,122.559693 C8.3418989,121.784521 9.65071182,120 11.355907,120 C13.0611021,120 14.0888476,121.245609 14.3635856,121.700724 C14.6383235,122.15584 14.9002048,124.594849 14.9002048,124.991515 C14.9002048,125.38818 15.3428712,127 14.3635856,127 C13.7107285,127 10.9228666,127 6,127 Z" id="Path-32" fill="#2E3192"></path>
                            <path d="M25,127 C20.0771334,127 17.2892715,127 16.6364144,127 C15.6571288,127 16.0997952,125.38818 16.0997952,124.991515 C16.0997952,124.594849 16.3616765,122.15584 16.6364144,121.700724 C16.9111524,121.245609 17.9388979,120 19.644093,120 C21.3492882,120 22.6581011,121.784521 22.6581011,122.559693 C22.6581011,123.334865 24.2380917,124.464708 24.584036,124.991515 C24.8146656,125.342719 24.9533203,126.012214 25,127 Z" id="Path-32-Copy" fill="#2E3192"></path>
                        </g>
                    </g>
                </g>
            </g>
        </g>
    </g>
</svg>