<?xml version="1.0" encoding="UTF-8"?>
<svg width="464px" height="270px" viewBox="0 0 464 270" version="1.1" xmlns="http://www.w3.org/2000/svg" xmlns:xlink="http://www.w3.org/1999/xlink">
    <!-- Generator: Sketch 51.1 (57501) - http://www.bohemiancoding.com/sketch -->
    <title>message</title>
    <desc>Created with Sketch.</desc>
    <defs>
        <path d="M37.87115,221.088495 C54.4130497,217.906115 63.7870446,211.259258 65.9931347,201.147922 C67.7702704,193.002644 79.2031778,161.770629 74.0645593,165.523555 C70.3627541,168.227122 73.7665293,160.064012 74.3028449,157.071345 C74.6684895,155.031029 76.0984119,150.072762 75.3923051,150.989409 C72.2789845,155.031029 77.7747518,137.705992 78.8260918,131.996493 C80.4677672,123.081068 78.0352792,108.585035 76.5558737,112.261427 C75.0764683,115.937818 78.0352792,105.133882 76.5558737,99.0938081 C75.4839932,94.7175651 73.6643943,91.4377204 74.0645593,83.6356307 C74.3183475,78.6874748 70.6941003,72.2361987 70.3627541,67.6459374 C69.9789887,62.3294945 67.3481385,55.9462693 65.9931347,54.3509673 C61.6235153,49.2064336 62.8938836,48.0169969 58.9543004,41.2143071 C53.9993766,32.6583744 52.4004127,31.5548233 50.3020001,23.525704 C49.4539919,20.2809851 47.5857474,20.5409139 46.4732636,14.9944004 C42.6079173,-4.27706756 41.0557742,3.85032663 37.87115,1.71994948 C34.6865259,-0.410427667 32.2868354,-1.04634953 30.7861532,3.02526277 C30.5194932,3.74875798 31.424695,6.51658516 30.7861532,8.93276791 C30.1516111,11.3338168 27.973338,6.33764467 27.699755,8.82898259 C27.2995437,12.4734405 28.4462109,14.3536045 27.699755,18.0319001 C26.5802055,23.548682 24.2883945,27.5335656 22.9464899,30.2246122 C21.7889748,32.545885 21.4440433,37.654 19.3900671,41.2143071 C17.7944195,43.9801597 16.370792,46.6684667 14.6311877,49.2887436 C11.9093158,53.3885598 9.12176948,57.3092189 9.12176948,61.0030394 C9.12176948,65.8932362 6.73472286,74.1978369 6.44099127,82.4001438 C6.18851693,89.4503631 3.98657649,93.35431 2.23829097,97.431163 C1.43198268,99.3114053 2.63271693,107.390344 2.23829097,112.261427 C2.00067887,115.195889 4.48632649,127.066317 1.89744465,122.120733 C-0.691437192,117.175149 2.14233908,133.630335 2.52993638,139.862252 C2.68427151,142.343703 3.38919667,148.050673 3.05541453,147.359773 C1.03922248,143.186428 7.09930647,171.710695 4.48632649,167.490293 C2.63601115,164.501723 6.10251323,178.399939 6.44099127,181.3393 C9.12176948,204.619319 18.1006409,221.088495 33.379543,221.088495 C35.0587783,221.088495 36.5559806,221.088495 37.87115,221.088495 Z" id="path-1"></path>
        <linearGradient x1="95.9253146%" y1="6.54354596%" x2="18.4039331%" y2="100%" id="linearGradient-3">
            <stop stop-color="#5BA7C9" offset="0%"></stop>
            <stop stop-color="#276C9B" offset="100%"></stop>
        </linearGradient>
        <linearGradient x1="50%" y1="0%" x2="50%" y2="97.6743136%" id="linearGradient-4">
            <stop stop-color="#853ADA" offset="0%"></stop>
            <stop stop-color="#6524CA" offset="100%"></stop>
        </linearGradient>
        <linearGradient x1="50%" y1="100%" x2="50%" y2="3.061617e-15%" id="linearGradient-5">
            <stop stop-color="#6120C8" offset="0%"></stop>
            <stop stop-color="#450DBA" offset="100%"></stop>
        </linearGradient>
        <linearGradient x1="-1.11022302e-14%" y1="50%" x2="100%" y2="50%" id="linearGradient-6">
            <stop stop-color="#37BFF2" offset="0%"></stop>
            <stop stop-color="#00AEEF" offset="100%"></stop>
        </linearGradient>
        <linearGradient x1="50%" y1="0%" x2="50%" y2="98.9207009%" id="linearGradient-7">
            <stop stop-color="#17175E" offset="0%"></stop>
            <stop stop-color="#080219" offset="100%"></stop>
        </linearGradient>
        <linearGradient x1="100%" y1="50%" x2="-2.22044605e-14%" y2="50%" id="linearGradient-8">
            <stop stop-color="#FFC358" offset="0%"></stop>
            <stop stop-color="#D58325" offset="100%"></stop>
        </linearGradient>
        <linearGradient x1="100%" y1="50%" x2="-2.22044605e-14%" y2="50%" id="linearGradient-9">
            <stop stop-color="#FAD773" offset="0%"></stop>
            <stop stop-color="#FAAE28" offset="100%"></stop>
        </linearGradient>
        <linearGradient x1="97.5885116%" y1="50%" x2="3.34402095%" y2="50%" id="linearGradient-10">
            <stop stop-color="#FFE2AF" offset="0%"></stop>
            <stop stop-color="#FFC889" offset="100%"></stop>
        </linearGradient>
    </defs>
    <g id="HEX上线预热" stroke="none" stroke-width="1" fill="none" fill-rule="evenodd">
        <g transform="translate(-1036.000000, -4289.000000)" id="Group-18">
            <g transform="translate(420.000000, 4289.000000)">
                <g id="message" transform="translate(616.000000, 0.000000)">
                    <g>
                        <g id="灯泡" transform="translate(11.000000, 0.000000)" fill="#F0FBFF" fill-rule="nonzero">
                            <path d="M110.295455,103 L95.5,124 L80.7045455,103 L12,103 C5.372583,103 8.11624501e-16,97.627417 0,91 L0,29 C-8.11624501e-16,22.372583 5.372583,17 12,17 L116,17 C122.627417,17 128,22.372583 128,29 L128,91 C128,97.627417 122.627417,103 116,103 L110.295455,103 Z M21,38 L21,46 L107,46 L107,38 L21,38 Z M21,54 L21,62 L107,62 L107,54 L21,54 Z M21,70 L21,78 L80,78 L80,70 L21,70 Z" id="Combined-Shape"></path>
                            <g id="Combined-Shape-Copy-5" transform="translate(373.000000, 0.000000)">
                                <path d="M68.9613448,53.81252 L59.6875,67 L50.4403409,53.8504673 L12,53.8504673 C5.372583,53.8504673 8.11624501e-16,48.4778843 0,41.8504673 L0,12 C-8.11624501e-16,5.372583 5.372583,1.21743675e-15 12,0 L68,0 C74.627417,-7.10376551e-15 80,5.372583 80,12 L80,41.8504673 C80,48.1542846 75.1392669,53.3228168 68.9613448,53.81252 Z M13.125,13.1495327 L13.125,18.1588785 L66.875,18.1588785 L66.875,13.1495327 L13.125,13.1495327 Z M13.125,23.1682243 L13.125,28.1775701 L66.875,28.1775701 L66.875,23.1682243 L13.125,23.1682243 Z M13.125,33.1869159 L13.125,38.1962617 L50,38.1962617 L50,33.1869159 L13.125,33.1869159 Z" transform="translate(40.000000, 33.500000) scale(-1, 1) translate(-40.000000, -33.500000) "></path>
                            </g>
                        </g>
                        <g id="齿轮-copy" transform="translate(242.000000, 124.000000) scale(-1, 1) translate(-242.000000, -124.000000) translate(133.000000, 0.000000)">
                            <g id="齿轮"></g>
                        </g>
                        <g id="H">
                            <rect id="Combined-Shape" fill="#4EAE92" fill-rule="nonzero" x="0" y="222" width="192" height="26" rx="13"></rect>
                            <path d="M47,248 C55.1053115,241.407226 63.0354412,237.540692 70.7903889,236.400397 C82.4228105,234.689955 83.3124598,242.200199 94.4262056,242.200199 C105.539951,242.200199 110.998929,234.138142 121.807823,236.400397 C129.013753,237.908567 138.282651,241.775102 149.614515,248 L47,248 Z" id="Path-27" fill="#74BCA7" fill-rule="nonzero"></path>
                            <path d="M28.8982784,248.111487 C19.4299379,243.334121 15.1129977,239.061849 15.9474577,235.294671 C16.7819178,231.527493 20.4594325,234.191711 26.9800019,243.287326 C23.0426592,234.815756 22.3780363,229.663865 24.9861331,227.831653 C27.5942299,225.99944 29.4300421,231.826262 30.4935697,245.312119 C36.5923276,236.523127 40.9352833,233.183978 43.5224369,235.294671 C46.1095904,237.405364 42.3872439,241.677636 32.3553974,248.111487 L28.8982784,248.111487 Z" id="Path-26" fill="#75BE9E" fill-rule="nonzero"></path>
                            <g id="Rectangle-14" transform="translate(329.000000, 7.000000)">
                                <mask id="mask-2" fill="white">
                                    <use xlink:href="#path-1"></use>
                                </mask>
                                <use id="Mask" fill="#72BBB4" fill-rule="nonzero" xlink:href="#path-1"></use>
                                <path d="M34.5,189.5 L74.5,164.5" id="Line" stroke="#5BA9B3" stroke-linecap="square" fill-rule="nonzero" mask="url(#mask-2)"></path>
                                <path d="M46.5,58.5 L69.5,58.5" id="Line-Copy" stroke="#5BA9B3" stroke-linecap="square" fill-rule="nonzero" mask="url(#mask-2)"></path>
                                <path d="M56.5,175.5 L82.5,120.5" id="Line-2" stroke="#5BA9B3" stroke-linecap="square" fill-rule="nonzero" mask="url(#mask-2)"></path>
                                <path d="M32.5,85.5 L55.5,37.5" id="Line-2-Copy" stroke="#5BA9B3" stroke-linecap="square" fill-rule="nonzero" mask="url(#mask-2)"></path>
                                <rect fill="#80C7A7" fill-rule="nonzero" mask="url(#mask-2)" x="-13" y="-7" width="49" height="228"></rect>
                                <path d="M21.5,61.5 L35.5,29.5" id="Line-2-Copy" stroke="#5BA9B3" stroke-linecap="round" fill-rule="nonzero" mask="url(#mask-2)" transform="translate(28.500000, 45.500000) scale(-1, 1) translate(-28.500000, -45.500000) "></path>
                                <path d="M-6.5,139.5 L35.5,96.5" id="Line-2-Copy-5" stroke="#5BA9B3" stroke-linecap="round" fill-rule="nonzero" mask="url(#mask-2)" transform="translate(14.500000, 118.000000) scale(-1, 1) translate(-14.500000, -118.000000) "></path>
                            </g>
                            <rect id="Rectangle-16" fill="#74BCA7" fill-rule="nonzero" x="272" y="222" width="192" height="26" rx="13"></rect>
                            <path d="M435.456283,248 L432.663582,248 C424.55974,242.692718 421.552786,239.168522 423.642718,237.427411 C425.732651,235.686301 429.240941,238.440764 434.167588,245.690802 C435.026718,234.566322 436.509708,229.759777 438.616559,231.271169 C440.723409,232.782561 440.186519,237.032355 437.005888,244.020551 C442.27328,236.51758 445.244019,234.319867 445.918105,237.427411 C446.592192,240.534956 443.104917,244.059152 435.456283,248 Z" id="Path-26" fill="#82CBB5" fill-rule="nonzero"></path>
                            <g id="Group-19" transform="translate(320.000000, 183.000000)">
                                <g transform="translate(-10.714286, -0.722222)">
                                    <g id="Group-18" transform="translate(15.000000, 14.444444)" fill-rule="nonzero">
                                        <path d="M11.1816657,25.2777778 C19.3224997,17.335329 25.1036895,10.4958231 28.5252353,4.75925998 C33.657554,-3.84558465 25.0800726,1.00908873 15.1813895,9.35128372 C8.58226753,14.912747 3.52180435,20.2215784 0,25.2777778 L11.1816657,25.2777778 Z" id="Path-7" fill="url(#linearGradient-3)"></path>
                                        <path d="M6.34853586,24.649083 C17.4233035,12.7214502 25.1416822,4.80978103 29.5036718,0.914075472" id="Path-8" stroke="#226D86" stroke-linecap="round"></path>
                                    </g>
                                    <path d="M25.4172826,39.7222222 L17.8571429,39.6509139 C19.1319027,29.4375787 21.4480722,24.6459915 24.9513829,17.525299 C31.4130405,4.39158645 34.2701159,-3.37394581 34.4261172,6.58963598 C34.530118,13.2320238 29.3646531,24.7087255 25.4172826,39.7222222 Z" id="Path-7" fill="url(#linearGradient-3)" fill-rule="nonzero"></path>
                                    <path d="M14.6592695,32.1467995 C27.0637477,21.8520566 35.4469817,14.7568324 39.8089713,10.8611269" id="Path-8" stroke="#226D86" stroke-linecap="round" fill-rule="nonzero" transform="translate(27.234120, 21.503963) rotate(-31.000000) translate(-27.234120, -21.503963) "></path>
                                    <path d="M17.552148,39.7523905 L10.7142857,39.7523905 C11.9890456,29.5390553 11.5759564,26.6938709 14.0865753,16.5662451 C17.5601398,2.55417812 22.3168141,-4.62424661 22.4728154,5.33933519 C22.5768162,11.9817231 21.4995185,24.7388938 17.552148,39.7523905 Z" id="Path-7-Copy" fill="url(#linearGradient-3)" fill-rule="nonzero"></path>
                                    <path d="M5.79568026,32.8659918 C17.2934175,18.6500961 25.2232809,9.59429542 29.5852706,5.69858986" id="Path-8-Copy" stroke="#226D86" stroke-linecap="round" fill-rule="nonzero" transform="translate(17.690475, 19.282291) rotate(-31.000000) translate(-17.690475, -19.282291) "></path>
                                </g>
                            </g>
                            <g id="women" transform="translate(126.000000, 161.000000)" fill-rule="nonzero">
                                <rect id="Rectangle-27" fill="#9B5124" x="32" y="17" width="4" height="7"></rect>
                                <g id="头" transform="translate(24.000000, 0.000000)">
                                    <path d="M2,10 C2,13.3056449 2,15.6295389 2,16.9716819 C2,18.9848965 2.821182,21.316215 5.05157329,21.316215 C7.28196459,21.316215 9.41855069,21.1309815 11.4302396,18.8549126 C12.7713656,17.3375333 13.2918609,14.6617191 12.9917257,10.8274699 L2,10 Z" id="Path-15" fill="#B77C54"></path>
                                    <path d="M3,18 L7,18 C7,19.1045695 6.1045695,20 5,20 C3.8954305,20 3,19.1045695 3,18 Z" id="Combined-Shape" fill="#FFFFFF"></path>
                                    <path d="M2.06185973,17.6715805 L2.06185973,12.1016023 C2.65014266,13.4008875 4.00730325,14.0505301 6.13334152,14.0505301 C9.32239893,14.0505301 11.1548976,12.8969211 11.5116619,14.8865914 C11.7495047,16.2130382 11.8037064,17.4588704 11.6742668,18.6240879 C14.3592453,17.22764 15.7017345,15.2586659 15.7017345,12.7171656 C15.7017345,10.1756653 14.8507698,8.19240399 13.1488405,6.76738154 C13.873661,5.68640721 14.2360712,4.74765027 14.2360712,3.95111074 C14.2360712,2.75630145 13.1004683,-1.13686838e-13 10.7839421,-1.13686838e-13 C8.46741598,-1.13686838e-13 6.63308615,1.26515503 6.63308615,3.54505869 C6.60541581,4.4363081 6.71914904,5.00858564 6.97428584,5.26189131 C4.2547595,5.05151535 2.31452959,6.02806468 1.15359611,8.19153929 C0.45499751,9.49342296 -0.28136385,11.7530266 0.108023531,13.7766242 C0.279822107,14.66944 0.93110084,15.9677587 2.06185973,17.6715805 Z" id="Path-16" fill="#000000"></path>
                                    <circle id="Oval-9" fill="#000000" cx="3.5" cy="15.5" r="1"></circle>
                                    <circle id="Oval-9-Copy" fill="#000000" cx="6.5" cy="15.5" r="1"></circle>
                                </g>
                                <g id="Group-17" transform="translate(18.000000, 19.000000)">
                                    <path d="M9.2797694,8.2283641 C10.4514753,6.58539486 12.4003899,3 14.7180876,3 C17.0357853,3 21.3438274,5.06648923 21.3438274,8.95002993 C21.3438274,11.5390571 21.3438274,18.5557138 21.3438274,30 L8.6227741,30 L8.6227741,15.594423 C8.71648772,14.915131 8.59713143,14.3624509 8.26470524,13.9363826 C7.76606595,13.2972802 7,12.5568301 7,11.5614817 C7,10.5661333 8.1080635,9.87133334 9.2797694,8.2283641 Z" id="Path-17" fill="url(#linearGradient-4)"></path>
                                    <path d="M18.4557964,6.03114472 C19.8195094,6.24713564 20.749922,7.52773871 20.5339311,8.89145173 L18.4557964,20.8480215 C18.2398055,22.2117345 16.9592024,23.1421471 15.5954894,22.9261562 C14.2317763,22.7101652 13.3013638,21.4295622 13.5173547,20.0658491 L15.5954894,8.10927941 C15.8114803,6.74556639 17.0920834,5.8151538 18.4557964,6.03114472 Z" id="Rectangle-28" fill="url(#linearGradient-5)"></path>
                                    <path d="M1.88024017,1.00308552 L1.88024017,1.00308552 C2.35644884,0.992381214 2.7511698,1.36974707 2.76187411,1.84595574 C2.76201931,1.85241534 2.76209192,1.85887637 2.76209192,1.8653376 L2.76209192,7.10118859 C2.76209192,7.59151887 2.37044662,7.99206657 1.88024017,8.00308552 L1.88024017,8.00308552 C1.40403149,8.01378982 1.00931053,7.63642397 0.998606226,7.1602153 C0.998461026,7.1537557 0.998388419,7.14729467 0.998388419,7.14083344 L0.998388419,1.90498245 C0.998388419,1.41465217 1.39003372,1.01410447 1.88024017,1.00308552 Z" id="Rectangle-29" fill="#000000" transform="translate(1.880240, 4.503086) rotate(-11.000000) translate(-1.880240, -4.503086) "></path>
                                    <path d="M17.4372552,18.4272081 C16.5143809,17.7691197 12.0073053,14.7615534 3.91602849,9.40450909 C4.34650437,7.76907843 4.34650437,6.70655541 3.91602849,6.21694003 C3.4855526,5.72732465 3.15705508,5.404095 2.9305359,5.2472511 C2.92347892,6.06397249 2.73875497,6.47233319 2.37636405,6.47233319 C2.01397313,6.47233319 1.49767043,5.5915026 0.827455955,3.82984141 L0.674814723,2.95451268 C0.224938241,3.03741704 3.46500795e-17,3.32919329 0,3.82984141 C0,4.33048954 0.107146849,5.12618908 0.321440548,6.21694003 C-0.0159030574,7.24089813 -0.0159030574,8.02814917 0.321440548,8.57869314 C0.827455955,9.40450909 13.9989148,22.1631345 14.4454428,22.6062334 C14.8919708,23.0493323 16.7095412,23.2750564 17.6857901,22.3475602 C18.6620391,21.4200641 18.8215666,19.4143407 17.4372552,18.4272081 Z" id="Path-18" fill="#B77C54"></path>
                                </g>
                                <path d="M26.687658,49 L39.3650241,49 L39.3650241,61.0158966 L14.2788562,61.0158966 L14.2788562,88.920835 L9.13586613,88.920835 L6.01042317,57.8772567 C5.87496424,54.2531534 7.05981792,52.4411018 9.56498421,52.4411018 C12.0701505,52.4411018 17.7777084,52.4411018 26.687658,52.4411018 L26.687658,49 Z" id="Path-19" fill="#000000"></path>
                                <path d="M14.3495502,88.9060208 C14.8242959,90.6438323 15.0616687,91.7081479 15.0616687,92.0989676 C15.0616687,92.6851972 15.0968989,94.0225333 13.0067338,94.0225333 C11.6132904,94.0225333 9.09791049,94.0225333 5.46059417,94.0225333 C3.18154332,93.9342231 1.6859586,93.2930345 0.973840016,92.0989676 C0.859224624,91.4251586 1.54248059,91.0098082 3.0236079,90.8529167 C4.50473521,90.6960251 6.57642407,90.0470598 9.23867448,88.9060208 L14.3495502,88.9060208 Z" id="Path-20" fill="#2E3192"></path>
                            </g>
                            <g id="Group-4" transform="translate(165.000000, 0.000000)" fill-rule="nonzero">
                                <rect id="Rectangle-2" fill="#D2DDEC" x="20" y="0" width="140" height="248" rx="10"></rect>
                                <rect id="Rectangle-2-Copy" fill="#F0FBFF" x="1.42108547e-14" y="0" width="150" height="248" rx="10"></rect>
                                <rect id="Rectangle-53" fill="#D2DDEC" x="59" y="8" width="32" height="4" rx="2"></rect>
                                <rect id="Rectangle-2-Copy-2" fill="url(#linearGradient-6)" x="10" y="20" width="130" height="198" rx="2"></rect>
                                <path d="M34,41 L110,41 C112.209139,41 114,42.790861 114,45 L114,57 C114,59.209139 112.209139,61 110,61 L38,61 C35.790861,61 34,59.209139 34,57 L34,47 L30,41 L34,41 Z" id="Combined-Shape" fill="#FFFFFF"></path>
                                <path d="M70,71 L116,71 C118.209139,71 120,72.790861 120,75 L120,81 C120,83.209139 118.209139,85 116,85 L74,85 C71.790861,85 70,83.209139 70,81 L70,77 L66,71 L70,71 Z" id="Combined-Shape-Copy-3" fill="#FFFFFF" transform="translate(93.000000, 78.000000) scale(-1, 1) translate(-93.000000, -78.000000) "></path>
                                <circle id="Oval-19" fill="#FFFFFF" cx="24" cy="49" r="8"></circle>
                                <path d="M34,95 L110,95 C112.209139,95 114,96.790861 114,99 L114,151 C114,153.209139 112.209139,155 110,155 L38,155 C35.790861,155 34,153.209139 34,151 L34,101 L30,95 L34,95 Z" id="Combined-Shape-Copy-4" fill="#FFFFFF"></path>
                                <rect id="Rectangle-57" fill="#F1F4F8" x="37" y="98" width="74" height="54"></rect>
                                <circle id="Oval-19-Copy-2" fill="#FFFFFF" cx="24" cy="103" r="8"></circle>
                                <circle id="Oval-19-Copy" fill="#FFFFFF" cx="126" cy="79" r="8"></circle>
                                <circle id="Oval-18" stroke="#F4F6F9" fill="#D2DDEC" cx="75" cy="233" r="9"></circle>
                                <polygon id="Path-40" fill="#ACE9FF" points="37 134.767444 57.2580489 119 80.5298959 134.767444 99.4773663 126.883722 111 134.767444 111 152 37 152"></polygon>
                                <circle id="Oval-20" fill="#ACE9FF" cx="84" cy="113" r="7"></circle>
                            </g>
                            <g id="Group-3" transform="translate(140.000000, 248.000000)" fill-rule="nonzero">
                                <rect id="Rectangle-16" fill="#82C6A8" x="0" y="0" width="234" height="22" rx="11"></rect>
                                <path d="M133,21.8423218 C138.156827,17.6306884 144.386112,15.5248716 151.687856,15.5248716 C162.640473,15.5248716 164.536921,21.1373066 173.859203,16.8902185 C179.313775,14.4051998 183.677025,8 195.469954,8 C207.310371,8 208.628657,21.8423218 206.796656,21.8423218 C205.575322,21.8423218 180.976436,21.8423218 133,21.8423218 Z" id="Path-4" fill="#74BCA7"></path>
                                <path d="M75,21.8423218 C80.1568269,17.6306884 86.3861124,15.5248716 93.6878564,15.5248716 C104.640473,15.5248716 106.536921,21.1373066 115.859203,16.8902185 C121.313775,14.4051998 125.677025,8 137.469954,8 C149.310371,8 150.628657,21.8423218 148.796656,21.8423218 C147.575322,21.8423218 122.976436,21.8423218 75,21.8423218 Z" id="Path-4-Copy" fill="#74BCA7"></path>
                            </g>
                            <g id="小草" transform="translate(408.000000, 201.000000)" fill-rule="nonzero">
                                <path d="M17.7364223,21.0369271 C24.819626,15.5100343 27.9982687,10.9604286 27.2723505,7.38810993 C26.5464323,3.8157913 23.3677896,6.34248982 17.7364223,14.9682055 C22.2588846,6.17453779 22.8523661,1.26277987 19.5168668,0.232931746 C16.1813676,-0.79691638 14.4387532,1.58814301 14.2890237,7.38810993 C13.6658279,1.84548801 12.2076921,-0.53957138 9.91461621,0.232931746 C6.47500239,1.39168644 7.75859963,10.1434245 9.91461621,14.9682055 C6.07720847,8.37728224 3.0163824,6.31717728 0.732138022,8.78789059 C-1.55210636,11.2586039 1.5087197,15.3416161 9.91461621,21.0369271 L17.7364223,21.0369271 Z" id="Path-5" fill="#82C6A8"></path>
                                <path d="M17.9987829,5 C16.666261,9.78303789 16,14.2089929 16,18.2778651 C19.027633,16.8577932 21.5499263,14.8775941 23.5668799,12.3372677" id="Path-6" stroke="#72BBB4" stroke-linecap="round"></path>
                                <path d="M3.82958381,4.0096489 C3.31841495,9.45292085 3.06283053,14.2089929 3.06283053,18.2778651 C6.71524315,16.0621195 9.54992628,13.6840834 11.5668799,11.143757" id="Path-6-Copy" stroke="#72BBB4" stroke-linecap="round" transform="translate(7.314855, 11.143757) scale(-1, 1) translate(-7.314855, -11.143757) "></path>
                            </g>
                        </g>
                        <g id="man" transform="translate(70.000000, 110.000000)" fill-rule="nonzero">
                            <rect id="Rectangle-19" fill="#9D6D6E" x="9" y="17" width="4" height="4"></rect>
                            <rect id="Rectangle-26" fill="#BD6FF3" x="5" y="103" width="4" height="6"></rect>
                            <rect id="Rectangle-26-Copy" fill="#BD6FF3" x="15" y="103" width="4" height="6"></rect>
                            <g id="衣服" transform="translate(0.000000, 19.000000)">
                                <path d="M27.7233276,26.8022762 C28.6157699,28.7735828 29.1316614,30.1111944 29.2710022,30.8151108 C29.4800134,31.8709855 29.0032394,33.2368458 27.7233276,33.2368458 C26.4434158,33.2368458 25.5899409,32.0611391 25.5899409,31.04035 C25.7287809,31.9571343 25.6432831,32.4155265 25.3334477,32.4155265 C24.8686945,32.4155265 24.4342939,32.0611391 24.4342939,31.04035 C24.4342939,30.019561 24.8520157,28.5322157 24.8520157,27.5054914 L27.7233276,26.8022762 Z" id="Path-14" fill="#E3B7B7"></path>
                                <path d="M9.00460876,-1.13686838e-13 C9.21524515,1.04672859 9.88464065,1.57009288 11.0127953,1.57009288 C12.1409499,1.57009288 12.8093928,1.04672859 13.018124,-1.13686838e-13 L20.3525741,1.57009288 C21.4065702,1.96419938 22.2063593,3.06605719 22.7519414,4.87566632 C23.2975235,6.68527545 25.1646044,14.0042364 28.3531842,26.8325491 L24.1167413,28.1822301 L20.0439072,14.5265692 L20.0439072,28.1822301 L4.00080202,28.1822301 L4.00080202,21.6289111 L0,21.6289111 L0,6.40450893 C0.115904812,3.78725626 0.79504601,2.26676813 2.03742359,1.84304454 C3.27980118,1.41932095 5.60219623,0.804972767 9.00460876,-1.13686838e-13 Z" id="Path-9" fill="#2895FB"></path>
                                <path d="M5.0832377,10.7053401 L7.77512149,13.4844057 L4.28860753,23.089482 C3.44311243,24.1190827 2.38227838,24.2329744 1.1061054,23.4311571 C-0.808154083,22.2284312 0.219799598,19.6350029 0.810182111,18.5569328 C1.20377045,17.8382194 2.62812232,15.2210218 5.0832377,10.7053401 Z" id="Path-10" fill="#57AEFF"></path>
                                <rect id="Rectangle-20" fill="#000000" x="8" y="2" width="5" height="10" rx="1"></rect>
                                <path d="M5,10.5409244 C5.23526487,8.69960699 6.2435959,6.84078719 8.0249931,4.96446499 L8.0249931,7.12020893 C9.71614587,5.98684742 10.7580727,5.42016667 11.1507735,5.42016667 C11.7398247,5.42016667 11.9626949,6.19127426 11.4263714,6.61633641 C11.0688224,6.89971118 10.7186112,7.28441977 10.3757377,7.77046219 C11.405,8.27873634 11.8277652,9.01485918 11.6440332,9.97883071 C11.3684352,11.424788 9.81221008,13.3846595 8.25555476,13.3846595 C7.45379113,13.3846595 6.29628269,12.9442489 5.43791685,11.8126613 C5.26947154,11.5905991 5.12349925,11.1666868 5,10.5409244 Z" id="Path-11" fill="#E3B7B7"></path>
                                <rect id="Rectangle-21" fill="#000000" x="4" y="28" width="16" height="2"></rect>
                                <rect id="Rectangle-22" fill="#FFFFFF" x="10" y="28" width="4" height="2"></rect>
                            </g>
                            <path d="M10,59 L10,101 L4,101 L4,49 L10,49 L14,49 L20,49 L20,101 L14,101 L14,59 C14,57.8954305 13.1045695,57 12,57 C10.8954305,57 10,57.8954305 10,59 Z" id="Combined-Shape" fill="url(#linearGradient-7)"></path>
                            <rect id="Rectangle-25" fill="#16337F" x="3" y="101" width="8" height="3"></rect>
                            <rect id="Rectangle-25-Copy" fill="#16337F" x="13" y="101" width="8" height="3"></rect>
                            <g id="鞋2" transform="translate(4.000000, 105.000000)">
                                <path d="M3,0 C4.38828712,0 5.45300293,2.83799863 5.45300293,3.61424543 C5.45300293,4.39049223 6.89369783,8.0861391 5.09886129,8.0861391 C3.9023036,8.0861391 2.43938297,8.0861391 0.710099392,8.0861391 C0.236699797,7.79479252 3.58613497e-17,7.25867904 0,6.47779866 C-1.04083409e-17,5.30647809 0.464050332,4.28005736 0.710099392,3.61424543 C0.956148453,2.9484335 1.61171288,0 3,0 Z" id="Path-12" fill="#16337F"></path>
                                <path d="M0.154667353,6.81315632 C0.464002059,6.81315632 1.13670441,7.56221562 1.44062034,7.56221562 C1.74453627,7.56221562 2.21643426,6 3.10851963,6 C4.000605,6 4.49448774,7.56221562 4.82936811,7.56221562 C5.16424847,7.56221562 5.51312621,6.81315632 5.96272981,6.81315632 C6.26246554,6.81315632 6.26246554,7.23748392 5.96272981,8.0861391 L0.154667353,8.0861391 C-0.0515557843,7.23748392 -0.0515557843,6.81315632 0.154667353,6.81315632 Z" id="Path-13" fill="#04203B"></path>
                            </g>
                            <g id="鞋1" transform="translate(16.500000, 109.500000) scale(-1, 1) translate(-16.500000, -109.500000) translate(13.000000, 105.000000)">
                                <path d="M3,0 C4.38828712,0 5.45300293,2.83799863 5.45300293,3.61424543 C5.45300293,4.39049223 6.89369783,8.0861391 5.09886129,8.0861391 C3.9023036,8.0861391 2.43938297,8.0861391 0.710099392,8.0861391 C0.236699797,7.79479252 3.58613497e-17,7.25867904 0,6.47779866 C-1.04083409e-17,5.30647809 0.464050332,4.28005736 0.710099392,3.61424543 C0.956148453,2.9484335 1.61171288,0 3,0 Z" id="Path-12" fill="#16337F"></path>
                                <path d="M0.154667353,6.81315632 C0.464002059,6.81315632 1.13670441,7.56221562 1.44062034,7.56221562 C1.74453627,7.56221562 2.21643426,6 3.10851963,6 C4.000605,6 4.49448774,7.56221562 4.82936811,7.56221562 C5.16424847,7.56221562 5.55127058,6.81315632 6.00087418,6.81315632 C6.30060991,6.81315632 6.30060991,7.23748392 6.00087418,8.0861391 L0.154667353,8.0861391 C-0.0515557843,7.23748392 -0.0515557843,6.81315632 0.154667353,6.81315632 Z" id="Path-13" fill="#04203B"></path>
                            </g>
                            <g id="头" transform="translate(4.000000, 0.000000)">
                                <rect id="Rectangle-17" fill="#E3B7B7" x="1" y="2" width="12" height="16" rx="6"></rect>
                                <circle id="Oval-8" fill="#9D6D6E" cx="13" cy="9" r="1"></circle>
                                <circle id="Oval-8-Copy" fill="#9D6D6E" cx="1" cy="9" r="1"></circle>
                                <path d="M4.78067271,2.46343088 L2.98157537,0.705218143 C5.78945084,0.705218143 7.80878341,0.705218143 9.0395731,0.705218143 C10.8857576,0.705218143 12.9397722,1.56187292 12.9397722,4.05033013 L12.9397722,8.13774231 C11.7216207,4.16267544 9.73641683,2.175142 6.98416073,2.175142 C6.10962622,2.175142 5.37513021,2.27123829 4.78067271,2.46343088 Z" id="Path-7" fill="#000000"></path>
                                <path d="M4.90974287,2.4160481 C3.78981618,1.7484122 2.72997752,1.810653 1.7302269,2.60277051 C0.730476285,3.39488801 0.480101759,5.2275317 0.979103326,8.10070156 C1.206852,6.82251177 1.61517389,5.69678736 2.20406899,4.72352835 C2.79296409,3.75026934 3.69485538,2.98110926 4.90974287,2.4160481 Z" id="Path-8" fill="#000000"></path>
                                <circle id="Oval-2" stroke="#FFFFFF" cx="10.5" cy="7.5" r="2"></circle>
                                <rect id="Rectangle-18" fill="#FFFFFF" x="5" y="7" width="4" height="1"></rect>
                                <circle id="Oval-7" fill="#0E0909" cx="10.5" cy="7.5" r="1"></circle>
                                <circle id="Oval-7-Copy" fill="#0E0909" cx="3.5" cy="7.5" r="1"></circle>
                                <circle id="Oval-2-Copy" stroke="#FFFFFF" cx="3.5" cy="7.5" r="2"></circle>
                                <path d="M4.17070571,11 C4.58254212,9.83480763 5.69378117,9 7,9 C8.30621883,9 9.41745788,9.83480763 9.82929429,11 L13,11 L13,12 C13,15.3137085 10.3137085,18 7,18 C3.6862915,18 1,15.3137085 1,12 L1,11 L4.17070571,11 Z" id="Combined-Shape" fill="#000000"></path>
                                <path d="M5,11 L9,11 C9,12.1045695 8.1045695,13 7,13 C5.8954305,13 5,12.1045695 5,11 Z" id="Combined-Shape" fill="#FFFFFF"></path>
                            </g>
                        </g>
                        <g id="Group-12" transform="translate(27.000000, 197.000000)">
                            <g id="con" transform="translate(1.000000, 20.000000)">
                                <g id="Group-25-Copy-10">
                                    <rect id="Rectangle-44" fill="url(#linearGradient-8)" fill-rule="nonzero" x="0" y="0" width="21" height="5"></rect>
                                    <path d="M0.567567568,0 L1.13513514,0 L1.13513514,5 L0.567567568,5 L0.567567568,0 Z M1.7027027,0 L2.27027027,0 L2.27027027,5 L1.7027027,5 L1.7027027,0 Z M2.83783784,0 L3.40540541,0 L3.40540541,5 L2.83783784,5 L2.83783784,0 Z M3.97297297,0 L4.54054054,0 L4.54054054,5 L3.97297297,5 L3.97297297,0 Z M5.10810811,0 L5.67567568,0 L5.67567568,5 L5.10810811,5 L5.10810811,0 Z M6.24324324,0 L6.81081081,0 L6.81081081,5 L6.24324324,5 L6.24324324,0 Z M7.37837838,0 L7.94594595,0 L7.94594595,5 L7.37837838,5 L7.37837838,0 Z M8.51351351,0 L9.08108108,0 L9.08108108,5 L8.51351351,5 L8.51351351,0 Z M9.64864865,0 L10.2162162,0 L10.2162162,5 L9.64864865,5 L9.64864865,0 Z M10.7837838,0 L11.3513514,0 L11.3513514,5 L10.7837838,5 L10.7837838,0 Z M11.9189189,0 L12.4864865,0 L12.4864865,5 L11.9189189,5 L11.9189189,0 Z M13.0540541,0 L13.6216216,0 L13.6216216,5 L13.0540541,5 L13.0540541,0 Z M14.1891892,0 L14.7567568,0 L14.7567568,5 L14.1891892,5 L14.1891892,0 Z M15.3243243,0 L15.8918919,0 L15.8918919,5 L15.3243243,5 L15.3243243,0 Z M16.4594595,0 L17.027027,0 L17.027027,5 L16.4594595,5 L16.4594595,0 Z M17.5945946,0 L18.1621622,0 L18.1621622,5 L17.5945946,5 L17.5945946,0 Z M18.7297297,0 L19.2972973,0 L19.2972973,5 L18.7297297,5 L18.7297297,0 Z M19.8648649,0 L20.4324324,0 L20.4324324,5 L19.8648649,5 L19.8648649,0 Z" id="Combined-Shape" fill="url(#linearGradient-9)" fill-rule="nonzero"></path>
                                    <rect id="Rectangle-44-Copy" fill="url(#linearGradient-10)" fill-rule="nonzero" x="0" y="0" width="21" height="1"></rect>
                                </g>
                            </g>
                            <g id="con" transform="translate(7.000000, 15.000000)">
                                <g id="Group-25-Copy-10">
                                    <rect id="Rectangle-44" fill="url(#linearGradient-8)" fill-rule="nonzero" x="0" y="0" width="21" height="5"></rect>
                                    <path d="M0.567567568,0 L1.13513514,0 L1.13513514,5 L0.567567568,5 L0.567567568,0 Z M1.7027027,0 L2.27027027,0 L2.27027027,5 L1.7027027,5 L1.7027027,0 Z M2.83783784,0 L3.40540541,0 L3.40540541,5 L2.83783784,5 L2.83783784,0 Z M3.97297297,0 L4.54054054,0 L4.54054054,5 L3.97297297,5 L3.97297297,0 Z M5.10810811,0 L5.67567568,0 L5.67567568,5 L5.10810811,5 L5.10810811,0 Z M6.24324324,0 L6.81081081,0 L6.81081081,5 L6.24324324,5 L6.24324324,0 Z M7.37837838,0 L7.94594595,0 L7.94594595,5 L7.37837838,5 L7.37837838,0 Z M8.51351351,0 L9.08108108,0 L9.08108108,5 L8.51351351,5 L8.51351351,0 Z M9.64864865,0 L10.2162162,0 L10.2162162,5 L9.64864865,5 L9.64864865,0 Z M10.7837838,0 L11.3513514,0 L11.3513514,5 L10.7837838,5 L10.7837838,0 Z M11.9189189,0 L12.4864865,0 L12.4864865,5 L11.9189189,5 L11.9189189,0 Z M13.0540541,0 L13.6216216,0 L13.6216216,5 L13.0540541,5 L13.0540541,0 Z M14.1891892,0 L14.7567568,0 L14.7567568,5 L14.1891892,5 L14.1891892,0 Z M15.3243243,0 L15.8918919,0 L15.8918919,5 L15.3243243,5 L15.3243243,0 Z M16.4594595,0 L17.027027,0 L17.027027,5 L16.4594595,5 L16.4594595,0 Z M17.5945946,0 L18.1621622,0 L18.1621622,5 L17.5945946,5 L17.5945946,0 Z M18.7297297,0 L19.2972973,0 L19.2972973,5 L18.7297297,5 L18.7297297,0 Z M19.8648649,0 L20.4324324,0 L20.4324324,5 L19.8648649,5 L19.8648649,0 Z" id="Combined-Shape" fill="url(#linearGradient-9)" fill-rule="nonzero"></path>
                                    <rect id="Rectangle-44-Copy" fill="url(#linearGradient-10)" fill-rule="nonzero" x="0" y="0" width="21" height="1"></rect>
                                </g>
                            </g>
                            <g id="con" transform="translate(5.000000, 10.000000)">
                                <g id="Group-25-Copy-10">
                                    <rect id="Rectangle-44" fill="url(#linearGradient-8)" fill-rule="nonzero" x="0" y="0" width="21" height="5"></rect>
                                    <path d="M0.567567568,0 L1.13513514,0 L1.13513514,5 L0.567567568,5 L0.567567568,0 Z M1.7027027,0 L2.27027027,0 L2.27027027,5 L1.7027027,5 L1.7027027,0 Z M2.83783784,0 L3.40540541,0 L3.40540541,5 L2.83783784,5 L2.83783784,0 Z M3.97297297,0 L4.54054054,0 L4.54054054,5 L3.97297297,5 L3.97297297,0 Z M5.10810811,0 L5.67567568,0 L5.67567568,5 L5.10810811,5 L5.10810811,0 Z M6.24324324,0 L6.81081081,0 L6.81081081,5 L6.24324324,5 L6.24324324,0 Z M7.37837838,0 L7.94594595,0 L7.94594595,5 L7.37837838,5 L7.37837838,0 Z M8.51351351,0 L9.08108108,0 L9.08108108,5 L8.51351351,5 L8.51351351,0 Z M9.64864865,0 L10.2162162,0 L10.2162162,5 L9.64864865,5 L9.64864865,0 Z M10.7837838,0 L11.3513514,0 L11.3513514,5 L10.7837838,5 L10.7837838,0 Z M11.9189189,0 L12.4864865,0 L12.4864865,5 L11.9189189,5 L11.9189189,0 Z M13.0540541,0 L13.6216216,0 L13.6216216,5 L13.0540541,5 L13.0540541,0 Z M14.1891892,0 L14.7567568,0 L14.7567568,5 L14.1891892,5 L14.1891892,0 Z M15.3243243,0 L15.8918919,0 L15.8918919,5 L15.3243243,5 L15.3243243,0 Z M16.4594595,0 L17.027027,0 L17.027027,5 L16.4594595,5 L16.4594595,0 Z M17.5945946,0 L18.1621622,0 L18.1621622,5 L17.5945946,5 L17.5945946,0 Z M18.7297297,0 L19.2972973,0 L19.2972973,5 L18.7297297,5 L18.7297297,0 Z M19.8648649,0 L20.4324324,0 L20.4324324,5 L19.8648649,5 L19.8648649,0 Z" id="Combined-Shape" fill="url(#linearGradient-9)" fill-rule="nonzero"></path>
                                    <rect id="Rectangle-44-Copy" fill="url(#linearGradient-10)" fill-rule="nonzero" x="0" y="0" width="21" height="1"></rect>
                                </g>
                            </g>
                            <g id="con" transform="translate(9.000000, 5.000000)">
                                <g id="Group-25-Copy-10">
                                    <rect id="Rectangle-44" fill="url(#linearGradient-8)" fill-rule="nonzero" x="0" y="0" width="21" height="5"></rect>
                                    <path d="M0.567567568,0 L1.13513514,0 L1.13513514,5 L0.567567568,5 L0.567567568,0 Z M1.7027027,0 L2.27027027,0 L2.27027027,5 L1.7027027,5 L1.7027027,0 Z M2.83783784,0 L3.40540541,0 L3.40540541,5 L2.83783784,5 L2.83783784,0 Z M3.97297297,0 L4.54054054,0 L4.54054054,5 L3.97297297,5 L3.97297297,0 Z M5.10810811,0 L5.67567568,0 L5.67567568,5 L5.10810811,5 L5.10810811,0 Z M6.24324324,0 L6.81081081,0 L6.81081081,5 L6.24324324,5 L6.24324324,0 Z M7.37837838,0 L7.94594595,0 L7.94594595,5 L7.37837838,5 L7.37837838,0 Z M8.51351351,0 L9.08108108,0 L9.08108108,5 L8.51351351,5 L8.51351351,0 Z M9.64864865,0 L10.2162162,0 L10.2162162,5 L9.64864865,5 L9.64864865,0 Z M10.7837838,0 L11.3513514,0 L11.3513514,5 L10.7837838,5 L10.7837838,0 Z M11.9189189,0 L12.4864865,0 L12.4864865,5 L11.9189189,5 L11.9189189,0 Z M13.0540541,0 L13.6216216,0 L13.6216216,5 L13.0540541,5 L13.0540541,0 Z M14.1891892,0 L14.7567568,0 L14.7567568,5 L14.1891892,5 L14.1891892,0 Z M15.3243243,0 L15.8918919,0 L15.8918919,5 L15.3243243,5 L15.3243243,0 Z M16.4594595,0 L17.027027,0 L17.027027,5 L16.4594595,5 L16.4594595,0 Z M17.5945946,0 L18.1621622,0 L18.1621622,5 L17.5945946,5 L17.5945946,0 Z M18.7297297,0 L19.2972973,0 L19.2972973,5 L18.7297297,5 L18.7297297,0 Z M19.8648649,0 L20.4324324,0 L20.4324324,5 L19.8648649,5 L19.8648649,0 Z" id="Combined-Shape" fill="url(#linearGradient-9)" fill-rule="nonzero"></path>
                                    <rect id="Rectangle-44-Copy" fill="url(#linearGradient-10)" fill-rule="nonzero" x="0" y="0" width="21" height="1"></rect>
                                </g>
                            </g>
                            <g id="con">
                                <g id="Group-25-Copy-10">
                                    <rect id="Rectangle-44" fill="url(#linearGradient-8)" fill-rule="nonzero" x="0" y="0" width="21" height="5"></rect>
                                    <path d="M0.567567568,0 L1.13513514,0 L1.13513514,5 L0.567567568,5 L0.567567568,0 Z M1.7027027,0 L2.27027027,0 L2.27027027,5 L1.7027027,5 L1.7027027,0 Z M2.83783784,0 L3.40540541,0 L3.40540541,5 L2.83783784,5 L2.83783784,0 Z M3.97297297,0 L4.54054054,0 L4.54054054,5 L3.97297297,5 L3.97297297,0 Z M5.10810811,0 L5.67567568,0 L5.67567568,5 L5.10810811,5 L5.10810811,0 Z M6.24324324,0 L6.81081081,0 L6.81081081,5 L6.24324324,5 L6.24324324,0 Z M7.37837838,0 L7.94594595,0 L7.94594595,5 L7.37837838,5 L7.37837838,0 Z M8.51351351,0 L9.08108108,0 L9.08108108,5 L8.51351351,5 L8.51351351,0 Z M9.64864865,0 L10.2162162,0 L10.2162162,5 L9.64864865,5 L9.64864865,0 Z M10.7837838,0 L11.3513514,0 L11.3513514,5 L10.7837838,5 L10.7837838,0 Z M11.9189189,0 L12.4864865,0 L12.4864865,5 L11.9189189,5 L11.9189189,0 Z M13.0540541,0 L13.6216216,0 L13.6216216,5 L13.0540541,5 L13.0540541,0 Z M14.1891892,0 L14.7567568,0 L14.7567568,5 L14.1891892,5 L14.1891892,0 Z M15.3243243,0 L15.8918919,0 L15.8918919,5 L15.3243243,5 L15.3243243,0 Z M16.4594595,0 L17.027027,0 L17.027027,5 L16.4594595,5 L16.4594595,0 Z M17.5945946,0 L18.1621622,0 L18.1621622,5 L17.5945946,5 L17.5945946,0 Z M18.7297297,0 L19.2972973,0 L19.2972973,5 L18.7297297,5 L18.7297297,0 Z M19.8648649,0 L20.4324324,0 L20.4324324,5 L19.8648649,5 L19.8648649,0 Z" id="Combined-Shape" fill="url(#linearGradient-9)" fill-rule="nonzero"></path>
                                    <rect id="Rectangle-44-Copy" fill="url(#linearGradient-10)" fill-rule="nonzero" x="0" y="0" width="21" height="1"></rect>
                                </g>
                            </g>
                        </g>
                    </g>
                </g>
            </g>
        </g>
    </g>
</svg>