<?xml version="1.0" encoding="UTF-8"?>
<svg width="464px" height="270px" viewBox="0 0 464 270" version="1.1" xmlns="http://www.w3.org/2000/svg" xmlns:xlink="http://www.w3.org/1999/xlink">
    <!-- Generator: Sketch 51.1 (57501) - http://www.bohemiancoding.com/sketch -->
    <title>E</title>
    <desc>Created with Sketch.</desc>
    <defs>
        <path d="M0,210.12597 L81.5301037,149.60596 L111.794186,149.60596 L194.70501,88.4246668 L213.94098,102.714719 L293.2287,61.5996345 L378.737747,61.5996345 L462,0 L462,236 C462,242.627417 456.627417,248 450,248 L33.8724813,248 L33.8724813,248 C15.1652264,248 -4.81444938e-15,232.834774 -7.10542736e-15,214.127519 L0,210.12597 Z" id="path-1"></path>
        <path d="M45.3886208,82.0884947 C59.8940041,80.1933862 69.3970663,75.6332059 73.8978072,68.4079538 C80.6489187,57.5700756 82.3877541,50.7067812 78.1427807,29.9824224 C73.8978072,9.25806357 51.942118,0.46632202 40.8447006,0.46632202 C29.7472831,0.46632202 17.3654543,10.7169958 6.74728943,22.3278969 C-3.87087547,33.9387981 0.271326402,41.7315105 6.74728943,59.3355161 C13.2232525,76.9395216 21.1006409,82.0884947 36.379543,82.0884947 C38.0587783,82.0884947 41.0618042,82.0884947 45.3886208,82.0884947 Z" id="path-3"></path>
        <linearGradient x1="95.9253146%" y1="6.54354596%" x2="18.4039331%" y2="100%" id="linearGradient-5">
            <stop stop-color="#5BA7C9" offset="0%"></stop>
            <stop stop-color="#276C9B" offset="100%"></stop>
        </linearGradient>
        <linearGradient x1="-1.11022302e-14%" y1="50%" x2="100%" y2="50%" id="linearGradient-6">
            <stop stop-color="#0D64C8" offset="0%"></stop>
            <stop stop-color="#0496D2" offset="76.2102601%"></stop>
            <stop stop-color="#048FD1" offset="100%"></stop>
        </linearGradient>
        <linearGradient x1="-1.11022302e-14%" y1="50%" x2="100%" y2="50%" id="linearGradient-7">
            <stop stop-color="#37BFF2" offset="0%"></stop>
            <stop stop-color="#00AEEF" offset="100%"></stop>
        </linearGradient>
        <linearGradient x1="50%" y1="0%" x2="50%" y2="98.9207009%" id="linearGradient-8">
            <stop stop-color="#17175E" offset="0%"></stop>
            <stop stop-color="#080219" offset="100%"></stop>
        </linearGradient>
    </defs>
    <g id="HEX上线预热" stroke="none" stroke-width="1" fill="none" fill-rule="evenodd">
        <g transform="translate(-420.000000, -1447.000000)" id="E">
            <g transform="translate(420.000000, 1447.000000)">
                <g>
                    <g>
                        <g id="Group-20-+-Group-21-Mask" transform="translate(2.000000, 0.000000)">
                            <mask id="mask-2" fill="white">
                                <use xlink:href="#path-1"></use>
                            </mask>
                            <use id="Mask" fill="#F0FBFF" fill-rule="nonzero" xlink:href="#path-1"></use>
                            <g id="Group-20" mask="url(#mask-2)" fill-rule="nonzero" stroke="#FFFFFF" stroke-linecap="square" stroke-width="0.5">
                                <g transform="translate(-2.000000, -10.000000)">
                                    <path d="M0.25,241.5 L0.25,0.5" id="Line-3-Copy"></path>
                                    <path d="M16.25,241.5 L16.25,0.5" id="Line-3-Copy-2"></path>
                                    <path d="M32.25,241.5 L32.25,0.5" id="Line-3-Copy-3"></path>
                                    <path d="M48.25,241.5 L48.25,0.5" id="Line-3-Copy-4"></path>
                                    <path d="M64.25,241.5 L64.25,0.5" id="Line-3-Copy-5"></path>
                                    <path d="M80.25,241.5 L80.25,0.5" id="Line-3-Copy-6"></path>
                                    <path d="M96.25,241.5 L96.25,0.5" id="Line-3-Copy-7"></path>
                                    <path d="M112.25,241.5 L112.25,0.5" id="Line-3-Copy-8"></path>
                                    <path d="M128.25,241.5 L128.25,0.5" id="Line-3-Copy-9"></path>
                                    <path d="M144.25,241.5 L144.25,0.5" id="Line-3-Copy-10"></path>
                                    <path d="M160.25,241.5 L160.25,0.5" id="Line-3-Copy-11"></path>
                                    <path d="M176.25,241.5 L176.25,0.5" id="Line-3-Copy-12"></path>
                                    <path d="M192.25,241.5 L192.25,0.5" id="Line-3-Copy-13"></path>
                                    <path d="M208.25,241.5 L208.25,0.5" id="Line-3-Copy-14"></path>
                                    <path d="M224.25,241.5 L224.25,0.5" id="Line-3-Copy-15"></path>
                                    <path d="M240.25,241.5 L240.25,0.5" id="Line-3-Copy-16"></path>
                                    <path d="M256.25,241.5 L256.25,0.5" id="Line-3-Copy-17"></path>
                                    <path d="M272.25,241.5 L272.25,0.5" id="Line-3-Copy-18"></path>
                                    <path d="M288.25,241.5 L288.25,0.5" id="Line-3-Copy-19"></path>
                                    <path d="M304.25,241.5 L304.25,0.5" id="Line-3-Copy-20"></path>
                                    <path d="M320.25,241.5 L320.25,0.5" id="Line-3-Copy-21"></path>
                                    <path d="M336.25,241.5 L336.25,0.5" id="Line-3-Copy-22"></path>
                                    <path d="M352.25,241.5 L352.25,0.5" id="Line-3-Copy-23"></path>
                                    <path d="M368.25,241.5 L368.25,0.5" id="Line-3-Copy-24"></path>
                                    <path d="M384.25,241.5 L384.25,0.5" id="Line-3-Copy-25"></path>
                                    <path d="M400.25,241.5 L400.25,0.5" id="Line-3-Copy-26"></path>
                                    <path d="M416.25,241.5 L416.25,0.5" id="Line-3-Copy-27"></path>
                                    <path d="M432.25,241.5 L432.25,0.5" id="Line-3-Copy-28"></path>
                                    <path d="M448.25,241.5 L448.25,0.5" id="Line-3-Copy-29"></path>
                                </g>
                            </g>
                            <g id="Group-21" mask="url(#mask-2)" fill-rule="nonzero" stroke="#FFFFFF" stroke-linecap="square" stroke-width="0.5">
                                <g transform="translate(-18.000000, 4.000000)">
                                    <path d="M0.5,1 L480.5,1" id="Line-3-Copy-8"></path>
                                    <path d="M0.5,16.1666667 L480.5,16.1666667" id="Line-3-Copy-30"></path>
                                    <path d="M0.5,32.1666667 L480.5,32.1666667" id="Line-3-Copy-31"></path>
                                    <path d="M0.5,48.1666667 L480.5,48.1666667" id="Line-3-Copy-32"></path>
                                    <path d="M0.5,64.1666667 L480.5,64.1666667" id="Line-3-Copy-33"></path>
                                    <path d="M0.5,80.1666667 L480.5,80.1666667" id="Line-3-Copy-34"></path>
                                    <path d="M0.5,96.1666667 L480.5,96.1666667" id="Line-3-Copy-35"></path>
                                    <path d="M0.5,112.166667 L480.5,112.166667" id="Line-3-Copy-36"></path>
                                    <path d="M0.5,128.166667 L480.5,128.166667" id="Line-3-Copy-37"></path>
                                    <path d="M0.5,144.166667 L480.5,144.166667" id="Line-3-Copy-38"></path>
                                    <path d="M0.5,160.166667 L480.5,160.166667" id="Line-3-Copy-39"></path>
                                    <path d="M0.5,176.166667 L480.5,176.166667" id="Line-3-Copy-40"></path>
                                    <path d="M0.5,192.166667 L480.5,192.166667" id="Line-3-Copy-41"></path>
                                    <path d="M0.5,208.166667 L480.5,208.166667" id="Line-3-Copy-42"></path>
                                    <path d="M0.5,224.166667 L480.5,224.166667" id="Line-3-Copy-43"></path>
                                </g>
                            </g>
                        </g>
                        <path d="M45,222 L178,222 L178,248 L45,248 L16,248 C8.2680135,248 2,241.731986 2,234 L2,211 L45,211 L45,222 Z" id="Combined-Shape" fill="#82C6A8" fill-rule="nonzero"></path>
                        <path d="M69.5408245,248.037049 C77.6461361,241.655505 85.5762657,237.912852 93.3312134,236.809092 C104.963635,235.153451 105.853284,242.42307 116.96703,242.42307 C128.080776,242.42307 133.539753,234.619318 144.348648,236.809092 C151.554578,238.268941 160.823475,242.011593 172.15534,248.037049 L69.5408245,248.037049 Z" id="Path-27" fill="#74BCA7" fill-rule="nonzero"></path>
                        <g id="Group-23" transform="translate(367.000000, 161.000000)" fill-rule="nonzero">
                            <rect id="Rectangle-31" fill="#D1DCEA" x="0" y="0" width="85" height="65"></rect>
                            <rect id="Rectangle-31-Copy" fill="#FFFFFF" x="0" y="0" width="63" height="65"></rect>
                            <rect id="Rectangle-31-Copy-2" fill="#412A98" x="3" y="4" width="56" height="58"></rect>
                            <rect id="Rectangle-32" fill="#2C1882" x="2" y="11" width="4" height="9"></rect>
                            <rect id="Rectangle-32-Copy" fill="#2C1882" x="2" y="45" width="4" height="9"></rect>
                            <circle id="Oval-12" fill="#2E1984" cx="22" cy="33" r="11"></circle>
                            <circle id="Oval-12-Copy" fill="#45239B" cx="22" cy="33" r="9"></circle>
                            <circle id="Oval-12-Copy-2" fill="#8643D9" cx="20" cy="33" r="9"></circle>
                            <circle id="Oval-12-Copy-3" fill="#6933BE" cx="20" cy="33" r="7"></circle>
                            <circle id="Oval-12-Copy-4" fill="#BE47DF" cx="20" cy="33" r="2"></circle>
                            <path d="M19,35 C20.1045695,35 21,34.1045695 21,33 C21,31.8954305 20.1045695,31 19,31 C17.8954305,31 17,31.8954305 17,33 C17,34.1045695 17.8954305,35 19,35 Z" id="Oval-12-Copy-5" fill="#F353F3"></path>
                            <rect id="Rectangle-33" fill="#FCFDF7" x="38" y="32" width="16" height="2" rx="1"></rect>
                        </g>
                        <path d="M29.8982784,248.111487 C20.4299379,243.334121 16.1129977,239.061849 16.9474577,235.294671 C17.7819178,231.527493 21.4594325,234.191711 27.9800019,243.287326 C24.0426592,234.815756 23.3780363,229.663865 25.9861331,227.831653 C28.5942299,225.99944 30.4300421,231.826262 31.4935697,245.312119 C37.5923276,236.523127 41.9352833,233.183978 44.5224369,235.294671 C47.1095904,237.405364 43.3872439,241.677636 33.3553974,248.111487 L29.8982784,248.111487 Z" id="Path-26" fill="#75BE9E" fill-rule="nonzero"></path>
                        <g id="H" transform="translate(64.000000, 48.000000)">
                            <g id="tree" transform="translate(0.000000, 92.000000)">
                                <mask id="mask-4" fill="white">
                                    <use xlink:href="#path-3"></use>
                                </mask>
                                <use id="Mask" fill="#72BBB4" fill-rule="nonzero" xlink:href="#path-3"></use>
                                <path d="M37.5,64.5 L74.5,41.5" id="Line" stroke="#5BA9B3" stroke-linecap="square" fill-rule="nonzero" mask="url(#mask-4)"></path>
                                <path d="M59.5,50.5 L75.5,15.5" id="Line-2" stroke="#5BA9B3" stroke-linecap="square" fill-rule="nonzero" mask="url(#mask-4)"></path>
                                <rect id="Rectangle-14" fill="#80C7A7" fill-rule="nonzero" mask="url(#mask-4)" x="-10" y="0" width="49" height="82"></rect>
                                <path d="M5.5,40.5 L38.5,12.5" id="Line-2-Copy-2" stroke="#5BA9B3" stroke-linecap="round" fill-rule="nonzero" mask="url(#mask-4)" transform="translate(22.000000, 26.500000) scale(-1, 1) translate(-22.000000, -26.500000) "></path>
                                <path d="M5.5,30.5 L26.5,25.5" id="Line-2-Copy-3" stroke="#5BA9B3" stroke-linecap="round" fill-rule="nonzero" mask="url(#mask-4)" transform="translate(16.000000, 28.000000) scale(-1, 1) translate(-16.000000, -28.000000) "></path>
                            </g>
                            <rect id="Rectangle-16" fill="#82C6A8" fill-rule="nonzero" x="254" y="178" width="146" height="22" rx="11"></rect>
                            <g id="Group-19" transform="translate(269.000000, 146.000000)">
                                <g transform="translate(-15.000000, -1.000000)">
                                    <g id="Group-18" transform="translate(21.000000, 20.000000)" fill-rule="nonzero">
                                        <path d="M15.654332,35 C27.0514995,24.0027632 35.1451654,14.5326781 39.9353295,6.58974459 C47.1205756,-5.32465567 35.1121016,1.39719978 21.2539454,12.9479313 C12.0151745,20.648419 4.93052609,27.9991086 0,35 L15.654332,35 Z" id="Path-7" fill="url(#linearGradient-5)"></path>
                                        <path d="M8.88795021,34.1294995 C24.3926249,17.6143157 35.198355,6.65969681 41.3051405,1.26564296" id="Path-8" stroke="#226D86" stroke-linecap="round"></path>
                                    </g>
                                    <path d="M35.5841957,55 L25,54.9012654 C26.7846638,40.7597244 30.0273011,34.125219 34.9319361,24.2657986 C43.9782567,6.08065817 47.9781623,-4.67161728 48.196564,9.12411136 C48.3421652,18.3212638 41.1105144,34.2120815 35.5841957,55 Z" id="Path-7" fill="url(#linearGradient-5)" fill-rule="nonzero"></path>
                                    <path d="M20.5229773,44.5109532 C37.8892468,30.2566938 49.6257743,20.4325372 55.7325598,15.0384833" id="Path-8" stroke="#226D86" stroke-linecap="round" fill-rule="nonzero" transform="translate(38.127769, 29.774718) rotate(-31.000000) translate(-38.127769, -29.774718) "></path>
                                    <path d="M24.5730072,55.0417714 L15,55.0417714 C16.7846638,40.9002304 16.2063389,36.9607444 19.7212055,22.9378778 C24.5841957,3.53655432 31.2435398,-6.402803 31.4619416,7.39292564 C31.6075427,16.5900781 30.0993259,34.2538529 24.5730072,55.0417714 Z" id="Path-7-Copy" fill="url(#linearGradient-5)" fill-rule="nonzero"></path>
                                    <path d="M8.11395236,45.5067578 C24.2107845,25.8232099 35.3125933,13.284409 41.4193788,7.89035519" id="Path-8-Copy" stroke="#226D86" stroke-linecap="round" fill-rule="nonzero" transform="translate(24.766666, 26.698557) rotate(-31.000000) translate(-24.766666, -26.698557) "></path>
                                </g>
                            </g>
                            <polygon id="E" fill="url(#linearGradient-6)" points="123 0 282.579832 0 282.579832 46.9747899 176.977591 46.9747899 176.977591 79.8319328 273.896359 79.8319328 273.896359 114.005602 176.977591 114.005602 176.977591 153.02521 284.820728 153.02521 284.820728 200 123 200"></polygon>
                            <polygon id="E-Copy" fill="url(#linearGradient-7)" points="93 0 252.579832 0 252.579832 46.9747899 146.977591 46.9747899 146.977591 79.8319328 243.896359 79.8319328 243.896359 114.005602 146.977591 114.005602 146.977591 153.02521 254.820728 153.02521 254.820728 200 93 200"></polygon>
                            <rect id="Rectangle-16" fill="#82C6A8" fill-rule="nonzero" x="73" y="200" width="138" height="22" rx="11"></rect>
                            <path d="M126,221.842322 C131.156827,217.630688 137.386112,215.524872 144.687856,215.524872 C155.640473,215.524872 157.536921,221.137307 166.859203,216.890219 C172.313775,214.4052 176.677025,208 188.469954,208 C200.310371,208 201.628657,221.842322 199.796656,221.842322 C198.575322,221.842322 173.976436,221.842322 126,221.842322 Z" id="Path-4" fill="#74BCA7" fill-rule="nonzero"></path>
                            <g id="小草" transform="translate(178.000000, 179.000000)" fill-rule="nonzero">
                                <path d="M17.7364223,21.0369271 C24.819626,15.5100343 27.9982687,10.9604286 27.2723505,7.38810993 C26.5464323,3.8157913 23.3677896,6.34248982 17.7364223,14.9682055 C22.2588846,6.17453779 22.8523661,1.26277987 19.5168668,0.232931746 C16.1813676,-0.79691638 14.4387532,1.58814301 14.2890237,7.38810993 C13.6658279,1.84548801 12.2076921,-0.53957138 9.91461621,0.232931746 C6.47500239,1.39168644 7.75859963,10.1434245 9.91461621,14.9682055 C6.07720847,8.37728224 3.0163824,6.31717728 0.732138022,8.78789059 C-1.55210636,11.2586039 1.5087197,15.3416161 9.91461621,21.0369271 L17.7364223,21.0369271 Z" id="Path-5" fill="#82C6A8"></path>
                                <path d="M17.9987829,5 C16.666261,9.78303789 16,14.2089929 16,18.2778651 C19.027633,16.8577932 21.5499263,14.8775941 23.5668799,12.3372677" id="Path-6" stroke="#72BBB4" stroke-linecap="round"></path>
                                <path d="M3.82958381,4.0096489 C3.31841495,9.45292085 3.06283053,14.2089929 3.06283053,18.2778651 C6.71524315,16.0621195 9.54992628,13.6840834 11.5668799,11.143757" id="Path-6-Copy" stroke="#72BBB4" stroke-linecap="round" transform="translate(7.314855, 11.143757) scale(-1, 1) translate(-7.314855, -11.143757) "></path>
                            </g>
                        </g>
                        <g id="man" transform="translate(173.000000, 135.000000)" fill-rule="nonzero">
                            <rect id="Rectangle-19" fill="#9D6D6E" x="9" y="17" width="4" height="4"></rect>
                            <rect id="Rectangle-26" fill="#BD6FF3" x="5" y="103" width="4" height="6"></rect>
                            <rect id="Rectangle-26-Copy" fill="#BD6FF3" x="15" y="103" width="4" height="6"></rect>
                            <g id="衣服" transform="translate(0.000000, 19.000000)">
                                <path d="M27.7233276,26.8022762 C28.6157699,28.7735828 29.1316614,30.1111944 29.2710022,30.8151108 C29.4800134,31.8709855 29.0032394,33.2368458 27.7233276,33.2368458 C26.4434158,33.2368458 25.5899409,32.0611391 25.5899409,31.04035 C25.7287809,31.9571343 25.6432831,32.4155265 25.3334477,32.4155265 C24.8686945,32.4155265 24.4342939,32.0611391 24.4342939,31.04035 C24.4342939,30.019561 24.8520157,28.5322157 24.8520157,27.5054914 L27.7233276,26.8022762 Z" id="Path-14" fill="#B7898A"></path>
                                <path d="M9.00460876,-1.13686838e-13 C9.21524515,1.04672859 9.88464065,1.57009288 11.0127953,1.57009288 C12.1409499,1.57009288 12.8093928,1.04672859 13.018124,-1.13686838e-13 L20.3525741,1.57009288 C21.4065702,1.96419938 22.2063593,3.06605719 22.7519414,4.87566632 C23.2975235,6.68527545 25.1646044,14.0042364 28.3531842,26.8325491 L24.1167413,28.1822301 L20.0439072,14.5265692 L20.0439072,28.1822301 L4.00080202,28.1822301 L4.00080202,21.6289111 L0,21.6289111 L0,6.40450893 C0.115904812,3.78725626 0.79504601,2.26676813 2.03742359,1.84304454 C3.27980118,1.41932095 5.60219623,0.804972767 9.00460876,-1.13686838e-13 Z" id="Path-9" fill="#FFFFFF"></path>
                                <path d="M5.0832377,10.7053401 L7.77512149,13.4844057 L4.28860753,23.089482 C3.44311243,24.1190827 2.38227838,24.2329744 1.1061054,23.4311571 C-0.808154083,22.2284312 0.219799598,19.6350029 0.810182111,18.5569328 C1.20377045,17.8382194 2.62812232,15.2210218 5.0832377,10.7053401 Z" id="Path-10" fill="#E6E6E6"></path>
                                <rect id="Rectangle-20" fill="#000000" x="8" y="2" width="5" height="10" rx="1"></rect>
                                <path d="M5,10.5409244 C5.23526487,8.69960699 6.2435959,6.84078719 8.0249931,4.96446499 L8.0249931,7.12020893 C9.71614587,5.98684742 10.7580727,5.42016667 11.1507735,5.42016667 C11.7398247,5.42016667 11.9626949,6.19127426 11.4263714,6.61633641 C11.0688224,6.89971118 10.7186112,7.28441977 10.3757377,7.77046219 C11.405,8.27873634 11.8277652,9.01485918 11.6440332,9.97883071 C11.3684352,11.424788 9.81221008,13.3846595 8.25555476,13.3846595 C7.45379113,13.3846595 6.29628269,12.9442489 5.43791685,11.8126613 C5.26947154,11.5905991 5.12349925,11.1666868 5,10.5409244 Z" id="Path-11" fill="#B7898A"></path>
                                <rect id="Rectangle-21" fill="#000000" x="4" y="28" width="16" height="2"></rect>
                                <rect id="Rectangle-22" fill="#FFFFFF" x="10" y="28" width="4" height="2"></rect>
                            </g>
                            <path d="M10,59 L10,101 L4,101 L4,49 L10,49 L14,49 L20,49 L20,101 L14,101 L14,59 C14,57.8954305 13.1045695,57 12,57 C10.8954305,57 10,57.8954305 10,59 Z" id="Combined-Shape" fill="url(#linearGradient-8)"></path>
                            <rect id="Rectangle-25" fill="#16337F" x="3" y="101" width="8" height="3"></rect>
                            <rect id="Rectangle-25-Copy" fill="#16337F" x="13" y="101" width="8" height="3"></rect>
                            <g id="鞋2" transform="translate(4.000000, 105.000000)">
                                <path d="M3,0 C4.38828712,0 5.45300293,2.83799863 5.45300293,3.61424543 C5.45300293,4.39049223 6.89369783,8.0861391 5.09886129,8.0861391 C3.9023036,8.0861391 2.43938297,8.0861391 0.710099392,8.0861391 C0.236699797,7.79479252 3.58613497e-17,7.25867904 0,6.47779866 C-1.04083409e-17,5.30647809 0.464050332,4.28005736 0.710099392,3.61424543 C0.956148453,2.9484335 1.61171288,0 3,0 Z" id="Path-12" fill="#16337F"></path>
                                <path d="M0.154667353,6.81315632 C0.464002059,6.81315632 1.13670441,7.56221562 1.44062034,7.56221562 C1.74453627,7.56221562 2.21643426,6 3.10851963,6 C4.000605,6 4.49448774,7.56221562 4.82936811,7.56221562 C5.16424847,7.56221562 5.51312621,6.81315632 5.96272981,6.81315632 C6.26246554,6.81315632 6.26246554,7.23748392 5.96272981,8.0861391 L0.154667353,8.0861391 C-0.0515557843,7.23748392 -0.0515557843,6.81315632 0.154667353,6.81315632 Z" id="Path-13" fill="#04203B"></path>
                            </g>
                            <g id="鞋1" transform="translate(16.500000, 109.500000) scale(-1, 1) translate(-16.500000, -109.500000) translate(13.000000, 105.000000)">
                                <path d="M3,0 C4.38828712,0 5.45300293,2.83799863 5.45300293,3.61424543 C5.45300293,4.39049223 6.89369783,8.0861391 5.09886129,8.0861391 C3.9023036,8.0861391 2.43938297,8.0861391 0.710099392,8.0861391 C0.236699797,7.79479252 3.58613497e-17,7.25867904 0,6.47779866 C-1.04083409e-17,5.30647809 0.464050332,4.28005736 0.710099392,3.61424543 C0.956148453,2.9484335 1.61171288,0 3,0 Z" id="Path-12" fill="#16337F"></path>
                                <path d="M0.154667353,6.81315632 C0.464002059,6.81315632 1.13670441,7.56221562 1.44062034,7.56221562 C1.74453627,7.56221562 2.21643426,6 3.10851963,6 C4.000605,6 4.49448774,7.56221562 4.82936811,7.56221562 C5.16424847,7.56221562 5.55127058,6.81315632 6.00087418,6.81315632 C6.30060991,6.81315632 6.30060991,7.23748392 6.00087418,8.0861391 L0.154667353,8.0861391 C-0.0515557843,7.23748392 -0.0515557843,6.81315632 0.154667353,6.81315632 Z" id="Path-13" fill="#04203B"></path>
                            </g>
                            <g id="头" transform="translate(4.000000, 0.000000)">
                                <rect id="Rectangle-17" fill="#B7898A" x="1" y="2" width="12" height="16" rx="6"></rect>
                                <circle id="Oval-8" fill="#9D6D6E" cx="13" cy="9" r="1"></circle>
                                <circle id="Oval-8-Copy" fill="#9D6D6E" cx="1" cy="9" r="1"></circle>
                                <path d="M4.78067271,2.46343088 L2.98157537,0.705218143 C5.78945084,0.705218143 7.80878341,0.705218143 9.0395731,0.705218143 C10.8857576,0.705218143 12.9397722,1.56187292 12.9397722,4.05033013 L12.9397722,8.13774231 C11.7216207,4.16267544 9.73641683,2.175142 6.98416073,2.175142 C6.10962622,2.175142 5.37513021,2.27123829 4.78067271,2.46343088 Z" id="Path-7" fill="#000000"></path>
                                <path d="M4.90974287,2.4160481 C3.78981618,1.7484122 2.72997752,1.810653 1.7302269,2.60277051 C0.730476285,3.39488801 0.480101759,5.2275317 0.979103326,8.10070156 C1.206852,6.82251177 1.61517389,5.69678736 2.20406899,4.72352835 C2.79296409,3.75026934 3.69485538,2.98110926 4.90974287,2.4160481 Z" id="Path-8" fill="#000000"></path>
                                <circle id="Oval-2" stroke="#FFFFFF" cx="10.5" cy="7.5" r="2"></circle>
                                <rect id="Rectangle-18" fill="#FFFFFF" x="5" y="7" width="4" height="1"></rect>
                                <circle id="Oval-7" fill="#0E0909" cx="10.5" cy="7.5" r="1"></circle>
                                <circle id="Oval-7-Copy" fill="#0E0909" cx="3.5" cy="7.5" r="1"></circle>
                                <circle id="Oval-2-Copy" stroke="#FFFFFF" cx="3.5" cy="7.5" r="2"></circle>
                                <path d="M4.17070571,11 C4.58254212,9.83480763 5.69378117,9 7,9 C8.30621883,9 9.41745788,9.83480763 9.82929429,11 L13,11 L13,12 C13,15.3137085 10.3137085,18 7,18 C3.6862915,18 1,15.3137085 1,12 L1,11 L4.17070571,11 Z" id="Combined-Shape" fill="#000000"></path>
                                <path d="M5,11 L9,11 C9,12.1045695 8.1045695,13 7,13 C5.8954305,13 5,12.1045695 5,11 Z" id="Combined-Shape" fill="#FFFFFF"></path>
                            </g>
                        </g>
                        <g id="women" transform="translate(30.000000, 203.500000) scale(-1, 1) translate(-30.000000, -203.500000) translate(0.000000, 156.000000)" fill-rule="nonzero">
                            <circle id="Oval-10" fill="#000000" cx="40" cy="15" r="4"></circle>
                            <polygon id="Rectangle-27" fill="#F09980" points="34.667719 13 39 13 39 22 34.667719 22"></polygon>
                            <g id="头" transform="translate(27.000000, 0.000000)">
                                <path d="M2,6 C2,9.30564489 2,11.6295389 2,12.9716819 C2,14.9848965 2.821182,17.316215 5.05157329,17.316215 C7.28196459,17.316215 9.41855069,17.1309815 11.4302396,14.8549126 C12.7713656,13.3375333 13.2918609,10.6617191 12.9917257,6.82746994 L2,6 Z" id="Path-15" fill="#F5AF95"></path>
                                <path d="M3,14 L7,14 C7,15.1045695 6.1045695,16 5,16 C3.8954305,16 3,15.1045695 3,14 Z" id="Combined-Shape" fill="#FFFFFF"></path>
                                <path d="M2.06185973,13.6715805 L2.06185973,7.46721638 C2.66301201,8.7779665 4.02660728,9.43334156 6.15264555,9.43334156 C9.34170296,9.43334156 11.4108225,8.64041955 11.7675867,10.6300898 C12.0054296,11.9565367 12.0814334,13.1716164 11.9955983,14.2753289 C14.4663558,13.111387 15.7017345,11.2586659 15.7017345,8.71716561 C15.7017345,6.17566534 14.8507698,4.19240399 13.1488405,2.76738154 C11.350068,1.36186312 9.58407688,0.659103912 7.85086724,0.659103912 C5.25105279,0.659103912 2.89499633,0.946327374 1.15359611,4.19153929 C0.45499751,5.49342296 -0.28136385,7.75302661 0.108023531,9.77662423 C0.279822107,10.66944 0.93110084,11.9677587 2.06185973,13.6715805 Z" id="Path-16" fill="#000000"></path>
                                <circle id="Oval-9" fill="#000000" cx="3.5" cy="11.5" r="1"></circle>
                                <circle id="Oval-9-Copy" fill="#000000" cx="6.5" cy="11.5" r="1"></circle>
                            </g>
                            <polygon id="Path-21" fill="#FFFFFF" points="23.1527933 84.4260027 23.936526 89.029731 21.5190036 90.2261393 18.9548041 89.32215 18 84"></polygon>
                            <polygon id="Path-21-Copy" fill="#FFFFFF" points="12.936526 84.2169548 13.3398002 89.1333842 10.5190036 91.2261393 8.31517767 89.3860568 8.31517767 84.2169548"></polygon>
                            <path d="M30.687658,43 L43.3650241,43 C45.1286289,45.3450605 46.0104313,47.3370717 46.0104313,48.9760335 C46.0104313,51.4344763 45.236025,55.4072448 40.6584843,55.4072448 C37.6067904,55.4072448 28.1469144,55.4072448 12.2788562,55.4072448 L13.1534132,84.920835 L8.01042317,85.920835 L4.01042317,51.8772567 C3.69097499,48.4579044 4.96514598,46.6218104 7.83293613,46.3689746 C10.7007263,46.1161389 18.3189669,45.6819741 30.687658,45.0664803 L30.687658,43 Z" id="Path-19" fill="#000000"></path>
                            <path d="M30.725261,43 L43.4026271,43 C45.1662319,45.3450605 46.0480343,47.3370717 46.0480343,48.9760335 C46.0480343,51.4344763 45.273628,55.4072448 40.6960872,55.4072448 C37.6443934,55.4072448 31.3061463,55.4072448 21.6813459,55.4072448 L23.7192907,84.973148 L18.5763007,85.973148 L12.9144317,54.451404 C12.4833828,51.8661581 13.3517608,50.1079721 15.5195656,49.176846 C17.6873703,48.2457199 22.7559354,46.875598 30.725261,45.0664803 L30.725261,43 Z" id="Path-19-Copy" fill="#17175E"></path>
                            <path d="M13.3880586,89 C13.8628044,90.7378115 14.1001772,91.8021271 14.1001772,92.1929468 C14.1001772,92.7791764 14.1354074,94.1165125 12.0452422,94.1165125 C10.6517988,94.1165125 8.13641898,94.1165125 4.49910266,94.1165125 C2.2200518,94.0282023 0.724467082,93.3870137 0.012348502,92.1929468 C-0.10226689,91.5191377 0.580989071,91.1037874 2.06211638,90.9468959 C3.5432437,90.7900043 5.61493256,90.141039 8.27718296,89 C9.6577839,89.4723866 10.6377798,89.7085799 11.2171706,89.7085799 C11.7965614,89.7085799 12.5201908,89.4723866 13.3880586,89 Z" id="Path-20" fill="#131441"></path>
                            <path d="M24.3880586,89 C24.8628044,90.7378115 25.1001772,91.8021271 25.1001772,92.1929468 C25.1001772,92.7791764 25.1354074,94.1165125 23.0452422,94.1165125 C21.6517988,94.1165125 19.136419,94.1165125 15.4991027,94.1165125 C13.2200518,94.0282023 11.7244671,93.3870137 11.0123485,92.1929468 C10.8977331,91.5191377 11.5809891,91.1037874 13.0621164,90.9468959 C14.5432437,90.7900043 16.6149326,90.141039 19.277183,89 C20.6577839,89.4723866 21.6377798,89.7085799 22.2171706,89.7085799 C22.7965614,89.7085799 23.5201908,89.4723866 24.3880586,89 Z" id="Path-20-Copy" fill="#2E3192"></path>
                            <g id="Group-22" transform="translate(34.000000, 37.000000) scale(-1, 1) translate(-34.000000, -37.000000) translate(8.000000, 18.000000)">
                                <path d="M9.91223126,34 L9.46662437,35.4261538 C9.42895006,36.8571602 8.89101021,37.5726635 7.85280484,37.5726635 C6.81459947,37.5726635 4.83665369,37.5726635 1.9189675,37.5726635 L0.9885795,37.8594559 C0.503048426,38.0083003 0.185375405,37.9127029 0.0355604381,37.5726635 C-0.189162013,37.0626044 0.704566321,36.6858171 1.21886046,36.4862403 C1.56172321,36.353189 3.4755256,35.7315187 6.96026762,34.6212292 L7.18485772,34 L9.91223126,34 Z" id="Path-24" fill="#F5AF95"></path>
                                <path d="M42.9779083,4.90140853 L46.7133566,4.90140853 C46.9457551,4.81988377 47.1935497,4.69393509 47.4567406,4.52356247 C47.7199314,4.35318986 48.9124074,3.60062993 51.0341685,2.26588268 C51.3084342,1.99893658 51.339707,1.75945682 51.1279869,1.54744341 C50.9162668,1.33543 50.6565751,1.3649975 50.3489119,1.63614589 L48.5738724,2.78339396 L45.5985724,3.00325293 C45.6945522,2.77210222 45.8465324,2.65652687 46.054513,2.65652687 C46.2624937,2.65652687 46.8495541,2.62519962 47.8156944,2.56254513 C48.1305433,2.41263629 48.2623231,2.20597546 48.2110336,1.94256264 C48.1340995,1.54744341 47.8705217,1.45874093 47.0074735,1.54744341 C46.4321081,1.6065784 45.4070344,1.68334756 43.9322526,1.7777509 C43.7370668,1.74842171 43.5484984,1.80335896 43.3665474,1.94256264 C43.1845965,2.08176633 42.4072812,2.5748084 41.0346016,3.42168886 L42.9779083,4.90140853 Z" id="Path-25" fill="#F5AF95"></path>
                                <path d="M28.5523371,1.90154755 L32.5407124,11.5889092 L40.9588717,3.19927554 L43.3878275,5.01620959 L34.0597492,16.6866416 C33.5352405,17.4860447 32.8502249,17.8857463 32.0047023,17.8857463 C31.1591798,17.8857463 30.4553178,17.3693228 29.8931165,16.3364757 L28,12.5524633 L28.5523371,1.90154755 Z" id="Path-23" fill="#46D1F1"></path>
                                <path d="M21.0049836,0 L21.0049836,2.05470524 C21.5009866,3.20268006 22.2721304,3.77666747 23.3184147,3.77666747 C24.3646991,3.77666747 25.0386119,3.20268006 25.3401531,2.05470524 L25.3401531,0 L28.5519432,1.88833373 L28.9455481,3.49221593 L30.3768573,8.17001376 C30.8431706,9.62059656 31.0763273,10.591972 31.0763273,11.0841402 C31.0763273,11.5763083 30.3955437,12.3434488 29.0339765,13.3855617 L29.5151557,25.156944 L16.1371097,25.156944 L16.1371097,15.3314593 L10.7054386,34.2361482 L7,34.2361482 L14.2989949,4.44761952 C14.5315279,3.29338157 15.1442328,2.49574348 16.1371097,2.05470524 C17.1299867,1.61366701 18.7526113,0.92876526 21.0049836,0 Z" id="Path-22" fill="#68E1FD"></path>
                            </g>
                        </g>
                        <g id="img_28" transform="translate(41.000000, 154.000000)" fill-rule="nonzero">
                            <polygon id="Shape" fill="#2198D2" points="5.94564748 0 5.81309353 0.447115385 5.81309353 13.3990385 5.94564748 13.53125 11.9780576 9.97596154"></polygon>
                            <polygon id="Shape" fill="#50CCFF" points="5.98902878 0 0 9.97596154 5.98902878 13.53125 5.98902878 7.24278846"></polygon>
                            <polygon id="Shape" fill="#2198D2" points="6.06133094 13.4927885 5.98902878 13.5817308 5.98902878 18.1754808 6.06133094 18.3918269 11.9780576 9.95673077"></polygon>
                            <polygon id="Shape" fill="#50E2FF" points="5.98902878 18.3918269 5.98902878 13.4927885 0 9.95673077"></polygon>
                            <polygon id="Shape" fill="#132030" points="5.98902878 13.53125 11.9780576 9.95432692 5.98902878 7.20432692"></polygon>
                            <polygon id="Shape" fill="#2D6FBC" points="0 9.95432692 5.98902878 13.53125 5.98902878 7.20432692"></polygon>
                        </g>
                    </g>
                </g>
            </g>
        </g>
    </g>
</svg>