<?xml version="1.0" encoding="UTF-8"?>
<svg width="464px" height="271px" viewBox="0 0 464 271" version="1.1" xmlns="http://www.w3.org/2000/svg" xmlns:xlink="http://www.w3.org/1999/xlink">
    <!-- Generator: Sketch 51.1 (57501) - http://www.bohemiancoding.com/sketch -->
    <title>safe</title>
    <desc>Created with Sketch.</desc>
    <defs>
        <path d="M37.87115,221.088495 C54.4130497,217.906115 63.7870446,211.259258 65.9931347,201.147922 C67.7702704,193.002644 79.2031778,161.770629 74.0645593,165.523555 C70.3627541,168.227122 73.7665293,160.064012 74.3028449,157.071345 C74.6684895,155.031029 76.0984119,150.072762 75.3923051,150.989409 C72.2789845,155.031029 77.7747518,137.705992 78.8260918,131.996493 C80.4677672,123.081068 78.0352792,108.585035 76.5558737,112.261427 C75.0764683,115.937818 78.0352792,105.133882 76.5558737,99.0938081 C75.4839932,94.7175651 73.6643943,91.4377204 74.0645593,83.6356307 C74.3183475,78.6874748 70.6941003,72.2361987 70.3627541,67.6459374 C69.9789887,62.3294945 67.3481385,55.9462693 65.9931347,54.3509673 C61.6235153,49.2064336 62.8938836,48.0169969 58.9543004,41.2143071 C53.9993766,32.6583744 52.4004127,31.5548233 50.3020001,23.525704 C49.4539919,20.2809851 47.5857474,20.5409139 46.4732636,14.9944004 C42.6079173,-4.27706756 41.0557742,3.85032663 37.87115,1.71994948 C34.6865259,-0.410427667 32.2868354,-1.04634953 30.7861532,3.02526277 C30.5194932,3.74875798 31.424695,6.51658516 30.7861532,8.93276791 C30.1516111,11.3338168 27.973338,6.33764467 27.699755,8.82898259 C27.2995437,12.4734405 28.4462109,14.3536045 27.699755,18.0319001 C26.5802055,23.548682 24.2883945,27.5335656 22.9464899,30.2246122 C21.7889748,32.545885 21.4440433,37.654 19.3900671,41.2143071 C17.7944195,43.9801597 16.370792,46.6684667 14.6311877,49.2887436 C11.9093158,53.3885598 9.12176948,57.3092189 9.12176948,61.0030394 C9.12176948,65.8932362 6.73472286,74.1978369 6.44099127,82.4001438 C6.18851693,89.4503631 3.98657649,93.35431 2.23829097,97.431163 C1.43198268,99.3114053 2.63271693,107.390344 2.23829097,112.261427 C2.00067887,115.195889 4.48632649,127.066317 1.89744465,122.120733 C-0.691437192,117.175149 2.14233908,133.630335 2.52993638,139.862252 C2.68427151,142.343703 3.38919667,148.050673 3.05541453,147.359773 C1.03922248,143.186428 7.09930647,171.710695 4.48632649,167.490293 C2.63601115,164.501723 6.10251323,178.399939 6.44099127,181.3393 C9.12176948,204.619319 18.1006409,221.088495 33.379543,221.088495 C35.0587783,221.088495 36.5559806,221.088495 37.87115,221.088495 Z" id="path-1"></path>
        <linearGradient x1="95.9253146%" y1="6.54354596%" x2="18.4039331%" y2="100%" id="linearGradient-3">
            <stop stop-color="#5BA7C9" offset="0%"></stop>
            <stop stop-color="#276C9B" offset="100%"></stop>
        </linearGradient>
        <linearGradient x1="-1.11022302e-14%" y1="50%" x2="100%" y2="50%" id="linearGradient-4">
            <stop stop-color="#0D64C8" offset="0%"></stop>
            <stop stop-color="#0496D2" offset="76.2102601%"></stop>
            <stop stop-color="#048FD1" offset="100%"></stop>
        </linearGradient>
        <linearGradient x1="-1.11022302e-14%" y1="50%" x2="100%" y2="50%" id="linearGradient-5">
            <stop stop-color="#37BFF2" offset="0%"></stop>
            <stop stop-color="#00AEEF" offset="100%"></stop>
        </linearGradient>
        <path d="M94,0 C125.766015,22.3111033 157.099349,36.4080403 188,42.290811 C185.593899,106.456146 178.879342,148.005753 167.856328,166.939632 C152.3654,193.547904 119.429812,207.802721 94,212 C68.5701883,207.802721 35.6346003,193.547904 20.1436719,166.939632 C9.12065796,148.005753 2.40610067,106.456146 2.84217094e-14,42.290811 C30.9006512,36.4080403 62.2339845,22.3111033 94,0 Z" id="path-6"></path>
        <linearGradient x1="-1.11022302e-14%" y1="50%" x2="100%" y2="50%" id="linearGradient-8">
            <stop stop-color="#37BFF2" offset="0%"></stop>
            <stop stop-color="#35C8FF" offset="100%"></stop>
        </linearGradient>
        <linearGradient x1="100%" y1="50%" x2="-2.22044605e-14%" y2="50%" id="linearGradient-9">
            <stop stop-color="#FFC358" offset="0%"></stop>
            <stop stop-color="#D58325" offset="100%"></stop>
        </linearGradient>
        <linearGradient x1="100%" y1="50%" x2="-2.22044605e-14%" y2="50%" id="linearGradient-10">
            <stop stop-color="#FAD773" offset="0%"></stop>
            <stop stop-color="#FAAE28" offset="100%"></stop>
        </linearGradient>
        <linearGradient x1="97.5885116%" y1="50%" x2="3.34402095%" y2="50%" id="linearGradient-11">
            <stop stop-color="#FFE2AF" offset="0%"></stop>
            <stop stop-color="#FFC889" offset="100%"></stop>
        </linearGradient>
        <linearGradient x1="50%" y1="45.2364833%" x2="50%" y2="100%" id="linearGradient-12">
            <stop stop-color="#853ADA" offset="0%"></stop>
            <stop stop-color="#361296" offset="100%"></stop>
        </linearGradient>
        <linearGradient x1="50%" y1="0%" x2="50%" y2="100%" id="linearGradient-13">
            <stop stop-color="#17175E" offset="0%"></stop>
            <stop stop-color="#306FBF" offset="100%"></stop>
        </linearGradient>
        <linearGradient x1="79.1926101%" y1="58.131911%" x2="15.4541341%" y2="18.8972547%" id="linearGradient-14">
            <stop stop-color="#652FBD" offset="0%"></stop>
            <stop stop-color="#853ADA" offset="100%"></stop>
        </linearGradient>
    </defs>
    <g id="HEX上线预热" stroke="none" stroke-width="1" fill="none" fill-rule="evenodd">
        <g transform="translate(-1036.000000, -3057.000000)" id="Group-6">
            <g transform="translate(419.000000, 3057.000000)">
                <g id="safe" transform="translate(617.000000, 0.000000)">
                    <g id="HEX">
                        <g id="灯泡" transform="translate(19.000000, 47.000000)" fill="#F0FBFF" fill-rule="nonzero">
                            <path d="M54.6926043,86.52 L35.6141911,86.52 C34.1466208,86.52 32.8887035,87.78 32.8887035,89.25 C32.8887035,90.72 34.1466208,91.98 35.6141911,91.98 L54.6926043,91.98 C56.1601746,91.98 57.4180919,90.72 57.4180919,89.25 C57.4180919,87.57 56.1601746,86.52 54.6926043,86.52 Z M40.0169018,100.8 C40.4362076,103.32 42.5327365,105 45.0485713,105 C47.564406,105 49.6609349,103.11 50.0802407,100.8 C53.434687,100.59 55.9505217,97.86 55.9505217,94.5 L34.1466208,94.5 C34.1466208,97.86 36.8721084,100.59 40.0169018,100.8 Z M45.0485713,15.54 C46.9354473,15.54 48.6126704,13.86 48.6126704,11.97 L48.6126704,3.57 C48.6126704,1.68 46.9354473,0 45.0485713,0 C43.1616952,0 41.4844721,1.68 41.4844721,3.57 L41.4844721,11.97 C41.4844721,13.86 43.1616952,15.54 45.0485713,15.54 Z M21.5674473,20.79 C22.196406,21.84 23.4543233,22.26 24.5025878,22.26 C25.1315465,22.26 25.970158,22.05 26.5991167,21.63 C28.2763398,20.37 28.4859927,18.27 27.4377283,16.59 L22.6157118,9.87 C21.3577944,8.19 19.2612655,7.98 17.5840423,9.03 C15.9068192,10.29 15.6971663,12.39 16.7454308,14.07 L21.5674473,20.79 Z M12.7620258,32.76 L4.79521588,30.24 C2.90833985,29.61 0.811810924,30.66 0.182852247,32.55 C-0.446106431,34.44 0.602158032,36.54 2.48903406,37.17 L10.455844,39.69 C10.8751498,39.69 11.2944556,39.9 11.7137613,39.9 C13.1813316,39.9 14.6489018,38.85 15.0682076,37.38 C15.6971663,35.49 14.6489018,33.39 12.7620258,32.76 Z M87.3984556,57.12 L79.4316456,54.6 C77.5447696,53.97 75.4482407,55.02 74.819282,56.91 C74.1903233,58.8 75.2385878,60.9 77.1254638,61.53 L85.0922737,64.05 C85.5115795,64.26 85.9308853,64.26 86.1405382,64.26 C87.6081084,64.26 89.0756787,63.21 89.4949845,61.74 C90.333596,59.85 89.2853316,57.75 87.3984556,57.12 Z M10.6654969,54.6 L2.69868696,57.12 C0.811810924,57.75 -0.236453539,59.85 0.392505139,61.74 C0.811810924,63.21 2.27938117,64.26 3.74695142,64.26 C4.16625721,64.26 4.58556299,64.26 4.79521588,64.05 L12.7620258,61.53 C14.6489018,60.9 15.6971663,58.8 15.0682076,56.91 C14.4392489,55.02 12.5523729,53.97 10.6654969,54.6 Z M78.3833812,39.9 C78.802687,39.9 79.2219927,39.9 79.4316456,39.69 L87.3984556,37.17 C89.2853316,36.54 90.333596,34.44 89.7046374,32.55 C89.0756787,30.66 86.9791498,29.61 85.0922737,30.24 L77.1254638,32.76 C75.2385878,33.39 74.1903233,35.49 74.819282,37.38 C75.4482407,38.85 76.9158109,39.9 78.3833812,39.9 Z M67.6910837,9.87 L62.8690671,16.59 C61.6111498,18.27 62.0304556,20.37 63.7076787,21.63 C64.3366374,22.05 65.1752489,22.26 65.8042076,22.26 C66.8524721,22.26 68.1103894,21.84 68.7393481,20.79 L73.5613646,14.07 C74.819282,12.39 74.3999762,10.29 72.7227531,9.03 C71.0455299,7.77 68.7393481,8.19 67.6910837,9.87 Z M45.0485713,21.21 C30.7921746,21.21 19.0516126,32.76 19.0516126,47.25 C19.0516126,53.34 21.1481415,58.8 24.5025878,63.21 C27.4377283,66.99 30.3728688,71.19 32.8887035,75.6 L32.8887035,84.21 L56.5794803,84.21 L56.5794803,75.81 C59.0953151,71.61 62.2401084,66.99 65.1752489,63.21 C68.7393481,58.8 70.6262241,53.34 70.6262241,47.25 C71.0455299,32.97 59.3049679,21.21 45.0485713,21.21 Z M40.4362076,32.97 C35.1948853,32.97 30.7921746,37.17 30.7921746,42.42 C30.7921746,43.26 30.1632159,43.89 29.3246043,43.89 C28.4859927,43.89 27.8570341,43.26 27.8570341,42.42 C27.8570341,35.49 33.5176622,29.82 40.4362076,29.82 C41.2748192,29.82 41.9037779,30.45 41.9037779,31.29 C41.9037779,32.34 41.2748192,32.97 40.4362076,32.97 Z" id="Shape"></path>
                        </g>
                        <g id="齿轮-copy" transform="translate(297.000000, 124.000000) scale(-1, 1) translate(-297.000000, -124.000000) translate(133.000000, 0.000000)" fill="#F0FBFF" fill-rule="nonzero">
                            <g id="齿轮">
                                <path d="M75.930676,82.3764115 L72.9878423,83.3562954 C71.3529347,84.0095513 69.5545363,83.3562954 68.4101009,82.0497836 C67.2656656,80.5799578 65.9577395,79.2734459 64.6498133,78.1302481 C63.3418872,76.9870502 62.8514149,75.1905965 63.505378,73.5574567 L64.6498133,70.7811191 C65.4672672,68.6580373 64.4863226,66.3716416 62.5244334,65.5550717 L59.4181089,64.2485599 L56.3117844,62.7787341 C54.3498952,61.9621642 51.8975338,62.7787341 50.9165892,64.7385019 L49.6086631,67.5148395 C48.7912093,69.1479793 47.1563016,69.9645492 45.3579032,69.8012352 C43.5595048,69.6379212 41.7611064,69.6379212 39.962708,69.6379212 C38.1643096,69.8012352 36.529402,68.8213513 35.8754389,67.1882115 L34.7310036,64.4118739 C33.9135498,62.4521062 31.4611883,61.4722223 29.4992991,62.2887922 L26.3929746,63.43199 L23.2866501,64.5751879 C21.1612702,65.3917578 20.1803256,67.6781535 20.8342887,69.8012352 L21.8152333,72.7408868 C22.4691963,74.3740266 21.8152333,76.1704803 20.5073071,77.3136782 C19.0358903,78.456876 17.7279642,79.7633879 16.5835288,81.0698997 C15.4390935,82.3764115 13.6406951,82.8663535 12.0057874,82.2130975 L8.89946292,81.0698997 C6.77408299,80.2533298 4.4852123,81.2332137 3.66775848,83.1929814 L2.35983237,86.295947 L1.05190626,89.3989126 C0.234452442,91.3586803 1.05190626,93.80839 3.01379543,94.7882739 L5.79313841,96.0947857 C7.42804605,96.9113556 8.24549986,98.5444954 8.0820091,100.340949 C7.91851833,102.137403 7.91851833,103.933857 7.91851834,105.73031 C8.0820091,107.526764 7.10106452,109.159904 5.46615688,109.81316 L2.6868139,110.956358 C0.724924732,111.772928 -0.25601985,114.222637 0.56143397,116.182405 L1.70586932,119.285371 L2.85030466,122.388336 C3.66775848,124.511418 5.95662917,125.491302 8.0820091,124.838046 L11.0248428,123.858162 C12.6597505,123.204906 14.4581489,123.858162 15.6025842,125.164674 C16.7470196,126.6345 18.0549457,127.941012 19.3628718,129.084209 C20.6707979,130.227407 21.1612702,132.023861 20.5073071,133.657001 L19.3628718,136.433338 C18.545418,138.55642 19.5263626,140.842816 21.4882517,141.659386 L24.5945762,142.965898 L27.7009007,144.272409 C29.6627899,145.088979 32.1151514,144.272409 33.0960959,142.312642 L34.4040221,139.536304 C35.2214759,137.903164 36.8563835,137.086594 38.6547819,137.249908 C40.4531803,137.413222 42.2515787,137.413222 44.0499771,137.413222 C45.8483755,137.249908 47.4832832,138.229792 48.1372462,139.862932 L49.2816816,142.63927 C50.0991354,144.599037 52.5514968,145.578921 54.513386,144.762351 L57.6197105,143.619153 L60.726035,142.475956 C62.8514149,141.659386 63.8323595,139.37299 63.1783965,137.249908 L62.1974519,134.310257 C61.5434888,132.677117 62.1974519,130.880663 63.505378,129.737465 C64.9767949,128.594267 66.284721,127.287756 67.4291563,125.981244 C68.5735917,124.674732 70.3719901,124.18479 72.0068977,124.838046 L74.7862407,125.981244 C76.9116206,126.797814 79.2004913,125.81793 80.0179451,123.858162 L81.3258712,120.755196 L82.6337974,117.652231 C83.4512512,115.692463 82.6337974,113.242753 80.6719082,112.26287 L77.8925652,110.956358 C76.2576576,110.139788 75.4402038,108.506648 75.6036945,106.710194 C75.7671853,104.913741 75.7671853,103.117287 75.7671853,101.320833 C75.6036945,99.5243793 76.5846391,97.8912395 78.2195467,97.2379836 L80.9988897,96.0947857 C82.9607789,95.2782158 83.9417235,92.8285061 83.1242696,90.8687384 L81.9798343,87.7657728 L80.835399,84.6628072 C80.3449267,82.7030395 78.056056,81.7231556 75.930676,82.3764115 Z M47.8102647,118.795429 C39.4722357,122.061708 29.9897714,117.978859 26.7199562,109.649846 C23.4501409,101.320833 27.53741,91.8486223 35.8754389,88.5823427 C44.2134679,85.3160631 53.6959322,89.3989126 56.9657475,97.7279255 C60.2355627,106.056938 56.1482936,115.529149 47.8102647,118.795429 Z M138.384148,129.737465 L136.258768,129.574151 C135.114333,129.410837 134.133388,128.594267 133.642916,127.45107 C133.315934,126.307872 132.825462,125.00136 132.33499,124.021476 C131.844517,122.878278 132.008008,121.571766 132.825462,120.755196 L134.296879,119.285371 C135.441314,118.142173 135.441314,116.509033 134.296879,115.365835 L132.661971,113.732695 L131.027063,112.099556 C130.046119,110.956358 128.24772,110.956358 127.103285,111.936242 L125.468377,113.242753 C124.487433,114.059323 123.179507,114.222637 122.198562,113.569381 C121.054127,112.916125 119.909691,112.426184 118.765256,112.099556 C117.620821,111.772928 116.803367,110.62973 116.803367,109.486532 L116.803367,107.36345 C116.803367,105.893624 115.495441,104.587113 114.024024,104.587113 L109.446283,104.587113 C107.974866,104.587113 106.66694,105.73031 106.503449,107.200136 L106.339958,109.323218 C106.176467,110.466416 105.359014,111.4463 104.214578,111.936242 C103.070143,112.26287 101.762217,112.752812 100.781272,113.242753 C99.6368368,113.732695 98.3289107,113.569381 97.5114569,112.752812 L96.04004,111.282986 C94.8956046,110.139788 93.260697,110.139788 92.1162616,111.282986 L90.481354,112.916125 L88.8464464,114.549265 C87.702011,115.529149 87.702011,117.325603 88.6829556,118.468801 L89.9908817,120.101941 C90.8083355,121.081824 90.9718263,122.388336 90.3178632,123.36822 C89.6639002,124.511418 89.1734279,125.654616 88.8464464,126.797814 C88.5194648,127.941012 87.3750295,128.757581 86.2305942,128.757581 L84.1052142,128.757581 C82.6337974,128.757581 81.3258712,130.064093 81.3258712,131.533919 L81.3258712,136.10671 C81.3258712,137.576536 82.4703066,138.883048 83.9417235,139.046362 L86.0671034,139.209676 C87.2115387,139.37299 88.1924833,140.18956 88.6829556,141.332758 C89.0099371,142.475956 89.5004094,143.782467 89.9908817,144.762351 C90.481354,145.905549 90.3178632,147.212061 89.5004094,148.028631 L88.0289926,149.498457 C86.8845572,150.641655 86.8845572,152.274794 88.0289926,153.417992 L89.6639002,155.051132 L91.2988078,156.684272 C92.2797524,157.82747 94.0781508,157.82747 95.2225862,156.847586 L96.8574938,155.541074 C97.8384384,154.724504 99.1463645,154.56119 100.127309,155.214446 C101.271744,155.867702 102.41618,156.357644 103.560615,156.684272 C104.70505,157.0109 105.522504,158.154098 105.522504,159.297295 L105.522504,161.420377 C105.522504,162.890203 106.83043,164.196715 108.301847,164.196715 L112.879589,164.196715 C114.351006,164.196715 115.658932,163.053517 115.822422,161.583691 L115.985913,159.460609 C116.149404,158.317412 116.966858,157.337528 118.111293,156.847586 C119.255728,156.520958 120.563655,156.031016 121.544599,155.541074 C122.689034,155.051132 123.996961,155.214446 124.814414,156.031016 L126.285831,157.500842 C127.430267,158.644039 129.065174,158.644039 130.20961,157.500842 L131.844517,155.867702 L133.479425,154.234562 C134.62386,153.254678 134.62386,151.458224 133.642916,150.315027 L132.33499,148.681887 C131.517536,147.702003 131.354045,146.395491 132.008008,145.415607 C132.661971,144.272409 133.152443,143.129212 133.479425,141.986014 C133.806406,140.842816 134.950842,140.026246 136.095277,140.026246 L138.220657,140.026246 C139.692074,140.026246 141,138.719734 141,137.249908 L141,132.677117 C141,131.043977 139.855565,129.737465 138.384148,129.737465 Z M110.754209,145.252293 C104.54156,145.088979 99.8003275,139.862932 99.9638183,133.820315 C100.127309,127.614384 105.359014,122.878278 111.408172,123.041592 C117.620821,123.204906 122.362053,128.430953 122.198562,134.473571 C122.198562,140.516188 116.966858,145.415607 110.754209,145.252293 Z M101.199143,175.386803 L99.8912172,175.223489 C99.0737634,175.223489 98.5832911,174.570233 98.2563096,173.916977 C98.0928188,173.100407 97.7658373,172.447151 97.4388558,171.793895 C97.1118742,171.140639 97.275365,170.324069 97.7658373,169.834127 L98.7467819,168.854243 C99.4007449,168.200988 99.4007449,167.05779 98.7467819,166.404534 L97.7658373,165.42465 L96.7848927,164.444766 C96.1309297,163.79151 94.9864943,163.628196 94.3325313,164.281452 L93.3515867,165.098022 C92.8611144,165.587964 92.0436606,165.587964 91.3896975,165.261336 C90.7357345,164.934708 90.0817714,164.60808 89.2643176,164.281452 C88.6103545,163.954824 88.1198822,163.301568 88.1198822,162.648312 L88.1198822,161.3418 C88.1198822,160.361917 87.3024284,159.545347 86.3214838,159.545347 L83.3786501,159.545347 C82.3977055,159.545347 81.5802517,160.198603 81.5802517,161.178486 L81.4167609,162.484998 C81.4167609,163.301568 80.7627979,163.79151 80.1088348,164.118138 C79.291381,164.281452 78.6374179,164.60808 77.9834549,164.934708 C77.3294918,165.261336 76.512038,165.098022 76.0215657,164.60808 L75.0406211,163.628196 C74.3866581,162.97494 73.2422227,162.97494 72.5882597,163.628196 L71.6073151,164.60808 L70.4628798,165.587964 C69.8089167,166.24122 69.6454259,167.384418 70.299389,168.037674 L71.1168428,169.017557 C71.6073151,169.507499 71.6073151,170.324069 71.2803336,170.977325 C70.9533521,171.630581 70.6263705,172.283837 70.299389,173.100407 C69.9724075,173.753663 69.3184444,174.243605 68.6644814,174.243605 L67.3565552,174.243605 C66.3756107,174.243605 65.5581568,175.060175 65.5581568,176.040059 L65.5581568,178.97971 C65.5581568,179.959594 66.2121199,180.776164 67.1930645,180.776164 L68.5009906,180.939478 C69.3184444,180.939478 69.8089167,181.592734 70.1358982,182.24599 C70.299389,183.06256 70.6263705,183.715816 70.9533521,184.369071 C71.2803336,185.022327 71.1168428,185.838897 70.6263705,186.328839 L69.6454259,187.308723 C68.9914629,187.961979 68.9914629,189.105177 69.6454259,189.758433 L70.6263705,190.738317 L71.6073151,191.7182 C72.2612782,192.371456 73.4057135,192.53477 74.0596766,191.881514 L75.0406211,191.064945 C75.5310934,190.575003 76.3485473,190.575003 77.0025103,190.901631 C77.6564734,191.228259 78.3104364,191.554886 79.1278902,191.881514 C79.7818533,192.208142 80.2723256,192.861398 80.2723256,193.514654 L80.2723256,194.821166 C80.2723256,195.80105 81.0897794,196.61762 82.070724,196.61762 L85.0135577,196.61762 C85.9945023,196.61762 86.8119561,195.964364 86.8119561,194.98448 L86.9754469,193.677968 C86.9754469,192.861398 87.6294099,192.371456 88.283373,192.044828 C89.1008268,191.881514 89.7547899,191.554886 90.4087529,191.228259 C91.062716,190.901631 91.8801698,191.064945 92.3706421,191.554886 L93.3515867,192.53477 C94.0055497,193.188026 95.1499851,193.188026 95.8039481,192.53477 L96.7848927,191.554886 L97.7658373,190.575003 C98.4198004,189.921747 98.5832911,188.778549 97.9293281,188.125293 L97.1118742,187.145409 C96.621402,186.655467 96.621402,185.838897 96.9483835,185.185641 C97.275365,184.532385 97.6023465,183.879129 97.9293281,183.06256 C98.2563096,182.409304 98.9102726,181.919362 99.5642357,181.919362 L100.872162,181.919362 C101.853106,181.919362 102.67056,181.102792 102.67056,180.122908 L102.67056,177.183256 C102.834051,176.203372 102.180088,175.386803 101.199143,175.386803 Z M84.0326131,185.022327 C80.2723256,184.859013 77.1660011,181.756048 77.3294918,177.836512 C77.4929826,173.916977 80.5993071,170.977325 84.5230854,171.140639 C88.283373,171.303953 91.3896975,174.406919 91.2262068,178.326454 C91.062716,182.082676 87.9563915,185.185641 84.0326131,185.022327 Z" id="Shape"></path>
                                <path d="M327.099011,247.579279 L327.099011,53.3891638 L316.321859,53.3891638 L316.321859,43.8745811 L321.710435,43.8745811 L321.710435,26.4301727 L300.434016,15.6932934 L279.771765,26.4301727 L279.771765,43.8745811 L285.671814,43.8745811 L285.671814,53.3891638 L273.865676,53.3891638 L273.865676,247.579279 L265.647896,247.579279 L265.647896,43.8745811 L238.238693,26.4301727 L210.318332,43.8745811 L210.318332,247.579279 C191.489191,143.990812 180.91609,61.5297535 178.599029,0.196102182 C167.321145,132.76931 156.481568,215.230369 146.0803,247.579279 L146.0803,34.1868229 L110.500795,0.196102182 L110.500795,247.579279 L327.099011,247.579279 Z" id="Path-34"></path>
                            </g>
                        </g>
                        <g id="H" transform="translate(0.000000, 7.000000)">
                            <rect id="Combined-Shape" fill="#82C6A8" fill-rule="nonzero" x="0" y="215" width="176" height="26" rx="13"></rect>
                            <path d="M47,241 C55.1053115,234.407226 63.0354412,230.540692 70.7903889,229.400397 C82.4228105,227.689955 83.3124598,235.200199 94.4262056,235.200199 C105.539951,235.200199 110.998929,227.138142 121.807823,229.400397 C129.013753,230.908567 138.282651,234.775102 149.614515,241 L47,241 Z" id="Path-27" fill="#74BCA7" fill-rule="nonzero"></path>
                            <path d="M28.8982784,241.111487 C19.4299379,236.334121 15.1129977,232.061849 15.9474577,228.294671 C16.7819178,224.527493 20.4594325,227.191711 26.9800019,236.287326 C23.0426592,227.815756 22.3780363,222.663865 24.9861331,220.831653 C27.5942299,218.99944 29.4300421,224.826262 30.4935697,238.312119 C36.5923276,229.523127 40.9352833,226.183978 43.5224369,228.294671 C46.1095904,230.405364 42.3872439,234.677636 32.3553974,241.111487 L28.8982784,241.111487 Z" id="Path-26" fill="#75BE9E" fill-rule="nonzero"></path>
                            <g id="Rectangle-14" transform="translate(345.000000, 0.000000)">
                                <mask id="mask-2" fill="white">
                                    <use xlink:href="#path-1"></use>
                                </mask>
                                <use id="Mask" fill="#72BBB4" fill-rule="nonzero" xlink:href="#path-1"></use>
                                <path d="M34.5,189.5 L74.5,164.5" id="Line" stroke="#5BA9B3" stroke-linecap="square" fill-rule="nonzero" mask="url(#mask-2)"></path>
                                <path d="M46.5,58.5 L69.5,58.5" id="Line-Copy" stroke="#5BA9B3" stroke-linecap="square" fill-rule="nonzero" mask="url(#mask-2)"></path>
                                <path d="M56.5,175.5 L82.5,120.5" id="Line-2" stroke="#5BA9B3" stroke-linecap="square" fill-rule="nonzero" mask="url(#mask-2)"></path>
                                <path d="M32.5,85.5 L55.5,37.5" id="Line-2-Copy" stroke="#5BA9B3" stroke-linecap="square" fill-rule="nonzero" mask="url(#mask-2)"></path>
                                <rect fill="#80C7A7" fill-rule="nonzero" mask="url(#mask-2)" x="-13" y="-7" width="49" height="228"></rect>
                                <path d="M21.5,61.5 L35.5,29.5" id="Line-2-Copy" stroke="#5BA9B3" stroke-linecap="round" fill-rule="nonzero" mask="url(#mask-2)" transform="translate(28.500000, 45.500000) scale(-1, 1) translate(-28.500000, -45.500000) "></path>
                                <path d="M-6.5,139.5 L35.5,96.5" id="Line-2-Copy-5" stroke="#5BA9B3" stroke-linecap="round" fill-rule="nonzero" mask="url(#mask-2)" transform="translate(14.500000, 118.000000) scale(-1, 1) translate(-14.500000, -118.000000) "></path>
                            </g>
                            <rect id="Rectangle-16" fill="#74BCA7" fill-rule="nonzero" x="272" y="215" width="192" height="26" rx="13"></rect>
                            <path d="M435.456283,241 L432.663582,241 C424.55974,235.692718 421.552786,232.168522 423.642718,230.427411 C425.732651,228.686301 429.240941,231.440764 434.167588,238.690802 C435.026718,227.566322 436.509708,222.759777 438.616559,224.271169 C440.723409,225.782561 440.186519,230.032355 437.005888,237.020551 C442.27328,229.51758 445.244019,227.319867 445.918105,230.427411 C446.592192,233.534956 443.104917,237.059152 435.456283,241 Z" id="Path-26" fill="#82CBB5" fill-rule="nonzero"></path>
                            <g id="Group-19" transform="translate(97.500000, 243.500000) scale(-1, 1) translate(-97.500000, -243.500000) translate(80.000000, 224.000000)">
                                <g transform="translate(-10.714286, -0.722222)">
                                    <g id="Group-18" transform="translate(15.000000, 14.444444)" fill-rule="nonzero">
                                        <path d="M11.1816657,25.2777778 C19.3224997,17.335329 25.1036895,10.4958231 28.5252353,4.75925998 C33.657554,-3.84558465 25.0800726,1.00908873 15.1813895,9.35128372 C8.58226753,14.912747 3.52180435,20.2215784 0,25.2777778 L11.1816657,25.2777778 Z" id="Path-7" fill="url(#linearGradient-3)"></path>
                                        <path d="M6.34853586,24.649083 C17.4233035,12.7214502 25.1416822,4.80978103 29.5036718,0.914075472" id="Path-8" stroke="#226D86" stroke-linecap="round"></path>
                                    </g>
                                    <path d="M25.4172826,39.7222222 L17.8571429,39.6509139 C19.1319027,29.4375787 21.4480722,24.6459915 24.9513829,17.525299 C31.4130405,4.39158645 34.2701159,-3.37394581 34.4261172,6.58963598 C34.530118,13.2320238 29.3646531,24.7087255 25.4172826,39.7222222 Z" id="Path-7" fill="url(#linearGradient-3)" fill-rule="nonzero"></path>
                                    <path d="M14.6592695,32.1467995 C27.0637477,21.8520566 35.4469817,14.7568324 39.8089713,10.8611269" id="Path-8" stroke="#226D86" stroke-linecap="round" fill-rule="nonzero" transform="translate(27.234120, 21.503963) rotate(-31.000000) translate(-27.234120, -21.503963) "></path>
                                    <path d="M17.552148,39.7523905 L10.7142857,39.7523905 C11.9890456,29.5390553 11.5759564,26.6938709 14.0865753,16.5662451 C17.5601398,2.55417812 22.3168141,-4.62424661 22.4728154,5.33933519 C22.5768162,11.9817231 21.4995185,24.7388938 17.552148,39.7523905 Z" id="Path-7-Copy" fill="url(#linearGradient-3)" fill-rule="nonzero"></path>
                                    <path d="M5.79568026,32.8659918 C17.2934175,18.6500961 25.2232809,9.59429542 29.5852706,5.69858986" id="Path-8-Copy" stroke="#226D86" stroke-linecap="round" fill-rule="nonzero" transform="translate(17.690475, 19.282291) rotate(-31.000000) translate(-17.690475, -19.282291) "></path>
                                </g>
                            </g>
                            <g id="Group-3" transform="translate(90.000000, 241.000000)" fill-rule="nonzero">
                                <rect id="Rectangle-16" fill="#82C6A8" x="0" y="0" width="244" height="22" rx="11"></rect>
                                <path d="M153,21.8423218 C158.156827,17.6306884 164.386112,15.5248716 171.687856,15.5248716 C182.640473,15.5248716 184.536921,21.1373066 193.859203,16.8902185 C199.313775,14.4051998 203.677025,8 215.469954,8 C227.310371,8 228.628657,21.8423218 226.796656,21.8423218 C225.575322,21.8423218 200.976436,21.8423218 153,21.8423218 Z" id="Path-4" fill="#74BCA7"></path>
                                <path d="M95,21.8423218 C100.156827,17.6306884 106.386112,15.5248716 113.687856,15.5248716 C124.640473,15.5248716 126.536921,21.1373066 135.859203,16.8902185 C141.313775,14.4051998 145.677025,8 157.469954,8 C169.310371,8 170.628657,21.8423218 168.796656,21.8423218 C167.575322,21.8423218 142.976436,21.8423218 95,21.8423218 Z" id="Path-4-Copy" fill="#74BCA7"></path>
                            </g>
                            <g id="小草" transform="translate(181.000000, 220.000000)" fill-rule="nonzero">
                                <path d="M17.7364223,21.0369271 C24.819626,15.5100343 27.9982687,10.9604286 27.2723505,7.38810993 C26.5464323,3.8157913 23.3677896,6.34248982 17.7364223,14.9682055 C22.2588846,6.17453779 22.8523661,1.26277987 19.5168668,0.232931746 C16.1813676,-0.79691638 14.4387532,1.58814301 14.2890237,7.38810993 C13.6658279,1.84548801 12.2076921,-0.53957138 9.91461621,0.232931746 C6.47500239,1.39168644 7.75859963,10.1434245 9.91461621,14.9682055 C6.07720847,8.37728224 3.0163824,6.31717728 0.732138022,8.78789059 C-1.55210636,11.2586039 1.5087197,15.3416161 9.91461621,21.0369271 L17.7364223,21.0369271 Z" id="Path-5" fill="#82C6A8"></path>
                                <path d="M17.9987829,5 C16.666261,9.78303789 16,14.2089929 16,18.2778651 C19.027633,16.8577932 21.5499263,14.8775941 23.5668799,12.3372677" id="Path-6" stroke="#72BBB4" stroke-linecap="round"></path>
                                <path d="M3.82958381,4.0096489 C3.31841495,9.45292085 3.06283053,14.2089929 3.06283053,18.2778651 C6.71524315,16.0621195 9.54992628,13.6840834 11.5668799,11.143757" id="Path-6-Copy" stroke="#72BBB4" stroke-linecap="round" transform="translate(7.314855, 11.143757) scale(-1, 1) translate(-7.314855, -11.143757) "></path>
                            </g>
                            <g id="Group-9" transform="translate(111.000000, 29.000000)">
                                <path d="M94,203.113986 C76.6154238,195.583859 59.9115535,183.71761 50.1436719,166.939632 C39.120658,148.005753 32.4061007,106.456146 30,42.290811 C51.1309971,38.2679569 72.4643304,30.4038914 94,18.6986146 L94,0 L124,0 C155.766015,22.3111033 187.099349,36.4080403 218,42.290811 C215.593899,106.456146 208.879342,148.005753 197.856328,166.939632 C182.3654,193.547904 149.429812,207.802721 124,212 L94,212 L94,203.113986 Z" id="Combined-Shape" fill="url(#linearGradient-4)" fill-rule="nonzero"></path>
                                <g id="Rectangle-9">
                                    <mask id="mask-7" fill="white">
                                        <use xlink:href="#path-6"></use>
                                    </mask>
                                    <use id="Mask" fill="url(#linearGradient-5)" fill-rule="nonzero" xlink:href="#path-6"></use>
                                    <rect fill="url(#linearGradient-8)" fill-rule="nonzero" mask="url(#mask-7)" x="0" y="0" width="94" height="212"></rect>
                                </g>
                            </g>
                            <g id="Group-26" transform="translate(296.000000, 161.000000)" fill-rule="nonzero">
                                <g id="Group-25" transform="translate(17.000000, 45.000000)">
                                    <rect id="Rectangle-44" fill="url(#linearGradient-9)" x="0" y="0" width="37" height="9"></rect>
                                    <path d="M1,0 L2,0 L2,9 L1,9 L1,0 Z M3,0 L4,0 L4,9 L3,9 L3,0 Z M5,0 L6,0 L6,9 L5,9 L5,0 Z M7,0 L8,0 L8,9 L7,9 L7,0 Z M9,0 L10,0 L10,9 L9,9 L9,0 Z M11,0 L12,0 L12,9 L11,9 L11,0 Z M13,0 L14,0 L14,9 L13,9 L13,0 Z M15,0 L16,0 L16,9 L15,9 L15,0 Z M17,0 L18,0 L18,9 L17,9 L17,0 Z M19,0 L20,0 L20,9 L19,9 L19,0 Z M21,0 L22,0 L22,9 L21,9 L21,0 Z M23,0 L24,0 L24,9 L23,9 L23,0 Z M25,0 L26,0 L26,9 L25,9 L25,0 Z M27,0 L28,0 L28,9 L27,9 L27,0 Z M29,0 L30,0 L30,9 L29,9 L29,0 Z M31,0 L32,0 L32,9 L31,9 L31,0 Z M33,0 L34,0 L34,9 L33,9 L33,0 Z M35,0 L36,0 L36,9 L35,9 L35,0 Z" id="Combined-Shape" fill="url(#linearGradient-10)"></path>
                                    <rect id="Rectangle-44-Copy" fill="url(#linearGradient-11)" x="0" y="0" width="37" height="1"></rect>
                                </g>
                                <g id="Group-25-Copy-7" transform="translate(55.000000, 45.000000)">
                                    <rect id="Rectangle-44" fill="url(#linearGradient-9)" x="0" y="0" width="37" height="9"></rect>
                                    <path d="M1,0 L2,0 L2,9 L1,9 L1,0 Z M3,0 L4,0 L4,9 L3,9 L3,0 Z M5,0 L6,0 L6,9 L5,9 L5,0 Z M7,0 L8,0 L8,9 L7,9 L7,0 Z M9,0 L10,0 L10,9 L9,9 L9,0 Z M11,0 L12,0 L12,9 L11,9 L11,0 Z M13,0 L14,0 L14,9 L13,9 L13,0 Z M15,0 L16,0 L16,9 L15,9 L15,0 Z M17,0 L18,0 L18,9 L17,9 L17,0 Z M19,0 L20,0 L20,9 L19,9 L19,0 Z M21,0 L22,0 L22,9 L21,9 L21,0 Z M23,0 L24,0 L24,9 L23,9 L23,0 Z M25,0 L26,0 L26,9 L25,9 L25,0 Z M27,0 L28,0 L28,9 L27,9 L27,0 Z M29,0 L30,0 L30,9 L29,9 L29,0 Z M31,0 L32,0 L32,9 L31,9 L31,0 Z M33,0 L34,0 L34,9 L33,9 L33,0 Z M35,0 L36,0 L36,9 L35,9 L35,0 Z" id="Combined-Shape" fill="url(#linearGradient-10)"></path>
                                    <rect id="Rectangle-44-Copy" fill="url(#linearGradient-11)" x="0" y="0" width="37" height="1"></rect>
                                </g>
                                <g id="Group-25-Copy" transform="translate(12.000000, 36.000000)">
                                    <rect id="Rectangle-44" fill="url(#linearGradient-9)" x="0" y="0" width="37" height="9"></rect>
                                    <path d="M1,0 L2,0 L2,9 L1,9 L1,0 Z M3,0 L4,0 L4,9 L3,9 L3,0 Z M5,0 L6,0 L6,9 L5,9 L5,0 Z M7,0 L8,0 L8,9 L7,9 L7,0 Z M9,0 L10,0 L10,9 L9,9 L9,0 Z M11,0 L12,0 L12,9 L11,9 L11,0 Z M13,0 L14,0 L14,9 L13,9 L13,0 Z M15,0 L16,0 L16,9 L15,9 L15,0 Z M17,0 L18,0 L18,9 L17,9 L17,0 Z M19,0 L20,0 L20,9 L19,9 L19,0 Z M21,0 L22,0 L22,9 L21,9 L21,0 Z M23,0 L24,0 L24,9 L23,9 L23,0 Z M25,0 L26,0 L26,9 L25,9 L25,0 Z M27,0 L28,0 L28,9 L27,9 L27,0 Z M29,0 L30,0 L30,9 L29,9 L29,0 Z M31,0 L32,0 L32,9 L31,9 L31,0 Z M33,0 L34,0 L34,9 L33,9 L33,0 Z M35,0 L36,0 L36,9 L35,9 L35,0 Z" id="Combined-Shape" fill="url(#linearGradient-10)"></path>
                                    <rect id="Rectangle-44-Copy" fill="url(#linearGradient-11)" x="0" y="0" width="37" height="1"></rect>
                                </g>
                                <g id="Group-25-Copy-6" transform="translate(60.000000, 36.000000)">
                                    <rect id="Rectangle-44" fill="url(#linearGradient-9)" x="0" y="0" width="37" height="9"></rect>
                                    <path d="M1,0 L2,0 L2,9 L1,9 L1,0 Z M3,0 L4,0 L4,9 L3,9 L3,0 Z M5,0 L6,0 L6,9 L5,9 L5,0 Z M7,0 L8,0 L8,9 L7,9 L7,0 Z M9,0 L10,0 L10,9 L9,9 L9,0 Z M11,0 L12,0 L12,9 L11,9 L11,0 Z M13,0 L14,0 L14,9 L13,9 L13,0 Z M15,0 L16,0 L16,9 L15,9 L15,0 Z M17,0 L18,0 L18,9 L17,9 L17,0 Z M19,0 L20,0 L20,9 L19,9 L19,0 Z M21,0 L22,0 L22,9 L21,9 L21,0 Z M23,0 L24,0 L24,9 L23,9 L23,0 Z M25,0 L26,0 L26,9 L25,9 L25,0 Z M27,0 L28,0 L28,9 L27,9 L27,0 Z M29,0 L30,0 L30,9 L29,9 L29,0 Z M31,0 L32,0 L32,9 L31,9 L31,0 Z M33,0 L34,0 L34,9 L33,9 L33,0 Z M35,0 L36,0 L36,9 L35,9 L35,0 Z" id="Combined-Shape" fill="url(#linearGradient-10)"></path>
                                    <rect id="Rectangle-44-Copy" fill="url(#linearGradient-11)" x="0" y="0" width="37" height="1"></rect>
                                </g>
                                <g id="Group-25-Copy-2" transform="translate(0.000000, 27.000000)">
                                    <rect id="Rectangle-44" fill="url(#linearGradient-9)" x="0" y="0" width="37" height="9"></rect>
                                    <path d="M1,0 L2,0 L2,9 L1,9 L1,0 Z M3,0 L4,0 L4,9 L3,9 L3,0 Z M5,0 L6,0 L6,9 L5,9 L5,0 Z M7,0 L8,0 L8,9 L7,9 L7,0 Z M9,0 L10,0 L10,9 L9,9 L9,0 Z M11,0 L12,0 L12,9 L11,9 L11,0 Z M13,0 L14,0 L14,9 L13,9 L13,0 Z M15,0 L16,0 L16,9 L15,9 L15,0 Z M17,0 L18,0 L18,9 L17,9 L17,0 Z M19,0 L20,0 L20,9 L19,9 L19,0 Z M21,0 L22,0 L22,9 L21,9 L21,0 Z M23,0 L24,0 L24,9 L23,9 L23,0 Z M25,0 L26,0 L26,9 L25,9 L25,0 Z M27,0 L28,0 L28,9 L27,9 L27,0 Z M29,0 L30,0 L30,9 L29,9 L29,0 Z M31,0 L32,0 L32,9 L31,9 L31,0 Z M33,0 L34,0 L34,9 L33,9 L33,0 Z M35,0 L36,0 L36,9 L35,9 L35,0 Z" id="Combined-Shape" fill="url(#linearGradient-10)"></path>
                                    <rect id="Rectangle-44-Copy" fill="url(#linearGradient-11)" x="0" y="0" width="37" height="1"></rect>
                                </g>
                                <g id="Group-25-Copy-9" transform="translate(47.000000, 27.000000)">
                                    <rect id="Rectangle-44" fill="url(#linearGradient-9)" x="0" y="0" width="37" height="9"></rect>
                                    <path d="M1,0 L2,0 L2,9 L1,9 L1,0 Z M3,0 L4,0 L4,9 L3,9 L3,0 Z M5,0 L6,0 L6,9 L5,9 L5,0 Z M7,0 L8,0 L8,9 L7,9 L7,0 Z M9,0 L10,0 L10,9 L9,9 L9,0 Z M11,0 L12,0 L12,9 L11,9 L11,0 Z M13,0 L14,0 L14,9 L13,9 L13,0 Z M15,0 L16,0 L16,9 L15,9 L15,0 Z M17,0 L18,0 L18,9 L17,9 L17,0 Z M19,0 L20,0 L20,9 L19,9 L19,0 Z M21,0 L22,0 L22,9 L21,9 L21,0 Z M23,0 L24,0 L24,9 L23,9 L23,0 Z M25,0 L26,0 L26,9 L25,9 L25,0 Z M27,0 L28,0 L28,9 L27,9 L27,0 Z M29,0 L30,0 L30,9 L29,9 L29,0 Z M31,0 L32,0 L32,9 L31,9 L31,0 Z M33,0 L34,0 L34,9 L33,9 L33,0 Z M35,0 L36,0 L36,9 L35,9 L35,0 Z" id="Combined-Shape" fill="url(#linearGradient-10)"></path>
                                    <rect id="Rectangle-44-Copy" fill="url(#linearGradient-11)" x="0" y="0" width="37" height="1"></rect>
                                </g>
                                <g id="Group-25-Copy-3" transform="translate(19.000000, 18.000000)">
                                    <rect id="Rectangle-44" fill="url(#linearGradient-9)" x="0" y="0" width="37" height="9"></rect>
                                    <path d="M1,0 L2,0 L2,9 L1,9 L1,0 Z M3,0 L4,0 L4,9 L3,9 L3,0 Z M5,0 L6,0 L6,9 L5,9 L5,0 Z M7,0 L8,0 L8,9 L7,9 L7,0 Z M9,0 L10,0 L10,9 L9,9 L9,0 Z M11,0 L12,0 L12,9 L11,9 L11,0 Z M13,0 L14,0 L14,9 L13,9 L13,0 Z M15,0 L16,0 L16,9 L15,9 L15,0 Z M17,0 L18,0 L18,9 L17,9 L17,0 Z M19,0 L20,0 L20,9 L19,9 L19,0 Z M21,0 L22,0 L22,9 L21,9 L21,0 Z M23,0 L24,0 L24,9 L23,9 L23,0 Z M25,0 L26,0 L26,9 L25,9 L25,0 Z M27,0 L28,0 L28,9 L27,9 L27,0 Z M29,0 L30,0 L30,9 L29,9 L29,0 Z M31,0 L32,0 L32,9 L31,9 L31,0 Z M33,0 L34,0 L34,9 L33,9 L33,0 Z M35,0 L36,0 L36,9 L35,9 L35,0 Z" id="Combined-Shape" fill="url(#linearGradient-10)"></path>
                                    <rect id="Rectangle-44-Copy" fill="url(#linearGradient-11)" x="0" y="0" width="37" height="1"></rect>
                                </g>
                                <g id="Group-25-Copy-8" transform="translate(66.000000, 18.000000)">
                                    <rect id="Rectangle-44" fill="url(#linearGradient-9)" x="0" y="0" width="37" height="9"></rect>
                                    <path d="M1,0 L2,0 L2,9 L1,9 L1,0 Z M3,0 L4,0 L4,9 L3,9 L3,0 Z M5,0 L6,0 L6,9 L5,9 L5,0 Z M7,0 L8,0 L8,9 L7,9 L7,0 Z M9,0 L10,0 L10,9 L9,9 L9,0 Z M11,0 L12,0 L12,9 L11,9 L11,0 Z M13,0 L14,0 L14,9 L13,9 L13,0 Z M15,0 L16,0 L16,9 L15,9 L15,0 Z M17,0 L18,0 L18,9 L17,9 L17,0 Z M19,0 L20,0 L20,9 L19,9 L19,0 Z M21,0 L22,0 L22,9 L21,9 L21,0 Z M23,0 L24,0 L24,9 L23,9 L23,0 Z M25,0 L26,0 L26,9 L25,9 L25,0 Z M27,0 L28,0 L28,9 L27,9 L27,0 Z M29,0 L30,0 L30,9 L29,9 L29,0 Z M31,0 L32,0 L32,9 L31,9 L31,0 Z M33,0 L34,0 L34,9 L33,9 L33,0 Z M35,0 L36,0 L36,9 L35,9 L35,0 Z" id="Combined-Shape" fill="url(#linearGradient-10)"></path>
                                    <rect id="Rectangle-44-Copy" fill="url(#linearGradient-11)" x="0" y="0" width="37" height="1"></rect>
                                </g>
                                <g id="Group-25-Copy-4" transform="translate(15.000000, 9.000000)">
                                    <rect id="Rectangle-44" fill="url(#linearGradient-9)" x="0" y="0" width="37" height="9"></rect>
                                    <path d="M1,0 L2,0 L2,9 L1,9 L1,0 Z M3,0 L4,0 L4,9 L3,9 L3,0 Z M5,0 L6,0 L6,9 L5,9 L5,0 Z M7,0 L8,0 L8,9 L7,9 L7,0 Z M9,0 L10,0 L10,9 L9,9 L9,0 Z M11,0 L12,0 L12,9 L11,9 L11,0 Z M13,0 L14,0 L14,9 L13,9 L13,0 Z M15,0 L16,0 L16,9 L15,9 L15,0 Z M17,0 L18,0 L18,9 L17,9 L17,0 Z M19,0 L20,0 L20,9 L19,9 L19,0 Z M21,0 L22,0 L22,9 L21,9 L21,0 Z M23,0 L24,0 L24,9 L23,9 L23,0 Z M25,0 L26,0 L26,9 L25,9 L25,0 Z M27,0 L28,0 L28,9 L27,9 L27,0 Z M29,0 L30,0 L30,9 L29,9 L29,0 Z M31,0 L32,0 L32,9 L31,9 L31,0 Z M33,0 L34,0 L34,9 L33,9 L33,0 Z M35,0 L36,0 L36,9 L35,9 L35,0 Z" id="Combined-Shape" fill="url(#linearGradient-10)"></path>
                                    <rect id="Rectangle-44-Copy" fill="url(#linearGradient-11)" x="0" y="0" width="37" height="1"></rect>
                                </g>
                                <g id="Group-25-Copy-5" transform="translate(4.000000, 0.000000)">
                                    <rect id="Rectangle-44" fill="url(#linearGradient-9)" x="0" y="0" width="37" height="9"></rect>
                                    <path d="M1,0 L2,0 L2,9 L1,9 L1,0 Z M3,0 L4,0 L4,9 L3,9 L3,0 Z M5,0 L6,0 L6,9 L5,9 L5,0 Z M7,0 L8,0 L8,9 L7,9 L7,0 Z M9,0 L10,0 L10,9 L9,9 L9,0 Z M11,0 L12,0 L12,9 L11,9 L11,0 Z M13,0 L14,0 L14,9 L13,9 L13,0 Z M15,0 L16,0 L16,9 L15,9 L15,0 Z M17,0 L18,0 L18,9 L17,9 L17,0 Z M19,0 L20,0 L20,9 L19,9 L19,0 Z M21,0 L22,0 L22,9 L21,9 L21,0 Z M23,0 L24,0 L24,9 L23,9 L23,0 Z M25,0 L26,0 L26,9 L25,9 L25,0 Z M27,0 L28,0 L28,9 L27,9 L27,0 Z M29,0 L30,0 L30,9 L29,9 L29,0 Z M31,0 L32,0 L32,9 L31,9 L31,0 Z M33,0 L34,0 L34,9 L33,9 L33,0 Z M35,0 L36,0 L36,9 L35,9 L35,0 Z" id="Combined-Shape" fill="url(#linearGradient-10)"></path>
                                    <rect id="Rectangle-44-Copy" fill="url(#linearGradient-11)" x="0" y="0" width="37" height="1"></rect>
                                </g>
                            </g>
                            <g id="Group-26-Copy" transform="translate(57.000000, 161.000000)" fill-rule="nonzero">
                                <g id="Group-25" transform="translate(17.000000, 45.000000)">
                                    <rect id="Rectangle-44" fill="url(#linearGradient-9)" x="0" y="0" width="37" height="9"></rect>
                                    <path d="M1,0 L2,0 L2,9 L1,9 L1,0 Z M3,0 L4,0 L4,9 L3,9 L3,0 Z M5,0 L6,0 L6,9 L5,9 L5,0 Z M7,0 L8,0 L8,9 L7,9 L7,0 Z M9,0 L10,0 L10,9 L9,9 L9,0 Z M11,0 L12,0 L12,9 L11,9 L11,0 Z M13,0 L14,0 L14,9 L13,9 L13,0 Z M15,0 L16,0 L16,9 L15,9 L15,0 Z M17,0 L18,0 L18,9 L17,9 L17,0 Z M19,0 L20,0 L20,9 L19,9 L19,0 Z M21,0 L22,0 L22,9 L21,9 L21,0 Z M23,0 L24,0 L24,9 L23,9 L23,0 Z M25,0 L26,0 L26,9 L25,9 L25,0 Z M27,0 L28,0 L28,9 L27,9 L27,0 Z M29,0 L30,0 L30,9 L29,9 L29,0 Z M31,0 L32,0 L32,9 L31,9 L31,0 Z M33,0 L34,0 L34,9 L33,9 L33,0 Z M35,0 L36,0 L36,9 L35,9 L35,0 Z" id="Combined-Shape" fill="url(#linearGradient-10)"></path>
                                    <rect id="Rectangle-44-Copy" fill="url(#linearGradient-11)" x="0" y="0" width="37" height="1"></rect>
                                </g>
                                <g id="Group-25-Copy-7" transform="translate(55.000000, 45.000000)">
                                    <rect id="Rectangle-44" fill="url(#linearGradient-9)" x="0" y="0" width="37" height="9"></rect>
                                    <path d="M1,0 L2,0 L2,9 L1,9 L1,0 Z M3,0 L4,0 L4,9 L3,9 L3,0 Z M5,0 L6,0 L6,9 L5,9 L5,0 Z M7,0 L8,0 L8,9 L7,9 L7,0 Z M9,0 L10,0 L10,9 L9,9 L9,0 Z M11,0 L12,0 L12,9 L11,9 L11,0 Z M13,0 L14,0 L14,9 L13,9 L13,0 Z M15,0 L16,0 L16,9 L15,9 L15,0 Z M17,0 L18,0 L18,9 L17,9 L17,0 Z M19,0 L20,0 L20,9 L19,9 L19,0 Z M21,0 L22,0 L22,9 L21,9 L21,0 Z M23,0 L24,0 L24,9 L23,9 L23,0 Z M25,0 L26,0 L26,9 L25,9 L25,0 Z M27,0 L28,0 L28,9 L27,9 L27,0 Z M29,0 L30,0 L30,9 L29,9 L29,0 Z M31,0 L32,0 L32,9 L31,9 L31,0 Z M33,0 L34,0 L34,9 L33,9 L33,0 Z M35,0 L36,0 L36,9 L35,9 L35,0 Z" id="Combined-Shape" fill="url(#linearGradient-10)"></path>
                                    <rect id="Rectangle-44-Copy" fill="url(#linearGradient-11)" x="0" y="0" width="37" height="1"></rect>
                                </g>
                                <g id="Group-25-Copy" transform="translate(12.000000, 36.000000)">
                                    <rect id="Rectangle-44" fill="url(#linearGradient-9)" x="0" y="0" width="37" height="9"></rect>
                                    <path d="M1,0 L2,0 L2,9 L1,9 L1,0 Z M3,0 L4,0 L4,9 L3,9 L3,0 Z M5,0 L6,0 L6,9 L5,9 L5,0 Z M7,0 L8,0 L8,9 L7,9 L7,0 Z M9,0 L10,0 L10,9 L9,9 L9,0 Z M11,0 L12,0 L12,9 L11,9 L11,0 Z M13,0 L14,0 L14,9 L13,9 L13,0 Z M15,0 L16,0 L16,9 L15,9 L15,0 Z M17,0 L18,0 L18,9 L17,9 L17,0 Z M19,0 L20,0 L20,9 L19,9 L19,0 Z M21,0 L22,0 L22,9 L21,9 L21,0 Z M23,0 L24,0 L24,9 L23,9 L23,0 Z M25,0 L26,0 L26,9 L25,9 L25,0 Z M27,0 L28,0 L28,9 L27,9 L27,0 Z M29,0 L30,0 L30,9 L29,9 L29,0 Z M31,0 L32,0 L32,9 L31,9 L31,0 Z M33,0 L34,0 L34,9 L33,9 L33,0 Z M35,0 L36,0 L36,9 L35,9 L35,0 Z" id="Combined-Shape" fill="url(#linearGradient-10)"></path>
                                    <rect id="Rectangle-44-Copy" fill="url(#linearGradient-11)" x="0" y="0" width="37" height="1"></rect>
                                </g>
                                <g id="Group-25-Copy-6" transform="translate(60.000000, 36.000000)">
                                    <rect id="Rectangle-44" fill="url(#linearGradient-9)" x="0" y="0" width="37" height="9"></rect>
                                    <path d="M1,0 L2,0 L2,9 L1,9 L1,0 Z M3,0 L4,0 L4,9 L3,9 L3,0 Z M5,0 L6,0 L6,9 L5,9 L5,0 Z M7,0 L8,0 L8,9 L7,9 L7,0 Z M9,0 L10,0 L10,9 L9,9 L9,0 Z M11,0 L12,0 L12,9 L11,9 L11,0 Z M13,0 L14,0 L14,9 L13,9 L13,0 Z M15,0 L16,0 L16,9 L15,9 L15,0 Z M17,0 L18,0 L18,9 L17,9 L17,0 Z M19,0 L20,0 L20,9 L19,9 L19,0 Z M21,0 L22,0 L22,9 L21,9 L21,0 Z M23,0 L24,0 L24,9 L23,9 L23,0 Z M25,0 L26,0 L26,9 L25,9 L25,0 Z M27,0 L28,0 L28,9 L27,9 L27,0 Z M29,0 L30,0 L30,9 L29,9 L29,0 Z M31,0 L32,0 L32,9 L31,9 L31,0 Z M33,0 L34,0 L34,9 L33,9 L33,0 Z M35,0 L36,0 L36,9 L35,9 L35,0 Z" id="Combined-Shape" fill="url(#linearGradient-10)"></path>
                                    <rect id="Rectangle-44-Copy" fill="url(#linearGradient-11)" x="0" y="0" width="37" height="1"></rect>
                                </g>
                                <g id="Group-25-Copy-2" transform="translate(0.000000, 27.000000)">
                                    <rect id="Rectangle-44" fill="url(#linearGradient-9)" x="0" y="0" width="37" height="9"></rect>
                                    <path d="M1,0 L2,0 L2,9 L1,9 L1,0 Z M3,0 L4,0 L4,9 L3,9 L3,0 Z M5,0 L6,0 L6,9 L5,9 L5,0 Z M7,0 L8,0 L8,9 L7,9 L7,0 Z M9,0 L10,0 L10,9 L9,9 L9,0 Z M11,0 L12,0 L12,9 L11,9 L11,0 Z M13,0 L14,0 L14,9 L13,9 L13,0 Z M15,0 L16,0 L16,9 L15,9 L15,0 Z M17,0 L18,0 L18,9 L17,9 L17,0 Z M19,0 L20,0 L20,9 L19,9 L19,0 Z M21,0 L22,0 L22,9 L21,9 L21,0 Z M23,0 L24,0 L24,9 L23,9 L23,0 Z M25,0 L26,0 L26,9 L25,9 L25,0 Z M27,0 L28,0 L28,9 L27,9 L27,0 Z M29,0 L30,0 L30,9 L29,9 L29,0 Z M31,0 L32,0 L32,9 L31,9 L31,0 Z M33,0 L34,0 L34,9 L33,9 L33,0 Z M35,0 L36,0 L36,9 L35,9 L35,0 Z" id="Combined-Shape" fill="url(#linearGradient-10)"></path>
                                    <rect id="Rectangle-44-Copy" fill="url(#linearGradient-11)" x="0" y="0" width="37" height="1"></rect>
                                </g>
                                <g id="Group-25-Copy-9" transform="translate(47.000000, 27.000000)">
                                    <rect id="Rectangle-44" fill="url(#linearGradient-9)" x="0" y="0" width="37" height="9"></rect>
                                    <path d="M1,0 L2,0 L2,9 L1,9 L1,0 Z M3,0 L4,0 L4,9 L3,9 L3,0 Z M5,0 L6,0 L6,9 L5,9 L5,0 Z M7,0 L8,0 L8,9 L7,9 L7,0 Z M9,0 L10,0 L10,9 L9,9 L9,0 Z M11,0 L12,0 L12,9 L11,9 L11,0 Z M13,0 L14,0 L14,9 L13,9 L13,0 Z M15,0 L16,0 L16,9 L15,9 L15,0 Z M17,0 L18,0 L18,9 L17,9 L17,0 Z M19,0 L20,0 L20,9 L19,9 L19,0 Z M21,0 L22,0 L22,9 L21,9 L21,0 Z M23,0 L24,0 L24,9 L23,9 L23,0 Z M25,0 L26,0 L26,9 L25,9 L25,0 Z M27,0 L28,0 L28,9 L27,9 L27,0 Z M29,0 L30,0 L30,9 L29,9 L29,0 Z M31,0 L32,0 L32,9 L31,9 L31,0 Z M33,0 L34,0 L34,9 L33,9 L33,0 Z M35,0 L36,0 L36,9 L35,9 L35,0 Z" id="Combined-Shape" fill="url(#linearGradient-10)"></path>
                                    <rect id="Rectangle-44-Copy" fill="url(#linearGradient-11)" x="0" y="0" width="37" height="1"></rect>
                                </g>
                                <g id="Group-25-Copy-3" transform="translate(19.000000, 18.000000)">
                                    <rect id="Rectangle-44" fill="url(#linearGradient-9)" x="0" y="0" width="37" height="9"></rect>
                                    <path d="M1,0 L2,0 L2,9 L1,9 L1,0 Z M3,0 L4,0 L4,9 L3,9 L3,0 Z M5,0 L6,0 L6,9 L5,9 L5,0 Z M7,0 L8,0 L8,9 L7,9 L7,0 Z M9,0 L10,0 L10,9 L9,9 L9,0 Z M11,0 L12,0 L12,9 L11,9 L11,0 Z M13,0 L14,0 L14,9 L13,9 L13,0 Z M15,0 L16,0 L16,9 L15,9 L15,0 Z M17,0 L18,0 L18,9 L17,9 L17,0 Z M19,0 L20,0 L20,9 L19,9 L19,0 Z M21,0 L22,0 L22,9 L21,9 L21,0 Z M23,0 L24,0 L24,9 L23,9 L23,0 Z M25,0 L26,0 L26,9 L25,9 L25,0 Z M27,0 L28,0 L28,9 L27,9 L27,0 Z M29,0 L30,0 L30,9 L29,9 L29,0 Z M31,0 L32,0 L32,9 L31,9 L31,0 Z M33,0 L34,0 L34,9 L33,9 L33,0 Z M35,0 L36,0 L36,9 L35,9 L35,0 Z" id="Combined-Shape" fill="url(#linearGradient-10)"></path>
                                    <rect id="Rectangle-44-Copy" fill="url(#linearGradient-11)" x="0" y="0" width="37" height="1"></rect>
                                </g>
                                <g id="Group-25-Copy-8" transform="translate(66.000000, 18.000000)">
                                    <rect id="Rectangle-44" fill="url(#linearGradient-9)" x="0" y="0" width="37" height="9"></rect>
                                    <path d="M1,0 L2,0 L2,9 L1,9 L1,0 Z M3,0 L4,0 L4,9 L3,9 L3,0 Z M5,0 L6,0 L6,9 L5,9 L5,0 Z M7,0 L8,0 L8,9 L7,9 L7,0 Z M9,0 L10,0 L10,9 L9,9 L9,0 Z M11,0 L12,0 L12,9 L11,9 L11,0 Z M13,0 L14,0 L14,9 L13,9 L13,0 Z M15,0 L16,0 L16,9 L15,9 L15,0 Z M17,0 L18,0 L18,9 L17,9 L17,0 Z M19,0 L20,0 L20,9 L19,9 L19,0 Z M21,0 L22,0 L22,9 L21,9 L21,0 Z M23,0 L24,0 L24,9 L23,9 L23,0 Z M25,0 L26,0 L26,9 L25,9 L25,0 Z M27,0 L28,0 L28,9 L27,9 L27,0 Z M29,0 L30,0 L30,9 L29,9 L29,0 Z M31,0 L32,0 L32,9 L31,9 L31,0 Z M33,0 L34,0 L34,9 L33,9 L33,0 Z M35,0 L36,0 L36,9 L35,9 L35,0 Z" id="Combined-Shape" fill="url(#linearGradient-10)"></path>
                                    <rect id="Rectangle-44-Copy" fill="url(#linearGradient-11)" x="0" y="0" width="37" height="1"></rect>
                                </g>
                                <g id="Group-25-Copy-4" transform="translate(15.000000, 9.000000)">
                                    <rect id="Rectangle-44" fill="url(#linearGradient-9)" x="0" y="0" width="37" height="9"></rect>
                                    <path d="M1,0 L2,0 L2,9 L1,9 L1,0 Z M3,0 L4,0 L4,9 L3,9 L3,0 Z M5,0 L6,0 L6,9 L5,9 L5,0 Z M7,0 L8,0 L8,9 L7,9 L7,0 Z M9,0 L10,0 L10,9 L9,9 L9,0 Z M11,0 L12,0 L12,9 L11,9 L11,0 Z M13,0 L14,0 L14,9 L13,9 L13,0 Z M15,0 L16,0 L16,9 L15,9 L15,0 Z M17,0 L18,0 L18,9 L17,9 L17,0 Z M19,0 L20,0 L20,9 L19,9 L19,0 Z M21,0 L22,0 L22,9 L21,9 L21,0 Z M23,0 L24,0 L24,9 L23,9 L23,0 Z M25,0 L26,0 L26,9 L25,9 L25,0 Z M27,0 L28,0 L28,9 L27,9 L27,0 Z M29,0 L30,0 L30,9 L29,9 L29,0 Z M31,0 L32,0 L32,9 L31,9 L31,0 Z M33,0 L34,0 L34,9 L33,9 L33,0 Z M35,0 L36,0 L36,9 L35,9 L35,0 Z" id="Combined-Shape" fill="url(#linearGradient-10)"></path>
                                    <rect id="Rectangle-44-Copy" fill="url(#linearGradient-11)" x="0" y="0" width="37" height="1"></rect>
                                </g>
                                <g id="Group-25-Copy-5" transform="translate(24.000000, 0.000000)">
                                    <rect id="Rectangle-44" fill="url(#linearGradient-9)" x="0" y="0" width="37" height="9"></rect>
                                    <path d="M1,0 L2,0 L2,9 L1,9 L1,0 Z M3,0 L4,0 L4,9 L3,9 L3,0 Z M5,0 L6,0 L6,9 L5,9 L5,0 Z M7,0 L8,0 L8,9 L7,9 L7,0 Z M9,0 L10,0 L10,9 L9,9 L9,0 Z M11,0 L12,0 L12,9 L11,9 L11,0 Z M13,0 L14,0 L14,9 L13,9 L13,0 Z M15,0 L16,0 L16,9 L15,9 L15,0 Z M17,0 L18,0 L18,9 L17,9 L17,0 Z M19,0 L20,0 L20,9 L19,9 L19,0 Z M21,0 L22,0 L22,9 L21,9 L21,0 Z M23,0 L24,0 L24,9 L23,9 L23,0 Z M25,0 L26,0 L26,9 L25,9 L25,0 Z M27,0 L28,0 L28,9 L27,9 L27,0 Z M29,0 L30,0 L30,9 L29,9 L29,0 Z M31,0 L32,0 L32,9 L31,9 L31,0 Z M33,0 L34,0 L34,9 L33,9 L33,0 Z M35,0 L36,0 L36,9 L35,9 L35,0 Z" id="Combined-Shape" fill="url(#linearGradient-10)"></path>
                                    <rect id="Rectangle-44-Copy" fill="url(#linearGradient-11)" x="0" y="0" width="37" height="1"></rect>
                                </g>
                            </g>
                            <g id="Group-10" transform="translate(111.000000, 199.000000)" fill-rule="nonzero">
                                <rect id="Rectangle-6" fill="#4489A4" x="0" y="0" width="86" height="42"></rect>
                                <path d="M81.5,32.5275074 L81.5,9.47249258 C81.3348322,9.49077345 81.1679815,9.5 81,9.5 C78.5147186,9.5 76.5,7.48528137 76.5,5 C76.5,4.83201858 76.5092266,4.66516791 76.5275073,4.5 L9.47249258,4.5 C9.49077345,4.66516784 9.5,4.83201855 9.5,5 C9.5,7.48528137 7.48528137,9.5 5,9.5 C4.83201858,9.5 4.66516791,9.49077345 4.5,9.4724927 L4.5,32.5275074 C4.66516784,32.5092266 4.83201855,32.5 5,32.5 C7.48528137,32.5 9.5,34.5147186 9.5,37 C9.5,37.1679814 9.49077345,37.3348321 9.4724927,37.5 L76.5275074,37.5 C76.5092266,37.3348322 76.5,37.1679815 76.5,37 C76.5,34.5147186 78.5147186,32.5 81,32.5 C81.1679815,32.5 81.3348322,32.5092266 81.5000001,32.5275073 Z" id="Combined-Shape" stroke="#FFFFFF"></path>
                                <circle id="Oval-5" stroke="#FFFFFF" cx="43" cy="21" r="12.5"></circle>
                            </g>
                            <g id="con" transform="translate(149.000000, 236.000000)">
                                <g id="Group-25-Copy-10">
                                    <rect id="Rectangle-44" fill="url(#linearGradient-9)" fill-rule="nonzero" x="0" y="0" width="21" height="5"></rect>
                                    <path d="M0.567567568,0 L1.13513514,0 L1.13513514,5 L0.567567568,5 L0.567567568,0 Z M1.7027027,0 L2.27027027,0 L2.27027027,5 L1.7027027,5 L1.7027027,0 Z M2.83783784,0 L3.40540541,0 L3.40540541,5 L2.83783784,5 L2.83783784,0 Z M3.97297297,0 L4.54054054,0 L4.54054054,5 L3.97297297,5 L3.97297297,0 Z M5.10810811,0 L5.67567568,0 L5.67567568,5 L5.10810811,5 L5.10810811,0 Z M6.24324324,0 L6.81081081,0 L6.81081081,5 L6.24324324,5 L6.24324324,0 Z M7.37837838,0 L7.94594595,0 L7.94594595,5 L7.37837838,5 L7.37837838,0 Z M8.51351351,0 L9.08108108,0 L9.08108108,5 L8.51351351,5 L8.51351351,0 Z M9.64864865,0 L10.2162162,0 L10.2162162,5 L9.64864865,5 L9.64864865,0 Z M10.7837838,0 L11.3513514,0 L11.3513514,5 L10.7837838,5 L10.7837838,0 Z M11.9189189,0 L12.4864865,0 L12.4864865,5 L11.9189189,5 L11.9189189,0 Z M13.0540541,0 L13.6216216,0 L13.6216216,5 L13.0540541,5 L13.0540541,0 Z M14.1891892,0 L14.7567568,0 L14.7567568,5 L14.1891892,5 L14.1891892,0 Z M15.3243243,0 L15.8918919,0 L15.8918919,5 L15.3243243,5 L15.3243243,0 Z M16.4594595,0 L17.027027,0 L17.027027,5 L16.4594595,5 L16.4594595,0 Z M17.5945946,0 L18.1621622,0 L18.1621622,5 L17.5945946,5 L17.5945946,0 Z M18.7297297,0 L19.2972973,0 L19.2972973,5 L18.7297297,5 L18.7297297,0 Z M19.8648649,0 L20.4324324,0 L20.4324324,5 L19.8648649,5 L19.8648649,0 Z" id="Combined-Shape" fill="url(#linearGradient-10)" fill-rule="nonzero"></path>
                                    <rect id="Rectangle-44-Copy" fill="url(#linearGradient-11)" fill-rule="nonzero" x="0" y="0" width="21" height="1"></rect>
                                </g>
                            </g>
                            <g id="con" transform="translate(155.000000, 231.000000)">
                                <g id="Group-25-Copy-10">
                                    <rect id="Rectangle-44" fill="url(#linearGradient-9)" fill-rule="nonzero" x="0" y="0" width="21" height="5"></rect>
                                    <path d="M0.567567568,0 L1.13513514,0 L1.13513514,5 L0.567567568,5 L0.567567568,0 Z M1.7027027,0 L2.27027027,0 L2.27027027,5 L1.7027027,5 L1.7027027,0 Z M2.83783784,0 L3.40540541,0 L3.40540541,5 L2.83783784,5 L2.83783784,0 Z M3.97297297,0 L4.54054054,0 L4.54054054,5 L3.97297297,5 L3.97297297,0 Z M5.10810811,0 L5.67567568,0 L5.67567568,5 L5.10810811,5 L5.10810811,0 Z M6.24324324,0 L6.81081081,0 L6.81081081,5 L6.24324324,5 L6.24324324,0 Z M7.37837838,0 L7.94594595,0 L7.94594595,5 L7.37837838,5 L7.37837838,0 Z M8.51351351,0 L9.08108108,0 L9.08108108,5 L8.51351351,5 L8.51351351,0 Z M9.64864865,0 L10.2162162,0 L10.2162162,5 L9.64864865,5 L9.64864865,0 Z M10.7837838,0 L11.3513514,0 L11.3513514,5 L10.7837838,5 L10.7837838,0 Z M11.9189189,0 L12.4864865,0 L12.4864865,5 L11.9189189,5 L11.9189189,0 Z M13.0540541,0 L13.6216216,0 L13.6216216,5 L13.0540541,5 L13.0540541,0 Z M14.1891892,0 L14.7567568,0 L14.7567568,5 L14.1891892,5 L14.1891892,0 Z M15.3243243,0 L15.8918919,0 L15.8918919,5 L15.3243243,5 L15.3243243,0 Z M16.4594595,0 L17.027027,0 L17.027027,5 L16.4594595,5 L16.4594595,0 Z M17.5945946,0 L18.1621622,0 L18.1621622,5 L17.5945946,5 L17.5945946,0 Z M18.7297297,0 L19.2972973,0 L19.2972973,5 L18.7297297,5 L18.7297297,0 Z M19.8648649,0 L20.4324324,0 L20.4324324,5 L19.8648649,5 L19.8648649,0 Z" id="Combined-Shape" fill="url(#linearGradient-10)" fill-rule="nonzero"></path>
                                    <rect id="Rectangle-44-Copy" fill="url(#linearGradient-11)" fill-rule="nonzero" x="0" y="0" width="21" height="1"></rect>
                                </g>
                            </g>
                            <g id="con" transform="translate(153.000000, 226.000000)">
                                <g id="Group-25-Copy-10">
                                    <rect id="Rectangle-44" fill="url(#linearGradient-9)" fill-rule="nonzero" x="0" y="0" width="21" height="5"></rect>
                                    <path d="M0.567567568,0 L1.13513514,0 L1.13513514,5 L0.567567568,5 L0.567567568,0 Z M1.7027027,0 L2.27027027,0 L2.27027027,5 L1.7027027,5 L1.7027027,0 Z M2.83783784,0 L3.40540541,0 L3.40540541,5 L2.83783784,5 L2.83783784,0 Z M3.97297297,0 L4.54054054,0 L4.54054054,5 L3.97297297,5 L3.97297297,0 Z M5.10810811,0 L5.67567568,0 L5.67567568,5 L5.10810811,5 L5.10810811,0 Z M6.24324324,0 L6.81081081,0 L6.81081081,5 L6.24324324,5 L6.24324324,0 Z M7.37837838,0 L7.94594595,0 L7.94594595,5 L7.37837838,5 L7.37837838,0 Z M8.51351351,0 L9.08108108,0 L9.08108108,5 L8.51351351,5 L8.51351351,0 Z M9.64864865,0 L10.2162162,0 L10.2162162,5 L9.64864865,5 L9.64864865,0 Z M10.7837838,0 L11.3513514,0 L11.3513514,5 L10.7837838,5 L10.7837838,0 Z M11.9189189,0 L12.4864865,0 L12.4864865,5 L11.9189189,5 L11.9189189,0 Z M13.0540541,0 L13.6216216,0 L13.6216216,5 L13.0540541,5 L13.0540541,0 Z M14.1891892,0 L14.7567568,0 L14.7567568,5 L14.1891892,5 L14.1891892,0 Z M15.3243243,0 L15.8918919,0 L15.8918919,5 L15.3243243,5 L15.3243243,0 Z M16.4594595,0 L17.027027,0 L17.027027,5 L16.4594595,5 L16.4594595,0 Z M17.5945946,0 L18.1621622,0 L18.1621622,5 L17.5945946,5 L17.5945946,0 Z M18.7297297,0 L19.2972973,0 L19.2972973,5 L18.7297297,5 L18.7297297,0 Z M19.8648649,0 L20.4324324,0 L20.4324324,5 L19.8648649,5 L19.8648649,0 Z" id="Combined-Shape" fill="url(#linearGradient-10)" fill-rule="nonzero"></path>
                                    <rect id="Rectangle-44-Copy" fill="url(#linearGradient-11)" fill-rule="nonzero" x="0" y="0" width="21" height="1"></rect>
                                </g>
                            </g>
                            <g id="con" transform="translate(157.000000, 221.000000)">
                                <g id="Group-25-Copy-10">
                                    <rect id="Rectangle-44" fill="url(#linearGradient-9)" fill-rule="nonzero" x="0" y="0" width="21" height="5"></rect>
                                    <path d="M0.567567568,0 L1.13513514,0 L1.13513514,5 L0.567567568,5 L0.567567568,0 Z M1.7027027,0 L2.27027027,0 L2.27027027,5 L1.7027027,5 L1.7027027,0 Z M2.83783784,0 L3.40540541,0 L3.40540541,5 L2.83783784,5 L2.83783784,0 Z M3.97297297,0 L4.54054054,0 L4.54054054,5 L3.97297297,5 L3.97297297,0 Z M5.10810811,0 L5.67567568,0 L5.67567568,5 L5.10810811,5 L5.10810811,0 Z M6.24324324,0 L6.81081081,0 L6.81081081,5 L6.24324324,5 L6.24324324,0 Z M7.37837838,0 L7.94594595,0 L7.94594595,5 L7.37837838,5 L7.37837838,0 Z M8.51351351,0 L9.08108108,0 L9.08108108,5 L8.51351351,5 L8.51351351,0 Z M9.64864865,0 L10.2162162,0 L10.2162162,5 L9.64864865,5 L9.64864865,0 Z M10.7837838,0 L11.3513514,0 L11.3513514,5 L10.7837838,5 L10.7837838,0 Z M11.9189189,0 L12.4864865,0 L12.4864865,5 L11.9189189,5 L11.9189189,0 Z M13.0540541,0 L13.6216216,0 L13.6216216,5 L13.0540541,5 L13.0540541,0 Z M14.1891892,0 L14.7567568,0 L14.7567568,5 L14.1891892,5 L14.1891892,0 Z M15.3243243,0 L15.8918919,0 L15.8918919,5 L15.3243243,5 L15.3243243,0 Z M16.4594595,0 L17.027027,0 L17.027027,5 L16.4594595,5 L16.4594595,0 Z M17.5945946,0 L18.1621622,0 L18.1621622,5 L17.5945946,5 L17.5945946,0 Z M18.7297297,0 L19.2972973,0 L19.2972973,5 L18.7297297,5 L18.7297297,0 Z M19.8648649,0 L20.4324324,0 L20.4324324,5 L19.8648649,5 L19.8648649,0 Z" id="Combined-Shape" fill="url(#linearGradient-10)" fill-rule="nonzero"></path>
                                    <rect id="Rectangle-44-Copy" fill="url(#linearGradient-11)" fill-rule="nonzero" x="0" y="0" width="21" height="1"></rect>
                                </g>
                            </g>
                            <g id="con" transform="translate(148.000000, 216.000000)">
                                <g id="Group-25-Copy-10">
                                    <rect id="Rectangle-44" fill="url(#linearGradient-9)" fill-rule="nonzero" x="0" y="0" width="21" height="5"></rect>
                                    <path d="M0.567567568,0 L1.13513514,0 L1.13513514,5 L0.567567568,5 L0.567567568,0 Z M1.7027027,0 L2.27027027,0 L2.27027027,5 L1.7027027,5 L1.7027027,0 Z M2.83783784,0 L3.40540541,0 L3.40540541,5 L2.83783784,5 L2.83783784,0 Z M3.97297297,0 L4.54054054,0 L4.54054054,5 L3.97297297,5 L3.97297297,0 Z M5.10810811,0 L5.67567568,0 L5.67567568,5 L5.10810811,5 L5.10810811,0 Z M6.24324324,0 L6.81081081,0 L6.81081081,5 L6.24324324,5 L6.24324324,0 Z M7.37837838,0 L7.94594595,0 L7.94594595,5 L7.37837838,5 L7.37837838,0 Z M8.51351351,0 L9.08108108,0 L9.08108108,5 L8.51351351,5 L8.51351351,0 Z M9.64864865,0 L10.2162162,0 L10.2162162,5 L9.64864865,5 L9.64864865,0 Z M10.7837838,0 L11.3513514,0 L11.3513514,5 L10.7837838,5 L10.7837838,0 Z M11.9189189,0 L12.4864865,0 L12.4864865,5 L11.9189189,5 L11.9189189,0 Z M13.0540541,0 L13.6216216,0 L13.6216216,5 L13.0540541,5 L13.0540541,0 Z M14.1891892,0 L14.7567568,0 L14.7567568,5 L14.1891892,5 L14.1891892,0 Z M15.3243243,0 L15.8918919,0 L15.8918919,5 L15.3243243,5 L15.3243243,0 Z M16.4594595,0 L17.027027,0 L17.027027,5 L16.4594595,5 L16.4594595,0 Z M17.5945946,0 L18.1621622,0 L18.1621622,5 L17.5945946,5 L17.5945946,0 Z M18.7297297,0 L19.2972973,0 L19.2972973,5 L18.7297297,5 L18.7297297,0 Z M19.8648649,0 L20.4324324,0 L20.4324324,5 L19.8648649,5 L19.8648649,0 Z" id="Combined-Shape" fill="url(#linearGradient-10)" fill-rule="nonzero"></path>
                                    <rect id="Rectangle-44-Copy" fill="url(#linearGradient-11)" fill-rule="nonzero" x="0" y="0" width="21" height="1"></rect>
                                </g>
                            </g>
                        </g>
                        <g id="man" transform="translate(353.000000, 104.000000)" fill-rule="nonzero">
                            <rect id="Rectangle-19" fill="#9D6D6E" x="18" y="18.4285714" width="8" height="9.57142857"></rect>
                            <path d="M6.72178531,67.7005326 L37.0359477,67.7005326 L37.0359477,54.1585147 L41.8704454,53.0096835 L42.9935726,28.9398516 C43.054637,26.7589848 41.6762665,25.3133466 38.8584613,24.6029371 C36.0406561,23.8925275 31.7352861,23.0248818 25.9423512,22 C25.3670909,25.1923171 24.0328067,26.7884757 21.9394984,26.7884757 C19.8461902,26.7884757 18.5745396,25.1923171 18.1245469,22 L4.20031334,24.6029371 C2.06677111,25.2964113 1,26.9531576 1,29.5731761 C1,32.1931945 1.29105431,40.0053637 1.87316293,53.0096835 L6.72178531,54.1585147 L6.72178531,67.7005326 Z" id="Path-36" fill="url(#linearGradient-12)"></path>
                            <g id="衣服" transform="translate(0.000000, 67.000000)">
                                <path d="M37.8246051,62.2855769 C38.3691572,63.8379511 38.9677384,65.2050689 39.6203488,66.3869302 C40.5992643,68.1597221 42.4267641,69.8877428 42.4267641,71.9127512 L42.4267641,73 L31.5472587,73 L31.5472587,71.9127512 L31.9546993,71.9127512 C31.3999604,71.8691252 31.122591,71.5067089 31.122591,70.8255024 C31.122591,69.8036927 31.5472587,69.804293 31.5472587,69.3324114 C31.5472587,68.8605298 30.6979233,68.8986467 31.122591,67.6427884 C31.5472587,66.3869302 30.6979233,66.0490521 31.122591,65.1275022 C31.5472587,64.2059523 31.7281431,61.701858 32.716497,61.1393223 C33.3753997,60.7642985 35.0781023,61.1463834 37.8246051,62.2855769 Z" id="Path-35" fill="#000000"></path>
                                <path d="M6.82460508,62.2855769 C7.3691572,63.8379511 7.96773844,65.2050689 8.62034879,66.3869302 C9.59926432,68.1597221 11.4267641,69.8877428 11.4267641,71.9127512 L11.4267641,73 L0.547258689,73 L0.547258689,71.9127512 L0.954699291,71.9127512 C0.399960432,71.8691252 0.122591002,71.5067089 0.122591002,70.8255024 C0.122591002,69.8036927 0.547258689,69.804293 0.547258689,69.3324114 C0.547258689,68.8605298 -0.302076686,68.8986467 0.122591002,67.6427884 C0.547258689,66.3869302 -0.302076686,66.0490521 0.122591002,65.1275022 C0.547258689,64.2059523 0.728143086,61.701858 1.71649703,61.1393223 C2.37539967,60.7642985 4.07810235,61.1463834 6.82460508,62.2855769 Z" id="Path-35-Copy" fill="#000000" transform="translate(5.713382, 67.000000) scale(-1, 1) translate(-5.713382, -67.000000) "></path>
                                <rect id="Rectangle-5" fill="#0E0E44" x="0" y="0" width="43" height="15" rx="7.5"></rect>
                                <path d="M37,1 L37,1 C40.2085383,1 42.8095725,3.60103423 42.8095725,6.80957255 C42.8095725,6.87202077 42.8085656,6.93446493 42.8065522,6.99688069 L41,63 L31,63 L31,7 C31,3.6862915 33.6862915,1 37,1 Z" id="Rectangle-4" fill="url(#linearGradient-13)"></path>
                                <path d="M6,1 L6,1 C9.20853832,1 11.8095725,3.60103423 11.8095725,6.80957255 C11.8095725,6.87202077 11.8085656,6.93446493 11.8065522,6.99688069 L10,63 L0,63 L0,7 C-4.05812251e-16,3.6862915 2.6862915,1 6,1 Z" id="Rectangle-4-Copy" fill="url(#linearGradient-13)" transform="translate(5.904786, 32.000000) scale(-1, 1) translate(-5.904786, -32.000000) "></path>
                            </g>
                            <path d="M30.3176013,43.5111494 C31.1437047,41.8370498 32.5459162,41 34.5242357,41 C37.491715,41 39.1024531,45.2872397 37.3915895,47.6842079 C36.2510139,49.2821867 34.2981577,49.1418564 31.533021,47.263217 L30.3176013,43.5111494 Z" id="Path-37" fill="#B77C54"></path>
                            <path d="M14.3818355,46.2029264 L9.81016593,42.5689484 L6.9029802,41.0000035 L3.14841095,41.0000035 C2.53700709,40.9989699 2.23130515,41.228038 2.23130515,41.6872079 C2.23130515,42.1463777 2.70015263,42.3460615 3.63784757,42.2862593 L1.50178759,43.2088066 C1.06741034,43.4835565 0.915050219,43.7955932 1.04470724,44.1449168 C1.17436425,44.4942404 1.56989689,44.5582055 2.23130515,44.336812 C1.30174658,44.6945035 0.986790269,45.0949454 1.28643621,45.5381378 C1.58608215,45.9813302 2.00178074,46.0409086 2.53353199,45.7168729 L3.63784757,45.3426169 C2.66184788,45.7424628 2.29374268,46.2059298 2.53353199,46.7330178 C2.70894516,47.1185987 3.29244547,47.1185987 4.28403294,46.7330178 L5.39687859,46.3971676 L7.26824403,47.609102 L14.3818355,46.2029264 Z" id="Path-38" fill="#B77C54"></path>
                            <path d="M37.0121271,56.95485 L12.7270405,51.8990853 L13.8511738,47 L39.5045542,49.4318403 C41.66057,50.3703559 42.3542919,52.0331545 41.5857198,54.4202362 C40.8171478,56.8073179 39.2926169,57.6521892 37.0121271,56.95485 Z" id="Path-33-Copy" fill="url(#linearGradient-14)"></path>
                            <path d="M6.85381341,55.95485 L32.1161534,47.8990853 L30.9920201,43 L4.36138628,48.4318403 C2.20537051,49.3703559 1.51164864,51.0331545 2.28022066,53.4202362 C3.04879268,55.8073179 4.5733236,56.6521892 6.85381341,55.95485 Z" id="Path-33" fill="#853ADA"></path>
                            <g id="头" transform="translate(14.000000, 0.000000)">
                                <g>
                                    <circle id="Oval-8" fill="#9D6D6E" cx="14.8571429" cy="10.2857143" r="1.14285714"></circle>
                                    <circle id="Oval-8-Copy" fill="#9D6D6E" cx="1.14285714" cy="10.2857143" r="1.14285714"></circle>
                                    <path d="M8,0 C11.7870954,-6.95678144e-16 14.8571429,3.07004743 14.8571429,6.85714286 L14.8571429,8 L1.14285714,8 L1.14285714,6.85714286 C1.14285714,3.07004743 4.21290457,6.95678144e-16 8,0 Z" id="Rectangle-38" fill="#000000"></path>
                                    <path d="M8,2.28571429 C11.7870954,2.28571429 14.8571429,5.35576172 14.8571429,9.14285714 L14.8571429,13.7142857 C14.8571429,17.5013811 11.7870954,20.5714286 8,20.5714286 C4.21290457,20.5714286 1.14285714,17.5013811 1.14285714,13.7142857 L1.14285714,9.14285714 C1.14285714,5.35576172 4.21290457,2.28571429 8,2.28571429 Z" id="Rectangle-17" fill="#B7898A"></path>
                                    <path d="M10.8571429,8 C11.1727341,8 11.4285714,8.25583729 11.4285714,8.57142857 C11.4285714,8.88701986 11.1727341,9.14285714 10.8571429,9.14285714 C10.5415516,9.14285714 10.2857143,8.88701986 10.2857143,8.57142857 C10.2857143,8.25583729 10.5415516,8 10.8571429,8 Z" id="Rectangle-37" fill="#000000"></path>
                                    <path d="M5.14285714,8 C5.45844843,8 5.71428571,8.25583729 5.71428571,8.57142857 C5.71428571,8.88701986 5.45844843,9.14285714 5.14285714,9.14285714 C4.82726586,9.14285714 4.57142857,8.88701986 4.57142857,8.57142857 C4.57142857,8.25583729 4.82726586,8 5.14285714,8 Z" id="Rectangle-37-Copy" fill="#000000"></path>
                                    <path d="M10.8571429,5.71428571 L12,5.71428571 C12.3155913,5.71428571 12.5714286,5.970123 12.5714286,6.28571429 C12.5714286,6.60130557 12.3155913,6.85714286 12,6.85714286 L10.8571429,6.85714286 C10.5415516,6.85714286 10.2857143,6.60130557 10.2857143,6.28571429 C10.2857143,5.970123 10.5415516,5.71428571 10.8571429,5.71428571 Z" id="Rectangle-37-Copy-3" fill="#000000"></path>
                                    <path d="M4,5.71428571 L5.14285714,5.71428571 C5.45844843,5.71428571 5.71428571,5.970123 5.71428571,6.28571429 C5.71428571,6.60130557 5.45844843,6.85714286 5.14285714,6.85714286 L4,6.85714286 C3.68440871,6.85714286 3.42857143,6.60130557 3.42857143,6.28571429 C3.42857143,5.970123 3.68440871,5.71428571 4,5.71428571 Z" id="Rectangle-37-Copy-2" fill="#000000"></path>
                                    <path d="M14.8571429,12.5714286 L14.8571429,13.7142857 C14.8571429,17.5013811 11.7870954,20.5714286 8,20.5714286 C4.21290457,20.5714286 1.14285714,17.5013811 1.14285714,13.7142857 L1.14285714,12.5714286 L2.28571429,12.5714286 L2.28571429,13.7142857 C2.28571429,14.3454683 2.79738886,14.8571429 3.42857143,14.8571429 C4.059754,14.8571429 4.57142857,14.3454683 4.57142857,13.7142857 L4.57142857,12.5714286 C5.86192851,11.8095238 7.00478566,11.4285714 8,11.4285714 C8.99521434,11.4285714 10.1380715,11.8095238 11.4285714,12.5714286 L11.4285714,13.7142857 C11.4285714,14.3454683 11.940246,14.8571429 12.5714286,14.8571429 C13.2026111,14.8571429 13.7142857,14.3454683 13.7142857,13.7142857 L13.7142857,12.5714286 L14.8571429,12.5714286 Z" id="Combined-Shape" fill="#000000"></path>
                                    <path d="M5.71428571,13.7142857 L10.2857143,13.7142857 C10.2857143,14.9766509 9.26236514,16 8,16 C6.73763486,16 5.71428571,14.9766509 5.71428571,13.7142857 Z" id="Combined-Shape" fill="#FFFFFF"></path>
                                </g>
                            </g>
                        </g>
                        <g id="women" transform="translate(38.000000, 213.500000) scale(-1, 1) translate(-38.000000, -213.500000) translate(8.000000, 165.000000)" fill-rule="nonzero">
                            <circle id="Oval-10" fill="#000000" cx="40" cy="4" r="4"></circle>
                            <polygon id="Rectangle-27" fill="#F09980" points="34.667719 15 39 15 39 24 34.667719 24"></polygon>
                            <g id="头" transform="translate(27.000000, 2.000000)">
                                <path d="M2,6 C2,9.30564489 2,11.6295389 2,12.9716819 C2,14.9848965 2.821182,17.316215 5.05157329,17.316215 C7.28196459,17.316215 9.41855069,17.1309815 11.4302396,14.8549126 C12.7713656,13.3375333 13.2918609,10.6617191 12.9917257,6.82746994 L2,6 Z" id="Path-15" fill="#F5AF95"></path>
                                <path d="M3,14 L7,14 C7,15.1045695 6.1045695,16 5,16 C3.8954305,16 3,15.1045695 3,14 Z" id="Combined-Shape" fill="#FFFFFF"></path>
                                <path d="M2.06185973,13.6715805 L2.06185973,7.46721638 C2.66301201,8.7779665 4.02660728,9.43334156 6.15264555,9.43334156 C9.34170296,9.43334156 11.4108225,8.64041955 11.7675867,10.6300898 C12.0054296,11.9565367 12.0814334,13.1716164 11.9955983,14.2753289 C14.4663558,13.111387 15.7017345,11.2586659 15.7017345,8.71716561 C15.7017345,6.17566534 14.8507698,4.19240399 13.1488405,2.76738154 C11.350068,1.36186312 9.58407688,0.659103912 7.85086724,0.659103912 C5.25105279,0.659103912 2.89499633,0.946327374 1.15359611,4.19153929 C0.45499751,5.49342296 -0.28136385,7.75302661 0.108023531,9.77662423 C0.279822107,10.66944 0.93110084,11.9677587 2.06185973,13.6715805 Z" id="Path-16" fill="#000000"></path>
                                <circle id="Oval-9" fill="#000000" cx="3.5" cy="11.5" r="1"></circle>
                                <circle id="Oval-9-Copy" fill="#000000" cx="6.5" cy="11.5" r="1"></circle>
                            </g>
                            <polygon id="Path-21" fill="#F5AF95" points="23.1527933 86.4260027 23.936526 91.029731 21.5190036 92.2261393 18.9548041 91.32215 18 86"></polygon>
                            <polygon id="Path-21-Copy" fill="#F5AF95" points="12.936526 86.2169548 13.3398002 91.1333842 10.5190036 93.2261393 8.31517767 91.3860568 8.31517767 86.2169548"></polygon>
                            <path d="M30.687658,45 L43.3650241,45 C45.1286289,47.3450605 46.0104313,49.3370717 46.0104313,50.9760335 C46.0104313,53.4344763 45.236025,57.4072448 40.6584843,57.4072448 C37.6067904,57.4072448 28.1469144,57.4072448 12.2788562,57.4072448 L13.1534132,86.920835 L8.01042317,87.920835 L4.01042317,53.8772567 C3.69097499,50.4579044 4.96514598,48.6218104 7.83293613,48.3689746 C10.7007263,48.1161389 18.3189669,47.6819741 30.687658,47.0664803 L30.687658,45 Z" id="Path-19" fill="#000000"></path>
                            <path d="M30.725261,45 L43.4026271,45 C45.1662319,47.3450605 46.0480343,49.3370717 46.0480343,50.9760335 C46.0480343,53.4344763 45.273628,57.4072448 40.6960872,57.4072448 C37.6443934,57.4072448 31.3061463,57.4072448 21.6813459,57.4072448 L23.7192907,86.973148 L18.5763007,87.973148 L12.9144317,56.451404 C12.4833828,53.8661581 13.3517608,52.1079721 15.5195656,51.176846 C17.6873703,50.2457199 22.7559354,48.875598 30.725261,47.0664803 L30.725261,45 Z" id="Path-19-Copy" fill="#17175E"></path>
                            <path d="M13.3880586,91 C13.8628044,92.7378115 14.1001772,93.8021271 14.1001772,94.1929468 C14.1001772,94.7791764 14.1354074,96.1165125 12.0452422,96.1165125 C10.6517988,96.1165125 8.13641898,96.1165125 4.49910266,96.1165125 C2.2200518,96.0282023 0.724467082,95.3870137 0.012348502,94.1929468 C-0.10226689,93.5191377 0.580989071,93.1037874 2.06211638,92.9468959 C3.5432437,92.7900043 5.61493256,92.141039 8.27718296,91 C9.6577839,91.4723866 10.6377798,91.7085799 11.2171706,91.7085799 C11.7965614,91.7085799 12.5201908,91.4723866 13.3880586,91 Z" id="Path-20" fill="#131441"></path>
                            <path d="M24.3880586,91 C24.8628044,92.7378115 25.1001772,93.8021271 25.1001772,94.1929468 C25.1001772,94.7791764 25.1354074,96.1165125 23.0452422,96.1165125 C21.6517988,96.1165125 19.136419,96.1165125 15.4991027,96.1165125 C13.2200518,96.0282023 11.7244671,95.3870137 11.0123485,94.1929468 C10.8977331,93.5191377 11.5809891,93.1037874 13.0621164,92.9468959 C14.5432437,92.7900043 16.6149326,92.141039 19.277183,91 C20.6577839,91.4723866 21.6377798,91.7085799 22.2171706,91.7085799 C22.7965614,91.7085799 23.5201908,91.4723866 24.3880586,91 Z" id="Path-20-Copy" fill="#2E3192"></path>
                            <g id="Group-22" transform="translate(36.500000, 39.000000) scale(-1, 1) translate(-36.500000, -39.000000) translate(13.000000, 20.000000)">
                                <path d="M9.91223126,34 L9.46662437,35.4261538 C9.42895006,36.8571602 8.89101021,37.5726635 7.85280484,37.5726635 C6.81459947,37.5726635 4.83665369,37.5726635 1.9189675,37.5726635 L0.9885795,37.8594559 C0.503048426,38.0083003 0.185375405,37.9127029 0.0355604381,37.5726635 C-0.189162013,37.0626044 0.704566321,36.6858171 1.21886046,36.4862403 C1.56172321,36.353189 3.4755256,35.7315187 6.96026762,34.6212292 L7.18485772,34 L9.91223126,34 Z" id="Path-24" fill="#F5AF95"></path>
                                <path d="M38.3319458,27.7353522 L41.678755,27.9343828 C41.9111535,27.8528581 42.1589482,27.7269094 42.422139,27.5565368 C42.6853298,27.3861642 43.8778058,26.6336042 45.9995669,25.298857 C46.2738326,25.0319109 46.3051054,24.7924311 46.0933853,24.5804177 C45.8816652,24.3684043 45.6219735,24.3979718 45.3143103,24.6691202 L43.5392708,25.8163683 L40.5639708,26.0362272 C40.6599506,25.8050765 40.8119308,25.6895012 41.0199114,25.6895012 C41.2278921,25.6895012 41.8149526,25.6581739 42.7810929,25.5955194 C43.0959417,25.4456106 43.2277215,25.2389498 43.176432,24.9755369 C43.0994979,24.5804177 42.8359201,24.4917152 41.9728719,24.5804177 C41.3975065,24.6395527 40.3724328,24.7163219 38.897651,24.8107252 C38.7024652,24.781396 38.5138968,24.8363333 38.3319458,24.9755369 C38.1499949,25.1147406 37.3377571,25.5708556 35.8952326,26.343882 L34.7019977,27.7353522 L37.403257,28.4935137 L38.3319458,27.7353522 Z" id="Path-25" fill="#F5AF95" transform="translate(40.466869, 26.467191) scale(1, -1) translate(-40.466869, -26.467191) "></path>
                                <polygon id="Path-23" fill="#417EEE" points="28.5523371 1.90154755 38.1707653 24.8819331 34.7755495 25.907961 28 12.5524633"></polygon>
                                <path d="M21.0049836,0 L21.0049836,2.05470524 C21.5009866,3.20268006 22.2721304,3.77666747 23.3184147,3.77666747 C24.3646991,3.77666747 25.0386119,3.20268006 25.3401531,2.05470524 L25.3401531,0 L28.5519432,1.88833373 L28.9455481,3.49221593 L30.3768573,8.17001376 C30.8431706,9.62059656 31.0763273,10.591972 31.0763273,11.0841402 C31.0763273,11.5763083 30.3955437,12.3434488 29.0339765,13.3855617 L29.5151557,25.156944 L16.1371097,25.156944 L16.1371097,15.3314593 L10.7054386,34.2361482 L7,34.2361482 L14.2989949,4.44761952 C14.5315279,3.29338157 15.1442328,2.49574348 16.1371097,2.05470524 C17.1299867,1.61366701 18.7526113,0.92876526 21.0049836,0 Z" id="Path-22" fill="#50A1E3"></path>
                            </g>
                        </g>
                    </g>
                </g>
            </g>
        </g>
    </g>
</svg>