<svg xmlns="http://www.w3.org/2000/svg" xmlns:xlink="http://www.w3.org/1999/xlink" viewBox="0 0 120.02 92.24"><defs><style>.cls-1{fill:none;}.cls-2{clip-path:url(#clip-path);}.cls-3{fill:url(#未命名的渐变_48);}.cls-4{fill:url(#未命名的渐变_85);}.cls-5{fill:url(#未命名的渐变_48-2);}.cls-6{fill:url(#未命名的渐变_48-3);}.cls-7{fill:url(#未命名的渐变_79);}.cls-8{fill:url(#未命名的渐变_48-4);}.cls-9{fill:url(#未命名的渐变_79-2);}.cls-10{fill:url(#未命名的渐变_48-5);}.cls-11{fill:url(#未命名的渐变_48-6);}.cls-12{fill:#9e9e9e;}.cls-13{fill:url(#未命名的渐变_48-7);}.cls-14{fill:url(#未命名的渐变_48-8);}.cls-15{fill:#fff;}.cls-16{fill:url(#未命名的渐变_48-9);}.cls-17{fill:url(#未命名的渐变_48-10);}.cls-18{fill:url(#未命名的渐变_79-3);}.cls-19{fill:#caaa76;}.cls-20{fill:#e8cfac;}</style><clipPath id="clip-path"><rect class="cls-1" x="0.02" y="0.02" width="120" height="92.4"/></clipPath><linearGradient id="未命名的渐变_48" y1="72.32" x2="120.02" y2="72.32" gradientUnits="userSpaceOnUse"><stop offset="0" stop-color="#d6a55b"/><stop offset="1" stop-color="#e9d7b1"/></linearGradient><linearGradient id="未命名的渐变_85" x1="0.06" y1="52.46" x2="120.02" y2="52.46" gradientUnits="userSpaceOnUse"><stop offset="0" stop-color="#fcf9f5"/><stop offset="1" stop-color="#f3e7d7"/></linearGradient><linearGradient id="未命名的渐变_48-2" x1="32.79" y1="58.2" x2="36.63" y2="58.2" xlink:href="#未命名的渐变_48"/><linearGradient id="未命名的渐变_48-3" x1="32.81" y1="46.36" x2="70.07" y2="46.36" xlink:href="#未命名的渐变_48"/><linearGradient id="未命名的渐变_79" x1="35.3" y1="49.03" x2="70.07" y2="49.03" gradientUnits="userSpaceOnUse"><stop offset="0" stop-color="#f0e4de"/><stop offset="1" stop-color="#ebd7c0"/></linearGradient><linearGradient id="未命名的渐变_48-4" x1="35.91" y1="16.54" x2="74.04" y2="16.54" xlink:href="#未命名的渐变_48"/><linearGradient id="未命名的渐变_79-2" x1="30.36" y1="28.36" x2="75.05" y2="28.36" xlink:href="#未命名的渐变_79"/><linearGradient id="未命名的渐变_48-5" x1="45.3" y1="9.34" x2="56.12" y2="9.34" xlink:href="#未命名的渐变_48"/><linearGradient id="未命名的渐变_48-6" x1="27.87" y1="38.6" x2="36.06" y2="38.6" xlink:href="#未命名的渐变_48"/><linearGradient id="未命名的渐变_48-7" x1="47.05" y1="32.6" x2="58.39" y2="32.6" xlink:href="#未命名的渐变_48"/><linearGradient id="未命名的渐变_48-8" x1="47.44" y1="32.26" x2="54.9" y2="32.26" xlink:href="#未命名的渐变_48"/><linearGradient id="未命名的渐变_48-9" x1="63.39" y1="68.1" x2="66.25" y2="68.1" xlink:href="#未命名的渐变_48"/><linearGradient id="未命名的渐变_48-10" x1="63.32" y1="50.34" x2="93.57" y2="50.34" xlink:href="#未命名的渐变_48"/><linearGradient id="未命名的渐变_79-3" x1="65.6" y1="51.72" x2="94.24" y2="51.72" xlink:href="#未命名的渐变_79"/></defs><title>资源 11</title><g id="图层_2" data-name="图层 2"><g id="图层_1-2" data-name="图层 1"><g class="cls-2"><path class="cls-3" d="M120,52.71c-.16,1.68-1.7,2.51-3,3.27s-2.43,1.42-3.64,2.12l-5.82,3.38c-2.44,1.41-4.86,2.83-7.29,4.23-2.68,1.55-5.36,3.12-8,4.67l-8.1,4.7L76.68,79.4l-6.06,3.52-4,2.29a14.47,14.47,0,0,1-3.09,1.5,11.58,11.58,0,0,1-8.93-1c-1-.57-1.94-1.11-2.89-1.68l-5.28-3c-2.32-1.34-4.63-2.68-6.94-4L31.6,72.43l-8.17-4.72c-2.57-1.49-5.14-3-7.73-4.45L9.13,59.47C7.56,58.55,6,57.66,4.41,56.74L2.27,55.5A3.85,3.85,0,0,1,0,52.41C0,53.68,0,55,0,56.26c0,.45,0,.92,0,1.4a3.88,3.88,0,0,0,2.09,2.8c.62.38,1.26.73,1.9,1.09L8.93,64.4,16,68.51l8.46,4.88c2.93,1.71,5.87,3.39,8.82,5.1l8.39,4.84c2.33,1.34,4.64,2.68,7,4,1.56.92,3.15,1.82,4.71,2.73a19.69,19.69,0,0,0,2.8,1.47,11.47,11.47,0,0,0,9.56-.77L69,88.88l6-3.47q3.9-2.25,7.79-4.53l8.7-5.07,8.72-5.07L108,66.19c2-1.17,4.05-2.34,6.07-3.53l3.35-1.94c.34-.2.69-.4,1-.63A3.39,3.39,0,0,0,120,57.46c0-.56,0-1.11,0-1.67,0-1.12,0-2.24,0-3.35a.45.45,0,0,1,0,.27s0,0,0,0Z"/><path class="cls-4" d="M117.84,49.42c2.89,1.68,2.9,4.4,0,6.08L65.48,86A11.57,11.57,0,0,1,55,86L2.24,55.5c-2.9-1.68-2.91-4.4,0-6.08L54.61,19a11.57,11.57,0,0,1,10.47,0Z"/></g><path class="cls-5" d="M35.29,57.76v-.64l-2.5-1.44v.64a4.36,4.36,0,0,0,.37,1.84,2.36,2.36,0,0,0,1,1.11l2.5,1.45a3.25,3.25,0,0,1-1.34-3Z"/><path class="cls-6" d="M35.29,57.12l-2.48-1.44L67.58,35.59,70.07,37Z"/><g class="cls-2"><path class="cls-7" d="M70.07,37v.64a10.07,10.07,0,0,1-4.59,7.94L39.91,60.38c-2.54,1.48-4.61.29-4.61-2.63v-.64Z"/><path class="cls-8" d="M72.05,1.72a.58.58,0,0,1,.17-.06l.24-.09.15-.05.14,0a1.13,1.13,0,0,0,.18,0h.35a1,1,0,0,1,.25,0h.06l.18.05h.06a.7.7,0,0,1,.21.11L71.55.21h0a1.19,1.19,0,0,0-.16-.08h0l-.07,0a.32.32,0,0,1-.09,0h-.09L71,0h0a1.38,1.38,0,0,0-.2,0h-.36a.15.15,0,0,0-.09,0l-.1,0a.61.61,0,0,0-.13,0H70s0,0-.07,0a2.5,2.5,0,0,0-.25.09l-.07,0-.1,0-.07,0-.32.17L69,.59a2.36,2.36,0,0,0-.44.32,0,0,0,0,0,0,0l-.41.36,0,0-.37.38s0,0,0,0,0,.05-.06.07a2.54,2.54,0,0,0-.2.24.72.72,0,0,0-.11.15.24.24,0,0,1-.06.08l0,.06-.2.29a.33.33,0,0,0-.06.1l0,.08a.6.6,0,0,1-.06.11,1.82,1.82,0,0,0-.15.27l0,.09a.33.33,0,0,0,0,.06.6.6,0,0,1-.06.11c0,.09-.09.18-.12.27a.54.54,0,0,1,0,.11.26.26,0,0,1,0,.08l0,.1a1.92,1.92,0,0,0-.11.31l0,.13a1.8,1.8,0,0,0-.06.22,0,0,0,0,1,0,0c0,.11-.06.22-.08.32a.09.09,0,0,1,0,.05c0,.15-.06.29-.08.42a.09.09,0,0,1,0,0v0a2.64,2.64,0,0,0,0,.38v.46a2,2,0,0,0,0,.34.18.18,0,0,0,0,.06,2.61,2.61,0,0,0,.06.27s0,0,0,.06l.09.28s0,0,0,.06a2.39,2.39,0,0,0,.12.22s0,0,0,0a1,1,0,0,0,.15.21l.23.23-.34,1.87c0,.18-.07.35-.1.53a2.75,2.75,0,0,1-.11.41l-.09.35-.09.32-.14.4-.09.27c-.06.15-.11.29-.17.43l-.09.23c-.08.19-.17.38-.26.57,0,0,0,0,0,.06-.1.22-.21.43-.32.63a1.86,1.86,0,0,0-.1.2c-.08.13-.16.28-.25.42l-.13.23-.23.37c-.06.09-.12.16-.17.25l-.23.32-.21.29c-.08.09-.14.19-.21.28L63,17l-.27.32-.12.14-.46.47c-.11.09-.2.2-.31.29s-.15.14-.22.21l-.32.28a2.13,2.13,0,0,0-.22.18l-.38.27-.18.14-.58.37-.42.22a.75.75,0,0,1-.13.06l-.31.16-.11,0-.29.11s0,0-.06,0l-.35.11-.2,0a.35.35,0,0,1-.11,0l-.27.05h0a3.42,3.42,0,0,1-.44,0h-.54a2.36,2.36,0,0,1-.29,0h-.09L56,20.42h0a1.25,1.25,0,0,1-.29-.11.29.29,0,0,0-.1,0,1.79,1.79,0,0,1-.24-.12l-.07,0,2.49,1.44a0,0,0,0,1,0,0h.05c.07.05.17.08.24.12l.05,0h0a1.72,1.72,0,0,0,.29.11h0l.33.08s0,0,0,0h.06a1.43,1.43,0,0,0,.29,0h.06a2.41,2.41,0,0,0,.38,0h.08a3.27,3.27,0,0,0,.44,0h0l.28-.05a.23.23,0,0,0,.11,0l.18,0h0l.35-.11.06,0,.29-.11h0l.08,0a2.29,2.29,0,0,0,.31-.16A.75.75,0,0,0,62,21.3c.13-.07.27-.13.42-.22a6.24,6.24,0,0,0,.58-.37l.18-.14.38-.27a2.13,2.13,0,0,0,.22-.18l.32-.28a2.13,2.13,0,0,0,.22-.21,4.11,4.11,0,0,0,.31-.29h0c.16-.16.29-.31.45-.46l.12-.14.16-.18a.67.67,0,0,0,.11-.14l.31-.36.12-.16.09-.12.21-.29.14-.18a1,1,0,0,0,.09-.15c.06-.09.12-.17.17-.26l.1-.17c0-.06.08-.13.13-.19L67,16.3l.08-.12c.06-.11.1-.2.17-.31a1.86,1.86,0,0,0,.1-.2s0,0,0-.06c.09-.18.2-.36.29-.56v0s0,0,0-.06l.23-.48a.41.41,0,0,0,0-.08l.09-.23c0-.09.08-.2.12-.29a1.31,1.31,0,0,0,0-.15l.09-.27.08-.22a.64.64,0,0,1,.06-.18l.09-.32a1.54,1.54,0,0,1,.05-.17l0-.18c0-.14.08-.27.11-.41s0-.12,0-.17,0-.24.08-.35l.33-1.87-.22-.23a.83.83,0,0,1-.16-.21s0,0,0,0a2.53,2.53,0,0,1-.12-.23s0,0,0-.06-.08-.18-.1-.27,0,0,0-.06a1.57,1.57,0,0,1-.06-.28.1.1,0,0,0,0-.06c0-.11,0-.21,0-.33V7.38c0-.12,0-.26,0-.38s0-.06,0-.09a3.49,3.49,0,0,1,.07-.43s0,0,0,0,0-.22.08-.32,0-.17.07-.26.12-.37.2-.55a.19.19,0,0,0,0-.08l.23-.5s0,0,0-.06l.27-.49,0-.07c.09-.15.2-.31.3-.46l.06-.07c.1-.14.2-.26.31-.4s0-.05.06-.06.26-.29.39-.43h0A4.57,4.57,0,0,1,71,2.31s0,0,0,0A4.07,4.07,0,0,1,71.49,2a.87.87,0,0,1,.18-.11L72,1.7c0,.05,0,0,.06,0ZM47.51,15l-.32,5c0,.24,0,.49-.08.74,0,0,0,.08,0,.11a6.66,6.66,0,0,1-.12.67.09.09,0,0,1,0,0c-.05.21-.09.41-.15.62a1.31,1.31,0,0,0-.05.15c-.06.25-.15.49-.23.75a1.21,1.21,0,0,1-.07.2c-.07.18-.14.35-.2.53l-.09.23c-.08.18-.16.35-.23.53l-.08.18c-.1.23-.23.46-.33.69l-.08.13c-.09.19-.2.35-.3.54l-.14.21c-.09.15-.2.3-.29.46a1,1,0,0,1-.15.21l-.32.44c0,.08-.11.14-.15.21a2.78,2.78,0,0,0-.26.34c-.09.1-.17.21-.26.32s-.32.35-.47.51a1.42,1.42,0,0,1-.12.13l-.37.35c-.08.07-.15.15-.23.21l-.35.3-.23.19-.39.29-.2.13a5.07,5.07,0,0,1-.61.38l-.42.23a.75.75,0,0,1-.13.06,1.66,1.66,0,0,1-.33.15l-.09.05a2.08,2.08,0,0,1-.32.12,0,0,0,0,0,0,0l-.35.1-.18.05-.13,0-.21,0-.08,0h0l-.43.05h-.54l-.29,0-.09,0-.34-.08h0a1.72,1.72,0,0,1-.29-.11.32.32,0,0,0-.09,0,1.08,1.08,0,0,1-.24-.12l-.08,0,2.5,1.45,0,0h0c.08,0,.17.08.25.12l0,0h0c.09,0,.18.08.29.11h0a1.59,1.59,0,0,0,.33.08s0,0,0,0h.06l.29,0h.52c.14,0,.29,0,.43,0h.09l.21,0,.12,0,.17,0h0l.35-.1,0,0a2.08,2.08,0,0,0,.32-.12l0,0,.06,0,.33-.15a.38.38,0,0,0,.13-.06l.42-.23c.2-.12.41-.24.61-.38l.2-.13.39-.29.23-.19c.12-.09.23-.19.35-.3l.23-.21.2-.19.17-.18.12-.12c.15-.15.3-.32.44-.49,0,0,0,0,0,0l.26-.32.23-.29a.13.13,0,0,1,0-.05c0-.07.1-.13.15-.21s.17-.23.26-.35a.47.47,0,0,1,.06-.09.8.8,0,0,1,.15-.21c.06-.1.12-.17.17-.26l.12-.2.14-.21.09-.16.21-.38.08-.13s0,0,0-.05l.29-.56a.26.26,0,0,1,0-.08.67.67,0,0,0,.07-.18c0-.11.11-.21.16-.32l.09-.2.09-.23a1,1,0,0,1,.06-.16l.14-.37a1.21,1.21,0,0,1,.07-.2s0,0,0-.06c.07-.23.13-.45.21-.67,0,0,0-.1,0-.15s.1-.4.15-.59v0a.09.09,0,0,1,0-.05c.05-.23.1-.46.13-.67,0,0,0-.07,0-.11a.1.1,0,0,1,0-.07c0-.23,0-.46.06-.67l.32-5Z"/></g><path class="cls-9" d="M52.66,4.57a5.71,5.71,0,0,1,1.07-.49,2.67,2.67,0,0,1,3.73,2.1c.47,2.19-.47,5-2.06,7.12l.35,4.56c.29,3.79,3.17,5.19,6.62,3.2a14.68,14.68,0,0,0,6.42-9.56l.34-1.87c-.73-.64-1-2-.47-3.7A7.38,7.38,0,0,1,71.49,2a.87.87,0,0,1,.18-.11C73.8.7,75.34,2,75,4.5a7.75,7.75,0,0,1-1.93,4l-2.89,26.7L35.39,55.27l-3-23.3a1.81,1.81,0,0,1-1.94-1.73c-.37-2.1,1.15-5.18,3.3-6.41a.87.87,0,0,0,.18-.11c1.22-.64,2.35-.38,2.83.63a5.08,5.08,0,0,1-.44,4.23l.35,1.47c.72,3,3.39,3.9,6.45,2.13a14.62,14.62,0,0,0,6.58-10.82L50,16.42C48.66,16.18,47.78,15,47.78,13a10.77,10.77,0,0,1,4.88-8.43Z"/><path class="cls-10" d="M53.62,2.8s0,0,0,0a.75.75,0,0,0-.13-.06l-.1,0h0a.59.59,0,0,0-.2-.06l-.06,0-.27-.06h-.1a1.25,1.25,0,0,0-.19,0h-.31a1.84,1.84,0,0,0-.33,0h-.08l-.3.06a.06.06,0,0,0,0,0,1.09,1.09,0,0,0-.24.07l-.34.13-.13.06a.27.27,0,0,0-.12.06q-.24.1-.48.24l-.47.29a1,1,0,0,1-.15.11c-.11.07-.21.15-.3.22l-.17.14c-.09.08-.19.15-.28.24s-.1.11-.16.16l-.11.09-.11.1-.32.35L48,5a.31.31,0,0,0-.08.11l-.18.23a.61.61,0,0,0-.12.15l-.09.13-.14.19-.09.12-.16.23L47,6.28s0,0,0,.07-.17.27-.26.41,0,0,0,0l0,.09c-.06.09-.11.2-.17.29s0,.09-.08.15a1.07,1.07,0,0,0-.07.15,1.33,1.33,0,0,0-.06.12c-.06.12-.11.25-.17.35l0,.06V8l-.18.44a.41.41,0,0,0,0,.08,1,1,0,0,0-.06.16,2,2,0,0,0-.08.22.6.6,0,0,1-.05.16,1.52,1.52,0,0,1-.06.2.7.7,0,0,0,0,.12.86.86,0,0,1-.06.23,2.27,2.27,0,0,1-.06.25s0,.06,0,.09a1.13,1.13,0,0,0,0,.18,2.76,2.76,0,0,0-.06.4s0,.07,0,.1a2.13,2.13,0,0,0,0,.25c0,.06,0,.12,0,.16s0,.37,0,.55a3.4,3.4,0,0,0,1.43,3.13l2.5,1.45a3.41,3.41,0,0,1-1.44-3.13c0-.19,0-.37,0-.55s0-.12,0-.17,0-.23,0-.35.05-.26.06-.39,0-.19,0-.26a2.27,2.27,0,0,1,.06-.25l.09-.35a1.39,1.39,0,0,1,.06-.19l.14-.4a.58.58,0,0,1,.06-.17,4.87,4.87,0,0,1,.21-.53.13.13,0,0,0,0,0l.23-.48a1.19,1.19,0,0,0,.08-.16c.07-.15.15-.28.22-.44l.05-.09c.09-.17.2-.33.3-.5l.1-.14c.07-.12.16-.23.24-.35L50,7.06a2.16,2.16,0,0,0,.21-.29l.18-.23.18-.21c.11-.12.22-.23.32-.35l.22-.21.16-.16a3.22,3.22,0,0,0,.28-.24l.17-.14c.1-.07.19-.15.3-.22s.09-.08.15-.11a4.57,4.57,0,0,1,.47-.29,4.3,4.3,0,0,1,.48-.24l.12-.06a2.21,2.21,0,0,1,.48-.22A1.74,1.74,0,0,1,54,4L54.31,4l.07,0,.34,0H55l.2,0a.15.15,0,0,1,.09,0A1.31,1.31,0,0,1,55.6,4a.07.07,0,0,1,.06,0,.8.8,0,0,1,.2.07l.09,0,.17.08Z"/><path class="cls-11" d="M36.06,23.62v0l-.12-.07a.45.45,0,0,0,.12.06l-2.5-1.45-.17-.08L33.1,22,33,22h0l-.2,0h-.48l-.29.07-.37.12h0l-.28.14-.18.1a5.58,5.58,0,0,0-1.14.89l-.37.39h0l-.27.31c-.07.11-.15.2-.23.31a2.9,2.9,0,0,0-.19.29l-.17.27h0c0,.08-.12.2-.16.29h0c0,.1-.09.2-.13.29l-.13.27c0,.11-.07.2-.12.31h0c0,.1-.09.21-.12.31a2.24,2.24,0,0,0-.11.34c0,.12-.06.27-.09.4a3.81,3.81,0,0,0-.07.47,4.82,4.82,0,0,0,0,1.26,2.09,2.09,0,0,0,.91,1.51l1.09.63,3,22.89,2.49,1.45-3-23.3-1.71-1a2.6,2.6,0,0,1-.23-.73,3.85,3.85,0,0,1,0-1.27c0-.16.05-.3.07-.45l.1-.41c0-.11.07-.23.11-.34s.09-.21.12-.32.07-.19.11-.29h0a1.55,1.55,0,0,1,.14-.29h0a1.5,1.5,0,0,0,.11-.22h0l.21-.38h0c.05-.09.11-.17.15-.26a2.51,2.51,0,0,0,.2-.29l.23-.3a2,2,0,0,1,.27-.32h0l.36-.39a7,7,0,0,1,1.14-.88.93.93,0,0,1,.19-.11,1.47,1.47,0,0,1,.29-.12c.12,0,.25-.09.38-.12a1.14,1.14,0,0,1,.33-.08h0l.18,0h.23a1.75,1.75,0,0,1,.24,0l.16,0h0a.89.89,0,0,0,.2.06Z"/><path class="cls-12" d="M54.9,27.89l-1.81-1.05,5.69,3.24,1.81,1.05Z"/><path class="cls-13" d="M52.69,26.08l5.7,3.24-5.65,9.8-5.69-3.24Z"/><path class="cls-14" d="M49.26,37.68l-1.82-1,5.65-9.79,1.81,1.05Z"/><path class="cls-15" d="M54.9,27.89l5.69,3.24L55,40.93l-5.69-3.25Z"/><path class="cls-16" d="M63.65,67.76a1,1,0,0,0,.35.34l2.25,1.32a1.45,1.45,0,0,1-.61-1.32l-2.25-1.31a1.68,1.68,0,0,0,.26,1Z"/><path class="cls-17" d="M91.33,32.72l-.12-.06h0l0,0-.06,0H91s0,0,0,0h-.47l-.09,0h0l0,0-.16,0h0s0,0,0,0a1.51,1.51,0,0,0-.26.12L65.4,47c-.11.06-.21.14-.32.21s0,0-.06,0a3.4,3.4,0,0,0-.29.26h0l0,0a1,1,0,0,0-.13.15l0,.05,0,0a.28.28,0,0,0-.07.09s0,.05-.05.06l0,.06s0,0-.06.08l0,0a.47.47,0,0,0-.06.09s0,0,0,.06,0,0,0,0-.08.12-.11.18v0l0,0s0,.09-.07.12,0,0,0,.06,0,0,0,.06a.11.11,0,0,0,0,.06.84.84,0,0,0-.06.14s0,0,0,0h0a1.54,1.54,0,0,1-.08.19v0s0,0,0,.06a.16.16,0,0,0,0,.09.1.1,0,0,0,0,.07.29.29,0,0,1,0,.1.35.35,0,0,0,0,.06.15.15,0,0,0,0,.09.38.38,0,0,1,0,.1.07.07,0,0,1,0,.05s0,0,0,.08a.9.9,0,0,1,0,.16.09.09,0,0,1,0,0v0a2.19,2.19,0,0,0,0,.36l0,16.24,2.25,1.31,0-16.24a2.4,2.4,0,0,1,0-.37.28.28,0,0,1,0-.09.86.86,0,0,0,0-.17s0-.07,0-.12a.38.38,0,0,1,0-.1s0-.09,0-.16a.32.32,0,0,1,0-.09.52.52,0,0,1,.06-.16s0-.05,0-.06l.09-.23s0,0,0,0l.09-.2s0,0,0-.06a1.62,1.62,0,0,1,.1-.18.07.07,0,0,1,0,0c0-.07.09-.13.13-.21s0,0,0-.06l.11-.15s0-.05.06-.08l.09-.12a.21.21,0,0,0,.07-.11L66.8,49a1,1,0,0,0,.14-.15s0,0,.07-.08a3.23,3.23,0,0,1,.29-.25l.06,0,.32-.21L92.12,34.18a1.51,1.51,0,0,1,.26-.12l.08,0,.13,0,.09,0,.1,0h.48s0,0,0,0a.29.29,0,0,1,.11,0h0l.14.07Z"/><path class="cls-18" d="M92.12,34.18c1.14-.66,2.07-.12,2.07,1.17l0,16.23a4.59,4.59,0,0,1-2.06,3.57L67.71,69.27c-1.14.65-2.07.12-2.07-1.17l0-16.24a4.57,4.57,0,0,1,2.05-3.56Z"/><path class="cls-15" d="M94.21,37.52v3.26L65.61,57.26V54Z"/><path class="cls-19" d="M83.43,49.36c1-.61,1.72-.19,1.72.89a3.46,3.46,0,0,1-1.72,2.86l-1.22.7v2.42l-.8.47,0-6.16Zm0,2.91a1.86,1.86,0,0,0,.95-1.57c0-.65-.39-.8-1-.48l-1.18.68V53l1.19-.68m-3.85-.67,0,6.16-.81.47V52.07Zm-2,1.16-1.75,7.18-.64.36-1.78-5.14.86-.49,1.24,3.78,1.22-5.19Z"/><path class="cls-20" d="M86.55,51.55,84.7,50.47a.67.67,0,0,1,.24.6.93.93,0,0,1,0,.23v0c0,.07,0,.13,0,.21h0a2,2,0,0,1-.08.22h0a.93.93,0,0,1-.1.2v0l-.13.18h0l-.15.17a.63.63,0,0,1-.13.11l-.06,0-.21.14,1.86,1.08.21-.14.06,0a.65.65,0,0,0,.12-.11l.11-.11,0,0v0h0a.21.21,0,0,1,.06-.08l0-.06s0,0,0,0h0s0,0,0,0a.11.11,0,0,0,0-.07s0,0,0-.06,0,0,0,0v0a.26.26,0,0,1,0-.08.21.21,0,0,1,0-.07.56.56,0,0,0,0-.07v0a1,1,0,0,0,0-.1s0-.06,0-.09v0a.78.78,0,0,0,0-.21.63.63,0,0,0-.25-.6Z"/><path class="cls-20" d="M82.81,53.3l1.85,1.09,1.19-.67L84,52.63Zm3.41-2.67a1.56,1.56,0,0,1,.15-.06l0,0h.07l.09,0h.2a.23.23,0,0,1,.12,0,.24.24,0,0,1,.12,0h0l.11.05L85.3,49.55h0a.13.13,0,0,0-.08,0l0,0h0l0,0a.15.15,0,0,0-.09,0h-.4l-.07,0h0l0,0a.39.39,0,0,0-.15.06h0s0,0,0,0a1.66,1.66,0,0,0-.27.13l-2,1.17L83.83,52l2-1.18a1.11,1.11,0,0,1,.27-.13l.08,0Z"/><path class="cls-20" d="M83.87,58.13,82,57.05V50.88L83.84,52ZM81.2,59.67l-1.86-1.09,0-6.16,1.86,1.08Z"/><path class="cls-20" d="M81.18,53.5l-1.86-1.08.81-.47L82,53.05Zm-3.27,6.39L76.05,58.8l1.22-5.19,1.86,1.08Z"/><path class="cls-20" d="M79.13,54.69l-1.86-1.08.87-.5L80,54.2Zm-3.31,1.92L74,55.53,74.8,55l1.86,1.08Zm1.78,5.14-1.87-1.08L74,55.53l1.87,1.08Z"/><path class="cls-15" d="M85.88,50.79c1.05-.6,1.72-.19,1.72.89a3.46,3.46,0,0,1-1.72,2.86l-1.22.7v2.42l-.8.47,0-6.16Zm0,2.93a1.84,1.84,0,0,0,1-1.57c0-.66-.38-.81-1-.49l-1.18.69v2l1.19-.68M82,53.05l0,6.14-.82.48,0-6.17ZM80,54.2l-1.76,7.18-.63.37-1.78-5.14.84-.49,1.25,3.77,1.22-5.2Z"/></g></g></svg>