<svg xmlns="http://www.w3.org/2000/svg" xmlns:xlink="http://www.w3.org/1999/xlink" viewBox="0 0 119.84 97.32"><defs><style>.cls-1{fill:none;}.cls-2{fill:#e8cfac;}.cls-3{clip-path:url(#clip-path);}.cls-4{fill:url(#未命名的渐变_48);}.cls-5{fill:url(#未命名的渐变_85);}.cls-6{fill:url(#未命名的渐变_48-2);}.cls-7{fill:url(#未命名的渐变_48-3);}.cls-8{fill:url(#未命名的渐变_79);}.cls-9{fill:url(#未命名的渐变_79-2);}.cls-10{fill:url(#未命名的渐变_48-4);}.cls-11{fill:url(#未命名的渐变_48-5);}.cls-12{fill:url(#未命名的渐变_48-6);}.cls-13{fill:url(#未命名的渐变_48-7);}.cls-14{fill:#fdfdff;}.cls-15{fill:url(#未命名的渐变_48-8);}.cls-16{fill:url(#未命名的渐变_48-9);}.cls-17{fill:url(#未命名的渐变_48-10);}.cls-18{fill:url(#未命名的渐变_48-11);}.cls-19{fill:url(#未命名的渐变_48-12);}.cls-20{fill:url(#未命名的渐变_48-13);}.cls-21{fill:url(#未命名的渐变_48-14);}.cls-22{fill:url(#未命名的渐变_48-15);}.cls-23{fill:url(#未命名的渐变_48-16);}.cls-24{fill:url(#未命名的渐变_48-17);}.cls-25{isolation:isolate;}.cls-26{fill:url(#未命名的渐变_48-18);}.cls-27{fill:url(#未命名的渐变_79-3);}.cls-28{fill:url(#未命名的渐变_48-19);}.cls-29{fill:url(#未命名的渐变_48-20);}.cls-30{fill:url(#未命名的渐变_48-21);}.cls-31{fill:url(#未命名的渐变_48-22);}.cls-32{clip-path:url(#clip-path-2);}.cls-33{clip-path:url(#clip-path-3);}.cls-34{fill:#fff;}.cls-35{clip-path:url(#clip-path-4);}.cls-36{clip-path:url(#clip-path-5);}.cls-37{clip-path:url(#clip-path-6);}.cls-38{clip-path:url(#clip-path-7);}.cls-39{clip-path:url(#clip-path-8);}.cls-40{clip-path:url(#clip-path-9);}</style><clipPath id="clip-path" transform="translate(0 -0.08)"><rect class="cls-1" x="0.02" width="120" height="97.58"/></clipPath><linearGradient id="未命名的渐变_48" y1="77.52" x2="119.83" y2="77.52" gradientUnits="userSpaceOnUse"><stop offset="0" stop-color="#d6a55b"/><stop offset="1" stop-color="#e9d7b1"/></linearGradient><linearGradient id="未命名的渐变_85" x1="0.07" y1="57.7" x2="119.84" y2="57.7" gradientUnits="userSpaceOnUse"><stop offset="0" stop-color="#fcf9f5"/><stop offset="1" stop-color="#f3e7d7"/></linearGradient><linearGradient id="未命名的渐变_48-2" x1="38.47" y1="10.83" x2="61.59" y2="10.83" xlink:href="#未命名的渐变_48"/><linearGradient id="未命名的渐变_48-3" x1="28.99" y1="43.96" x2="64.48" y2="43.96" xlink:href="#未命名的渐变_48"/><linearGradient id="未命名的渐变_79" x1="40.71" y1="11.72" x2="62.47" y2="11.72" gradientUnits="userSpaceOnUse"><stop offset="0" stop-color="#f0e4de"/><stop offset="1" stop-color="#ebd7c0"/></linearGradient><linearGradient id="未命名的渐变_79-2" x1="31.28" y1="44.83" x2="72.54" y2="44.83" xlink:href="#未命名的渐变_79"/><linearGradient id="未命名的渐变_48-4" x1="47.47" y1="40.43" x2="56.38" y2="40.43" xlink:href="#未命名的渐变_48"/><linearGradient id="未命名的渐变_48-5" x1="51.4" y1="43.93" x2="57.97" y2="43.93" xlink:href="#未命名的渐变_48"/><linearGradient id="未命名的渐变_48-6" x1="47.81" y1="40.79" x2="57.9" y2="40.79" xlink:href="#未命名的渐变_48"/><linearGradient id="未命名的渐变_48-7" x1="47.7" y1="41.07" x2="53.98" y2="41.07" xlink:href="#未命名的渐变_48"/><linearGradient id="未命名的渐变_48-8" x1="48.13" y1="39.39" x2="50.03" y2="39.39" xlink:href="#未命名的渐变_48"/><linearGradient id="未命名的渐变_48-9" x1="48.16" y1="38.86" x2="49.86" y2="38.86" xlink:href="#未命名的渐变_48"/><linearGradient id="未命名的渐变_48-10" x1="48.21" y1="38.61" x2="50" y2="38.61" xlink:href="#未命名的渐变_48"/><linearGradient id="未命名的渐变_48-11" x1="48.34" y1="38.38" x2="50.07" y2="38.38" xlink:href="#未命名的渐变_48"/><linearGradient id="未命名的渐变_48-12" x1="48.43" y1="38.17" x2="50.26" y2="38.17" xlink:href="#未命名的渐变_48"/><linearGradient id="未命名的渐变_48-13" x1="48.62" y1="37.84" x2="50.88" y2="37.84" xlink:href="#未命名的渐变_48"/><linearGradient id="未命名的渐变_48-14" x1="49.24" y1="37.61" x2="51.03" y2="37.61" xlink:href="#未命名的渐变_48"/><linearGradient id="未命名的渐变_48-15" x1="49.39" y1="37.6" x2="51.15" y2="37.6" xlink:href="#未命名的渐变_48"/><linearGradient id="未命名的渐变_48-16" x1="49.5" y1="37.62" x2="51.24" y2="37.62" xlink:href="#未命名的渐变_48"/><linearGradient id="未命名的渐变_48-17" x1="49.6" y1="37.64" x2="51.29" y2="37.64" xlink:href="#未命名的渐变_48"/><linearGradient id="未命名的渐变_48-18" x1="66.52" y1="55.23" x2="86.44" y2="55.23" xlink:href="#未命名的渐变_48"/><linearGradient id="未命名的渐变_79-3" x1="68.53" y1="55.85" x2="86.82" y2="55.85" xlink:href="#未命名的渐变_79"/><linearGradient id="未命名的渐变_48-19" x1="75.73" y1="55.92" x2="83.61" y2="55.92" xlink:href="#未命名的渐变_48"/><linearGradient id="未命名的渐变_48-20" x1="72.5" y1="59.49" x2="74.46" y2="59.49" xlink:href="#未命名的渐变_48"/><linearGradient id="未命名的渐变_48-21" x1="75.72" y1="51.8" x2="83.6" y2="51.8" xlink:href="#未命名的渐变_48"/><linearGradient id="未命名的渐变_48-22" x1="72.49" y1="55.32" x2="74.45" y2="55.32" xlink:href="#未命名的渐变_48"/><clipPath id="clip-path-2" transform="translate(0 -0.08)"><path class="cls-2" d="M83.83,53.28l1.61.93a.63.63,0,0,0-.65.07l-1.61-.94A.65.65,0,0,1,83.83,53.28Z"/></clipPath><clipPath id="clip-path-3" transform="translate(0 -0.08)"><path class="cls-2" d="M78.09,59.93,76.48,59a.65.65,0,0,1-.26-.59,2,2,0,0,1,.9-1.57l1.61.94a2,2,0,0,0-.91,1.57A.61.61,0,0,0,78.09,59.93Z"/></clipPath><clipPath id="clip-path-4" transform="translate(0 -0.08)"><path class="cls-2" d="M74.66,58.52l1.6.93a.68.68,0,0,0-.69.07L74,58.58A.69.69,0,0,1,74.66,58.52Z"/></clipPath><clipPath id="clip-path-5" transform="translate(0 -0.08)"><path class="cls-2" d="M74.88,61.84l-1.61-.94a.65.65,0,0,1-.28-.62,2.14,2.14,0,0,1,1-1.7l1.61.94a2.16,2.16,0,0,0-1,1.69A.68.68,0,0,0,74.88,61.84Z"/></clipPath><clipPath id="clip-path-6" transform="translate(0 -0.08)"><path class="cls-2" d="M83.82,49.15l1.61.93a.66.66,0,0,0-.65.07l-1.61-.94A.65.65,0,0,1,83.82,49.15Z"/></clipPath><clipPath id="clip-path-7" transform="translate(0 -0.08)"><path class="cls-2" d="M78.08,55.81l-1.61-.93a.69.69,0,0,1-.27-.6,2,2,0,0,1,.91-1.57l1.61.94a2,2,0,0,0-.91,1.57A.63.63,0,0,0,78.08,55.81Z"/></clipPath><clipPath id="clip-path-8" transform="translate(0 -0.08)"><path class="cls-2" d="M74.64,54.35l1.61.93a.7.7,0,0,0-.69.06L74,54.41A.68.68,0,0,1,74.64,54.35Z"/></clipPath><clipPath id="clip-path-9" transform="translate(0 -0.08)"><path class="cls-2" d="M74.87,57.67l-1.61-.93a.69.69,0,0,1-.29-.63,2.19,2.19,0,0,1,1-1.7l1.61.93a2.17,2.17,0,0,0-1,1.7A.68.68,0,0,0,74.87,57.67Z"/></clipPath></defs><title>资源 6</title><g id="图层_2" data-name="图层 2"><g id="图层_1-2" data-name="图层 1"><g class="cls-3"><path class="cls-4" d="M119.82,57.94c-.16,1.67-1.7,2.51-3,3.27s-2.44,1.41-3.64,2.11l-5.81,3.37c-2.44,1.41-4.85,2.83-7.28,4.22-2.68,1.55-5.35,3.12-8,4.67L84,80.27l-7.42,4.32-6,3.51-4,2.29a13.7,13.7,0,0,1-3.08,1.49,11.56,11.56,0,0,1-8.92-1l-2.89-1.67-5.27-3-6.93-4-7.9-4.56c-2.72-1.57-5.43-3.15-8.15-4.71l-7.72-4.45L9.11,64.68C7.55,63.77,6,62.88,4.4,62L2.26,60.72A3.85,3.85,0,0,1,0,57.63c0,1.28,0,2.56,0,3.85,0,.45,0,.93,0,1.4A3.84,3.84,0,0,0,2.1,65.67c.62.38,1.26.73,1.89,1.1q2.47,1.41,4.93,2.84c2.37,1.36,4.72,2.73,7.09,4.1l8.45,4.88,8.81,5.09,8.37,4.83c2.33,1.33,4.64,2.67,7,4,1.57.91,3.15,1.8,4.71,2.72a19.64,19.64,0,0,0,2.8,1.47,11.5,11.5,0,0,0,9.54-.77c1.08-.63,2.15-1.27,3.23-1.89l6-3.46,7.78-4.53L91.31,81l8.7-5.06,7.81-4.54c2-1.17,4-2.34,6.06-3.53l3.35-1.94c.33-.2.68-.39,1-.62a3.39,3.39,0,0,0,1.53-2.63c0-.56,0-1.11,0-1.67,0-1.11,0-2.24,0-3.34a.47.47,0,0,1,0,.27Z" transform="translate(0 -0.08)"/><path class="cls-5" d="M117.67,54.67c2.88,1.67,2.9,4.39,0,6.06L65.37,91.14a11.52,11.52,0,0,1-10.45,0L2.25,60.73c-2.89-1.67-2.9-4.39,0-6.06L54.54,24.26a11.52,11.52,0,0,1,10.45,0Z" transform="translate(0 -0.08)"/></g><path class="cls-6" d="M41.23,20.28l2.25,1.3a6.56,6.56,0,0,1-2.76-4.78v-.72a.81.81,0,0,1,0-.15c0-.08,0-.15,0-.23s0-.1,0-.16a1.66,1.66,0,0,1,0-.22l.09-.56,0-.18a1.68,1.68,0,0,1,.06-.24,1.17,1.17,0,0,1,.07-.25s0-.09,0-.12.08-.24.14-.36a.07.07,0,0,1,0-.06c0-.13.1-.25.15-.37h0c.07-.13.13-.26.2-.38s0,0,0,0l.22-.37s0,0,0-.05l.24-.33a.24.24,0,0,1,.06-.08l.21-.22a1.35,1.35,0,0,1,.12-.12c.11-.11.22-.2.32-.31l.06,0c.11-.1.22-.17.32-.25s.08,0,.11-.07a4.65,4.65,0,0,1,.41-.26,6.73,6.73,0,0,1,.76-.38l.07,0,.45-.17h0l.43-.14.07,0a2.17,2.17,0,0,1,.35-.07.06.06,0,0,0,.05,0c.1,0,.19,0,.3-.06h.08l.35-.05h.06l.35,0h.6l.54,0h1.39a1.9,1.9,0,0,1,.25,0h0l.23-.05.06,0,.18,0s0,0,0,0h0l.2-.06.08,0A1.53,1.53,0,0,0,51,9.32h0c.09,0,.16-.08.26-.12s.06,0,.07,0L51.73,9a3.1,3.1,0,0,0,.41-.26s.08,0,.11-.07l.3-.24.08-.07L53,8.05l0,0,.45-.49,0,0,.27-.32,0,0c.1-.12.19-.24.28-.37s0,0,0,0c.18-.22.34-.47.53-.71s.36-.5.56-.74l.36-.46a.65.65,0,0,1,.11-.12l.27-.34A1.31,1.31,0,0,0,56,4.26c.09-.1.18-.21.29-.32l.13-.13c.1-.09.19-.19.28-.26a1.8,1.8,0,0,1,.2-.18l.28-.26.2-.17.35-.26.18-.13.58-.37a2.53,2.53,0,0,1,.23-.12l.33-.17h0a1.78,1.78,0,0,1,.29-.12l0,0,.29-.11.07,0L60,1.53l.05,0a2.05,2.05,0,0,1,.34-.07h0a1.75,1.75,0,0,1,.24,0h.44a0,0,0,0,1,0,0,.18.18,0,0,1,.11,0h0l.09,0,0,0,.09,0,.05,0L59.34.28a0,0,0,0,1,0,0s0,0,0,0l-.1,0s0,0,0,0h0a.32.32,0,0,0-.09,0s0,0,0,0h0a.38.38,0,0,1-.1,0h-.05a.5.5,0,0,0-.17,0h-.26a1.2,1.2,0,0,0-.24,0h0a2.7,2.7,0,0,0-.35.07h0a0,0,0,0,0,0,0,.88.88,0,0,0-.23.07l-.08,0c-.09,0-.18.08-.29.11h0l-.29.13-.09,0-.33.17-.23.12-.58.36-.18.14-.35.26-.2.17a1.69,1.69,0,0,0-.28.26l-.2.18c-.06,0-.11.1-.17.15L54,2.65c-.09.11-.2.21-.29.32a1.31,1.31,0,0,1-.11.12l0,.05a2.31,2.31,0,0,0-.24.29l-.11.13L52.85,4c-.19.24-.38.5-.56.74l-.53.72-.32.41s0,0,0,0a3.38,3.38,0,0,1-.31.35c-.15.17-.29.33-.45.48l-.34.32s0,0-.07.06a1.89,1.89,0,0,1-.31.25.3.3,0,0,1-.1.07,3.54,3.54,0,0,1-.41.26l-.32.17-.08,0-.26.13h0l-.28.11-.07,0-.2.06h-.08l-.18.05h-.06l-.23.05h0a1.75,1.75,0,0,1-.24,0h-.06l-.26,0H46.5l-.53,0H44.85l-.35,0h-.06l-.35,0h0a.06.06,0,0,0-.05,0l-.3.06h-.05l-.35.08h0l0,0a2,2,0,0,0-.43.14h0L42.33,9h0l0,0a4.9,4.9,0,0,0-.76.38,4.65,4.65,0,0,0-.41.26s-.08,0-.11.07a3.81,3.81,0,0,1-.32.24.1.1,0,0,1-.06,0l-.27.26,0,.05a.68.68,0,0,1-.12.12l-.13.13-.08.09-.06.08s-.05.05-.06.08l-.17.22s0,0,0,0a.13.13,0,0,0,0,.05l-.1.14a2,2,0,0,0-.12.19v0s0,0,0,0-.06.11-.09.15l-.1.21v0h0l-.09.2a.58.58,0,0,0-.06.17s0,0,0,.06,0,0,0,0l-.1.29,0,0a1,1,0,0,1,0,.13,1.56,1.56,0,0,1,0,.16s0,0,0,.08a1.68,1.68,0,0,1-.06.24.35.35,0,0,1,0,.12.09.09,0,0,1,0,.05,3,3,0,0,0-.09.56v0c0,.06,0,.12,0,.17s0,.11,0,.17,0,.15,0,.22a.86.86,0,0,1,0,.16v.71A6.63,6.63,0,0,0,41.23,20.28Z" transform="translate(0 -0.08)"/><path class="cls-7" d="M62.23,20.12l0,0a1.34,1.34,0,0,0-.24-.12l-.09,0-.35-.17h0l0,0-.31-.12-.12,0-.13,0a.45.45,0,0,1-.11,0,.42.42,0,0,1-.12,0,2.11,2.11,0,0,0-.29-.06l-.09,0h0l-.35,0a.15.15,0,0,1-.09,0H59a2.34,2.34,0,0,0-.38,0h-.11l-.23,0-.07,0a1.25,1.25,0,0,1-.19,0,2.61,2.61,0,0,0-.27.06l-.18.05a.42.42,0,0,0-.12,0,.42.42,0,0,1-.13,0l-.31.1-.22.08c-.1.05-.22.09-.35.14l-.15.06-.06,0-.36.16-.19.1c-.18.09-.38.19-.56.3l-11,6.34a6.33,6.33,0,0,0-.7.44,1.74,1.74,0,0,1-.2.13c-.18.12-.36.26-.55.4l-.15.1c-.21.17-.44.35-.65.54a1.49,1.49,0,0,1-.14.12c-.16.15-.33.3-.5.47a.53.53,0,0,1-.11.09L41,29.3c-.1.11-.21.21-.3.32l-.21.21c-.11.12-.22.23-.32.35l-.15.17-.05,0-.18.23-.26.31-.2.24a1.46,1.46,0,0,0-.16.21l-.05.06c-.21.28-.43.56-.62.84l0,.06s0,.07-.07.1c-.22.31-.41.61-.63.93v0c-.21.33-.42.68-.62,1a.47.47,0,0,0-.06.09.11.11,0,0,0,0,.06c-.21.35-.41.72-.61,1.08a.24.24,0,0,1-.06.09l0,.08q-.32.61-.63,1.26l0,.09s0,0,0,.06c-.26.55-.52,1.09-.74,1.64a0,0,0,0,1,0,0l-.36.88c0,.09-.08.17-.11.26-.11.26-.2.5-.3.76a.46.46,0,0,1-.07.14s0,0,0,0l-.43,1.17c0,.08,0,.14-.07.22-.14.38-.28.77-.4,1.15a4945011281944.68,4945011281944.68,0,0,0-.06.18c-.18.55-.35,1.1-.51,1.63,0,0,0,.09-.05.12-.17.58-.33,1.14-.5,1.7v0s0,0,0,.06c-.12.44-.24.88-.34,1.32h0c-.13.45-.23.89-.34,1.31a1,1,0,0,1,0,.11c-.11.41-.2.82-.29,1.23a.66.66,0,0,0,0,.15c-.09.39-.17.77-.26,1.15,0,0,0,.07,0,.1a.61.61,0,0,0,0,.13c0,.11-.05.2-.06.31s-.05.24-.08.35,0,.19-.06.28-.05.25-.08.35a1.5,1.5,0,0,1-.06.29c0,.12,0,.23-.06.35l0,.28c0,.12-.05.22-.06.33l-.05.27c0,.11,0,.23-.06.34s0,.16-.05.26,0,.22-.06.33,0,.17,0,.24-.05.23-.06.34a.85.85,0,0,0,0,.23c0,.12-.05.22-.06.34a1.38,1.38,0,0,0,0,.2c0,.14-.05.28-.07.4s0,.07,0,.12-.05.33-.08.5,0,.08,0,.12,0,.24-.06.37a1.13,1.13,0,0,0,0,.18l-.05.27a2,2,0,0,1,0,.2,1.81,1.81,0,0,1,0,.23,1.13,1.13,0,0,1,0,.18,1.81,1.81,0,0,1,0,.23.44.44,0,0,0,0,.16c0,.05,0,.1,0,.14V61a1.27,1.27,0,0,0,0,.28s0,.07,0,.12c0,.26-.06.48-.07.68a.15.15,0,0,1,0,.09,1.34,1.34,0,0,0,0,.2.15.15,0,0,1,0,.09s0,.11,0,.15a.15.15,0,0,1,0,.09c0,.05,0,.08,0,.13v.06s0,.07,0,.1v0c0,.05,0,.08,0,.09a4.68,4.68,0,0,0,2,4.2l2.25,1.3a4.63,4.63,0,0,1-2-4.19.28.28,0,0,1,0-.09v0a.2.2,0,0,1,0-.1v-.08s0-.07,0-.12a.15.15,0,0,1,0-.09c0-.05,0-.09,0-.15a.15.15,0,0,1,0-.09c0-.06,0-.13,0-.2a.15.15,0,0,1,0-.09c0-.2,0-.43.07-.69,0,0,0-.07,0-.12a2.48,2.48,0,0,1,0-.27,1.38,1.38,0,0,1,0-.2c0-.06,0-.11,0-.17a1.66,1.66,0,0,0,0-.22,1.25,1.25,0,0,0,0-.19c0-.07,0-.15,0-.22a1.62,1.62,0,0,1,0-.2l0-.28a1.13,1.13,0,0,0,0-.18c0-.12,0-.24.06-.36s0-.08,0-.12,0-.34.07-.51,0-.07,0-.12,0-.25.06-.39a2,2,0,0,1,0-.2,2.14,2.14,0,0,1,.06-.35.85.85,0,0,0,0-.23c0-.1,0-.22.06-.33s0-.17,0-.24,0-.22.06-.34,0-.17,0-.26a3.23,3.23,0,0,0,.06-.33l0-.27c0-.11,0-.23.06-.35l0-.28c0-.12,0-.22.06-.35a1.67,1.67,0,0,1,.06-.29c0-.12,0-.22.07-.34s.05-.2.06-.29,0-.25.08-.37.05-.2.06-.3l0-.23c.07-.38.16-.76.26-1.15a.88.88,0,0,0,0-.16c.1-.41.19-.8.29-1.23a.29.29,0,0,0,0-.1c.11-.43.22-.87.34-1.31h0c.1-.44.23-.89.35-1.33a.32.32,0,0,1,0-.09c.15-.56.32-1.14.5-1.7l0-.12c.17-.55.34-1.09.52-1.63a.59.59,0,0,1,.06-.16c.12-.38.26-.78.4-1.16,0-.07,0-.13.07-.21.14-.4.29-.78.43-1.17,0-.06,0-.12.07-.18.1-.26.2-.5.31-.76,0-.09.07-.17.1-.26.13-.29.25-.59.37-.88,0,0,0,0,0,0,.25-.56.49-1.11.75-1.64,0,0,0-.1.08-.15.21-.43.41-.85.63-1.26l.09-.17c.2-.36.4-.73.61-1.08a1,1,0,0,0,.09-.15c.2-.35.41-.68.63-1h0c.19-.32.41-.63.62-.93l.12-.17c.2-.29.41-.56.62-.83a1.93,1.93,0,0,0,.22-.28l.19-.24c.09-.1.17-.21.26-.3l.18-.23.19-.21c.1-.12.21-.23.32-.35l.21-.22.3-.31.2-.19.5-.47a1.49,1.49,0,0,1,.14-.12c.21-.18.42-.36.65-.53a1.12,1.12,0,0,1,.15-.11,5.59,5.59,0,0,0,.53-.39l.2-.14c.23-.15.46-.3.7-.44l11-6.33.56-.31a.25.25,0,0,0,.21,0l.36-.17.2-.09L59,21.1,59.2,21l.32-.11.23-.06.2,0,.26-.06a.57.57,0,0,1,.18,0l.32,0h.09a2.83,2.83,0,0,1,.41,0H62a.15.15,0,0,1,.09,0l.38.06h.09l.29.06.12,0,.26.08.12,0,.31.11,0,0a3,3,0,0,1,.37.16l.09.05.29.15Z" transform="translate(0 -0.08)"/><path class="cls-8" d="M46.41,21.58l10.41-6C60,13.71,62.47,5.72,62.47,4.26s-.21-4.1-3.8-2.15l-.23.12c-3.38,2-4.25,5.33-6.77,6.79s-4-.09-7.2,1.27c-.28.13-.53.25-.76.38a6.52,6.52,0,0,0-3,6.16C40.78,18.92,43.19,23.44,46.41,21.58Z" transform="translate(0 -0.08)"/><path class="cls-9" d="M57.32,21.89l-11,6.35C34.18,35.26,31.43,63,31.28,64.43c0,3.6,2.57,5.75,5.7,3.95L66.89,51.09c3.13-1.81,5.67-6.9,5.65-10.5C72.39,39.31,69.48,14.87,57.32,21.89Z" transform="translate(0 -0.08)"/><path class="cls-10" d="M55.41,32.54a.72.72,0,0,1,.22-.1.49.49,0,0,1,.64.37A1.57,1.57,0,0,1,56,33.93l-2.26,3.92,1.69-1a.57.57,0,0,1,.77.06,1.07,1.07,0,0,1,0,1,1.92,1.92,0,0,1-.77,1L53,40.38v1.35l2.53-1.48a.57.57,0,0,1,.78.07,1.1,1.1,0,0,1,0,1,1.89,1.89,0,0,1-.78,1L53,43.75l0,3a1.91,1.91,0,0,1-.43,1.18,1.58,1.58,0,0,1-.46.41.71.71,0,0,1-.45.12c-.29,0-.46-.3-.43-.68v-3l-2.78,1.61c-.47.25-.84,0-.84-.53a2,2,0,0,1,.84-1.5l2.78-1.61V41.39L48.42,43a.07.07,0,0,1-.06,0c-.31.19-.61.17-.76-.06a1.14,1.14,0,0,1,0-1.06,1.93,1.93,0,0,1,.76-.93l.06,0,2-1.18-2.28-1.31c-.35-.2-.35-.85,0-1.44a1.84,1.84,0,0,1,.62-.67.61.61,0,0,1,.64-.06l2.69,1.53,2.67-4.62a1.61,1.61,0,0,1,.6-.66Z" transform="translate(0 -0.08)"/><path class="cls-11" d="M53.07,49.6l0-3-1.64-1,0,3a.66.66,0,0,0,.25.64l1.65,1a.64.64,0,0,1-.26-.64ZM57.69,42h.15L58,42l-1.64-1a0,0,0,0,0,0,0h0s0,0,0,0H56l-.07,0h0s0,0,0,0h0l-.12.07L53.2,42.59l1.64,1,2.53-1.46a.56.56,0,0,1,.16-.07s0,0,0,0a.42.42,0,0,1,.13,0Zm0-3.39h.15l.14.05-1.64-1h0l0,0h-.32a0,0,0,0,0,0,0h0s0,0,0,0a.38.38,0,0,0-.13.06l-1.68,1,1.64,1,1.69-1a.56.56,0,0,1,.16-.07s0,0,0,0a.7.7,0,0,1,.14,0Zm-4.63,6-1.63-.95V42.27l1.64,1Z" transform="translate(0 -0.08)"/><path class="cls-12" d="M57.72,34.25h0l.1,0s.06,0,.08,0l-1.64-1h0s0,0,0,0h-.33a.45.45,0,0,1-.11,0,.45.45,0,0,0-.12.06l-.17.11,0,0-.08.08-.11.11-.07.09s0,0,0,0h0l0,0L55,34s0,.05,0,.08h0l-2.68,4.62,1.64,1L56.64,35a1.74,1.74,0,0,1,.13-.2h0a.73.73,0,0,1,.14-.16l0,0,.15-.15a1,1,0,0,1,.17-.11l.12-.06.1,0a.22.22,0,0,1,.11,0ZM49.45,47.46l0-.19h0a.8.8,0,0,1,.07-.2h0l.09-.2a0,0,0,0,1,0,0,.94.94,0,0,1,.12-.18c.05-.06.09-.12.14-.17h0l.12-.12,0-.05a.88.88,0,0,0,.15-.12l2.78-1.61-1.64-1-2.78,1.61-.15.12,0,0,0,0-.08.07v0h0l-.07.09-.07.08s0,0,0,.07l-.05.08s0,0,0,0a0,0,0,0,1,0,0s0,0,0,0L48,46s0,.05,0,.08v0s0,0,0,0a.38.38,0,0,0,0,.1s0,0,0,.06v0a.38.38,0,0,1,0,.1s0,0,0,.08v.06c0,.06,0,.12,0,.17a.72.72,0,0,0,.15.48.53.53,0,0,0,.11.09l1.64,1a.6.6,0,0,1-.26-.58.62.62,0,0,1,0-.19l0-.06Z" transform="translate(0 -0.08)"/><path class="cls-13" d="M50.68,40.65l-2,1.18s0,0-.06,0a1.08,1.08,0,0,0-.2.16l-.09.09-.09.1a.13.13,0,0,0,0,0h0l0,0s0,0-.06.07l0,.08a.07.07,0,0,0,0,.06h0l0,.08s0,0,0,.08,0,0,0,.07a.11.11,0,0,0,0,.06s0,0,0,0a.32.32,0,0,1,0,.09s0,0,0,0,0,0,0,0,0,0,0,0a.45.45,0,0,1,0,.11v0s0,.06,0,.1v0c0,.06,0,.1,0,.16v0a.23.23,0,0,0,0,.12.06.06,0,0,0,0,0,.32.32,0,0,0,0,.09s0,0,0,.05,0,.08.06.11A.42.42,0,0,0,48,44l1.64,1a.5.5,0,0,1-.14-.12.53.53,0,0,1-.06-.1s0,0,0-.05a.32.32,0,0,1,0-.09.06.06,0,0,0,0-.05s0-.07,0-.12v0a.52.52,0,0,1,0-.17s0-.07,0-.1v0a.61.61,0,0,1,0-.13s0,0,0,0a1.56,1.56,0,0,0,0-.16c0-.1.09-.19.13-.28a1.56,1.56,0,0,1,.17-.25h0a.76.76,0,0,1,.18-.18l0,0a1.3,1.3,0,0,1,.2-.15l.06,0,2-1.19Zm.61-2.52-1.64-.94,2.69,1.51,1.64,1Z" transform="translate(0 -0.08)"/><path class="cls-14" d="M57.28,34.37a1,1,0,0,1,.22-.09.48.48,0,0,1,.64.37,1.57,1.57,0,0,1-.23,1.12l-2.26,3.92,1.69-1a.57.57,0,0,1,.77.06,1.07,1.07,0,0,1,0,1,2,2,0,0,1-.77,1l-2.53,1.45v1.36l2.53-1.46a.57.57,0,0,1,.77.06,1.07,1.07,0,0,1,0,1,1.9,1.9,0,0,1-.77,1L54.81,45.6l0,3a2,2,0,0,1-.43,1.19,1.71,1.71,0,0,1-.45.41.81.81,0,0,1-.46.12c-.29,0-.45-.31-.42-.69l0-3-2.78,1.61c-.47.24-.83,0-.83-.54a2,2,0,0,1,.83-1.5l2.78-1.61V43.25l-2.78,1.61a.09.09,0,0,1-.06,0c-.3.18-.61.17-.76-.06a1.17,1.17,0,0,1,0-1.07,2,2,0,0,1,.76-.92.11.11,0,0,1,.06,0l2-1.19L50,40.32c-.35-.2-.35-.86,0-1.45a1.86,1.86,0,0,1,.63-.67.63.63,0,0,1,.63-.06L54,39.68l2.68-4.62a1.6,1.6,0,0,1,.61-.69Z" transform="translate(0 -0.08)"/><path class="cls-15" d="M50,40.3l-1.64-1a.7.7,0,0,1-.25-.74l1.65,1a.69.69,0,0,0,.24.74m-.24-.74-1.65-1c0-.05,0-.08,0-.12l1.64,1a.66.66,0,0,0,0,.13" transform="translate(0 -0.08)"/><path class="cls-16" d="M49.8,39.43l-1.64-1a.3.3,0,0,1,0-.11l1.64,1a.54.54,0,0,0,0,.1m0-.1-1.64-1a.32.32,0,0,0,0-.09l1.64,1a.32.32,0,0,0,0,.09" transform="translate(0 -0.08)"/><path class="cls-17" d="M49.85,39.24l-1.64-1s0-.06,0-.08l1.64,1s0,.05,0,.08m0-.08-1.64-1a.21.21,0,0,1,0-.07l1.64.95a.41.41,0,0,1,0,.08m0-.08-1.64-.95a.26.26,0,0,0,0-.08L50,39a.11.11,0,0,0,0,.07M50,39l-1.64-1,0-.07,1.64,1s0,0,0,.08" transform="translate(0 -0.08)"/><path class="cls-18" d="M50,38.93l-1.64-1a.11.11,0,0,0,0-.07h0l1.64,1h0s0,0,0,.06m.05-.07-1.64-1s0,0,0-.08l1.64,1a.59.59,0,0,0,0,.08" transform="translate(0 -0.08)"/><path class="cls-19" d="M50.07,38.78l-1.64-1,0-.07,1.64,1a.56.56,0,0,0,0,.08m.06-.08-1.64-1,.06-.08,1.65,1a.16.16,0,0,0-.07.07m0-.09-1.64-1,.08-.09,1.64,1-.08.09" transform="translate(0 -0.08)"/><path class="cls-20" d="M50.26,38.54l-1.64-1,.09-.11,1.64,1a.53.53,0,0,0-.09.11m.1-.11-1.64-1a1.34,1.34,0,0,1,.31-.22l.12-.06,1.62.94a.45.45,0,0,0-.12.06,2,2,0,0,0-.29.24m.41-.3-1.64-1a.23.23,0,0,1,.11,0l1.64,1-.11,0" transform="translate(0 -0.08)"/><path class="cls-21" d="M50.88,38.1l-1.64-1,.07,0,1.65,1-.08,0m.09,0-1.64-1h.06l1.64,1H51" transform="translate(0 -0.08)"/><path class="cls-22" d="M51,38.08l-1.64-1h.06l1.64,1H51m.06,0-1.64-1h.06l1.64,1h-.06" transform="translate(0 -0.08)"/><path class="cls-23" d="M51.14,38.08l-1.64-1a0,0,0,0,1,0,0l1.64,1a0,0,0,0,0,0,0m.06,0-1.64-1h0l1.64,1h0" transform="translate(0 -0.08)"/><path class="cls-24" d="M51.24,38.11l-1.64-1,0,0,1.64,1,0,0m0,0-1.64-.94,1.64.94" transform="translate(0 -0.08)"/><g class="cls-25"><path class="cls-26" d="M85.93,43h0a.66.66,0,0,1,.24,0h0a.5.5,0,0,1,.24.06l-2-1.16h0l-.05,0,0,0H84l-.09,0h0l-.17.06h0l-.18.09-.06,0-7.06,4.08L74.49,45h0l-.07,0-.07,0-.07,0h-.22L74,45l-.07,0h0l-.11.06-.12.07-5.53,3.2a2.85,2.85,0,0,0-.6.45.1.1,0,0,0,0,0,1.37,1.37,0,0,0-.17.17l-.09.11h0a.83.83,0,0,0-.08.12,1,1,0,0,0-.08.11l-.06.1a.43.43,0,0,1,0,.07h0l0,0a.54.54,0,0,0,0,.11l-.06.11a.61.61,0,0,1,0,.12v0a.36.36,0,0,1,0,.09l0,.16a.24.24,0,0,0,0,.08l0,0a.07.07,0,0,1,0,0q0,.1,0,.18s0,0,0,.06h0a.86.86,0,0,0,0,.15.11.11,0,0,0,0,0v.1l0,15.41c0,.69.17,1,.38,1.14l2,1.16c-.21-.12-.38-.44-.38-1.14l0-15.41v-.15s0-.09,0-.15,0,0,0-.06a2.23,2.23,0,0,1,0-.23l0-.05a1.62,1.62,0,0,1,.1-.34h0c0-.13.11-.26.18-.4h0a3.62,3.62,0,0,1,.27-.41h0c.09-.11.2-.22.31-.33a3,3,0,0,1,.59-.44l5.54-3.2a.56.56,0,0,1,.11-.08l.14-.06h0l.16,0h.22l.12,0-.08,0a1.39,1.39,0,0,1-.25.12h0l-.18,0h-.19l2,1.17h.24l.11,0h0l0,0,.08,0,.17-.09,7.16-4.13.06,0,.18-.09Z" transform="translate(0 -0.08)"/><path class="cls-27" d="M75.74,46.21a.75.75,0,0,1,1.07.27,13.22,13.22,0,0,1,.86,1,.9.9,0,0,0,.66-.15l7.16-4.13.06,0c.25-.14,1.22-.61,1.22.76l0,13.13a2.26,2.26,0,0,1-1.12,2.23L69.85,68.46l-.13.08c-.32.18-1.15.51-1.15-1.05l0-15.41a3.07,3.07,0,0,1,1.56-2.59l5.54-3.2A.56.56,0,0,1,75.74,46.21Z" transform="translate(0 -0.08)"/></g><path class="cls-28" d="M82.7,53.13c.51-.3.91-.07.91.52a2,2,0,0,1-.9,1.57l-6.07,3.5c-.51.29-.91.05-.91-.52a2,2,0,0,1,.91-1.57Z" transform="translate(0 -0.08)"/><path class="cls-29" d="M73.48,58.37c.54-.31,1-.06,1,.56a2.18,2.18,0,0,1-1,1.69c-.55.31-1,.06-1-.56A2.13,2.13,0,0,1,73.48,58.37Z" transform="translate(0 -0.08)"/><path class="cls-30" d="M82.69,49c.51-.3.91-.06.91.52a2,2,0,0,1-.91,1.58l-6.06,3.5c-.51.29-.91,0-.91-.53a2,2,0,0,1,.91-1.57Z" transform="translate(0 -0.08)"/><path class="cls-31" d="M73.47,54.19c.54-.31,1,0,1,.57a2.16,2.16,0,0,1-1,1.69c-.54.32-1,.06-1-.56A2.17,2.17,0,0,1,73.47,54.19Z" transform="translate(0 -0.08)"/><g class="cls-25"><g class="cls-25"><path class="cls-2" d="M83.83,53.28l1.61.93a.63.63,0,0,0-.65.07l-1.61-.94A.65.65,0,0,1,83.83,53.28Z" transform="translate(0 -0.08)"/><g class="cls-32"><g class="cls-25"><path class="cls-2" d="M84.79,54.28l-1.61-.94.14-.06,1.6.93-.13.07" transform="translate(0 -0.08)"/><path class="cls-2" d="M84.92,54.21l-1.6-.93.11,0,1.6.93-.11,0" transform="translate(0 -0.08)"/><path class="cls-2" d="M85,54.17l-1.6-.93.08,0,1.6.94H85" transform="translate(0 -0.08)"/><path class="cls-2" d="M85.11,54.16l-1.6-.94h.06l1.61.93h-.07" transform="translate(0 -0.08)"/><path class="cls-2" d="M85.18,54.15l-1.61-.93h.06l1.61.93h-.06" transform="translate(0 -0.08)"/><path class="cls-2" d="M85.24,54.15l-1.61-.93h.06l1.6.94h-.05" transform="translate(0 -0.08)"/><path class="cls-2" d="M85.29,54.16l-1.6-.94h0l1.6.94h0" transform="translate(0 -0.08)"/><path class="cls-2" d="M85.34,54.17l-1.6-.94.05,0,1.6.94,0,0" transform="translate(0 -0.08)"/><path class="cls-2" d="M85.39,54.19l-1.6-.94,0,0,1.61.94,0,0" transform="translate(0 -0.08)"/><polyline class="cls-2" points="85.44 54.12 83.83 53.19 83.83 53.19 85.44 54.13 85.44 54.12"/></g></g></g><polygon class="cls-2" points="78.73 57.69 77.12 56.76 83.19 53.26 84.79 54.19 78.73 57.69"/><g class="cls-25"><path class="cls-2" d="M78.09,59.93,76.48,59a.65.65,0,0,1-.26-.59,2,2,0,0,1,.9-1.57l1.61.94a2,2,0,0,0-.91,1.57A.61.61,0,0,0,78.09,59.93Z" transform="translate(0 -0.08)"/><g class="cls-33"><g class="cls-25"><path class="cls-2" d="M78.09,59.93,76.48,59a.65.65,0,0,1-.26-.59,1.09,1.09,0,0,1,0-.18l1.61.93a1.37,1.37,0,0,0,0,.19.61.61,0,0,0,.27.58" transform="translate(0 -0.08)"/><path class="cls-2" d="M77.84,59.16l-1.61-.93a.59.59,0,0,1,0-.13l1.61.94a.5.5,0,0,0,0,.12" transform="translate(0 -0.08)"/><path class="cls-2" d="M77.86,59l-1.61-.94,0-.1,1.6.93a.43.43,0,0,0,0,.11" transform="translate(0 -0.08)"/><path class="cls-2" d="M77.88,58.93,76.28,58a.36.36,0,0,1,0-.1l1.61.94,0,.09" transform="translate(0 -0.08)"/><path class="cls-2" d="M77.91,58.84,76.3,57.9a.59.59,0,0,1,0-.08l1.6.93,0,.09" transform="translate(0 -0.08)"/><path class="cls-2" d="M77.94,58.75l-1.6-.93,0-.08,1.6.93,0,.08" transform="translate(0 -0.08)"/><path class="cls-2" d="M78,58.67l-1.6-.93,0-.08L78,58.6a.25.25,0,0,1,0,.07" transform="translate(0 -0.08)"/><path class="cls-2" d="M78,58.6l-1.61-.94a.25.25,0,0,0,0-.07l1.61.93a.2.2,0,0,0,0,.08" transform="translate(0 -0.08)"/><path class="cls-2" d="M78.05,58.52l-1.61-.93,0-.08,1.61.93,0,.08" transform="translate(0 -0.08)"/><path class="cls-2" d="M78.09,58.44l-1.61-.93,0-.07,1.61.93,0,.07" transform="translate(0 -0.08)"/><path class="cls-2" d="M78.14,58.37l-1.61-.93a.56.56,0,0,1,0-.08l1.61.93a.35.35,0,0,0,0,.08" transform="translate(0 -0.08)"/><path class="cls-2" d="M78.19,58.29l-1.61-.93.06-.08,1.61.93-.06.08" transform="translate(0 -0.08)"/><path class="cls-2" d="M78.25,58.21l-1.61-.93.07-.09,1.61.93-.07.09" transform="translate(0 -0.08)"/><path class="cls-2" d="M78.32,58.12l-1.61-.93.1-.11,1.61.94a.94.94,0,0,0-.1.1" transform="translate(0 -0.08)"/><path class="cls-2" d="M78.42,58l-1.61-.94a2.34,2.34,0,0,1,.31-.24l1.61.94a1.36,1.36,0,0,0-.31.24" transform="translate(0 -0.08)"/></g></g></g><path class="cls-34" d="M84.79,54.28c.51-.3.91-.07.91.52a2,2,0,0,1-.9,1.57l-6.06,3.5c-.51.29-.92.05-.92-.52a2,2,0,0,1,.91-1.57Z" transform="translate(0 -0.08)"/></g><g class="cls-25"><g class="cls-25"><path class="cls-2" d="M74.66,58.52l1.6.93a.68.68,0,0,0-.69.07L74,58.58A.69.69,0,0,1,74.66,58.52Z" transform="translate(0 -0.08)"/><g class="cls-35"><g class="cls-25"><path class="cls-2" d="M75.57,59.52,74,58.58l.14-.06,1.61.93-.14.07" transform="translate(0 -0.08)"/><path class="cls-2" d="M75.71,59.45l-1.61-.93.12,0,1.6.93-.11,0" transform="translate(0 -0.08)"/><path class="cls-2" d="M75.82,59.41l-1.6-.93.08,0,1.61.93-.09,0" transform="translate(0 -0.08)"/><path class="cls-2" d="M75.91,59.39l-1.61-.93h.07l1.61.93h-.07" transform="translate(0 -0.08)"/><path class="cls-2" d="M76,59.38l-1.61-.93h.07l1.6.93H76" transform="translate(0 -0.08)"/><path class="cls-2" d="M76,59.38l-1.6-.93h.06l1.6.93H76" transform="translate(0 -0.08)"/><path class="cls-2" d="M76.1,59.39l-1.6-.93h0l1.61.93H76.1" transform="translate(0 -0.08)"/><path class="cls-2" d="M76.16,59.4l-1.61-.93,0,0,1.61.93,0,0" transform="translate(0 -0.08)"/><path class="cls-2" d="M76.21,59.42l-1.61-.93.05,0,1.61.94-.05,0" transform="translate(0 -0.08)"/><polyline class="cls-2" points="76.26 59.36 74.65 58.43 74.66 58.43 76.26 59.36 76.26 59.36"/></g></g></g><g class="cls-25"><path class="cls-2" d="M74.88,61.84l-1.61-.94a.65.65,0,0,1-.28-.62,2.14,2.14,0,0,1,1-1.7l1.61.94a2.16,2.16,0,0,0-1,1.69A.68.68,0,0,0,74.88,61.84Z" transform="translate(0 -0.08)"/><g class="cls-36"><g class="cls-25"><path class="cls-2" d="M74.88,61.84l-1.61-.94a.65.65,0,0,1-.28-.62,1.41,1.41,0,0,1,0-.2l1.6.94c0,.06,0,.13,0,.19a.68.68,0,0,0,.29.63" transform="translate(0 -0.08)"/><path class="cls-2" d="M74.6,61,73,60.08A.59.59,0,0,1,73,60l1.61.93,0,.14" transform="translate(0 -0.08)"/><path class="cls-2" d="M74.63,60.88,73,60l0-.12,1.61.94,0,.11" transform="translate(0 -0.08)"/><path class="cls-2" d="M74.66,60.77l-1.61-.94,0-.1,1.61.94,0,.1" transform="translate(0 -0.08)"/><path class="cls-2" d="M74.69,60.67l-1.61-.94,0-.09,1.61.94,0,.09" transform="translate(0 -0.08)"/><path class="cls-2" d="M74.72,60.58l-1.61-.94,0-.09,1.61.94a.36.36,0,0,0,0,.09" transform="translate(0 -0.08)"/><path class="cls-2" d="M74.76,60.49l-1.61-.94,0-.08,1.6.93,0,.09" transform="translate(0 -0.08)"/><path class="cls-2" d="M74.79,60.4l-1.6-.93,0-.08,1.61.93a.56.56,0,0,1,0,.08" transform="translate(0 -0.08)"/><path class="cls-2" d="M74.84,60.32l-1.61-.93a.41.41,0,0,1,0-.09l1.6.94s0,0,0,.08" transform="translate(0 -0.08)"/><path class="cls-2" d="M74.88,60.24l-1.6-.94,0-.08,1.6.94-.05.08" transform="translate(0 -0.08)"/><path class="cls-2" d="M74.93,60.16l-1.6-.94a.35.35,0,0,1,0-.08l1.61.93-.06.09" transform="translate(0 -0.08)"/><path class="cls-2" d="M75,60.07l-1.61-.93.07-.09,1.6.93-.06.09" transform="translate(0 -0.08)"/><path class="cls-2" d="M75.05,60l-1.6-.93.08-.1,1.6.94-.08.09" transform="translate(0 -0.08)"/><path class="cls-2" d="M75.13,59.89,73.53,59a.57.57,0,0,1,.11-.11l1.6.93-.11.12" transform="translate(0 -0.08)"/><path class="cls-2" d="M75.24,59.77l-1.6-.93a1.92,1.92,0,0,1,.32-.26l1.61.94a1.79,1.79,0,0,0-.33.25" transform="translate(0 -0.08)"/></g></g></g><path class="cls-34" d="M75.57,59.52c.54-.31,1-.06,1,.56a2.15,2.15,0,0,1-1,1.69c-.55.31-1,.06-1-.56A2.16,2.16,0,0,1,75.57,59.52Z" transform="translate(0 -0.08)"/></g><g class="cls-25"><g class="cls-25"><path class="cls-2" d="M83.82,49.15l1.61.93a.66.66,0,0,0-.65.07l-1.61-.94A.65.65,0,0,1,83.82,49.15Z" transform="translate(0 -0.08)"/><g class="cls-37"><g class="cls-25"><path class="cls-2" d="M84.78,50.15l-1.61-.94.13-.06,1.61.93-.13.07" transform="translate(0 -0.08)"/><path class="cls-2" d="M84.91,50.08l-1.61-.93.11,0L85,50l-.11,0" transform="translate(0 -0.08)"/><path class="cls-2" d="M85,50l-1.61-.93.08,0L85.1,50H85" transform="translate(0 -0.08)"/><path class="cls-2" d="M85.1,50l-1.61-.94h.07l1.61.93H85.1" transform="translate(0 -0.08)"/><path class="cls-2" d="M85.17,50l-1.61-.93h.06l1.61.93h-.06" transform="translate(0 -0.08)"/><path class="cls-2" d="M85.23,50l-1.61-.93h0l1.61.94h0" transform="translate(0 -0.08)"/><path class="cls-2" d="M85.28,50l-1.61-.94,0,0,1.61.93h0" transform="translate(0 -0.08)"/><path class="cls-2" d="M85.33,50l-1.61-.93h0l1.61.94,0,0" transform="translate(0 -0.08)"/><path class="cls-2" d="M85.38,50.06l-1.61-.94,0,0,1.6.94,0,0" transform="translate(0 -0.08)"/><polyline class="cls-2" points="85.42 49.99 83.82 49.06 83.82 49.06 85.43 50 85.42 49.99"/></g></g></g><polygon class="cls-2" points="78.72 53.56 77.11 52.63 83.17 49.13 84.78 50.06 78.72 53.56"/><g class="cls-25"><path class="cls-2" d="M78.08,55.81l-1.61-.93a.69.69,0,0,1-.27-.6,2,2,0,0,1,.91-1.57l1.61.94a2,2,0,0,0-.91,1.57A.63.63,0,0,0,78.08,55.81Z" transform="translate(0 -0.08)"/><g class="cls-38"><g class="cls-25"><path class="cls-2" d="M78.08,55.81l-1.61-.93a.69.69,0,0,1-.27-.6,1.1,1.1,0,0,1,0-.18l1.6.94c0,.06,0,.12,0,.18a.63.63,0,0,0,.27.59" transform="translate(0 -0.08)"/><path class="cls-2" d="M77.82,55l-1.6-.94a.5.5,0,0,1,0-.12l1.61.93,0,.13" transform="translate(0 -0.08)"/><path class="cls-2" d="M77.85,54.91,76.24,54s0-.07,0-.11l1.61.93a.43.43,0,0,0,0,.11" transform="translate(0 -0.08)"/><path class="cls-2" d="M77.87,54.8l-1.61-.93,0-.09,1.61.93,0,.09" transform="translate(0 -0.08)"/><path class="cls-2" d="M77.9,54.71l-1.61-.93,0-.09,1.61.94,0,.08" transform="translate(0 -0.08)"/><path class="cls-2" d="M77.93,54.63l-1.61-.94,0-.08,1.6.93,0,.09" transform="translate(0 -0.08)"/><path class="cls-2" d="M78,54.54l-1.6-.93,0-.08,1.61.94,0,.07" transform="translate(0 -0.08)"/><path class="cls-2" d="M78,54.47l-1.61-.94,0-.07,1.61.93a.3.3,0,0,0,0,.08" transform="translate(0 -0.08)"/><path class="cls-2" d="M78,54.39l-1.61-.93s0-.05,0-.08l1.61.93s0,0,0,.08" transform="translate(0 -0.08)"/><path class="cls-2" d="M78.08,54.31l-1.61-.93,0-.08,1.61.94,0,.07" transform="translate(0 -0.08)"/><path class="cls-2" d="M78.13,54.24l-1.61-.94,0-.07,1.61.93a.35.35,0,0,0-.05.08" transform="translate(0 -0.08)"/><path class="cls-2" d="M78.18,54.16l-1.61-.93.06-.09,1.61.94-.06.08" transform="translate(0 -0.08)"/><path class="cls-2" d="M78.24,54.08l-1.61-.94.08-.09,1.6.94-.07.09" transform="translate(0 -0.08)"/><path class="cls-2" d="M78.31,54l-1.6-.94a.94.94,0,0,1,.1-.1l1.6.93-.1.11" transform="translate(0 -0.08)"/><path class="cls-2" d="M78.41,53.88,76.81,53a1.76,1.76,0,0,1,.3-.24l1.61.94a1.66,1.66,0,0,0-.31.23" transform="translate(0 -0.08)"/></g></g></g><path class="cls-34" d="M84.78,50.15c.51-.3.91-.06.91.52a2,2,0,0,1-.9,1.58l-6.07,3.5c-.51.29-.91,0-.91-.53a2,2,0,0,1,.91-1.57Z" transform="translate(0 -0.08)"/></g><g class="cls-25"><g class="cls-25"><path class="cls-2" d="M74.64,54.35l1.61.93a.7.7,0,0,0-.69.06L74,54.41A.68.68,0,0,1,74.64,54.35Z" transform="translate(0 -0.08)"/><g class="cls-39"><g class="cls-25"><path class="cls-2" d="M75.56,55.34,74,54.41l.14-.07,1.6.94-.13.06" transform="translate(0 -0.08)"/><path class="cls-2" d="M75.69,55.28l-1.6-.94.11,0,1.61.94-.12,0" transform="translate(0 -0.08)"/><path class="cls-2" d="M75.81,55.24,74.2,54.3h.09l1.6.93-.08,0" transform="translate(0 -0.08)"/><path class="cls-2" d="M75.89,55.22l-1.6-.93h.07l1.6.93h-.07" transform="translate(0 -0.08)"/><path class="cls-2" d="M76,55.21l-1.6-.93h.06l1.61.93H76" transform="translate(0 -0.08)"/><path class="cls-2" d="M76,55.21l-1.61-.93h.06l1.61.93H76" transform="translate(0 -0.08)"/><path class="cls-2" d="M76.09,55.22l-1.61-.93h.06l1.6.93h0" transform="translate(0 -0.08)"/><path class="cls-2" d="M76.14,55.23l-1.6-.93,0,0,1.61.93-.06,0" transform="translate(0 -0.08)"/><path class="cls-2" d="M76.2,55.25l-1.61-.93,0,0,1.6.94,0,0" transform="translate(0 -0.08)"/><polyline class="cls-2" points="76.25 55.19 74.64 54.26 74.64 54.26 76.25 55.19 76.25 55.19"/></g></g></g><g class="cls-25"><path class="cls-2" d="M74.87,57.67l-1.61-.93a.69.69,0,0,1-.29-.63,2.19,2.19,0,0,1,1-1.7l1.61.93a2.17,2.17,0,0,0-1,1.7A.68.68,0,0,0,74.87,57.67Z" transform="translate(0 -0.08)"/><g class="cls-40"><g class="cls-25"><path class="cls-2" d="M74.87,57.67l-1.61-.93a.69.69,0,0,1-.29-.63,1.11,1.11,0,0,1,0-.19l1.6.93a1.21,1.21,0,0,0,0,.19.68.68,0,0,0,.29.63" transform="translate(0 -0.08)"/><path class="cls-2" d="M74.59,56.85,73,55.92a.68.68,0,0,1,0-.14l1.61.93,0,.14" transform="translate(0 -0.08)"/><path class="cls-2" d="M74.62,56.71,73,55.78l0-.11,1.6.93a.52.52,0,0,0,0,.11" transform="translate(0 -0.08)"/><path class="cls-2" d="M74.64,56.6,73,55.67l0-.1,1.6.93,0,.1" transform="translate(0 -0.08)"/><path class="cls-2" d="M74.67,56.5l-1.6-.93,0-.1,1.61.94a.36.36,0,0,1,0,.09" transform="translate(0 -0.08)"/><path class="cls-2" d="M74.71,56.41l-1.61-.94a.36.36,0,0,1,0-.09l1.6.94,0,.09" transform="translate(0 -0.08)"/><path class="cls-2" d="M74.74,56.32l-1.6-.94a.59.59,0,0,1,0-.08l1.6.93a.36.36,0,0,1,0,.09" transform="translate(0 -0.08)"/><path class="cls-2" d="M74.78,56.23l-1.6-.93a.2.2,0,0,1,0-.08l1.61.93,0,.08" transform="translate(0 -0.08)"/><path class="cls-2" d="M74.83,56.15l-1.61-.93a.41.41,0,0,1,0-.09l1.6.94,0,.08" transform="translate(0 -0.08)"/><path class="cls-2" d="M74.87,56.07l-1.6-.94a.35.35,0,0,1,0-.08l1.6.93a.41.41,0,0,1,0,.09" transform="translate(0 -0.08)"/><path class="cls-2" d="M74.92,56l-1.6-.93a.41.41,0,0,1,.05-.09L75,55.9l-.06.08" transform="translate(0 -0.08)"/><path class="cls-2" d="M75,55.9,73.37,55l.07-.09,1.61.94L75,55.9" transform="translate(0 -0.08)"/><path class="cls-2" d="M75.05,55.81l-1.61-.94.08-.09,1.61.93a.39.39,0,0,0-.08.1" transform="translate(0 -0.08)"/><path class="cls-2" d="M75.13,55.71l-1.61-.93.11-.12,1.6.94-.1.11" transform="translate(0 -0.08)"/><path class="cls-2" d="M75.23,55.6l-1.6-.94a1.85,1.85,0,0,1,.32-.25l1.61.93a2.5,2.5,0,0,0-.33.26" transform="translate(0 -0.08)"/></g></g></g><path class="cls-34" d="M75.56,55.34c.54-.31,1-.05,1,.57a2.18,2.18,0,0,1-1,1.69c-.55.32-1,.06-1-.56A2.17,2.17,0,0,1,75.56,55.34Z" transform="translate(0 -0.08)"/></g></g></g></svg>