<svg xmlns="http://www.w3.org/2000/svg" viewBox="0 0 126 131.76"><defs><style>.cls-1,.cls-2{fill:none;stroke:#ba9156;}.cls-1{stroke-miterlimit:10;}.cls-2{stroke-linecap:round;stroke-linejoin:round;stroke-width:2px;}</style></defs><title>资源 21</title><g id="图层_2" data-name="图层 2"><g id="图层_1-2" data-name="图层 1"><path class="cls-1" d="M66.83,1.74a6.55,6.55,0,0,0-7.66,0l-13.76,10H80.59Z"/><path class="cls-1" d="M22.2,115.52a6.53,6.53,0,0,0,6.2,4.5h17L17,99.34Z"/><path class="cls-1" d="M3.18,42.42A6.52,6.52,0,0,0,.82,49.7L6.08,65.88,17,32.42Z"/><path class="cls-1" d="M97.6,120a6.53,6.53,0,0,0,6.2-4.5l5.25-16.18L80.59,120Z"/><path class="cls-1" d="M125.18,49.7a6.52,6.52,0,0,0-2.36-7.28l-13.77-10,10.87,33.46Z"/><path class="cls-1" d="M6.08,65.88.82,82.06a6.52,6.52,0,0,0,2.36,7.28L17,99.34"/><path class="cls-1" d="M45.41,120l13.76,10a6.51,6.51,0,0,0,7.66,0l13.76-10"/><path class="cls-1" d="M45.41,11.74h-17a6.53,6.53,0,0,0-6.2,4.5L17,32.42"/><path class="cls-1" d="M109.05,99.34l13.77-10a6.52,6.52,0,0,0,2.36-7.28l-5.26-16.18"/><path class="cls-1" d="M109.05,32.42,103.8,16.24a6.53,6.53,0,0,0-6.2-4.5h-17"/><line class="cls-1" x1="80.59" y1="120.02" x2="109.05" y2="99.34"/><line class="cls-1" x1="16.95" y1="99.34" x2="45.41" y2="120.02"/><line class="cls-1" x1="16.95" y1="32.42" x2="6.08" y2="65.88"/><line class="cls-1" x1="80.59" y1="11.74" x2="45.41" y2="11.74"/><line class="cls-1" x1="119.92" y1="65.88" x2="109.05" y2="32.42"/><circle class="cls-2" cx="43.1" cy="68.88" r="4.2"/><circle class="cls-2" cx="43.1" cy="68.88" r="9.25"/><circle class="cls-2" cx="72.6" cy="51.57" r="4.2"/><path class="cls-2" d="M81.85,51.57A9.26,9.26,0,1,1,79,44.88"/><circle class="cls-2" cx="72.6" cy="86.19" r="4.2"/><circle class="cls-2" cx="72.6" cy="86.19" r="9.25"/><line class="cls-2" x1="48.73" y1="61.35" x2="62.93" y2="53.16"/><line class="cls-2" x1="62.93" y1="84.6" x2="48.73" y2="76.41"/></g></g></svg>