<svg xmlns="http://www.w3.org/2000/svg" xmlns:xlink="http://www.w3.org/1999/xlink" viewBox="0 0 542.81 11.3"><defs><style>.cls-1{fill:url(#未命名的渐变_48);}</style><linearGradient id="未命名的渐变_48" x1="271.4" y1="11.3" x2="271.4" gradientUnits="userSpaceOnUse"><stop offset="0" stop-color="#d6a55b"/><stop offset="1" stop-color="#e9d7b1"/></linearGradient></defs><title>资源 28</title><g id="图层_2" data-name="图层 2"><g id="图层_1-2" data-name="图层 1"><path class="cls-1" d="M1.51,4.6H5.83V.68H7.34v10H5.83V6H1.51v4.67H0V.68H1.51Z"/><path class="cls-1" d="M35.84,2.1h-4V4.51h3.9V5.93h-3.9V9.27h4v1.42H30.32V.68h5.52Z"/><path class="cls-1" d="M60.51,5.46,57.75.68h1.72l1.91,3.39,2-3.39h1.73L62.24,5.46l3,5.23H63.57L61.36,6.86l-2.29,3.83H57.36Z"/><path class="cls-1" d="M113.39,6.63v4.06h-1.51V.68h1.71a7.52,7.52,0,0,1,1.9.18,2.45,2.45,0,0,1,1.14.66,2.86,2.86,0,0,1,.86,2.12,2.75,2.75,0,0,1-.92,2.18,3.61,3.61,0,0,1-2.48.81Zm0-1.4H114c1.39,0,2.08-.54,2.08-1.61s-.71-1.54-2.15-1.54h-.49Z"/><path class="cls-1" d="M144.78,8.26h-4.29l-1.11,2.43h-1.63L142.7.05l4.78,10.64h-1.65Zm-.62-1.42-1.48-3.4-1.56,3.4Z"/><path class="cls-1" d="M172.71,6.43l3.09,4.26H174l-2.86-4.1h-.28v4.1h-1.51V.68h1.77a4.41,4.41,0,0,1,2.87.75,2.72,2.72,0,0,1,1,2.19,2.83,2.83,0,0,1-.61,1.83A2.73,2.73,0,0,1,172.71,6.43Zm-1.89-1.15h.48c1.44,0,2.15-.55,2.15-1.64s-.7-1.54-2.09-1.54h-.54Z"/><path class="cls-1" d="M200.54,2.1v8.59H199V2.1h-2.31V.68h6.11V2.1Z"/><path class="cls-1" d="M224.76,10.69V0l7.3,7.64v-7h1.51V11.3l-7.3-7.62v7Z"/><path class="cls-1" d="M262.08,2.1h-4V4.51H262V5.93h-3.9V9.27h4v1.42h-5.53V.68h5.53Z"/><path class="cls-1" d="M288,6.43l3.09,4.26h-1.84l-2.86-4.1h-.27v4.1h-1.52V.68h1.78a4.39,4.39,0,0,1,2.86.75,2.72,2.72,0,0,1,1,2.19,2.83,2.83,0,0,1-.61,1.83A2.73,2.73,0,0,1,288,6.43Zm-1.88-1.15h.48c1.43,0,2.14-.55,2.14-1.64s-.69-1.54-2.09-1.54h-.53Z"/><path class="cls-1" d="M318.88,2.17l-1.22.73a2.08,2.08,0,0,0-.66-.78,1.48,1.48,0,0,0-.83-.21,1.56,1.56,0,0,0-1.05.36,1.09,1.09,0,0,0-.41.88c0,.49.36.88,1.08,1.18l1,.41a4.31,4.31,0,0,1,1.79,1.2,2.77,2.77,0,0,1,.56,1.74,3.11,3.11,0,0,1-.92,2.29,3.18,3.18,0,0,1-2.3.9,3,3,0,0,1-2.15-.77,3.55,3.55,0,0,1-1-2.17l1.53-.34a2.5,2.5,0,0,0,.37,1.22,1.57,1.57,0,0,0,1.36.65A1.59,1.59,0,0,0,317.15,9a1.66,1.66,0,0,0,.47-1.2,1.8,1.8,0,0,0-.08-.54,1.46,1.46,0,0,0-.26-.45,2.12,2.12,0,0,0-.44-.38,4.34,4.34,0,0,0-.65-.34l-1-.4c-1.37-.58-2.05-1.43-2.05-2.54A2.44,2.44,0,0,1,314,1.25a3.12,3.12,0,0,1,2.15-.76A3,3,0,0,1,318.88,2.17Z"/><path class="cls-1" d="M343.06,4.6h4.31V.68h1.51v10h-1.51V6h-4.31v4.67h-1.52V.68h1.52Z"/><path class="cls-1" d="M373.38.68v10h-1.51V.68Z"/><path class="cls-1" d="M397.87,6.63v4.06h-1.51V.68h1.72A7.43,7.43,0,0,1,400,.86a2.43,2.43,0,0,1,1.15.66A2.86,2.86,0,0,1,402,3.64a2.75,2.75,0,0,1-.92,2.18,3.64,3.64,0,0,1-2.49.81Zm0-1.4h.57c1.39,0,2.08-.54,2.08-1.61s-.72-1.54-2.15-1.54h-.5Z"/><path class="cls-1" d="M450.31,6.63v4.06H448.8V.68h1.71a7.52,7.52,0,0,1,1.9.18,2.45,2.45,0,0,1,1.14.66,2.86,2.86,0,0,1,.86,2.12,2.71,2.71,0,0,1-.92,2.18,3.61,3.61,0,0,1-2.48.81Zm0-1.4h.56c1.39,0,2.08-.54,2.08-1.61s-.71-1.54-2.14-1.54h-.5Z"/><path class="cls-1" d="M478.06.68V9.27H481v1.42h-4.45V.68Z"/><path class="cls-1" d="M509.46,8.26h-4.29l-1.11,2.43h-1.63L507.38.05l4.78,10.64h-1.65Zm-.62-1.42-1.48-3.4-1.56,3.4Z"/><path class="cls-1" d="M534,10.69V0l7.3,7.64v-7h1.51V11.3l-7.3-7.62v7Z"/></g></g></svg>