<?xml version="1.0" encoding="utf-8"?>
<!-- Generator: Adobe Illustrator 22.0.1, SVG Export Plug-In . SVG Version: 6.00 Build 0)  -->
<svg version="1.1" id="图层_1" xmlns="http://www.w3.org/2000/svg" xmlns:xlink="http://www.w3.org/1999/xlink" x="0px" y="0px"
	 viewBox="0 0 592 125" style="enable-background:new 0 0 592 125;" xml:space="preserve">
<style type="text/css">
	.st0{fill:url(#SVGID_1_);}
	.st1{fill:url(#SVGID_2_);}
	.st2{fill:url(#SVGID_3_);}
	.st3{fill:url(#SVGID_4_);}
	.st4{fill:url(#SVGID_5_);}
	.st5{fill:url(#SVGID_6_);}
	.st6{fill:url(#SVGID_7_);}
	.st7{fill:url(#SVGID_8_);}
	.st8{fill:url(#SVGID_9_);}
	.st9{fill:url(#SVGID_10_);}
	.st10{fill:url(#SVGID_11_);}
	.st11{fill:url(#SVGID_12_);}
	.st12{fill:url(#SVGID_13_);}
	.st13{fill:url(#SVGID_14_);}
	.st14{fill:url(#SVGID_15_);}
	.st15{fill:url(#SVGID_16_);}
	.st16{fill:url(#SVGID_17_);}
	.st17{fill:url(#SVGID_18_);}
	.st18{fill:url(#SVGID_19_);}
	.st19{fill:url(#SVGID_20_);}
	.st20{fill:url(#SVGID_21_);}
</style>
<title>资源 31</title>
<g>
	<g id="图层_2_1_">
		<g id="图层_1-2">
			
				<image style="overflow:visible;opacity:0.15;enable-background:new    ;" width="592" height="125" xlink:href="C2D0CBBD8ED4A61C.png" >
			</image>
			
				<linearGradient id="SVGID_1_" gradientUnits="userSpaceOnUse" x1="43.645" y1="26.04" x2="43.645" y2="97.45" gradientTransform="matrix(1 0 0 -1 0 126)">
				<stop  offset="0" style="stop-color:#D6A55B"/>
				<stop  offset="1" style="stop-color:#E9D7B1"/>
			</linearGradient>
			<path class="st0" d="M28.5,30.7v24.4h30.3V30.7h8.8v57.9h-8.8v-26H28.5v26h-8.8V30.7H28.5z"/>
			
				<linearGradient id="SVGID_2_" gradientUnits="userSpaceOnUse" x1="103.73" y1="26.04" x2="103.73" y2="97.45" gradientTransform="matrix(1 0 0 -1 0 126)">
				<stop  offset="0" style="stop-color:#D6A55B"/>
				<stop  offset="1" style="stop-color:#E9D7B1"/>
			</linearGradient>
			<path class="st1" d="M123.8,30.7v7.5H91.1v16.9h30.8v7.5H91.1v18.4h34.1v7.6h-43V30.7H123.8z"/>
			
				<linearGradient id="SVGID_3_" gradientUnits="userSpaceOnUse" x1="158.485" y1="26.04" x2="158.485" y2="97.45" gradientTransform="matrix(1 0 0 -1 0 126)">
				<stop  offset="0" style="stop-color:#D6A55B"/>
				<stop  offset="1" style="stop-color:#E9D7B1"/>
			</linearGradient>
			<path class="st2" d="M144.4,30.7l14.1,20.9l14.1-20.9h10.8l-19.6,28l21,29.9H174l-15.5-23l-15.5,23h-10.8l20.8-29.9l-19.5-28
				L144.4,30.7z"/>
			
				<linearGradient id="SVGID_4_" gradientUnits="userSpaceOnUse" x1="208.705" y1="26.04" x2="208.705" y2="97.45" gradientTransform="matrix(1 0 0 -1 0 126)">
				<stop  offset="0" style="stop-color:#D6A55B"/>
				<stop  offset="1" style="stop-color:#E9D7B1"/>
			</linearGradient>
			<path class="st3" d="M229,92.8v7.2h-40.6v-7.2H229z"/>
			
				<linearGradient id="SVGID_5_" gradientUnits="userSpaceOnUse" x1="265.025" y1="26.04" x2="265.025" y2="97.45" gradientTransform="matrix(1 0 0 -1 0 126)">
				<stop  offset="0" style="stop-color:#D6A55B"/>
				<stop  offset="1" style="stop-color:#E9D7B1"/>
			</linearGradient>
			<path class="st4" d="M267.4,28.7c8,9.1,17.7,16.7,28.6,22.1l-3.4,6c-3.5-1.9-6.9-4-10.2-6.3v4.7h-34.6v-4.8
				c-3.4,2.4-6.9,4.6-10.5,6.6l-3.3-6.1c10.9-5.5,20.7-13,28.8-22.2L267.4,28.7z M286.6,89.5h-6.1V86h-30.8v3.6h-6.1V62.2h42.9
				L286.6,89.5z M280.7,49.2c-5.8-4.3-11-9.3-15.5-14.8c-4.6,5.6-9.9,10.6-15.7,14.8H280.7z M280.6,80.1v-12h-30.8v12H280.6z"/>
			
				<linearGradient id="SVGID_6_" gradientUnits="userSpaceOnUse" x1="333.795" y1="26.04" x2="333.795" y2="97.45" gradientTransform="matrix(1 0 0 -1 0 126)">
				<stop  offset="0" style="stop-color:#D6A55B"/>
				<stop  offset="1" style="stop-color:#E9D7B1"/>
			</linearGradient>
			<path class="st5" d="M305.4,61.3l-2.1-6.7c6.7-7.5,11.7-16.4,14.8-26l5.8,2.8c-1.6,5-3.7,9.8-6.4,14.3v43.9h-6.1v-35
				C309.6,56.8,307.5,59,305.4,61.3z M345.3,46c-0.1,2.3-0.2,4.5-0.4,6.7c3.2,14.3,9.6,25.1,19.4,32.3l-4.2,4.8
				c-8.3-6.7-14.4-15.9-17.3-26.2c-3.2,10.3-9.5,19.5-18,26.2l-4.3-4.7c12.4-9.6,18.7-22.4,18.8-38.3c0.1-6.2,0.1-12,0.1-17.5h6.3
				C345.5,35,345.4,40.5,345.3,46z M333,41.1c-0.6,7.1-2.3,14-5,20.5l-5.6-1.7c2.7-6.2,4.3-12.8,4.8-19.6L333,41.1z M362.1,40.8
				c-1.4,6.9-3.4,13.7-6,20.2l-5.6-2c2.6-6.3,4.6-12.9,5.9-19.7L362.1,40.8z"/>
			
				<linearGradient id="SVGID_7_" gradientUnits="userSpaceOnUse" x1="402.09" y1="26.04" x2="402.09" y2="97.45" gradientTransform="matrix(1 0 0 -1 0 126)">
				<stop  offset="0" style="stop-color:#D6A55B"/>
				<stop  offset="1" style="stop-color:#E9D7B1"/>
			</linearGradient>
			<path class="st6" d="M404.6,43.7c3.8,17.5,13.3,30.9,28.3,40.1l-4.1,5.5c-12.3-8-21.6-19.9-26.5-33.8c-4.3,13.7-13.4,25-27.3,34
				l-3.8-5.6C389,73,398.2,58.2,398.7,39.3c0-4.4,0.1-7.8,0.1-10.3h6.3C405.1,34.7,404.9,39.6,404.6,43.7z"/>
			
				<linearGradient id="SVGID_8_" gradientUnits="userSpaceOnUse" x1="470.775" y1="26.04" x2="470.775" y2="97.45" gradientTransform="matrix(1 0 0 -1 0 126)">
				<stop  offset="0" style="stop-color:#D6A55B"/>
				<stop  offset="1" style="stop-color:#E9D7B1"/>
			</linearGradient>
			<path class="st7" d="M455.6,48.4v28c2.1-1.7,4.3-3.7,6.6-5.9l1.6,6.4c-4.2,3.9-8.7,7.5-13.6,10.6l-2.4-5.6c1.1-0.8,1.7-2,1.7-3.4
				V54.4h-9.2v-6L455.6,48.4z M460,39.1l-4.3,4.3c-3.3-3.7-6.9-7-10.9-9.8l4.4-4.3C453.1,32.2,456.7,35.5,460,39.1z M478.4,48.1
				V28.8h6.5V48h16.3v6.2h-16.4v35.5h-6.5V54.2h-17.3V48L478.4,48.1z"/>
			
				<linearGradient id="SVGID_9_" gradientUnits="userSpaceOnUse" x1="537.905" y1="26.04" x2="537.905" y2="97.45" gradientTransform="matrix(1 0 0 -1 0 126)">
				<stop  offset="0" style="stop-color:#D6A55B"/>
				<stop  offset="1" style="stop-color:#E9D7B1"/>
			</linearGradient>
			<path class="st8" d="M543,49l-18.6,2.8c0.2,2.7,0.6,5.4,1.2,8.1c0.4,2.3,1,4.6,1.7,6.8c3.6-4.3,6.5-9.1,8.8-14.2l5.5,2.8
				c-2.9,6.7-7,12.9-11.9,18.3c0.4,1,0.9,2,1.5,3c2.2,3.8,4.3,5.7,6.2,5.8c1-0.2,2.1-3.4,3.2-9.5l5.3,3.4c-0.8,2.9-1.9,5.8-3.2,8.6
				c-1.5,2.8-3.1,4.2-4.9,4.2c-3.2,0-6.3-2.2-9.3-6.4c-1.2-1.5-2.2-3.2-3-4.9c-3.9,3.3-8.3,5.9-13,7.9l-3.8-5.6c5.2-2,10-5,14.2-8.6
				c-0.9-2.4-1.7-4.9-2.3-7.4c-0.9-3.7-1.6-7.5-2-11.3l-8,1.2l-1-6l8.3-1.3c-0.5-5.3-0.7-11.2-0.7-17.7h6.3c0,6.2,0.1,11.8,0.5,16.8
				L542,43L543,49z M538.9,38.2l-5.3,2.6c-2-3.4-4.2-6.7-6.7-9.7l5.1-2.5C534.6,31.6,536.8,34.9,538.9,38.2L538.9,38.2z M553.9,34.5
				v40.7h-6.1V34.5L553.9,34.5z M550.9,89l-1.5-6c3.1,0.3,6,0.4,8.8,0.4c1.8,0,2.8-0.9,2.8-2.7V29h6.2v53.3c0,4.5-2.3,6.7-6.8,6.7
				L550.9,89z"/>
			
				<linearGradient id="SVGID_10_" gradientUnits="userSpaceOnUse" x1="-2632.885" y1="-2362.8152" x2="-2638.925" y2="-2356.7751" gradientTransform="matrix(6.123234e-17 -1 -1 -6.123234e-17 -2083.6602 -2570.3301)">
				<stop  offset="0" style="stop-color:#8B6349"/>
				<stop  offset="0.8" style="stop-color:#E9D7B1;stop-opacity:0"/>
			</linearGradient>
			<path class="st9" d="M272.6,68.1v-5.9l0,0h5c1.7,0,3,1.3,3,3v2.9l0,0H272.6L272.6,68.1z"/>
			
				<linearGradient id="SVGID_11_" gradientUnits="userSpaceOnUse" x1="-5109.7676" y1="377.582" x2="-5116.3179" y2="384.122" gradientTransform="matrix(-1 0 0 1 -4623.5103 -329.27)">
				<stop  offset="0" style="stop-color:#8B6349"/>
				<stop  offset="0.8" style="stop-color:#E9D7B1;stop-opacity:0"/>
			</linearGradient>
			<path class="st10" d="M493.4,54.3h-8.7l0,0v-3.2c0-1.7,1.3-3,3-3h5.7l0,0V54.3L493.4,54.3z"/>
			
				<linearGradient id="SVGID_12_" gradientUnits="userSpaceOnUse" x1="-4730.4883" y1="1486.5435" x2="-4736.2681" y2="1489.8835" gradientTransform="matrix(-0.866 0.5 0.5 0.866 -4311.8403 1145.2828)">
				<stop  offset="0" style="stop-color:#8B6349"/>
				<stop  offset="0.8" style="stop-color:#E9D7B1;stop-opacity:0"/>
			</linearGradient>
			<path class="st11" d="M529.5,63.8l2-2.6l3.3,6.3l-5.1,6.2l-1.2-3.7C527.8,67.9,528.2,65.5,529.5,63.8z"/>
			
				<linearGradient id="SVGID_13_" gradientUnits="userSpaceOnUse" x1="-4653.6235" y1="384.5236" x2="-4661.7832" y2="392.6836" gradientTransform="matrix(-1 0 0 1 -4623.5098 -329.28)">
				<stop  offset="0" style="stop-color:#8B6349"/>
				<stop  offset="0.8" style="stop-color:#E9D7B1;stop-opacity:0"/>
			</linearGradient>
			<path class="st12" d="M39,62.6H28.5l0,0v-4.5c0-1.7,1.3-3,3-3l0,0H39l0,0V62.6L39,62.6z"/>
			
				<linearGradient id="SVGID_14_" gradientUnits="userSpaceOnUse" x1="-3022.7947" y1="-2138.8047" x2="-3029.0747" y2="-2132.5146" gradientTransform="matrix(6.123234e-17 -1 -1 -6.123234e-17 -1683.5 -2966.8401)">
				<stop  offset="0" style="stop-color:#8B6349"/>
				<stop  offset="0.8" style="stop-color:#E9D7B1;stop-opacity:0"/>
			</linearGradient>
			<path class="st13" d="M449.6,62.8v-8.4l0,0h3c1.7,0,3,1.3,3,3v5.4l0,0H449.6L449.6,62.8z"/>
			
				<linearGradient id="SVGID_15_" gradientUnits="userSpaceOnUse" x1="-2173.4067" y1="2494.7822" x2="-2185.0916" y2="2506.4768" gradientTransform="matrix(6.123234e-17 1 1 -6.123234e-17 -2413.52 2225.79)">
				<stop  offset="0" style="stop-color:#8B6349"/>
				<stop  offset="0.8" style="stop-color:#E9D7B1;stop-opacity:0"/>
			</linearGradient>
			<path class="st14" d="M91.1,38.8v16.3l0,0h-5.9c-1.7,0-3-1.3-3-3V38.8l0,0H91.1L91.1,38.8z"/>
			
				<linearGradient id="SVGID_16_" gradientUnits="userSpaceOnUse" x1="-4736.3784" y1="610.1487" x2="-4744.0083" y2="617.7787" gradientTransform="matrix(-1 0 0 1 -4486.3999 -561.41)">
				<stop  offset="0" style="stop-color:#8B6349"/>
				<stop  offset="0.8" style="stop-color:#E9D7B1;stop-opacity:0"/>
			</linearGradient>
			<path class="st15" d="M258.9,55.1h-11l0,0v-3c0-1.7,1.3-3,3-3h8l0,0V55.1L258.9,55.1z"/>
			
				<linearGradient id="SVGID_17_" gradientUnits="userSpaceOnUse" x1="-2145.3513" y1="-1576.8936" x2="-2152.7312" y2="-1569.5135" gradientTransform="matrix(0 1 -1 0 -1010.2 2225.79)">
				<stop  offset="0" style="stop-color:#8B6349"/>
				<stop  offset="0.8" style="stop-color:#E9D7B1;stop-opacity:0"/>
			</linearGradient>
			<path class="st16" d="M567.1,77.8v-6.4H561v9.4c0.1,0.9-0.4,1.7-1.2,2.2h2.1C564.8,83,567.1,80.7,567.1,77.8z"/>
			
				<linearGradient id="SVGID_18_" gradientUnits="userSpaceOnUse" x1="-927.1457" y1="-1249.4878" x2="-935.6357" y2="-1260.0779" gradientTransform="matrix(0.78 -0.6258 -0.6258 -0.78 255.6902 -1505.4784)">
				<stop  offset="0" style="stop-color:#8B6349"/>
				<stop  offset="0.8" style="stop-color:#E9D7B1;stop-opacity:0"/>
			</linearGradient>
			<path class="st17" d="M317.5,57.4l-6.1,5.5v-8.3l3.1-4.6c0.5-0.7,1.6-0.9,2.3-0.4c0.4,0.3,0.7,0.8,0.7,1.3L317.5,57.4z"/>
			<linearGradient id="SVGID_19_" gradientUnits="userSpaceOnUse" x1="159.8849" y1="67.92" x2="170.64" y2="67.92">
				<stop  offset="0" style="stop-color:#8B6349"/>
				<stop  offset="0.8" style="stop-color:#E9D7B1;stop-opacity:0"/>
			</linearGradient>
			<path class="st18" d="M166.1,77.2l4.6-8.7l-6.9-9.8l-2.5,3.3c-1.7,2.3-1.8,5.5-0.2,7.8L166.1,77.2z"/>
			<linearGradient id="SVGID_20_" gradientUnits="userSpaceOnUse" x1="342.62" y1="67.8908" x2="352.9197" y2="67.8908">
				<stop  offset="0" style="stop-color:#8B6349"/>
				<stop  offset="0.8" style="stop-color:#E9D7B1;stop-opacity:0"/>
			</linearGradient>
			<path class="st19" d="M347.3,74.6c2.4,3.6,8.9,4.2,3.6-5.4c-1.6-2.9-3-6-4.1-9.2c-0.3-0.9-1.3-1.4-2.3-1.1
				c-0.6,0.2-1,0.7-1.2,1.3l-0.7,3.3C342.6,63.5,344.9,71,347.3,74.6z"/>
			<linearGradient id="SVGID_21_" gradientUnits="userSpaceOnUse" x1="402.32" y1="58.9204" x2="413.3438" y2="58.9204">
				<stop  offset="0" style="stop-color:#8B6349"/>
				<stop  offset="0.8" style="stop-color:#E9D7B1;stop-opacity:0"/>
			</linearGradient>
			<path class="st20" d="M407.6,66.8c2.4,3.6,9.1,4.3,3.7-5.3c-2.1-3.8-3.8-7.8-5.2-12c-0.2-0.7-1-1.1-1.8-0.9
				c-0.5,0.2-0.9,0.6-1,1.1l-1.1,5.8C402.3,55.4,405.2,63.2,407.6,66.8z"/>
		</g>
	</g>
</g>
</svg>
